<svg width="401" height="401" viewBox="0 0 401 401" fill="none" xmlns="http://www.w3.org/2000/svg">
<path d="M307.869 10.6274L283.048 23.0337C282.139 23.4188 281.364 24.062 280.819 24.8831C280.274 25.7042 279.984 26.6669 279.985 27.6512V39.2203C279.962 49.7377 283.04 60.0301 288.835 68.8197C293.308 75.5852 299.239 84.2874 309.108 89.2517H313.555C324.544 85.8689 332.741 77.0145 337.748 69.4032C343.542 60.6132 346.62 50.3211 346.599 39.8039V27.6512C346.599 26.6681 346.309 25.7065 345.766 24.8858C345.223 24.065 344.451 23.421 343.544 23.0337L315.269 11.0249C314.005 10.4921 309.125 10.0946 307.869 10.6274Z" fill="#E0E0E0"/>
<path d="M306.868 11.0246L278.593 23.0335C277.684 23.4186 276.909 24.0618 276.364 24.8829C275.819 25.704 275.529 26.6667 275.53 27.651V39.2201C275.53 49.9382 278.721 60.4153 284.698 69.3257C290.675 78.2361 299.17 85.1793 309.108 89.2768C320.089 85.894 328.286 77.0396 333.301 69.4283C339.097 60.6294 342.174 50.3289 342.152 39.8036V27.651C342.152 26.6667 341.862 25.704 341.318 24.8829C340.773 24.0618 339.998 23.4186 339.089 23.0335L310.814 11.0246C310.189 10.763 309.518 10.6282 308.841 10.6282C308.163 10.6282 307.492 10.763 306.868 11.0246Z" fill="#F5F5F5"/>
<path d="M342.059 36.6663C342.097 36.8412 342.114 37.0201 342.11 37.199C342.11 37.5965 342.152 38.1039 342.177 38.7298C342.203 39.3556 342.245 40.2097 342.177 41.1569C342.11 42.1041 342.177 43.1866 342.025 44.3705C341.872 45.5545 341.83 46.9076 341.583 48.2523C341.473 48.9458 341.388 49.6646 341.244 50.4004C341.1 51.1361 340.922 51.8803 340.76 52.6499C339.978 55.9889 338.884 59.2477 337.493 62.3839C336.064 65.5046 334.36 68.4931 332.402 71.3144C331.46 72.5829 330.586 73.8515 329.652 74.8579C329.194 75.3906 328.804 75.9319 328.337 76.4055L327.047 77.767C326.241 78.6127 325.418 79.357 324.731 80.0166C324.043 80.6762 323.415 81.1921 322.898 81.6065L321.786 82.5706C321.654 82.6909 321.509 82.7959 321.353 82.8835C321.466 82.7431 321.594 82.6155 321.735 82.5029L322.881 81.4797C323.381 81.0483 323.992 80.5071 324.654 79.7883C325.316 79.0694 326.131 78.4098 326.911 77.5133L328.176 76.1349C328.609 75.6613 329.024 75.12 329.466 74.5872C330.382 73.5301 331.231 72.3039 332.156 71.0353C334.077 68.2269 335.752 65.2588 337.162 62.164C338.537 59.0508 339.631 55.8215 340.429 52.5146L340.93 50.2819C341.083 49.5547 341.176 48.8358 341.295 48.1508C341.549 46.7808 341.651 45.4869 341.779 44.3029C341.906 43.1189 341.923 42.0533 341.991 41.1062C342.059 40.159 342.05 39.3556 342.05 38.6875C342.05 38.0194 342.05 37.5542 342.05 37.1568C342.036 36.9934 342.039 36.829 342.059 36.6663Z" fill="#E0E0E0"/>
<path d="M306.732 61.8173L290.515 48.9712L295.013 43.3304L305.892 51.948L321.777 34.2307L327.166 39.0343L306.732 61.8173Z" fill="white"/>
<path d="M383.343 73.9363H380.271V57.2846C380.271 55.4005 379.52 53.5936 378.183 52.2614C376.846 50.9292 375.033 50.1807 373.143 50.1807C371.252 50.1807 369.439 50.9292 368.102 52.2614C366.765 53.5936 366.014 55.4005 366.014 57.2846V73.9363H362.943V57.2846C362.943 54.5931 364.015 52.0118 365.925 50.1086C367.835 48.2054 370.425 47.1362 373.126 47.1362C375.826 47.1362 378.416 48.2054 380.326 50.1086C382.236 52.0118 383.309 54.5931 383.309 57.2846L383.343 73.9363Z" fill="#EBEBEB"/>
<path d="M384.267 62.6372H362.009C360.565 62.6372 359.395 63.8034 359.395 65.2419V81.5047C359.395 82.9432 360.565 84.1094 362.009 84.1094H384.267C385.711 84.1094 386.881 82.9432 386.881 81.5047V65.2419C386.881 63.8034 385.711 62.6372 384.267 62.6372Z" fill="#EBEBEB"/>
<path d="M375.247 73.9275C375.52 73.6509 375.736 73.3232 375.881 72.9633C376.027 72.6033 376.1 72.2182 376.095 71.8301C376.099 71.2675 375.946 70.7148 375.651 70.2346C375.357 69.7544 374.934 69.3657 374.43 69.1124C373.925 68.8592 373.36 68.7513 372.798 68.8012C372.235 68.851 371.698 69.0565 371.247 69.3944C370.795 69.7324 370.447 70.1893 370.243 70.7137C370.038 71.2382 369.984 71.8092 370.088 72.3623C370.192 72.9155 370.448 73.4288 370.829 73.8443C371.21 74.2599 371.699 74.5611 372.243 74.714L371.598 77.5724H374.475L373.898 74.714C374.4 74.571 374.856 74.2999 375.221 73.9275" fill="#FAFAFA"/>
<path d="M34.48 316.972C31.1843 314.917 27.4599 313.641 23.5927 313.242C21.8106 313.056 19.8674 313.107 18.4418 314.181C18.2762 314.275 18.1392 314.412 18.0452 314.577C17.9511 314.743 17.9034 314.93 17.9071 315.12C17.9941 315.388 18.1748 315.616 18.4163 315.763C20.728 317.406 23.4471 318.388 26.2788 318.601C29.1106 318.814 31.9468 318.251 34.48 316.972Z" fill="#E0E0E0"/>
<path d="M34.2 316.667C31.6792 314.821 29.3253 312.758 27.1652 310.502C25.0006 308.23 23.4807 305.425 22.761 302.375C22.6177 301.923 22.5746 301.446 22.6347 300.976C22.6947 300.505 22.8566 300.054 23.1089 299.652C28.7096 304.016 33.1138 309.665 34.2 316.667Z" fill="#E0E0E0"/>
<path d="M34.4205 316.93C33.9041 313.877 33.9501 310.756 34.5563 307.72C35.1795 304.659 36.9329 301.943 39.4696 300.109C40.437 302.367 40.0212 304.971 39.3423 307.322C38.2873 310.976 36.639 314.433 34.463 317.555" fill="#E0E0E0"/>
<path d="M39.9195 326.748C36.6211 327.28 33.5698 328.819 31.1876 331.154C28.682 333.423 26.937 336.405 26.1894 339.696C29.465 339.493 32.2398 337.159 34.251 334.621C36.2621 332.084 37.6453 329.217 39.8771 326.807" fill="#E0E0E0"/>
<path d="M41.1159 328.313C39.8022 324.991 39.3416 321.394 39.7758 317.85C40.2099 314.306 41.5252 310.926 43.6023 308.016C45.5031 314.782 44.7988 322.393 41.1159 328.313Z" fill="#E0E0E0"/>
<path d="M48.3713 336.93C45.3216 336.746 42.2848 337.458 39.6374 338.978C36.9901 340.498 34.8486 342.759 33.4786 345.48C33.3004 345.844 33.1306 346.326 33.3852 346.639C33.5128 346.764 33.6695 346.856 33.8412 346.906C34.0129 346.956 34.1944 346.963 34.3696 346.926C37.3057 346.74 39.9024 344.981 42.0493 342.977C44.1962 340.973 46.0716 338.656 48.4391 336.922" fill="#E0E0E0"/>
<path d="M48.1424 336.473C46.5788 331.457 46.4817 326.1 47.8623 321.031C48.4139 319.044 49.3304 316.955 51.1718 316.025C51.2456 315.975 51.329 315.941 51.4166 315.925C51.5043 315.909 51.5943 315.911 51.681 315.931C51.8299 316.01 51.9424 316.144 51.995 316.304C52.6174 317.691 52.8856 319.211 52.7757 320.727C52.6668 322.24 52.4341 323.742 52.0798 325.217C51.5028 327.957 51.2312 330.9 49.6783 333.268C49.3238 333.838 49.0036 334.428 48.7194 335.036C48.4394 335.636 48.4394 335.881 48.1763 336.321" fill="#E0E0E0"/>
<path d="M67.3627 339.315C66.7166 336.496 66.6954 333.571 67.3007 330.743C67.906 327.915 69.1232 325.253 70.8673 322.942C71.1134 322.613 71.4444 322.266 71.8602 322.3C72.4881 322.359 72.6493 323.196 72.6239 323.822C72.3636 329.373 70.5403 334.74 67.3627 339.307" fill="#E0E0E0"/>
<path d="M69.0938 340.499C72.4566 341.29 75.9514 341.344 79.3372 340.658C82.723 339.972 85.919 338.561 88.7047 336.524C85.4235 334.88 81.671 334.422 78.0889 335.23C74.5418 336.076 71.3002 337.615 69.0938 340.499Z" fill="#E0E0E0"/>
<path d="M70.5534 336.905C74.2448 330.917 81.3135 327.01 88.3737 326.647C87.5252 329.505 85.2085 331.721 82.5524 333.066C79.8297 334.283 76.9512 335.12 73.9987 335.552C72.8616 335.772 71.3002 336.017 70.6043 336.905" fill="#E0E0E0"/>
<path d="M67.7276 319.458C68.8469 316.085 69.6092 312.604 70.0019 309.073C70.3963 305.519 69.6727 301.932 67.9313 298.806C64.486 305.445 64.1381 313.183 67.6258 319.822" fill="#E0E0E0"/>
<path d="M79.3193 313.64C83.3501 306.35 91.5644 300.523 99.8721 299.703C96.6644 307.661 87.924 313.809 79.3193 313.64Z" fill="#E0E0E0"/>
<path d="M76.7906 315.052C82.7901 315.965 87.9071 319.788 93.5162 322.105C94.6942 322.667 95.9982 322.915 97.3009 322.824C97.9062 322.816 98.4944 322.624 98.9866 322.273C99.4787 321.922 99.8511 321.429 100.054 320.86C100.256 320.292 100.279 319.675 100.119 319.093C99.9591 318.511 99.6242 317.992 99.1593 317.606C98.3654 316.865 97.4305 316.29 96.4099 315.915C90.3001 313.378 83.7405 313.318 77.3082 314.858" fill="#E0E0E0"/>
<path d="M73.3114 319.247C74.6691 319.636 75.1358 320.338 76.2135 321.251C79.8951 324.369 84.2523 326.592 88.9423 327.746C89.426 327.865 90.0625 327.915 90.3085 327.484C90.5546 327.053 90.2491 326.638 89.9776 326.3C87.9465 323.918 85.3079 322.127 82.3403 321.116C79.4127 320.025 76.8754 318.714 73.3792 319.002" fill="#E0E0E0"/>
<path d="M69.3908 293.901C71.8537 296.164 74.7643 297.888 77.9356 298.963C81.1069 300.038 84.4688 300.44 87.8052 300.143C88.1151 300.152 88.4176 300.047 88.6537 299.847C89.1205 299.339 88.5604 298.561 88.0258 298.155C82.6118 293.927 76.0522 292.235 69.4078 293.927" fill="#E0E0E0"/>
<path d="M74.0411 292.202C77.3006 289.813 81.0806 288.226 85.0728 287.57C89.065 286.915 93.1561 287.209 97.0123 288.43C94.0056 291.204 90.15 292.89 86.0656 293.216C82.0287 293.586 77.9581 293.243 74.0411 292.202Z" fill="#E0E0E0"/>
<path d="M72.1913 280.557C71.6651 275.169 72.0046 270.924 71.6312 265.512C71.6312 265.08 71.5124 264.564 71.1051 264.404C70.5365 264.192 70.0698 264.877 69.8831 265.452C69.0955 267.96 68.8933 270.613 69.2918 273.211C69.6904 275.808 70.6792 278.28 72.1828 280.438" fill="#E0E0E0"/>
<path d="M71.8009 281.148C75.3449 278.883 78.4 275.936 80.7874 272.48C82.5525 270.07 84.046 267.186 83.6471 264.226C82.4022 264.259 81.1795 264.562 80.0641 265.114C78.9488 265.666 77.9678 266.454 77.1894 267.423C75.6482 269.372 74.5273 271.618 73.8969 274.019C73.1841 276.387 72.6834 278.823 71.8348 281.148" fill="#E0E0E0"/>
<path d="M80.6006 278.712C88.6703 275.745 96.1424 271.363 102.664 265.773C100.033 264.716 97.0208 265.35 94.3902 266.408C88.4181 268.662 83.4841 273.022 80.5243 278.662" fill="#E0E0E0"/>
<path d="M74.2786 284.1C78.333 284.673 82.447 284.693 86.5068 284.159C90.4697 283.499 94.2204 281.926 97.9203 280.379C98.244 280.282 98.5215 280.072 98.701 279.787C98.7568 279.615 98.76 279.431 98.7101 279.258C98.6602 279.084 98.5595 278.93 98.4209 278.814C98.1344 278.59 97.8008 278.434 97.4451 278.357C93.4143 277.241 89.0695 277.765 85.1066 279.093C81.3322 280.382 77.7031 282.06 74.2786 284.1Z" fill="#E0E0E0"/>
<path d="M51.0869 294.087C48.312 288.506 48.5411 281.994 50.8917 276.243C52.5889 278.78 52.7841 282.061 52.4786 285.114C52.1731 288.167 51.2396 291.296 51.1717 294.358" fill="#E0E0E0"/>
<path d="M39.9789 288.514C36.5066 288.468 33.0629 289.145 29.8685 290.503C26.6742 291.86 23.7995 293.867 21.4288 296.396C24.9357 296.816 28.4876 296.161 31.6118 294.519C34.7048 292.882 37.6221 290.935 40.3183 288.709" fill="#E0E0E0"/>
<path d="M32.5283 286.028C29.134 285.757 25.8839 285.343 22.6253 286.332C20.9812 286.794 19.4563 287.603 18.1544 288.705C16.8525 289.807 15.8044 291.175 15.0814 292.717C18.2774 292.973 21.4835 292.368 24.3649 290.967C27.2293 289.568 29.9614 287.915 32.5283 286.028Z" fill="#E0E0E0"/>
<path d="M43.5599 286.147C40.5135 284.159 37.3822 282.13 33.8351 281.301C30.288 280.472 26.1978 281.089 23.703 283.753C26.5712 285.445 30.0589 285.631 33.3938 285.631C36.7288 285.631 40.802 285.588 43.9418 286.696" fill="#E0E0E0"/>
<path d="M43.577 286.307C38.3666 281.233 36.3979 272.048 38.4854 265.08C42.5968 271.355 44.3963 278.857 43.577 286.307Z" fill="#E0E0E0"/>
<path d="M57.8755 271.863C58.8598 269.579 59.5726 267.194 60.4212 264.877C61.2246 262.526 62.459 260.344 64.0616 258.441C65.6853 256.513 68.0047 255.298 70.5194 255.059C69.7162 258.571 68.1876 261.879 66.0312 264.771C63.8748 267.662 61.1377 270.075 57.9943 271.854" fill="#E0E0E0"/>
<path d="M55.3298 274.874C53.709 272.641 51.8251 269.613 49.6188 267.947C47.4124 266.281 44.5273 265.275 41.8542 265.909C43.2482 268.343 45.1916 270.42 47.5305 271.976C49.8694 273.532 52.5396 274.524 55.3298 274.874Z" fill="#E0E0E0"/>
<path d="M55.8305 272.049C54.6755 269.386 53.8216 266.603 53.2847 263.752C52.7515 260.867 53.212 257.887 54.5916 255.295C57.4513 260.682 58.3763 266.467 56.0087 272.091" fill="#E0E0E0"/>
<path d="M57.935 255.287C59.5558 249.951 64.4607 245.984 69.7643 244.208C70.4193 243.94 71.1301 243.836 71.8349 243.904C72.1871 243.94 72.5206 244.08 72.7926 244.306C73.0647 244.532 73.263 244.834 73.3623 245.172C73.5575 246.077 72.8023 246.864 72.0894 247.498C67.9498 251.024 63.1341 253.673 57.935 255.287Z" fill="#E0E0E0"/>
<path d="M57.9944 250.948C58.198 247.498 58.4102 244.005 59.5388 240.741C60.6674 237.477 62.8313 234.424 65.9796 232.994C66.5142 236.47 64.9782 239.929 63.1198 242.923C61.2614 245.917 59.0212 248.741 57.9095 252.082" fill="#E0E0E0"/>
<path d="M57.8756 253.316C56.5348 249.426 56.399 244.479 54.0569 241.088C52.4192 238.72 49.814 237.104 48.3969 234.593C47.5458 237.001 47.6645 239.644 48.7278 241.967C49.7917 244.265 51.2571 246.355 53.0556 248.141C54.7528 249.984 56.2632 251.371 57.8756 253.316Z" fill="#E0E0E0"/>
<path d="M57.935 367.95C57.8332 367.95 57.7399 341.987 57.7314 309.961C57.7229 277.934 57.8078 251.963 57.9096 251.963C58.0114 251.963 58.1048 277.918 58.1132 309.961C58.1217 342.004 58.0369 367.95 57.935 367.95Z" fill="#E0E0E0"/>
<path d="M80.7027 290.164C80.3913 290.321 80.0642 290.446 79.7268 290.536L77.0283 291.441C74.7541 292.21 71.6313 293.326 68.2454 294.713C64.8596 296.1 61.7198 297.31 59.9208 298.866C59.1918 299.461 58.6109 300.217 58.2236 301.073C57.9606 301.682 57.9181 302.054 57.8842 302.054C57.8502 302.054 57.8842 301.953 57.8842 301.775C57.9273 301.519 57.9926 301.267 58.0794 301.022C58.4192 300.117 58.979 299.309 59.7087 298.671C60.7971 297.754 62.0151 297.002 63.3236 296.439C64.7662 295.762 66.3701 295.06 68.0672 294.367C71.4616 292.98 74.6098 291.897 76.9095 291.187C78.0636 290.832 78.997 290.57 79.6504 290.392C79.9932 290.283 80.3455 290.207 80.7027 290.164Z" fill="#E0E0E0"/>
<path d="M88.17 271.896C88.0904 272.004 87.9962 272.101 87.89 272.184L87.0414 272.97L83.9186 275.795L73.5319 285.013C69.4757 288.616 65.971 292.049 63.5441 294.637C62.3221 295.931 61.3632 297.005 60.7098 297.749L59.9546 298.595C59.8757 298.701 59.7813 298.795 59.6745 298.874C59.7378 298.756 59.8147 298.645 59.9036 298.544C60.0564 298.333 60.2855 298.02 60.5995 297.639C61.2189 296.861 62.1524 295.762 63.3489 294.442C66.4833 291.028 69.7974 287.781 73.2774 284.717C77.3506 281.131 81.0504 277.901 83.7404 275.583C85.0642 274.45 86.1504 273.528 86.9396 272.843L87.7882 272.116C87.9048 272.026 88.0333 271.952 88.17 271.896Z" fill="#E0E0E0"/>
<path d="M69.1702 288.675C69.0599 288.624 69.9085 286.679 70.7571 284.21C71.6056 281.74 72.0045 279.668 72.1148 279.685C72.0268 281.276 71.6889 282.842 71.1135 284.328C70.749 285.382 70.3269 286.416 69.8491 287.424C69.6786 287.868 69.4503 288.289 69.1702 288.675Z" fill="#E0E0E0"/>
<path d="M57.9604 304.388C57.7226 304.175 57.5117 303.933 57.3325 303.669L55.7287 301.623C54.3879 299.889 52.5295 297.496 50.442 294.857C48.3544 292.218 46.4451 289.893 45.0534 288.193L43.4496 286.197C43.2349 285.96 43.0444 285.702 42.8811 285.427C43.1288 285.631 43.3561 285.857 43.5599 286.104C43.9757 286.552 44.5698 287.22 45.2571 288.049C46.6997 289.741 48.6514 292.024 50.739 294.646C52.8265 297.267 54.651 299.72 55.9408 301.462C56.5942 302.308 57.1034 303.077 57.4513 303.585C57.648 303.834 57.8186 304.104 57.9604 304.388Z" fill="#E0E0E0"/>
<path d="M52.9622 298.003C51.9561 296.894 51.2392 295.555 50.8747 294.104C50.4777 292.83 50.3167 291.495 50.3995 290.164H50.5692C50.546 290.325 50.4913 290.48 50.408 290.62C50.408 290.62 50.408 290.443 50.408 290.138H50.5777C50.657 291.435 50.879 292.72 51.2396 293.969C51.7155 295.353 52.2912 296.702 52.9622 298.003Z" fill="#E0E0E0"/>
<path d="M46.5215 289.961C46.07 289.622 45.5801 289.338 45.0619 289.115C43.7484 288.72 42.3652 288.61 41.0056 288.793C39.6288 288.893 38.2632 289.111 36.9239 289.445C36.3674 289.616 35.8005 289.751 35.2268 289.851C35.7223 289.546 36.2638 289.323 36.8306 289.191C38.1741 288.777 39.5606 288.516 40.9632 288.413C42.3708 288.227 43.8027 288.38 45.1383 288.861C45.7132 289.057 46.2021 289.445 46.5215 289.961Z" fill="#E0E0E0"/>
<path d="M44.994 287.965C44.994 288.024 44.1454 287.626 42.7537 287.119C39.1272 285.889 35.2464 285.598 31.476 286.273C30.0334 286.527 29.1679 286.797 29.1424 286.738C29.3249 286.621 29.5257 286.536 29.7364 286.485C30.2914 286.291 30.8583 286.132 31.4336 286.011C33.3299 285.596 35.2766 285.46 37.2125 285.605C39.1449 285.755 41.0455 286.183 42.8556 286.874C43.4022 287.082 43.935 287.325 44.4509 287.601C44.6496 287.694 44.8328 287.816 44.994 287.965Z" fill="#E0E0E0"/>
<path d="M57.8755 279.685C57.2111 277.839 56.6669 275.952 56.2462 274.036C55.698 272.152 55.2729 270.233 54.9734 268.294C55.6384 270.141 56.1854 272.028 56.6111 273.943C57.1543 275.829 57.5766 277.747 57.8755 279.685Z" fill="#E0E0E0"/>
<path d="M58.0114 279.685C57.4898 278.517 56.8858 277.386 56.204 276.303C55.4398 275.277 54.544 274.356 53.5394 273.562C53.9182 273.659 54.2695 273.841 54.5662 274.095C55.3225 274.643 55.9796 275.315 56.5094 276.083C57.3202 277.131 57.8384 278.373 58.0114 279.685Z" fill="#E0E0E0"/>
<path d="M57.935 354.106C57.935 354.106 57.8162 353.48 57.5191 352.415C57.1031 350.863 56.5347 349.356 55.822 347.916C53.313 343.219 50.2101 338.862 46.5894 334.951C44.5273 332.6 42.5246 330.384 40.8275 328.262C39.2997 326.399 37.9208 324.419 36.7033 322.342C35.8845 320.938 35.1889 319.467 34.6243 317.944C34.4291 317.403 34.2933 316.98 34.217 316.693C34.1673 316.547 34.1304 316.397 34.1067 316.244C34.1067 316.244 34.3273 316.836 34.7601 317.894C35.3766 319.383 36.1027 320.824 36.9324 322.207C38.1759 324.251 39.5655 326.204 41.0905 328.05C42.7877 330.148 44.8073 332.346 46.8694 334.697C50.5166 338.632 53.611 343.042 56.0681 347.806C56.7773 349.268 57.3264 350.802 57.7058 352.381C57.8063 352.811 57.8828 353.245 57.935 353.683C57.948 353.824 57.948 353.966 57.935 354.106Z" fill="#E0E0E0"/>
<path d="M78.5132 330.951C78.1645 331.17 77.8048 331.37 77.4355 331.552C76.4576 332.097 75.5216 332.713 74.6351 333.395C73.3218 334.408 72.093 335.525 70.9608 336.736C69.6709 338.089 68.3471 339.662 66.9894 341.353C64.2824 344.736 61.7451 347.747 60.2007 350.14C59.4285 351.324 58.8684 352.322 58.5035 353.024C58.3291 353.397 58.1307 353.759 57.9095 354.107C57.9095 354.107 57.9095 353.997 58.0113 353.802C58.1132 353.608 58.198 353.32 58.3677 352.956C58.8493 351.94 59.3935 350.954 59.997 350.005C62.0583 346.921 64.2937 343.956 66.6924 341.125C68.0501 339.434 69.3994 337.861 70.7147 336.499C71.872 335.293 73.1295 334.187 74.4739 333.192C75.3908 332.509 76.3679 331.908 77.393 331.4C77.6682 331.259 77.9516 331.135 78.2416 331.027C78.417 330.96 78.5075 330.934 78.5132 330.951Z" fill="#E0E0E0"/>
<path d="M78.912 338.461C78.16 338.626 77.3972 338.736 76.6293 338.791C74.7981 338.978 72.9885 339.335 71.2238 339.856C69.4783 340.422 67.8425 341.28 66.3869 342.394C65.2752 343.239 64.7491 343.958 64.6897 343.924C64.6303 343.89 64.7745 343.713 65.0206 343.4C65.3751 342.958 65.7731 342.553 66.2087 342.191C67.6524 340.989 69.3148 340.076 71.105 339.501C72.8917 338.97 74.734 338.647 76.5953 338.537C77.3636 338.441 78.1391 338.416 78.912 338.461Z" fill="#E0E0E0"/>
<path d="M65.36 343.087C65.2412 343.02 66.268 341.455 67.0572 339.349C67.8463 337.243 67.9821 335.366 68.1094 335.391C68.1819 335.794 68.1819 336.206 68.1094 336.609C67.9937 337.589 67.7717 338.553 67.4475 339.485C67.0985 340.404 66.6549 341.286 66.1237 342.115C65.9264 342.48 65.6681 342.809 65.36 343.087Z" fill="#E0E0E0"/>
<path d="M85.1746 310.773C85.064 310.856 84.9408 310.922 84.8097 310.967L83.7405 311.449C83.2653 311.652 82.6968 311.906 82.0433 312.244C81.3899 312.583 80.6432 312.921 79.8625 313.386L78.6235 314.088C78.1908 314.342 77.775 314.629 77.3082 314.934C76.3918 315.483 75.4753 316.168 74.4909 316.862C72.411 318.435 70.4485 320.156 68.6187 322.012C66.8231 323.889 65.1695 325.896 63.6715 328.016C63.0011 329.023 62.3477 329.962 61.8215 330.892C61.5585 331.348 61.2784 331.788 61.0408 332.228L60.4214 333.497C59.9801 334.292 59.6661 335.053 59.3521 335.704C59.0382 336.355 58.8006 336.93 58.6139 337.395C58.4272 337.86 58.2829 338.19 58.1641 338.478C58.1176 338.607 58.0578 338.732 57.9859 338.85C58.0021 338.712 58.0393 338.578 58.0962 338.452L58.4781 337.344C58.6478 336.862 58.86 336.27 59.157 335.611C59.454 334.951 59.751 334.173 60.1838 333.37C60.3874 332.955 60.6081 332.524 60.8287 332.084C61.0493 331.644 61.3294 331.239 61.6009 330.731C62.1185 329.784 62.7635 328.837 63.4254 327.822C66.4039 323.481 70.0962 319.673 74.3467 316.557C75.3395 315.864 76.273 315.187 77.1979 314.646C77.6646 314.367 78.0974 314.071 78.5302 313.8L79.7946 313.107C80.5923 312.659 81.356 312.329 82.0094 312.016C82.5618 311.741 83.1283 311.496 83.7066 311.28L84.8097 310.857C84.9283 310.817 85.0505 310.789 85.1746 310.773Z" fill="#E0E0E0"/>
<path d="M68.9072 321.648C69.0416 321.127 69.3388 320.662 69.7558 320.321C70.7596 319.45 72.0402 318.962 73.3708 318.942C74.6714 318.936 75.9605 319.186 77.1639 319.678C77.6722 319.841 78.1549 320.075 78.598 320.371C78.0786 320.274 77.5699 320.127 77.0791 319.932C75.889 319.522 74.6384 319.313 73.3792 319.314C72.1308 319.341 70.9236 319.765 69.934 320.524C69.5624 320.871 69.219 321.247 68.9072 321.648Z" fill="#E0E0E0"/>
<path d="M66.4548 324.152C66.9378 323.092 67.2829 321.975 67.4816 320.828C67.5503 319.667 67.4733 318.502 67.2525 317.361C67.4708 317.646 67.6164 317.98 67.6768 318.333C68.1156 320.005 67.9066 321.781 67.0912 323.306C66.7688 323.881 66.4887 324.177 66.4548 324.152Z" fill="#E0E0E0"/>
<path d="M39.9365 357.827C40.4966 367.756 43.5005 377.845 48.1169 388.053H68.1859C72.5901 377.946 75.3819 367.874 75.8741 357.827H39.9365Z" fill="#E0E0E0"/>
<path d="M72.6239 373.887C72.6239 373.989 66.0134 374.073 57.867 374.073C49.7206 374.073 43.1101 373.989 43.1101 373.887C43.1101 373.786 49.7121 373.684 57.8755 373.684C66.0389 373.684 72.6239 373.786 72.6239 373.887Z" fill="#FAFAFA"/>
<path d="M72.1741 377.481C72.1741 377.583 65.9794 377.668 58.3421 377.668C50.7048 377.668 44.5017 377.583 44.5017 377.481C44.5017 377.38 50.6964 377.295 58.3421 377.295C65.9879 377.295 72.1741 377.38 72.1741 377.481Z" fill="#FAFAFA"/>
<path d="M48.4393 364.382C48.6883 367.447 48.6883 370.527 48.4393 373.591C48.1904 370.527 48.1904 367.447 48.4393 364.382Z" fill="#FAFAFA"/>
<path d="M59.1908 364.382C59.4398 367.557 59.4398 370.746 59.1908 373.921C58.9419 370.746 58.9419 367.557 59.1908 364.382Z" fill="#FAFAFA"/>
<path d="M69.289 364.263C69.5379 367.503 69.5379 370.757 69.289 373.997C69.04 370.757 69.04 367.503 69.289 364.263Z" fill="#FAFAFA"/>
<path d="M75.2378 364.382C75.2378 364.483 67.4902 364.568 57.9351 364.568C48.38 364.568 40.6154 364.483 40.6154 364.382C40.6154 364.28 48.3715 364.196 57.9351 364.196C67.4987 364.196 75.2378 364.238 75.2378 364.382Z" fill="#FAFAFA"/>
<path d="M386.609 271.803C388.446 270.995 390.004 269.667 391.092 267.985C392.179 266.303 392.748 264.341 392.728 262.34C392.728 256.691 388.485 252.09 383.147 252.073C377.81 252.056 373.499 256.606 373.482 262.221C373.443 264.238 374.005 266.221 375.095 267.92C376.185 269.619 377.756 270.958 379.609 271.769C364.801 273.993 365.471 290.028 365.471 290.028L400.492 290.189C400.492 290.189 401.29 274.01 386.609 271.803Z" fill="#EBEBEB"/>
<path d="M229.18 38.6282C230.47 38.3758 231.658 37.7555 232.601 36.8427C233.544 35.93 234.201 34.764 234.492 33.4864C234.733 32.6665 234.805 31.8062 234.702 30.958C234.598 30.1097 234.323 29.2913 233.892 28.5526C233.461 27.8138 232.884 27.1703 232.195 26.6612C231.507 26.1522 230.721 25.7882 229.887 25.5915C229.053 25.3949 228.187 25.3696 227.342 25.5173C226.498 25.6651 225.693 25.9827 224.975 26.4507C224.258 26.9188 223.644 27.5276 223.17 28.24C222.697 28.9523 222.374 29.7533 222.221 30.5941C221.895 31.8763 221.958 33.2263 222.402 34.4728C222.846 35.7194 223.651 36.8066 224.716 37.5965C214.932 36.8269 212.989 47.1613 212.989 47.1613L235.307 52.43C235.307 52.43 238.226 42.1717 229.18 38.6282Z" fill="#EBEBEB"/>
<path d="M387.568 124.72C388.638 124.053 389.489 123.088 390.014 121.944C390.539 120.8 390.715 119.527 390.521 118.284C390.458 117.461 390.225 116.66 389.839 115.93C389.452 115.201 388.919 114.557 388.273 114.041C387.628 113.524 386.882 113.145 386.084 112.926C385.285 112.708 384.45 112.655 383.63 112.771C382.81 112.887 382.023 113.169 381.317 113.6C380.61 114.031 380 114.602 379.524 115.277C379.048 115.952 378.715 116.717 378.547 117.525C378.379 118.334 378.38 119.168 378.548 119.976C378.704 121.234 379.232 122.418 380.064 123.377C380.897 124.336 381.996 125.027 383.224 125.363C374.22 128.077 376.078 137.989 376.078 137.989L397.87 134.953C397.87 134.953 396.894 124.779 387.568 124.72Z" fill="#F5F5F5"/>
<path d="M37.9168 127.79L26.1469 118.462L29.4055 114.369L37.3058 120.618L48.8296 107.772L52.7416 111.256L37.9168 127.79Z" fill="#F5F5F5"/>
<path d="M394.476 388.349C394.476 388.476 309.49 388.569 204.69 388.569C99.8891 388.569 14.8862 388.476 14.8862 388.349C14.8862 388.222 99.8467 388.129 204.69 388.129C309.532 388.129 394.476 388.23 394.476 388.349Z" fill="#263238"/>
<path d="M53.972 141.296L27.9459 154.311C27.0017 154.721 26.1987 155.397 25.6362 156.257C25.0737 157.117 24.7762 158.122 24.7807 159.148V171.284C24.7508 182.323 27.976 193.127 34.0557 202.355C38.7484 209.476 44.9685 218.575 55.3128 223.776H59.98C71.5038 220.275 80.1 210.947 85.3527 202.964C91.435 193.737 94.6631 182.933 94.6363 171.893V159.148C94.6349 158.118 94.3304 157.11 93.7602 156.25C93.1901 155.391 92.3794 154.716 91.4286 154.311L61.7366 141.719C60.4213 141.16 55.3298 140.738 53.972 141.296Z" fill="#89B1FF"/>
<path opacity="0.3" d="M53.972 141.296L27.9459 154.311C27.0017 154.721 26.1987 155.397 25.6362 156.257C25.0737 157.117 24.7762 158.122 24.7807 159.148V171.284C24.7508 182.323 27.976 193.127 34.0557 202.355C38.7484 209.476 44.9685 218.575 55.3128 223.776H59.98C71.5038 220.275 80.1 210.947 85.3527 202.964C91.435 193.737 94.6631 182.933 94.6363 171.893V159.148C94.6349 158.118 94.3304 157.11 93.7602 156.25C93.1901 155.391 92.3794 154.716 91.4286 154.311L61.7366 141.719C60.4213 141.16 55.3298 140.738 53.972 141.296Z" fill="black"/>
<path d="M52.9283 141.719L23.2702 154.311C22.3194 154.716 21.5088 155.391 20.9387 156.25C20.3685 157.11 20.0639 158.118 20.0626 159.148V171.284C20.0632 182.523 23.4088 193.51 29.6759 202.853C35.943 212.197 44.8501 219.479 55.2704 223.776C66.7857 220.275 75.3819 210.947 80.6432 202.964C86.7254 193.737 89.9536 182.933 89.9267 171.893V159.148C89.9261 158.119 89.6227 157.112 89.0542 156.252C88.4856 155.392 87.6767 154.718 86.7275 154.311L57.027 141.719C56.3781 141.447 55.6814 141.307 54.9777 141.307C54.2739 141.307 53.5772 141.447 52.9283 141.719Z" fill="#89B1FF"/>
<path opacity="0.3" d="M62.0321 196.762C72.0425 192.893 77.0099 181.669 73.1271 171.692C69.2443 161.716 57.9817 156.766 47.9713 160.635C37.9609 164.505 32.9935 175.729 36.8763 185.705C40.7591 195.682 52.0217 200.632 62.0321 196.762Z" fill="black"/>
<path d="M54.9903 179.775C59.4473 179.775 63.0604 176.174 63.0604 171.732C63.0604 167.29 59.4473 163.69 54.9903 163.69C50.5333 163.69 46.9202 167.29 46.9202 171.732C46.9202 176.174 50.5333 179.775 54.9903 179.775Z" fill="white"/>
<path d="M40.2589 191.327C41.5567 188.621 43.605 186.342 46.1614 184.759C48.7179 183.177 51.6756 182.357 54.6848 182.396C57.7706 182.397 60.799 183.227 63.4513 184.798C66.1036 186.37 68.2815 188.625 69.7557 191.327C69.7557 191.327 64.9952 198.346 54.4812 198.092C51.7563 198.082 49.0677 197.469 46.6086 196.299C44.1495 195.13 41.981 193.431 40.2589 191.327Z" fill="white"/>
<path d="M74.4314 178.701C74.4217 178.597 74.4217 178.492 74.4314 178.388C74.4314 178.159 74.4314 177.855 74.355 177.474C74.355 177.271 74.355 177.043 74.355 176.798C74.355 176.553 74.2702 176.282 74.2278 175.952C74.1393 175.281 74.0032 174.617 73.8204 173.965C73.3591 172.159 72.6298 170.431 71.6565 168.84C70.3801 166.728 68.7094 164.879 66.7347 163.394C64.3493 161.586 61.5701 160.363 58.6223 159.825C55.2379 159.204 51.7486 159.496 48.5156 160.67C47.6407 160.973 46.7897 161.341 45.9698 161.77C45.15 162.218 44.3618 162.72 43.6108 163.275C42.8469 163.848 42.1186 164.466 41.4299 165.127C40.7549 165.825 40.1256 166.565 39.546 167.343C38.3581 168.946 37.4329 170.728 36.8051 172.62C35.4812 176.543 35.4812 180.79 36.8051 184.714C37.4292 186.608 38.3546 188.389 39.546 189.991C40.1256 190.772 40.7548 191.514 41.4299 192.215C42.1165 192.875 42.8449 193.491 43.6108 194.058C45.084 195.178 46.7249 196.06 48.4732 196.672C51.7062 197.846 55.1955 198.138 58.5798 197.517C61.2676 197.013 63.8181 195.949 66.0644 194.393C68.3106 192.838 70.2018 190.828 71.6141 188.494C72.5765 186.913 73.2945 185.197 73.7441 183.403C73.9261 182.748 74.0622 182.081 74.1514 181.407C74.1514 181.119 74.2532 180.849 74.2787 180.561C74.3041 180.274 74.2787 180.088 74.2787 179.885L74.355 178.963C74.3464 178.859 74.3464 178.754 74.355 178.65C74.3642 178.754 74.3642 178.859 74.355 178.963C74.355 179.2 74.355 179.504 74.355 179.893C74.355 180.096 74.355 180.324 74.355 180.57C74.355 180.815 74.2872 181.094 74.2447 181.415C74.1769 182.098 74.052 182.774 73.8714 183.437C73.4408 185.269 72.728 187.023 71.7584 188.638C69.4524 192.561 65.84 195.555 61.5489 197.1C57.2578 198.645 52.5592 198.643 48.2695 197.095C47.396 196.782 46.5454 196.409 45.7237 195.978C44.8884 195.51 44.0886 194.981 43.3307 194.397C42.5414 193.82 41.7929 193.19 41.0905 192.511C40.415 191.808 39.7857 191.062 39.2066 190.278C37.985 188.641 37.0339 186.819 36.3893 184.883C35.7448 182.884 35.4045 180.8 35.3795 178.701C35.4031 176.601 35.7464 174.516 36.3978 172.519C37.036 170.581 37.9845 168.759 39.2066 167.123C39.8032 166.328 40.4494 165.571 41.1414 164.857C41.8413 164.178 42.5869 163.548 43.3732 162.971C44.1256 162.399 44.9166 161.879 45.7407 161.415C46.5622 160.982 47.4128 160.606 48.2865 160.29C51.5864 159.098 55.1458 158.806 58.5968 159.444C61.3342 159.969 63.9276 161.07 66.2034 162.674C68.4791 164.279 70.3846 166.349 71.7923 168.747C72.7621 170.364 73.4749 172.122 73.9053 173.956C74.0859 174.616 74.2108 175.289 74.2787 175.969C74.2787 176.265 74.372 176.536 74.389 176.815V177.5C74.389 177.889 74.389 178.193 74.389 178.422C74.4109 178.513 74.4251 178.607 74.4314 178.701Z" fill="#263238"/>
<path d="M89.8248 168.603C89.8643 168.789 89.8842 168.979 89.8842 169.17C89.8842 169.576 89.8842 170.108 89.9521 170.776C90.02 171.445 90.02 172.324 89.9521 173.314C89.9521 173.813 89.9521 174.337 89.9521 174.903C89.9521 175.47 89.9521 176.062 89.8417 176.679C89.7229 177.923 89.6381 179.293 89.375 180.747C89.2647 181.475 89.1714 182.227 89.0186 182.997C88.8659 183.766 88.6792 184.553 88.5095 185.365C87.6934 188.861 86.5572 192.275 85.1151 195.564C83.6249 198.836 81.8443 201.969 79.7945 204.926C78.8101 206.253 77.9021 207.539 76.9178 208.647C76.4426 209.205 76.0013 209.771 75.5346 210.27L74.1853 211.691C73.3367 212.63 72.4882 213.383 71.7584 214.051C71.1478 214.649 70.5047 215.214 69.8321 215.742L68.5762 216.757C68.4384 216.88 68.2876 216.988 68.1264 217.078C68.2471 216.937 68.3806 216.806 68.5253 216.689L69.7218 215.615C70.2564 215.159 70.8928 214.592 71.5887 213.924C72.2845 213.256 73.1331 212.469 73.9562 211.531L75.28 210.093C75.7382 209.594 76.1286 209.027 76.6377 208.469C77.5966 207.361 78.4877 206.076 79.4635 204.74C81.4777 201.795 83.2324 198.683 84.7078 195.437C86.1418 192.162 87.2778 188.766 88.1021 185.289L88.6283 182.938C88.781 182.176 88.8828 181.424 89.0101 180.705C89.2817 179.267 89.3835 177.906 89.5193 176.671C89.5957 176.054 89.6466 175.462 89.6635 174.903L89.7399 173.322C89.8163 172.333 89.7993 171.478 89.7993 170.785C89.7993 170.091 89.7993 169.592 89.7993 169.178C89.7933 168.986 89.8018 168.794 89.8248 168.603Z" fill="#263238"/>
<path d="M296.167 388.349H95.5104C94.1958 388.327 92.8984 388.047 91.6924 387.525C90.4865 387.003 89.3956 386.249 88.4822 385.306C87.5688 384.364 86.8507 383.251 86.3691 382.032C85.8875 380.812 85.6517 379.51 85.6753 378.2V72.5492C85.6517 71.2391 85.8875 69.9372 86.3691 68.7179C86.8507 67.4986 87.5688 66.3859 88.4822 65.4434C89.3956 64.5009 90.4865 63.7471 91.6924 63.225C92.8984 62.7029 94.1958 62.4229 95.5104 62.4009H296.167C297.481 62.4229 298.778 62.703 299.984 63.2252C301.189 63.7473 302.28 64.5013 303.192 65.4439C304.105 66.3866 304.822 67.4993 305.303 68.7186C305.784 69.9378 306.019 71.2395 305.994 72.5492V378.217C306.016 379.526 305.78 380.826 305.298 382.043C304.816 383.26 304.099 384.371 303.186 385.312C302.274 386.252 301.184 387.005 299.98 387.526C298.776 388.047 297.48 388.327 296.167 388.349Z" fill="#263238"/>
<path d="M199.683 373.524C199.715 375.37 199.195 377.184 198.189 378.735C197.183 380.286 195.736 381.503 194.034 382.232C192.331 382.961 190.449 383.168 188.628 382.828C186.807 382.487 185.129 381.614 183.807 380.32C182.485 379.025 181.58 377.368 181.207 375.559C180.833 373.751 181.009 371.872 181.71 370.163C182.412 368.453 183.608 366.991 185.146 365.962C186.684 364.932 188.495 364.382 190.348 364.382C192.802 364.362 195.164 365.313 196.914 367.027C198.665 368.742 199.66 371.078 199.683 373.524Z" fill="#455A64"/>
<path d="M218.411 79.6361H173.436C173.017 79.6295 172.603 79.5406 172.219 79.3747C171.834 79.2088 171.486 78.969 171.195 78.669C170.903 78.369 170.674 78.0147 170.52 77.6263C170.365 77.2379 170.29 76.8231 170.296 76.4055C170.283 75.5613 170.606 74.7462 171.194 74.139C171.783 73.5318 172.589 73.1821 173.436 73.1665H218.411C219.258 73.1821 220.064 73.5318 220.653 74.139C221.242 74.7462 221.565 75.5613 221.551 76.4055C221.558 76.8231 221.482 77.2379 221.328 77.6263C221.173 78.0147 220.944 78.369 220.652 78.669C220.361 78.969 220.013 79.2088 219.628 79.3747C219.244 79.5406 218.83 79.6295 218.411 79.6361Z" fill="#455A64"/>
<path d="M298.866 85.6658H92.4387V357.861H298.866V85.6658Z" fill="white"/>
<path d="M298.866 85.6658H290.057V357.861H298.866V85.6658Z" fill="#F5F5F5"/>
<path d="M294.453 183.462C293.725 183.46 293.028 183.17 292.514 182.657C292.001 182.143 291.712 181.447 291.712 180.722V120.517C291.712 119.792 292.001 119.096 292.514 118.583C293.028 118.069 293.725 117.779 294.453 117.777C295.182 117.777 295.881 118.066 296.397 118.58C296.913 119.094 297.202 119.79 297.202 120.517V180.722C297.202 181.449 296.913 182.146 296.397 182.66C295.881 183.174 295.182 183.462 294.453 183.462Z" fill="#E0E0E0"/>
<path d="M271.94 147.613H119.738C118.576 147.613 117.463 147.154 116.641 146.335C115.82 145.517 115.359 144.407 115.359 143.25C115.359 142.092 115.82 140.982 116.641 140.164C117.463 139.345 118.576 138.886 119.738 138.886H271.94C273.101 138.886 274.215 139.345 275.036 140.164C275.857 140.982 276.319 142.092 276.319 143.25C276.319 144.407 275.857 145.517 275.036 146.335C274.215 147.154 273.101 147.613 271.94 147.613Z" fill="#E0E0E0"/>
<path d="M248.527 115.747H152.781C151.62 115.747 150.506 115.288 149.685 114.469C148.864 113.651 148.403 112.541 148.403 111.384C148.403 110.226 148.864 109.116 149.685 108.298C150.506 107.48 151.62 107.02 152.781 107.02H248.527C249.689 107.02 250.802 107.48 251.624 108.298C252.445 109.116 252.906 110.226 252.906 111.384C252.906 112.541 252.445 113.651 251.624 114.469C250.802 115.288 249.689 115.747 248.527 115.747Z" fill="#89B1FF"/>
<path d="M250.327 165.178H141.351C140.19 165.178 139.076 164.719 138.255 163.9C137.434 163.082 136.972 161.972 136.972 160.814C136.972 159.657 137.434 158.547 138.255 157.729C139.076 156.91 140.19 156.451 141.351 156.451H250.327C250.902 156.451 251.471 156.564 252.002 156.783C252.533 157.002 253.016 157.324 253.423 157.729C253.829 158.134 254.152 158.615 254.372 159.145C254.592 159.674 254.705 160.241 254.705 160.814C254.705 161.388 254.592 161.955 254.372 162.484C254.152 163.014 253.829 163.495 253.423 163.9C253.016 164.305 252.533 164.627 252.002 164.846C251.471 165.065 250.902 165.178 250.327 165.178Z" fill="#E0E0E0"/>
<path d="M201.125 241.756H117.277C116.115 241.756 115.002 241.296 114.18 240.478C113.359 239.659 112.898 238.549 112.898 237.392C112.898 236.819 113.011 236.252 113.231 235.722C113.451 235.193 113.774 234.712 114.18 234.306C114.587 233.901 115.07 233.58 115.601 233.361C116.132 233.141 116.702 233.028 117.277 233.028H201.125C201.7 233.028 202.27 233.141 202.801 233.361C203.332 233.58 203.815 233.901 204.222 234.306C204.628 234.712 204.951 235.193 205.171 235.722C205.391 236.252 205.504 236.819 205.504 237.392C205.504 238.549 205.043 239.659 204.222 240.478C203.4 241.296 202.287 241.756 201.125 241.756Z" fill="#E0E0E0"/>
<path d="M269.479 223.464H117.277C116.115 223.464 115.002 223.004 114.18 222.185C113.359 221.367 112.898 220.257 112.898 219.1C112.898 218.527 113.011 217.96 113.231 217.431C113.452 216.902 113.774 216.422 114.181 216.017C114.588 215.612 115.07 215.292 115.602 215.074C116.133 214.855 116.702 214.743 117.277 214.744H269.479C270.054 214.743 270.623 214.855 271.154 215.074C271.685 215.292 272.168 215.612 272.575 216.017C272.981 216.422 273.304 216.902 273.524 217.431C273.744 217.96 273.858 218.527 273.858 219.1C273.858 219.673 273.744 220.24 273.524 220.77C273.304 221.299 272.982 221.78 272.575 222.185C272.169 222.591 271.686 222.912 271.155 223.131C270.623 223.351 270.054 223.464 269.479 223.464Z" fill="#E0E0E0"/>
<path d="M269.479 273.597H136.26C133.841 273.597 131.881 275.55 131.881 277.96C131.881 280.371 133.841 282.324 136.26 282.324H269.479C271.897 282.324 273.858 280.371 273.858 277.96C273.858 275.55 271.897 273.597 269.479 273.597Z" fill="#E0E0E0"/>
<path d="M269.479 300.955H117.277C116.115 300.955 115.002 300.495 114.18 299.677C113.359 298.858 112.898 297.748 112.898 296.591C112.902 295.437 113.366 294.331 114.186 293.516C115.007 292.702 116.118 292.244 117.277 292.244H269.479C270.054 292.244 270.623 292.357 271.155 292.576C271.686 292.796 272.169 293.117 272.575 293.522C272.982 293.927 273.304 294.409 273.524 294.938C273.744 295.467 273.858 296.035 273.858 296.608C273.853 297.762 273.39 298.868 272.569 299.683C271.749 300.497 270.637 300.955 269.479 300.955Z" fill="#E0E0E0"/>
<path d="M269.479 319.915H117.277C116.115 319.915 115.002 319.455 114.18 318.637C113.359 317.819 112.898 316.709 112.898 315.551C112.898 314.394 113.359 313.284 114.18 312.466C115.002 311.647 116.115 311.188 117.277 311.188H269.479C270.054 311.188 270.623 311.3 271.155 311.52C271.686 311.739 272.169 312.06 272.575 312.466C272.982 312.871 273.304 313.352 273.524 313.881C273.744 314.411 273.858 314.978 273.858 315.551C273.858 316.709 273.396 317.819 272.575 318.637C271.754 319.455 270.64 319.915 269.479 319.915Z" fill="#E0E0E0"/>
<path d="M124.125 277.96C124.125 278.857 123.858 279.734 123.358 280.479C122.857 281.225 122.147 281.806 121.315 282.149C120.483 282.492 119.568 282.581 118.686 282.405C117.803 282.23 116.993 281.797 116.357 281.162C115.721 280.528 115.289 279.719 115.114 278.839C114.94 277.959 115.031 277.048 115.377 276.22C115.722 275.392 116.306 274.684 117.056 274.187C117.805 273.69 118.685 273.426 119.585 273.427C120.79 273.429 121.944 273.908 122.796 274.758C123.647 275.608 124.125 276.759 124.125 277.96Z" fill="#89B1FF"/>
<path d="M269.479 206.423H136.251C135.09 206.423 133.976 205.963 133.155 205.145C132.334 204.327 131.872 203.217 131.872 202.059C131.872 200.902 132.334 199.792 133.155 198.974C133.976 198.155 135.09 197.696 136.251 197.696H269.479C270.054 197.696 270.623 197.808 271.155 198.028C271.686 198.247 272.169 198.568 272.575 198.974C272.982 199.379 273.304 199.86 273.524 200.389C273.744 200.919 273.858 201.486 273.858 202.059C273.858 202.632 273.744 203.2 273.524 203.729C273.304 204.259 272.982 204.74 272.575 205.145C272.169 205.55 271.686 205.872 271.155 206.091C270.623 206.31 270.054 206.423 269.479 206.423Z" fill="#E0E0E0"/>
<path d="M119.585 206.592C122.097 206.592 124.133 204.563 124.133 202.059C124.133 199.556 122.097 197.526 119.585 197.526C117.073 197.526 115.036 199.556 115.036 202.059C115.036 204.563 117.073 206.592 119.585 206.592Z" fill="#89B1FF"/>
<path d="M265.228 347.663H231.072C229.222 347.663 227.448 346.93 226.14 345.626C224.832 344.323 224.097 342.555 224.097 340.711C224.097 338.867 224.832 337.099 226.14 335.795C227.448 334.492 229.222 333.759 231.072 333.759H265.228C267.078 333.759 268.852 334.492 270.16 335.795C271.468 337.099 272.203 338.867 272.203 340.711C272.203 342.555 271.468 344.323 270.16 345.626C268.852 346.93 267.078 347.663 265.228 347.663Z" fill="#89B1FF"/>
<path d="M89.2733 19.6339L53.8703 37.3343C52.5748 37.8832 51.4698 38.7996 50.6928 39.9694C49.9158 41.1392 49.501 42.5109 49.5001 43.9138V60.4218C49.4582 75.4456 53.8493 90.1502 62.1271 102.707C68.5084 112.364 76.9603 124.745 91.0384 131.815H97.3858C113.051 127.054 124.744 114.36 131.898 103.51C140.176 90.9536 144.567 76.2491 144.525 61.2252V43.9138C144.527 42.5147 144.117 41.1458 143.346 39.9763C142.575 38.8069 141.478 37.8883 140.189 37.3343L99.8297 20.1836C98.0307 19.4479 91.0723 18.8728 89.2733 19.6339Z" fill="#89B1FF"/>
<path opacity="0.3" d="M89.2733 19.6339L53.8703 37.3343C52.5748 37.8832 51.4698 38.7996 50.6928 39.9694C49.9158 41.1392 49.501 42.5109 49.5001 43.9138V60.4218C49.4582 75.4456 53.8493 90.1502 62.1271 102.707C68.5084 112.364 76.9603 124.745 91.0384 131.815H97.3858C113.051 127.054 124.744 114.36 131.898 103.51C140.176 90.9536 144.567 76.2491 144.525 61.2252V43.9138C144.527 42.5147 144.117 41.1458 143.346 39.9763C142.575 38.8069 141.478 37.8883 140.189 37.3343L99.8297 20.1836C98.0307 19.4479 91.0723 18.8728 89.2733 19.6339Z" fill="black"/>
<path d="M87.8476 20.1835L47.5143 37.3342C46.2197 37.8834 45.1159 38.8001 44.3403 39.97C43.5647 41.14 43.1517 42.5115 43.1526 43.9137V60.4216C43.1546 75.7074 47.7052 90.6492 56.2289 103.357C64.7526 116.065 76.8664 125.969 91.0383 131.815C106.703 127.054 118.397 114.36 125.542 103.51C133.823 90.9552 138.215 76.2495 138.169 61.225V43.9137C138.17 42.5115 137.757 41.14 136.981 39.97C136.205 38.8001 135.102 37.8834 133.807 37.3342L93.5162 20.1835C92.6205 19.801 91.6563 19.6038 90.6819 19.6038C89.7075 19.6038 88.7432 19.801 87.8476 20.1835Z" fill="#89B1FF"/>
<path d="M138.042 56.7769C138.052 56.8413 138.052 56.907 138.042 56.9714C138.042 57.1236 138.042 57.3096 138.042 57.538C138.042 58.0792 138.084 58.8065 138.118 59.7283C138.152 60.6501 138.203 61.8341 138.118 63.1872C138.118 63.8638 138.118 64.5826 138.05 65.3438C138.05 65.7328 138.05 66.1218 138.05 66.5277C138.05 66.9337 137.974 67.3734 137.931 67.7709C137.762 69.4623 137.651 71.3228 137.295 73.2933C137.134 74.2743 137.006 75.306 136.803 76.3462C136.599 77.3865 136.344 78.4605 136.107 79.5599C134.986 84.3135 133.426 88.9535 131.448 93.4208C129.426 97.8678 127.013 102.127 124.235 106.149C122.894 107.958 121.689 109.709 120.332 111.223C119.678 111.984 119.084 112.753 118.448 113.43L116.615 115.375C115.478 116.644 114.307 117.65 113.331 118.589C112.83 119.045 112.38 119.485 111.948 119.866L110.76 120.821L109.062 122.208L108.613 122.563C108.511 122.64 108.451 122.673 108.451 122.665C108.451 122.657 108.451 122.614 108.579 122.521L109.003 122.141L110.641 120.695L111.837 119.654C112.27 119.274 112.686 118.809 113.195 118.352C114.154 117.405 115.299 116.39 116.42 115.113L118.227 113.151C118.855 112.474 119.441 111.705 120.077 110.944C121.392 109.438 122.623 107.688 123.93 105.869C126.68 101.857 129.074 97.6119 131.083 93.184C133.044 88.7392 134.603 84.1288 135.742 79.4077C135.988 78.3167 136.217 77.2511 136.455 76.2194C136.692 75.1876 136.794 74.1559 136.964 73.1749C137.337 71.2129 137.465 69.3608 137.651 67.6779C137.702 67.2635 137.745 66.8322 137.787 66.4516C137.829 66.071 137.787 65.6567 137.838 65.2761C137.872 64.515 137.906 63.7961 137.94 63.1196C138.033 61.7749 138.008 60.5825 138.008 59.6691V57.5464V56.9714C138.006 56.9049 138.018 56.8389 138.042 56.7769Z" fill="#263238"/>
<path d="M106.635 78.9595H102.333V55.6267C102.257 53.0359 101.171 50.5765 99.3057 48.7707C97.4401 46.9648 94.9417 45.9547 92.3409 45.9547C89.7401 45.9547 87.2418 46.9648 85.3761 48.7707C83.5105 50.5765 82.4246 53.0359 82.3488 55.6267V78.9595H78.0465V55.6267C78.1374 51.9086 79.6833 48.3733 82.3541 45.7756C85.0249 43.178 88.609 41.7239 92.3409 41.7239C96.0728 41.7239 99.6569 43.178 102.328 45.7756C104.999 48.3733 106.544 51.9086 106.635 55.6267V78.9595Z" fill="#F5F5F5"/>
<path d="M106.678 63.1282H78.0127C75.2897 63.1282 73.0824 65.328 73.0824 68.0417V88.3045C73.0824 91.0182 75.2897 93.218 78.0127 93.218H106.678C109.401 93.218 111.608 91.0182 111.608 88.3045V68.0417C111.608 65.328 109.401 63.1282 106.678 63.1282Z" fill="white"/>
<path d="M106.678 93.2177C107.109 93.1722 107.537 93.0988 107.959 92.9978C108.987 92.7022 109.89 92.0791 110.529 91.2238C111.168 90.3686 111.508 89.3282 111.498 88.262C111.498 87.2725 111.498 86.1985 111.498 85.0399C111.498 82.7311 111.498 80.101 111.498 77.1918C111.498 74.2826 111.498 71.1112 111.498 67.6946C111.434 66.8431 111.14 66.0247 110.647 65.3263C110.154 64.628 109.48 64.0758 108.697 63.7283C107.863 63.3858 106.958 63.2467 106.058 63.3224H103.207L78.0125 63.3139C76.9534 63.3136 75.9252 63.6689 75.0938 64.3226C74.2623 64.9762 73.6762 65.8901 73.4301 66.9166C73.32 67.4276 73.2744 67.9504 73.2943 68.4727V73.2339C73.2943 77.4624 73.2943 81.4541 73.2943 85.302C73.3707 87.2133 72.9718 89.1838 73.9562 90.6891C74.392 91.4285 75.0204 92.0367 75.7749 92.4491C76.5293 92.8615 77.3817 93.0628 78.2416 93.0317H87.7882L101.612 93.1078H105.362H106.338C106.451 93.0971 106.565 93.0971 106.678 93.1078C106.565 93.1204 106.451 93.1204 106.338 93.1078H105.362H101.612L87.7882 93.1754H78.2416C77.5404 93.2068 76.8403 93.0945 76.1843 92.8456C75.5284 92.5966 74.9307 92.2163 74.4281 91.7281C73.9255 91.2399 73.5287 90.6541 73.2621 90.0071C72.9956 89.36 72.865 88.6653 72.8785 87.966V85.302C72.8785 81.4541 72.8785 77.4201 72.8785 73.2339V68.5065C72.853 67.9389 72.9015 67.3703 73.0228 66.8151C73.2985 65.7068 73.9413 64.7235 74.8472 64.0243C75.7606 63.3043 76.8903 62.9112 78.0549 62.908H103.156H106.007C106.964 62.8352 107.924 62.9918 108.808 63.3647C109.652 63.7403 110.377 64.3378 110.907 65.0931C111.436 65.8485 111.749 66.7332 111.812 67.6524C111.812 71.1028 111.812 74.2657 111.812 77.1749C111.812 80.0841 111.812 82.7142 111.812 85.0229C111.812 86.1815 111.812 87.2556 111.812 88.245C111.813 89.1712 111.554 90.0792 111.065 90.8667C110.4 91.9603 109.33 92.7499 108.086 93.0655C107.63 93.2034 107.153 93.255 106.678 93.2177Z" fill="#263238"/>
<path d="M95.2982 78.951C95.6866 78.565 95.9945 78.1063 96.2042 77.6012C96.414 77.0961 96.5213 76.5546 96.5202 76.008C96.5251 75.2201 96.3091 74.4465 95.8965 73.7745C95.4839 73.1024 94.891 72.5586 94.1848 72.2044C93.4786 71.8501 92.6872 71.6996 91.8997 71.7697C91.1123 71.8398 90.3601 72.1278 89.7282 72.6012C89.0962 73.0746 88.6094 73.7145 88.3229 74.4488C88.0363 75.1831 87.9614 75.9826 88.1064 76.7572C88.2514 77.5317 88.6108 78.2504 89.1438 78.8323C89.6768 79.4142 90.3624 79.8361 91.1232 80.0504L90.2152 84.059H94.246L93.3974 80.0504C94.1017 79.85 94.7419 79.4712 95.2558 78.951" fill="#89B1FF"/>
<path d="M358.122 109.125V143.393C358.199 149.313 359.073 158.615 349.636 158.311C341.499 157.465 339.335 149.744 339.275 144.213C339.275 141.591 339.216 139.401 339.19 139.139C339.19 139.139 330.28 138.412 329.525 129.633C329.16 125.405 329.126 116.601 329.186 108.643C329.222 104.522 330.813 100.565 333.643 97.5592C336.474 94.5538 340.335 92.7201 344.46 92.4228L345.309 92.3636C354.533 92.2283 358.275 99.9495 358.122 109.125Z" fill="#FFBF9D"/>
<path d="M339.216 139.139C343.287 138.827 347.183 137.36 350.443 134.911C350.443 134.911 348.118 141.532 339.267 141.38L339.216 139.139Z" fill="#89B1FF"/>
<path d="M344.265 112.246C344.443 112.424 345.461 111.603 346.93 111.569C348.398 111.536 349.475 112.246 349.662 112.06C349.849 111.874 349.56 111.646 349.076 111.316C348.431 110.883 347.665 110.665 346.887 110.69C346.116 110.714 345.372 110.984 344.766 111.46C344.324 111.832 344.18 112.161 344.265 112.246Z" fill="#263238"/>
<path d="M344.24 116.398C344.257 116.709 344.397 117.001 344.629 117.21C344.861 117.419 345.166 117.528 345.478 117.514C345.631 117.515 345.782 117.486 345.922 117.428C346.063 117.37 346.19 117.284 346.297 117.176C346.404 117.068 346.488 116.94 346.544 116.799C346.6 116.658 346.627 116.507 346.624 116.356C346.604 116.047 346.465 115.758 346.235 115.549C346.006 115.341 345.704 115.23 345.394 115.239C345.241 115.239 345.091 115.269 344.95 115.328C344.809 115.386 344.682 115.471 344.575 115.579C344.467 115.687 344.382 115.815 344.325 115.955C344.267 116.096 344.238 116.246 344.24 116.398Z" fill="#263238"/>
<path d="M340.574 122.513C339.842 122.343 339.093 122.263 338.342 122.276C337.994 122.276 337.663 122.217 337.587 121.988C337.53 121.634 337.583 121.271 337.739 120.948C338.011 120.102 338.282 119.198 338.588 118.25C339.734 114.411 340.54 111.265 340.387 111.223C340.234 111.18 339.173 114.25 338.028 118.09C337.756 119.037 337.493 119.942 337.239 120.804C337.054 121.235 337.027 121.717 337.162 122.166C337.219 122.285 337.304 122.389 337.408 122.47C337.513 122.55 337.635 122.606 337.765 122.631C337.962 122.654 338.162 122.654 338.359 122.631C339.099 122.679 339.843 122.64 340.574 122.513Z" fill="#263238"/>
<path d="M344.893 105.988C345.037 106.318 346.217 106.072 347.634 106.14C349.051 106.208 350.18 106.521 350.375 106.208C350.443 106.064 350.222 105.759 349.747 105.472C349.114 105.118 348.405 104.918 347.68 104.889C346.954 104.859 346.232 105.001 345.572 105.303C345.071 105.548 344.834 105.836 344.893 105.988Z" fill="#263238"/>
<path d="M330.883 108.187C331.044 108.457 332.189 108.187 333.59 108.119C334.99 108.051 336.135 108.254 336.288 107.975C336.348 107.84 336.118 107.603 335.635 107.392C334.98 107.131 334.277 107.016 333.573 107.053C332.859 107.073 332.159 107.246 331.519 107.561C331.044 107.806 330.815 108.06 330.883 108.187Z" fill="#263238"/>
<path d="M317.543 100.77C317.592 100.591 317.677 100.424 317.792 100.279C317.907 100.134 318.051 100.013 318.213 99.9239C318.917 99.6047 319.693 99.4792 320.462 99.5603C322.812 99.517 325.104 98.8231 327.081 97.556C328.004 96.234 329.035 94.9895 330.161 93.8349C332.834 91.0949 335.024 89.2259 337.298 88.3125C340.234 87.137 345.147 86.6211 348.211 87.4668C351.274 88.3125 354.024 90.7481 354.456 93.8687C356.154 92.4226 358.75 92.4395 360.846 93.2768H360.897C363.222 94.1225 364.546 96.5581 365.234 98.926C365.921 101.294 366.218 103.831 367.474 105.954C367.737 106.393 368.051 106.926 367.822 107.391C367.715 107.56 367.56 107.692 367.377 107.771C367.194 107.849 366.991 107.87 366.795 107.831C366.402 107.747 366.031 107.58 365.709 107.341C365.972 107.966 366.226 108.584 366.489 109.201C365.64 109.349 364.768 109.293 363.944 109.041C363.516 111.152 362.963 113.236 362.289 115.282C361.42 115.18 360.544 115.393 359.82 115.882C358.971 116.618 358.64 117.996 357.274 117.472C356.586 117.201 355.958 115.781 355.721 115.062C354.186 110.378 353.679 105.42 354.236 100.524C353.27 99.5 352.119 98.6678 350.841 98.0719L350.943 98.1649C348.482 97.3192 345.699 96.4735 343.365 97.6236C341.558 98.5201 340.497 100.389 339.123 101.852C337.878 103.243 336.363 104.367 334.67 105.156C332.976 105.946 331.139 106.384 329.27 106.444C329.143 108.914 329.347 112.406 329.22 114.901L327.132 110.943C326.968 110.669 326.818 110.387 326.682 110.098V110.013C326.473 109.53 326.238 109.059 325.978 108.601C325.689 108.832 325.326 108.953 324.956 108.941C324.585 108.929 324.231 108.786 323.958 108.537C323.684 108.288 323.509 107.949 323.464 107.582C323.419 107.216 323.507 106.845 323.712 106.537C323.921 106.25 324.173 105.996 324.459 105.785C324.156 106.079 323.782 106.289 323.372 106.394C322.963 106.499 322.533 106.496 322.125 106.385C321.721 106.262 321.369 106.01 321.124 105.668C320.878 105.325 320.753 104.911 320.768 104.491C320.803 104.208 320.911 103.939 321.082 103.711C321.253 103.482 321.481 103.302 321.743 103.188C320.651 103.276 319.557 103.034 318.604 102.495C317.925 102.131 317.314 101.548 317.543 100.77Z" fill="#263238"/>
<path d="M351.665 94.8923C351.972 95.1491 352.256 95.4321 352.513 95.738C353.21 96.5736 353.676 97.5766 353.862 98.6472C354.017 99.3815 354.093 100.13 354.092 100.88C354.092 101.726 354.032 102.571 353.964 103.468C353.884 104.424 353.864 105.384 353.905 106.343C353.929 106.855 353.994 107.364 354.1 107.865C354.179 108.4 354.392 108.906 354.72 109.337C354.874 109.508 355.07 109.635 355.288 109.708C355.507 109.781 355.741 109.796 355.967 109.751C356.397 109.673 356.789 109.452 357.079 109.125C357.558 108.471 357.852 107.7 357.927 106.893H357.749C358.012 107.557 358.372 108.178 358.818 108.736C359.245 109.25 359.852 109.582 360.515 109.667C360.827 109.698 361.141 109.642 361.423 109.506C361.686 109.369 361.902 109.157 362.043 108.897C362.17 108.658 362.235 108.39 362.23 108.119C362.216 107.867 362.114 107.627 361.941 107.442L361.848 107.527C362.373 108.124 363.017 108.605 363.74 108.939C363.995 109.052 364.19 109.128 364.326 109.168L364.538 109.218L364.343 109.134C364.207 109.075 364.012 108.999 363.774 108.88C363.074 108.526 362.451 108.038 361.941 107.442L361.848 107.527C361.992 107.711 362.075 107.935 362.086 108.169C362.097 108.402 362.034 108.633 361.907 108.829C361.782 109.059 361.589 109.245 361.356 109.362C361.092 109.489 360.797 109.536 360.507 109.497C359.887 109.427 359.317 109.124 358.912 108.652C358.485 108.103 358.139 107.497 357.885 106.85L357.758 106.571L357.698 106.876C357.607 107.648 357.315 108.383 356.85 109.007C356.584 109.294 356.233 109.49 355.848 109.565C355.656 109.604 355.458 109.592 355.272 109.532C355.086 109.471 354.919 109.363 354.787 109.218C354.482 108.815 354.286 108.341 354.219 107.84C354.114 107.349 354.046 106.852 354.015 106.352C353.975 105.398 353.995 104.444 354.075 103.493C354.126 102.58 354.185 101.717 354.176 100.897C354.171 100.137 354.086 99.3805 353.922 98.6388C353.715 97.548 353.22 96.532 352.488 95.6957C352.261 95.3832 351.983 95.1114 351.665 94.8923Z" fill="#455A64"/>
<path d="M324.416 103.425L324.493 103.484C324.562 103.543 324.636 103.597 324.713 103.645C324.829 103.739 324.954 103.821 325.087 103.89C325.26 103.992 325.439 104.085 325.621 104.169C326.802 104.703 328.096 104.935 329.389 104.846C331.313 104.716 333.158 104.035 334.701 102.884C336.569 101.468 338.123 99.6826 339.267 97.6405C339.912 96.5833 340.429 95.4924 340.964 94.486C341.512 93.5034 342.198 92.6035 343 91.8136C343.706 91.0964 344.582 90.5672 345.546 90.2745C345.982 90.154 346.435 90.1026 346.887 90.1222C347.298 90.1533 347.703 90.2386 348.092 90.3759C348.777 90.6078 349.405 90.9826 349.933 91.4753C350.332 91.8471 350.668 92.2813 350.926 92.7608C351.132 93.1798 351.283 93.6231 351.376 94.0801C351.376 94.0801 351.376 94.0801 351.376 93.9871C351.376 93.894 351.376 93.8264 351.334 93.7164C351.263 93.3736 351.149 93.0411 350.994 92.727C350.4 91.5635 349.379 90.673 348.143 90.2406C347.735 90.099 347.31 90.0109 346.878 89.9785C346.409 89.9588 345.94 90.0101 345.487 90.1307C344.494 90.4227 343.592 90.961 342.865 91.6952C342.064 92.4938 341.387 93.4057 340.853 94.4014C340.268 95.4163 339.742 96.4988 339.114 97.5559C337.978 99.5713 336.445 101.337 334.608 102.748C333.097 103.89 331.288 104.574 329.398 104.719C328.125 104.819 326.846 104.61 325.672 104.11C325.24 103.908 324.82 103.679 324.416 103.425Z" fill="#455A64"/>
<path d="M323.619 99.569C323.619 99.569 323.721 99.662 323.933 99.7888C324.232 99.9695 324.544 100.128 324.866 100.262C325.346 100.466 325.843 100.627 326.351 100.744C326.972 100.89 327.606 100.975 328.244 100.998C328.883 101.014 329.522 100.971 330.153 100.871C330.664 100.785 331.167 100.655 331.655 100.482C331.988 100.369 332.311 100.23 332.622 100.068C332.74 100.015 332.851 99.9502 332.953 99.8734C332.953 99.8734 332.453 100.085 331.613 100.347C331.123 100.492 330.624 100.605 330.119 100.685C329.501 100.771 328.876 100.808 328.252 100.795C327.628 100.768 327.006 100.691 326.394 100.567C325.894 100.457 325.403 100.31 324.926 100.127C324.111 99.8142 323.636 99.5351 323.619 99.569Z" fill="#455A64"/>
<path d="M330.823 112.246C330.993 112.424 332.011 111.603 333.488 111.569C334.964 111.536 336.034 112.246 336.22 112.06C336.407 111.874 336.11 111.646 335.635 111.316C334.986 110.884 334.217 110.665 333.437 110.69C332.668 110.714 331.927 110.983 331.324 111.459C330.874 111.832 330.73 112.161 330.823 112.246Z" fill="#263238"/>
<path d="M332.325 116.398C332.345 116.707 332.484 116.996 332.714 117.204C332.944 117.412 333.245 117.524 333.556 117.514C333.708 117.515 333.86 117.486 334.001 117.428C334.142 117.37 334.27 117.285 334.377 117.177C334.485 117.069 334.57 116.941 334.627 116.8C334.684 116.659 334.712 116.508 334.71 116.356C334.688 116.046 334.547 115.757 334.316 115.549C334.085 115.341 333.782 115.23 333.471 115.239C333.319 115.239 333.169 115.269 333.029 115.328C332.889 115.386 332.761 115.472 332.655 115.58C332.548 115.687 332.464 115.815 332.408 115.956C332.351 116.096 332.323 116.247 332.325 116.398Z" fill="#263238"/>
<path d="M357.893 115.679C358.037 115.603 363.833 113.455 364.062 119.468C364.292 125.481 358.199 124.483 358.182 124.314C358.165 124.145 357.893 115.679 357.893 115.679Z" fill="#FFBF9D"/>
<path d="M359.972 121.963C359.972 121.963 360.082 122.031 360.261 122.107C360.515 122.205 360.796 122.205 361.05 122.107C361.429 121.844 361.731 121.486 361.925 121.068C362.119 120.65 362.198 120.189 362.153 119.731C362.153 119.214 362.034 118.705 361.805 118.242C361.739 118.054 361.627 117.885 361.479 117.75C361.33 117.616 361.151 117.52 360.957 117.473C360.835 117.449 360.71 117.467 360.6 117.524C360.491 117.58 360.404 117.673 360.354 117.785C360.278 117.955 360.354 118.073 360.286 118.09C360.218 118.107 360.159 117.997 360.193 117.743C360.224 117.594 360.301 117.458 360.413 117.354C360.577 117.226 360.783 117.163 360.99 117.177C361.24 117.217 361.475 117.319 361.674 117.474C361.873 117.63 362.029 117.833 362.128 118.065C362.412 118.583 362.561 119.165 362.56 119.756C362.56 120.965 362 122.124 361.135 122.411C360.975 122.465 360.805 122.482 360.638 122.462C360.47 122.441 360.309 122.384 360.167 122.293C359.972 122.107 359.913 121.972 359.972 121.963Z" fill="#89B1FF"/>
<path d="M344.867 123.714C344.918 123.714 344.918 124.069 344.715 124.559C344.419 125.219 343.935 125.778 343.323 126.166C342.728 126.566 342.021 126.767 341.303 126.741C340.752 126.69 340.455 126.504 340.455 126.462C340.455 126.42 340.794 126.462 341.303 126.462C341.95 126.414 342.575 126.205 343.119 125.853C343.668 125.502 344.13 125.03 344.469 124.475C344.698 124.01 344.8 123.697 344.867 123.714Z" fill="#263238"/>
<path d="M375.247 361.498L377.046 381.794L383.427 397.491C383.532 397.764 383.577 398.056 383.56 398.349C383.542 398.641 383.463 398.926 383.326 399.185C383.19 399.444 383 399.671 382.768 399.852C382.537 400.032 382.27 400.161 381.985 400.231C381.647 400.331 381.291 400.352 380.944 400.294C380.596 400.235 380.267 400.098 379.982 399.892C376.341 397.254 363.214 387.545 363.07 386.285C362.883 384.644 359.531 364.661 359.531 364.661L375.247 361.498Z" fill="#455A64"/>
<path d="M382.035 400.256L362.756 383.993L362.951 385.499C363.078 386.344 363.095 386.767 363.672 387.283C368.796 391.908 374.179 396.239 379.795 400.256C380.141 400.417 380.517 400.5 380.898 400.5C381.28 400.5 381.656 400.417 382.002 400.256H382.035Z" fill="#263238"/>
<path d="M366.506 377.65C366.789 377.796 367.004 378.043 367.108 378.342C367.213 378.641 367.198 378.969 367.067 379.257C366.897 379.536 366.631 379.744 366.319 379.842C366.006 379.94 365.669 379.921 365.369 379.79C365.075 379.634 364.851 379.373 364.744 379.058C364.637 378.744 364.654 378.401 364.792 378.099C364.998 377.824 365.298 377.635 365.635 377.568C365.971 377.501 366.321 377.56 366.617 377.735" fill="white"/>
<path d="M376.044 391.884C376.172 391.934 376.537 390.818 377.742 390.125C378.507 389.752 379.331 389.515 380.177 389.423C380.177 389.372 379.897 389.245 379.388 389.228C378.716 389.222 378.056 389.401 377.479 389.744C376.916 390.069 376.462 390.551 376.172 391.131C375.985 391.571 375.985 391.875 376.044 391.884Z" fill="#263238"/>
<path d="M377.894 394.446C378.005 394.531 378.624 393.795 379.71 393.389C380.396 393.191 381.093 393.036 381.798 392.924C381.441 392.761 381.052 392.681 380.659 392.69C380.267 392.699 379.881 392.796 379.532 392.975C378.293 393.448 377.793 394.404 377.894 394.446Z" fill="#263238"/>
<path d="M372.778 388.695C373.627 388.023 374.527 387.415 375.468 386.877C376.486 386.462 377.532 386.12 378.599 385.854C377.443 385.68 376.262 385.901 375.247 386.479C373.499 387.317 372.701 388.644 372.778 388.695Z" fill="#263238"/>
<path d="M371.683 382.556C371.751 382.674 372.896 382.082 374.441 381.879C375.985 381.676 377.266 381.879 377.3 381.769C376.39 381.334 375.359 381.215 374.373 381.431C373.374 381.49 372.425 381.887 371.683 382.556Z" fill="#263238"/>
<path d="M371.004 376.602C371.897 376.155 372.87 375.891 373.867 375.824C374.863 375.757 375.863 375.889 376.808 376.213C376.808 376.162 376.579 375.934 376.044 375.714C375.341 375.439 374.584 375.323 373.83 375.376C373.077 375.418 372.345 375.635 371.691 376.01C371.182 376.297 370.953 376.56 371.004 376.602Z" fill="#263238"/>
<path d="M373.677 374.691C373.677 374.691 373.728 374.412 373.626 373.921C373.477 373.223 373.188 372.561 372.777 371.976C372.498 371.514 372.075 371.154 371.572 370.953C371.398 370.901 371.212 370.9 371.038 370.951C370.863 371.002 370.707 371.103 370.588 371.24C370.487 371.376 370.414 371.53 370.373 371.694C370.332 371.858 370.325 372.029 370.35 372.196C370.498 372.892 370.882 373.517 371.439 373.962C371.996 374.408 372.691 374.647 373.405 374.64C374.119 374.651 374.82 374.455 375.423 374.075C376.026 373.695 376.504 373.147 376.8 372.5C376.867 372.342 376.897 372.171 376.889 372C376.88 371.828 376.832 371.661 376.749 371.511C376.64 371.364 376.49 371.253 376.318 371.191C376.146 371.13 375.959 371.12 375.781 371.164C375.268 371.329 374.804 371.62 374.432 372.01C373.904 372.494 373.465 373.066 373.134 373.701C372.997 373.925 372.91 374.176 372.879 374.437C373.364 373.612 373.967 372.863 374.67 372.213C375.003 371.885 375.411 371.641 375.858 371.502C375.954 371.475 376.056 371.479 376.151 371.512C376.245 371.545 376.326 371.607 376.384 371.688C376.431 371.791 376.455 371.902 376.455 372.014C376.455 372.126 376.431 372.237 376.384 372.34C376.114 372.888 375.695 373.35 375.174 373.673C374.654 373.996 374.053 374.167 373.439 374.166C372.834 374.169 372.246 373.968 371.768 373.597C371.291 373.226 370.953 372.705 370.809 372.12C370.768 371.888 370.816 371.649 370.944 371.452C371.008 371.373 371.094 371.316 371.191 371.287C371.288 371.259 371.391 371.26 371.488 371.291C371.913 371.462 372.277 371.756 372.531 372.137C373.068 372.91 373.457 373.776 373.677 374.691Z" fill="#263238"/>
<path d="M323.873 362.546L324.671 379.756C324.671 379.756 306.265 386.302 306.087 389.499L341.77 389.236L341.694 362.369L323.873 362.546Z" fill="#455A64"/>
<path d="M335.694 378.225C336.03 378.308 336.322 378.515 336.511 378.804C336.7 379.092 336.772 379.442 336.713 379.782C336.61 380.115 336.386 380.398 336.084 380.575C335.783 380.752 335.426 380.81 335.083 380.737C334.729 380.65 334.421 380.433 334.223 380.128C334.024 379.823 333.95 379.454 334.014 379.097C334.154 378.754 334.419 378.476 334.756 378.32C335.093 378.163 335.476 378.138 335.83 378.251" fill="#E0E0E0"/>
<path d="M341.77 389.237L341.651 386.53L307.479 387.79C307.479 387.79 305.9 388.45 306.087 389.482L341.77 389.237Z" fill="#263238"/>
<path d="M324.094 379.604C324.094 379.764 324.943 379.832 325.791 380.348C326.64 380.864 327.115 381.549 327.276 381.481C327.437 381.414 327.166 380.475 326.114 379.866C325.061 379.257 324.052 379.443 324.094 379.604Z" fill="#263238"/>
<path d="M320.36 381.067C320.36 381.228 321.082 381.498 321.676 382.183C322.27 382.868 322.456 383.604 322.626 383.596C322.796 383.587 322.906 382.657 322.142 381.82C321.379 380.982 320.369 380.915 320.36 381.067Z" fill="#263238"/>
<path d="M318.273 385.279C318.434 385.279 318.663 384.501 318.213 383.587C317.764 382.674 316.94 382.353 316.864 382.488C316.788 382.623 317.305 383.097 317.662 383.833C318.018 384.568 318.103 385.27 318.273 385.279Z" fill="#263238"/>
<path d="M324.374 375.646C324.45 375.798 325.223 375.57 326.232 375.646C327.242 375.722 327.989 375.984 328.074 375.849C328.159 375.714 327.429 375.13 326.266 375.08C325.104 375.029 324.332 375.519 324.374 375.646Z" fill="#263238"/>
<path d="M317.662 238.948C317.662 239.937 321.803 377.515 321.803 377.515H343.866L348.338 259.828C348.338 259.828 353.557 321.361 353.557 322.689C353.557 324.017 358.156 378.175 358.156 378.175L378.607 376.61L377.258 252.75L374.763 234.584L317.662 238.948Z" fill="#263238"/>
<path d="M350.638 255.473C350.358 255.631 350.059 255.75 349.747 255.828C349.161 256.031 348.304 256.31 347.252 256.674L347.057 256.733V256.538C346.938 254.889 346.794 252.674 346.666 250.246C346.522 247.616 346.42 245.24 346.369 243.481C346.369 242.635 346.327 241.916 346.327 241.434C346.302 241.182 346.319 240.928 346.378 240.682C346.449 240.924 346.489 241.174 346.497 241.426C346.556 241.908 346.615 242.61 346.675 243.464C346.811 245.155 346.963 247.566 347.099 250.23C347.235 252.657 347.328 254.872 347.379 256.53L347.167 256.395C348.236 256.099 349.102 255.862 349.713 255.71C350.013 255.601 350.322 255.522 350.638 255.473Z" fill="#455A64"/>
<path d="M348.941 241.172C348.941 241.172 349.008 241.062 349.238 240.986C349.56 240.901 349.902 240.931 350.205 241.071C350.433 241.154 350.628 241.308 350.761 241.511C350.894 241.714 350.958 241.954 350.943 242.195C350.915 242.501 350.786 242.789 350.578 243.015C350.369 243.241 350.092 243.393 349.789 243.447C349.481 243.493 349.165 243.454 348.878 243.333C348.59 243.212 348.342 243.014 348.16 242.762C348.032 242.567 347.965 242.339 347.965 242.107C347.965 241.874 348.032 241.646 348.16 241.451C348.335 241.189 348.591 240.99 348.89 240.885C349.11 240.808 349.238 240.825 349.246 240.842C349.255 240.859 348.745 241.003 348.44 241.578C348.35 241.731 348.307 241.907 348.316 242.085C348.325 242.262 348.386 242.433 348.491 242.576C348.628 242.757 348.811 242.898 349.022 242.984C349.232 243.07 349.462 243.099 349.687 243.066C349.897 243.026 350.091 242.924 350.242 242.773C350.393 242.623 350.496 242.43 350.536 242.221C350.553 242.047 350.515 241.873 350.428 241.722C350.342 241.57 350.21 241.449 350.052 241.375C349.713 241.192 349.323 241.121 348.941 241.172Z" fill="#455A64"/>
<path d="M359.073 242.602C358.954 242.602 358.784 242.01 358.699 241.265C358.615 240.521 358.64 239.904 358.759 239.895C358.878 239.887 359.047 240.479 359.132 241.223C359.217 241.967 359.192 242.602 359.073 242.602Z" fill="#455A64"/>
<path d="M360.6 242.441C360.482 242.441 360.38 241.807 360.38 241.02C360.38 240.234 360.465 239.599 360.592 239.599C360.719 239.599 360.812 240.234 360.812 241.02C360.812 241.807 360.728 242.441 360.6 242.441Z" fill="#455A64"/>
<path d="M334.014 243.388C333.895 243.388 333.709 242.686 333.598 241.798C333.488 240.91 333.496 240.166 333.598 240.157C333.7 240.149 333.904 240.859 334.014 241.756C334.124 242.652 334.133 243.379 334.014 243.388Z" fill="#455A64"/>
<path d="M335.872 243.523C335.48 243.05 335.286 242.444 335.329 241.832C335.237 241.24 335.374 240.636 335.711 240.14C335.838 240.14 335.711 240.918 335.771 241.832C335.83 242.745 335.991 243.489 335.872 243.523Z" fill="#455A64"/>
<path d="M328.897 241.688C328.906 241.891 328.88 242.094 328.821 242.288C328.714 242.837 328.567 243.377 328.379 243.904C327.75 245.679 326.826 247.337 325.647 248.809C324.422 250.326 322.968 251.644 321.336 252.716C320.834 253.046 320.313 253.345 319.775 253.612C319.579 253.722 319.371 253.81 319.155 253.874C319.155 253.824 319.953 253.384 321.166 252.513C322.727 251.409 324.127 250.094 325.324 248.606C326.481 247.155 327.421 245.546 328.116 243.828C328.634 242.517 328.829 241.671 328.897 241.688Z" fill="#455A64"/>
<path d="M376.588 250.957C376.37 251.021 376.144 251.055 375.917 251.058C375.302 251.107 374.683 251.107 374.067 251.058C372.053 250.865 370.115 250.192 368.416 249.096C366.807 248.046 365.509 246.586 364.657 244.868C364.409 244.368 364.215 243.844 364.079 243.303C364.011 243.114 363.979 242.913 363.986 242.711C364.054 242.711 364.241 243.557 364.911 244.766C365.807 246.402 367.092 247.793 368.653 248.817C370.299 249.876 372.16 250.557 374.101 250.813C375.62 250.982 376.579 250.889 376.588 250.957Z" fill="#455A64"/>
<path d="M340.65 320.625C340.65 320.718 336.967 319.923 332.487 318.866C328.006 317.809 324.391 316.862 324.425 316.769C324.459 316.676 328.108 317.462 332.588 318.528C337.069 319.594 340.675 320.532 340.65 320.625Z" fill="#455A64"/>
<path d="M376.189 315.619C376.24 315.703 373.057 317.353 369.086 319.315C365.115 321.277 361.839 322.79 361.788 322.697C361.737 322.604 364.92 320.955 368.891 319.002C372.862 317.048 376.138 315.534 376.189 315.619Z" fill="#455A64"/>
<path d="M306.953 192.359L309.965 196.122V189.652H319.469C319.469 189.652 320.521 204.46 320.318 207.615C320.092 209.259 319.703 210.877 319.155 212.444C318.871 213.356 318.356 214.18 317.66 214.835C316.964 215.491 316.11 215.957 315.18 216.189C314.25 216.42 313.277 216.408 312.353 216.155C311.429 215.902 310.586 215.416 309.906 214.744C308.842 213.713 307.85 212.611 306.936 211.446C302.693 206.033 295.7 192.841 295.7 192.841L303.032 188.477L306.953 192.359Z" fill="#FFBF9D"/>
<path d="M306.35 191.665C306.709 192.266 307.124 192.832 307.589 193.356C308.437 194.346 309.507 195.707 310.771 197.179C312.035 198.65 313.24 199.953 314.165 200.841C314.634 201.353 315.178 201.792 315.778 202.143C315.347 201.606 314.882 201.098 314.386 200.621C313.537 199.691 312.366 198.363 311.102 196.891C308.599 193.898 306.46 191.564 306.35 191.665Z" fill="#89B1FF"/>
<path d="M328.626 146.869L338.647 142.945L357.104 141.905L365.777 145.194L353.888 151.774L343.637 151.402L328.626 146.869Z" fill="#FFBF9D"/>
<path d="M316.805 240.825C317.713 240.978 378.183 243.54 378.183 243.54L376.095 189.323L375.917 178.684L372.523 146.454C372.523 146.454 363.477 143.351 358.869 141.871C358.869 141.871 354.015 146.945 344.783 146.776C335.762 146.649 333.878 144.619 333.878 144.619L321.268 149.44C321.268 149.44 312.299 152.645 310.754 156.603C309.21 160.56 306.511 182.439 306.511 182.439H319.588L319.24 221.315L316.805 240.825Z" fill="#455A64"/>
<g opacity="0.2">
<path d="M354.83 168.502L356.705 182.168L365.777 186.202L372.481 180.511V167.825L354.83 168.502Z" fill="black"/>
</g>
<path d="M372.243 172.409C372.243 172.519 368.475 172.612 363.825 172.612C359.175 172.612 355.398 172.519 355.398 172.409C358.202 172.197 361.014 172.126 363.825 172.197C366.633 172.126 369.442 172.197 372.243 172.409Z" fill="#263238"/>
<path d="M312.731 162.26C312.775 162.379 312.809 162.501 312.833 162.624C312.893 162.895 312.969 163.233 313.071 163.664C313.397 164.969 313.799 166.254 314.276 167.512C314.878 169.128 315.727 171.03 316.771 173.162C317.814 175.293 318.646 177.838 319.571 180.544C319.571 183.792 319.571 187.31 319.503 191.056C319.418 199.344 319.333 206.846 319.283 212.317C319.232 215.007 319.198 217.197 319.164 218.761C319.164 219.489 319.147 220.072 319.113 220.512C319.117 220.716 319.103 220.92 319.07 221.121C319.056 220.915 319.056 220.709 319.07 220.504C319.07 220.075 319.07 219.492 319.07 218.753C319.07 217.197 319.07 214.998 319.07 212.309C319.07 206.837 319.138 199.336 319.181 191.056C319.181 187.344 319.249 183.792 319.274 180.544V180.604C318.366 177.897 317.492 175.386 316.542 173.229C315.634 171.372 314.824 169.47 314.115 167.529C313.656 166.259 313.285 164.959 313.003 163.639C312.918 163.174 312.85 162.793 312.816 162.573C312.778 162.472 312.75 162.367 312.731 162.26Z" fill="#263238"/>
<path d="M376.842 155.935C376.872 156.32 376.872 156.708 376.842 157.093C376.842 157.939 376.774 158.971 376.723 160.239C376.613 162.962 376.469 166.599 376.308 170.616C376.146 174.633 375.96 178.278 375.841 181.001C375.765 182.27 375.705 183.327 375.654 184.147C375.652 184.533 375.613 184.919 375.535 185.297C375.505 184.912 375.505 184.524 375.535 184.138C375.535 183.293 375.535 182.261 375.595 180.993C375.663 178.329 375.782 174.658 375.951 170.607C376.121 166.556 376.308 162.878 376.477 160.231C376.562 158.903 376.647 157.829 376.723 157.085C376.729 156.699 376.769 156.314 376.842 155.935Z" fill="#263238"/>
<g opacity="0.3">
<path d="M312.765 164.248C312.535 170.199 314.67 176 318.705 180.392C317.475 174.802 314.403 169.601 312.765 164.248Z" fill="black"/>
</g>
<g opacity="0.3">
<path d="M339.326 217.89C342.169 217.513 344.762 216.074 346.582 213.865C348.496 211.734 350.135 209.373 351.461 206.837C353.172 203.387 354.143 199.62 354.312 195.775C350.791 205.188 345.631 212.63 339.326 217.89Z" fill="black"/>
</g>
<path d="M355.432 191.674C355.427 191.791 355.41 191.907 355.381 192.02C355.322 192.291 355.246 192.612 355.161 193.001C355.076 193.39 354.94 193.94 354.754 194.532C354.567 195.124 354.389 195.801 354.117 196.536C353.523 198.267 352.826 199.962 352.03 201.611C350.083 205.647 347.584 209.395 344.604 212.748C343.388 214.117 342.084 215.405 340.701 216.605C340.132 217.138 339.564 217.56 339.08 217.949C338.596 218.338 338.172 218.651 337.807 218.897L336.959 219.463C336.763 219.582 336.662 219.649 336.653 219.632C336.728 219.543 336.813 219.464 336.908 219.396L337.697 218.77C338.045 218.516 338.461 218.186 338.927 217.78C339.394 217.374 339.946 216.935 340.506 216.402C341.846 215.175 343.118 213.877 344.316 212.512C345.767 210.827 347.119 209.059 348.364 207.218C349.581 205.362 350.691 203.439 351.69 201.458C352.493 199.831 353.209 198.163 353.837 196.46C354.126 195.741 354.329 195.065 354.524 194.481C354.72 193.898 354.881 193.39 355 192.976C355.118 192.562 355.203 192.283 355.288 192.02C355.373 191.758 355.415 191.665 355.432 191.674Z" fill="#263238"/>
<path d="M353.684 174.709C353.671 174.897 353.646 175.083 353.608 175.267C353.54 175.665 353.447 176.189 353.336 176.84C353.226 177.491 353.056 178.354 352.81 179.31C352.564 180.265 352.343 181.373 351.962 182.557C351.792 183.149 351.605 183.775 351.41 184.426C351.215 185.077 350.96 185.737 350.723 186.422C350.273 187.817 349.662 189.255 349.025 190.777C346.238 197.348 342.492 203.472 337.909 208.951C336.831 210.186 335.821 211.387 334.786 212.419C334.277 212.943 333.802 213.467 333.31 213.932C332.817 214.397 332.351 214.854 331.892 215.277C331.044 216.123 330.127 216.858 329.347 217.501C328.566 218.144 327.938 218.677 327.378 219.091L326.097 220.055C325.957 220.177 325.803 220.282 325.638 220.368C325.762 220.232 325.899 220.107 326.046 219.996L327.276 218.973C327.819 218.541 328.481 218.009 329.202 217.34C329.924 216.672 330.798 215.962 331.672 215.074L333.064 213.721C333.547 213.247 334.014 212.723 334.515 212.199C335.541 211.158 336.534 209.958 337.603 208.714C342.147 203.244 345.884 197.156 348.703 190.633C349.331 189.12 349.942 187.699 350.4 186.32C350.646 185.627 350.901 184.976 351.104 184.333C351.308 183.69 351.495 183.073 351.682 182.481C352.072 181.305 352.318 180.214 352.581 179.259C352.844 178.303 353.031 177.483 353.167 176.806C353.302 176.13 353.43 175.648 353.514 175.25C353.551 175.064 353.608 174.883 353.684 174.709Z" fill="#263238"/>
<path d="M305.9 157.854L329.186 193.137C329.297 193.303 329.358 193.499 329.36 193.699C329.363 193.899 329.308 194.095 329.201 194.265C329.095 194.435 328.941 194.57 328.759 194.655C328.577 194.74 328.375 194.771 328.176 194.744L301.361 191.361C301.219 191.341 301.084 191.294 300.961 191.221C300.839 191.148 300.732 191.052 300.648 190.938L275.037 156.078C274.91 155.917 274.834 155.722 274.817 155.518C274.8 155.314 274.843 155.109 274.941 154.929C275.04 154.749 275.189 154.602 275.37 154.506C275.552 154.409 275.758 154.368 275.962 154.387L303.55 156.417C304.026 156.46 304.486 156.612 304.894 156.861C305.302 157.111 305.646 157.451 305.9 157.854Z" fill="#E0E0E0"/>
<path d="M305.9 157.854C305.843 157.739 305.771 157.631 305.688 157.533C305.452 157.241 305.164 156.995 304.84 156.806C304.287 156.518 303.672 156.37 303.049 156.374L300.571 156.171L284.669 154.928L279.399 154.522L276.599 154.311C276.353 154.311 276.14 154.311 275.86 154.311C275.574 154.32 275.3 154.431 275.088 154.624C274.873 154.819 274.734 155.085 274.697 155.373C274.66 155.661 274.726 155.953 274.885 156.197L282.335 166.387C287.596 173.55 293.367 181.424 299.434 189.695C299.825 190.211 300.172 190.71 300.597 191.251C300.727 191.394 300.89 191.504 301.072 191.572C301.239 191.63 301.413 191.665 301.59 191.674L302.54 191.792L306.291 192.266L313.623 193.179L327.488 194.87C327.777 194.87 328.015 194.946 328.337 194.963C328.502 194.965 328.666 194.933 328.819 194.871C328.972 194.808 329.111 194.716 329.228 194.6C329.45 194.372 329.58 194.071 329.593 193.754C329.58 193.445 329.467 193.148 329.27 192.908L327.471 190.168L324.077 185.094L318.001 175.935C314.284 170.362 311.28 165.838 309.184 162.7L306.766 159.106C306.494 158.717 306.282 158.404 306.121 158.184C306.053 158.074 305.976 157.969 305.892 157.871C305.95 157.988 306.015 158.101 306.087 158.209L306.69 159.157C307.233 160.002 308.022 161.229 309.032 162.793L317.738 176.113L323.772 185.297L327.166 190.414L328.931 193.094C329.083 193.272 329.173 193.495 329.186 193.729C329.177 193.951 329.087 194.162 328.931 194.321C328.773 194.477 328.56 194.565 328.337 194.566C328.108 194.566 327.794 194.498 327.531 194.473L313.639 192.705L306.308 191.784L302.557 191.31L301.615 191.192C301.474 191.18 301.335 191.154 301.199 191.115C301.08 191.069 300.973 190.997 300.885 190.904C300.512 190.397 300.138 189.898 299.765 189.382C293.689 181.128 287.885 173.263 282.641 166.1C280.002 162.531 277.507 159.131 275.165 155.951C275.077 155.826 275.025 155.679 275.015 155.526C275.005 155.374 275.036 155.221 275.106 155.085C275.175 154.949 275.281 154.834 275.411 154.753C275.54 154.672 275.69 154.627 275.843 154.624C276.039 154.624 276.31 154.624 276.539 154.666L279.34 154.869L284.618 155.241L300.571 156.34L303.066 156.51C303.674 156.489 304.278 156.62 304.823 156.89C305.247 157.131 305.615 157.459 305.9 157.854Z" fill="#263238"/>
<path d="M275.037 156.104C275.221 156.151 275.408 156.179 275.597 156.188L277.227 156.357L283.286 156.89L303.889 158.581L303.728 158.488C305.018 160.4 306.35 162.379 307.682 164.408C313.122 172.738 317.865 180.4 321.455 185.847C323.237 188.578 324.722 190.76 325.757 192.266L326.962 193.957C327.092 194.163 327.243 194.356 327.412 194.532C327.3 194.316 327.176 194.107 327.039 193.906L325.902 192.139L321.718 185.652C318.205 180.164 313.495 172.485 308.056 164.146C306.724 162.091 305.383 160.112 304.084 158.226L304.025 158.142H303.966L283.353 156.619L277.286 156.214L275.648 156.121C275.445 156.1 275.241 156.094 275.037 156.104Z" fill="#263238"/>
<path d="M290.999 161.491C291.015 161.421 291.045 161.354 291.087 161.296C291.129 161.238 291.183 161.188 291.245 161.151C291.307 161.114 291.376 161.09 291.447 161.08C291.519 161.07 291.591 161.074 291.661 161.093C291.934 161.155 292.184 161.293 292.382 161.491C292.508 161.605 292.59 161.76 292.613 161.929C292.637 162.097 292.6 162.268 292.51 162.413C292.247 162.742 291.661 162.616 291.373 162.345C291.242 162.246 291.14 162.116 291.074 161.966C291.009 161.817 290.983 161.653 290.999 161.491Z" fill="white"/>
<path d="M303.524 181.263C303.524 181.263 304.577 178.726 301.895 178.422C298.653 178.254 295.404 178.254 292.162 178.422C292.162 178.422 288.301 178.828 289.115 181.584C289.115 181.584 286.841 183.614 288.063 185.813C289.285 188.012 289.76 187.352 289.76 187.352C289.76 187.352 289.438 190.033 291.457 190.43C291.457 190.43 293.664 193.027 295.7 192.866C297.737 192.705 306.35 188.57 306.919 187.792C307.487 187.014 308.302 186.523 307.818 185.618C307.818 185.618 308.87 183.242 306.596 182.878C306.613 182.836 306.452 180.866 303.524 181.263Z" fill="#FFBF9D"/>
<path d="M291.288 182.168C291.885 182.292 292.495 182.338 293.104 182.303C294.224 182.303 295.768 182.303 297.474 182.303C298.944 182.346 300.415 182.261 301.87 182.05C303.024 181.779 303.482 181.103 303.431 181.086C302.933 181.4 302.38 181.621 301.802 181.737C300.741 181.914 299.171 181.805 297.466 181.864C295.76 181.923 294.215 181.94 293.095 181.991C292.488 181.977 291.881 182.037 291.288 182.168Z" fill="#89B1FF"/>
<path d="M293.206 186.227C293.385 186.332 293.584 186.398 293.791 186.422C294.349 186.535 294.92 186.572 295.488 186.532C296.316 186.469 297.136 186.319 297.932 186.084C298.832 185.838 299.791 185.492 300.8 185.187C301.739 184.878 302.71 184.676 303.694 184.587C304.545 184.666 305.4 184.495 306.155 184.096C306.45 183.898 306.659 183.596 306.74 183.251C306.795 182.993 306.759 182.724 306.639 182.489C306.426 182.109 306.138 182.084 306.146 182.1C306.155 182.117 306.35 182.219 306.477 182.566C306.559 182.801 306.553 183.057 306.461 183.288C306.369 183.519 306.198 183.71 305.977 183.826C305.252 184.144 304.455 184.263 303.669 184.172C302.65 184.236 301.643 184.429 300.673 184.747L297.822 185.686C297.051 185.925 296.262 186.1 295.463 186.211C294.711 186.262 293.958 186.267 293.206 186.227Z" fill="#89B1FF"/>
<path d="M296.091 189.653C296.709 189.617 297.319 189.501 297.907 189.306C299.01 189.027 300.52 188.595 302.15 188.063C303.779 187.53 305.272 186.98 306.325 186.549C306.922 186.362 307.493 186.097 308.022 185.762C307.971 185.644 305.323 186.608 302.082 187.631C298.84 188.655 296.057 189.534 296.091 189.653Z" fill="#89B1FF"/>
<path d="M295.403 192.832C295.91 192.876 296.421 192.819 296.905 192.663C298.089 192.377 299.24 191.971 300.342 191.454C301.632 190.87 302.761 190.27 303.575 189.838C304.041 189.642 304.475 189.38 304.865 189.06C303.24 189.584 301.664 190.249 300.155 191.048C297.618 192.265 295.386 192.705 295.403 192.832Z" fill="#89B1FF"/>
<path d="M381.128 168.654C381.128 168.654 375.646 190.541 368.798 198.625C362.162 206.457 351.766 202.854 348.168 192.706C344.57 182.557 338.155 159.461 338.155 159.461L346.03 153.457L359.607 179.749L365.743 161.829L381.128 168.654Z" fill="#FFBF9D"/>
<path d="M338.52 160.087L332.741 151.74C331.9 151.559 331.076 151.304 330.28 150.979C329.627 150.598 328.982 147.283 328.999 146.64C329.016 145.998 327.879 144.484 328.337 144.053C328.795 143.621 330.34 143.596 330.255 142.979C330.255 142.843 329.109 141.456 330.009 140.441C330.505 140.115 331.057 139.883 331.638 139.756L331.545 136.568C331.545 136.568 333.242 132.813 335.032 134.175C335.032 134.175 341.677 139.249 342.347 140.095C343.018 140.94 345.58 151.503 346.03 153.491" fill="#FFBF9D"/>
<path d="M346.03 153.474C346.021 153.285 345.992 153.098 345.945 152.915C345.852 152.51 345.741 151.985 345.597 151.326C345.292 149.939 344.825 147.943 344.197 145.482C343.875 144.247 343.527 142.945 343.077 141.465C342.967 141.11 342.848 140.746 342.695 140.374C342.52 139.995 342.251 139.666 341.914 139.418C341.303 138.885 340.667 138.361 340.013 137.828C338.698 136.771 337.298 135.672 335.847 134.547C335.481 134.222 335.069 133.951 334.625 133.744C334.365 133.682 334.095 133.682 333.836 133.743C333.576 133.805 333.335 133.927 333.131 134.099C332.373 134.756 331.768 135.57 331.358 136.484V136.534C331.358 136.847 331.358 137.177 331.358 137.507C331.358 138.251 331.358 138.995 331.426 139.723L331.579 139.52C331.178 139.616 330.786 139.746 330.407 139.909C330.196 139.996 330.003 140.122 329.839 140.281C329.692 140.451 329.583 140.65 329.516 140.864C329.408 141.287 329.444 141.733 329.618 142.133C329.689 142.324 329.777 142.508 329.881 142.683L330.026 142.928V142.987C330.03 143.007 330.03 143.027 330.026 143.046C330.026 143.114 329.856 143.215 329.695 143.275C329.533 143.334 329.355 143.393 329.177 143.452C328.993 143.501 328.811 143.56 328.634 143.63C328.411 143.694 328.217 143.831 328.082 144.019C327.994 144.236 327.994 144.478 328.082 144.695C328.133 144.878 328.199 145.056 328.277 145.228C328.422 145.566 328.583 145.888 328.702 146.201C328.762 146.343 328.796 146.495 328.804 146.649C328.807 146.83 328.824 147.011 328.855 147.19C328.905 147.537 328.965 147.875 329.041 148.213C329.173 148.865 329.352 149.507 329.576 150.133C329.683 150.461 329.857 150.763 330.085 151.021C330.362 151.2 330.666 151.334 330.984 151.419C331.57 151.596 332.147 151.74 332.682 151.867L332.588 151.808L336.831 157.863L338.019 159.503C338.151 159.701 338.298 159.888 338.461 160.062C338.352 159.851 338.23 159.648 338.096 159.453L336.976 157.761C335.966 156.264 334.549 154.176 332.809 151.622V151.571H332.817C332.274 151.436 331.706 151.283 331.12 151.106C330.849 151.028 330.589 150.915 330.348 150.767C330.165 150.545 330.027 150.289 329.941 150.015C329.724 149.402 329.554 148.775 329.432 148.137C329.364 147.807 329.304 147.478 329.253 147.139C329.253 146.979 329.253 146.801 329.253 146.649C329.246 146.452 329.206 146.258 329.135 146.074C329.007 145.727 328.846 145.406 328.71 145.076C328.636 144.921 328.576 144.76 328.532 144.594C328.486 144.468 328.486 144.33 328.532 144.205C328.63 144.104 328.753 144.031 328.888 143.993C329.058 143.927 329.23 143.87 329.406 143.824C329.584 143.765 329.771 143.714 329.958 143.638C330.191 143.566 330.386 143.405 330.501 143.19C330.532 143.121 330.546 143.046 330.543 142.97C330.541 142.917 330.527 142.865 330.501 142.818V142.75L330.357 142.505C330.265 142.345 330.186 142.178 330.119 142.006C329.982 141.689 329.952 141.335 330.034 141C330.079 140.837 330.16 140.687 330.272 140.56C330.4 140.448 330.546 140.359 330.704 140.298C331.062 140.145 331.431 140.02 331.808 139.926L331.96 139.883V139.723C331.96 138.995 331.918 138.26 331.892 137.515C331.892 137.186 331.892 136.847 331.892 136.543V136.636C332.27 135.782 332.829 135.021 333.53 134.403C333.681 134.265 333.863 134.165 334.062 134.113C334.26 134.062 334.468 134.06 334.667 134.107C335.063 134.301 335.431 134.545 335.762 134.835C337.222 135.959 338.622 137.05 339.937 138.099C340.599 138.623 341.235 139.139 341.838 139.655C342.143 139.871 342.386 140.162 342.542 140.501C342.686 140.847 342.805 141.211 342.924 141.558C343.374 142.979 343.773 144.323 344.078 145.541C344.715 147.968 345.241 149.939 345.606 151.351C345.784 152.002 345.92 152.526 346.021 152.924C346.005 153.107 346.008 153.291 346.03 153.474Z" fill="#89B1FF"/>
<path d="M331.638 139.756C331.638 139.824 332.308 139.756 333.335 139.875C333.95 139.969 334.557 140.108 335.151 140.289C335.931 140.399 336.722 140.399 337.502 140.289C338.171 140.195 338.853 140.255 339.495 140.463C340.138 140.671 340.724 141.022 341.21 141.49C341.586 141.906 341.888 142.384 342.101 142.902C342.105 142.601 342.047 142.302 341.93 142.024C341.813 141.747 341.64 141.496 341.422 141.287C340.981 140.803 340.435 140.424 339.827 140.179C339.08 139.89 338.272 139.789 337.476 139.883C336.73 139.976 335.974 139.976 335.228 139.883C334.615 139.713 333.987 139.603 333.352 139.553C332.773 139.507 332.19 139.576 331.638 139.756Z" fill="#89B1FF"/>
<path d="M333.989 139.579C334.082 139.63 334.354 139.241 334.32 138.691C334.286 138.141 333.972 137.795 333.887 137.845C333.802 137.896 333.887 138.268 333.887 138.691C333.887 139.114 333.878 139.537 333.989 139.579Z" fill="#89B1FF"/>
<path d="M330.051 143.097C331.73 143.257 333.424 143.125 335.058 142.708C335.651 142.514 336.276 142.434 336.899 142.471C337.382 142.577 337.808 142.857 338.096 143.258C338.346 143.656 338.567 144.071 338.758 144.501C338.787 143.988 338.64 143.481 338.342 143.063C338.036 142.571 337.549 142.218 336.984 142.082C336.31 142.003 335.627 142.07 334.981 142.277C332.291 142.886 330.051 142.979 330.051 143.097Z" fill="#89B1FF"/>
<path d="M329.169 146.108C329.573 146.202 329.994 146.202 330.399 146.108C331.154 146.023 332.173 145.761 333.276 145.541C333.785 145.428 334.307 145.377 334.829 145.389C335.234 145.396 335.626 145.539 335.94 145.795C336.222 146.054 336.415 146.394 336.492 146.767C336.492 146.767 336.568 146.657 336.56 146.429C336.525 146.107 336.378 145.808 336.144 145.583C335.8 145.246 335.345 145.044 334.863 145.017C334.294 144.978 333.722 145.02 333.166 145.144C332.028 145.363 331.044 145.668 330.314 145.82C329.924 145.877 329.54 145.973 329.169 146.108Z" fill="#89B1FF"/>
<path d="M331.12 148.492C331.053 148.543 331.621 149.135 332.656 149.135L332.453 148.958C332.453 149.135 332.453 149.313 332.512 149.49C332.54 150.215 332.701 150.929 332.987 151.596C333.1 150.882 333.077 150.154 332.919 149.448L332.843 148.915V148.729H332.665C332.143 148.708 331.625 148.628 331.12 148.492Z" fill="#89B1FF"/>
<path d="M372.455 146.488C372.455 146.488 383.682 149.194 383.656 164.036C383.631 178.878 380.262 186.202 380.262 186.202L359.565 174.946L364.215 163.419L372.455 146.488Z" fill="#455A64"/>
<path d="M380.262 186.202C380.113 186.159 379.97 186.096 379.838 186.016L378.633 185.407L374.22 183.09L359.463 175.166L359.293 175.081L359.361 174.903L360.473 172.011C361.797 168.586 363.019 165.322 364.207 162.353C364.784 160.873 365.327 159.461 365.845 158.125C366.296 156.884 366.844 155.679 367.482 154.522C368.335 152.791 369.621 151.309 371.216 150.218C371.664 149.938 372.158 149.741 372.676 149.634C372.807 149.606 372.94 149.589 373.074 149.583H373.219C372.54 149.724 371.893 149.988 371.309 150.361C369.778 151.477 368.555 152.961 367.754 154.674C367.144 155.827 366.619 157.023 366.184 158.252C365.683 159.579 365.149 160.992 364.58 162.48L360.88 172.155L359.769 175.047L359.667 174.777L374.398 182.836L378.743 185.272L379.906 185.948C380.033 186.019 380.153 186.105 380.262 186.202Z" fill="#263238"/>
</svg>
