<svg width="39" height="52" viewBox="0 0 39 52" fill="none" xmlns="http://www.w3.org/2000/svg">
<path d="M9.66081 50.7533C-3.22985 37.7513 -3.21069 16.69 9.66081 3.70743C10.2264 3.13699 11.1027 3.04349 11.7713 3.46496L18.2047 7.52079C18.5439 7.73462 18.7978 8.0619 18.9221 8.44542C19.0464 8.82894 19.0331 9.24431 18.8845 9.61893L15.6678 17.7301C15.5304 18.0766 15.285 18.3686 14.9687 18.5622C14.6524 18.7557 14.2822 18.8403 13.9141 18.8032L8.37466 18.2446C6.28524 24.0772 6.32881 30.5054 8.37466 36.2161L13.9142 35.6574C14.2823 35.6203 14.6525 35.7049 14.9688 35.8984C15.2851 36.092 15.5305 36.384 15.6679 36.7305L18.8846 44.8418C19.0331 45.2164 19.0464 45.6318 18.9222 46.0153C18.7979 46.3988 18.544 46.7261 18.2048 46.9399L11.7714 50.9957C11.4442 51.2019 11.0574 51.2902 10.6741 51.2462C10.2908 51.2022 9.93361 51.0284 9.66081 50.7533ZM24.5285 9.55796C25.7029 11.5649 25.7029 14.0638 24.5285 16.0707C24.1365 16.7408 23.2275 16.8675 22.6707 16.3291L22.0776 15.7559C21.6894 15.3807 21.6019 14.7926 21.8532 14.3133C22.0951 13.8513 22.2215 13.3368 22.2215 12.8144C22.2215 12.2919 22.0951 11.7774 21.8532 11.3154C21.6018 10.8361 21.6894 10.248 22.0776 9.87281L22.6707 9.29957C23.2275 8.76117 24.1365 8.88791 24.5285 9.55796ZM33.6388 0.429068C39.608 7.59747 39.6033 18.0369 33.6388 25.1995C33.1948 25.7328 32.3952 25.7748 31.8967 25.2929L31.3212 24.7366C30.8686 24.299 30.8272 23.5824 31.2289 23.0969C36.1606 17.1364 36.1565 8.48727 31.2289 2.53172C30.8272 2.04617 30.8685 1.32957 31.3212 0.891985L31.8967 0.335664C32.3952 -0.146174 33.1948 -0.104228 33.6388 0.429068ZM29.0759 4.92819C32.654 9.56557 32.6598 16.0555 29.0759 20.7004C28.6402 21.2651 27.8156 21.3262 27.3036 20.831L26.7261 20.2724C26.2894 19.8501 26.23 19.1617 26.5986 18.6775C29.2324 15.2173 29.2322 10.4111 26.5986 6.95105C26.23 6.46691 26.2894 5.77864 26.7261 5.35617L27.3036 4.79765C27.8156 4.30239 28.6402 4.36346 29.0759 4.92819Z" fill="white"/>
</svg>
