<svg width="13" height="19" viewBox="0 0 13 19" fill="none" xmlns="http://www.w3.org/2000/svg">
<path d="M12.4762 16.4626L11.1713 13.6814C10.8905 13.0872 10.5274 12.6547 9.90063 12.9184L8.66421 13.3896C7.67439 13.8607 7.18119 13.3896 6.68457 12.6793L4.45833 7.47917C4.17748 6.88496 4.32476 6.32592 4.95153 6.06222L6.68115 5.35199C7.30792 5.08477 7.20859 4.52924 6.92775 3.93504L5.44473 1.10114C5.16388 0.506937 4.58848 0.362781 3.96171 0.626481C2.70816 1.1574 1.67039 1.99069 0.995669 3.22481C0.173672 4.73317 0.58467 6.83222 0.74907 7.71474C0.913469 8.59726 1.48887 10.1443 2.23209 11.73C2.97531 13.3192 3.62606 14.5674 4.21173 15.2741C4.79398 15.9809 6.19137 17.9147 7.92099 18.3471C9.33894 18.6987 10.8699 18.4034 12.1234 17.8725C12.7536 17.6193 12.7536 17.0603 12.4762 16.4626Z" fill="black"/>
</svg>
