<svg width="497" height="614" viewBox="0 0 497 614" fill="none" xmlns="http://www.w3.org/2000/svg">
<path d="M248.5 614C385.743 614 497 546.806 497 463.918C497 381.029 385.743 313.835 248.5 313.835C111.257 313.835 0 381.029 0 463.918C0 546.806 111.257 614 248.5 614Z" fill="#F5F5F5"/>
<path d="M351.91 558.547L166.415 444.678C164.783 443.678 163.428 442.239 162.485 440.506C161.543 438.772 161.047 436.806 161.047 434.803C161.047 432.801 161.543 430.834 162.485 429.101C163.428 427.367 164.783 425.928 166.415 424.929L184.713 412.661C187.872 410.727 191.453 409.709 195.099 409.709C198.744 409.709 202.325 410.727 205.484 412.661L391.004 526.543C392.636 527.543 393.991 528.982 394.934 530.715C395.876 532.449 396.372 534.416 396.372 536.418C396.372 538.42 395.876 540.387 394.934 542.121C393.991 543.854 392.636 545.293 391.004 546.293L372.706 558.547C369.546 560.491 365.959 561.515 362.308 561.515C358.657 561.515 355.07 560.491 351.91 558.547Z" fill="#E0E0E0"/>
<path d="M69.8652 454.734C92.0971 454.734 110.12 443.731 110.12 430.158C110.12 416.585 92.0971 405.582 69.8652 405.582C47.6333 405.582 29.6108 416.585 29.6108 430.158C29.6108 443.731 47.6333 454.734 69.8652 454.734Z" fill="#E6E6E6"/>
<path d="M417.689 460.365L435.345 471.158C435.345 471.158 426.328 441.031 431.133 410.664C432.949 399.187 436.845 393.489 438.207 390.418C439.569 387.348 450.125 368.377 440.73 359.689C431.334 351.001 409.48 368.471 410.665 415.222C411.204 430.525 413.564 445.693 417.689 460.365Z" fill="#B6E0FF"/>
<path opacity="0.5" d="M417.689 460.365L435.345 471.158C435.345 471.158 426.328 441.031 431.133 410.664C432.949 399.187 436.845 393.489 438.207 390.418C439.569 387.348 450.125 368.377 440.73 359.689C431.334 351.001 409.48 368.471 410.665 415.222C411.204 430.525 413.564 445.693 417.689 460.365Z" fill="black"/>
<path d="M425.899 466.049C425.771 466.052 425.645 466.013 425.538 465.936C425.432 465.859 425.351 465.749 425.307 465.62C425.244 465.419 418.497 445.818 418.711 414.31C418.925 382.803 434.5 365.695 434.651 365.534C434.71 365.471 434.78 365.422 434.857 365.387C434.933 365.353 435.016 365.336 435.099 365.336C435.182 365.336 435.265 365.353 435.342 365.387C435.418 365.422 435.488 365.471 435.547 365.534C435.606 365.597 435.653 365.671 435.685 365.752C435.717 365.834 435.733 365.922 435.733 366.01C435.733 366.099 435.717 366.186 435.685 366.268C435.653 366.35 435.606 366.424 435.547 366.486C435.395 366.647 420.187 383.245 419.972 414.324C419.758 445.402 426.416 464.977 426.492 465.165C426.549 465.332 426.541 465.516 426.47 465.677C426.399 465.838 426.271 465.962 426.114 466.023C426.044 466.045 425.972 466.054 425.899 466.049Z" fill="white"/>
<path d="M425.054 464.977L449.192 479.725C451.707 481.306 454.69 481.82 457.546 481.167C460.402 480.513 462.922 478.74 464.602 476.199C466.2 473.556 466.874 470.4 466.507 467.283C465.347 453.956 459.899 450.886 466.57 444.946C473.241 439.007 474.981 438.591 474.603 432.88C474.225 427.168 470.555 424.674 468.815 422.422C467.074 420.169 462.257 415.45 465.536 408.478C468.815 401.506 473.291 394.762 466.507 391.679C462.459 389.828 455.712 392.295 451.273 397.417C446.834 402.539 443.176 406.226 438.926 407.459C434.677 408.693 425.824 408.894 426.202 416.683C426.58 424.473 428.522 427.141 426.782 430.614C423.503 437.103 409.24 440.79 425.054 464.977Z" fill="#B6E0FF"/>
<path d="M436.984 472.914C436.827 472.909 436.677 472.844 436.561 472.73C436.445 472.617 436.372 472.464 436.354 472.297C436.354 471.842 432.646 425.827 462.408 395.205C462.531 395.097 462.687 395.043 462.846 395.053C463.005 395.063 463.154 395.136 463.264 395.258C463.375 395.38 463.437 395.542 463.44 395.711C463.442 395.881 463.384 396.044 463.278 396.17C433.945 426.35 437.577 471.721 437.615 472.177C437.629 472.353 437.577 472.527 437.471 472.663C437.365 472.798 437.212 472.884 437.047 472.901L436.984 472.914Z" fill="white"/>
<path d="M441.764 433.309C441.605 433.309 441.452 433.246 441.335 433.132C441.218 433.017 441.146 432.86 441.133 432.692C440.869 429.126 439.924 425.655 438.357 422.49C436.789 419.325 434.631 416.533 432.015 414.284C431.947 414.233 431.889 414.168 431.844 414.093C431.8 414.019 431.77 413.935 431.756 413.848C431.742 413.761 431.744 413.671 431.762 413.585C431.781 413.499 431.816 413.417 431.864 413.345C431.911 413.273 431.97 413.212 432.04 413.164C432.109 413.117 432.186 413.085 432.267 413.07C432.348 413.055 432.431 413.058 432.511 413.077C432.592 413.097 432.667 413.133 432.734 413.184C435.522 415.535 437.82 418.475 439.483 421.819C441.146 425.164 442.137 428.839 442.394 432.612C442.408 432.791 442.355 432.969 442.247 433.107C442.138 433.245 441.983 433.332 441.814 433.349L441.764 433.309Z" fill="white"/>
<path d="M439.708 441.206C439.555 441.207 439.408 441.15 439.292 441.045C439.167 440.926 439.09 440.76 439.078 440.582C439.066 440.405 439.12 440.229 439.229 440.093C439.531 439.717 446.985 430.976 464.451 433.295C464.616 433.319 464.766 433.411 464.868 433.552C464.97 433.692 465.015 433.87 464.993 434.046C464.971 434.223 464.885 434.384 464.753 434.494C464.621 434.604 464.454 434.655 464.287 434.636C447.514 432.397 440.238 440.897 440.162 440.978C440.105 441.046 440.035 441.102 439.957 441.141C439.879 441.18 439.794 441.202 439.708 441.206Z" fill="white"/>
<path d="M346.26 544.939L183.124 444.799C171.61 437.733 162.278 418.775 162.278 402.458V31.0737C162.278 14.7569 171.61 7.26216 183.124 14.3279L346.26 114.468C357.774 121.533 367.106 140.491 367.106 156.808V528.193C367.106 544.496 357.774 552.004 346.26 544.939Z" fill="#455A64"/>
<path d="M365.051 102.79L201.902 2.64992C196.984 -0.366744 192.469 -0.715337 188.9 1.13488C188.463 1.36751 188.042 1.63181 187.639 1.92592L169.353 13.2283C173.035 10.8821 177.853 11.0563 183.137 14.3009L346.273 114.441C357.787 121.506 367.119 140.464 367.119 156.781V528.166C367.119 536.8 364.508 542.914 360.347 545.81L378.393 534.642C382.996 532.041 385.96 525.672 385.96 516.542V145.157C385.96 128.813 376.565 109.855 365.051 102.79Z" fill="#37474F"/>
<path d="M367.107 156.781V528.166C367.107 536.8 364.496 542.914 360.334 545.81L378.393 534.642C382.996 532.041 385.96 525.672 385.96 516.542V145.157L367.17 156.754L367.107 156.781Z" fill="#263238"/>
<path d="M385.897 173.969L367.106 185.5V194.51L385.897 182.966V173.969Z" fill="#37474F"/>
<path d="M377.662 233.887C375.985 234.92 374.623 233.82 374.623 231.447V212.073C374.64 210.862 374.924 209.672 375.452 208.599C375.979 207.526 376.737 206.599 377.662 205.893C379.34 204.86 380.702 205.893 380.702 208.333V227.706C380.685 228.917 380.401 230.107 379.873 231.181C379.345 232.254 378.588 233.181 377.662 233.887Z" fill="#37474F"/>
<path d="M374.61 231.501V212.073C374.627 210.862 374.911 209.672 375.439 208.599C375.966 207.525 376.724 206.599 377.649 205.892C377.926 205.687 378.248 205.561 378.584 205.528C378.92 205.495 379.259 205.556 379.566 205.705L377.284 204.458C376.971 204.298 376.625 204.229 376.28 204.257C375.934 204.285 375.602 204.41 375.316 204.619C374.39 205.325 373.631 206.251 373.101 207.325C372.571 208.398 372.285 209.588 372.264 210.8V230.16C372.217 230.649 372.287 231.143 372.468 231.595C372.649 232.048 372.934 232.444 373.298 232.747L375.682 234.088C375.303 233.798 375.003 233.404 374.815 232.95C374.626 232.495 374.556 231.994 374.61 231.501Z" fill="#455A64"/>
<path d="M377.662 280.773C375.985 281.805 374.623 280.773 374.623 278.333V258.959C374.641 257.748 374.925 256.558 375.453 255.485C375.981 254.412 376.737 253.485 377.662 252.778C379.34 251.746 380.702 252.778 380.702 255.232V274.592C380.686 275.803 380.404 276.994 379.876 278.068C379.348 279.142 378.589 280.068 377.662 280.773Z" fill="#37474F"/>
<path d="M374.61 278.333V258.959C374.628 257.748 374.912 256.558 375.44 255.485C375.968 254.412 376.724 253.485 377.649 252.778C377.928 252.576 378.25 252.453 378.585 252.42C378.92 252.387 379.258 252.446 379.566 252.59L377.284 251.33C376.973 251.163 376.626 251.09 376.279 251.119C375.932 251.147 375.599 251.276 375.316 251.491C374.388 252.195 373.628 253.121 373.097 254.195C372.567 255.268 372.282 256.459 372.265 257.672V277.086C372.216 277.575 372.285 278.069 372.466 278.522C372.647 278.975 372.934 279.371 373.299 279.673L375.682 281.014C375.287 280.717 374.978 280.308 374.789 279.835C374.599 279.361 374.537 278.841 374.61 278.333Z" fill="#455A64"/>
<path d="M340.56 124.885L180.249 26.448C179.58 26.0388 178.822 25.8227 178.05 25.8212C177.278 25.8197 176.519 26.0327 175.849 26.4393C175.178 26.8459 174.62 27.4318 174.228 28.1388C173.836 28.8459 173.625 29.6496 173.616 30.4702V402.458C173.616 414.873 181.901 430.118 192.015 436.325L348.392 532.362C349.133 532.816 349.974 533.054 350.83 533.054C351.685 533.053 352.526 532.813 353.267 532.358C354.008 531.903 354.623 531.249 355.051 530.461C355.479 529.674 355.705 528.78 355.706 527.871V152.813C355.769 142.569 348.934 130.007 340.56 124.885Z" fill="#B6E0FF"/>
<path opacity="0.9" d="M340.56 124.885L180.249 26.448C179.58 26.0388 178.822 25.8227 178.05 25.8212C177.278 25.8197 176.519 26.0327 175.849 26.4393C175.178 26.8459 174.62 27.4318 174.228 28.1388C173.836 28.8459 173.625 29.6496 173.616 30.4702V402.458C173.616 414.873 181.901 430.118 192.015 436.325L348.392 532.362C349.133 532.816 349.974 533.054 350.83 533.054C351.685 533.053 352.526 532.813 353.267 532.358C354.008 531.903 354.623 531.249 355.051 530.461C355.479 529.674 355.705 528.78 355.706 527.871V152.813C355.769 142.569 348.934 130.007 340.56 124.885Z" fill="white"/>
<path d="M228.196 52.15L230.681 63.2647L283.823 95.8447L293.004 90.6426L228.196 52.15Z" fill="#455A64"/>
<path d="M243.821 62.8893C243.821 64.7395 242.56 65.4769 241.097 64.5652C240.312 64.0109 239.66 63.2685 239.193 62.3976C238.727 61.5268 238.459 60.5518 238.411 59.5509C238.411 57.714 239.672 56.9632 241.135 57.8883C241.92 58.4398 242.572 59.1797 243.039 60.0484C243.506 60.9171 243.774 61.8902 243.821 62.8893Z" fill="#263238"/>
<path d="M279.624 86.4192C279.333 86.4167 279.047 86.3385 278.792 86.1913L251.653 70.1024C251.27 69.8632 250.99 69.4741 250.873 69.0184C250.756 68.5626 250.811 68.0763 251.026 67.6632C251.242 67.2502 251.601 66.9431 252.027 66.8077C252.453 66.6722 252.911 66.7191 253.305 66.9383L280.456 83.0271C280.786 83.2222 281.046 83.5283 281.195 83.8974C281.343 84.2665 281.372 84.6777 281.277 85.0661C281.181 85.4546 280.967 85.7983 280.668 86.0433C280.369 86.2882 280.002 86.4205 279.624 86.4192Z" fill="#263238"/>
<path d="M207.237 103.862C205.585 102.843 204.387 103.728 204.387 105.967C204.387 107.087 204.647 108.189 205.144 109.176C205.641 110.163 206.36 111.004 207.237 111.625C207.706 111.928 208.245 112.088 208.794 112.088C209.343 112.088 209.882 111.928 210.352 111.625L212.987 116.693C212.06 117.237 211.009 117.496 209.951 117.442C208.893 117.387 207.871 117.021 206.997 116.385C204.856 114.992 203.071 113.059 201.799 110.758C200.528 108.457 199.81 105.858 199.708 103.192C199.708 98.2176 202.848 96.4881 207.174 99.1696C209.617 100.842 211.618 103.149 212.987 105.873L210.352 108.099C209.702 106.408 208.624 104.941 207.237 103.862Z" fill="#B6E0FF"/>
<path d="M228.158 120.662C228.158 125.676 224.968 127.365 220.592 124.684C218.389 123.285 216.546 121.329 215.226 118.99C213.906 116.651 213.15 114.001 213.025 111.277C213.025 106.262 216.215 104.573 220.592 107.254C222.799 108.647 224.647 110.602 225.967 112.942C227.288 115.283 228.041 117.935 228.158 120.662ZM217.704 114.266C217.726 115.418 218.005 116.547 218.518 117.561C219.031 118.575 219.763 119.445 220.655 120.099C222.218 121.064 223.479 120.099 223.479 117.819C223.475 116.694 223.216 115.587 222.725 114.59C222.233 113.594 221.523 112.738 220.655 112.094C219.066 111.116 217.704 111.947 217.704 114.266Z" fill="#B6E0FF"/>
<path d="M233.24 115.339L238.688 127.406V118.718L242.812 121.252V138.158L239.029 135.825L233.606 123.866V132.5L229.457 129.953V113.006L233.24 115.339Z" fill="#B6E0FF"/>
<path d="M256.294 129.484V133.908L252.359 131.495V143.991L247.806 141.188V128.693L243.897 126.293V121.882L256.294 129.484Z" fill="#B6E0FF"/>
<path d="M265.172 149.461L260.001 146.283L259.295 148.241L254.629 145.372L260.443 132.031L265.121 134.9L270.721 155.253L265.865 152.276L265.172 149.461ZM264.049 144.768L262.637 138.99L261.187 143.012L264.049 144.768Z" fill="#B6E0FF"/>
<path d="M277.947 147.262C276.295 146.256 275.097 147.128 275.097 149.38C275.099 150.5 275.36 151.601 275.857 152.588C276.354 153.574 277.072 154.416 277.947 155.038C278.42 155.338 278.96 155.497 279.51 155.497C280.061 155.497 280.601 155.338 281.074 155.038L283.71 160.106C282.779 160.644 281.726 160.9 280.668 160.845C279.609 160.791 278.585 160.429 277.707 159.798C275.564 158.404 273.778 156.469 272.506 154.166C271.235 151.862 270.517 149.26 270.418 146.592C270.418 141.617 273.571 139.888 277.884 142.569C280.323 144.25 282.327 146.555 283.71 149.273L281.074 151.485C280.41 149.803 279.329 148.343 277.947 147.262Z" fill="#B6E0FF"/>
<path d="M296.144 153.952V158.363L292.21 155.95V168.486L287.657 165.684V153.188L283.748 150.788V146.377L296.144 153.952Z" fill="#B6E0FF"/>
<path d="M309.6 174.707C310.723 175.391 311.58 174.854 311.58 173.178V163.431L316.145 166.22V175.967C316.145 180.459 313.623 181.799 309.588 179.346C307.644 178.198 306.009 176.539 304.841 174.527C303.673 172.515 303.01 170.218 302.917 167.856V158.109L307.482 160.911V170.658C307.499 171.465 307.701 172.255 308.071 172.961C308.44 173.666 308.965 174.265 309.6 174.707Z" fill="#B6E0FF"/>
<path d="M323.498 174.76C322.981 174.452 322.653 174.439 322.653 174.948C322.653 177.067 329.778 180.123 329.778 186.251C329.778 190.005 327.092 190.018 323.989 188.114C321.262 186.338 318.913 183.977 317.091 181.183L318.781 178.018C320.168 180.301 321.948 182.284 324.027 183.864C324.696 184.28 325.125 184.28 325.125 183.676C325.125 181.478 317.987 178.555 317.987 172.615C317.987 169.237 320.307 168.593 323.889 170.738C326.196 172.222 328.226 174.144 329.879 176.41L328.227 179.654C326.862 177.806 325.272 176.161 323.498 174.76Z" fill="#B6E0FF"/>
<path d="M184.298 187.176C189.414 180.494 191.99 172.017 191.516 163.416C191.043 154.814 187.554 146.714 181.739 140.713C175.924 134.712 168.204 131.246 160.103 130.999C152.003 130.752 144.109 133.742 137.979 139.378C131.85 145.015 127.93 152.889 126.994 161.447C126.057 170.005 128.171 178.626 132.919 185.608C137.667 192.591 144.704 197.428 152.642 199.165C160.58 200.902 168.842 199.413 175.798 194.992L191.587 202.286L184.298 187.176Z" fill="#B6E0FF"/>
<path opacity="0.4" d="M184.298 187.176C189.414 180.494 191.99 172.017 191.516 163.416C191.043 154.814 187.554 146.714 181.739 140.713C175.924 134.712 168.204 131.246 160.103 130.999C152.003 130.752 144.109 133.742 137.979 139.378C131.85 145.015 127.93 152.889 126.994 161.447C126.057 170.005 128.171 178.626 132.919 185.608C137.667 192.591 144.704 197.428 152.642 199.165C160.58 200.902 168.842 199.413 175.798 194.992L191.587 202.286L184.298 187.176Z" fill="black"/>
<path d="M332.288 291.244V457.831C332.29 459.715 331.826 461.567 330.942 463.199C330.057 464.832 328.784 466.188 327.25 467.132C325.716 468.075 323.975 468.572 322.203 468.573C320.43 468.573 318.689 468.078 317.155 467.136L232.762 415.329L217.805 406.159C212.655 402.993 208.376 398.445 205.398 392.97C202.419 387.495 200.844 381.285 200.831 374.96V208.36C200.828 206.475 201.292 204.624 202.177 202.991C203.061 201.358 204.334 200.002 205.869 199.059C207.403 198.115 209.143 197.618 210.916 197.618C212.688 197.617 214.429 198.113 215.964 199.055L315.339 260.045C320.491 263.206 324.77 267.753 327.745 273.23C330.72 278.707 332.287 284.92 332.288 291.244Z" fill="#B6E0FF"/>
<path opacity="0.5" d="M332.288 291.244V457.831C332.29 459.715 331.826 461.567 330.942 463.199C330.057 464.832 328.784 466.188 327.25 467.132C325.716 468.075 323.975 468.572 322.203 468.573C320.43 468.573 318.689 468.078 317.155 467.136L232.762 415.329L217.805 406.159C212.655 402.993 208.376 398.445 205.398 392.97C202.419 387.495 200.844 381.285 200.831 374.96V208.36C200.828 206.475 201.292 204.624 202.177 202.991C203.061 201.358 204.334 200.002 205.869 199.059C207.403 198.115 209.143 197.618 210.916 197.618C212.688 197.617 214.429 198.113 215.964 199.055L315.339 260.045C320.491 263.206 324.77 267.753 327.745 273.23C330.72 278.707 332.287 284.92 332.288 291.244Z" fill="white"/>
<path d="M283.672 389.815C283.672 389.815 299.474 417.676 288.061 449.089L232.724 415.329L283.672 389.815Z" fill="#263238"/>
<path d="M308.872 264.64C310.068 254.314 303.164 244.913 293.452 243.642C283.739 242.37 274.897 249.71 273.701 260.035C272.505 270.361 279.409 279.762 289.121 281.034C298.833 282.305 307.676 274.966 308.872 264.64Z" fill="#263238"/>
<path d="M291.378 209.499C291.378 209.499 296.813 200.114 298.478 200.798C300.143 201.482 297.393 210.424 297.393 210.424C297.393 210.424 305.616 212.248 304.09 214.447C302.564 216.645 292.513 216.122 292.513 216.122L291.378 209.499Z" fill="#263238"/>
<path d="M295.161 233.686C291.377 263.906 267.416 263.906 267.416 263.906L217.225 240.417C217.225 240.417 213.441 236.89 212.281 228.792C211.836 225.475 211.836 222.108 212.281 218.79C212.281 218.79 212.281 218.723 212.281 218.697C213.883 205.986 222.824 192.324 242.295 188.128C246.562 187.212 250.906 186.762 255.259 186.787C257.365 186.779 259.47 186.891 261.565 187.122C276.698 188.704 287.304 196.212 292.361 207.89C293.499 210.526 294.345 213.293 294.883 216.136C295.91 221.927 296.003 227.861 295.161 233.686Z" fill="#263238"/>
<path d="M174.663 292.142C174.663 292.142 156.843 291.485 149.983 309.947C149.983 309.947 157.55 315.377 167.474 309.947C177.399 304.517 174.663 292.142 174.663 292.142Z" fill="#B6E0FF"/>
<path opacity="0.5" d="M174.663 292.142C174.663 292.142 156.843 291.485 149.983 309.947C149.983 309.947 157.55 315.377 167.474 309.947C177.399 304.517 174.663 292.142 174.663 292.142Z" fill="black"/>
<path d="M174.158 301.031C174.158 301.031 169.114 277.729 166.453 277.448C163.792 277.166 163.275 284.554 163.489 288.723L157.184 274.297C156.984 273.849 156.7 273.449 156.349 273.122C155.998 272.795 155.587 272.548 155.143 272.396C154.699 272.244 154.23 272.19 153.765 272.238C153.301 272.286 152.851 272.435 152.442 272.675C146.137 276.362 135.077 287.57 158.395 315.283L174.158 301.031Z" fill="#945959"/>
<path d="M238.727 284.916L234.943 284.393C231.131 283.855 227.252 284.407 223.706 285.99C220.16 287.573 217.074 290.132 214.766 293.403L192.255 325.259L174.6 292.142C174.6 292.142 172.481 314.667 149.92 309.947L174.146 353.293C175.679 356.038 177.813 358.347 180.366 360.026C182.919 361.705 185.816 362.704 188.81 362.937C191.804 363.17 194.807 362.63 197.563 361.365C200.319 360.099 202.746 358.144 204.639 355.667L225.372 328.57L238.727 284.916Z" fill="#B6E0FF"/>
<path d="M286.775 359.26C281.73 372.855 281.175 375.509 284.252 382.307C286.395 387.327 288.084 392.553 289.297 397.913C289.297 397.913 265.916 425.774 232.636 415.343L217.679 406.172C214.568 404.265 211.767 401.838 209.381 398.986L213.933 362.893C214.163 360.993 213.981 359.063 213.404 357.248L208.624 342.353C206.292 335.077 205.945 327.249 207.623 319.772C209.301 312.296 212.936 305.478 218.108 300.106L234.174 283.414L276.371 289.152L282.676 291.07C286.804 292.339 290.363 295.149 292.698 298.984C295.033 302.819 295.988 307.421 295.388 311.945C293.32 327.766 289.94 350.719 286.775 359.26Z" fill="#B6E0FF"/>
<path opacity="0.5" d="M286.775 359.26C281.73 372.855 281.175 375.509 284.252 382.307C286.395 387.327 288.084 392.553 289.297 397.913C289.297 397.913 265.916 425.774 232.636 415.343L217.679 406.172C214.568 404.265 211.767 401.838 209.381 398.986L213.933 362.893C214.163 360.993 213.981 359.063 213.404 357.248L208.624 342.353C206.292 335.077 205.945 327.249 207.623 319.772C209.301 312.296 212.936 305.478 218.108 300.106L234.174 283.414L276.371 289.152L282.676 291.07C286.804 292.339 290.363 295.149 292.698 298.984C295.033 302.819 295.988 307.421 295.388 311.945C293.32 327.766 289.94 350.719 286.775 359.26Z" fill="black"/>
<path d="M261.326 318.649L252.876 310.993C251.981 310.179 250.902 309.628 249.746 309.392C248.589 309.157 247.395 309.247 246.281 309.652L236.066 313.393L234.691 307.306C234.477 306.359 234.084 305.468 233.537 304.687C232.989 303.906 232.299 303.25 231.507 302.76C230.715 302.27 229.838 301.956 228.929 301.836C228.02 301.717 227.097 301.794 226.216 302.064L221.79 303.405L229.281 288.147C231.727 283.178 235.494 279.084 240.114 276.375L243.052 274.659L267.328 276C267.328 276 276.371 280.022 276.371 289.072L261.326 318.568" fill="#B6E0FF"/>
<path d="M267.429 287.436L243.09 307.601V243.393H267.429V287.436Z" fill="#945959"/>
<path d="M243.469 282.14L236.066 313.446L267.329 287.436L243.469 282.14Z" fill="#945959"/>
<path d="M243.09 277.488C248.502 275.351 253.449 272.068 257.631 267.836C261.813 263.605 265.142 258.513 267.416 252.872V243.393H243.077L243.09 277.488Z" fill="#703838"/>
<path d="M248.336 195.81C239.105 195.81 219.482 201.28 217.212 226.969C214.942 252.657 217.136 272.554 229.596 274.485C242.056 276.415 271.011 266.802 274.895 233.552C278.779 200.302 257.328 195.81 248.336 195.81Z" fill="#945959"/>
<path d="M233.808 237.842V252.979L225.459 250.258L233.808 237.842Z" fill="#703838"/>
<path d="M243.09 243.54C244.692 243.54 245.991 242.16 245.991 240.457C245.991 238.754 244.692 237.373 243.09 237.373C241.488 237.373 240.189 238.754 240.189 240.457C240.189 242.16 241.488 243.54 243.09 243.54Z" fill="#263238"/>
<path d="M226.898 238.311C226.895 238.921 226.723 239.516 226.403 240.021C226.083 240.526 225.629 240.92 225.098 241.151C224.568 241.382 223.985 241.441 223.424 241.321C222.862 241.2 222.346 240.906 221.942 240.474C221.537 240.042 221.262 239.493 221.152 238.895C221.041 238.297 221.099 237.678 221.319 237.115C221.539 236.552 221.91 236.071 222.387 235.733C222.864 235.395 223.424 235.214 223.997 235.214C224.379 235.214 224.757 235.295 225.11 235.45C225.463 235.606 225.783 235.835 226.053 236.122C226.322 236.41 226.536 236.752 226.681 237.127C226.826 237.503 226.899 237.905 226.898 238.311Z" fill="#263238"/>
<path d="M220.453 231.876L226.128 228.296C226.128 228.296 223.959 225.896 221.79 227.331C219.621 228.766 220.453 231.876 220.453 231.876Z" fill="#263238"/>
<path d="M229.886 259.12C232.65 259.334 235.401 258.55 237.692 256.894C237.692 256.894 238.235 261.278 234.779 262.11C231.324 262.941 229.886 259.12 229.886 259.12Z" fill="#703838"/>
<path d="M224.93 204.552C224.93 204.552 228.398 240.014 273.76 241.127C273.76 241.127 287.468 205.879 260.38 194.429C233.291 182.979 224.93 204.552 224.93 204.552Z" fill="#263238"/>
<path d="M287.115 235.818L281.541 232.386C279.422 231.045 276.497 231.233 273.256 233.217C266.824 237.159 261.603 246.772 261.603 254.669C261.603 258.624 262.864 261.372 265.033 262.713L270.506 266.065L270.822 266.253L271.011 266.373C273.079 267.446 275.841 267.191 278.88 265.327C285.312 261.305 290.533 251.773 290.533 243.876C290.495 239.88 289.196 237.118 287.115 235.818Z" fill="#B6E0FF"/>
<path d="M287.071 256.012C291.619 247.637 291.619 238.585 287.071 235.793C282.523 233.002 275.149 237.528 270.601 245.903C266.053 254.278 266.053 263.33 270.601 266.122C275.149 268.913 282.523 264.387 287.071 256.012Z" fill="#B6E0FF"/>
<path opacity="0.5" d="M287.071 256.012C291.619 247.637 291.619 238.585 287.071 235.793C282.523 233.002 275.149 237.528 270.601 245.903C266.053 254.278 266.053 263.33 270.601 266.122C275.149 268.913 282.523 264.387 287.071 256.012Z" fill="black"/>
<path d="M289.347 243.259L285.564 240.913C284.126 240.001 282.121 240.121 279.901 241.476C277.583 243.087 275.653 245.255 274.269 247.805C272.884 250.356 272.083 253.216 271.931 256.157C271.931 258.838 272.827 260.755 274.277 261.64L278.06 263.933C278.127 263.985 278.199 264.03 278.274 264.067L278.401 264.148C279.287 264.505 280.243 264.626 281.184 264.5C282.125 264.374 283.023 264.004 283.798 263.424C286.115 261.814 288.044 259.648 289.428 257.1C290.812 254.552 291.614 251.694 291.768 248.756C291.667 246.034 290.785 244.144 289.347 243.259Z" fill="#B6E0FF"/>
<path d="M291.668 248.729C291.514 251.667 290.712 254.525 289.328 257.073C287.943 259.621 286.015 261.787 283.698 263.397C279.284 266.078 275.715 263.906 275.715 258.503C275.864 255.563 276.666 252.701 278.053 250.152C279.44 247.603 281.374 245.439 283.698 243.836C288.099 241.127 291.668 243.313 291.668 248.729Z" fill="#B6E0FF"/>
<path opacity="0.3" d="M291.668 248.729C291.514 251.667 290.712 254.525 289.328 257.073C287.943 259.621 286.015 261.787 283.698 263.397C279.284 266.078 275.715 263.906 275.715 258.503C275.864 255.563 276.666 252.701 278.053 250.152C279.44 247.603 281.374 245.439 283.698 243.836C288.099 241.127 291.668 243.313 291.668 248.729Z" fill="black"/>
<path d="M269.8 188.892C266.185 185.923 261.757 184.29 257.189 184.24H256.067C251.441 184.187 246.822 184.636 242.283 185.58C243.115 185.58 243.947 185.58 244.805 185.58H242.283V188.074H244.628C252.712 188.366 260.373 191.989 265.99 198.177C271.608 204.364 274.742 212.631 274.731 221.231V231.782C274.73 232.199 274.813 232.612 274.972 232.993C275.131 233.374 275.364 233.715 275.655 233.995C275.947 234.274 276.29 234.485 276.663 234.615C277.036 234.744 277.43 234.788 277.821 234.745H278.111L280.633 233.914C280.465 233.97 280.291 234.006 280.116 234.021C280.868 233.913 281.556 233.514 282.049 232.901C282.542 232.287 282.805 231.503 282.789 230.696V220.909C282.764 203.198 275.563 193.678 269.8 188.892Z" fill="#B6E0FF"/>
<path d="M253.923 273.747C252.883 273.747 251.855 273.51 250.909 273.05L243.027 269.175C242.904 269.129 242.791 269.055 242.696 268.959C242.6 268.864 242.525 268.748 242.474 268.62C242.423 268.492 242.398 268.354 242.4 268.215C242.401 268.075 242.43 267.938 242.485 267.811C242.539 267.685 242.617 267.572 242.715 267.479C242.813 267.386 242.927 267.316 243.052 267.273C243.176 267.229 243.308 267.214 243.438 267.228C243.568 267.242 243.695 267.284 243.809 267.352L251.691 271.227C252.696 271.724 253.822 271.875 254.912 271.658C256.001 271.442 257 270.869 257.769 270.02L265.336 261.708C265.513 261.519 265.754 261.413 266.004 261.413C266.255 261.413 266.495 261.519 266.673 261.708C266.847 261.898 266.944 262.153 266.944 262.418C266.944 262.684 266.847 262.938 266.673 263.129L259.106 271.441C258.432 272.177 257.626 272.76 256.735 273.156C255.845 273.552 254.888 273.753 253.923 273.747Z" fill="#B6E0FF"/>
<path opacity="0.5" d="M253.923 273.747C252.883 273.747 251.855 273.51 250.909 273.05L243.027 269.175C242.904 269.129 242.791 269.055 242.696 268.959C242.6 268.864 242.525 268.748 242.474 268.62C242.423 268.492 242.398 268.354 242.4 268.215C242.401 268.075 242.43 267.938 242.485 267.811C242.539 267.685 242.617 267.572 242.715 267.479C242.813 267.386 242.927 267.316 243.052 267.273C243.176 267.229 243.308 267.214 243.438 267.228C243.568 267.242 243.695 267.284 243.809 267.352L251.691 271.227C252.696 271.724 253.822 271.875 254.912 271.658C256.001 271.442 257 270.869 257.769 270.02L265.336 261.708C265.513 261.519 265.754 261.413 266.004 261.413C266.255 261.413 266.495 261.519 266.673 261.708C266.847 261.898 266.944 262.153 266.944 262.418C266.944 262.684 266.847 262.938 266.673 263.129L259.106 271.441C258.432 272.177 257.626 272.76 256.735 273.156C255.845 273.552 254.888 273.753 253.923 273.747Z" fill="black"/>
<path d="M245.095 266.36C245.095 267.134 244.879 267.891 244.474 268.535C244.07 269.179 243.494 269.68 242.822 269.977C242.149 270.273 241.408 270.351 240.694 270.2C239.98 270.048 239.324 269.676 238.809 269.128C238.294 268.581 237.943 267.883 237.801 267.124C237.659 266.364 237.732 265.577 238.01 264.862C238.289 264.146 238.761 263.535 239.367 263.105C239.972 262.674 240.684 262.445 241.412 262.445C242.389 262.445 243.326 262.857 244.016 263.591C244.707 264.326 245.095 265.321 245.095 266.36Z" fill="#B6E0FF"/>
<path opacity="0.5" d="M245.095 266.36C245.095 267.134 244.879 267.891 244.474 268.535C244.07 269.179 243.494 269.68 242.822 269.977C242.149 270.273 241.408 270.351 240.694 270.2C239.98 270.048 239.324 269.676 238.809 269.128C238.294 268.581 237.943 267.883 237.801 267.124C237.659 266.364 237.732 265.577 238.01 264.862C238.289 264.146 238.761 263.535 239.367 263.105C239.972 262.674 240.684 262.445 241.412 262.445C242.389 262.445 243.326 262.857 244.016 263.591C244.707 264.326 245.095 265.321 245.095 266.36Z" fill="black"/>
<path d="M282.764 220.909V230.696C282.78 231.503 282.517 232.287 282.024 232.901C281.531 233.514 280.843 233.913 280.091 234.021C279.675 234.068 279.255 234.022 278.858 233.885C278.46 233.748 278.094 233.523 277.784 233.226C277.473 232.929 277.225 232.566 277.056 232.16C276.886 231.754 276.799 231.315 276.799 230.87V220.909C276.806 216.154 275.909 211.448 274.16 207.072C272.412 202.696 269.849 198.741 266.625 195.446C263.402 192.15 259.585 189.582 255.404 187.896C251.223 186.21 246.764 185.44 242.295 185.634C246.835 184.689 251.454 184.24 256.079 184.293H257.176C261.744 184.343 266.172 185.977 269.787 188.945C275.563 193.678 282.764 203.198 282.764 220.909Z" fill="#B6E0FF"/>
<path opacity="0.5" d="M282.764 220.909V230.696C282.78 231.503 282.517 232.287 282.024 232.901C281.531 233.514 280.843 233.913 280.091 234.021C279.675 234.068 279.255 234.022 278.858 233.885C278.46 233.748 278.094 233.523 277.784 233.226C277.473 232.929 277.225 232.566 277.056 232.16C276.886 231.754 276.799 231.315 276.799 230.87V220.909C276.806 216.154 275.909 211.448 274.16 207.072C272.412 202.696 269.849 198.741 266.625 195.446C263.402 192.15 259.585 189.582 255.404 187.896C251.223 186.21 246.764 185.44 242.295 185.634C246.835 184.689 251.454 184.24 256.079 184.293H257.176C261.744 184.343 266.172 185.977 269.787 188.945C275.563 193.678 282.764 203.198 282.764 220.909Z" fill="black"/>
<path d="M268.589 405.354C268.589 405.354 262.486 423.226 284.303 431.271C284.303 431.271 291.428 420.143 284.303 411.039C277.178 401.935 268.589 405.354 268.589 405.354Z" fill="#B6E0FF"/>
<path opacity="0.7" d="M268.589 405.354C268.589 405.354 262.486 423.226 284.303 431.271C284.303 431.271 291.428 420.143 284.303 411.039C277.178 401.935 268.589 405.354 268.589 405.354Z" fill="black"/>
<path d="M276.244 406.172C276.244 406.172 254.932 414.471 255.045 417.689C255.159 420.907 264.1 418.708 264.1 418.708L260.834 420.987C257.394 423.373 254.73 426.828 253.204 430.882C252.871 431.776 252.86 432.769 253.171 433.671C253.483 434.574 254.096 435.323 254.894 435.776L262.99 440.334C263.447 440.592 263.949 440.75 264.464 440.798C264.98 440.847 265.499 440.784 265.992 440.616C266.484 440.447 266.94 440.175 267.332 439.816C267.724 439.456 268.045 439.017 268.274 438.524C268.726 437.576 269.349 436.733 270.109 436.042C270.869 435.352 271.75 434.828 272.701 434.502C277.102 432.947 285.312 428.469 288.603 416.214L276.244 406.172Z" fill="#945959"/>
<path d="M282.638 291.043C282.638 291.043 271.288 297.747 277.316 318.099C283.344 338.451 294.656 370.026 294.656 370.026L268.589 405.354C271.374 405.711 274.057 406.689 276.463 408.223C278.868 409.757 280.942 411.813 282.55 414.257C284.09 416.742 285.052 419.581 285.356 422.539C285.661 425.497 285.3 428.49 284.303 431.271L316.663 387.026C319.655 382.938 321.642 378.12 322.443 373.01C323.245 367.9 322.836 362.658 321.253 357.758L307.381 314.693C305.685 309.433 302.867 304.661 299.148 300.751C295.429 296.841 290.909 293.899 285.942 292.156L282.638 291.043Z" fill="#B6E0FF"/>
<path d="M91.0514 170.819L40.8974 139.982C40.3202 139.556 39.6525 139.291 38.9545 139.209C38.2565 139.127 37.5503 139.231 36.8997 139.512C36.7626 139.58 36.6317 139.661 36.5088 139.754L25.6002 146.551H25.6759C24.3013 147.383 23.4312 149.313 23.4312 152.075V211.389C23.4312 216.404 26.2939 222.236 29.8375 224.408L79.9915 255.245C80.6279 255.734 81.3854 256.014 82.1701 256.05C82.9547 256.086 83.732 255.876 84.4054 255.446C84.3713 255.461 84.341 255.484 84.3171 255.513L95.15 248.809C96.5624 248.005 97.4578 246.048 97.4578 243.245V183.837C97.4578 178.823 94.6455 172.991 91.0514 170.819Z" fill="#B6E0FF"/>
<path d="M95.6674 176.436C94.6527 174.142 93.0537 172.196 91.0517 170.819L40.8977 139.982C40.3206 139.556 39.6528 139.291 38.9548 139.209C38.2568 139.127 37.5506 139.231 36.9001 139.512C36.7629 139.58 36.6321 139.661 36.5091 139.754L25.6006 146.551C26.2679 146.189 27.0161 146.028 27.7634 146.087C28.5108 146.146 29.2284 146.423 29.8379 146.887L79.9919 177.724C82.062 179.162 83.7027 181.2 84.721 183.596L95.6674 176.436Z" fill="#B6E0FF"/>
<path d="M86.3982 250.03C86.3982 252.711 85.5911 254.575 84.3174 255.393L95.1502 248.689C96.5627 247.884 97.4581 245.927 97.4581 243.125V183.837C97.4047 181.257 96.7919 178.724 95.6673 176.436L84.7209 183.596C85.7719 185.816 86.3449 188.257 86.3982 190.742V250.03Z" fill="#B6E0FF"/>
<path opacity="0.3" d="M95.6674 176.436C94.6527 174.142 93.0537 172.196 91.0517 170.819L40.8977 139.982C40.3206 139.556 39.6528 139.291 38.9548 139.209C38.2568 139.127 37.5506 139.231 36.9001 139.512C36.7629 139.58 36.6321 139.661 36.5091 139.754L25.6006 146.551C26.2679 146.189 27.0161 146.028 27.7634 146.087C28.5108 146.146 29.2284 146.423 29.8379 146.887L79.9919 177.724C82.062 179.162 83.7027 181.2 84.721 183.596L95.6674 176.436Z" fill="black"/>
<path opacity="0.6" d="M86.3982 250.03C86.3982 252.711 85.5911 254.575 84.3174 255.393L95.1502 248.689C96.5627 247.884 97.4581 245.927 97.4581 243.125V183.837C97.4047 181.257 96.7919 178.724 95.6673 176.436L84.7209 183.596C85.7719 185.816 86.3449 188.257 86.3982 190.742V250.03Z" fill="black"/>
<path d="M71.6936 207.729C71.6936 215.412 68.8309 218.026 64.5431 215.385C63.3603 214.669 62.326 213.706 61.5025 212.554C60.6789 211.402 60.0831 210.085 59.751 208.681C58.4899 210.33 56.5352 210.438 53.786 208.748C49.2712 205.973 45.7149 199.363 45.7149 192.941C45.7149 186.519 49.2334 184.307 53.786 187.095C56.0961 188.543 57.9621 190.671 59.1582 193.223V190.689L63.9126 193.611V207.501C63.8418 208.232 63.9607 208.97 64.2564 209.634C64.5521 210.298 65.0133 210.864 65.5899 211.269C67.1915 212.261 68.1751 210.585 68.1751 205.611C68.1751 196.91 62.9289 187.685 55.1732 182.926C47.4174 178.166 42.1838 181.478 42.1838 190.434C42.2854 195.186 43.5172 199.834 45.7642 203.944C48.0112 208.053 51.2004 211.491 55.0344 213.937C57.1162 215.3 59.4802 216.101 61.9201 216.27L63.0424 220.895C60.2015 220.652 57.4562 219.691 55.0344 218.093C44.9456 211.886 38.2744 199.39 38.2744 188.074C38.2744 176.758 45.0087 172.656 55.1732 178.903C64.9971 184.923 71.6936 196.977 71.6936 207.729ZM59.2339 201.28C59.2584 199.58 58.8682 197.902 58.1013 196.41C57.3344 194.918 56.217 193.663 54.8579 192.767C52.3357 191.198 50.5323 192.297 50.5323 195.944C50.4999 197.647 50.8809 199.33 51.6386 200.831C52.3963 202.332 53.5051 203.599 54.8579 204.512C57.3801 206.027 59.2339 205.048 59.2339 201.28Z" fill="#B6E0FF"/>
<g opacity="0.9">
<path d="M71.6936 207.729C71.6936 215.412 68.8309 218.026 64.5431 215.385C63.3603 214.669 62.326 213.706 61.5025 212.554C60.6789 211.402 60.0831 210.085 59.751 208.681C58.4899 210.33 56.5352 210.438 53.786 208.748C49.2712 205.973 45.7149 199.363 45.7149 192.941C45.7149 186.519 49.2334 184.307 53.786 187.095C56.0961 188.543 57.9621 190.671 59.1582 193.223V190.689L63.9126 193.611V207.501C63.8418 208.232 63.9607 208.97 64.2564 209.634C64.5521 210.298 65.0133 210.864 65.5899 211.269C67.1915 212.261 68.1751 210.585 68.1751 205.611C68.1751 196.91 62.9289 187.685 55.1732 182.926C47.4174 178.166 42.1838 181.478 42.1838 190.434C42.2854 195.186 43.5172 199.834 45.7642 203.944C48.0112 208.053 51.2004 211.491 55.0344 213.937C57.1162 215.3 59.4802 216.101 61.9201 216.27L63.0424 220.895C60.2015 220.652 57.4562 219.691 55.0344 218.093C44.9456 211.886 38.2744 199.39 38.2744 188.074C38.2744 176.758 45.0087 172.656 55.1732 178.903C64.9971 184.923 71.6936 196.977 71.6936 207.729ZM59.2339 201.28C59.2584 199.58 58.8682 197.902 58.1013 196.41C57.3344 194.918 56.217 193.663 54.8579 192.767C52.3357 191.198 50.5323 192.297 50.5323 195.944C50.4999 197.647 50.8809 199.33 51.6386 200.831C52.3963 202.332 53.5051 203.599 54.8579 204.512C57.3801 206.027 59.2339 205.048 59.2339 201.28Z" fill="white"/>
</g>
<path d="M91.0514 276.442L40.8974 245.605C40.321 245.178 39.6524 244.912 38.9536 244.832C38.2547 244.752 37.5483 244.861 36.8997 245.149C36.7626 245.217 36.6317 245.297 36.5088 245.391L25.6002 252.188H25.6759C24.3013 253.019 23.4312 254.95 23.4312 257.699V316.986C23.4312 322.014 26.2939 327.833 29.8375 330.005L79.9915 360.842C80.6266 361.334 81.3845 361.616 82.1699 361.652C82.9553 361.688 83.7331 361.476 84.4054 361.043L84.3171 361.123L95.15 354.352C96.5624 353.561 97.4578 351.671 97.4578 348.788V289.447C97.4578 284.433 94.6455 278.614 91.0514 276.442Z" fill="#B6E0FF"/>
<path d="M95.6674 282.06C94.6561 279.763 93.0564 277.816 91.0517 276.442L40.8977 245.605C40.3214 245.178 39.6528 244.912 38.9539 244.832C38.2551 244.752 37.5486 244.861 36.9001 245.149C36.7629 245.217 36.6321 245.297 36.5091 245.391L25.6006 252.188C26.2664 251.822 27.0142 251.659 27.7618 251.715C28.5094 251.772 29.2278 252.047 29.8379 252.51L79.9919 283.347C82.0652 284.788 83.7065 286.83 84.721 289.233L95.6674 282.06Z" fill="#B6E0FF"/>
<path d="M86.3982 355.64C86.3982 358.321 85.5911 360.185 84.3174 361.07L95.1502 354.299C96.5627 353.508 97.4581 351.617 97.4581 348.735V289.447C97.4046 286.871 96.7917 284.343 95.6673 282.06L84.7209 289.219C85.7717 291.435 86.3447 293.872 86.3982 296.352V355.64Z" fill="#B6E0FF"/>
<path opacity="0.3" d="M95.6674 282.06C94.6561 279.763 93.0564 277.816 91.0517 276.442L40.8977 245.605C40.3214 245.178 39.6528 244.912 38.9539 244.832C38.2551 244.752 37.5486 244.861 36.9001 245.149C36.7629 245.217 36.6321 245.297 36.5091 245.391L25.6006 252.188C26.2664 251.822 27.0142 251.659 27.7618 251.715C28.5094 251.772 29.2278 252.047 29.8379 252.51L79.9919 283.347C82.0652 284.788 83.7065 286.83 84.721 289.233L95.6674 282.06Z" fill="black"/>
<path opacity="0.6" d="M86.3982 355.64C86.3982 358.321 85.5911 360.185 84.3174 361.07L95.1502 354.299C96.5627 353.508 97.4581 351.617 97.4581 348.735V289.447C97.4046 286.871 96.7917 284.343 95.6673 282.06L84.7209 289.219C85.7717 291.435 86.3447 293.872 86.3982 296.352V355.64Z" fill="black"/>
<path d="M49.3088 302.949L37.2148 282.06V310.363L49.3088 302.949Z" fill="#B6E0FF"/>
<path d="M60.5459 308.968L72.6146 331.184V302.922L60.5459 308.968Z" fill="#B6E0FF"/>
<path d="M39.0439 281.108L51.4658 302.56C51.5184 302.607 51.565 302.661 51.6045 302.721C51.6155 302.774 51.6155 302.828 51.6045 302.881L55.2995 309.263L58.4271 307.695C58.4758 307.639 58.5309 307.589 58.591 307.547C58.7143 307.471 58.8523 307.425 58.9946 307.413L71.6056 301.125L39.0439 281.108Z" fill="#B6E0FF"/>
<path d="M58.717 309.88L55.3373 311.569C55.207 311.634 55.0647 311.666 54.9211 311.663C54.747 311.665 54.5754 311.62 54.423 311.53C54.2705 311.441 54.1423 311.311 54.0509 311.154L50.3559 304.772L38.2241 312.226L70.874 332.257L58.717 309.88Z" fill="#B6E0FF"/>
<g opacity="0.9">
<path d="M49.3088 302.949L37.2148 282.06V310.363L49.3088 302.949Z" fill="white"/>
<path d="M60.5459 308.968L72.6146 331.185V302.922L60.5459 308.968Z" fill="white"/>
<path d="M39.0439 281.108L51.4658 302.56C51.5184 302.607 51.565 302.661 51.6045 302.721C51.6155 302.774 51.6155 302.828 51.6045 302.881L55.2995 309.263L58.4271 307.695C58.4758 307.639 58.5309 307.589 58.591 307.547C58.7143 307.471 58.8523 307.425 58.9946 307.413L71.6056 301.125L39.0439 281.108Z" fill="white"/>
<path d="M58.7165 309.88L55.3368 311.57C55.2066 311.634 55.0642 311.666 54.9206 311.663C54.7466 311.665 54.5749 311.62 54.4225 311.53C54.27 311.441 54.1418 311.311 54.0504 311.154L50.3554 304.772L38.2236 312.226L70.8735 332.257L58.7165 309.88Z" fill="white"/>
</g>
<path d="M91.0514 65.2489L40.8974 34.4119C40.321 33.9843 39.6524 33.7183 38.9536 33.6386C38.2547 33.5589 37.5483 33.6681 36.8997 33.9561C36.7626 34.0234 36.6317 34.1042 36.5088 34.1974L25.6002 40.995H25.6759C24.3013 41.8128 23.4312 43.7569 23.4312 46.5054V105.793C23.4312 110.807 26.2939 116.639 29.8375 118.811L79.9915 149.648C80.6266 150.141 81.3845 150.423 82.1699 150.459C82.9553 150.495 83.7331 150.283 84.4054 149.85L84.3171 149.917L95.15 143.213C96.5624 142.422 97.4578 140.531 97.4578 137.649V78.2139C97.4578 73.1995 94.6455 67.3673 91.0514 65.2489Z" fill="#B6E0FF"/>
<path d="M95.6674 70.8264C94.6564 68.5261 93.0569 66.5746 91.0517 65.1953L40.8977 34.4119C40.3214 33.9843 39.6528 33.7183 38.9539 33.6386C38.2551 33.5589 37.5486 33.6681 36.9001 33.9561C36.7629 34.0234 36.6321 34.1042 36.5091 34.1974L25.6006 40.995C26.2664 40.629 27.0142 40.4653 27.7618 40.5221C28.5094 40.5789 29.2278 40.8538 29.8379 41.3167L79.9919 72.1537C82.0652 73.5945 83.7065 75.6372 84.721 78.0396L95.6674 70.8264Z" fill="#B6E0FF"/>
<path d="M86.3982 144.353C86.3982 147.034 85.5911 148.898 84.3174 149.716L95.1502 143.012C96.5627 142.221 97.4581 140.33 97.4581 137.448V78.214C97.4046 75.6377 96.7917 73.1094 95.6673 70.8265L84.7209 77.9861C85.7717 80.2016 86.3447 82.6383 86.3982 85.1188V144.353Z" fill="#B6E0FF"/>
<path opacity="0.3" d="M95.6674 70.8264C94.6564 68.5261 93.0569 66.5746 91.0517 65.1953L40.8977 34.4119C40.3214 33.9843 39.6528 33.7183 38.9539 33.6386C38.2551 33.5589 37.5486 33.6681 36.9001 33.9561C36.7629 34.0234 36.6321 34.1042 36.5091 34.1974L25.6006 40.995C26.2664 40.629 27.0142 40.4653 27.7618 40.5221C28.5094 40.5789 29.2278 40.8538 29.8379 41.3167L79.9919 72.1537C82.0652 73.5945 83.7065 75.6372 84.721 78.0396L95.6674 70.8264Z" fill="black"/>
<path opacity="0.6" d="M86.3982 144.353C86.3982 147.034 85.5911 148.898 84.3174 149.716L95.1502 143.012C96.5627 142.221 97.4581 140.33 97.4581 137.448V78.214C97.4046 75.6377 96.7917 73.1094 95.6673 70.8265L84.7209 77.9861C85.7717 80.2016 86.3447 82.6383 86.3982 85.1188V144.353Z" fill="black"/>
<path d="M69.9913 118.879C68.0618 115.5 66.1197 112.175 64.1902 108.769C63.8842 108.124 63.4564 107.553 62.9334 107.092C62.4105 106.631 61.8037 106.289 61.151 106.088C60.2178 105.887 59.2845 105.659 58.3261 105.364C57.9848 105.213 57.6977 104.95 57.5064 104.613C54.3491 98.8683 51.839 92.7481 50.0281 86.3791C49.9895 86.243 49.9786 86.0997 49.996 85.9587C50.0134 85.8177 50.0587 85.6823 50.129 85.5613C50.7217 84.9311 51.3901 84.3546 51.9954 83.7915C52.6007 83.2284 52.916 81.9279 52.4746 80.2386C51.5414 76.6588 50.646 73.079 49.7128 69.5126C49.5322 68.4993 49.1038 67.5544 48.4707 66.773C47.8375 65.9916 47.0219 65.4013 46.106 65.0614C44.0724 64.4603 41.9134 64.5446 39.9266 65.3027C39.1574 65.6111 38.7538 66.3485 38.7412 67.6222C39.0691 70.0758 39.2835 72.5025 39.7249 74.9963C42.8356 92.98 50.3181 109.516 62.1725 124.604C62.482 125.104 62.8977 125.52 63.3862 125.818C63.8747 126.116 64.4223 126.288 64.9847 126.32C66.9473 126.27 68.8328 125.498 70.3192 124.134C71.4416 123.062 71.3281 121.158 69.9913 118.879Z" fill="#B6E0FF"/>
<path d="M69.8397 100.604C69.5759 96.7479 68.5762 92.989 66.9014 89.5567C65.6509 86.8754 64.0597 84.3896 62.1722 82.1692C61.6804 81.5793 61.2643 81.3916 61.012 81.834C60.7598 82.2765 61.012 82.9066 61.4913 83.4831L61.9831 84.0865C65.4688 88.3641 67.6655 93.6563 68.2886 99.277C68.2824 99.687 68.3205 100.096 68.4021 100.497C68.5605 100.958 68.8148 101.375 69.1461 101.717C69.411 101.918 69.7136 101.717 69.928 101.717C69.8524 101.167 69.865 100.886 69.8397 100.604Z" fill="#B6E0FF"/>
<path d="M58.4141 89.5969C59.9978 91.4487 60.9601 93.806 61.1507 96.3006C61.2338 96.6798 61.3653 97.0452 61.5417 97.3866C62.311 98.0569 62.6893 97.829 62.6893 96.9843C62.4196 93.7859 61.1754 90.7683 59.1456 88.3902C58.6664 87.8673 58.2754 87.7064 58.0484 88.1489C57.9668 88.4015 57.958 88.6743 58.0231 88.9323C58.0883 89.1903 58.2244 89.4217 58.4141 89.5969Z" fill="#B6E0FF"/>
<g opacity="0.9">
<path d="M69.9913 118.879C68.0618 115.5 66.1197 112.175 64.1902 108.769C63.8842 108.124 63.4564 107.553 62.9334 107.092C62.4105 106.631 61.8037 106.289 61.151 106.088C60.2178 105.887 59.2845 105.659 58.3261 105.364C57.9848 105.213 57.6977 104.95 57.5064 104.613C54.3491 98.8683 51.839 92.7481 50.0281 86.3791C49.9895 86.243 49.9786 86.0997 49.996 85.9587C50.0134 85.8177 50.0587 85.6823 50.129 85.5613C50.7217 84.9311 51.3901 84.3546 51.9954 83.7915C52.6007 83.2284 52.916 81.9279 52.4746 80.2386C51.5414 76.6588 50.646 73.079 49.7128 69.5126C49.5322 68.4993 49.1038 67.5544 48.4707 66.773C47.8375 65.9916 47.0219 65.4013 46.106 65.0614C44.0724 64.4603 41.9134 64.5446 39.9266 65.3027C39.1574 65.6111 38.7538 66.3485 38.7412 67.6222C39.0691 70.0758 39.2835 72.5025 39.7249 74.9963C42.8356 92.98 50.3181 109.516 62.1725 124.604C62.482 125.104 62.8977 125.52 63.3862 125.818C63.8747 126.116 64.4223 126.288 64.9847 126.32C66.9473 126.27 68.8328 125.498 70.3192 124.134C71.4416 123.062 71.3281 121.158 69.9913 118.879Z" fill="white"/>
<path d="M69.8397 100.604C69.5759 96.7479 68.5762 92.989 66.9014 89.5567C65.6509 86.8754 64.0597 84.3896 62.1722 82.1692C61.6804 81.5793 61.2643 81.3916 61.012 81.834C60.7598 82.2765 61.012 82.9066 61.4913 83.4831L61.9831 84.0865C65.4688 88.3641 67.6655 93.6563 68.2886 99.277C68.2824 99.687 68.3205 100.096 68.4021 100.497C68.5605 100.958 68.8148 101.375 69.1461 101.717C69.411 101.918 69.7136 101.717 69.928 101.717C69.8524 101.167 69.865 100.886 69.8397 100.604Z" fill="white"/>
<path d="M58.4146 89.5969C59.9983 91.4487 60.9606 93.806 61.1512 96.3006C61.2343 96.6798 61.3658 97.0452 61.5422 97.3866C62.3114 98.0569 62.6898 97.829 62.6898 96.9843C62.4201 93.7859 61.1759 90.7683 59.1461 88.3902C58.6669 87.8673 58.2759 87.7064 58.0489 88.1489C57.9673 88.4015 57.9585 88.6743 58.0236 88.9323C58.0888 89.1903 58.2249 89.4217 58.4146 89.5969Z" fill="white"/>
</g>
<path d="M348.379 29.6926L360.195 36.8387V32.3875C360.195 32.0791 360.195 31.7573 360.195 31.449C360.195 31.1406 360.195 30.8456 360.195 30.5507V30.3898C360.624 24.5039 364.824 22.2381 369.944 25.3888C372.262 26.9046 374.248 28.9296 375.77 31.3283C376.918 23.2839 383.059 20.4415 390.487 24.9866C398.735 30.0546 405.419 42.4162 405.419 52.4985V62.0178C405.407 62.7793 405.583 63.5306 405.931 64.1966C406.279 64.8625 406.785 65.4197 407.398 65.8121L414.36 70.1427C415.862 71.0897 417.108 72.4351 417.974 74.0473C418.841 75.6595 419.299 77.4833 419.303 79.3401C419.304 80.1105 419.113 80.8673 418.75 81.5344C418.388 82.2015 417.867 82.7552 417.239 83.1399C416.611 83.5246 415.899 83.7266 415.174 83.7257C414.45 83.7247 413.738 83.5208 413.111 83.1344L348.556 43.462C346.843 42.4046 345.42 40.8892 344.429 39.0663C343.438 37.2435 342.913 35.1767 342.906 33.0712C342.905 32.3897 343.073 31.72 343.393 31.1292C343.712 30.5384 344.172 30.0473 344.727 29.7051C345.281 29.3629 345.91 29.1816 346.551 29.1794C347.192 29.1772 347.823 29.3542 348.379 29.6926Z" fill="#E6E6E6"/>
<path d="M438.46 27.829L447.048 33.0712V29.7998C447.048 29.5719 447.048 29.344 447.048 29.1161C447.048 28.8881 447.048 28.6736 447.048 28.4591V28.3787C447.363 24.1017 450.415 22.4526 454.135 24.7453C455.82 25.8427 457.265 27.31 458.373 29.049C459.218 23.2302 463.682 21.1253 469.079 24.4369C475.082 28.1239 479.937 37.0801 479.937 44.4407V51.3723C479.942 51.9157 480.079 52.4485 480.336 52.9186C480.592 53.3886 480.959 53.7798 481.4 54.0538L486.445 57.2045C487.542 57.8908 488.452 58.8708 489.082 60.047C489.713 61.2232 490.043 62.5544 490.039 63.9082C490.038 64.4627 489.901 65.0074 489.642 65.4886C489.383 65.9698 489.01 66.3709 488.561 66.6524C488.112 66.9339 487.601 67.0861 487.08 67.0939C486.558 67.1017 486.044 66.9649 485.587 66.697L438.586 37.8443C437.34 37.0783 436.306 35.9777 435.587 34.6529C434.868 33.3281 434.488 31.8256 434.487 30.2959C434.486 29.8008 434.608 29.3142 434.839 28.8845C435.071 28.4549 435.404 28.0974 435.806 27.8476C436.208 27.5979 436.665 27.4648 437.131 27.4615C437.596 27.4582 438.055 27.5849 438.46 27.829Z" fill="#E6E6E6"/>
</svg>
