<svg width="401" height="401" viewBox="0 0 401 401" fill="none" xmlns="http://www.w3.org/2000/svg">
<path d="M200.5 400.5C310.957 400.5 400.5 351.08 400.5 290.118C400.5 229.155 310.957 179.735 200.5 179.735C90.043 179.735 0.5 229.155 0.5 290.118C0.5 351.08 90.043 400.5 200.5 400.5Z" fill="#F5F5F5"/>
<path d="M55.8691 317.601C71.9863 317.601 85.0519 310.391 85.0519 301.497C85.0519 292.602 71.9863 285.392 55.8691 285.392C39.752 285.392 26.6864 292.602 26.6864 301.497C26.6864 310.391 39.752 317.601 55.8691 317.601Z" fill="#E0E0E0"/>
<path d="M176.35 266.235L95.9606 310.604L37.5144 278.104L117.904 233.743L176.35 266.235Z" fill="#E0E0E0"/>
<path d="M307.354 357.349L109.731 248.278C109.319 248.053 108.977 247.728 108.738 247.336C108.5 246.943 108.375 246.498 108.375 246.044C108.375 245.591 108.5 245.145 108.738 244.753C108.977 244.36 109.319 244.035 109.731 243.81L141.632 226.205C142.932 225.484 144.408 225.105 145.911 225.105C147.414 225.105 148.89 225.484 150.19 226.205L347.813 335.267C348.227 335.491 348.572 335.817 348.811 336.21C349.051 336.603 349.177 337.05 349.177 337.505C349.177 337.96 349.051 338.407 348.811 338.801C348.572 339.194 348.227 339.519 347.813 339.743L315.921 357.349C314.618 358.065 313.141 358.442 311.637 358.442C310.134 358.442 308.657 358.065 307.354 357.349Z" fill="#E0E0E0"/>
<path d="M338.187 300.991L349.293 307.157C349.293 307.157 343.686 290.058 346.799 272.855C347.975 266.355 350.442 263.131 351.285 261.399C352.128 259.666 358.856 248.93 352.962 243.991C347.069 239.051 333.226 248.879 333.854 275.377C334.16 284.056 335.616 292.663 338.187 300.991Z" fill="#89B1FF"/>
<path opacity="0.3" d="M338.187 300.991L349.293 307.157C349.293 307.157 343.686 290.058 346.799 272.855C347.975 266.355 350.442 263.131 351.285 261.399C352.128 259.666 358.856 248.93 352.962 243.991C347.069 239.051 333.226 248.879 333.854 275.377C334.16 284.056 335.616 292.663 338.187 300.991Z" fill="black"/>
<path d="M343.346 304.241C343.264 304.241 343.184 304.217 343.117 304.173C343.05 304.129 342.998 304.066 342.969 303.993C342.924 303.881 338.735 292.75 338.95 274.888C339.165 257.025 349.033 247.369 349.132 247.275C349.208 247.202 349.311 247.161 349.419 247.161C349.527 247.161 349.63 247.202 349.706 247.275C349.782 247.348 349.825 247.446 349.825 247.549C349.825 247.652 349.782 247.751 349.706 247.824C349.608 247.918 339.973 257.257 339.757 274.896C339.542 292.536 343.687 303.615 343.723 303.727C343.741 303.773 343.75 303.823 343.748 303.873C343.747 303.923 343.735 303.972 343.713 304.018C343.691 304.063 343.66 304.104 343.622 304.138C343.583 304.172 343.538 304.198 343.489 304.216C343.443 304.232 343.395 304.241 343.346 304.241Z" fill="white"/>
<path d="M341.345 302.587L359.7 312.878C359.7 312.878 368.097 311.694 367.46 304.139C366.823 296.584 363.414 294.792 367.666 291.473C371.918 288.155 373.049 287.932 372.806 284.673C372.564 281.414 370.312 279.999 369.218 278.67C368.124 277.341 365.136 274.674 367.244 270.746C369.353 266.819 372.232 263.029 367.971 261.228C365.432 260.156 361.162 261.502 358.327 264.375C355.492 267.248 353.169 269.314 350.487 269.983C347.804 270.652 342.206 270.704 342.413 275.129C342.619 279.553 343.803 281.071 342.682 283.035C340.529 286.808 331.477 288.763 341.345 302.587Z" fill="#89B1FF"/>
<path d="M348.782 307.174C348.682 307.172 348.585 307.136 348.511 307.071C348.436 307.006 348.389 306.918 348.378 306.822C348.378 306.556 346.369 280.453 365.343 263.31C365.379 263.274 365.423 263.246 365.472 263.226C365.52 263.207 365.573 263.197 365.625 263.197C365.678 263.197 365.73 263.207 365.779 263.226C365.827 263.246 365.871 263.274 365.908 263.31C365.982 263.384 366.024 263.482 366.024 263.585C366.024 263.687 365.982 263.786 365.908 263.859C347.221 280.744 349.177 306.488 349.204 306.736C349.211 306.838 349.177 306.939 349.109 307.017C349.04 307.096 348.942 307.146 348.836 307.157L348.782 307.174Z" fill="white"/>
<path d="M352.11 284.757C352.009 284.758 351.911 284.722 351.837 284.657C351.762 284.591 351.715 284.502 351.706 284.406C351.551 282.388 350.97 280.421 349.999 278.623C349.028 276.825 347.686 275.233 346.055 273.944C346.012 273.914 345.975 273.876 345.947 273.833C345.919 273.79 345.901 273.742 345.892 273.691C345.884 273.641 345.886 273.59 345.899 273.54C345.911 273.491 345.934 273.444 345.965 273.403C345.995 273.362 346.034 273.328 346.078 273.301C346.123 273.275 346.173 273.257 346.224 273.249C346.276 273.241 346.329 273.243 346.38 273.255C346.431 273.267 346.479 273.288 346.521 273.318C348.263 274.666 349.692 276.345 350.717 278.25C351.743 280.154 352.342 282.242 352.478 284.38C352.483 284.482 352.447 284.582 352.376 284.658C352.306 284.735 352.207 284.783 352.101 284.792L352.11 284.757Z" fill="white"/>
<path d="M350.72 289.226C350.67 289.226 350.621 289.218 350.574 289.2C350.528 289.182 350.486 289.156 350.451 289.123C350.413 289.088 350.383 289.046 350.363 288.999C350.342 288.953 350.332 288.903 350.332 288.853C350.332 288.802 350.342 288.752 350.363 288.706C350.383 288.66 350.413 288.618 350.451 288.582C350.648 288.377 355.412 283.437 366.41 284.912C366.516 284.925 366.612 284.977 366.677 285.058C366.743 285.138 366.773 285.24 366.76 285.341C366.744 285.443 366.688 285.535 366.602 285.597C366.517 285.66 366.409 285.688 366.302 285.675C355.753 284.286 351.097 289.046 351.052 289.106C351.01 289.149 350.958 289.182 350.901 289.203C350.843 289.224 350.781 289.232 350.72 289.226Z" fill="white"/>
<path d="M320.766 223.813L295.153 209.475L310.404 229.524L320.766 223.813Z" fill="#BBCEFF"/>
<path opacity="0.6" d="M320.766 223.813L295.153 209.475L310.404 229.524L320.766 223.813Z" fill="black"/>
<path d="M305.542 276.878L155.645 194.142C155.002 193.788 154.467 193.278 154.096 192.664C153.724 192.05 153.528 191.353 153.528 190.643V92.8064C153.528 92.097 153.724 91.4002 154.095 90.7858C154.466 90.1714 154.999 89.661 155.642 89.3057C156.284 88.9505 157.013 88.7629 157.755 88.7617C158.497 88.7606 159.227 88.9458 159.87 89.2991L309.785 172.035C310.428 172.391 310.963 172.902 311.334 173.518C311.706 174.133 311.902 174.831 311.902 175.542V273.379C311.902 274.09 311.706 274.789 311.333 275.404C310.96 276.02 310.425 276.531 309.78 276.885C309.135 277.24 308.404 277.426 307.66 277.425C306.916 277.423 306.185 277.235 305.542 276.878Z" fill="#E0E0E0"/>
<path d="M310.404 229.525L320.765 223.814V339.582C320.767 340.626 320.479 341.651 319.933 342.554C319.386 343.458 318.599 344.207 317.652 344.727L307.417 350.395L310.404 229.525Z" fill="#BBCEFF"/>
<path opacity="0.3" d="M310.404 229.525L320.765 223.814V339.582C320.767 340.626 320.479 341.651 319.933 342.554C319.386 343.458 318.599 344.207 317.652 344.727L307.417 350.395L310.404 229.525Z" fill="black"/>
<path d="M298.742 280.539L148.827 197.804C148.186 197.446 147.654 196.934 147.284 196.318C146.914 195.703 146.719 195.006 146.719 194.296V96.4337C146.718 95.724 146.913 95.0267 147.284 94.412C147.655 93.7972 148.189 93.2868 148.832 92.9321C149.475 92.5774 150.205 92.3909 150.947 92.3914C151.689 92.3919 152.419 92.5794 153.061 92.935L302.976 175.671C303.619 176.025 304.154 176.534 304.525 177.149C304.897 177.763 305.093 178.46 305.093 179.169V277.032C305.093 277.743 304.898 278.441 304.527 279.056C304.155 279.672 303.621 280.183 302.977 280.539C302.333 280.894 301.603 281.081 300.859 281.082C300.116 281.082 299.385 280.895 298.742 280.539Z" fill="#EBEBEB"/>
<path d="M291.933 284.365L142.027 201.638C141.384 201.281 140.849 200.77 140.478 200.155C140.106 199.539 139.91 198.841 139.91 198.13V100.293C139.909 99.5837 140.104 98.8863 140.475 98.2716C140.846 97.6569 141.38 97.1464 142.023 96.7917C142.666 96.437 143.396 96.2505 144.138 96.251C144.881 96.2515 145.61 96.439 146.252 96.7946L296.167 179.53C296.813 179.886 297.349 180.398 297.721 181.016C298.093 181.633 298.287 182.334 298.284 183.046V280.866C298.283 281.576 298.086 282.273 297.714 282.887C297.342 283.502 296.808 284.012 296.164 284.366C295.521 284.721 294.791 284.907 294.048 284.907C293.305 284.907 292.576 284.72 291.933 284.365Z" fill="#FAFAFA"/>
<path d="M118.81 99.0066V242.816C118.809 244.857 119.371 246.862 120.439 248.629C121.507 250.397 123.043 251.864 124.892 252.884L301.621 350.403C302.514 350.895 303.527 351.154 304.557 351.153C305.588 351.153 306.6 350.893 307.493 350.401C308.385 349.908 309.127 349.2 309.642 348.347C310.158 347.494 310.43 346.526 310.431 345.541V229.524L217.222 178.072L201.119 142.57C198.113 135.939 192.955 130.41 186.406 126.799L127.422 94.2129C126.546 93.7295 125.552 93.4758 124.54 93.4775C123.529 93.4793 122.536 93.7365 121.662 94.223C120.788 94.7095 120.064 95.4081 119.563 96.2481C119.062 97.0882 118.802 98.0397 118.81 99.0066Z" fill="#BBCEFF"/>
<path opacity="0.2" d="M118.81 99.0066V242.816C118.809 244.857 119.371 246.862 120.439 248.629C121.507 250.397 123.043 251.864 124.892 252.884L301.621 350.403C302.514 350.895 303.527 351.154 304.557 351.153C305.588 351.153 306.6 350.893 307.493 350.401C308.385 349.908 309.127 349.2 309.642 348.347C310.158 347.494 310.43 346.526 310.431 345.541V229.524L217.222 178.072L201.119 142.57C198.113 135.939 192.955 130.41 186.406 126.799L127.422 94.2129C126.546 93.7295 125.552 93.4758 124.54 93.4775C123.529 93.4793 122.536 93.7365 121.662 94.223C120.788 94.7095 120.064 95.4081 119.563 96.2481C119.062 97.0882 118.802 98.0397 118.81 99.0066Z" fill="black"/>
<path d="M258.866 255.936C258.372 255.662 257.879 255.422 257.394 255.208C257.018 244.145 248.944 231.068 239.075 225.614C235.747 223.77 232.625 223.041 229.934 223.264C226.166 211.584 217.509 200.111 207.426 194.519C194.561 187.419 184.011 192.538 182.989 205.882C182.37 205.47 181.742 205.084 181.114 204.733C171.344 199.347 163.432 203.712 163.432 214.491C163.432 225.271 171.344 238.383 181.114 243.768L258.892 286.696C266.599 290.984 272.842 287.503 272.842 278.979C272.842 270.455 266.572 260.147 258.866 255.936Z" fill="#BBCEFF"/>
<path opacity="0.4" d="M258.866 255.936C258.372 255.662 257.879 255.422 257.394 255.208C257.018 244.145 248.944 231.068 239.075 225.614C235.747 223.77 232.625 223.041 229.934 223.264C226.166 211.584 217.509 200.111 207.426 194.519C194.561 187.419 184.011 192.538 182.989 205.882C182.37 205.47 181.742 205.084 181.114 204.733C171.344 199.347 163.432 203.712 163.432 214.491C163.432 225.271 171.344 238.383 181.114 243.768L258.892 286.696C266.599 290.984 272.842 287.503 272.842 278.979C272.842 270.455 266.572 260.147 258.866 255.936Z" fill="white"/>
<path d="M192.597 254.933L210.924 286.876L230.508 275.531L222.766 271.355V239.737L201.9 228.246V260.121L192.597 254.933Z" fill="white"/>
<path d="M139.874 53.0596C120.341 53.0592 101.315 59.0029 85.552 70.0297C69.7891 81.0565 58.1077 96.5938 52.2 114.391L44.781 110.309C44.5635 110.187 44.3172 110.121 44.0653 110.115C43.8134 110.11 43.5643 110.166 43.3415 110.279C43.1187 110.391 42.9296 110.556 42.7922 110.758C42.6548 110.96 42.5735 111.192 42.5561 111.432C41.2082 125.178 43.2833 139.033 48.6116 151.865C51.2318 158.234 54.7773 164.219 59.1436 169.642C59.2833 169.811 59.4671 169.942 59.6763 170.021C59.8856 170.1 60.113 170.125 60.3357 170.094C60.5584 170.063 60.7686 169.976 60.9451 169.843C61.1217 169.709 61.2584 169.534 61.3415 169.334C64.5746 161.582 69.0344 154.352 74.5648 147.895C78.1418 143.652 82.1638 139.77 86.568 136.31C86.8153 136.117 87.0097 135.869 87.1345 135.589C87.2593 135.308 87.3107 135.002 87.2842 134.698C87.2577 134.394 87.1541 134.101 86.9824 133.844C86.8107 133.587 86.5761 133.374 86.2989 133.223L77.3996 128.309C82.1432 111.924 92.5109 97.5386 106.837 87.4643C121.163 77.39 138.616 72.2114 156.392 72.7605C174.168 73.3097 191.235 79.5546 204.851 90.4921C218.467 101.43 227.841 116.425 231.468 133.068C229.401 111.211 218.858 90.8823 201.909 76.0777C184.961 61.273 162.833 53.0625 139.874 53.0596Z" fill="#89B1FF"/>
<path opacity="0.4" d="M139.874 53.0596C120.341 53.0592 101.315 59.0029 85.552 70.0297C69.7891 81.0565 58.1077 96.5938 52.2 114.391L44.781 110.309C44.5635 110.187 44.3172 110.121 44.0653 110.115C43.8134 110.11 43.5643 110.166 43.3415 110.279C43.1187 110.391 42.9296 110.556 42.7922 110.758C42.6548 110.96 42.5735 111.192 42.5561 111.432C41.2082 125.178 43.2833 139.033 48.6116 151.865C51.2318 158.234 54.7773 164.219 59.1436 169.642C59.2833 169.811 59.4671 169.942 59.6763 170.021C59.8856 170.1 60.113 170.125 60.3357 170.094C60.5584 170.063 60.7686 169.976 60.9451 169.843C61.1217 169.709 61.2584 169.534 61.3415 169.334C64.5746 161.582 69.0344 154.352 74.5648 147.895C78.1418 143.652 82.1638 139.77 86.568 136.31C86.8153 136.117 87.0097 135.869 87.1345 135.589C87.2593 135.308 87.3107 135.002 87.2842 134.698C87.2577 134.394 87.1541 134.101 86.9824 133.844C86.8107 133.587 86.5761 133.374 86.2989 133.223L77.3996 128.309C82.1432 111.924 92.5109 97.5386 106.837 87.4643C121.163 77.39 138.616 72.2114 156.392 72.7605C174.168 73.3097 191.235 79.5546 204.851 90.4921C218.467 101.43 227.841 116.425 231.468 133.068C229.401 111.211 218.858 90.8823 201.909 76.0777C184.961 61.273 162.833 53.0625 139.874 53.0596Z" fill="white"/>
<path d="M316.736 71.2704C326.853 65.6866 326.854 47.5808 316.737 30.83C306.619 14.0793 290.216 5.02671 280.098 10.6105C269.98 16.1944 269.98 34.3001 280.097 51.0509C290.215 67.8016 306.618 76.8542 316.736 71.2704Z" fill="#89B1FF"/>
<path opacity="0.2" d="M316.736 71.2704C326.853 65.6866 326.854 47.5808 316.737 30.83C306.619 14.0793 290.216 5.02671 280.098 10.6105C269.98 16.1944 269.98 34.3001 280.097 51.0509C290.215 67.8016 306.618 76.8542 316.736 71.2704Z" fill="black"/>
<path d="M315.213 72.1105C325.331 66.5266 325.331 48.4209 315.214 31.6701C305.097 14.9194 288.693 5.86679 278.576 11.4506C268.458 17.0344 268.458 35.1402 278.575 51.891C288.692 68.6417 305.096 77.6943 315.213 72.1105Z" fill="#89B1FF"/>
<path d="M286.622 50.1258L306.565 61.1881C306.807 61.3242 307.084 61.3964 307.365 61.3976C307.647 61.3987 307.923 61.3287 308.167 61.1946C308.412 61.0606 308.614 60.8672 308.755 60.6341C308.896 60.4011 308.969 60.1366 308.969 59.8675V36.2851C308.964 35.6947 308.795 35.1161 308.48 34.6084C308.165 34.1007 307.714 33.682 307.175 33.3952L287.232 22.3672C286.989 22.2311 286.713 22.1589 286.431 22.1577C286.15 22.1566 285.873 22.2266 285.629 22.3607C285.385 22.4947 285.182 22.6881 285.041 22.9212C284.901 23.1542 284.827 23.4187 284.828 23.6878V47.2702C284.839 47.8547 285.01 48.4262 285.325 48.9274C285.64 49.4286 286.087 49.8419 286.622 50.1258Z" fill="#89B1FF"/>
<path opacity="0.6" d="M286.622 50.1258L306.565 61.1881C306.807 61.3242 307.084 61.3964 307.365 61.3976C307.647 61.3987 307.923 61.3287 308.167 61.1946C308.412 61.0606 308.614 60.8672 308.755 60.6341C308.896 60.4011 308.969 60.1366 308.969 59.8675V36.2851C308.964 35.6947 308.795 35.1161 308.48 34.6084C308.165 34.1007 307.714 33.682 307.175 33.3952L287.232 22.3672C286.989 22.2311 286.713 22.1589 286.431 22.1577C286.15 22.1566 285.873 22.2266 285.629 22.3607C285.385 22.4947 285.182 22.6881 285.041 22.9212C284.901 23.1542 284.827 23.4187 284.828 23.6878V47.2702C284.839 47.8547 285.01 48.4262 285.325 48.9274C285.64 49.4286 286.087 49.8419 286.622 50.1258Z" fill="white"/>
<path d="M288.622 46.6963L304.653 55.5033C304.85 55.614 305.074 55.6722 305.302 55.6718C305.53 55.6715 305.754 55.6126 305.95 55.5013C306.146 55.39 306.308 55.2304 306.417 55.0392C306.527 54.848 306.581 54.6321 306.573 54.4142V36.7489C306.573 36.2795 306.443 35.8185 306.198 35.4121C305.952 35.0057 305.599 34.6682 305.174 34.4335L289.143 25.5922C288.948 25.4856 288.727 25.4298 288.502 25.4304C288.277 25.431 288.057 25.488 287.862 25.5957C287.668 25.7033 287.507 25.8579 287.394 26.0439C287.282 26.2299 287.223 26.4409 287.223 26.6556V44.3467C287.217 44.8218 287.343 45.29 287.589 45.7029C287.835 46.1159 288.192 46.4588 288.622 46.6963Z" fill="#89B1FF"/>
<path opacity="0.4" d="M306.573 36.7494V54.4147C306.576 54.6305 306.519 54.843 306.407 55.0306C306.295 55.2181 306.134 55.374 305.938 55.4821C305.743 55.5903 305.521 55.647 305.295 55.6462C305.07 55.6455 304.848 55.5875 304.654 55.4781L288.622 46.6968C288.197 46.4649 287.843 46.1292 287.597 45.724C287.351 45.3188 287.222 44.8585 287.223 44.3901V26.6561C287.22 26.4403 287.278 26.2278 287.389 26.0402C287.501 25.8527 287.663 25.6968 287.858 25.5887C288.053 25.4805 288.275 25.4238 288.501 25.4246C288.727 25.4253 288.948 25.4833 289.143 25.5927L305.174 34.4426C305.6 34.6745 305.954 35.0102 306.199 35.4154C306.445 35.8206 306.574 36.2809 306.573 36.7494Z" fill="white"/>
<path d="M306.573 53.7883V54.4143C306.576 54.63 306.518 54.8426 306.407 55.0301C306.295 55.2177 306.133 55.3735 305.938 55.4817C305.743 55.5899 305.521 55.6465 305.295 55.6458C305.07 55.6451 304.848 55.5871 304.654 55.4776L288.622 46.6964C288.197 46.4645 287.843 46.1288 287.597 45.7236C287.351 45.3183 287.222 44.8581 287.223 44.3896V42.6745L291.421 39.2444L296.373 45.9847L301.209 40.4878L306.573 53.7883Z" fill="#FAFAFA"/>
<path d="M292.749 33.936C292.79 34.6515 293.006 35.3478 293.38 35.9689C293.754 36.59 294.276 37.1185 294.902 37.512C296.095 38.1723 297.064 37.6406 297.064 36.32C297.022 35.6037 296.804 34.9069 296.429 34.2858C296.053 33.6646 295.53 33.1365 294.902 32.744C293.718 32.118 292.749 32.624 292.749 33.936Z" fill="#FAFAFA"/>
<path d="M361.635 159.314C371.753 153.73 371.753 135.625 361.636 118.874C351.519 102.123 335.115 93.0704 324.998 98.6542C314.88 104.238 314.88 122.344 324.997 139.095C335.114 155.845 351.518 164.898 361.635 159.314Z" fill="#89B1FF"/>
<path opacity="0.2" d="M361.635 159.314C371.753 153.73 371.753 135.625 361.636 118.874C351.519 102.123 335.115 93.0704 324.998 98.6542C314.88 104.238 314.88 122.344 324.997 139.095C335.114 155.845 351.518 164.898 361.635 159.314Z" fill="black"/>
<path d="M360.117 160.161C370.235 154.577 370.235 136.471 360.118 119.721C350.001 102.97 333.597 93.9173 323.48 99.5012C313.362 105.085 313.362 123.191 323.479 139.942C333.596 156.692 350 165.745 360.117 160.161Z" fill="#89B1FF"/>
<path d="M332.132 110.412C331.888 110.279 331.611 110.208 331.33 110.209C331.049 110.21 330.773 110.281 330.529 110.415C330.286 110.55 330.084 110.743 329.943 110.976C329.802 111.209 329.728 111.473 329.727 111.741V135.324C329.727 135.909 329.889 136.483 330.196 136.989C330.504 137.495 330.945 137.915 331.477 138.205L351.464 149.242C351.71 149.388 351.994 149.468 352.284 149.472C352.574 149.477 352.86 149.405 353.111 149.266C353.362 149.127 353.568 148.925 353.708 148.682C353.848 148.439 353.916 148.164 353.904 147.887V130.384L348.522 119.416L332.132 110.412Z" fill="#89B1FF"/>
<path opacity="0.6" d="M332.132 110.412C331.888 110.279 331.611 110.208 331.33 110.209C331.049 110.21 330.773 110.281 330.529 110.415C330.286 110.55 330.084 110.743 329.943 110.976C329.802 111.209 329.728 111.473 329.727 111.741V135.324C329.727 135.909 329.889 136.483 330.196 136.989C330.504 137.495 330.945 137.915 331.477 138.205L351.464 149.242C351.71 149.388 351.994 149.468 352.284 149.472C352.574 149.477 352.86 149.405 353.111 149.266C353.362 149.127 353.568 148.925 353.708 148.682C353.848 148.439 353.916 148.164 353.904 147.887V130.384L348.522 119.416L332.132 110.412Z" fill="white"/>
<path d="M347.741 123.43L348.441 119.416L353.824 130.393L348.934 126.542C348.468 126.169 348.112 125.685 347.902 125.139C347.693 124.592 347.637 124.003 347.741 123.43Z" fill="#89B1FF"/>
<path opacity="0.4" d="M347.741 123.43L348.441 119.416L353.824 130.393L348.934 126.542C348.468 126.169 348.112 125.685 347.902 125.139C347.693 124.592 347.637 124.003 347.741 123.43Z" fill="white"/>
<path d="M349.688 132.639C349.59 132.637 349.494 132.611 349.41 132.561L333.63 123.875C333.505 123.803 333.414 123.688 333.377 123.553C333.34 123.418 333.36 123.275 333.433 123.154C333.506 123.035 333.625 122.949 333.764 122.913C333.904 122.878 334.052 122.897 334.177 122.966L349.966 131.67C350.091 131.741 350.182 131.857 350.219 131.991C350.256 132.126 350.236 132.269 350.164 132.39C350.114 132.468 350.044 132.532 349.961 132.576C349.877 132.619 349.783 132.641 349.688 132.639Z" fill="#FAFAFA"/>
<path d="M349.688 137.751C349.591 137.748 349.496 137.725 349.41 137.682L333.63 128.969C333.505 128.898 333.414 128.782 333.377 128.648C333.34 128.513 333.36 128.37 333.433 128.249C333.506 128.13 333.625 128.044 333.764 128.008C333.904 127.973 334.052 127.992 334.177 128.06L349.966 136.739C350.091 136.81 350.182 136.926 350.219 137.06C350.256 137.195 350.236 137.338 350.164 137.459C350.12 137.545 350.053 137.618 349.969 137.669C349.885 137.721 349.788 137.749 349.688 137.751Z" fill="#FAFAFA"/>
<path d="M349.688 142.86C349.591 142.858 349.496 142.835 349.41 142.792L333.63 134.079C333.505 134.008 333.414 133.892 333.377 133.758C333.34 133.623 333.36 133.48 333.433 133.359C333.506 133.24 333.625 133.153 333.764 133.118C333.904 133.083 334.052 133.101 334.177 133.17L349.966 141.883C350.072 141.94 350.154 142.029 350.201 142.137C350.247 142.244 350.255 142.363 350.223 142.475C350.192 142.587 350.122 142.685 350.025 142.755C349.928 142.825 349.809 142.862 349.688 142.86Z" fill="#FAFAFA"/>
<path d="M267.903 108.384C278.067 102.8 278.105 84.6323 267.987 67.8047C257.87 50.9771 241.429 41.8622 231.265 47.446C221.101 53.0298 221.063 71.1979 231.18 88.0255C241.297 104.853 257.739 113.968 267.903 108.384Z" fill="#89B1FF"/>
<path opacity="0.2" d="M267.903 108.384C278.067 102.8 278.105 84.6323 267.987 67.8047C257.87 50.9771 241.429 41.8622 231.265 47.446C221.101 53.0298 221.063 71.1979 231.18 88.0255C241.297 104.853 257.739 113.968 267.903 108.384Z" fill="black"/>
<path d="M265.305 108.73C275.423 103.147 275.423 85.0408 265.306 68.29C255.189 51.5392 238.785 42.4867 228.668 48.0705C218.55 53.6543 218.55 71.7601 228.667 88.5108C238.784 105.262 255.188 114.314 265.305 108.73Z" fill="#89B1FF"/>
<path d="M236.662 86.786L256.65 97.814C256.893 97.95 257.169 98.0223 257.45 98.0234C257.732 98.0246 258.009 97.9546 258.253 97.8205C258.497 97.6864 258.699 97.4931 258.84 97.26C258.981 97.0269 259.055 96.7625 259.054 96.4934V72.911C259.054 72.3248 258.892 71.7491 258.585 71.2417C258.278 70.7344 257.836 70.3134 257.305 70.0211L237.281 58.9931C237.039 58.8592 236.763 58.7886 236.483 58.7886C236.203 58.7885 235.928 58.8589 235.685 58.9927C235.442 59.1266 235.241 59.3191 235.1 59.5509C234.96 59.7828 234.886 60.0459 234.886 60.3137V83.8961C234.89 84.4846 235.056 85.0617 235.368 85.5691C235.68 86.0765 236.126 86.4963 236.662 86.786Z" fill="#89B1FF"/>
<path opacity="0.6" d="M236.662 86.786L256.65 97.814C256.893 97.95 257.169 98.0223 257.45 98.0234C257.732 98.0246 258.009 97.9546 258.253 97.8205C258.497 97.6864 258.699 97.4931 258.84 97.26C258.981 97.0269 259.055 96.7625 259.054 96.4934V72.911C259.054 72.3248 258.892 71.7491 258.585 71.2417C258.278 70.7344 257.836 70.3134 257.305 70.0211L237.281 58.9931C237.039 58.8592 236.763 58.7886 236.483 58.7886C236.203 58.7885 235.928 58.8589 235.685 58.9927C235.442 59.1266 235.241 59.3191 235.1 59.5509C234.96 59.7828 234.886 60.0459 234.886 60.3137V83.8961C234.89 84.4846 235.056 85.0617 235.368 85.5691C235.68 86.0765 236.126 86.4963 236.662 86.786Z" fill="white"/>
<path d="M242.108 74.4037V82.4045C242.108 82.7207 242.239 83.0239 242.473 83.2474C242.707 83.4709 243.024 83.5965 243.355 83.5965H250.612C250.851 83.5964 251.085 83.5306 251.286 83.4071C251.487 83.2835 251.647 83.1074 251.746 82.8996C251.845 82.6918 251.88 82.4611 251.846 82.235C251.812 82.0089 251.711 81.7969 251.554 81.6242L244.297 73.6233C244.13 73.4398 243.909 73.3094 243.663 73.2494C243.416 73.1893 243.157 73.2027 242.919 73.2875C242.681 73.3724 242.475 73.5248 242.331 73.7243C242.186 73.9237 242.108 74.1608 242.108 74.4037Z" fill="#FAFAFA"/>
<path d="M298.419 75.4403C298.25 75.4403 298.088 75.3761 297.968 75.2619C297.849 75.1478 297.782 74.9929 297.782 74.8314V73.2107C297.782 73.0492 297.849 72.8943 297.968 72.7801C298.088 72.666 298.25 72.6018 298.419 72.6018C298.502 72.6018 298.584 72.6176 298.661 72.6483C298.738 72.679 298.808 72.724 298.866 72.7806C298.924 72.8373 298.97 72.9045 299.002 72.9783C299.033 73.0521 299.048 73.1311 299.047 73.2107V74.8314C299.048 74.911 299.033 74.9899 299.002 75.0638C298.97 75.1376 298.924 75.2048 298.866 75.2614C298.808 75.3181 298.738 75.3631 298.661 75.3938C298.584 75.4245 298.502 75.4403 298.419 75.4403Z" fill="#89B1FF"/>
<path d="M298.419 166.152C298.25 166.152 298.088 166.087 297.968 165.973C297.849 165.859 297.782 165.704 297.782 165.543V162.301C297.782 162.14 297.849 161.985 297.968 161.871C298.088 161.756 298.25 161.692 298.419 161.692C298.502 161.692 298.584 161.708 298.661 161.739C298.738 161.769 298.808 161.814 298.866 161.871C298.924 161.928 298.97 161.995 299.002 162.069C299.033 162.143 299.048 162.222 299.047 162.301V165.543C299.048 165.622 299.033 165.701 299.002 165.775C298.97 165.849 298.924 165.916 298.866 165.973C298.808 166.029 298.738 166.074 298.661 166.105C298.584 166.136 298.502 166.152 298.419 166.152ZM298.419 159.669C298.25 159.669 298.088 159.604 297.968 159.49C297.849 159.376 297.782 159.221 297.782 159.06V155.827C297.782 155.665 297.849 155.51 297.968 155.396C298.088 155.282 298.25 155.218 298.419 155.218C298.502 155.218 298.584 155.234 298.661 155.264C298.738 155.295 298.808 155.34 298.866 155.397C298.924 155.453 298.97 155.521 299.002 155.594C299.033 155.668 299.048 155.747 299.047 155.827V159.034C299.052 159.116 299.039 159.197 299.01 159.274C298.98 159.351 298.935 159.421 298.876 159.481C298.817 159.54 298.746 159.587 298.668 159.62C298.589 159.652 298.504 159.669 298.419 159.669ZM298.419 153.194C298.25 153.194 298.088 153.13 297.968 153.016C297.849 152.902 297.782 152.747 297.782 152.585V149.344C297.782 149.182 297.849 149.027 297.968 148.913C298.088 148.799 298.25 148.735 298.419 148.735C298.502 148.735 298.584 148.751 298.661 148.781C298.738 148.812 298.808 148.857 298.866 148.914C298.924 148.97 298.97 149.038 299.002 149.111C299.033 149.185 299.048 149.264 299.047 149.344V152.585C299.048 152.665 299.033 152.744 299.002 152.818C298.97 152.891 298.924 152.959 298.866 153.015C298.808 153.072 298.738 153.117 298.661 153.148C298.584 153.178 298.502 153.194 298.419 153.194ZM298.419 146.711C298.25 146.711 298.088 146.647 297.968 146.533C297.849 146.419 297.782 146.264 297.782 146.102V142.861C297.782 142.781 297.798 142.702 297.83 142.629C297.863 142.556 297.91 142.489 297.969 142.433C298.028 142.377 298.098 142.333 298.176 142.304C298.253 142.274 298.336 142.259 298.419 142.26C298.585 142.26 298.745 142.324 298.863 142.436C298.981 142.549 299.047 142.701 299.047 142.861V146.102C299.048 146.182 299.033 146.261 299.002 146.335C298.97 146.408 298.924 146.476 298.866 146.532C298.808 146.589 298.738 146.634 298.661 146.665C298.584 146.695 298.502 146.711 298.419 146.711ZM298.419 140.237C298.25 140.237 298.088 140.172 297.968 140.058C297.849 139.944 297.782 139.789 297.782 139.628V136.386C297.782 136.225 297.849 136.07 297.968 135.956C298.088 135.842 298.25 135.777 298.419 135.777C298.502 135.777 298.584 135.793 298.661 135.824C298.738 135.855 298.808 135.9 298.866 135.956C298.924 136.013 298.97 136.08 299.002 136.154C299.033 136.228 299.048 136.307 299.047 136.386V139.628C299.048 139.707 299.033 139.786 299.002 139.86C298.97 139.934 298.924 140.001 298.866 140.058C298.808 140.114 298.738 140.159 298.661 140.19C298.584 140.221 298.502 140.237 298.419 140.237ZM298.419 133.754C298.25 133.754 298.088 133.689 297.968 133.575C297.849 133.461 297.782 133.306 297.782 133.145V129.878C297.782 129.716 297.849 129.561 297.968 129.447C298.088 129.333 298.25 129.269 298.419 129.269C298.502 129.269 298.584 129.284 298.661 129.315C298.738 129.346 298.808 129.391 298.866 129.448C298.924 129.504 298.97 129.571 299.002 129.645C299.033 129.719 299.048 129.798 299.047 129.878V133.119C299.052 133.201 299.039 133.282 299.01 133.359C298.98 133.436 298.935 133.506 298.876 133.566C298.817 133.625 298.746 133.673 298.668 133.705C298.589 133.737 298.504 133.754 298.419 133.754ZM298.419 127.271C298.336 127.272 298.253 127.257 298.176 127.227C298.098 127.198 298.028 127.154 297.969 127.098C297.91 127.042 297.863 126.975 297.83 126.902C297.798 126.829 297.782 126.75 297.782 126.67V123.429C297.782 123.267 297.849 123.112 297.968 122.998C298.088 122.884 298.25 122.82 298.419 122.82C298.502 122.82 298.584 122.836 298.661 122.866C298.738 122.897 298.808 122.942 298.866 122.999C298.924 123.055 298.97 123.123 299.002 123.196C299.033 123.27 299.048 123.349 299.047 123.429V126.67C299.052 126.752 299.039 126.834 299.01 126.911C298.98 126.987 298.935 127.058 298.876 127.117C298.817 127.177 298.746 127.224 298.668 127.256C298.589 127.288 298.504 127.305 298.419 127.305V127.271ZM298.419 120.796C298.25 120.796 298.088 120.732 297.968 120.618C297.849 120.504 297.782 120.349 297.782 120.187V116.946C297.782 116.784 297.849 116.629 297.968 116.515C298.088 116.401 298.25 116.337 298.419 116.337C298.502 116.337 298.584 116.353 298.661 116.383C298.738 116.414 298.808 116.459 298.866 116.516C298.924 116.572 298.97 116.64 299.002 116.713C299.033 116.787 299.048 116.866 299.047 116.946V120.187C299.048 120.267 299.033 120.346 299.002 120.42C298.97 120.493 298.924 120.561 298.866 120.617C298.808 120.674 298.738 120.719 298.661 120.75C298.584 120.78 298.502 120.796 298.419 120.796ZM298.419 114.313C298.335 114.313 298.252 114.297 298.175 114.267C298.098 114.236 298.027 114.191 297.968 114.135C297.909 114.078 297.862 114.011 297.83 113.937C297.798 113.863 297.782 113.784 297.782 113.704V110.471C297.782 110.31 297.849 110.155 297.968 110.041C298.088 109.927 298.25 109.863 298.419 109.863C298.502 109.863 298.584 109.878 298.661 109.909C298.738 109.94 298.808 109.985 298.866 110.041C298.924 110.098 298.97 110.165 299.002 110.239C299.033 110.313 299.048 110.392 299.047 110.471V113.704C299.048 113.784 299.033 113.863 299.002 113.937C298.97 114.01 298.924 114.078 298.866 114.134C298.808 114.191 298.738 114.236 298.661 114.267C298.584 114.297 298.502 114.313 298.419 114.313ZM298.419 107.839C298.25 107.839 298.088 107.775 297.968 107.66C297.849 107.546 297.782 107.391 297.782 107.23V103.988C297.782 103.827 297.849 103.672 297.968 103.558C298.088 103.444 298.25 103.38 298.419 103.38C298.502 103.379 298.584 103.395 298.661 103.426C298.738 103.457 298.808 103.502 298.866 103.558C298.924 103.615 298.97 103.682 299.002 103.756C299.033 103.83 299.048 103.909 299.047 103.988V107.23C299.048 107.309 299.033 107.388 299.002 107.462C298.97 107.536 298.924 107.603 298.866 107.66C298.808 107.717 298.738 107.762 298.661 107.792C298.584 107.823 298.502 107.839 298.419 107.839ZM298.419 101.356C298.25 101.356 298.088 101.292 297.968 101.177C297.849 101.063 297.782 100.908 297.782 100.747V97.5053C297.782 97.4258 297.798 97.347 297.83 97.2736C297.863 97.2002 297.91 97.1337 297.969 97.0778C298.028 97.022 298.098 96.9779 298.176 96.9483C298.253 96.9186 298.336 96.9039 298.419 96.9051C298.585 96.9051 298.745 96.9683 298.863 97.0809C298.981 97.1935 299.047 97.3461 299.047 97.5053V100.721C299.052 100.803 299.039 100.885 299.01 100.961C298.98 101.038 298.935 101.109 298.876 101.168C298.817 101.227 298.746 101.275 298.668 101.307C298.589 101.339 298.504 101.356 298.419 101.356ZM298.419 94.8813C298.25 94.8813 298.088 94.8171 297.968 94.7029C297.849 94.5888 297.782 94.4339 297.782 94.2724V91.0309C297.782 90.8694 297.849 90.7146 297.968 90.6004C298.088 90.4862 298.25 90.422 298.419 90.422C298.502 90.422 298.584 90.4378 298.661 90.4686C298.738 90.4993 298.808 90.5442 298.866 90.6009C298.924 90.6575 298.97 90.7247 299.002 90.7985C299.033 90.8724 299.048 90.9514 299.047 91.0309V94.2724C299.048 94.352 299.033 94.4309 299.002 94.5048C298.97 94.5786 298.924 94.6458 298.866 94.7024C298.808 94.7591 298.738 94.8041 298.661 94.8348C298.584 94.8655 298.502 94.8813 298.419 94.8813ZM298.419 88.3982C298.25 88.3982 298.088 88.3341 297.968 88.2199C297.849 88.1057 297.782 87.9509 297.782 87.7894V84.5479C297.782 84.3864 297.849 84.2315 297.968 84.1174C298.088 84.0032 298.25 83.939 298.419 83.939C298.502 83.939 298.584 83.9548 298.661 83.9855C298.738 84.0162 298.808 84.0612 298.866 84.1179C298.924 84.1745 298.97 84.2417 299.002 84.3155C299.033 84.3894 299.048 84.4683 299.047 84.5479V87.7894C299.048 87.8689 299.033 87.9479 299.002 88.0217C298.97 88.0956 298.924 88.1628 298.866 88.2194C298.808 88.2761 298.738 88.321 298.661 88.3518C298.584 88.3825 298.502 88.3983 298.419 88.3982ZM298.419 81.9152C298.336 81.9164 298.253 81.9017 298.176 81.872C298.098 81.8424 298.028 81.7983 297.969 81.7425C297.91 81.6866 297.863 81.6201 297.83 81.5467C297.798 81.4733 297.782 81.3945 297.782 81.315V78.0735C297.782 77.912 297.849 77.7571 297.968 77.6429C298.088 77.5287 298.25 77.4646 298.419 77.4646C298.502 77.4646 298.584 77.4804 298.661 77.5111C298.738 77.5418 298.808 77.5868 298.866 77.6434C298.924 77.7001 298.97 77.7673 299.002 77.8411C299.033 77.9149 299.048 77.9939 299.047 78.0735V81.315C299.047 81.3938 299.03 81.4718 298.999 81.5447C298.967 81.6175 298.921 81.6837 298.863 81.7394C298.804 81.7952 298.735 81.8394 298.659 81.8695C298.583 81.8997 298.501 81.9152 298.419 81.9152Z" fill="#89B1FF"/>
<path d="M298.419 171.04C298.336 171.041 298.253 171.026 298.176 170.997C298.098 170.967 298.028 170.923 297.969 170.867C297.91 170.811 297.863 170.745 297.83 170.671C297.798 170.598 297.782 170.519 297.782 170.44V168.819C297.782 168.657 297.849 168.502 297.968 168.388C298.088 168.274 298.25 168.21 298.419 168.21C298.502 168.21 298.584 168.226 298.661 168.256C298.738 168.287 298.808 168.332 298.866 168.389C298.924 168.445 298.97 168.513 299.002 168.586C299.033 168.66 299.048 168.739 299.047 168.819V170.44C299.047 170.599 298.981 170.751 298.863 170.864C298.745 170.977 298.585 171.04 298.419 171.04Z" fill="#89B1FF"/>
<path d="M314.432 131.155C314.314 131.157 314.199 131.126 314.098 131.067C313.998 131.008 313.918 130.922 313.867 130.821C313.829 130.75 313.806 130.672 313.8 130.592C313.793 130.512 313.804 130.432 313.831 130.356C313.857 130.28 313.9 130.21 313.955 130.15C314.011 130.09 314.078 130.041 314.154 130.006L315.67 129.286C315.744 129.25 315.825 129.229 315.908 129.224C315.991 129.218 316.074 129.228 316.152 129.253C316.231 129.278 316.304 129.318 316.367 129.37C316.429 129.422 316.481 129.485 316.518 129.556C316.555 129.627 316.577 129.704 316.583 129.783C316.589 129.862 316.578 129.942 316.552 130.017C316.526 130.092 316.484 130.162 316.43 130.222C316.376 130.282 316.309 130.331 316.235 130.366L314.719 131.095C314.63 131.136 314.531 131.157 314.432 131.155Z" fill="#89B1FF"/>
<path d="M306.968 134.706C306.85 134.707 306.735 134.676 306.634 134.617C306.534 134.558 306.454 134.472 306.403 134.371C306.357 134.298 306.328 134.216 306.318 134.132C306.308 134.047 306.317 133.962 306.344 133.88C306.371 133.799 306.416 133.725 306.476 133.661C306.535 133.598 306.608 133.548 306.69 133.514L310.422 131.738C310.499 131.696 310.584 131.67 310.672 131.661C310.76 131.652 310.849 131.66 310.934 131.686C311.018 131.712 311.096 131.754 311.162 131.811C311.229 131.867 311.282 131.936 311.319 132.013C311.363 132.086 311.391 132.168 311.4 132.252C311.41 132.336 311.401 132.422 311.374 132.502C311.347 132.583 311.302 132.657 311.243 132.721C311.185 132.784 311.113 132.835 311.032 132.87L307.255 134.646C307.166 134.687 307.067 134.707 306.968 134.706Z" fill="#89B1FF"/>
<path d="M301.72 137.201C301.602 137.202 301.487 137.172 301.386 137.113C301.286 137.053 301.206 136.968 301.155 136.867C301.109 136.794 301.08 136.712 301.07 136.627C301.06 136.543 301.069 136.457 301.096 136.376C301.123 136.295 301.168 136.22 301.228 136.157C301.287 136.094 301.36 136.043 301.442 136.009L302.958 135.289C303.035 135.246 303.12 135.22 303.208 135.211C303.296 135.202 303.386 135.211 303.47 135.236C303.554 135.262 303.632 135.305 303.699 135.361C303.765 135.417 303.818 135.486 303.855 135.563C303.93 135.708 303.941 135.875 303.888 136.027C303.834 136.18 303.719 136.306 303.568 136.378L302.052 137.098C301.953 137.161 301.838 137.197 301.72 137.201Z" fill="#89B1FF"/>
<path d="M278.234 93.2608C278.125 93.2616 278.018 93.2351 277.924 93.1839C277.83 93.1327 277.751 93.0587 277.696 92.9692L276.799 91.58C276.75 91.5117 276.717 91.4345 276.701 91.3533C276.685 91.2721 276.687 91.1887 276.706 91.1082C276.725 91.0277 276.762 90.9519 276.813 90.8855C276.865 90.8192 276.93 90.7636 277.005 90.7224C277.078 90.6788 277.159 90.6495 277.244 90.6363C277.328 90.623 277.415 90.6261 277.499 90.6452C277.582 90.6644 277.661 90.6993 277.73 90.7479C277.799 90.7965 277.858 90.8578 277.902 90.9283L278.799 92.3175C278.859 92.4093 278.892 92.515 278.894 92.6232C278.896 92.7314 278.868 92.8382 278.812 92.9322C278.756 93.0262 278.674 93.104 278.575 93.1573C278.477 93.2106 278.365 93.2375 278.252 93.235L278.234 93.2608Z" fill="#89B1FF"/>
<path d="M292.157 115.222C292.047 115.223 291.939 115.196 291.843 115.145C291.747 115.094 291.667 115.02 291.61 114.93L289.869 112.186C289.821 112.118 289.787 112.041 289.771 111.96C289.754 111.879 289.755 111.796 289.773 111.716C289.791 111.635 289.827 111.559 289.876 111.492C289.926 111.424 289.99 111.367 290.064 111.324C290.137 111.281 290.219 111.253 290.304 111.241C290.39 111.229 290.477 111.234 290.56 111.256C290.643 111.277 290.721 111.314 290.789 111.365C290.857 111.416 290.913 111.479 290.955 111.552L292.695 114.296C292.741 114.365 292.771 114.443 292.785 114.524C292.799 114.605 292.796 114.688 292.776 114.768C292.756 114.848 292.719 114.923 292.668 114.989C292.618 115.055 292.554 115.111 292.48 115.153C292.381 115.204 292.269 115.228 292.157 115.222ZM288.676 109.734C288.566 109.734 288.458 109.708 288.362 109.657C288.267 109.606 288.186 109.532 288.129 109.442L286.388 106.698C286.343 106.628 286.312 106.551 286.298 106.47C286.284 106.389 286.288 106.306 286.308 106.226C286.328 106.146 286.364 106.071 286.415 106.005C286.466 105.939 286.53 105.883 286.604 105.84C286.676 105.796 286.757 105.765 286.842 105.751C286.927 105.738 287.015 105.74 287.098 105.76C287.182 105.779 287.261 105.814 287.33 105.863C287.4 105.913 287.458 105.975 287.501 106.046L289.241 108.79C289.297 108.883 289.327 108.987 289.328 109.094C289.329 109.201 289.301 109.306 289.247 109.399C289.193 109.493 289.114 109.571 289.019 109.626C288.923 109.682 288.815 109.713 288.703 109.717L288.676 109.734ZM285.195 104.245C285.085 104.243 284.977 104.215 284.881 104.162C284.786 104.11 284.705 104.035 284.648 103.945L282.908 101.201C282.84 101.065 282.827 100.909 282.873 100.764C282.918 100.619 283.018 100.496 283.154 100.418C283.289 100.34 283.45 100.313 283.605 100.342C283.76 100.371 283.899 100.454 283.993 100.575L285.725 103.294C285.773 103.362 285.806 103.439 285.822 103.52C285.838 103.601 285.836 103.685 285.817 103.765C285.798 103.846 285.761 103.922 285.71 103.988C285.658 104.054 285.593 104.11 285.518 104.151C285.421 104.208 285.31 104.241 285.195 104.245ZM281.715 98.7486C281.605 98.7483 281.497 98.7215 281.402 98.6705C281.306 98.6195 281.225 98.546 281.167 98.457L279.427 95.7129C279.384 95.6442 279.356 95.5681 279.343 95.4889C279.331 95.4097 279.335 95.329 279.356 95.2513C279.376 95.1737 279.412 95.1006 279.462 95.0364C279.512 94.9721 279.575 94.9179 279.647 94.8768C279.719 94.8357 279.798 94.8085 279.881 94.7968C279.964 94.7851 280.048 94.7892 280.13 94.8087C280.211 94.8282 280.287 94.8628 280.354 94.9105C280.422 94.9583 280.478 95.0182 280.521 95.0869L282.262 97.831C282.322 97.9229 282.354 98.0285 282.357 98.1367C282.359 98.2449 282.33 98.3517 282.274 98.4457C282.218 98.5398 282.137 98.6176 282.038 98.6709C281.94 98.7242 281.828 98.751 281.715 98.7486Z" fill="#89B1FF"/>
<path d="M294.767 119.356C294.658 119.355 294.551 119.327 294.457 119.274C294.362 119.221 294.284 119.146 294.229 119.056L293.332 117.675C293.254 117.538 293.233 117.377 293.275 117.226C293.318 117.075 293.419 116.945 293.559 116.863C293.698 116.782 293.865 116.755 294.025 116.788C294.185 116.821 294.326 116.911 294.418 117.04L295.315 118.43C295.363 118.498 295.396 118.576 295.411 118.658C295.426 118.739 295.424 118.823 295.403 118.903C295.383 118.984 295.346 119.06 295.293 119.126C295.241 119.192 295.175 119.247 295.099 119.287C294.997 119.339 294.883 119.362 294.767 119.356Z" fill="#89B1FF"/>
<path d="M110.449 210.907L70.2048 233.657V254.916L49.1947 266.167V277.598L88.1828 299.216L149.428 266.364V232.525L110.449 210.907Z" fill="#263238"/>
<path d="M49.1948 266.166L88.1829 287.785V299.216L49.1948 277.597V266.166Z" fill="#455A64"/>
<path d="M109.184 255.284V276.543L88.1829 287.785V299.216L149.428 266.364V232.525L109.184 255.284Z" fill="#263238"/>
<path d="M88.1829 287.786L109.184 276.544L70.205 254.917L49.1948 266.167L88.1829 287.786Z" fill="#37474F"/>
<path d="M109.184 276.542V255.284L70.205 233.657V254.915L109.184 276.542Z" fill="#455A64"/>
<path d="M109.184 255.285L70.205 233.657L110.449 210.907L149.428 232.525L109.184 255.285Z" fill="#37474F"/>
<path d="M120.227 155.063C120.227 155.063 110.628 167.927 116.334 172.377C122.04 176.828 134.554 173.235 135.057 171.117C135.559 168.999 120.227 155.063 120.227 155.063Z" fill="#263238"/>
<path d="M77.3461 267.641L63.2437 285.58L67.164 288.539C67.164 288.539 72.8157 287.407 74.8163 280.272C75.9891 276.128 76.8348 271.906 77.3461 267.641Z" fill="#FFA8A7"/>
<path d="M78.6201 266.423C78.6201 266.423 82.5404 269.853 80.809 272.863C79.0776 275.873 76.0723 278.351 75.9826 282.356C75.8929 286.361 73.7937 293.504 69.1467 294.636C64.4997 295.768 59.9514 294.225 60.0411 292.647C60.1308 291.069 63.2438 285.581 63.2438 285.581C63.2438 285.581 67.514 288.11 70.6628 285.666C73.8116 283.222 74.5383 272.958 74.5383 272.958L78.6201 266.423Z" fill="#89B1FF"/>
<path opacity="0.2" d="M78.6201 266.423C78.6201 266.423 82.5404 269.853 80.809 272.863C79.0776 275.873 76.0723 278.351 75.9826 282.356C75.8929 286.361 73.7937 293.504 69.1467 294.636C64.4997 295.768 59.9514 294.225 60.0411 292.647C60.1308 291.069 63.2438 285.581 63.2438 285.581C63.2438 285.581 67.514 288.11 70.6628 285.666C73.8116 283.222 74.5383 272.958 74.5383 272.958L78.6201 266.423Z" fill="black"/>
<path d="M102.716 210.888C102.716 210.888 71.2636 223.606 68.7158 224.858C66.1681 226.11 61.7005 228.288 62.1491 238.09C62.5976 247.891 65.1723 272.168 65.1723 272.168L82.4146 240.439L126.938 220.21L102.716 210.888Z" fill="#89B1FF"/>
<path opacity="0.5" d="M102.716 210.888C102.716 210.888 71.2636 223.606 68.7158 224.858C66.1681 226.11 61.7005 228.288 62.1491 238.09C62.5976 247.891 65.1723 272.168 65.1723 272.168L82.4146 240.439L126.938 220.21L102.716 210.888Z" fill="black"/>
<path d="M63.8894 259.605C64.5533 266.534 65.1543 272.168 65.1543 272.168L82.3966 240.439L114.145 225.99L106.968 220.596C96.822 225.467 82.0826 232.533 77.6779 234.694C72.0799 237.438 70.3485 245.199 65.5221 255.978C64.9749 257.161 64.4366 258.362 63.8894 259.605Z" fill="#89B1FF"/>
<path opacity="0.7" d="M63.8894 259.605C64.5533 266.534 65.1543 272.168 65.1543 272.168L82.3966 240.439L114.145 225.99L106.968 220.596C96.822 225.467 82.0826 232.533 77.6779 234.694C72.0799 237.438 70.3485 245.199 65.5221 255.978C64.9749 257.161 64.4366 258.362 63.8894 259.605Z" fill="black"/>
<path d="M105.309 217.372L108.556 222.063L106.018 222.432L105.309 217.372Z" fill="#89B1FF"/>
<path opacity="0.7" d="M105.309 217.372L108.556 222.063L106.018 222.432L105.309 217.372Z" fill="black"/>
<path d="M63.4142 292.647C63.4142 292.647 63.8628 293.368 63.8628 296.995C63.8628 300.622 62.3467 301.386 60.4717 301.994C58.5968 302.603 53.0258 306.505 51.5007 308.203C49.9756 309.901 43.8215 311.633 37.7392 310.621C31.6568 309.609 30.3739 305.768 33.2985 303.306C36.2231 300.845 44.5571 296.36 44.5571 296.36L63.4142 292.647Z" fill="#89B1FF"/>
<path d="M136.241 218.401L122.712 215.408C122.712 215.408 85.1328 233.417 79.5348 236.161C73.9369 238.905 72.2145 246.674 67.3701 257.454C63.7817 265.566 59.0002 276.697 55.8693 283.386C55.8693 283.386 58.0941 289.028 65.1453 287.613C67.5316 282.631 71.748 278.18 77.8842 270.257C81.8215 265.362 84.6173 259.719 86.0837 253.706C86.3171 252.636 86.8619 251.65 87.6554 250.863C88.449 250.076 89.459 249.518 90.5692 249.256C96.7682 247.815 109.408 244.685 122.757 240.294C141.569 234.103 136.241 218.401 136.241 218.401Z" fill="#89B1FF"/>
<path opacity="0.5" d="M136.241 218.401L122.712 215.408C122.712 215.408 85.1328 233.417 79.5348 236.161C73.9369 238.905 72.2145 246.674 67.3701 257.454C63.7817 265.566 59.0002 276.697 55.8693 283.386C55.8693 283.386 58.0941 289.028 65.1453 287.613C67.5316 282.631 71.748 278.18 77.8842 270.257C81.8215 265.362 84.6173 259.719 86.0837 253.706C86.3171 252.636 86.8619 251.65 87.6554 250.863C88.449 250.076 89.459 249.518 90.5692 249.256C96.7682 247.815 109.408 244.685 122.757 240.294C141.569 234.103 136.241 218.401 136.241 218.401Z" fill="black"/>
<path d="M55.8695 283.377C54.8378 285.581 53.9856 287.305 53.4025 288.274C51.0431 292.193 44.1623 296.438 41.7401 298.444C39.318 300.451 38.8066 301.205 41.1211 302.903C46.9792 307.191 52.0568 302.509 55.3402 299.473C57.5326 297.549 59.9393 295.861 62.517 294.439C62.7023 294.342 62.8633 294.207 62.9887 294.044C63.1142 293.881 63.2012 293.694 63.2437 293.496C63.6073 291.463 64.2498 289.486 65.1545 287.613C58.0943 289.028 55.8695 283.377 55.8695 283.377Z" fill="#FFA8A7"/>
<path d="M121.896 230.681L98.2397 243.733L58.9017 221.994L82.5583 208.668L121.896 230.681Z" fill="#37474F"/>
<path d="M100.778 226.959L91.906 222.063L97.468 218.993L106.349 223.889L100.778 226.959Z" fill="#263238"/>
<path d="M97.2258 240.474L109.184 233.742L85.8236 220.228L97.2258 240.474Z" fill="#263238"/>
<path d="M97.9257 200.126L88.4613 204.414C85.6342 205.098 82.8464 205.922 80.1092 206.884C80.1092 206.884 73.5245 209.457 73.2195 211.172C72.9145 212.887 78.1625 216.926 82.7647 214.945C83.9779 214.336 85.2728 213.888 86.6132 213.616C89.4114 213.361 92.056 212.276 94.1758 210.511L101.828 208.505C101.828 208.505 105.775 201.181 97.9257 200.126Z" fill="#FFA8A7"/>
<path d="M91.7985 212.749C90.704 213.873 87.5821 216.703 86.9003 217.517C86.2185 218.332 84.6037 216.231 87.4296 213.101C89.8718 212.243 92.1689 211.047 94.2476 209.551C93.5188 210.676 92.7 211.745 91.7985 212.749Z" fill="#FFA8A7"/>
<path d="M117.294 168.672C115.119 168.34 112.892 168.757 111.009 169.849C109.127 170.94 107.71 172.635 107.013 174.632C106.01 177.514 105.362 180.499 105.084 183.525C104.268 192.838 104.044 197.494 104.044 197.494L94.2473 201.782C94.2473 201.782 99.5402 202.022 99.1814 209.157L111.373 206.198L117.294 168.672Z" fill="#89B1FF"/>
<path opacity="0.3" d="M117.294 168.672C115.119 168.34 112.892 168.757 111.009 169.849C109.127 170.94 107.71 172.635 107.013 174.632C106.01 177.514 105.362 180.499 105.084 183.525C104.268 192.838 104.044 197.494 104.044 197.494L94.2473 201.782C94.2473 201.782 99.4954 202.022 99.1814 209.157L111.373 206.198L117.294 168.672Z" fill="white"/>
<path d="M104.044 197.495C105.144 197.822 106.138 198.413 106.932 199.21C106.932 199.21 105.748 197.066 104.098 196.406L104.044 197.495Z" fill="#89B1FF"/>
<path opacity="0.1" d="M104.044 197.495C105.144 197.822 106.138 198.413 106.932 199.21C106.932 199.21 105.748 197.066 104.098 196.406L104.044 197.495Z" fill="white"/>
<path d="M113.006 147.525C113.006 147.525 106.959 145.81 109.139 139.284C111.319 132.758 126.74 129.963 138.349 139.284C138.349 139.284 146.495 138.084 146.495 148.957C146.495 159.831 141.937 164.796 148.953 167.626C148.953 167.626 144.674 171.502 141.211 167.626C141.211 167.626 140.484 176.116 127.359 173.157L113.006 147.525Z" fill="#263238"/>
<path d="M132.742 172.378L139.614 175.173V194.434C137.463 199.362 136.297 204.633 136.178 209.972V219.508C136.178 219.508 122.129 224.293 111.239 219.114C105.964 216.61 102.698 210.89 102.698 210.89C102.698 210.89 108.502 207.623 108.502 203.635C108.39 200.519 108.002 197.418 107.345 194.365C106.075 193.158 105.112 191.689 104.532 190.069C103.951 188.45 103.769 186.724 103.999 185.026C104.77 178.663 117.294 168.673 117.294 168.673L121.959 169.282L132.742 172.378Z" fill="#89B1FF"/>
<path d="M132.742 172.377L121.959 169.282V156.804H132.742V172.377Z" fill="#FFA8A7"/>
<path d="M121.959 169.323C124.155 168.539 126.163 167.336 127.859 165.788C129.555 164.241 130.905 162.38 131.827 160.319V156.889H121.959V169.323Z" fill="#F28F8F"/>
<path d="M119.447 139.902C119.447 139.902 109.579 140.451 110.799 156.581C111.364 164.033 113.185 167.892 119.196 167.609C125.996 167.292 135.658 162.824 135.03 150.064C134.402 137.304 119.447 139.902 119.447 139.902Z" fill="#FFA8A7"/>
<path d="M132.742 156.803C132.742 156.803 130.051 157.489 130.051 153.785C130.051 153.785 118.029 153.004 115.374 141.599C115.374 141.599 116.558 138.169 124.067 138.169C131.576 138.169 137.873 144.506 135.918 153.227L132.742 156.803Z" fill="#263238"/>
<path d="M118.03 153.339V158.888L114.63 157.893L118.03 153.339Z" fill="#F28F8F"/>
<path d="M123.134 153.931C123.134 154.155 123.064 154.374 122.934 154.561C122.803 154.747 122.618 154.892 122.401 154.977C122.184 155.063 121.946 155.085 121.716 155.04C121.486 154.996 121.275 154.887 121.109 154.728C120.944 154.569 120.832 154.366 120.787 154.146C120.743 153.926 120.767 153.698 120.858 153.492C120.949 153.285 121.103 153.109 121.299 152.985C121.494 152.862 121.724 152.797 121.959 152.799C122.114 152.799 122.268 152.828 122.411 152.885C122.554 152.942 122.684 153.026 122.793 153.131C122.902 153.236 122.989 153.361 123.047 153.498C123.106 153.636 123.135 153.783 123.134 153.931Z" fill="#263238"/>
<path d="M115.365 153.142C115.367 153.367 115.299 153.587 115.169 153.774C115.04 153.962 114.855 154.108 114.638 154.195C114.422 154.281 114.183 154.305 113.952 154.261C113.722 154.218 113.51 154.11 113.344 153.951C113.178 153.792 113.065 153.59 113.019 153.369C112.974 153.149 112.998 152.921 113.089 152.713C113.179 152.506 113.333 152.329 113.529 152.206C113.725 152.082 113.955 152.017 114.19 152.019C114.501 152.021 114.798 152.14 115.018 152.35C115.238 152.56 115.363 152.845 115.365 153.142Z" fill="#263238"/>
<path d="M112.746 150.792L115.06 149.48C115.06 149.48 114.163 148.623 113.266 149.129C113.015 149.324 112.831 149.587 112.738 149.884C112.645 150.18 112.648 150.497 112.746 150.792Z" fill="#263238"/>
<path d="M118.326 160.748C119.673 160.84 121.013 160.496 122.129 159.77C122.129 159.77 122.39 161.691 120.712 162.051C120.218 162.132 119.71 162.046 119.274 161.809C118.839 161.571 118.504 161.196 118.326 160.748Z" fill="#F28F8F"/>
<path d="M131.791 157.224C131.75 156.286 131.931 155.351 132.32 154.489C132.509 153.951 132.858 153.478 133.326 153.129C133.793 152.78 134.357 152.569 134.949 152.525C137.972 152.448 138.385 155.235 138.34 156.229C138.232 158.802 136.025 161.649 131.917 161.76L131.791 157.224Z" fill="#FFA8A7"/>
<path d="M121.959 169.324L118.774 173.277C118.416 173.722 118.165 174.237 118.037 174.784C117.909 175.332 117.908 175.9 118.033 176.448C118.159 176.996 118.408 177.511 118.764 177.957C119.12 178.404 119.573 178.77 120.093 179.032C121.505 179.738 123.13 179.953 124.689 179.64C126.249 179.327 127.646 178.506 128.642 177.317L132.742 172.42L121.959 169.324Z" fill="#FFA8A7"/>
<path d="M121.896 216.832L112.925 221.523C111.545 221.425 110.16 221.425 108.78 221.523C107.184 221.711 102.949 222.449 101.855 222.492C100.76 222.535 101.81 224.49 104.681 224.318C104.681 224.318 98.2126 227.148 97.9793 228.846C97.7461 230.544 103.165 234.403 107.686 232.276C108.867 231.619 110.138 231.122 111.463 230.801C114.251 230.423 116.848 229.225 118.891 227.371L126.453 225.056C126.453 225.056 129.773 217.57 121.896 216.832Z" fill="#FFA8A7"/>
<path d="M139.614 175.173C139.614 175.173 134.115 178.757 135.057 189.905C135.604 196.65 135.604 203.425 135.057 210.169L121.887 216.832C123.3 217.73 124.452 218.955 125.236 220.393C126.02 221.831 126.411 223.435 126.373 225.056C126.373 225.056 145.284 221.334 146.414 217.124C147.544 212.913 147.957 192.77 147.957 189.271C147.957 185.772 146.486 177.968 139.614 175.173Z" fill="#89B1FF"/>
<path opacity="0.3" d="M139.614 175.173C139.614 175.173 134.115 178.757 135.057 189.905C135.604 196.65 135.604 203.425 135.057 210.169L121.887 216.832C123.3 217.73 124.452 218.955 125.236 220.393C126.02 221.831 126.411 223.435 126.373 225.056C126.373 225.056 145.284 221.334 146.414 217.124C147.544 212.913 147.957 192.77 147.957 189.271C147.957 185.772 146.486 177.968 139.614 175.173Z" fill="white"/>
<path d="M135.065 210.169C136.514 210.14 137.955 210.39 139.3 210.906C138.09 210.007 136.66 209.417 135.146 209.191L135.065 210.169Z" fill="#89B1FF"/>
<path opacity="0.1" d="M135.065 210.169C136.514 210.14 137.955 210.39 139.3 210.906C138.09 210.007 136.66 209.417 135.146 209.191L135.065 210.169Z" fill="white"/>
<path d="M53.4203 197.074L57.529 222.8C57.5248 222.814 57.5248 222.829 57.529 222.843L98.392 245.5C98.4021 245.504 98.4132 245.506 98.4244 245.505C98.4355 245.504 98.4461 245.501 98.4553 245.495C98.4644 245.488 98.4717 245.48 98.4763 245.47C98.481 245.461 98.4829 245.45 98.4818 245.439L94.4897 220.476C94.4044 219.949 94.1997 219.445 93.8898 219.001C93.5799 218.556 93.1723 218.182 92.6954 217.904L55.2325 195.908C55.0367 195.79 54.8092 195.728 54.5775 195.731C54.3459 195.734 54.1203 195.802 53.9282 195.926C53.736 196.049 53.5857 196.224 53.4955 196.428C53.4053 196.632 53.3792 196.856 53.4203 197.074Z" fill="#455A64"/>
<path d="M98.4189 245.508L120.236 233.425C120.74 233.146 121.158 232.746 121.449 232.265C121.74 231.783 121.894 231.237 121.896 230.681L98.2305 243.733L98.4189 245.508Z" fill="#263238"/>
<path d="M77.0589 221.874C77.0589 223.718 75.7133 224.447 74.0447 223.538C73.1673 222.991 72.4372 222.254 71.9135 221.387C71.3898 220.52 71.0872 219.547 71.0304 218.547C71.0304 216.712 72.385 215.974 74.0447 216.883C74.9225 217.43 75.653 218.167 76.1768 219.034C76.7005 219.901 77.0028 220.874 77.0589 221.874Z" fill="#37474F"/>
<path opacity="0.2" d="M117.294 195.745C117.294 195.745 125.538 197.888 129.916 191.971C129.916 191.971 127.081 199.612 117.294 195.745Z" fill="black"/>
<path d="M188.767 219.7C194.664 219.7 200.331 220.444 205.767 221.931C211.203 223.418 216.305 225.572 221.074 228.393C225.844 231.213 230.151 234.546 233.997 238.393C237.844 242.239 241.177 246.546 243.997 251.316C246.818 256.085 248.972 261.187 250.459 266.623C251.946 272.059 252.715 277.752 252.767 283.7C252.767 289.598 252.023 295.264 250.536 300.7C249.049 306.136 246.895 311.239 244.074 316.008C241.254 320.777 237.92 325.085 234.074 328.931C230.228 332.777 225.92 336.11 221.151 338.931C216.382 341.752 211.279 343.905 205.844 345.393C200.408 346.88 194.715 347.649 188.767 347.7C182.869 347.7 177.203 346.957 171.767 345.469C166.331 343.982 161.228 341.828 156.459 339.008C151.69 336.187 147.382 332.854 143.536 329.008C139.69 325.162 136.356 320.854 133.536 316.085C130.715 311.316 128.562 306.213 127.074 300.777C125.587 295.341 124.818 289.649 124.767 283.7C124.767 277.803 125.51 272.136 126.997 266.7C128.485 261.264 130.638 256.162 133.459 251.393C136.279 246.623 139.613 242.316 143.459 238.469C147.305 234.623 151.613 231.29 156.382 228.469C161.151 225.649 166.254 223.495 171.69 222.008C177.126 220.521 182.818 219.751 188.767 219.7ZM188.767 337.854C195.126 337.854 201.254 336.803 207.151 334.7C213.049 332.598 218.459 329.469 223.382 325.316L147.151 249.085C143.049 253.957 139.946 259.341 137.844 265.239C135.741 271.136 134.664 277.29 134.613 283.7C134.613 288.675 135.254 293.469 136.536 298.085C137.818 302.7 139.638 307.008 141.997 311.008C144.356 315.008 147.177 318.649 150.459 321.931C153.741 325.213 157.408 328.059 161.459 330.469C165.51 332.88 169.818 334.7 174.382 335.931C178.946 337.162 183.741 337.803 188.767 337.854ZM230.382 318.316C234.485 313.444 237.587 308.059 239.69 302.162C241.792 296.264 242.869 290.11 242.92 283.7C242.92 278.726 242.279 273.931 240.997 269.316C239.715 264.7 237.895 260.393 235.536 256.393C233.177 252.393 230.356 248.751 227.074 245.469C223.792 242.187 220.126 239.341 216.074 236.931C212.023 234.521 207.715 232.7 203.151 231.469C198.587 230.239 193.792 229.598 188.767 229.546C182.408 229.546 176.279 230.598 170.382 232.7C164.485 234.803 159.074 237.931 154.151 242.085L230.382 318.316Z" fill="#173D58"/>
</svg>
