<svg width="245" height="241" viewBox="0 0 245 241" fill="none" xmlns="http://www.w3.org/2000/svg">
<path d="M122.5 240.994C190.155 240.994 245 212.612 245 177.601C245 142.589 190.155 114.207 122.5 114.207C54.8451 114.207 0 142.589 0 177.601C0 212.612 54.8451 240.994 122.5 240.994Z" fill="#F5F5F5"/>
<path d="M39.7917 20.2893L35.1121 22.991C35.1121 22.782 35.1529 22.573 35.1529 22.3691V21.0132C35.1529 18.5969 33.4554 17.6233 31.3705 18.8263C30.4697 19.3849 29.6995 20.1307 29.1123 21.0132C28.7708 17.9801 26.3902 16.8535 23.505 18.5204C20.3801 20.325 17.8466 24.714 17.8466 28.3231V30.3621C17.8235 31.1719 17.9874 31.9761 18.3258 32.7121L14.4364 34.955C13.8267 35.3543 13.3195 35.8912 12.9555 36.5226C12.5916 37.1539 12.3812 37.862 12.3412 38.5896C12.3412 39.9303 13.2792 40.4706 14.4364 39.8028L39.7917 25.1371C40.3987 24.7399 40.9043 24.2062 41.2681 23.5786C41.6319 22.951 41.8438 22.247 41.8868 21.5229C41.8868 20.1619 40.9489 19.6215 39.7917 20.2893Z" fill="#EBEBEB"/>
<path d="M62.3027 30.4231L58.77 32.4622C58.7902 32.3084 58.8004 32.1534 58.8006 31.9983V30.9788C58.8006 29.1589 57.5211 28.43 55.946 29.3322C55.268 29.7496 54.6874 30.3076 54.2434 30.9686C53.9885 28.6798 52.2044 27.8234 50.0124 29.0825C47.6522 30.4435 45.7406 33.7569 45.7406 36.4791V38.0083C45.7234 38.6196 45.8473 39.2266 46.1025 39.7823L43.1612 41.4696C42.701 41.7705 42.3181 42.1757 42.0436 42.6521C41.7691 43.1286 41.6106 43.663 41.581 44.2121C41.581 45.2316 42.2896 45.6343 43.1612 45.1296L62.2976 34.0832C62.7582 33.7822 63.1416 33.3772 63.417 32.9008C63.6924 32.4245 63.852 31.8901 63.8829 31.3407C63.888 30.3314 63.1744 29.9185 62.3027 30.4231Z" fill="#EBEBEB"/>
<path d="M197.404 172.503C212.136 172.503 224.08 165.606 224.08 157.098C224.08 148.59 212.136 141.693 197.404 141.693C182.671 141.693 170.728 148.59 170.728 157.098C170.728 165.606 182.671 172.503 197.404 172.503Z" fill="#E0E0E0"/>
<path d="M178.884 226.033C177.838 226.027 176.797 225.877 175.79 225.589C172.732 224.738 171.809 223.147 171.549 221.965C171.136 220.048 172.288 218.065 173.588 216.949C174.062 216.551 174.608 216.133 175.168 215.7C176.636 214.568 178.461 213.151 178.884 212.076L180.923 206.784L179.369 205.887L179.705 205.107L178.084 205.454L177.355 204.48C175.744 205.255 171.783 207.177 166.472 209.833C165.248 210.444 164.219 210.974 163.316 211.438C160.334 212.968 158.688 213.824 156.18 214.42C155.259 214.648 154.314 214.766 153.366 214.772C151.414 214.772 149.884 214.217 148.946 213.166C148.53 212.674 148.227 212.097 148.057 211.476C147.887 210.854 147.855 210.203 147.962 209.568C148.518 204.582 158.239 200.234 163.286 199.78C164.942 199.627 166.507 199.556 168.2 199.556C169.021 199.556 169.76 199.556 170.422 199.592C170.932 199.592 171.442 199.592 171.875 199.592C172.309 199.592 172.727 199.592 173.094 199.546C175.005 199.372 180.949 198.271 181.01 198.261L181.657 198.144L182.055 198.654L183.538 198.368C185.501 196.976 200.519 186.333 204.061 183.896C206.274 182.367 210.235 179.971 211.438 179.971H212.085L212.483 180.572L212.788 181.143L212.381 181.816C212.294 181.959 209.766 185.894 206.712 188.316C205.448 189.335 201.798 192.419 198.169 195.529L225.655 190.253L224.452 192.292C224.12 192.868 222.336 194.494 213.084 197.231C207.512 198.873 197.338 201.233 189.676 202.941L188.442 204.016C188.356 205.382 188.08 209.537 187.897 211.714C187.892 212.596 188.026 213.473 188.295 214.313C188.763 216.143 189.34 218.427 187.836 220.762C186.551 222.735 183.696 226.033 178.884 226.033ZM180.821 218.126C180.158 218.11 179.497 218.226 178.879 218.469C178.261 218.711 177.698 219.075 177.223 219.538C177.083 219.673 176.976 219.839 176.912 220.022C176.847 220.205 176.826 220.401 176.85 220.594C176.967 220.827 177.136 221.029 177.345 221.185C177.554 221.341 177.797 221.446 178.053 221.491C178.448 221.6 178.857 221.653 179.267 221.649C179.931 221.665 180.592 221.548 181.211 221.306C181.83 221.063 182.394 220.7 182.871 220.237C183.011 220.103 183.118 219.937 183.182 219.753C183.246 219.57 183.265 219.374 183.238 219.182C183.122 218.948 182.953 218.745 182.744 218.59C182.535 218.435 182.292 218.332 182.035 218.289C181.64 218.178 181.232 218.123 180.821 218.126ZM166.762 203.547C164.749 203.577 162.752 203.921 160.844 204.567C155.573 206.3 153.916 208.456 153.402 209.588C153.335 209.731 153.193 210.098 153.315 210.276C153.428 210.391 153.566 210.478 153.718 210.532C153.87 210.586 154.032 210.605 154.192 210.587C154.364 210.587 154.535 210.564 154.701 210.521C155.684 210.253 156.61 209.809 157.434 209.211C158.501 208.519 159.608 207.89 160.747 207.325C163.496 205.972 166.339 204.822 169.255 203.884L169.347 203.848C168.503 203.633 167.633 203.532 166.762 203.547Z" fill="#E0E0E0"/>
<path d="M84.834 223.52C82.1985 224.865 88.8611 229.555 92.1541 227.746L150.312 193.704L157.24 186.394C157.308 186.319 157.35 186.225 157.36 186.124C157.369 186.024 157.346 185.923 157.293 185.837C157.24 185.751 157.16 185.685 157.066 185.648C156.972 185.612 156.868 185.607 156.771 185.634L143.405 189.712L84.834 223.52Z" fill="#E0E0E0"/>
<path d="M35.2549 212.881L12.9581 200.004C11.699 199.281 11.699 198.103 12.9581 197.379L137.726 125.427C138.432 125.07 139.212 124.884 140.003 124.884C140.793 124.884 141.573 125.07 142.279 125.427L164.581 138.303C165.835 139.027 165.835 140.205 164.581 140.929L39.807 212.881C39.1014 213.238 38.3217 213.424 37.531 213.424C36.7402 213.424 35.9605 213.238 35.2549 212.881Z" fill="#E0E0E0"/>
<path d="M178.782 143.956C178.793 143.83 178.838 143.709 178.911 143.606C178.985 143.503 179.085 143.421 179.2 143.37C179.512 143.212 179.857 143.129 180.207 143.129C180.557 143.129 180.902 143.212 181.214 143.37C181.329 143.422 181.428 143.504 181.502 143.607C181.575 143.71 181.62 143.83 181.632 143.956L179.032 157.286C179.022 157.373 178.989 157.456 178.937 157.526C178.885 157.597 178.816 157.653 178.737 157.689C178.517 157.802 178.273 157.861 178.025 157.861C177.778 157.861 177.534 157.802 177.314 157.689C177.235 157.653 177.166 157.597 177.114 157.526C177.062 157.456 177.029 157.373 177.019 157.286L178.782 143.956Z" fill="#455A64"/>
<path d="M215.674 143.956C215.663 143.831 215.619 143.71 215.546 143.607C215.474 143.504 215.375 143.422 215.261 143.37C214.945 143.208 214.596 143.124 214.241 143.124C213.887 143.124 213.537 143.208 213.222 143.37C213.107 143.422 213.009 143.504 212.936 143.607C212.864 143.71 212.82 143.831 212.809 143.956L215.403 157.286C215.414 157.373 215.446 157.455 215.496 157.525C215.547 157.596 215.615 157.652 215.694 157.689C215.915 157.802 216.159 157.861 216.408 157.861C216.656 157.861 216.9 157.802 217.121 157.689C217.2 157.652 217.268 157.596 217.319 157.525C217.37 157.455 217.402 157.373 217.412 157.286L215.674 143.956Z" fill="#455A64"/>
<path d="M198.826 145.929C198.815 145.804 198.77 145.683 198.697 145.581C198.623 145.479 198.523 145.398 198.408 145.348C198.096 145.189 197.751 145.107 197.401 145.107C197.051 145.107 196.707 145.189 196.395 145.348C196.28 145.399 196.181 145.48 196.107 145.582C196.034 145.684 195.989 145.804 195.977 145.929L196.395 164.943C196.405 165.03 196.438 165.112 196.49 165.183C196.541 165.253 196.611 165.31 196.69 165.346C196.911 165.456 197.154 165.514 197.401 165.514C197.648 165.514 197.892 165.456 198.112 165.346C198.192 165.31 198.261 165.253 198.313 165.183C198.365 165.112 198.398 165.03 198.408 164.943L198.826 145.929Z" fill="#455A64"/>
<path d="M222.933 133.797H222.907C222.907 130.025 220.44 126.252 215.454 123.377C205.484 117.622 189.319 117.622 179.353 123.377C174.368 126.252 171.896 130.004 171.896 133.797V135.836C171.952 139.557 174.444 143.268 179.374 146.108C189.339 151.863 205.504 151.863 215.475 146.108C220.394 143.268 222.892 139.557 222.953 135.836L222.933 133.797Z" fill="#BED4FF"/>
<path d="M179.348 123.377C169.382 129.133 169.382 138.466 179.348 144.221C189.314 149.977 205.478 149.977 215.449 144.221C225.42 138.466 225.42 129.133 215.449 123.377C205.478 117.622 189.319 117.622 179.348 123.377Z" fill="#BED4FF"/>
<path opacity="0.45" d="M179.348 123.377C169.382 129.133 169.382 138.466 179.348 144.221C189.314 149.977 205.478 149.977 215.449 144.221C225.42 138.466 225.42 129.133 215.449 123.377C205.478 117.622 189.319 117.622 179.348 123.377Z" fill="white"/>
<g opacity="0.05">
<path d="M202.996 131.334C206.177 133.17 206.177 136.147 202.996 137.961C199.815 139.776 194.656 139.796 191.48 137.961C188.305 136.126 188.3 133.149 191.48 131.334C194.661 129.52 199.815 129.494 202.996 131.334Z" fill="black"/>
</g>
<path d="M192.174 135.066C189.401 132.242 187.774 125.187 190.476 122.944H204.24C206.941 125.187 205.315 132.237 202.547 135.066L202.476 135.142L202.379 135.234C202.298 135.311 202.216 135.387 202.129 135.458L202.063 135.509L201.854 135.667C201.739 135.752 201.618 135.829 201.492 135.897C199.219 137.212 195.523 137.212 193.244 135.897C193.122 135.831 193.005 135.749 192.882 135.667L192.689 135.52L192.607 135.453C192.521 135.389 192.441 135.317 192.367 135.239L192.255 135.132C192.225 135.114 192.198 135.092 192.174 135.066Z" fill="#EBEBEB"/>
<path d="M203.026 122.042C206.161 123.851 206.161 126.787 203.026 128.597C199.891 130.407 194.809 130.407 191.669 128.597C188.529 126.787 188.534 123.851 191.669 122.042C194.804 120.232 199.891 120.232 203.026 122.042Z" fill="#FAFAFA"/>
<path d="M200.804 123.326C202.71 124.427 202.71 126.211 200.804 127.312C199.733 127.854 198.55 128.137 197.35 128.137C196.15 128.137 194.967 127.854 193.897 127.312C191.985 126.211 191.985 124.427 193.897 123.326C194.967 122.784 196.15 122.502 197.35 122.502C198.55 122.502 199.733 122.784 200.804 123.326Z" fill="#EBEBEB"/>
<path d="M193.897 125.217C194.967 124.675 196.15 124.393 197.35 124.393C198.55 124.393 199.733 124.675 200.804 125.217C201.266 125.467 201.658 125.828 201.946 126.267C201.655 126.696 201.263 127.046 200.804 127.287C199.733 127.829 198.55 128.111 197.35 128.111C196.15 128.111 194.967 127.829 193.897 127.287C193.438 127.045 193.044 126.695 192.75 126.267C193.041 125.829 193.434 125.468 193.897 125.217Z" fill="#E0E0E0"/>
<path d="M200.381 126.267C201.358 125.275 202.2 124.157 202.884 122.944C204.036 120.905 204.25 118.167 203.653 117.846C203.057 117.525 200.625 120.237 200.625 120.237C200.851 119.089 200.938 117.919 200.885 116.75C200.784 114.935 200.34 113.284 199.82 112.952C199.3 112.621 198.133 114.91 197.633 116.572C197.134 118.234 196.833 119.6 196.833 119.6C196.635 118.304 196.337 117.026 195.941 115.777C195.334 114.048 194.784 113.661 194.361 113.829C193.937 113.997 193.652 114.808 193.525 117.102C193.48 118.201 193.516 119.301 193.632 120.395C193.632 120.395 192.775 119.452 191.822 118.539C190.777 117.52 190.333 117.398 190.033 117.586C189.732 117.775 189.65 119.34 191.271 122.266C192.076 123.756 193.108 125.111 194.33 126.283C194.33 126.283 196.558 127.71 200.381 126.267Z" fill="#BED4FF"/>
<path opacity="0.3" d="M200.381 126.267C201.358 125.275 202.2 124.157 202.884 122.944C204.036 120.905 204.25 118.167 203.653 117.846C203.057 117.525 200.625 120.237 200.625 120.237C200.851 119.089 200.938 117.919 200.885 116.75C200.784 114.935 200.34 113.284 199.82 112.952C199.3 112.621 198.133 114.91 197.633 116.572C197.134 118.234 196.833 119.6 196.833 119.6C196.635 118.304 196.337 117.026 195.941 115.777C195.334 114.048 194.784 113.661 194.361 113.829C193.937 113.997 193.652 114.808 193.525 117.102C193.48 118.201 193.516 119.301 193.632 120.395C193.632 120.395 192.775 119.452 191.822 118.539C190.777 117.52 190.333 117.398 190.033 117.586C189.732 117.775 189.65 119.34 191.271 122.266C192.076 123.756 193.108 125.111 194.33 126.283C194.33 126.283 196.558 127.71 200.381 126.267Z" fill="black"/>
<path d="M110.475 192.873L129.642 181.786C131.62 180.649 132.609 179.15 132.609 177.657C132.609 176.163 132.609 174.991 132.609 174.991L112.728 163.776C112.172 163.414 111.709 162.925 111.377 162.35C111.045 161.776 110.853 161.131 110.816 160.468V136.835L77.3354 156.206V179.844C77.3704 180.506 77.5614 181.15 77.8927 181.724C78.224 182.298 78.6863 182.786 79.2419 183.147L96.1761 192.873C100.117 195.152 106.524 195.152 110.475 192.873Z" fill="#BED4FF"/>
<g opacity="0.6">
<path d="M110.475 192.873L129.642 181.786C131.62 180.649 132.609 179.15 132.609 177.657C132.609 176.163 132.609 174.991 132.609 174.991L112.728 163.776C112.172 163.414 111.709 162.925 111.377 162.35C111.045 161.776 110.853 161.131 110.816 160.468V136.835L77.3354 156.206V179.844C77.3704 180.506 77.5614 181.15 77.8927 181.724C78.224 182.298 78.6863 182.786 79.2419 183.147L96.1761 192.873C100.117 195.152 106.524 195.152 110.475 192.873Z" fill="black"/>
</g>
<path opacity="0.3" d="M85.3743 184.003V186.685L79.2572 183.147C78.703 182.784 78.2418 182.296 77.9107 181.722C77.5795 181.148 77.3877 180.505 77.3507 179.844V156.186L83.7125 152.531C83.84 154.147 83.9878 155.824 84.1203 157.455L79.6447 160.045V178.508C79.6772 179.17 79.8671 179.816 80.1987 180.39C80.5302 180.965 80.9938 181.452 81.5511 181.811L85.3743 184.003Z" fill="black"/>
<path d="M79.6446 178.488C79.6796 179.15 79.8706 179.794 80.2019 180.368C80.5332 180.942 80.9955 181.429 81.5511 181.791L96.1761 190.207C100.127 192.486 106.534 192.491 110.49 190.207L129.667 179.125C133.618 176.846 133.618 173.145 129.667 170.862L115.037 162.446C114.482 162.083 114.02 161.594 113.688 161.019C113.357 160.445 113.166 159.8 113.131 159.137V140.669L79.6497 160.04L79.6446 178.488Z" fill="#BED4FF"/>
<path opacity="0.3" d="M79.6446 178.488C79.6796 179.15 79.8706 179.794 80.2019 180.368C80.5332 180.942 80.9955 181.429 81.5511 181.791L96.1761 190.207C100.127 192.486 106.534 192.491 110.49 190.207L129.667 179.125C133.618 176.846 133.618 173.145 129.667 170.862L115.037 162.446C114.482 162.083 114.02 161.594 113.688 161.019C113.357 160.445 113.166 159.8 113.131 159.137V140.669L79.6497 160.04L79.6446 178.488Z" fill="black"/>
<path opacity="0.5" d="M118.921 164.689L115.037 162.446C114.482 162.083 114.02 161.594 113.688 161.019C113.357 160.445 113.166 159.8 113.131 159.137V140.669L79.6497 160.04V178.508C79.6847 179.17 79.8757 179.814 80.207 180.388C80.5383 180.962 81.0006 181.45 81.5562 181.811L85.3794 184.019L118.921 164.689Z" fill="black"/>
<path d="M132.614 174.991V177.657C132.614 179.155 131.594 180.644 129.647 181.791L110.475 192.868C108.374 193.992 106.027 194.575 103.644 194.565V191.91C106.027 191.919 108.374 191.336 110.475 190.212L129.647 179.125C131.62 177.988 132.614 176.489 132.614 174.991Z" fill="#BED4FF"/>
<path opacity="0.5" d="M132.614 174.991V177.657C132.614 179.155 131.594 180.644 129.647 181.791L110.475 192.868C108.374 193.992 106.027 194.575 103.644 194.565V191.91C106.027 191.919 108.374 191.336 110.475 190.212L129.647 179.125C131.62 177.988 132.614 176.489 132.614 174.991Z" fill="black"/>
<path d="M25.8804 201.468C26.6033 201.819 27.399 201.994 28.2025 201.979C29.0061 201.964 29.7946 201.759 30.5039 201.381L159.983 126.62C160.676 126.167 161.253 125.557 161.666 124.84C162.08 124.122 162.318 123.318 162.363 122.491V4.55819C162.336 3.75489 162.119 2.96947 161.73 2.26606C161.341 1.56264 160.791 0.961158 160.125 0.510712C159.403 0.160517 158.608 -0.0141616 157.806 0.000897271C157.003 0.0159561 156.215 0.220327 155.507 0.597371L26.0333 75.3585C25.3386 75.8102 24.7603 76.4196 24.3458 77.1372C23.9312 77.8547 23.692 78.66 23.6477 79.4875V197.389C23.6698 198.198 23.8838 198.989 24.272 199.698C24.6603 200.407 25.2115 201.014 25.8804 201.468Z" fill="#BED4FF"/>
<path d="M30.5039 201.355L159.983 126.594C160.677 126.141 161.255 125.531 161.67 124.812C162.084 124.094 162.323 123.288 162.368 122.46V4.5529C162.368 3.02363 161.298 2.41702 159.983 3.17656L30.5039 77.9377C29.8092 78.3894 29.231 78.9988 28.8164 79.7164C28.4018 80.4339 28.1626 81.2392 28.1183 82.0667V199.974C28.1183 201.498 29.1888 202.115 30.5039 201.355Z" fill="#BED4FF"/>
<path opacity="0.5" d="M30.5039 201.355L159.983 126.594C160.677 126.141 161.255 125.531 161.67 124.812C162.084 124.094 162.323 123.288 162.368 122.46V4.5529C162.368 3.02363 161.298 2.41702 159.983 3.17656L30.5039 77.9377C29.8092 78.3894 29.231 78.9988 28.8164 79.7164C28.4018 80.4339 28.1626 81.2392 28.1183 82.0667V199.974C28.1183 201.498 29.1888 202.115 30.5039 201.355Z" fill="black"/>
<path d="M30.1522 204.078C29.4752 204.369 28.7434 204.512 28.0064 204.496C27.2693 204.481 26.5443 204.306 25.8804 203.986C25.2148 203.535 24.665 202.934 24.2761 202.231C23.8872 201.527 23.6701 200.742 23.6426 199.938V190.396L28.1183 192.985V202.523C28.1183 203.909 29.0002 204.526 30.1522 204.078Z" fill="#BED4FF"/>
<path opacity="0.5" d="M30.1522 204.078C29.4752 204.369 28.7434 204.512 28.0064 204.496C27.2693 204.481 26.5443 204.306 25.8804 203.986C25.2148 203.535 24.665 202.934 24.2761 202.231C23.8872 201.527 23.6701 200.742 23.6426 199.938V190.396L28.1183 192.985V202.523C28.1183 203.909 29.0002 204.526 30.1522 204.078Z" fill="black"/>
<path d="M28.1183 192.985V202.518C28.1183 204.047 29.1888 204.659 30.5039 203.894L159.983 129.138C160.677 128.685 161.255 128.074 161.67 127.356C162.084 126.638 162.323 125.832 162.368 125.004V115.451L28.1183 192.985Z" fill="#BED4FF"/>
<path opacity="0.3" d="M28.1183 192.965V202.518C28.1183 204.047 29.1888 204.659 30.5039 203.894L159.983 129.138C160.677 128.685 161.255 128.074 161.67 127.356C162.084 126.638 162.323 125.832 162.368 125.004V115.451L28.1183 192.965Z" fill="black"/>
<path d="M32.5939 181.016V83.5554C32.6214 83.0583 32.7654 82.5746 33.0142 82.1434C33.263 81.7122 33.6097 81.3455 34.0264 81.0729L156.47 10.3797C157.26 9.92597 157.903 10.293 157.903 11.2055V108.692C157.875 109.188 157.731 109.671 157.482 110.101C157.234 110.532 156.887 110.898 156.47 111.169L34.0264 181.847C33.2362 182.301 32.5939 181.929 32.5939 181.016Z" fill="#BED4FF"/>
<path d="M32.5939 181.016V83.5554C32.6214 83.0583 32.7654 82.5746 33.0142 82.1434C33.263 81.7122 33.6097 81.3455 34.0264 81.0729L156.47 10.3797C157.26 9.92597 157.903 10.293 157.903 11.2055V108.692C157.875 109.188 157.731 109.671 157.482 110.101C157.234 110.532 156.887 110.898 156.47 111.169L34.0264 181.847C33.2362 182.301 32.5939 181.929 32.5939 181.016Z" fill="#263238"/>
<path opacity="0.7" d="M28.8218 79.7066C28.3979 80.424 28.1563 81.2344 28.1183 82.0668V192.985L23.6426 190.395V79.4874C23.6734 78.6561 23.9136 77.846 24.341 77.1323L28.8218 79.7066Z" fill="black"/>
<path opacity="0.3" d="M162.358 4.16056C162.19 2.93204 161.196 2.48855 159.993 3.17672L30.5141 77.9379C29.8091 78.3749 29.2281 78.9857 28.8268 79.7118L24.3512 77.1273C24.7553 76.4034 25.3357 75.7932 26.0385 75.3534L155.522 0.622834C156.231 0.244953 157.02 0.0401256 157.823 0.0250652C158.627 0.0100048 159.423 0.185138 160.146 0.536175C160.751 0.948236 161.261 1.48467 161.643 2.10967C162.024 2.73467 162.268 3.43385 162.358 4.16056Z" fill="black"/>
<path d="M44.8944 190.294C44.6107 190.461 44.2906 190.557 43.9616 190.574C43.4924 190.635 43.0157 190.552 42.5954 190.335C42.2619 190.107 41.9873 189.803 41.7941 189.449C41.6009 189.094 41.4946 188.699 41.4841 188.295V97.2527L43.722 98.5424V189.606C43.722 190.146 43.9921 190.457 44.3796 190.457C44.5613 190.442 44.7373 190.386 44.8944 190.294Z" fill="#F0F0F0"/>
<path d="M167.965 117.867C167.941 118.276 167.82 118.674 167.614 119.028C167.408 119.382 167.121 119.683 166.778 119.906L44.8944 190.294C44.2419 190.671 43.7118 190.365 43.7118 189.606V90.8501L46.9793 88.964C47.6318 88.5867 48.6972 82.8469 49.3548 82.4442L77.6974 66.0809C78.3549 65.7037 79.8995 69.9602 80.552 69.5779L167.965 19.1118V117.867Z" fill="#FAFAFA"/>
<path d="M167.415 20.0446V117.867C167.392 118.182 167.298 118.488 167.14 118.762C166.982 119.036 166.764 119.27 166.502 119.447L44.6191 189.82C44.5437 189.867 44.4582 189.897 44.3694 189.906C44.2572 189.906 44.2572 189.621 44.2572 189.605V91.1609L47.2546 89.4278C47.7287 89.1525 48.0243 88.2298 48.6921 85.8595C48.9304 84.8437 49.258 83.8509 49.6708 82.8927L77.7585 66.6773C78.0916 67.128 78.3899 67.6034 78.6506 68.0995C79.4152 69.4452 79.8434 70.1385 80.4653 70.1385C80.5931 70.1385 80.7183 70.1032 80.8273 70.0366L167.415 20.0446ZM167.965 19.0964L80.552 69.5625C80.5259 69.5785 80.496 69.5873 80.4653 69.588C79.8027 69.588 78.4263 66.0197 77.784 66.0197C77.7556 66.0121 77.7257 66.0121 77.6974 66.0197L49.3548 82.3829C48.6972 82.7652 47.6318 88.5 46.9793 88.9027L43.7118 90.85V189.605C43.7118 190.146 43.9769 190.457 44.3694 190.457C44.5508 190.449 44.7268 190.392 44.8791 190.294L166.778 119.906C167.121 119.683 167.408 119.382 167.614 119.028C167.82 118.674 167.941 118.276 167.965 117.867V19.0964Z" fill="#E0E0E0"/>
<path d="M42.5953 94.4947C42.2609 94.2677 41.9853 93.9645 41.7912 93.6099C41.5971 93.2554 41.49 92.8598 41.479 92.4557V83.2036C41.5024 82.796 41.6205 82.3994 41.8241 82.0454C42.0276 81.6915 42.3109 81.3899 42.6514 81.1646L164.535 10.8179C164.878 10.6006 165.273 10.4813 165.679 10.4731C166.085 10.4649 166.486 10.568 166.837 10.7714C167.189 10.9747 167.478 11.2704 167.673 11.6264C167.868 11.9824 167.962 12.385 167.945 12.7907V22.0326C167.921 22.4419 167.801 22.8398 167.595 23.194C167.388 23.5483 167.101 23.8489 166.757 24.0717L44.8944 94.454C44.5411 94.6404 44.1491 94.7413 43.7497 94.7483C43.3504 94.7554 42.9549 94.6686 42.5953 94.4947Z" fill="#BED4FF"/>
<path opacity="0.4" d="M167.95 12.5562C167.868 11.9394 167.369 11.7151 166.778 12.0464L44.8944 82.4338C44.5466 82.6594 44.2581 82.9654 44.0533 83.3259L41.8257 82.0362C42.0253 81.6823 42.3089 81.383 42.6515 81.1645L164.535 10.8179C164.863 10.6086 165.241 10.4896 165.629 10.473C166.018 10.4563 166.405 10.5426 166.75 10.7231C167.095 10.9035 167.386 11.1718 167.594 11.5008C167.802 11.8299 167.92 12.208 167.935 12.5969L167.95 12.5562Z" fill="white"/>
<path opacity="0.1" d="M44.0533 83.326C43.8414 83.6795 43.7238 84.0814 43.7118 84.4934V98.5678L41.4739 97.2781V83.2037C41.4714 83.1562 41.4714 83.1085 41.4739 83.061C41.4831 82.9616 41.4984 82.8628 41.5198 82.7653C41.5836 82.508 41.6831 82.2609 41.8155 82.0312L44.0533 83.326Z" fill="black"/>
<path d="M167.96 12.745V19.0965L80.5469 69.5626C79.8944 69.9449 79.3643 69.634 79.3643 68.8795V66.4735C79.3643 65.719 78.8545 65.4081 78.1714 65.7904L49.3497 82.4289C49.0063 82.6525 48.7201 82.9534 48.5138 83.3074C48.3076 83.6615 48.1871 84.0589 48.162 84.4679V86.8689C48.1361 87.2777 48.0152 87.6748 47.8091 88.0288C47.6029 88.3827 47.317 88.6837 46.9742 88.9079L43.7118 90.8501V84.4934C43.7371 84.0851 43.8572 83.6882 44.0624 83.3343C44.2677 82.9804 44.5525 82.6791 44.8944 82.4544L166.778 12.1078C167.43 11.6796 167.96 11.9905 167.96 12.745Z" fill="#BED4FF"/>
<path d="M162.394 16.7262C163.219 16.2522 163.887 16.6396 163.887 17.5928C163.859 18.1114 163.709 18.616 163.45 19.0659C163.19 19.5158 162.828 19.8983 162.394 20.1824C161.568 20.6565 160.895 20.269 160.895 19.3158C160.924 18.7969 161.075 18.2921 161.335 17.8422C161.596 17.3924 161.958 17.0101 162.394 16.7262Z" fill="white"/>
<path d="M157.011 19.8305C157.836 19.3565 158.504 19.7388 158.504 20.692C158.477 21.2108 158.327 21.7157 158.068 22.1658C157.808 22.6158 157.446 22.9981 157.011 23.2816C156.185 23.7608 155.517 23.3734 155.517 22.4201C155.545 21.9015 155.695 21.3969 155.955 20.947C156.214 20.4971 156.576 20.1147 157.011 19.8305Z" fill="white"/>
<path d="M151.628 22.9351C152.453 22.4559 153.121 22.8433 153.121 23.7966C153.093 24.3151 152.943 24.8198 152.684 25.2697C152.424 25.7195 152.062 26.102 151.628 26.3861C150.802 26.8602 150.134 26.4779 150.134 25.5246C150.161 25.0059 150.311 24.5009 150.571 24.0509C150.83 23.6009 151.192 23.2186 151.628 22.9351Z" fill="white"/>
<path d="M167.965 19.0964V26.8193L43.7118 98.5677V90.85L46.1535 89.438C46.806 89.0607 47.0252 88.4847 47.3362 87.3989L48.1671 84.5239C48.427 83.5044 48.6768 82.8468 49.3548 82.4849L77.6974 66.1216C78.3549 65.7444 78.8698 65.7036 79.3694 66.5294L80.3889 68.3748C80.761 69.0171 80.9496 69.3943 81.6021 69.017L167.965 19.0964Z" fill="#E6E6E6"/>
<path d="M43.7118 90.8398V98.5677L41.4739 97.278V89.5603L43.7118 90.8398Z" fill="#E0E0E0"/>
<path d="M49.1611 91.4007L47.2954 92.4763L48.004 91.1101C48.0325 91.0587 48.0475 91.0008 48.0475 90.9419C48.0475 90.883 48.0325 90.8252 48.004 90.7737C47.9479 90.7074 47.8561 90.7737 47.7899 90.8756L46.7703 92.8178C46.7703 92.8178 46.7703 92.8637 46.7448 92.8892C46.7424 92.9214 46.7424 92.9538 46.7448 92.986C46.7414 93.0148 46.7414 93.0439 46.7448 93.0727C46.7522 93.087 46.7607 93.1006 46.7703 93.1135L47.7899 93.8883C47.8043 93.8999 47.8223 93.9062 47.8408 93.9062C47.8594 93.9062 47.8773 93.8999 47.8918 93.8883C47.944 93.8545 47.9834 93.8043 48.004 93.7456C48.06 93.6181 48.0498 93.4754 48.004 93.4295L47.2954 92.879L49.1611 91.8034C49.2084 91.7657 49.2464 91.7175 49.2721 91.6627C49.2977 91.6079 49.3103 91.5479 49.3089 91.4873C49.3089 91.416 49.2427 91.3599 49.1611 91.4007Z" fill="#455A64"/>
<path d="M50.7159 90.4983L52.5816 89.4227L51.8679 88.8772C51.8376 88.8292 51.8215 88.7735 51.8215 88.7167C51.8215 88.6598 51.8376 88.6042 51.8679 88.5561C51.9189 88.4287 52.0157 88.3675 52.0769 88.4134L53.0964 89.1933C53.1103 89.2037 53.1209 89.2179 53.127 89.2341C53.1323 89.2627 53.1323 89.2921 53.127 89.3207C53.132 89.3545 53.132 89.3889 53.127 89.4227L53.0964 89.4992L52.0769 91.4464C52.0573 91.4931 52.0234 91.5324 51.9801 91.5586C51.9649 91.5729 51.9448 91.5809 51.924 91.5809C51.9031 91.5809 51.8831 91.5729 51.8679 91.5586C51.8388 91.5082 51.8235 91.4511 51.8235 91.3929C51.8235 91.3347 51.8388 91.2776 51.8679 91.2272L52.5816 89.8611L50.7159 90.9367C50.6343 90.9825 50.568 90.9367 50.568 90.7939C50.5703 90.737 50.5847 90.6812 50.6102 90.6302C50.6357 90.5793 50.6717 90.5343 50.7159 90.4983Z" fill="#455A64"/>
<path d="M56.833 85.1306C56.833 85.0185 56.7259 85.0287 56.6749 85.1306L56.42 85.7576C55.9817 85.7117 55.4566 86.1348 55.0998 86.8893C54.6359 87.868 54.6359 89.0252 55.0998 89.4687C55.2115 89.573 55.356 89.6352 55.5086 89.6445C55.6612 89.6538 55.8122 89.6096 55.9358 89.5196C56.3089 89.2684 56.6011 88.9142 56.7769 88.5001C56.805 88.4504 56.8198 88.3942 56.8198 88.337C56.8198 88.2798 56.805 88.2236 56.7769 88.1739C56.7157 88.1178 56.6239 88.1739 56.5628 88.2962C56.2161 89.0252 55.6554 89.3514 55.3139 89.0201C54.9723 88.6887 54.9672 87.8222 55.3139 87.0932C55.5586 86.5834 55.9103 86.2674 56.2161 86.247L56.0275 86.7211C55.9766 86.8434 56.0275 86.9556 56.0989 86.9046L56.8584 86.3948C56.8897 86.3716 56.9142 86.3405 56.9294 86.3046C56.9447 86.2688 56.9501 86.2295 56.9451 86.1909L56.833 85.1306Z" fill="#455A64"/>
<path d="M76.8766 69.5984L77.5597 68.1609C77.5981 68.0924 77.6183 68.0152 77.6183 67.9366C77.6183 67.8581 77.5981 67.7808 77.5597 67.7123C77.4781 67.6359 77.3456 67.7123 77.2692 67.8805L76.5861 69.3181L75.9081 68.6656C75.8265 68.5891 75.6991 68.6656 75.6175 68.8338C75.5766 68.9014 75.555 68.979 75.555 69.0581C75.555 69.1372 75.5766 69.2147 75.6175 69.2824L76.2955 69.9502L75.6175 71.3877C75.5766 71.4553 75.555 71.5329 75.555 71.612C75.555 71.691 75.5766 71.7686 75.6175 71.8363C75.6372 71.8538 75.6626 71.8635 75.6889 71.8635C75.7152 71.8635 75.7406 71.8538 75.7603 71.8363C75.8268 71.7935 75.8785 71.7312 75.9081 71.6579L76.5861 70.2203L77.2692 70.8728C77.2888 70.8904 77.3142 70.9001 77.3405 70.9001C77.3668 70.9001 77.3923 70.8904 77.4119 70.8728C77.4784 70.8301 77.5301 70.7677 77.5597 70.6944C77.5981 70.6259 77.6183 70.5487 77.6183 70.4701C77.6183 70.3916 77.5981 70.3143 77.5597 70.2458L76.8766 69.5984Z" fill="#455A64"/>
<path d="M59.3104 86.8994V84.4934C59.3351 84.0843 59.4554 83.6867 59.6617 83.3326C59.868 82.9785 60.1544 82.6777 60.4981 82.4543L160.09 24.9587C160.747 24.5764 161.277 24.8874 161.277 25.6418V28.0479C161.253 28.4569 161.132 28.8545 160.926 29.2087C160.72 29.5628 160.433 29.8636 160.09 30.0869L60.493 87.5825C59.8405 87.9648 59.3104 87.6539 59.3104 86.8994Z" fill="#FAFAFA"/>
<path d="M158.474 30.2909C158.438 30.2967 158.402 30.2967 158.367 30.2909C158.3 30.2601 158.246 30.2073 158.213 30.1415C158.181 30.0756 158.172 30.0006 158.188 29.929L158.305 28.9554L157.847 28.624C157.807 28.5926 157.775 28.5523 157.754 28.5062C157.732 28.4601 157.722 28.4097 157.724 28.3589C157.722 28.2798 157.739 28.2013 157.772 28.1296C157.806 28.0579 157.856 27.9951 157.918 27.946L158.616 27.4057C158.63 27.3892 158.641 27.3701 158.647 27.3496L158.958 26.3301C158.977 26.2462 159.021 26.1699 159.083 26.1108C159.146 26.0518 159.225 26.0128 159.31 25.9988C159.367 25.9922 159.425 26.0047 159.475 26.0341C159.524 26.0636 159.563 26.1084 159.585 26.1619L159.845 26.7175L160.436 26.4932C160.489 26.4698 160.548 26.464 160.604 26.4769C160.66 26.4898 160.71 26.5206 160.747 26.5646C160.796 26.6351 160.822 26.7186 160.822 26.8042C160.822 26.8897 160.796 26.9733 160.747 27.0438L160.237 27.9919C160.235 28.0105 160.235 28.0294 160.237 28.048L160.36 28.9044C160.369 28.9827 160.36 29.0622 160.334 29.1365C160.307 29.2108 160.264 29.2779 160.207 29.3326C160.173 29.3718 160.131 29.4022 160.083 29.4209C160.035 29.4396 159.983 29.446 159.932 29.4396L159.386 29.353L158.769 30.138C158.736 30.1859 158.692 30.225 158.641 30.2517C158.589 30.2783 158.532 30.2918 158.474 30.2909ZM158.137 28.3029L158.596 28.6342C158.643 28.6729 158.68 28.7235 158.701 28.7808C158.723 28.8381 158.729 28.9001 158.718 28.9605L158.637 29.6129L159.05 29.1032C159.085 29.053 159.133 29.0126 159.188 28.9858C159.243 28.9591 159.304 28.9468 159.366 28.9503L159.937 29.0216C159.94 28.9997 159.94 28.9773 159.937 28.9554L159.814 28.099C159.805 27.9932 159.826 27.887 159.875 27.7931L160.319 26.9622L159.896 27.1304C159.829 27.1581 159.754 27.1587 159.686 27.1321C159.619 27.1054 159.564 27.0537 159.534 26.9877L159.33 26.5493L159.05 27.4618C159.021 27.5644 158.96 27.6554 158.876 27.7217L158.178 28.2315C158.158 28.251 158.144 28.2757 158.137 28.3029Z" fill="#E0E0E0"/>
<path d="M162.679 24.663C162.588 24.6657 162.498 24.6375 162.425 24.5831C162.351 24.5287 162.298 24.4511 162.274 24.3629C162.25 24.2747 162.256 24.1809 162.292 24.0967C162.327 24.0124 162.39 23.9426 162.47 23.8984L165.814 21.9664C165.861 21.9356 165.914 21.9146 165.969 21.9049C166.025 21.8952 166.081 21.8969 166.136 21.9098C166.191 21.9228 166.242 21.9467 166.287 21.9803C166.332 22.0138 166.37 22.0562 166.398 22.1048C166.426 22.1534 166.444 22.2073 166.451 22.2631C166.457 22.3189 166.453 22.3754 166.437 22.4293C166.42 22.4831 166.394 22.5331 166.358 22.5763C166.322 22.6194 166.277 22.6547 166.227 22.68L162.883 24.6069C162.822 24.6449 162.751 24.6644 162.679 24.663Z" fill="#455A64"/>
<path d="M162.679 26.6207C162.607 26.6214 162.536 26.6029 162.473 26.567C162.41 26.5312 162.358 26.4794 162.322 26.4168C162.268 26.3219 162.253 26.2095 162.281 26.1038C162.308 25.998 162.376 25.9073 162.47 25.851L165.814 23.9241C165.861 23.8966 165.913 23.8786 165.967 23.8711C166.02 23.8636 166.075 23.8669 166.128 23.8806C166.18 23.8943 166.23 23.9183 166.273 23.9511C166.316 23.984 166.353 24.025 166.38 24.072C166.407 24.1187 166.425 24.1704 166.432 24.224C166.439 24.2777 166.435 24.3322 166.421 24.3843C166.407 24.4365 166.382 24.4854 166.349 24.528C166.316 24.5706 166.274 24.6062 166.227 24.6327L162.883 26.5647C162.822 26.6027 162.751 26.6222 162.679 26.6207Z" fill="#455A64"/>
<path d="M162.679 28.527C162.588 28.5273 162.5 28.4976 162.428 28.4425C162.355 28.3874 162.303 28.31 162.279 28.2223C162.256 28.1346 162.261 28.0415 162.296 27.9574C162.33 27.8733 162.392 27.803 162.47 27.7573L165.814 25.8253C165.91 25.7715 166.023 25.7574 166.128 25.786C166.234 25.8146 166.325 25.8836 166.38 25.9782C166.407 26.025 166.425 26.0767 166.432 26.1303C166.439 26.1839 166.435 26.2384 166.421 26.2906C166.407 26.3428 166.382 26.3916 166.349 26.4343C166.316 26.4769 166.274 26.5125 166.227 26.5389L162.883 28.4709C162.821 28.5066 162.751 28.5259 162.679 28.527Z" fill="#455A64"/>
<path d="M47.3769 100.729C47.2855 100.732 47.1959 100.704 47.1224 100.649C47.0489 100.595 46.9958 100.517 46.9717 100.429C46.9476 100.341 46.9538 100.247 46.9894 100.163C47.025 100.079 47.0879 100.009 47.1679 99.9647L50.5119 98.0327C50.6061 97.9851 50.7149 97.9753 50.816 98.0054C50.9171 98.0355 51.0029 98.1031 51.0557 98.1944C51.1085 98.2857 51.1244 98.3938 51.1001 98.4964C51.0757 98.5991 51.013 98.6885 50.9249 98.7464L47.5808 100.673C47.5194 100.711 47.4488 100.73 47.3769 100.729Z" fill="#455A64"/>
<path d="M47.3769 102.661C47.3047 102.662 47.2336 102.643 47.171 102.607C47.1083 102.572 47.0562 102.52 47.0201 102.457C46.9926 102.41 46.9746 102.359 46.9671 102.305C46.9596 102.251 46.9628 102.196 46.9766 102.144C46.9903 102.091 47.0143 102.042 47.0471 101.998C47.08 101.955 47.121 101.919 47.1679 101.891L50.5119 99.9646C50.5584 99.9371 50.6098 99.9192 50.6632 99.9118C50.7167 99.9044 50.771 99.9077 50.8232 99.9214C50.8753 99.9352 50.9242 99.9591 50.967 99.9919C51.0099 100.025 51.0458 100.066 51.0727 100.112C51.1002 100.159 51.1182 100.211 51.1257 100.265C51.1332 100.319 51.1299 100.373 51.1162 100.426C51.1025 100.479 51.0785 100.528 51.0457 100.571C51.0128 100.614 50.9718 100.651 50.9248 100.678L47.5808 102.605C47.5194 102.642 47.4488 102.662 47.3769 102.661Z" fill="#455A64"/>
<path d="M47.3769 104.614C47.2861 104.614 47.1976 104.584 47.1254 104.529C47.0531 104.474 47.001 104.397 46.9772 104.309C46.9534 104.221 46.9592 104.128 46.9937 104.044C47.0281 103.96 47.0894 103.89 47.1679 103.844L50.5119 101.917C50.5582 101.889 50.6097 101.87 50.6632 101.863C50.7168 101.855 50.7714 101.858 50.8237 101.872C50.8761 101.886 50.9251 101.91 50.9679 101.943C51.0106 101.976 51.0463 102.018 51.0727 102.065C51.1001 102.111 51.118 102.163 51.1254 102.216C51.1328 102.269 51.1295 102.324 51.1158 102.376C51.102 102.428 51.0781 102.477 51.0453 102.52C51.0125 102.563 50.9716 102.599 50.9248 102.626L47.5808 104.558C47.5185 104.593 47.4484 104.612 47.3769 104.614Z" fill="#455A64"/>
<path d="M77.0347 83.7133V86.675C77.0347 87.2816 77.4629 87.5263 77.9879 87.2256L117.713 64.2559V59.0869L77.993 82.0566C77.714 82.2377 77.4818 82.4822 77.3152 82.7701C77.1487 83.058 77.0526 83.3812 77.0347 83.7133Z" fill="#E6E6E6"/>
<path d="M122.719 56.1864C123.229 55.8806 123.672 56.1303 123.672 56.737V59.6987C123.654 60.0294 123.558 60.3511 123.392 60.638C123.227 60.9248 122.996 61.1688 122.719 61.3503L117.713 64.2406V59.0869L122.719 56.1864Z" fill="#BED4FF"/>
<path d="M122.347 60.2647L121.791 60.0862C121.848 59.8508 121.877 59.6096 121.878 59.3675C121.904 59.1415 121.871 58.9127 121.781 58.7035C121.692 58.4944 121.55 58.3121 121.368 58.1746C121.242 58.1075 121.1 58.0758 120.957 58.083C120.815 58.0902 120.677 58.136 120.558 58.2154C120.202 58.4881 119.916 58.8406 119.722 59.2444C119.528 59.6483 119.432 60.092 119.441 60.5399C119.416 60.7659 119.449 60.9947 119.538 61.2039C119.628 61.413 119.77 61.5953 119.951 61.7328C120.058 61.7934 120.18 61.825 120.303 61.8245C120.465 61.8228 120.624 61.777 120.762 61.692C121.188 61.4002 121.505 60.9753 121.664 60.4838L122.225 60.6572C122.245 60.6621 122.266 60.6621 122.286 60.6572C122.338 60.6625 122.39 60.6476 122.432 60.6156C122.473 60.5835 122.5 60.5367 122.508 60.485C122.516 60.4332 122.504 60.3804 122.474 60.3375C122.444 60.2945 122.398 60.2648 122.347 60.2545V60.2647ZM120.558 61.3351C120.5 61.3771 120.432 61.4025 120.361 61.4088C120.29 61.4151 120.219 61.402 120.155 61.3708C120.043 61.2661 119.957 61.1362 119.904 60.9917C119.852 60.8472 119.835 60.6923 119.854 60.5399C119.849 60.165 119.928 59.7936 120.085 59.453C120.242 59.1125 120.473 58.8115 120.762 58.5723C120.839 58.5257 120.927 58.4994 121.017 58.4958C121.069 58.4942 121.12 58.5084 121.164 58.5366C121.277 58.6413 121.363 58.7712 121.415 58.9157C121.467 59.0602 121.485 59.2151 121.465 59.3675C121.47 59.7416 121.391 60.112 121.234 60.4516C121.077 60.7912 120.846 61.0913 120.558 61.33V61.3351Z" fill="#FAFAFA"/>
<path d="M60.5236 92.1399L54.7888 95.438C54.5117 95.617 54.2808 95.859 54.1151 96.1443C53.9494 96.4296 53.8536 96.7501 53.8356 97.0795V100.031C53.8356 100.638 54.2638 100.882 54.7888 100.582L60.5236 97.263C60.8002 97.0827 61.0303 96.8395 61.1951 96.5534C61.3598 96.2672 61.4546 95.9462 61.4717 95.6165V92.6854C61.4717 92.0838 61.0486 91.8341 60.5236 92.1399Z" fill="#BED4FF"/>
<path d="M160.258 34.5523C159.608 34.9767 159.067 35.5482 158.68 36.2203C158.292 36.8925 158.067 37.6465 158.025 38.4214C158.025 39.8487 159.045 40.4247 160.258 39.7161C160.909 39.2914 161.451 38.7194 161.839 38.0463C162.228 37.3733 162.453 36.6181 162.496 35.842C162.496 34.4147 161.491 33.8386 160.258 34.5523Z" fill="#BED4FF"/>
<path d="M159.998 36.8158C159.928 36.817 159.859 36.7993 159.799 36.7648C159.728 36.7145 159.671 36.6469 159.634 36.5684C159.596 36.4898 159.579 36.403 159.585 36.3162C159.594 36.1119 159.653 35.9128 159.754 35.7354C159.856 35.5581 159.999 35.4077 160.171 35.2967C160.241 35.2416 160.325 35.2087 160.414 35.2023C160.503 35.1959 160.591 35.2163 160.668 35.2608C160.745 35.3053 160.807 35.3719 160.845 35.4519C160.884 35.5319 160.898 35.6217 160.885 35.7096C160.874 35.9142 160.815 36.1133 160.712 36.2905C160.609 36.4678 160.466 36.6181 160.293 36.7291C160.204 36.7821 160.102 36.8119 159.998 36.8158Z" fill="white"/>
<path d="M161.14 36.9739C161.016 36.9119 160.877 36.8848 160.739 36.8956C160.6 36.9064 160.468 36.9546 160.355 37.035L160.028 37.2236C159.732 37.4113 159.485 37.667 159.308 37.9693C159.131 38.2716 159.028 38.6119 159.009 38.9619V39.1964C159.208 39.2827 159.427 39.3159 159.643 39.2926C159.859 39.2694 160.066 39.1906 160.242 39.0639C160.757 38.744 161.181 38.2984 161.476 37.7691V37.713C161.49 37.5711 161.466 37.428 161.407 37.2982C161.348 37.1685 161.256 37.0566 161.14 36.9739Z" fill="white"/>
<path d="M152.351 41.4647V40.6746C152.351 39.7774 151.806 39.3645 151.133 39.7519C150.761 40.0183 150.456 40.3682 150.244 40.7737C150.031 41.1792 149.917 41.6289 149.91 42.0866V42.7952C149.893 43.282 149.751 43.7562 149.497 44.1715C149.434 44.2801 149.399 44.4028 149.395 44.5284C149.395 44.7578 149.532 44.8597 149.701 44.7629L152.56 43.1163C152.654 43.048 152.73 42.9591 152.783 42.8565C152.836 42.7539 152.864 42.6405 152.866 42.525C152.87 42.4808 152.863 42.4364 152.847 42.395C152.831 42.3535 152.807 42.3161 152.775 42.2854C152.631 42.2058 152.514 42.0853 152.438 41.9393C152.363 41.7932 152.333 41.628 152.351 41.4647Z" fill="#BED4FF"/>
<path d="M151.74 43.8506C151.736 44.0702 151.681 44.286 151.579 44.4807C151.478 44.6754 151.332 44.8436 151.154 44.9721C150.827 45.1556 150.562 44.9721 150.562 44.5286L151.74 43.8506Z" fill="#BED4FF"/>
<path d="M141.81 45.2165C141.966 45.124 142.139 45.065 142.319 45.0432C142.461 45.0266 142.603 45.0552 142.727 45.1247C142.847 45.1981 142.941 45.3067 142.997 45.4357C143.063 45.6131 143.089 45.8027 143.074 45.9913C143.076 46.1629 143.057 46.334 143.018 46.5011C142.981 46.6505 142.933 46.797 142.875 46.9395C142.819 47.0736 142.756 47.2047 142.686 47.332L142.482 47.699C142.421 47.8162 142.36 47.9386 142.309 48.0558C142.26 48.1687 142.224 48.2866 142.202 48.4076C142.197 48.4654 142.183 48.5221 142.161 48.5758C142.144 48.6167 142.116 48.652 142.08 48.6777L141.504 49.0091C141.468 49.0091 141.437 49.0091 141.417 49.0091C141.402 48.9935 141.391 48.975 141.384 48.9548C141.377 48.9346 141.375 48.9131 141.376 48.8918C141.375 48.7348 141.398 48.5785 141.443 48.428C141.484 48.2802 141.535 48.1354 141.596 47.9947C141.662 47.857 141.728 47.7194 141.805 47.5919C141.881 47.4645 141.942 47.3371 142.008 47.2249C142.075 47.1128 142.121 46.9955 142.166 46.8885C142.205 46.7927 142.226 46.6908 142.228 46.5877C142.228 46.445 142.192 46.3532 142.126 46.3176C142.059 46.2819 141.947 46.3176 141.805 46.3787C141.682 46.443 141.579 46.5378 141.504 46.654C141.447 46.7456 141.401 46.843 141.366 46.9446L141.295 47.1994C141.279 47.2685 141.237 47.3288 141.178 47.3677L140.601 47.699C140.591 47.7065 140.579 47.7105 140.566 47.7105C140.553 47.7105 140.541 47.7065 140.53 47.699C140.519 47.6849 140.51 47.6686 140.505 47.6511C140.499 47.6336 140.498 47.6152 140.5 47.597C140.507 47.3987 140.538 47.2019 140.591 47.0108C140.656 46.7844 140.741 46.5642 140.846 46.3532C140.957 46.1307 141.094 45.922 141.254 45.7313C141.407 45.5276 141.595 45.3532 141.81 45.2165ZM142.217 49.9266C142.217 49.9813 142.205 50.0353 142.182 50.0847C142.162 50.1286 142.13 50.1658 142.09 50.1917L141.499 50.5333C141.493 50.539 141.486 50.5435 141.479 50.5466C141.471 50.5497 141.463 50.5512 141.455 50.5512C141.447 50.5512 141.439 50.5497 141.432 50.5466C141.424 50.5435 141.418 50.539 141.412 50.5333C141.397 50.5176 141.386 50.4991 141.379 50.479C141.372 50.4588 141.369 50.4373 141.371 50.416V49.6871C141.373 49.632 141.387 49.5779 141.412 49.529C141.428 49.4833 141.458 49.4439 141.499 49.4169L142.09 49.0753C142.103 49.0646 142.119 49.0586 142.136 49.0586C142.153 49.0586 142.169 49.0646 142.182 49.0753C142.195 49.0904 142.206 49.1082 142.212 49.1276C142.218 49.1469 142.22 49.1673 142.217 49.1875V49.9266Z" fill="#BED4FF"/>
<path d="M132.002 64.404V74.538C132.002 75.2975 132.512 75.6034 133.19 75.2262L146.413 67.5798C146.756 67.3562 147.042 67.0553 147.249 66.7013C147.455 66.3472 147.575 65.9498 147.6 65.5408V55.4221C147.6 54.6676 147.091 54.3567 146.413 54.739L133.159 62.3854C132.824 62.6103 132.545 62.9094 132.345 63.2595C132.144 63.6096 132.027 64.0012 132.002 64.404Z" fill="#BED4FF"/>
<path opacity="0.5" d="M132.002 64.404V74.538C132.002 75.2975 132.512 75.6034 133.19 75.2262L146.413 67.5798C146.756 67.3562 147.042 67.0553 147.249 66.7013C147.455 66.3472 147.575 65.9498 147.6 65.5408V55.4221C147.6 54.6676 147.091 54.3567 146.413 54.739L133.159 62.3854C132.824 62.6103 132.545 62.9094 132.345 63.2595C132.144 63.6096 132.027 64.0012 132.002 64.404Z" fill="white"/>
<path d="M137.655 68.655V64.2252C137.659 64.0044 137.746 63.7932 137.899 63.6343C138.053 63.4753 138.26 63.3804 138.481 63.3688L142.523 63.1904C142.977 63.1904 143.094 63.43 142.793 63.7665L138.206 68.864C137.905 69.2005 137.655 69.1087 137.655 68.655Z" fill="#FAFAFA"/>
<path d="M151.403 52.5672L162.108 46.3737C162.404 46.2055 162.643 46.3278 162.643 46.6438C162.63 46.8226 162.575 46.9957 162.482 47.149C162.389 47.3023 162.261 47.4314 162.108 47.5257L151.403 53.7193C151.108 53.8875 150.894 53.7652 150.894 53.4491C150.904 53.2725 150.955 53.1007 151.044 52.9476C151.132 52.7944 151.255 52.6642 151.403 52.5672Z" fill="#455A64"/>
<path d="M151.403 54.8661L162.108 48.6777C162.404 48.5094 162.643 48.6267 162.643 48.9478C162.63 49.1266 162.575 49.2997 162.482 49.453C162.389 49.6062 162.261 49.7353 162.108 49.8297L151.403 56.0182C151.108 56.1915 150.894 56.0691 150.894 55.7531C150.904 55.5758 150.955 55.4033 151.044 55.2493C151.132 55.0953 151.255 54.9641 151.403 54.8661Z" fill="#455A64"/>
<path d="M151.403 57.1041L162.108 50.9105C162.404 50.7423 162.643 50.8647 162.643 51.1807C162.63 51.3595 162.575 51.5326 162.482 51.6859C162.389 51.8391 162.261 51.9682 162.108 52.0626L151.403 58.2511C151.108 58.4244 150.894 58.302 150.894 57.986C150.903 57.8093 150.954 57.6374 151.043 57.4841C151.132 57.3309 151.255 57.2007 151.403 57.1041Z" fill="#455A64"/>
<path d="M151.23 60.3003L158.591 56.0489C158.79 55.9316 158.953 56.0183 158.953 56.2324C158.944 56.3547 158.906 56.4731 158.843 56.5784C158.781 56.6837 158.694 56.7729 158.591 56.839L151.23 61.0904C151.031 61.2025 150.868 61.121 150.868 60.9018C150.877 60.7802 150.915 60.6625 150.977 60.558C151.04 60.4535 151.127 60.3653 151.23 60.3003Z" fill="#E0E0E0"/>
<path d="M151.23 61.8806L158.591 57.6292C158.79 57.512 158.953 57.5986 158.953 57.8127C158.944 57.935 158.906 58.0534 158.843 58.1587C158.781 58.264 158.694 58.3532 158.591 58.4193L151.23 62.6707C151.031 62.7829 150.868 62.7013 150.868 62.4821C150.877 62.3605 150.915 62.2428 150.977 62.1383C151.04 62.0339 151.127 61.9456 151.23 61.8806Z" fill="#E0E0E0"/>
<path d="M151.23 63.4097L158.591 59.1634C158.79 59.0462 158.953 59.1277 158.953 59.3469C158.944 59.4692 158.906 59.5876 158.843 59.6929C158.781 59.7982 158.694 59.8874 158.591 59.9535L151.23 64.1998C151.031 64.3171 150.868 64.2355 150.868 64.0163C150.877 63.894 150.915 63.7756 150.977 63.6703C151.04 63.565 151.127 63.4758 151.23 63.4097Z" fill="#E0E0E0"/>
<path d="M132.002 82.4238V92.5476C132.002 93.3071 132.512 93.613 133.19 93.2357L146.413 85.5894C146.756 85.3658 147.042 85.0649 147.249 84.7108C147.455 84.3568 147.575 83.9593 147.6 83.5503V73.4316C147.6 72.6721 147.091 72.3662 146.413 72.7435L133.159 80.3898C132.822 80.616 132.542 80.9175 132.341 81.2705C132.14 81.6234 132.024 82.0183 132.002 82.4238Z" fill="#BED4FF"/>
<path opacity="0.5" d="M132.002 82.4238V92.5476C132.002 93.3071 132.512 93.613 133.19 93.2357L146.413 85.5894C146.756 85.3658 147.042 85.0649 147.249 84.7108C147.455 84.3568 147.575 83.9593 147.6 83.5503V73.4316C147.6 72.6721 147.091 72.3662 146.413 72.7435L133.159 80.3898C132.822 80.616 132.542 80.9175 132.341 81.2705C132.14 81.6234 132.024 82.0183 132.002 82.4238Z" fill="white"/>
<path d="M137.655 86.67V82.2453C137.657 82.0241 137.744 81.8122 137.898 81.653C138.051 81.4937 138.26 81.3993 138.481 81.3889L142.523 81.2104C142.977 81.2104 143.094 81.45 142.793 81.7865L138.206 86.8841C137.905 87.2205 137.655 87.1287 137.655 86.67Z" fill="#FAFAFA"/>
<path d="M151.403 70.5822L162.108 64.3937C162.404 64.2255 162.643 64.3427 162.643 64.6639C162.63 64.8427 162.575 65.0158 162.482 65.169C162.389 65.3223 162.261 65.4514 162.108 65.5458L151.403 71.7342C151.108 71.9075 150.894 71.7852 150.894 71.4692C150.904 71.2919 150.955 71.1194 151.044 70.9654C151.132 70.8114 151.255 70.6802 151.403 70.5822Z" fill="#455A64"/>
<path d="M151.403 72.8861L162.108 66.6977C162.404 66.5295 162.643 66.6467 162.643 66.9678C162.629 67.1464 162.574 67.3192 162.481 67.4724C162.388 67.6255 162.26 67.7547 162.108 67.8497L151.403 74.0382C151.108 74.2064 150.894 74.0892 150.894 73.768C150.904 73.5914 150.955 73.4196 151.044 73.2665C151.132 73.1133 151.255 72.9831 151.403 72.8861Z" fill="#455A64"/>
<path d="M151.403 75.1188L162.108 68.9303C162.404 68.7621 162.643 68.8794 162.643 69.2005C162.63 69.3793 162.575 69.5524 162.482 69.7057C162.389 69.8589 162.261 69.988 162.108 70.0824L151.403 76.2709C151.108 76.4391 150.894 76.3218 150.894 76.0007C150.904 75.8243 150.956 75.6528 151.045 75.4998C151.133 75.3467 151.256 75.2163 151.403 75.1188Z" fill="#455A64"/>
<path d="M151.23 78.3152L158.591 74.0689C158.79 73.9517 158.953 74.0332 158.953 74.2524C158.944 74.3747 158.906 74.4932 158.843 74.5984C158.781 74.7037 158.694 74.793 158.591 74.8591L151.23 79.1257C151.031 79.243 150.868 79.1614 150.868 78.9422C150.874 78.8164 150.91 78.6939 150.973 78.5848C151.036 78.4758 151.124 78.3833 151.23 78.3152Z" fill="#E0E0E0"/>
<path d="M151.23 79.8955L158.591 75.6492C158.79 75.532 158.953 75.6136 158.953 75.8328C158.944 75.955 158.906 76.0735 158.843 76.1788C158.781 76.2841 158.694 76.3733 158.591 76.4394L151.23 80.6857C151.031 80.8029 150.868 80.7213 150.868 80.5021C150.877 80.3799 150.915 80.2614 150.977 80.1561C151.04 80.0509 151.127 79.9616 151.23 79.8955Z" fill="#E0E0E0"/>
<path d="M151.23 81.4297L158.591 77.1834C158.79 77.0662 158.953 77.1477 158.953 77.3669C158.944 77.4892 158.906 77.6077 158.843 77.7129C158.781 77.8182 158.694 77.9075 158.591 77.9736L151.23 82.2198C151.031 82.3371 150.868 82.2555 150.868 82.0363C150.877 81.9141 150.915 81.7956 150.977 81.6903C151.04 81.585 151.127 81.4958 151.23 81.4297Z" fill="#E0E0E0"/>
<path d="M132.002 100.428V110.552C132.002 111.312 132.512 111.618 133.19 111.24L146.413 103.594C146.756 103.37 147.042 103.069 147.249 102.715C147.455 102.361 147.575 101.964 147.6 101.555V91.4362C147.6 90.6818 147.091 90.3708 146.413 90.7532L133.159 98.3995C132.823 98.6255 132.543 98.9262 132.342 99.2782C132.142 99.6302 132.025 100.024 132.002 100.428Z" fill="#BED4FF"/>
<path opacity="0.5" d="M132.002 100.428V110.552C132.002 111.312 132.512 111.618 133.19 111.24L146.413 103.594C146.756 103.37 147.042 103.069 147.249 102.715C147.455 102.361 147.575 101.964 147.6 101.555V91.4362C147.6 90.6818 147.091 90.3708 146.413 90.7532L133.159 98.3995C132.823 98.6255 132.543 98.9262 132.342 99.2782C132.142 99.6302 132.025 100.024 132.002 100.428Z" fill="white"/>
<path d="M137.655 104.68V100.25C137.659 100.029 137.746 99.8179 137.899 99.6589C138.053 99.5 138.26 99.4051 138.481 99.3935L142.523 99.2151C142.977 99.2151 143.094 99.4547 142.793 99.7911L138.206 104.889C137.905 105.225 137.655 105.123 137.655 104.68Z" fill="#FAFAFA"/>
<path d="M151.403 88.5919L162.108 82.3983C162.404 82.2301 162.643 82.3525 162.643 82.6685C162.63 82.8473 162.575 83.0204 162.482 83.1737C162.389 83.3269 162.261 83.456 162.108 83.5504L151.403 89.744C151.108 89.9122 150.894 89.7898 150.894 89.4738C150.903 89.2971 150.954 89.1251 151.043 88.9719C151.132 88.8187 151.255 88.6885 151.403 88.5919Z" fill="#455A64"/>
<path d="M151.403 90.891L162.108 84.7026C162.404 84.5343 162.643 84.6516 162.643 84.9727C162.63 85.1515 162.575 85.3246 162.482 85.4779C162.389 85.6311 162.261 85.7602 162.108 85.8546L151.403 92.0431C151.108 92.2164 150.894 92.094 150.894 91.778C150.904 91.6007 150.955 91.4282 151.044 91.2742C151.132 91.1202 151.255 90.989 151.403 90.891Z" fill="#455A64"/>
<path d="M151.403 93.1288L162.108 86.9352C162.404 86.767 162.643 86.8893 162.643 87.2054C162.63 87.3842 162.575 87.5573 162.482 87.7105C162.389 87.8638 162.261 87.9929 162.108 88.0873L151.403 94.2757C151.108 94.449 150.894 94.3267 150.894 94.0106C150.903 93.8339 150.954 93.662 151.043 93.5088C151.132 93.3556 151.255 93.2254 151.403 93.1288Z" fill="#455A64"/>
<path d="M151.23 96.3249L158.591 92.0735C158.79 91.9563 158.953 92.043 158.953 92.2571C158.944 92.3793 158.906 92.4978 158.843 92.6031C158.781 92.7083 158.694 92.7976 158.591 92.8637L151.23 97.115C151.031 97.2272 150.868 97.1456 150.868 96.9264C150.877 96.8049 150.915 96.6871 150.977 96.5827C151.04 96.4782 151.127 96.3899 151.23 96.3249Z" fill="#E0E0E0"/>
<path d="M151.23 97.9052L158.591 93.6539C158.79 93.5366 158.953 93.6233 158.953 93.8374C158.944 93.9596 158.906 94.0781 158.843 94.1834C158.781 94.2887 158.694 94.3779 158.591 94.444L151.23 98.6954C151.031 98.8075 150.868 98.726 150.868 98.5068C150.877 98.3852 150.915 98.2674 150.977 98.163C151.04 98.0585 151.127 97.9702 151.23 97.9052Z" fill="#E0E0E0"/>
<path d="M151.23 99.4344L158.591 95.1881C158.79 95.0708 158.953 95.1524 158.953 95.3716C158.944 95.4938 158.906 95.6123 158.843 95.7176C158.781 95.8229 158.694 95.9121 158.591 95.9782L151.23 100.224C151.031 100.342 150.868 100.26 150.868 100.041C150.877 99.9187 150.915 99.8002 150.977 99.695C151.04 99.5897 151.127 99.5005 151.23 99.4344Z" fill="#E0E0E0"/>
<path d="M132.002 118.448V128.572C132.002 129.327 132.512 129.632 133.19 129.255L146.413 121.609C146.756 121.386 147.043 121.085 147.249 120.731C147.455 120.376 147.576 119.979 147.6 119.57V109.451C147.6 108.697 147.091 108.391 146.413 108.768L133.159 116.414C132.822 116.641 132.542 116.942 132.341 117.295C132.14 117.648 132.024 118.043 132.002 118.448Z" fill="#BED4FF"/>
<path opacity="0.5" d="M132.002 118.448V128.572C132.002 129.327 132.512 129.632 133.19 129.255L146.413 121.609C146.756 121.386 147.043 121.085 147.249 120.731C147.455 120.376 147.576 119.979 147.6 119.57V109.451C147.6 108.697 147.091 108.391 146.413 108.768L133.159 116.414C132.822 116.641 132.542 116.942 132.341 117.295C132.14 117.648 132.024 118.043 132.002 118.448Z" fill="white"/>
<path d="M137.655 122.7V118.275C137.657 118.053 137.744 117.841 137.897 117.681C138.051 117.521 138.26 117.425 138.481 117.414L142.523 117.24C142.977 117.24 143.094 117.475 142.793 117.816L138.206 122.914C137.905 123.25 137.655 123.153 137.655 122.7Z" fill="#FAFAFA"/>
<path d="M151.403 106.612L162.108 100.423C162.404 100.25 162.643 100.372 162.643 100.688C162.631 100.867 162.575 101.04 162.482 101.194C162.389 101.347 162.261 101.476 162.108 101.57L151.403 107.764C151.108 107.932 150.894 107.815 150.894 107.494C150.904 107.317 150.955 107.145 151.044 106.992C151.132 106.839 151.255 106.709 151.403 106.612Z" fill="#455A64"/>
<path d="M151.403 108.916L162.108 102.722C162.404 102.554 162.643 102.676 162.643 102.992C162.63 103.171 162.575 103.344 162.482 103.498C162.389 103.651 162.261 103.78 162.108 103.874L151.403 110.068C151.108 110.236 150.894 110.114 150.894 109.798C150.904 109.621 150.955 109.449 151.044 109.296C151.132 109.143 151.255 109.013 151.403 108.916Z" fill="#455A64"/>
<path d="M151.403 111.149L162.108 104.955C162.404 104.787 162.643 104.909 162.643 105.225C162.631 105.404 162.575 105.578 162.482 105.731C162.389 105.884 162.261 106.013 162.108 106.107L151.403 112.301C151.108 112.469 150.894 112.347 150.894 112.031C150.904 111.854 150.955 111.682 151.044 111.529C151.132 111.376 151.255 111.246 151.403 111.149Z" fill="#455A64"/>
<path d="M151.23 114.345L158.591 110.093C158.79 109.981 158.953 110.063 158.953 110.282C158.944 110.404 158.906 110.521 158.843 110.626C158.78 110.73 158.694 110.818 158.591 110.883L151.23 115.135C151.031 115.252 150.868 115.165 150.868 114.951C150.877 114.829 150.915 114.711 150.977 114.605C151.04 114.5 151.127 114.411 151.23 114.345Z" fill="#E0E0E0"/>
<path d="M151.23 115.925L158.591 111.674C158.79 111.562 158.953 111.643 158.953 111.862C158.944 111.984 158.906 112.102 158.843 112.206C158.78 112.311 158.694 112.399 158.591 112.464L151.23 116.715C151.031 116.832 150.868 116.746 150.868 116.532C150.877 116.409 150.915 116.291 150.977 116.186C151.04 116.08 151.127 115.991 151.23 115.925Z" fill="#E0E0E0"/>
<path d="M151.23 117.454L158.591 113.208C158.79 113.091 158.953 113.177 158.953 113.392C158.944 113.514 158.906 113.632 158.843 113.738C158.781 113.843 158.694 113.932 158.591 113.998L151.23 118.244C151.031 118.362 150.868 118.28 150.868 118.061C150.877 117.939 150.915 117.82 150.977 117.715C151.04 117.61 151.127 117.52 151.23 117.454Z" fill="#E0E0E0"/>
<path d="M49.6811 167.181L89.6563 144.099C90.3088 143.722 90.844 143.992 90.8389 144.701C90.8097 145.1 90.6869 145.486 90.4805 145.829C90.2742 146.172 89.9901 146.461 89.6512 146.674L49.6811 169.756C49.0286 170.133 48.4933 169.863 48.4933 169.154C48.5226 168.755 48.6454 168.369 48.8517 168.026C49.058 167.683 49.3422 167.394 49.6811 167.181Z" fill="#455A64"/>
<path d="M49.1611 171.84L71.5905 158.908C71.9626 158.694 72.2582 158.842 72.2582 159.244C72.241 159.468 72.1716 159.684 72.0556 159.877C71.9397 160.069 71.7804 160.231 71.5905 160.35L49.1866 173.283C48.8196 173.497 48.5188 173.344 48.5188 172.946C48.5332 172.725 48.5987 172.51 48.7101 172.318C48.8216 172.126 48.9759 171.963 49.1611 171.84Z" fill="#E0E0E0"/>
<path d="M57.8881 171.326L86.5213 154.799C87.1738 154.417 87.709 154.687 87.709 155.401C87.6797 155.8 87.557 156.186 87.3506 156.529C87.1443 156.872 86.8602 157.161 86.5213 157.373L57.8881 173.9C57.2306 174.277 56.7004 174.012 56.7004 173.298C56.7297 172.899 56.8525 172.513 57.0588 172.17C57.2651 171.827 57.5492 171.538 57.8881 171.326Z" fill="#455A64"/>
<path d="M57.3631 175.98L68.43 169.592C68.8021 169.378 69.0977 169.531 69.0977 169.929C69.0817 170.153 69.0128 170.37 68.8967 170.562C68.7806 170.754 68.6207 170.916 68.43 171.035L57.3631 177.422C56.9961 177.631 56.7004 177.483 56.7004 177.086C56.7159 176.862 56.784 176.645 56.8992 176.453C57.0143 176.261 57.1733 176.099 57.3631 175.98Z" fill="#E0E0E0"/>
<path d="M51.5875 174.262C50.6795 174.854 49.9238 175.652 49.3817 176.591C48.8397 177.529 48.5266 178.583 48.4678 179.665C48.4678 181.653 49.8646 182.464 51.5875 181.465C52.4962 180.873 53.2523 180.075 53.7944 179.137C54.3365 178.198 54.6493 177.144 54.7073 176.061C54.7073 174.073 53.3105 173.268 51.5875 174.262Z" fill="#BED4FF"/>
<path d="M51.2256 177.432C51.1272 177.436 51.0298 177.411 50.9452 177.361C50.8436 177.294 50.7619 177.201 50.709 177.092C50.656 176.982 50.6337 176.86 50.6445 176.739C50.6584 176.453 50.7406 176.175 50.8843 175.928C51.028 175.68 51.2289 175.471 51.4703 175.317C51.5695 175.247 51.686 175.205 51.8073 175.196C51.9286 175.187 52.05 175.211 52.1585 175.266C52.2601 175.333 52.3418 175.426 52.3947 175.535C52.4477 175.645 52.47 175.767 52.4592 175.888C52.4455 176.173 52.3638 176.451 52.2211 176.698C52.0784 176.946 51.8786 177.155 51.6385 177.31C51.5137 177.386 51.3715 177.428 51.2256 177.432Z" fill="white"/>
<path d="M52.8466 177.642C52.6724 177.555 52.478 177.518 52.2841 177.533C52.0902 177.548 51.9041 177.616 51.7456 177.728L51.297 177.988C50.8852 178.252 50.5426 178.61 50.2978 179.033C50.053 179.456 49.9132 179.932 49.89 180.42V180.741C50.1684 180.863 50.4737 180.91 50.7759 180.878C51.078 180.845 51.3665 180.735 51.613 180.557C52.3312 180.112 52.9241 179.491 53.336 178.753V178.676C53.3533 178.476 53.3171 178.275 53.2311 178.093C53.1451 177.911 53.0125 177.755 52.8466 177.642Z" fill="white"/>
<path d="M105.403 145.302L118.626 137.656C119.283 137.279 119.819 137.585 119.819 138.344V140.745C119.793 141.155 119.672 141.552 119.465 141.906C119.257 142.261 118.97 142.561 118.626 142.784L105.403 150.431C104.745 150.808 104.215 150.502 104.215 149.742V147.341C104.24 146.932 104.361 146.535 104.567 146.181C104.773 145.827 105.059 145.526 105.403 145.302Z" fill="#BED4FF"/>
<path opacity="0.7" d="M105.403 145.302L118.626 137.656C119.283 137.279 119.819 137.585 119.819 138.344V140.745C119.793 141.155 119.672 141.552 119.465 141.906C119.257 142.261 118.97 142.561 118.626 142.784L105.403 150.431C104.745 150.808 104.215 150.502 104.215 149.742V147.341C104.24 146.932 104.361 146.535 104.567 146.181C104.773 145.827 105.059 145.526 105.403 145.302Z" fill="white"/>
<path d="M124.651 136.616V135.826C124.651 134.929 124.106 134.511 123.428 134.903C123.056 135.17 122.751 135.52 122.539 135.925C122.326 136.331 122.212 136.78 122.204 137.238V137.947C122.19 138.433 122.05 138.907 121.797 139.323C121.736 139.434 121.702 139.558 121.7 139.685C121.7 139.914 121.837 140.016 122.006 139.919L124.86 138.268C124.955 138.202 125.032 138.114 125.086 138.012C125.14 137.91 125.169 137.797 125.171 137.681C125.175 137.637 125.169 137.593 125.153 137.551C125.137 137.509 125.112 137.472 125.079 137.442C124.935 137.361 124.818 137.24 124.742 137.093C124.666 136.946 124.634 136.78 124.651 136.616Z" fill="#455A64"/>
<path d="M124.014 138.997C124.012 139.217 123.958 139.433 123.856 139.628C123.754 139.823 123.607 139.991 123.428 140.118C123.107 140.307 122.842 140.118 122.842 139.675L124.014 138.997Z" fill="#455A64"/>
<path d="M100.667 140.485C100.641 140.669 100.546 140.837 100.402 140.954C100.431 141.025 100.444 141.102 100.443 141.178C100.431 141.289 100.394 141.396 100.334 141.49C100.273 141.584 100.192 141.662 100.096 141.719L98.5414 142.621V140.582C98.5414 140.546 98.9696 139.608 99.0053 139.466C99.0257 139.225 99.0257 138.983 99.0053 138.742C99.0438 138.67 99.1053 138.612 99.1801 138.579C99.2549 138.546 99.3387 138.538 99.4182 138.558C99.4608 138.579 99.4937 138.616 99.5099 138.66C99.5552 138.763 99.5877 138.871 99.6068 138.981C99.6267 139.176 99.6146 139.372 99.5711 139.563L100.514 139.017C100.54 138.998 100.571 138.985 100.603 138.981C100.635 138.977 100.667 138.98 100.698 138.992C100.73 139.015 100.755 139.045 100.772 139.081C100.789 139.117 100.797 139.156 100.795 139.196C100.788 139.344 100.734 139.487 100.642 139.603C100.642 139.603 100.83 139.547 100.83 139.797C100.825 139.886 100.802 139.973 100.763 140.052C100.723 140.132 100.668 140.203 100.601 140.261C100.601 140.261 100.667 140.297 100.667 140.485Z" fill="#BED4FF"/>
<path d="M98.3171 142.488V142.922C98.3153 142.952 98.3066 142.982 98.2916 143.008C98.2765 143.035 98.2556 143.058 98.2304 143.075L97.7207 143.365C97.6923 143.373 97.6624 143.373 97.634 143.365V141.031L98.0418 140.796L98.2865 140.653C98.2933 140.684 98.2933 140.715 98.2865 140.745L98.3171 142.488Z" fill="#BED4FF"/>
<path d="M111.698 132.528C111.699 132.497 111.692 132.466 111.677 132.439C111.662 132.412 111.641 132.389 111.615 132.372C111.588 132.356 111.558 132.347 111.527 132.345C111.497 132.344 111.466 132.351 111.438 132.365C111.464 132.277 111.477 132.186 111.479 132.095C111.479 131.921 111.336 131.835 111.132 131.952L109.578 132.849V134.888C109.748 135.069 109.904 135.261 110.047 135.464C110.067 135.707 110.067 135.951 110.047 136.193C110.047 136.27 110.296 136.157 110.459 135.897C110.496 135.832 110.527 135.764 110.551 135.694C110.593 135.552 110.624 135.407 110.643 135.26C110.667 135.078 110.657 134.893 110.612 134.715L111.55 134.174C111.628 134.131 111.692 134.065 111.734 133.986C111.792 133.892 111.825 133.785 111.831 133.675C111.831 133.486 111.729 133.446 111.678 133.44C111.735 133.389 111.781 133.326 111.814 133.256C111.846 133.186 111.864 133.11 111.866 133.033C111.866 132.89 111.78 132.783 111.637 132.834C111.68 132.738 111.701 132.633 111.698 132.528Z" fill="#BED4FF"/>
<path d="M109.353 133.236V132.808C109.353 132.752 109.313 132.727 109.262 132.757L108.752 133.043C108.718 133.067 108.688 133.094 108.66 133.124V135.459L109.073 135.224L109.313 135.082C109.327 135.044 109.335 135.005 109.338 134.964L109.353 133.236Z" fill="#BED4FF"/>
<path d="M123.703 125.972L121.99 125.463V126.37C121.312 126.658 120.728 127.13 120.303 127.731C119.36 129.138 120.043 129.943 120.359 129.999C120.359 129.999 119.849 129.658 120.41 128.649C120.792 128.091 121.347 127.675 121.99 127.466V128.486L123.703 125.972Z" fill="#BED4FF"/>
<path d="M103.175 137.284L105.255 136.086C105.912 135.704 106.443 135.974 106.443 136.688C106.413 137.087 106.291 137.473 106.084 137.816C105.878 138.158 105.594 138.448 105.255 138.66L103.175 139.858C102.517 140.241 101.987 139.97 101.987 139.257C102.017 138.858 102.139 138.471 102.346 138.129C102.552 137.786 102.836 137.497 103.175 137.284Z" fill="#E0E0E0"/>
<path d="M114.318 130.851L116.398 129.648C117.056 129.27 117.586 129.541 117.586 130.249C117.557 130.648 117.434 131.035 117.228 131.377C117.021 131.72 116.737 132.009 116.398 132.222L114.318 133.425C113.661 133.802 113.131 133.537 113.131 132.824C113.16 132.425 113.283 132.038 113.489 131.695C113.695 131.353 113.979 131.063 114.318 130.851Z" fill="#E0E0E0"/>
<path d="M51.7506 105.123L126.344 62.0588C127.001 61.6765 127.531 61.9875 127.531 62.7419V115.894C127.507 116.303 127.386 116.701 127.18 117.055C126.974 117.409 126.687 117.71 126.344 117.933L51.7506 161.018C51.0982 161.4 50.5629 161.09 50.5629 160.335V107.162C50.5888 106.753 50.7096 106.356 50.9158 106.002C51.122 105.648 51.4078 105.347 51.7506 105.123Z" fill="#455A64"/>
<path opacity="0.3" d="M60.3706 152.577L115.119 121.099C115.47 120.895 115.761 121.043 115.761 121.425C115.744 121.641 115.678 121.849 115.566 122.034C115.454 122.219 115.301 122.375 115.119 122.491L60.3706 153.968C60.0138 154.172 59.7283 154.024 59.7283 153.642C59.7438 153.426 59.8101 153.217 59.9217 153.032C60.0334 152.847 60.1872 152.691 60.3706 152.577Z" fill="white"/>
<path d="M60.3706 152.577L109.731 124.209C110.087 124.005 110.373 124.153 110.373 124.535C110.357 124.751 110.291 124.96 110.179 125.145C110.068 125.33 109.914 125.486 109.731 125.6L60.3706 153.968C60.0138 154.172 59.7283 154.024 59.7283 153.642C59.7438 153.426 59.8101 153.218 59.9217 153.032C60.0334 152.847 60.1872 152.691 60.3706 152.577Z" fill="white"/>
<path d="M53.6724 156.522V157.889C53.6711 157.922 53.6616 157.955 53.6447 157.985C53.6278 158.014 53.6041 158.039 53.5756 158.057L53.3105 158.21C53.3009 158.217 53.2895 158.221 53.2777 158.221C53.2658 158.222 53.2541 158.219 53.2438 158.213C53.2335 158.207 53.2252 158.198 53.2199 158.188C53.2145 158.177 53.2123 158.165 53.2136 158.154V156.787C53.2161 156.754 53.2262 156.721 53.2429 156.692C53.2597 156.663 53.2828 156.638 53.3105 156.619L53.5756 156.466C53.6316 156.436 53.6724 156.461 53.6724 156.522Z" fill="white"/>
<path d="M54.59 155.992V157.358C54.5886 157.392 54.5791 157.425 54.5623 157.454C54.5454 157.484 54.5217 157.508 54.4931 157.526L54.2331 157.679C54.1771 157.71 54.1312 157.679 54.1312 157.623V156.257C54.1335 156.223 54.144 156.19 54.1617 156.161C54.1794 156.131 54.2039 156.107 54.2331 156.089L54.4931 155.936C54.5492 155.905 54.59 155.931 54.59 155.992Z" fill="white"/>
<path d="M58.2398 153.927V155.294C58.2373 155.327 58.2273 155.36 58.2106 155.389C58.1938 155.418 58.1707 155.443 58.143 155.462L58.0257 155.533C57.9697 155.564 57.9289 155.533 57.9289 155.477V154.111C57.9302 154.077 57.9397 154.044 57.9566 154.015C57.9735 153.986 57.9972 153.961 58.0257 153.943L58.143 153.871C58.1526 153.864 58.164 153.86 58.1758 153.86C58.1877 153.859 58.1994 153.862 58.2097 153.868C58.2199 153.874 58.2283 153.883 58.2336 153.893C58.239 153.904 58.2411 153.916 58.2398 153.927Z" fill="white"/>
<path d="M56.313 154.988V156.329C56.313 156.426 56.3639 156.446 56.4302 156.369L57.6638 154.947C57.7301 154.871 57.6995 154.81 57.6026 154.81H56.4914C56.4441 154.81 56.3987 154.828 56.3652 154.862C56.3318 154.895 56.313 154.941 56.313 154.988Z" fill="white"/>
<path d="M122.174 117.271C122.132 117.271 122.092 117.254 122.062 117.225C122.032 117.195 122.016 117.155 122.016 117.113V116.664C122.016 116.637 122.023 116.611 122.036 116.588C122.05 116.565 122.069 116.545 122.092 116.532L122.821 116.114C122.838 116.103 122.858 116.096 122.878 116.093C122.898 116.09 122.918 116.091 122.938 116.096C122.957 116.102 122.976 116.111 122.992 116.124C123.007 116.136 123.021 116.152 123.03 116.17C123.049 116.205 123.054 116.247 123.043 116.285C123.033 116.324 123.008 116.358 122.974 116.379L122.327 116.751V117.113C122.327 117.154 122.311 117.193 122.282 117.223C122.254 117.252 122.215 117.27 122.174 117.271Z" fill="#FAFAFA"/>
<path d="M125.477 115.364C125.436 115.364 125.397 115.348 125.369 115.319C125.34 115.291 125.324 115.252 125.324 115.211V115.023L124.814 115.308C124.797 115.318 124.778 115.325 124.758 115.327C124.738 115.33 124.718 115.329 124.698 115.323C124.679 115.318 124.661 115.309 124.645 115.297C124.629 115.285 124.615 115.269 124.605 115.252C124.595 115.235 124.587 115.216 124.584 115.195C124.581 115.175 124.583 115.155 124.588 115.135C124.593 115.116 124.602 115.097 124.615 115.081C124.628 115.066 124.643 115.053 124.661 115.043L125.385 114.625C125.408 114.61 125.434 114.602 125.462 114.602C125.489 114.602 125.515 114.61 125.538 114.625C125.562 114.638 125.582 114.657 125.596 114.68C125.609 114.704 125.616 114.73 125.615 114.758V115.211C125.615 115.249 125.601 115.286 125.575 115.314C125.55 115.343 125.515 115.36 125.477 115.364Z" fill="#FAFAFA"/>
<path d="M122.174 119.325C122.149 119.331 122.122 119.331 122.097 119.325C122.073 119.312 122.053 119.293 122.039 119.27C122.025 119.247 122.017 119.22 122.016 119.193V118.739C122.022 118.703 122.041 118.67 122.07 118.646C122.098 118.622 122.134 118.609 122.171 118.609C122.208 118.609 122.244 118.622 122.272 118.646C122.301 118.67 122.32 118.703 122.327 118.739V118.887L122.836 118.602C122.872 118.583 122.913 118.578 122.952 118.588C122.991 118.599 123.024 118.623 123.045 118.658C123.065 118.694 123.07 118.736 123.059 118.776C123.049 118.815 123.024 118.85 122.989 118.872L122.265 119.29C122.238 119.309 122.207 119.321 122.174 119.325Z" fill="#FAFAFA"/>
<path d="M124.753 117.837C124.719 117.837 124.687 117.826 124.66 117.805C124.633 117.785 124.614 117.756 124.605 117.723C124.596 117.691 124.599 117.656 124.612 117.625C124.625 117.594 124.647 117.568 124.677 117.551L125.324 117.174V116.812C125.324 116.772 125.34 116.733 125.369 116.704C125.397 116.675 125.436 116.659 125.477 116.659C125.518 116.659 125.556 116.675 125.585 116.704C125.614 116.733 125.63 116.772 125.63 116.812V117.266C125.631 117.293 125.624 117.32 125.611 117.343C125.597 117.367 125.577 117.386 125.553 117.398L124.83 117.816C124.807 117.83 124.78 117.837 124.753 117.837Z" fill="#FAFAFA"/>
<path d="M120.512 118.927H120.486H120.191C120.184 118.928 120.178 118.928 120.172 118.926C120.165 118.924 120.16 118.92 120.155 118.916C120.15 118.912 120.146 118.906 120.144 118.9C120.141 118.894 120.14 118.888 120.14 118.882C120.142 118.836 120.142 118.79 120.14 118.744C120.14 118.693 120.14 118.642 120.14 118.596C120.139 118.564 120.15 118.534 120.17 118.509L120.497 118.112C120.503 118.099 120.507 118.085 120.507 118.071C120.507 118.057 120.503 118.043 120.497 118.03L120.344 117.684C120.344 117.684 120.313 117.684 120.298 117.684L119.946 118.005C119.934 118.013 119.92 118.018 119.905 118.018C119.891 118.018 119.876 118.013 119.865 118.005C119.821 117.967 119.771 117.938 119.717 117.918C119.705 117.914 119.694 117.905 119.688 117.894C119.681 117.883 119.679 117.87 119.681 117.857L119.788 117.347C119.788 117.347 119.788 117.322 119.788 117.312H119.757L119.411 117.347C119.396 117.349 119.381 117.355 119.369 117.364C119.357 117.373 119.347 117.385 119.339 117.398L119.151 117.908C119.136 117.942 119.109 117.97 119.074 117.984C119.001 118.019 118.931 118.06 118.865 118.107C118.835 118.107 118.804 118.107 118.789 118.107L118.616 117.842C118.616 117.842 118.575 117.842 118.549 117.842L118.172 118.239C118.151 118.263 118.14 118.294 118.142 118.326L118.249 118.683C118.258 118.709 118.258 118.738 118.249 118.764C118.187 118.866 118.126 118.963 118.075 119.07C118.056 119.1 118.027 119.121 117.994 119.131L117.673 119.208C117.656 119.211 117.64 119.219 117.627 119.229C117.614 119.24 117.603 119.253 117.596 119.269L117.433 119.814C117.431 119.821 117.431 119.827 117.433 119.833C117.434 119.839 117.437 119.845 117.441 119.85C117.445 119.855 117.45 119.859 117.455 119.862C117.461 119.864 117.467 119.866 117.474 119.865H117.769C117.783 119.865 117.796 119.871 117.805 119.88C117.815 119.89 117.82 119.903 117.82 119.916C117.81 120.01 117.81 120.104 117.82 120.197C117.82 120.228 117.81 120.259 117.79 120.283L117.458 120.686C117.452 120.699 117.448 120.713 117.448 120.727C117.448 120.741 117.452 120.755 117.458 120.768L117.616 121.114C117.616 121.114 117.642 121.114 117.657 121.114L118.009 120.793C118.02 120.784 118.033 120.78 118.047 120.78C118.061 120.78 118.075 120.784 118.085 120.793C118.13 120.83 118.18 120.861 118.233 120.885C118.246 120.889 118.257 120.897 118.263 120.908C118.27 120.92 118.272 120.933 118.269 120.946L118.162 121.456C118.162 121.456 118.162 121.481 118.162 121.492H118.193L118.539 121.456C118.555 121.455 118.571 121.45 118.584 121.441C118.598 121.432 118.608 121.419 118.616 121.405L118.799 120.895C118.817 120.864 118.843 120.839 118.876 120.824L118.983 120.763L119.09 120.701C119.09 120.701 119.151 120.676 119.161 120.701L119.339 120.972C119.348 120.977 119.358 120.979 119.368 120.979C119.377 120.979 119.387 120.977 119.396 120.972L119.773 120.574C119.784 120.564 119.792 120.551 119.798 120.537C119.803 120.523 119.805 120.507 119.803 120.492L119.696 120.136C119.687 120.107 119.687 120.077 119.696 120.049C119.761 119.953 119.819 119.852 119.87 119.748C119.888 119.718 119.917 119.697 119.951 119.687L120.277 119.611C120.308 119.611 120.344 119.575 120.349 119.549L120.512 118.999C120.521 118.999 120.53 118.995 120.537 118.988C120.544 118.982 120.548 118.973 120.548 118.963C120.548 118.954 120.544 118.945 120.537 118.938C120.53 118.931 120.521 118.927 120.512 118.927ZM118.784 120.263H118.656C118.587 120.262 118.518 120.241 118.46 120.202C118.402 120.163 118.357 120.108 118.33 120.044C118.305 119.987 118.289 119.927 118.284 119.865C118.282 119.831 118.282 119.797 118.284 119.763C118.303 119.397 118.453 119.05 118.707 118.785C118.784 118.703 118.871 118.633 118.967 118.576L119.054 118.53C119.131 118.495 119.214 118.478 119.299 118.479H119.339C119.4 118.487 119.456 118.511 119.504 118.549C119.552 118.586 119.588 118.636 119.61 118.693C119.664 118.916 119.658 119.15 119.593 119.37C119.527 119.59 119.405 119.789 119.238 119.947C119.12 120.094 118.963 120.204 118.784 120.263Z" fill="white"/>
<path d="M102.176 81.1134C103.787 80.1806 105.097 80.935 105.097 82.7956C105.041 83.8086 104.747 84.7942 104.24 85.6727C103.733 86.5512 103.025 87.2979 102.176 87.8524C100.565 88.7853 99.255 88.0309 99.255 86.1651C99.3105 85.1528 99.6038 84.1677 100.111 83.29C100.619 82.4123 101.326 81.6666 102.176 81.1134Z" fill="#BED4FF"/>
<path d="M104.248 82.2845V89.5429L102.923 90.3174V84.5157L102.886 84.5372L101.451 86.418V85.0571L103.002 83.0126L104.248 82.2845Z" fill="#455A64"/>
<path d="M108.716 78.7941L122.882 70.638C123.275 70.4137 123.586 70.5717 123.586 70.9948C123.57 71.2306 123.497 71.4591 123.375 71.6612C123.253 71.8634 123.084 72.0334 122.882 72.1571L108.716 80.3132C108.329 80.5375 108.013 80.3795 108.013 79.9564C108.032 79.7215 108.106 79.4945 108.228 79.2928C108.35 79.0912 108.517 78.9206 108.716 78.7941Z" fill="#BED4FF"/>
<path d="M108.497 81.5265L118.218 75.9192C118.483 75.7662 118.702 75.8733 118.702 76.1638C118.691 76.3262 118.642 76.4836 118.557 76.6228C118.473 76.7621 118.357 76.8791 118.218 76.9642L108.497 82.5715C108.232 82.7244 108.013 82.6174 108.013 82.3268C108.024 82.1645 108.073 82.0071 108.158 81.8678C108.242 81.7286 108.358 81.6116 108.497 81.5265Z" fill="#E0E0E0"/>
<path d="M102.176 91.232C103.787 90.3042 105.097 91.0587 105.097 92.9193C105.041 93.9323 104.747 94.9179 104.24 95.7964C103.733 96.6749 103.025 97.4216 102.176 97.9761C100.565 98.9038 99.255 98.1494 99.255 96.2888C99.3109 95.2758 99.6044 94.2902 100.112 93.4117C100.619 92.5332 101.326 91.7865 102.176 91.232Z" fill="#BED4FF"/>
<path d="M101.522 101.26V100.155L103.752 96.4584C103.942 96.1349 104.101 95.8505 104.229 95.6052C104.36 95.3588 104.459 95.1344 104.526 94.932C104.593 94.7273 104.627 94.5292 104.627 94.3378C104.627 94.1252 104.585 93.9665 104.502 93.8618C104.418 93.7548 104.304 93.7022 104.159 93.7042C104.014 93.7038 103.85 93.7573 103.666 93.8646C103.475 93.9767 103.307 94.1193 103.165 94.2926C103.022 94.4659 102.912 94.659 102.834 94.8721C102.757 95.0852 102.718 95.3075 102.718 95.539L101.46 96.2742C101.46 95.7993 101.553 95.3327 101.739 94.8745C101.924 94.4163 102.184 93.9937 102.519 93.6068C102.854 93.2198 103.239 92.8988 103.676 92.6436C104.124 92.3812 104.515 92.245 104.847 92.2349C105.182 92.2213 105.442 92.3221 105.628 92.5373C105.813 92.7524 105.906 93.0691 105.906 93.4874C105.906 93.7614 105.859 94.0594 105.765 94.3812C105.673 94.7019 105.509 95.0944 105.273 95.5588C105.036 96.0208 104.703 96.6045 104.272 97.3097L103.357 98.883V98.9326L105.989 97.3943V98.6489L101.522 101.26Z" fill="#455A64"/>
<path d="M108.716 88.9127L122.882 80.7566C123.275 80.5323 123.586 80.6903 123.586 81.1083C123.57 81.3447 123.497 81.5739 123.375 81.7769C123.253 81.9799 123.084 82.1508 122.882 82.2756L108.716 90.4369C108.329 90.6612 108.013 90.5031 108.013 90.08C108.032 89.8443 108.105 89.6162 108.227 89.4137C108.349 89.2111 108.517 89.0396 108.716 88.9127Z" fill="#BED4FF"/>
<path d="M108.497 91.6502L118.218 86.0429C118.483 85.8849 118.702 85.997 118.702 86.2825C118.691 86.4449 118.642 86.6022 118.557 86.7415C118.473 86.8807 118.357 86.9977 118.218 87.0828L108.497 92.6902C108.232 92.8431 108.013 92.7309 108.013 92.4455C108.024 92.284 108.074 92.1276 108.159 91.9893C108.243 91.8511 108.359 91.7348 108.497 91.6502Z" fill="#E0E0E0"/>
<path d="M102.176 101.356C103.787 100.423 105.097 101.178 105.097 103.043C105.041 104.056 104.748 105.041 104.24 105.918C103.733 106.796 103.026 107.542 102.176 108.095C100.565 109.028 99.255 108.273 99.255 106.413C99.3109 105.4 99.6044 104.414 100.112 103.536C100.619 102.657 101.326 101.911 102.176 101.356Z" fill="#BED4FF"/>
<path d="M103.838 110.13C103.381 110.397 102.974 110.544 102.617 110.57C102.262 110.594 101.982 110.505 101.776 110.304C101.572 110.099 101.466 109.788 101.46 109.368L102.794 108.588C102.803 108.761 102.853 108.887 102.944 108.968C103.038 109.046 103.163 109.076 103.318 109.059C103.473 109.041 103.647 108.976 103.841 108.863C104.043 108.745 104.221 108.599 104.376 108.426C104.531 108.252 104.653 108.067 104.74 107.869C104.828 107.671 104.872 107.477 104.872 107.285C104.872 107.091 104.825 106.948 104.731 106.854C104.639 106.756 104.507 106.715 104.333 106.732C104.162 106.747 103.958 106.824 103.721 106.962L103.137 107.303V106.176L103.721 105.835C103.921 105.718 104.098 105.575 104.251 105.405C104.406 105.234 104.526 105.052 104.612 104.861C104.697 104.666 104.74 104.474 104.74 104.282C104.74 104.1 104.703 103.963 104.627 103.87C104.554 103.773 104.45 103.726 104.315 103.726C104.182 103.726 104.027 103.778 103.85 103.881C103.67 103.986 103.506 104.12 103.357 104.283C103.208 104.443 103.089 104.618 102.999 104.807C102.91 104.997 102.862 105.186 102.856 105.373L101.586 106.116C101.592 105.694 101.695 105.265 101.895 104.829C102.095 104.394 102.364 103.987 102.703 103.609C103.043 103.228 103.428 102.912 103.856 102.662C104.289 102.409 104.667 102.279 104.991 102.271C105.316 102.264 105.567 102.362 105.747 102.567C105.928 102.768 106.018 103.06 106.016 103.444C106.018 103.849 105.909 104.252 105.689 104.653C105.471 105.052 105.186 105.391 104.835 105.669V105.726C105.296 105.525 105.647 105.505 105.888 105.667C106.13 105.825 106.251 106.131 106.249 106.583C106.251 106.995 106.148 107.423 105.94 107.866C105.734 108.308 105.449 108.727 105.086 109.123C104.723 109.52 104.307 109.855 103.838 110.13Z" fill="#455A64"/>
<path d="M108.716 99.0366L122.882 90.8499C123.275 90.6256 123.586 90.7887 123.586 91.2067C123.569 91.4431 123.497 91.6721 123.374 91.875C123.252 92.0779 123.083 92.2489 122.882 92.3741L108.716 100.561C108.329 100.785 108.013 100.622 108.013 100.204C108.032 99.9682 108.105 99.7401 108.227 99.5376C108.349 99.335 108.517 99.1635 108.716 99.0366Z" fill="#BED4FF"/>
<path d="M108.497 101.774L118.218 96.1667C118.483 96.0138 118.702 96.1259 118.702 96.4114C118.691 96.5738 118.642 96.7311 118.557 96.8704C118.473 97.0096 118.357 97.1266 118.218 97.2117L108.497 102.819C108.232 102.977 108.013 102.865 108.013 102.579C108.023 102.416 108.072 102.258 108.156 102.118C108.241 101.977 108.357 101.86 108.497 101.774Z" fill="#E0E0E0"/>
<path d="M89.5492 114.87C86.1033 115.288 76.8308 115.619 76.8308 115.619C70.7137 112.933 65.9321 107.04 65.3255 100.398L65.0604 97.5378C64.5507 92.114 68.4503 87.0521 73.6448 85.4209C75.1676 84.9259 76.7824 84.7803 78.3692 84.9948C79.9561 85.2092 81.4742 85.7783 82.8111 86.6597C84.1479 87.5412 85.2691 88.7123 86.0914 90.0863C86.9137 91.4603 87.4161 93.0018 87.5612 94.5965C87.6886 96.0034 88.0709 97.2473 89.2077 98.1648C89.8431 98.6195 90.527 99.0025 91.2467 99.3067C92.2813 99.7607 93.2232 100.402 94.0249 101.198C94.4221 101.599 94.7326 102.077 94.9369 102.604C95.1412 103.13 95.2351 103.692 95.2126 104.256C95.1318 104.982 94.8473 105.669 94.3919 106.239C94.3053 106.322 94.2541 106.436 94.2492 106.555C94.2675 106.639 94.308 106.717 94.3664 106.78C95.4216 108.131 95.9773 109.996 95.3452 111.587C94.9051 112.584 94.132 113.396 93.1583 113.886C92.1858 114.369 91.1374 114.681 90.059 114.808L89.5492 114.87Z" fill="#263238"/>
<path d="M119.37 105.256C119.19 105.009 118.983 104.783 118.753 104.583C118.351 104.211 117.795 103.869 117.28 104.073C116.978 104.222 116.729 104.461 116.566 104.756C116.24 105.235 115.853 105.679 115.547 106.173C115.128 106.895 114.646 107.577 114.104 108.212C113.875 108.488 113.544 108.865 113.151 108.748C113.081 108.728 113.017 108.689 112.968 108.635C112.925 108.578 112.897 108.512 112.886 108.442C112.838 108.101 112.857 107.755 112.942 107.422C113.024 107.087 113.024 106.737 112.942 106.403C112.895 106.238 112.797 106.094 112.66 105.991C112.524 105.888 112.358 105.832 112.188 105.832C112.092 105.837 112.003 105.879 111.938 105.949C111.893 105.998 111.859 106.055 111.836 106.117C111.169 107.437 110.684 108.842 110.393 110.292C110.327 110.934 110.211 111.57 110.047 112.193C109.613 113.539 108.038 114.233 106.932 115.012C104.523 116.599 102.036 118.062 99.4793 119.396C98.2253 118.295 90.3037 111.383 88.1168 109.558C84.9665 106.938 81.6225 108.11 81.1688 108.146C80.7151 108.182 80.1136 111.205 83.8195 115.588C83.8195 115.588 95.3757 125.366 97.583 126.635C98.1284 126.946 98.8676 127.593 99.7597 127.558H99.7903H99.9024C100.022 127.548 100.14 127.524 100.254 127.486C101.35 127.134 102.915 125.779 103.573 125.269C106.886 122.602 110.061 119.768 113.085 116.776C113.946 115.94 114.925 115.247 115.858 114.487C117.083 113.558 118.121 112.404 118.916 111.087C119.523 110.161 119.892 109.101 119.992 107.998C120.105 107.04 119.886 106.072 119.37 105.256Z" fill="#FFA8A7"/>
<path d="M68.8683 131.778C66.1411 137.895 65.4784 141.464 65.2643 144.792C65.0502 148.121 65.3663 153.158 65.3663 153.158L89.4422 139.277C88.9066 135.885 88.116 132.538 87.0769 129.265L68.8683 131.778Z" fill="#BED4FF"/>
<path d="M87.1126 121.7L86.9698 128.011C87.2859 129.25 87.7905 131.274 88.3564 133.109C87.9995 134.225 85.3641 137.228 79.7669 139.088C73.8538 141.056 67.1097 139.027 66.3603 137.559L68.7052 131.62C68.7052 131.62 66.6662 123.745 66.6356 123.648C66.605 123.551 68.8224 120.35 68.9703 116.511C69.1181 112.673 68.0578 111.026 67.7214 110.659C67.8743 110.593 71.3254 109.64 71.3254 109.64L78.2071 108.263L81.4441 108.054C84.1407 109.436 86.3251 111.644 87.6784 114.355C88.3041 115.503 88.5837 116.808 88.4832 118.111C88.3828 119.415 87.9067 120.662 87.1126 121.7Z" fill="#FAFAFA"/>
<path d="M83.1976 90.0342C83.9164 90.7682 85.3692 92.5269 85.2367 98.904C85.099 104.313 83.3455 105.643 82.4636 106.041C81.5817 106.438 79.8842 106.183 78.2377 105.908V108.544C78.2377 108.544 80.5724 110.17 81.1586 111.643C81.6174 112.79 78.7016 114.39 74.2769 112.484C72.4672 111.704 71.0093 109.721 71.0093 109.721L71.0654 101.912C71.0654 101.912 70.0917 102.85 68.4503 101.402C67.0944 100.214 66.6407 98.2056 67.701 97.1351C67.9764 96.8804 68.3084 96.6947 68.6696 96.5934C69.0308 96.492 69.4109 96.4778 69.7787 96.5519C70.1465 96.6261 70.4914 96.7865 70.7851 97.0199C71.0788 97.2533 71.3128 97.5531 71.4681 97.8947C73.7355 97.9295 75.9704 97.3519 77.9369 96.2226C81.4186 94.2958 82.9631 92.1344 83.1976 90.0342Z" fill="#FFA8A7"/>
<path d="M79.0992 97.9305C79.1 98.0633 79.0618 98.1933 78.9894 98.3046C78.917 98.4158 78.8135 98.5034 78.6918 98.5563C78.57 98.6093 78.4354 98.6254 78.3047 98.6026C78.1739 98.5797 78.0527 98.519 77.9561 98.428C77.8595 98.3369 77.7918 98.2195 77.7613 98.0903C77.7309 97.9611 77.739 97.8258 77.7847 97.7011C77.8305 97.5765 77.9118 97.4681 78.0186 97.3892C78.1254 97.3104 78.253 97.2646 78.3855 97.2576C78.4766 97.2549 78.5673 97.2702 78.6524 97.3025C78.7376 97.3349 78.8155 97.3837 78.8818 97.4462C78.9481 97.5087 79.0014 97.5836 79.0387 97.6667C79.076 97.7498 79.0965 97.8395 79.0992 97.9305Z" fill="#263238"/>
<path d="M78.5792 101.937L81.128 102.401C81.1051 102.571 81.0483 102.734 80.9609 102.881C80.8736 103.028 80.7574 103.156 80.6194 103.258C80.4815 103.359 80.3245 103.432 80.1579 103.471C79.9913 103.51 79.8184 103.516 79.6497 103.487C79.3053 103.417 79.0012 103.217 78.8015 102.928C78.6018 102.639 78.5221 102.284 78.5792 101.937Z" fill="#B16668"/>
<path d="M79.6548 103.487C79.8229 103.522 79.9965 103.522 80.1646 103.487C80.1515 103.201 80.0288 102.93 79.822 102.732C79.6151 102.534 79.3399 102.422 79.0533 102.421C78.899 102.42 78.746 102.451 78.6047 102.513C78.6698 102.758 78.803 102.98 78.9889 103.152C79.1747 103.324 79.4057 103.44 79.6548 103.487Z" fill="#F28F8F"/>
<path d="M84.5026 95.7486L82.9734 95.1216C83.0089 95.0186 83.0651 94.924 83.1385 94.8435C83.2119 94.763 83.301 94.6984 83.4002 94.6535C83.4995 94.6087 83.6069 94.5846 83.7158 94.5826C83.8247 94.5807 83.9329 94.6011 84.0336 94.6424C84.238 94.7324 84.4002 94.897 84.4874 95.1026C84.5745 95.3081 84.58 95.5392 84.5026 95.7486Z" fill="#263238"/>
<path d="M84.1458 97.4308C84.1456 97.5634 84.1066 97.6929 84.0336 97.8035C83.9605 97.9141 83.8567 98.0009 83.7348 98.0531C83.613 98.1053 83.4786 98.1206 83.3481 98.0972C83.2177 98.0738 83.0969 98.0127 83.0009 97.9214C82.9048 97.8302 82.8376 97.7127 82.8075 97.5836C82.7774 97.4545 82.7859 97.3195 82.8318 97.1952C82.8777 97.0708 82.959 96.9627 83.0657 96.8841C83.1724 96.8054 83.2998 96.7598 83.4321 96.7529C83.6165 96.7487 83.795 96.8177 83.9287 96.9447C84.0624 97.0718 84.1405 97.2465 84.1458 97.4308Z" fill="#263238"/>
<path d="M80.9598 97.1555L81.4288 101.111L83.4678 100.143L80.9598 97.1555Z" fill="#F28F8F"/>
<path d="M78.2122 105.893C76.4739 105.658 72.9005 104.623 72.3449 103.206C72.5659 103.923 73.0019 104.555 73.5938 105.016C74.6592 105.933 78.2071 106.973 78.2071 106.973L78.2122 105.893Z" fill="#F28F8F"/>
<path d="M71.1979 99.8622C71.6427 99.8244 72.0543 99.6114 72.342 99.2701C72.6298 98.9288 72.7701 98.4872 72.7323 98.0424C72.6944 97.5976 72.4814 97.1861 72.1402 96.8983C71.7989 96.6106 71.3573 96.4702 70.9125 96.508L71.1979 99.8622Z" fill="#263238"/>
<path d="M53.8661 135.066C54.6155 139.557 56.2569 143.732 61.1812 152.097C61.7439 153.119 62.4286 154.069 63.2202 154.926C64.0511 155.826 65.0596 156.542 66.1819 157.032C66.8373 157.306 67.5655 157.355 68.2515 157.169C69.5871 156.848 70.7239 155.813 70.8258 155.176C70.9634 154.32 69.4291 153.453 68.8276 152.831C68.3178 152.322 67.2983 151.46 66.9567 150.991C66.6152 150.522 66.2278 150.145 66.656 150.16C66.916 150.16 67.1657 150.257 67.4155 150.288C67.6291 150.308 67.8442 150.308 68.0578 150.288C68.2722 150.303 68.4873 150.271 68.6881 150.195C68.8888 150.118 69.0704 149.998 69.2201 149.844C69.2835 149.766 69.3227 149.672 69.3326 149.572C69.3426 149.472 69.323 149.372 69.2761 149.283C69.1777 149.161 69.047 149.07 68.8989 149.018C68.4276 148.84 67.9694 148.629 67.5277 148.386C67.0879 148.134 66.664 147.855 66.2584 147.55C65.6365 147.04 64.7903 146.49 64.4079 145.781C63.4514 144.068 62.7247 142.235 62.2466 140.332C61.8999 139.007 61.2271 136.463 60.8804 134.052C60.9926 133.746 62.5473 130.886 63.5516 129.224C64.9942 126.834 66.3705 124.784 67.701 122.654C70.5098 119.228 70.2498 112.698 67.7622 110.664C63.3884 111.786 62.1293 113.667 60.6867 116.455C59.2798 119.167 55.4974 126.732 54.2485 130.468C53.7437 131.946 53.6124 133.525 53.8661 135.066Z" fill="#FFA8A7"/>
<path d="M181.306 198.837L223.463 189.498L223.549 190.64C223.549 190.64 222.647 192.169 212.799 195.085C202.95 198.001 178.594 203.154 178.594 203.154L177.574 201.803L181.306 198.837Z" fill="#263238"/>
<path d="M211.555 180.144C211.555 180.144 209.057 184.084 206.111 186.399C203.164 188.713 187.387 202.39 187.387 202.39L182.29 205.209L180.76 204.327L183.054 198.99C183.054 198.99 200.87 186.353 204.724 183.697C208.578 181.041 212.049 179.41 211.555 180.144Z" fill="#37474F"/>
<path d="M180.77 203.083L182.3 203.965L181.902 204.979L180.77 204.327V203.083Z" fill="#263238"/>
<path d="M211.596 178.773V180.037L210.326 181.898V179.94L211.596 178.773Z" fill="#37474F"/>
<path d="M186.913 219.074C188.876 216.015 186.587 213.135 186.811 210.515C187.035 207.895 187.382 202.39 187.382 202.39L182.284 205.209C182.284 205.209 180.592 209.531 179.889 211.351C179.185 213.171 176.147 215.093 174.281 216.663C172.416 218.233 170.851 221.985 176.06 223.448C181.27 224.911 184.956 222.117 186.913 219.074ZM177.737 221.409C175.729 220.828 175.127 219.181 176.392 217.728C177.656 216.275 180.307 215.567 182.315 216.148C184.323 216.729 184.92 218.381 183.656 219.834C182.391 221.286 179.776 221.99 177.737 221.409Z" fill="#BED4FF"/>
<path opacity="0.2" d="M186.913 219.074C188.876 216.015 186.587 213.135 186.811 210.515C187.035 207.895 187.382 202.39 187.382 202.39L182.284 205.209C182.284 205.209 180.592 209.531 179.889 211.351C179.185 213.171 176.147 215.093 174.281 216.663C172.416 218.233 170.851 221.985 176.06 223.448C181.27 224.911 184.956 222.117 186.913 219.074ZM177.737 221.409C175.729 220.828 175.127 219.181 176.392 217.728C177.656 216.275 180.307 215.567 182.315 216.148C184.323 216.729 184.92 218.381 183.656 219.834C182.391 221.286 179.776 221.99 177.737 221.409Z" fill="black"/>
<path d="M187.122 200.483C186.835 200.721 186.492 200.882 186.126 200.952C185.759 201.021 185.381 200.997 185.027 200.881C184.257 200.662 183.946 200.116 184.334 199.673C184.621 199.435 184.964 199.274 185.33 199.204C185.696 199.134 186.074 199.159 186.429 199.275C187.199 199.494 187.509 200.04 187.122 200.483Z" fill="#263238"/>
<path d="M181.265 198.23C181.265 198.23 175.24 199.342 173.257 199.525C171.274 199.709 168.404 199.285 163.444 199.739C158.484 200.193 149.553 204.449 149.094 208.578C148.635 212.707 152.917 213.013 155.991 212.274C159.065 211.535 160.768 210.398 166.033 207.763C173.063 204.25 177.727 202.023 177.727 202.023L181.668 198.76L181.265 198.23ZM169.581 203.797C166.715 204.727 163.918 205.858 161.211 207.182C157.852 208.843 157.046 209.97 154.946 210.464C153.238 210.867 151.551 209.909 152.397 208.033C153.31 206.035 155.833 203.955 160.477 202.426C165.121 200.896 168.934 201.182 170.631 202.079C171.309 202.446 171.62 203.129 169.581 203.797Z" fill="#BED4FF"/>
<path opacity="0.2" d="M181.265 198.23C181.265 198.23 175.24 199.342 173.257 199.525C171.274 199.709 168.404 199.285 163.444 199.739C158.484 200.193 149.553 204.449 149.094 208.578C148.635 212.707 152.917 213.013 155.991 212.274C159.065 211.535 160.768 210.398 166.033 207.763C173.063 204.25 177.727 202.023 177.727 202.023L181.668 198.76L181.265 198.23ZM169.581 203.797C166.715 204.727 163.918 205.858 161.211 207.182C157.852 208.843 157.046 209.97 154.946 210.464C153.238 210.867 151.551 209.909 152.397 208.033C153.31 206.035 155.833 203.955 160.477 202.426C165.121 200.896 168.934 201.182 170.631 202.079C171.309 202.446 171.62 203.129 169.581 203.797Z" fill="black"/>
<path d="M178.573 203.155V201.911L177.727 200.779V202.023L178.573 203.155Z" fill="#263238"/>
<path d="M181.306 197.593L223.549 189.396C223.549 189.396 222.647 190.925 212.799 193.846C202.95 196.767 178.594 201.911 178.594 201.911L177.574 200.56L181.306 197.593Z" fill="#37474F"/>
<path d="M211.555 178.9C211.555 178.9 209.057 182.846 206.111 185.16C203.164 187.474 187.387 201.151 187.387 201.151L182.29 203.965L180.76 203.083L183.054 197.746C183.054 197.746 200.87 185.109 204.724 182.453C208.578 179.797 212.049 178.166 211.555 178.9Z" fill="#455A64"/>
<path d="M186.913 217.83C188.876 214.772 186.587 211.891 186.811 209.271C187.035 206.651 187.382 201.151 187.382 201.151L182.284 203.965C182.284 203.965 180.592 208.287 179.889 210.112C179.185 211.937 176.147 213.849 174.281 215.419C172.416 216.989 170.851 220.741 176.06 222.209C181.27 223.677 184.956 220.873 186.913 217.83ZM177.737 220.17C175.729 219.589 175.127 217.937 176.392 216.484C177.656 215.032 180.307 214.328 182.315 214.909C184.323 215.49 184.92 217.137 183.656 218.59C182.391 220.043 179.776 220.751 177.737 220.17Z" fill="#BED4FF"/>
<path d="M187.122 199.239C186.835 199.478 186.493 199.64 186.126 199.711C185.76 199.781 185.382 199.758 185.027 199.642C184.257 199.418 183.946 198.878 184.334 198.429C184.621 198.191 184.964 198.03 185.33 197.96C185.696 197.891 186.074 197.915 186.429 198.031C187.199 198.256 187.509 198.796 187.122 199.239Z" fill="#263238"/>
<path d="M181.265 196.986C181.265 196.986 175.24 198.103 173.257 198.286C171.274 198.47 168.404 198.047 163.444 198.495C158.484 198.944 149.553 203.205 149.094 207.334C148.635 211.463 152.917 211.774 155.991 211.03C159.065 210.286 160.768 209.154 166.033 206.524C173.063 202.996 177.737 200.779 177.737 200.779L181.678 197.522L181.265 196.986ZM169.581 202.553C166.714 203.483 163.917 204.616 161.211 205.943C157.852 207.599 157.046 208.726 154.946 209.221C153.238 209.628 151.551 208.665 152.397 206.789C153.31 204.796 155.833 202.711 160.477 201.207C165.121 199.703 168.934 199.958 170.631 200.855C171.309 201.202 171.62 201.885 169.581 202.553Z" fill="#BED4FF"/>
<path d="M143.935 184.575L156.236 182.163C156.314 182.149 156.394 182.16 156.466 182.193C156.538 182.227 156.597 182.282 156.636 182.35C156.676 182.419 156.692 182.499 156.685 182.577C156.677 182.656 156.645 182.731 156.593 182.79L148.248 192.236L143.935 184.575Z" fill="#FFA8A7"/>
<path d="M156.593 182.79C156.645 182.731 156.677 182.656 156.685 182.577C156.692 182.499 156.676 182.419 156.636 182.35C156.597 182.282 156.538 182.227 156.466 182.193C156.394 182.16 156.314 182.149 156.236 182.163L153.835 182.637C154.165 182.841 154.433 183.132 154.607 183.479C154.782 183.825 154.857 184.213 154.824 184.6V184.814L156.593 182.79Z" fill="#263238"/>
<path d="M101.957 218.8L102.976 218.224L104.195 217.53L148.263 192.262C148.667 190.908 148.545 189.451 147.922 188.184C147.05 186.231 145.373 184.692 143.956 184.615L99.9075 209.869L97.5728 211.153C99.1225 210.389 103.501 217.979 101.957 218.8Z" fill="#BED4FF"/>
<path d="M105.795 216.593L108.038 215.303C108.701 214.951 108.319 213.32 107.528 211.638C106.509 209.4 104.47 207.228 103.608 207.697L101.952 208.645L101.365 208.997C102.242 208.528 104.266 210.695 105.291 212.938C106.03 214.548 106.407 216.124 105.846 216.547C105.834 216.567 105.816 216.583 105.795 216.593Z" fill="#EBEBEB"/>
<path d="M106.371 216.251C107.901 215.435 103.501 207.835 101.957 208.65L99.7087 209.94C101.238 209.119 105.663 216.72 104.118 217.536L106.371 216.251Z" fill="#BED4FF"/>
<path d="M101.957 218.8L104.179 217.53C105.709 216.74 101.503 209.374 99.8922 209.853L99.8005 209.889L97.5728 211.153C99.1225 210.389 103.501 217.979 101.957 218.8Z" fill="#EBEBEB"/>
<path opacity="0.15" d="M156.649 182.377L156.236 182.163L147.31 187.047L100.733 213.763C100.647 213.626 100.575 213.615 100.519 213.712C101.829 215.751 102.818 218.331 101.957 218.779L102.976 218.203L104.195 217.51L148.263 192.241L156.608 182.795C156.657 182.738 156.687 182.668 156.694 182.593C156.701 182.518 156.685 182.443 156.649 182.377Z" fill="black"/>
<path d="M92.5313 224.172L101.957 218.799C102.619 218.458 102.252 216.842 101.488 215.17C100.468 212.927 98.4598 210.74 97.5728 211.184L88.1168 216.597C86.2409 217.683 87.9639 221.761 90.059 223.581C90.8287 224.254 91.7004 224.56 92.5313 224.172Z" fill="#F28F8F"/>
<path opacity="0.1" d="M93.1175 221.247C92.5772 219.126 90.8542 217.041 89.274 216.598C89.041 216.512 88.7906 216.485 88.5446 216.517C88.2986 216.55 88.0643 216.642 87.8619 216.786C86.4448 218.101 88.0964 221.843 90.0743 223.566C90.8389 224.244 91.6953 224.545 92.5058 224.188C93.1889 223.775 93.4591 222.689 93.1175 221.247Z" fill="black"/>
</svg>
