<svg width="27" height="27" viewBox="0 0 27 27" fill="none" xmlns="http://www.w3.org/2000/svg">
<g filter="url(#filter0_d_195_1736)">
<path d="M16.263 8.825L15.453 9.653C14.805 10.301 14.4 10.85 14.4 12.2H12.6V11.75C12.6 10.751 13.005 9.851 13.653 9.203L14.769 8.069C15.102 7.745 15.3 7.295 15.3 6.8C15.3 6.32261 15.1104 5.86477 14.7728 5.52721C14.4352 5.18964 13.9774 5 13.5 5C13.0226 5 12.5648 5.18964 12.2272 5.52721C11.8896 5.86477 11.7 6.32261 11.7 6.8H9.9C9.9 5.84522 10.2793 4.92955 10.9544 4.25442C11.6295 3.57928 12.5452 3.2 13.5 3.2C14.4548 3.2 15.3705 3.57928 16.0456 4.25442C16.7207 4.92955 17.1 5.84522 17.1 6.8C17.0987 7.55891 16.7979 8.28664 16.263 8.825ZM14.4 15.8H12.6V14H14.4M13.5 0.5C12.3181 0.5 11.1478 0.732792 10.0558 1.18508C8.96392 1.63738 7.97177 2.30031 7.13604 3.13604C5.44821 4.82387 4.5 7.11305 4.5 9.5C4.5 11.8869 5.44821 14.1761 7.13604 15.864C7.97177 16.6997 8.96392 17.3626 10.0558 17.8149C11.1478 18.2672 12.3181 18.5 13.5 18.5C15.8869 18.5 18.1761 17.5518 19.864 15.864C21.5518 14.1761 22.5 11.8869 22.5 9.5C22.5 4.523 18.45 0.5 13.5 0.5Z" fill="black"/>
</g>
<defs>
<filter id="filter0_d_195_1736" x="0.5" y="0.5" width="26" height="26" filterUnits="userSpaceOnUse" color-interpolation-filters="sRGB">
<feFlood flood-opacity="0" result="BackgroundImageFix"/>
<feColorMatrix in="SourceAlpha" type="matrix" values="0 0 0 0 0 0 0 0 0 0 0 0 0 0 0 0 0 0 127 0" result="hardAlpha"/>
<feOffset dy="4"/>
<feGaussianBlur stdDeviation="2"/>
<feComposite in2="hardAlpha" operator="out"/>
<feColorMatrix type="matrix" values="0 0 0 0 0 0 0 0 0 0 0 0 0 0 0 0 0 0 0.25 0"/>
<feBlend mode="normal" in2="BackgroundImageFix" result="effect1_dropShadow_195_1736"/>
<feBlend mode="normal" in="SourceGraphic" in2="effect1_dropShadow_195_1736" result="shape"/>
</filter>
</defs>
</svg>
