<svg width="67" height="67" viewBox="0 0 67 67" fill="none" xmlns="http://www.w3.org/2000/svg">
<rect width="67" height="67" rx="33.5" fill="black"/>
<path d="M6.20199 49.0414C6.20199 50.1231 7.1022 51 8.21266 51H58.7667C59.8772 51 60.7774 50.1231 60.7774 49.0414C60.7774 47.9597 59.8772 47.0828 58.7667 47.0828H8.21266C7.1022 47.0828 6.20199 47.9597 6.20199 49.0414Z" fill="white"/>
<path d="M59.9943 50.6359C60.956 50.095 61.2855 48.8972 60.7303 47.9604L49.29 28.6585C47.3666 29.7402 46.7076 32.1359 47.8181 34.0095L57.2477 49.919C57.8029 50.8558 59.0326 51.1767 59.9943 50.6359Z" fill="white"/>
<path d="M33.5034 2.00087C33.5002 1.99907 33.4961 2.00014 33.4943 2.00326L6.26972 47.9361C5.71448 48.8729 6.04398 50.0708 7.00567 50.6116C7.96736 51.1525 9.19707 50.8315 9.7523 49.8947L34.9729 7.34294C36.0815 5.4725 35.4236 3.08077 33.5034 2.00087Z" fill="white"/>
<path d="M17.6915 28.6161H49.2878V36.4505H17.6915V28.6161Z" fill="white"/>
<path d="M22.9756 29.1313H24.3687V34.7783H28.3633V36H22.9756V29.1313ZM32.0591 29.1313H33.5356L36.8579 36H35.3945L34.8452 34.8442H30.833L30.3013 36H28.8335L32.0591 29.1313ZM34.2959 33.6973L32.8105 30.5771L31.3647 33.6973H34.2959ZM37.9258 29.1313H41.5952C42.0435 29.1313 42.4331 29.1797 42.7642 29.2764C43.0981 29.3701 43.375 29.5005 43.5947 29.6675C43.8145 29.8345 43.9771 30.0337 44.0825 30.2651C44.1909 30.4937 44.2451 30.7412 44.2451 31.0078C44.2451 31.4443 44.1074 31.8267 43.832 32.1548C44.1484 32.3423 44.3843 32.5854 44.5396 32.8843C44.6948 33.1831 44.7725 33.5229 44.7725 33.9038C44.7725 34.2231 44.7183 34.5117 44.6099 34.7695C44.5044 35.0273 44.3418 35.2485 44.1221 35.4331C43.9053 35.6147 43.6299 35.7554 43.2959 35.855C42.9648 35.9517 42.5737 36 42.1226 36H37.9258V29.1313ZM42.1313 31.7681C42.2515 31.7681 42.3687 31.7725 42.4829 31.7812C42.6792 31.5938 42.7773 31.3799 42.7773 31.1396C42.7773 30.8906 42.6792 30.6987 42.4829 30.564C42.2896 30.4263 42.0054 30.3574 41.6304 30.3574H39.3188V31.7681H42.1313ZM42.1577 34.7871C42.5327 34.7871 42.8169 34.7065 43.0103 34.5454C43.2065 34.3843 43.3047 34.1572 43.3047 33.8643C43.3047 33.5713 43.2065 33.3428 43.0103 33.1787C42.8169 33.0146 42.5327 32.9326 42.1577 32.9326H39.3188V34.7871H42.1577Z" fill="black"/>
</svg>
