<svg width="321" height="322" viewBox="0 0 321 322" fill="none" xmlns="http://www.w3.org/2000/svg">
<path d="M134.116 317.982C127.167 305.987 97.5023 255.552 88.8219 254.203C80.3627 252.889 50.3017 303.886 42.1705 317.982H134.116Z" fill="#2E353A" stroke="#2E353A" stroke-linecap="round" stroke-linejoin="round"/>
<path d="M172.155 23.2842V139.591" stroke="#2E353A" stroke-width="3" stroke-linecap="round" stroke-linejoin="round"/>
<path d="M184.344 26.4062V139.591" stroke="#2E353A" stroke-width="3" stroke-linecap="round" stroke-linejoin="round"/>
<path d="M197.708 88.3433V197.974" stroke="#2E353A" stroke-width="3" stroke-linecap="round" stroke-linejoin="round"/>
<path d="M211.858 26.4062V197.974" stroke="#2E353A" stroke-width="3" stroke-linecap="round" stroke-linejoin="round"/>
<path d="M226.007 26.4062V142.713" stroke="#2E353A" stroke-width="3" stroke-linecap="round" stroke-linejoin="round"/>
<path d="M161.545 38.8766H226.404" stroke="#2E353A" stroke-width="3" stroke-linecap="round" stroke-linejoin="round"/>
<path d="M161.545 64.7256H231.881" stroke="#2E353A" stroke-width="3" stroke-linecap="round" stroke-linejoin="round"/>
<path d="M160.37 88.3433H238.585" stroke="#2E353A" stroke-width="3" stroke-linecap="round" stroke-linejoin="round"/>
<path d="M159.188 114.642H238.585" stroke="#2E353A" stroke-width="3" stroke-linecap="round" stroke-linejoin="round"/>
<path d="M174.123 143.154H234.261" stroke="#2E353A" stroke-width="3" stroke-linecap="round" stroke-linejoin="round"/>
<path d="M189.844 170.785H229.15" stroke="#2E353A" stroke-width="3" stroke-linecap="round" stroke-linejoin="round"/>
<path d="M86.3658 34.3278L100.241 46.6426" stroke="#2E353A" stroke-width="2" stroke-linecap="round" stroke-linejoin="round"/>
<path d="M114.116 21.3386L118.944 29.5455" stroke="#2E353A" stroke-width="2" stroke-linecap="round" stroke-linejoin="round"/>
<path d="M138.852 1.5L143.078 16.5475" stroke="#2E353A" stroke-width="2" stroke-linecap="round" stroke-linejoin="round"/>
<path d="M218.013 194.869H195.13V133.183H164.085V23.9329C151.001 24.0794 138.171 28.0392 126.826 35.4318C115.482 42.8244 106.006 53.4012 99.3092 66.1454C92.6121 78.8896 88.9192 93.3727 88.5854 108.203C88.2516 123.032 91.2881 137.71 97.4032 150.825C99.8898 157.389 105.733 173.465 111.583 194.255C116.991 213.445 119.814 232.739 119.814 235.653C119.814 235.939 119.814 236.233 119.814 236.518C119.787 237.386 119.915 238.25 120.189 239.061C120.463 239.871 120.879 240.611 121.41 241.235C121.942 241.86 122.579 242.357 123.284 242.696C123.988 243.036 124.746 243.211 125.512 243.212H204.268C205.033 243.21 205.791 243.034 206.495 242.694C207.199 242.354 207.836 241.857 208.367 241.232C208.898 240.608 209.314 239.869 209.589 239.059C209.863 238.249 209.992 237.385 209.966 236.518C209.966 236.207 209.966 235.913 209.966 235.653C209.951 232.773 212.72 213.852 218.013 194.869Z" fill="#89B1FF" stroke="#2E353A" stroke-width="2" stroke-linecap="round" stroke-linejoin="round"/>
<path d="M138.235 37.8734C140.442 36.7451 142.706 35.7662 145.016 34.9418" stroke="#2E353A" stroke-width="2" stroke-linecap="round" stroke-linejoin="round"/>
<path d="M112.834 59.7875C112.834 59.7875 119.051 48.5451 132.712 40.9781" stroke="#2E353A" stroke-width="2" stroke-linecap="round" stroke-linejoin="round"/>
<path d="M114.467 184.25C117.296 194.731 121.042 209.251 122.338 217.363C124.535 231.044 123.101 238.118 127.83 239.337" stroke="#2E353A" stroke-width="2" stroke-linecap="round" stroke-linejoin="round"/>
<path d="M111.004 171.745C111.004 171.745 111.766 174.555 112.994 178.862" stroke="#2E353A" stroke-width="2" stroke-linecap="round" stroke-linejoin="round"/>
<path d="M160.058 242.373V159.698C160.058 159.698 163.109 138.078 153.193 138.078C143.277 138.078 144.039 149.32 155.481 161.427C166.923 173.535 184.466 162.292 186.755 152.779C189.043 143.267 182.941 138.943 179.127 146.726C175.313 154.509 179.127 242.719 179.127 242.719" stroke="#2E353A" stroke-width="2" stroke-linecap="round" stroke-linejoin="round"/>
<path d="M206.259 242.71H123.948V264.365H206.259V242.71Z" fill="white" stroke="#2E353A" stroke-width="2" stroke-linecap="round" stroke-linejoin="round"/>
<path d="M206.259 269.519H123.948V291.173H206.259V269.519Z" fill="white" stroke="#2E353A" stroke-width="2" stroke-linecap="round" stroke-linejoin="round"/>
<path d="M206.259 264.365H123.948V269.519H206.259V264.365Z" fill="#2E353A" stroke="#2E353A" stroke-linecap="round" stroke-linejoin="round"/>
<path d="M206.259 296.328H123.948V317.982H206.259V296.328Z" fill="white" stroke="#2E353A" stroke-width="2" stroke-linecap="round" stroke-linejoin="round"/>
<path d="M197.647 261.468H203.765" stroke="#2E353A" stroke-linecap="round" stroke-linejoin="round"/>
<path d="M127.182 261.468H194.703" stroke="#2E353A" stroke-linecap="round" stroke-linejoin="round"/>
<path d="M181.781 288.7H201.499" stroke="#2E353A" stroke-linecap="round" stroke-linejoin="round"/>
<path d="M139.402 288.7H179.516" stroke="#2E353A" stroke-linecap="round" stroke-linejoin="round"/>
<path d="M132.834 288.7H136.229" stroke="#2E353A" stroke-linecap="round" stroke-linejoin="round"/>
<path d="M206.259 291.173H123.948V296.328H206.259V291.173Z" fill="#2E353A" stroke="#2E353A" stroke-linecap="round" stroke-linejoin="round"/>
<path d="M162.842 301.075H134.665V317.706H162.842V301.075Z" fill="#89B1FF" stroke="#2E353A" stroke-linecap="round" stroke-linejoin="round"/>
<path d="M199.508 301.075H171.331V317.706H199.508V301.075Z" fill="#89B1FF" stroke="#2E353A" stroke-linecap="round" stroke-linejoin="round"/>
<path d="M224.855 317.982C219.455 312.612 196.396 290.032 189.684 289.444C183.109 288.847 159.768 311.687 153.452 317.982H224.855Z" fill="#2E353A" stroke="#2E353A" stroke-linecap="round" stroke-linejoin="round"/>
<path d="M313.879 317.982H320.5" stroke="#2E353A" stroke-linecap="round" stroke-linejoin="round"/>
<path d="M10.7975 317.982H307.258" stroke="#2E353A" stroke-linecap="round" stroke-linejoin="round"/>
<path d="M0.5 317.982H5.64874" stroke="#2E353A" stroke-linecap="round" stroke-linejoin="round"/>
<path d="M300.553 268.628H280.759V300.107H288.959H300.553H308.761V284.367L300.553 268.628Z" fill="#2E353A" stroke="#2E353A" stroke-linecap="round" stroke-linejoin="round"/>
<path d="M308.761 300.107H299.691V307.259H308.761V300.107Z" fill="white" stroke="#2E353A" stroke-linecap="round" stroke-linejoin="round"/>
<path d="M266.045 299.752C266.045 299.752 275.962 293.699 272.529 263.431L259.943 255.647L238.204 251.756L218.753 252.621V265.16C218.753 265.16 229.814 275.97 230.958 279.429C231.675 281.797 232.061 284.277 232.102 286.78V298.887L266.045 299.752Z" fill="#89B1FF" stroke="#2E353A" stroke-linecap="round" stroke-linejoin="round"/>
<path d="M272.529 263.431L266.045 299.752" stroke="#2E353A" stroke-linecap="round" stroke-linejoin="round"/>
<path d="M259.943 255.647L252.697 299.752" stroke="#2E353A" stroke-linecap="round" stroke-linejoin="round"/>
<path d="M238.204 251.756L232.865 284.618" stroke="#2E353A" stroke-linecap="round" stroke-linejoin="round"/>
<path d="M219.516 263.431C219.516 263.431 232.102 269.484 237.06 273.376C242.018 277.267 241.255 285.483 241.255 285.483" stroke="#2E353A" stroke-linecap="round" stroke-linejoin="round"/>
<path d="M280.935 300.332H221.797V305.953H280.935V300.332Z" fill="white" stroke="#2E353A" stroke-linecap="round" stroke-linejoin="round"/>
<path d="M292.743 285.915H305.092L298.463 272.943H292.743V285.915Z" fill="white" stroke="#2E353A" stroke-linecap="round" stroke-linejoin="round"/>
<path d="M290.836 272.943H285.496V285.915H290.836V272.943Z" fill="white" stroke="#2E353A" stroke-linecap="round" stroke-linejoin="round"/>
<path d="M258.112 300.107H222.109V309.853H258.112V300.107Z" fill="white" stroke="#2E353A" stroke-linecap="round" stroke-linejoin="round"/>
<path d="M292.219 317.824C296.336 316.981 299.07 312.514 298.326 307.847C297.583 303.18 293.643 300.08 289.526 300.923C285.41 301.766 282.675 306.233 283.419 310.9C284.163 315.568 288.103 318.668 292.219 317.824Z" fill="#2E353A" stroke="#2E353A" stroke-linecap="round" stroke-linejoin="round"/>
<path d="M290.859 314.411C293.298 314.411 295.275 312.169 295.275 309.404C295.275 306.638 293.298 304.396 290.859 304.396C288.419 304.396 286.442 306.638 286.442 309.404C286.442 312.169 288.419 314.411 290.859 314.411Z" fill="white" stroke="#2E353A" stroke-linecap="round" stroke-linejoin="round"/>
<path d="M233.842 317.842C237.961 317.015 240.709 312.559 239.98 307.889C239.251 303.219 235.32 300.104 231.201 300.93C227.082 301.757 224.334 306.213 225.063 310.883C225.792 315.554 229.723 318.669 233.842 317.842Z" fill="#2E353A" stroke="#2E353A" stroke-linecap="round" stroke-linejoin="round"/>
<path d="M232.506 314.411C234.945 314.411 236.923 312.169 236.923 309.404C236.923 306.638 234.945 304.396 232.506 304.396C230.067 304.396 228.09 306.638 228.09 309.404C228.09 312.169 230.067 314.411 232.506 314.411Z" fill="white" stroke="#2E353A" stroke-linecap="round" stroke-linejoin="round"/>
<path d="M255.917 315.692C258.998 312.484 259.202 307.052 256.373 303.558C253.543 300.065 248.752 299.833 245.671 303.041C242.589 306.249 242.385 311.681 245.215 315.175C248.044 318.668 252.835 318.9 255.917 315.692Z" fill="#2E353A" stroke="#2E353A" stroke-linecap="round" stroke-linejoin="round"/>
<path d="M250.79 314.411C253.229 314.411 255.206 312.169 255.206 309.404C255.206 306.638 253.229 304.396 250.79 304.396C248.351 304.396 246.373 306.638 246.373 309.404C246.373 312.169 248.351 314.411 250.79 314.411Z" fill="white" stroke="#2E353A" stroke-linecap="round" stroke-linejoin="round"/>
<path d="M248.311 285.051H229.241C227.872 285.051 226.762 286.309 226.762 287.861V296.942C226.762 298.494 227.872 299.752 229.241 299.752H248.311C249.68 299.752 250.79 298.494 250.79 296.942V287.861C250.79 286.309 249.68 285.051 248.311 285.051Z" fill="#2E353A" stroke="#2E353A" stroke-linecap="round" stroke-linejoin="round"/>
<path d="M217.228 299.752V256.988H224.855V299.752" stroke="#2E353A" stroke-linecap="round" stroke-linejoin="round"/>
<path d="M217.281 262.652H224.772" stroke="#2E353A" stroke-linecap="round" stroke-linejoin="round"/>
<path d="M217.281 269.329H224.772" stroke="#2E353A" stroke-linecap="round" stroke-linejoin="round"/>
<path d="M217.281 276.005H224.772" stroke="#2E353A" stroke-linecap="round" stroke-linejoin="round"/>
<path d="M217.281 282.69H224.772" stroke="#2E353A" stroke-linecap="round" stroke-linejoin="round"/>
<path d="M217.281 289.366H224.772" stroke="#2E353A" stroke-linecap="round" stroke-linejoin="round"/>
<path d="M217.281 296.042H224.772" stroke="#2E353A" stroke-linecap="round" stroke-linejoin="round"/>
<path d="M64.6648 318.821H50.9348V47.2738L64.6648 65.3741V318.821Z" stroke="#2E353A" stroke-linecap="round" stroke-linejoin="round"/>
<path d="M51.0721 261.744H64.5351L51.0721 246.982H64.5351L51.0721 261.744Z" stroke="#2E353A" stroke-linecap="round" stroke-linejoin="round"/>
<path d="M51.0721 246.61H64.5351L51.0721 231.848H64.5351L51.0721 246.61Z" stroke="#2E353A" stroke-linecap="round" stroke-linejoin="round"/>
<path d="M51.0721 231.476H64.5351L51.0721 216.714H64.5351L51.0721 231.476Z" stroke="#2E353A" stroke-linecap="round" stroke-linejoin="round"/>
<path d="M51.0721 216.342H64.5351L51.0721 201.58H64.5351L51.0721 216.342Z" stroke="#2E353A" stroke-linecap="round" stroke-linejoin="round"/>
<path d="M51.0721 201.208H64.5351L51.0721 186.446H64.5351L51.0721 201.208Z" stroke="#2E353A" stroke-linecap="round" stroke-linejoin="round"/>
<path d="M51.0721 186.074H64.5351L51.0721 171.312H64.5351L51.0721 186.074Z" stroke="#2E353A" stroke-linecap="round" stroke-linejoin="round"/>
<path d="M51.0721 170.94H64.5351L51.0721 156.178H64.5351L51.0721 170.94Z" stroke="#2E353A" stroke-linecap="round" stroke-linejoin="round"/>
<path d="M51.0721 155.806H64.5351L51.0721 141.044H64.5351L51.0721 155.806Z" stroke="#2E353A" stroke-linecap="round" stroke-linejoin="round"/>
<path d="M51.0721 140.672H64.5351L51.0721 125.91H64.5351L51.0721 140.672Z" stroke="#2E353A" stroke-linecap="round" stroke-linejoin="round"/>
<path d="M51.0721 125.538H64.5351L51.0721 110.776H64.5351L51.0721 125.538Z" stroke="#2E353A" stroke-linecap="round" stroke-linejoin="round"/>
<path d="M51.0721 110.404H64.5351L51.0721 95.6422H64.5351L51.0721 110.404Z" stroke="#2E353A" stroke-linecap="round" stroke-linejoin="round"/>
<path d="M51.0721 95.2703H64.5351L51.0721 80.5082H64.5351L51.0721 95.2703Z" stroke="#2E353A" stroke-linecap="round" stroke-linejoin="round"/>
<path d="M51.0721 80.1362H64.5351L51.0721 65.374H64.5351L51.0721 80.1362Z" stroke="#2E353A" stroke-linecap="round" stroke-linejoin="round"/>
<path d="M128.41 80.5427L121.759 75.7949H74.291L68.4939 80.5427H128.41Z" stroke="#2E353A" stroke-linecap="round" stroke-linejoin="round"/>
<path d="M129.508 80.1364H13.5664V83.5956H129.508V80.1364Z" fill="#2E353A" stroke="#2E353A" stroke-linecap="round" stroke-linejoin="round"/>
<path d="M121.759 75.7949L50.9348 47.2738L74.291 75.7949" stroke="#2E353A" stroke-linecap="round" stroke-linejoin="round"/>
<path d="M50.9425 47.2738L13.5664 80.1362" stroke="#2E353A" stroke-linecap="round" stroke-linejoin="round"/>
<path d="M74.5885 87.4871H45.9844V108.242H74.5885V87.4871Z" fill="#2E353A" stroke="#2E353A" stroke-linecap="round" stroke-linejoin="round"/>
<path d="M68.6236 91.811H51.9417V97.8646H68.6236V91.811Z" fill="white" stroke="#2E353A" stroke-linecap="round" stroke-linejoin="round"/>
<path d="M129.508 83.5955V120.886" stroke="#2E353A" stroke-linecap="round" stroke-linejoin="round"/>
<path d="M133.856 133.624H125.382V144.512H133.856V133.624Z" fill="#2E353A" stroke="#2E353A" stroke-linecap="round" stroke-linejoin="round"/>
<path d="M125.382 133.624L129.623 120.177L133.864 133.624" stroke="#2E353A" stroke-linecap="round" stroke-linejoin="round"/>
<path d="M106.648 265.013L124.955 297.824L129.531 294.027L116.061 263.483C115.455 262.109 114.524 260.955 113.372 260.148C112.22 259.342 110.893 258.915 109.539 258.916C108.917 258.929 108.31 259.13 107.78 259.497C107.249 259.864 106.814 260.385 106.52 261.006C106.225 261.626 106.082 262.325 106.105 263.029C106.127 263.733 106.315 264.418 106.648 265.013Z" fill="#89B1FF" stroke="#2E353A" stroke-linecap="round" stroke-linejoin="round"/>
<path d="M127.922 289.755L109.089 304.941C109.089 304.941 110.767 313.001 121.644 312.525C132.521 312.05 132.109 299.242 132.109 299.242L127.922 289.755Z" fill="#2E353A" stroke="white" stroke-linecap="round" stroke-linejoin="round"/>
<path d="M75.6106 279.793L109.722 262.367C110.847 261.793 112.111 261.673 113.305 262.027C114.498 262.381 115.549 263.188 116.282 264.313C116.71 264.97 117.018 265.717 117.187 266.512C117.356 267.306 117.383 268.13 117.267 268.936C117.15 269.742 116.892 270.514 116.508 271.205C116.124 271.896 115.622 272.493 115.031 272.961L77.7082 302.58L75.6106 279.793Z" fill="#89B1FF" stroke="#2E353A" stroke-linecap="round" stroke-linejoin="round"/>
<path d="M70.5916 301.145H35.4352V307.311H70.5916V301.145Z" fill="white" stroke="#2E353A" stroke-linecap="round" stroke-linejoin="round"/>
<path d="M53.4291 283.589H22.8799V297.824H53.4291V283.589Z" fill="#2E353A" stroke="#2E353A" stroke-linecap="round" stroke-linejoin="round"/>
<path d="M49.455 267.452H75.3894C75.9963 267.452 76.5784 267.725 77.0075 268.212C77.4367 268.698 77.6777 269.358 77.6777 270.046V297.806H47.1591V270.046C47.1591 269.705 47.2185 269.367 47.334 269.051C47.4494 268.736 47.6187 268.45 47.832 268.209C48.0453 267.968 48.2984 267.777 48.577 267.647C48.8555 267.517 49.1539 267.451 49.455 267.452Z" fill="#89B1FF" stroke="#2E353A" stroke-linecap="round" stroke-linejoin="round"/>
<path d="M22.5671 317.982H72.5824C74.1624 317.982 75.6776 317.271 76.7948 316.004C77.912 314.737 78.5397 313.019 78.5397 311.228C78.5397 309.436 77.9123 307.717 76.7953 306.449C75.6783 305.181 74.1631 304.468 72.5824 304.465H22.5671C20.9865 304.468 19.4712 305.181 18.3542 306.449C17.2373 307.717 16.6099 309.436 16.6099 311.228C16.6099 313.019 17.2375 314.737 18.3547 316.004C19.4719 317.271 20.9872 317.982 22.5671 317.982Z" fill="#2E353A" stroke="#2E353A" stroke-linecap="round" stroke-linejoin="round"/>
<path d="M30.1034 317.982H80.111C81.6917 317.982 83.2077 317.271 84.3262 316.004C85.4446 314.738 86.0739 313.02 86.0759 311.228C86.0759 309.434 85.4475 307.714 84.3289 306.446C83.2102 305.178 81.693 304.465 80.111 304.465H30.1034C28.5214 304.465 27.0042 305.178 25.8856 306.446C24.7669 307.714 24.1385 309.434 24.1385 311.228C24.1405 313.02 24.7698 314.738 25.8883 316.004C27.0067 317.271 28.5227 317.982 30.1034 317.982Z" fill="white" stroke="#2E353A" stroke-linecap="round" stroke-linejoin="round"/>
<path d="M77.7006 297.824H22.8799V302.571H77.7006V297.824Z" fill="white" stroke="#2E353A" stroke-linecap="round" stroke-linejoin="round"/>
<path d="M34.1842 311.228C34.1842 312.073 33.9632 312.899 33.5492 313.602C33.1352 314.304 32.5467 314.852 31.8581 315.175C31.1696 315.498 30.4119 315.583 29.681 315.418C28.9501 315.253 28.2787 314.846 27.7517 314.249C27.2247 313.652 26.8658 312.89 26.7204 312.062C26.575 311.233 26.6496 310.374 26.9348 309.593C27.22 308.813 27.703 308.145 28.3227 307.676C28.9423 307.207 29.6709 306.956 30.4161 306.956C31.4155 306.956 32.3739 307.406 33.0806 308.207C33.7872 309.009 34.1842 310.095 34.1842 311.228Z" fill="#2E353A" stroke="#2E353A" stroke-linecap="round" stroke-linejoin="round"/>
<path d="M40.4618 315.5C42.5429 315.5 44.23 313.588 44.23 311.228C44.23 308.869 42.5429 306.956 40.4618 306.956C38.3808 306.956 36.6937 308.869 36.6937 311.228C36.6937 313.588 38.3808 315.5 40.4618 315.5Z" fill="#2E353A" stroke="#2E353A" stroke-linecap="round" stroke-linejoin="round"/>
<path d="M50.5001 315.5C52.5811 315.5 54.2682 313.588 54.2682 311.228C54.2682 308.869 52.5811 306.956 50.5001 306.956C48.419 306.956 46.7319 308.869 46.7319 311.228C46.7319 313.588 48.419 315.5 50.5001 315.5Z" fill="#2E353A" stroke="#2E353A" stroke-linecap="round" stroke-linejoin="round"/>
<path d="M64.3139 311.228C64.3139 312.073 64.0929 312.899 63.6789 313.602C63.2649 314.304 62.6764 314.852 61.9878 315.175C61.2993 315.498 60.5416 315.583 59.8107 315.418C59.0798 315.253 58.4083 314.846 57.8814 314.249C57.3544 313.652 56.9955 312.89 56.8501 312.062C56.7047 311.233 56.7793 310.374 57.0645 309.593C57.3497 308.813 57.8327 308.145 58.4524 307.676C59.072 307.207 59.8006 306.956 60.5458 306.956C61.5452 306.956 62.5036 307.406 63.2103 308.207C63.9169 309.009 64.3139 310.095 64.3139 311.228Z" fill="#2E353A" stroke="#2E353A" stroke-linecap="round" stroke-linejoin="round"/>
<path d="M74.3597 311.228C74.3597 312.073 74.1387 312.899 73.7247 313.602C73.3106 314.304 72.7221 314.852 72.0336 315.175C71.3451 315.498 70.5874 315.583 69.8565 315.418C69.1255 315.253 68.4541 314.846 67.9271 314.249C67.4002 313.652 67.0413 312.89 66.8959 312.062C66.7505 311.233 66.8251 310.374 67.1103 309.593C67.3955 308.813 67.8785 308.145 68.4982 307.676C69.1178 307.207 69.8463 306.956 70.5916 306.956C71.591 306.956 72.5494 307.406 73.2561 308.207C73.9627 309.009 74.3597 310.095 74.3597 311.228Z" fill="#2E353A" stroke="#2E353A" stroke-linecap="round" stroke-linejoin="round"/>
<path d="M84.3979 311.228C84.3979 312.073 84.1767 312.9 83.7623 313.603C83.3479 314.305 82.759 314.853 82.07 315.176C81.381 315.499 80.623 315.583 79.8918 315.418C79.1607 315.252 78.4893 314.844 77.9626 314.246C77.4359 313.648 77.0776 312.886 76.9331 312.056C76.7886 311.227 76.8643 310.368 77.1507 309.587C77.437 308.807 77.9212 308.14 78.5418 307.672C79.1625 307.203 79.8918 306.954 80.6374 306.956C81.1319 306.956 81.6215 307.067 82.0782 307.281C82.535 307.496 82.9499 307.811 83.2991 308.208C83.6484 308.605 83.9253 309.076 84.1138 309.594C84.3023 310.112 84.3989 310.668 84.3979 311.228Z" fill="#2E353A" stroke="#2E353A" stroke-linecap="round" stroke-linejoin="round"/>
<path d="M113.696 267.452C113.696 266.981 113.573 266.521 113.342 266.13C113.111 265.739 112.783 265.434 112.399 265.254C112.016 265.074 111.593 265.028 111.186 265.12C110.779 265.213 110.406 265.44 110.112 265.773C109.819 266.107 109.62 266.532 109.54 266.993C109.46 267.455 109.503 267.934 109.663 268.368C109.823 268.803 110.093 269.173 110.439 269.434C110.785 269.694 111.191 269.832 111.606 269.83C111.881 269.83 112.154 269.769 112.408 269.649C112.662 269.529 112.892 269.354 113.087 269.133C113.281 268.912 113.435 268.65 113.539 268.362C113.644 268.073 113.697 267.764 113.696 267.452Z" fill="#2E353A" stroke="#2E353A" stroke-linecap="round" stroke-linejoin="round"/>
<path d="M73.1012 271.248H50.9196V286.434H73.1012V271.248Z" fill="white" stroke="#2E353A" stroke-linecap="round" stroke-linejoin="round"/>
<path d="M73.1012 271.248H60.9654V286.434H73.1012V271.248Z" fill="white" stroke="#2E353A" stroke-linecap="round" stroke-linejoin="round"/>
</svg>
