<svg width="91" height="80" viewBox="0 0 91 80" fill="none" xmlns="http://www.w3.org/2000/svg">
<path d="M1.08981 76.7838C1.08981 78.5436 2.55432 79.9701 4.3609 79.9701H86.6055C88.4121 79.9701 89.8766 78.5436 89.8766 76.7838C89.8766 75.024 88.4121 73.5974 86.6055 73.5974H4.3609C2.55432 73.5974 1.08981 75.024 1.08981 76.7838Z" fill="white"/>
<path d="M88.6027 79.3778C90.1673 78.4979 90.7033 76.5491 89.8 75.0251L71.1882 43.6235C68.0591 45.3833 66.987 49.2808 68.7936 52.3288L84.1343 78.2115C85.0376 79.7355 87.0382 80.2577 88.6027 79.3778Z" fill="white"/>
<path d="M45.5056 0.255153C45.5003 0.252225 45.4937 0.253963 45.4907 0.259034L1.19999 74.9856C0.296703 76.5097 0.832751 78.4584 2.39729 79.3383C3.96183 80.2182 5.9624 79.696 6.86569 78.172L47.8962 8.94598C49.6997 5.90302 48.6294 2.012 45.5056 0.255153Z" fill="white"/>
<path d="M19.7818 43.5546H71.1847V56.3H19.7818V43.5546Z" fill="white"/>
</svg>
