<svg width="30" height="43" viewBox="0 0 30 43" fill="none" xmlns="http://www.w3.org/2000/svg">
<path d="M14.8221 0C6.62759 0 0 6.6848 0 14.95C0 18.6662 1.05872 22.1474 2.98559 25.2869C4.99716 28.5759 7.64396 31.3951 9.67671 34.6841C10.6719 36.2859 11.3918 37.7809 12.1541 39.5108C12.7046 40.6854 13.1493 42.7144 14.8221 42.7144C16.4949 42.7144 16.9395 40.6854 17.4689 39.5108C18.2523 37.7809 18.9511 36.2859 19.9463 34.6841C21.979 31.4164 24.6258 28.5973 26.6374 25.2869C28.5855 22.1474 29.6442 18.6662 29.6442 14.95C29.6442 6.6848 23.0166 0 14.8221 0ZM14.8221 20.8233C11.9 20.8233 9.52849 18.4313 9.52849 15.484C9.52849 12.5367 11.9 10.1447 14.8221 10.1447C17.7442 10.1447 20.1157 12.5367 20.1157 15.484C20.1157 18.4313 17.7442 20.8233 14.8221 20.8233Z" fill="white"/>
</svg>
