<svg width="123" height="123" viewBox="0 0 123 123" fill="none" xmlns="http://www.w3.org/2000/svg">
<g filter="url(#filter0_d_195_1717)">
<rect x="7" width="108.513" height="109" rx="54.2563" fill="black"/>
<path d="M17.0898 79.7838C17.0898 81.5436 18.5543 82.9701 20.3609 82.9701H102.606C104.412 82.9701 105.877 81.5436 105.877 79.7838C105.877 78.024 104.412 76.5974 102.606 76.5974H20.3609C18.5543 76.5974 17.0898 78.024 17.0898 79.7838Z" fill="white"/>
<path d="M104.603 82.3778C106.167 81.4979 106.703 79.5491 105.8 78.0251L87.1882 46.6235C84.0591 48.3833 82.987 52.2808 84.7936 55.3288L100.134 81.2115C101.038 82.7355 103.038 83.2577 104.603 82.3778Z" fill="white"/>
<path d="M61.5055 3.25515C61.5003 3.25223 61.4937 3.25396 61.4907 3.25903L17.2 77.9856C16.2967 79.5097 16.8327 81.4584 18.3973 82.3383C19.9618 83.2182 21.9624 82.696 22.8657 81.172L63.8961 11.946C65.6997 8.90302 64.6294 5.012 61.5055 3.25515Z" fill="white"/>
<path d="M35.7817 46.5546H87.1846V59.3H35.7817V46.5546Z" fill="white"/>
<path d="M43.5871 47.8256H45.8535V57.0125H52.3522V59H43.5871V47.8256ZM58.3648 47.8256H60.7669L66.1718 59H63.7911L62.8974 57.1197H56.3701L55.505 59H53.1172L58.3648 47.8256ZM62.0038 55.2538L59.5873 50.1777L57.2352 55.2538H62.0038ZM67.9091 47.8256H73.8788C74.608 47.8256 75.2419 47.9043 75.7805 48.0616C76.3238 48.2141 76.7743 48.4262 77.1317 48.6978C77.4892 48.9695 77.7537 49.2936 77.9253 49.6701C78.1016 50.0419 78.1898 50.4447 78.1898 50.8784C78.1898 51.5885 77.9658 52.2105 77.5178 52.7444C78.0325 53.0494 78.4162 53.445 78.6688 53.9311C78.9214 54.4173 79.0477 54.9702 79.0477 55.5898C79.0477 56.1093 78.9596 56.5788 78.7832 56.9982C78.6116 57.4176 78.3471 57.7775 77.9896 58.0777C77.6369 58.3732 77.1889 58.602 76.6456 58.7641C76.107 58.9214 75.4707 59 74.7367 59H67.9091V47.8256ZM74.751 52.1152C74.9464 52.1152 75.1371 52.1224 75.3229 52.1367C75.6423 51.8316 75.8019 51.4837 75.8019 51.0929C75.8019 50.6877 75.6423 50.3755 75.3229 50.1563C75.0084 49.9323 74.5461 49.8203 73.936 49.8203H70.1754V52.1152H74.751ZM74.7939 57.0268C75.404 57.0268 75.8663 56.8957 76.1809 56.6336C76.5002 56.3714 76.6599 56.0021 76.6599 55.5254C76.6599 55.0488 76.5002 54.677 76.1809 54.4101C75.8663 54.1432 75.404 54.0098 74.7939 54.0098H70.1754V57.0268H74.7939Z" fill="black"/>
</g>
<defs>
<filter id="filter0_d_195_1717" x="0.492537" y="0" width="121.528" height="122.015" filterUnits="userSpaceOnUse" color-interpolation-filters="sRGB">
<feFlood flood-opacity="0" result="BackgroundImageFix"/>
<feColorMatrix in="SourceAlpha" type="matrix" values="0 0 0 0 0 0 0 0 0 0 0 0 0 0 0 0 0 0 127 0" result="hardAlpha"/>
<feOffset dy="6.50746"/>
<feGaussianBlur stdDeviation="3.25373"/>
<feComposite in2="hardAlpha" operator="out"/>
<feColorMatrix type="matrix" values="0 0 0 0 0 0 0 0 0 0 0 0 0 0 0 0 0 0 0.25 0"/>
<feBlend mode="normal" in2="BackgroundImageFix" result="effect1_dropShadow_195_1717"/>
<feBlend mode="normal" in="SourceGraphic" in2="effect1_dropShadow_195_1717" result="shape"/>
</filter>
</defs>
</svg>
