<svg width="44" height="31" viewBox="0 0 44 31" fill="none" xmlns="http://www.w3.org/2000/svg">
<path d="M43.2212 26.9101V3.84429C43.2212 1.71712 41.5188 0 39.4098 0H3.81139C1.70242 0 0 1.71712 0 3.84429V26.9101C0 29.0372 1.70242 30.7543 3.81139 30.7543H39.4098C41.5188 30.7543 43.2212 29.0372 43.2212 26.9101ZM39.8926 3.56238C40.7311 4.40812 40.2737 5.2795 39.8164 5.71518L29.5002 15.249L39.4098 25.6543C39.7147 26.0131 39.918 26.5769 39.5623 26.9613C39.232 27.3714 38.4697 27.3457 38.1394 27.0895L27.0355 17.53L21.5979 22.5276L16.1857 17.53L5.08186 27.0895C4.75154 27.3457 3.98926 27.3714 3.65894 26.9613C3.30321 26.5769 3.50648 26.0131 3.81139 25.6543L13.721 15.249L3.40485 5.71518C2.94748 5.2795 2.49011 4.40812 3.32862 3.56238C4.16712 2.71663 5.03104 3.12669 5.7425 3.74178L21.5979 16.6586L37.4787 3.74178C38.1902 3.12669 39.0541 2.71663 39.8926 3.56238Z" fill="white"/>
</svg>
