<svg width="1176" height="1154" viewBox="0 0 1176 1154" fill="none" xmlns="http://www.w3.org/2000/svg">
<path d="M587.832 1153.96C912.132 1153.96 1175.03 1002.21 1175.03 815.009C1175.03 627.812 912.132 476.059 587.832 476.059C263.531 476.059 0.633667 627.812 0.633667 815.009C0.633667 1002.21 263.531 1153.96 587.832 1153.96Z" fill="#F5F5F5"/>
<path d="M1061.14 101.813L1045.39 92.715C1045.43 92.07 1045.43 91.4232 1045.39 90.7782V86.2164C1045.15 81.7969 1043.88 77.4955 1041.66 73.664C1039.45 69.8324 1036.36 66.5797 1032.65 64.1719C1031.54 63.4249 1030.29 62.909 1028.97 62.6551C1027.66 62.4011 1026.31 62.4143 1025 62.6938C1023.85 51.1491 1015.83 38.1008 1006.09 32.4942C995.59 26.4033 987.053 31.3218 987.053 43.4781V50.3081C987.099 53.6235 987.64 56.9134 988.658 60.0688L975.585 52.4234C971.685 50.1807 968.525 51.9901 968.525 56.5009C968.657 58.9516 969.364 61.3366 970.591 63.4622C971.818 65.5878 973.529 67.3939 975.585 68.7337L1060.93 118.022C1064.83 120.264 1067.99 118.455 1067.99 113.944C1067.87 111.529 1067.19 109.176 1066 107.07C1064.81 104.965 1063.14 103.165 1061.14 101.813Z" fill="#EBEBEB"/>
<path d="M850.607 51.7098L859.297 55.0483V35.9092C859.297 20.6182 871.402 17.1013 884.553 24.6703C897.703 32.3158 908.356 50.7159 908.356 65.9049V68.6828C910.202 68.1074 912.155 67.9597 914.067 68.2512C915.979 68.5426 917.799 69.2654 919.391 70.3648C924.372 73.619 928.518 77.9999 931.494 83.1532C934.469 88.3066 936.189 94.0877 936.516 100.029V101.303L948.622 108.21C951.904 110.349 954.637 113.231 956.598 116.622C958.559 120.014 959.695 123.82 959.912 127.731C959.912 134.944 954.815 137.925 948.622 134.255L850.607 77.679C847.327 75.5331 844.599 72.6456 842.642 69.2499C840.685 65.8541 839.555 62.0455 839.342 58.132C839.342 51.0217 844.388 48.1165 850.607 51.7098Z" fill="#EBEBEB"/>
<path d="M881.036 1045.06C978.688 1045.06 1057.85 999.364 1057.85 942.994C1057.85 886.624 978.688 840.927 881.036 840.927C783.384 840.927 704.221 886.624 704.221 942.994C704.221 999.364 783.384 1045.06 881.036 1045.06Z" fill="#E0E0E0"/>
<path d="M205.507 953.953L493.232 787.842C493.921 787.612 494.521 787.17 494.946 786.58C495.371 785.99 495.6 785.281 495.6 784.554C495.6 783.827 495.371 783.118 494.946 782.528C494.521 781.938 493.921 781.497 493.232 781.267L472.563 769.34C470.795 768.456 468.845 767.996 466.868 767.996C464.89 767.996 462.94 768.456 461.172 769.34L344.374 836.773C342.617 837.678 340.668 838.151 338.691 838.151C336.714 838.151 334.766 837.678 333.008 836.773L120.056 713.834C118.287 712.95 116.337 712.49 114.36 712.49C112.383 712.49 110.433 712.95 108.664 713.834L98.6741 719.593C97.9844 719.823 97.3845 720.265 96.9595 720.855C96.5345 721.445 96.3058 722.154 96.3058 722.881C96.3058 723.608 96.5345 724.317 96.9595 724.907C97.3845 725.497 97.9844 725.938 98.6741 726.168L311.83 849.235C312.52 849.465 313.12 849.907 313.545 850.497C313.97 851.087 314.198 851.795 314.198 852.523C314.198 853.25 313.97 853.959 313.545 854.549C313.12 855.139 312.52 855.58 311.83 855.81L173.447 935.476C172.766 935.712 172.176 936.154 171.758 936.741C171.34 937.328 171.116 938.03 171.116 938.751C171.116 939.471 171.34 940.174 171.758 940.761C172.176 941.348 172.766 941.79 173.447 942.026L194.115 953.953C195.878 954.856 197.83 955.327 199.811 955.327C201.792 955.327 203.744 954.856 205.507 953.953Z" fill="#E0E0E0"/>
<path d="M227.297 921.179L247.685 909.583C247.685 909.583 257.42 855.937 250.233 809.81C240.039 744.976 195.848 722.6 179.818 729.048C163.788 735.496 160.016 754.711 188.993 792.174C205.864 814.372 227.832 861.111 227.297 921.179Z" fill="#407BFF"/>
<g opacity="0.15">
<path d="M227.297 921.179L247.685 909.583C247.685 909.583 257.42 855.937 250.233 809.81C240.039 744.976 195.848 722.6 179.818 729.048C163.788 735.496 160.016 754.711 188.993 792.174C205.864 814.372 227.832 861.111 227.297 921.179Z" fill="black"/>
</g>
<path d="M234.636 895.541H234.458C234.076 895.49 233.73 895.29 233.496 894.984C233.262 894.678 233.158 894.292 233.209 893.91C241.594 833.205 217.179 766.689 189.885 739.905C189.615 739.629 189.465 739.258 189.465 738.872C189.465 738.487 189.615 738.116 189.885 737.84C190.157 737.573 190.523 737.423 190.904 737.423C191.286 737.423 191.652 737.573 191.924 737.84C219.957 765.109 244.754 832.721 236.242 894.318C236.179 894.687 235.978 895.019 235.68 895.246C235.382 895.473 235.009 895.579 234.636 895.541Z" fill="white"/>
<path d="M170.975 953.825C167.764 955.66 161.163 951.633 158.615 949.926C154.265 946.982 150.753 942.96 148.421 938.254C145.794 932.918 144.903 926.894 145.872 921.026C146.377 917.929 147.101 914.871 148.038 911.877C148.905 908.895 149.746 905.939 150.587 902.983C151.62 900.11 152.062 897.059 151.887 894.012C151.097 887.921 145.694 883.665 140.801 879.995C135.372 875.918 129.715 870.566 129.74 863.252C130.148 857.579 132.424 852.202 136.213 847.961C139.705 843.526 143.859 839.602 147.019 834.938C149.505 831.668 150.807 827.652 150.714 823.546C150.361 821.034 149.493 818.623 148.166 816.461C145.617 811.696 142.177 807.312 140.52 802.19C138.864 797.067 138.991 790.696 143.069 787.052C146.356 784.044 151.224 783.611 155.658 783.917C159.819 784.413 163.82 785.814 167.382 788.02C179.003 794.493 185.629 808.255 197.963 813.225C202.858 814.759 207.846 815.977 212.898 816.869C217.995 818.194 222.913 820.717 225.207 825.305C229.743 834.352 221.333 845.489 224.519 855.096C227.348 863.583 235.579 866.845 240.217 874.49C242.113 877.875 242.872 881.779 242.384 885.627C241.998 892.125 240.408 898.494 237.694 904.41C234.724 910.297 231.317 915.954 227.5 921.332C227.093 921.485 171.459 953.545 170.975 953.825Z" fill="#407BFF"/>
<path d="M203.927 936.266C203.736 936.259 203.549 936.215 203.375 936.136C203.201 936.057 203.045 935.944 202.914 935.805C202.784 935.665 202.683 935.501 202.616 935.322C202.549 935.143 202.518 934.953 202.525 934.762C204.921 877.294 177.856 813.862 158.156 795.436C157.888 795.165 157.738 794.798 157.738 794.417C157.738 794.036 157.888 793.669 158.156 793.398C158.432 793.128 158.803 792.978 159.188 792.978C159.574 792.978 159.944 793.128 160.22 793.398C180.302 812.205 207.928 876.682 205.507 934.966C205.462 935.345 205.273 935.692 204.978 935.934C204.684 936.176 204.307 936.295 203.927 936.266Z" fill="white"/>
<path d="M195.313 868.374C195.17 868.399 195.023 868.399 194.88 868.374C181.269 864.619 167.288 862.362 153.186 861.646C152.801 861.629 152.438 861.46 152.178 861.176C151.917 860.891 151.781 860.515 151.798 860.13C151.814 859.745 151.984 859.382 152.268 859.121C152.552 858.861 152.929 858.724 153.314 858.741C167.663 859.493 181.89 861.791 195.746 865.596C195.928 865.651 196.097 865.742 196.244 865.864C196.39 865.985 196.511 866.134 196.598 866.303C196.686 866.471 196.739 866.656 196.755 866.845C196.771 867.035 196.748 867.225 196.689 867.406C196.596 867.694 196.411 867.945 196.163 868.119C195.914 868.294 195.616 868.383 195.313 868.374Z" fill="white"/>
<path d="M396.873 734.4V726.907L263.46 804.076L269.805 807.822L396.873 734.4Z" fill="#37474F"/>
<path d="M230.508 226.409C230.836 226.595 231.096 226.88 231.252 227.224C231.407 227.567 231.45 227.951 231.374 228.32L120.821 719.032L117.686 732.947C116.157 733.056 114.627 732.757 113.252 732.081L105.861 727.723C105.533 727.531 105.274 727.24 105.123 726.892C104.972 726.544 104.936 726.156 105.02 725.786L218.504 222.076C218.567 221.814 218.689 221.569 218.86 221.36C219.032 221.151 219.248 220.984 219.494 220.871C219.739 220.758 220.007 220.702 220.277 220.708C220.547 220.714 220.812 220.781 221.053 220.904L230.508 226.409Z" fill="#37474F"/>
<path d="M244.371 219.706L130.352 725.811C130.261 726.212 130.087 726.589 129.842 726.919C129.596 727.248 129.283 727.522 128.925 727.723L121.509 732.004C120.342 732.655 119.022 732.981 117.686 732.947L120.821 719.032L231.654 227.173L244.371 219.706Z" fill="#455A64"/>
<path d="M257.114 901.759V916.388C255.692 916.419 254.284 916.104 253.011 915.47L246.13 911.495C245.669 911.281 245.274 910.949 244.983 910.532C244.692 910.116 244.516 909.63 244.473 909.124V469.586L257.216 476.926L257.114 901.759Z" fill="#37474F"/>
<path d="M269.831 469.611V909.201C269.763 909.683 269.573 910.14 269.278 910.528C268.984 910.916 268.595 911.223 268.149 911.418L261.319 915.394C260.047 916.088 258.613 916.431 257.165 916.387V476.925L269.831 469.611Z" fill="#455A64"/>
<path d="M422.052 821.176C420.654 821.122 419.289 820.729 418.077 820.029L410.992 815.926C410.532 815.656 410.138 815.288 409.838 814.847C409.538 814.406 409.341 813.904 409.259 813.378L333.467 418.132L346.209 425.472L419.325 806.955L422.052 821.176Z" fill="#37474F"/>
<path d="M434.744 813.76C434.688 814.279 434.496 814.774 434.187 815.195C433.879 815.615 433.464 815.947 432.985 816.156L426.512 819.927L426.206 820.106C424.928 820.783 423.499 821.125 422.052 821.1L419.325 806.955L346.184 425.472L358.926 418.157L434.591 813.174L434.744 813.76Z" fill="#455A64"/>
<path d="M265.448 824.973L409.565 741.765V727.086L265.448 810.294V824.973Z" fill="#455A64"/>
<path d="M415.808 40.5983L415.554 40.4454L414.866 40.0631C411.17 37.9734 395.879 29.3595 362.876 10.4242C336.55 -4.71385 303.879 -3.7964 268.582 16.6425C181.322 66.9752 110.678 216.521 110.703 350.699C110.703 430.339 135.627 486.686 174.084 508.705C197.224 521.983 220.976 535.439 226.379 538.523C226.583 538.618 226.779 538.729 226.965 538.854L227.526 539.16C253.673 553.712 285.988 552.59 320.954 532.406C408.087 482.074 478.731 332.528 478.731 198.35C478.756 119.041 454.036 62.8467 415.808 40.5983Z" fill="#407BFF"/>
<path opacity="0.1" d="M415.808 40.5983L415.554 40.4454L414.866 40.0631C411.17 37.9734 395.879 29.3595 362.876 10.4242C336.55 -4.71385 303.879 -3.7964 268.582 16.6425C181.322 66.9752 110.678 216.521 110.703 350.699C110.703 430.339 135.627 486.686 174.084 508.705C197.224 521.983 220.976 535.439 226.379 538.523C226.583 538.618 226.779 538.729 226.965 538.854L227.526 539.16C253.673 553.712 285.988 552.59 320.954 532.406C408.087 482.074 478.731 332.528 478.731 198.35C478.756 119.041 454.036 62.8467 415.808 40.5983Z" fill="black"/>
<path opacity="0.1" d="M445.065 367.901L140.291 191.928C121.662 242.566 110.703 297.818 110.703 350.699C110.703 430.339 135.627 486.686 174.084 508.705C197.224 521.983 220.976 535.439 226.379 538.523C226.583 538.618 226.779 538.729 226.965 538.854L227.526 539.16C253.673 553.712 285.988 552.59 320.954 532.406C371.337 503.379 416.191 441.145 445.065 367.901Z" fill="black"/>
<path opacity="0.1" d="M110.958 365.786C113.94 437.475 138.048 488.113 174.033 508.756C197.173 522.034 220.925 535.49 226.328 538.574C226.532 538.669 226.728 538.78 226.914 538.905L227.475 539.211C253.622 553.763 285.937 552.641 320.903 532.457C333.238 525.187 344.748 516.599 355.231 506.845L110.958 365.786Z" fill="black"/>
<path d="M320.954 46.5873C233.821 96.8945 163.202 246.44 163.202 380.618C163.202 514.796 233.846 582.765 320.979 532.457C408.112 482.15 478.756 332.477 478.756 198.401C478.756 64.3248 408.112 -3.74545 320.954 46.5873Z" fill="#407BFF"/>
<path d="M320.954 94.8302C251.125 135.147 194.523 255.003 194.523 362.422C194.523 469.841 251.15 524.43 320.979 484.112C390.808 443.795 447.359 324.016 447.359 216.495C447.359 108.974 390.808 54.4876 320.954 94.8302Z" fill="#FAFAFA"/>
<path d="M320.979 143.073C268.429 173.4 225.869 263.566 225.869 344.404C225.869 425.242 268.455 466.273 320.979 435.946C373.504 405.619 416.089 315.453 416.089 234.615C416.089 153.777 373.453 112.721 320.979 143.073Z" fill="#407BFF"/>
<path d="M320.979 191.316C285.734 211.704 257.267 272.103 257.267 326.386C257.267 380.669 285.835 408.116 320.979 387.779C356.123 367.443 384.691 306.967 384.691 252.709C384.691 198.452 356.199 170.954 320.979 191.316Z" fill="#FAFAFA"/>
<path d="M320.979 239.534C303.14 249.906 288.511 280.666 288.537 308.343C288.562 336.02 303.063 349.934 320.979 339.587C338.895 329.241 353.421 298.48 353.421 270.778C353.421 243.076 338.895 229.187 320.979 239.534Z" fill="#455A64"/>
<path d="M914.727 890.317C914.064 895.108 911.872 899.032 918.142 910.169C923.009 918.783 930.043 922.377 934.579 925.46C939.665 929.09 944.249 933.374 948.214 938.203C952.192 943.581 957.031 948.266 962.536 952.067C966.818 954.895 977.827 953.8 982.644 950.945C987.461 948.091 989.015 943.478 987.614 935.17C986.212 926.862 960.523 927.244 960.523 927.244L914.727 890.317Z" fill="#37474F"/>
<path d="M983.332 839.627L982.058 917.56C982.058 922.147 956.904 927.881 951.476 917.407C950.781 909.36 949.521 901.372 947.704 893.502C945.742 885.678 942.403 872.07 942.403 872.07C939.549 855.836 938.275 843.858 938.275 843.858L983.332 839.627Z" fill="#FFA8A7"/>
<path d="M867.503 875.51C867.503 875.51 855.653 947.632 855.296 951.608C854.939 955.584 843.751 958.158 835.469 957.903C827.186 957.648 822.293 953.8 822.369 952.016L820.331 875.051L867.503 875.51Z" fill="#FFA8A7"/>
<path d="M878.054 779.457C878.054 779.457 879.073 765.568 887.279 723.645C892.988 694.592 897.728 663.399 897.728 663.399C897.728 663.399 907.922 701.015 913.911 730.654C918.193 752.214 922.5 772.525 930.808 813.607C934.259 831.672 938.683 849.537 944.06 867.125C960.039 875.612 983.409 865.877 983.409 865.877C983.409 865.877 984.377 840.825 984.046 809.81C983.638 769.645 974.846 753.921 974.846 753.921C974.846 753.921 971.456 699.766 969.749 659.78C967.455 603.076 969.213 550.195 955.859 506.055C953.795 505.494 828.435 450.727 825.173 525.729C824.383 544.257 823.006 593.57 821.681 633.148C819.413 700.225 820.05 750.124 819.974 772.959C819.515 794.952 819.311 815.569 819.719 856.6C819.923 874.44 820.968 889.73 820.968 889.73C836.004 899.924 868.14 887.488 868.14 887.488C868.14 887.488 869.567 869.852 874.002 844.928C881.902 801.4 878.054 779.457 878.054 779.457Z" fill="#37474F"/>
<g opacity="0.2">
<path d="M877.723 613.092C870.663 611.053 856.468 602.719 853.843 597.418C850.811 591.328 850.148 559.344 850.122 557.993V556.745L901.729 553.075L901.882 554.196C903.534 565.872 904.546 577.63 904.915 589.416V591.073C905.119 596.17 884.807 611.817 882.743 613.066C882.234 613.368 881.653 613.526 881.061 613.525C879.933 613.542 878.809 613.396 877.723 613.092ZM852.569 559.089C852.798 568.952 853.792 591.863 856.035 596.348C858.278 600.833 871.326 608.759 878.411 610.773C880.959 611.486 881.52 611.129 881.545 611.129C885.98 608.402 902.672 594.156 902.57 591.251V589.569C902.237 578.244 901.284 566.946 899.716 555.725L852.569 559.089Z" fill="black"/>
</g>
<g opacity="0.2">
<path d="M968.016 599.279L968.5 596.73C959.759 592.525 947.042 585.517 946.073 583.147C944.875 580.242 942.633 559.828 941.741 550.934C944.289 550.271 952.266 548.385 964.218 545.837L963.734 543.467C948.8 546.627 940.212 548.895 940.135 548.921L939.141 549.175V550.195C939.447 553.253 942.148 580.191 943.728 584.115C945.309 588.04 964.371 597.52 968.016 599.279Z" fill="black"/>
</g>
<path d="M820.101 869.317L820.331 875.051C820.331 875.051 824.943 881.066 844.72 881.473C864.496 881.881 869.644 876.733 869.644 876.733L870.281 871.942C873.441 872.681 872.829 876.427 870.74 885.78C868.65 895.133 866.917 903.212 864.878 905.149C862.839 907.086 852.136 910.399 840.54 909.864C828.944 909.328 821.324 904.512 819.286 901.708C817.247 898.905 816.559 887.692 815.998 881.652C815.437 875.612 816.661 869.547 820.101 869.317Z" fill="#407BFF"/>
<path d="M936.363 838.71L937.765 844.444C937.765 844.444 942.276 849.541 962.001 847.859C981.727 846.177 984.02 840.647 984.02 840.647V836.008C988.225 836.645 989.321 839.958 988.251 849.464C987.18 858.97 986.237 867.304 984.428 869.343C982.619 871.381 972.374 875.841 960.701 876.529C949.029 877.217 943.525 873.599 941.231 871.025C938.937 868.451 936.848 856.192 935.675 850.229C934.503 844.265 932.999 839.321 936.363 838.71Z" fill="#407BFF"/>
<path opacity="0.2" d="M897.754 663.399L906.75 618.902C912.511 616.14 917.583 612.13 921.599 607.161C925.615 602.193 928.474 596.392 929.967 590.181C929.967 590.181 931.47 610.569 913.707 620.763L902.647 663.17L907.056 699.715L897.754 663.399Z" fill="black"/>
<path d="M751.241 978.367C749.457 978.189 749.661 983.464 750.272 985.86C750.884 988.255 758.249 995.875 771.349 998.602C784.448 1001.33 802.517 998.882 810.29 998.602C818.062 998.322 831.442 1002.07 839.164 1003.19C846.886 1004.31 860.826 1001.71 865.439 997.353C866.189 996.482 866.745 995.461 867.07 994.358C867.395 993.255 867.482 992.096 867.325 990.957C867.172 985.86 866.713 984.764 866.101 984.815L751.241 978.367Z" fill="#37474F"/>
<path d="M863.604 943.249C864.399 940.474 864.945 937.634 865.235 934.762C865.445 932.373 865.105 929.966 864.241 927.729C863.738 926.855 863.063 926.093 862.257 925.489C861.451 924.884 860.531 924.45 859.552 924.212L858.43 931.373C856.927 932.826 852.696 933.488 850.963 934.609C847.064 937.158 846.3 942.433 845.28 946.97C845.121 948.04 844.72 949.06 844.108 949.951C840.591 954.309 839.572 946.689 839.393 944.651C839.138 941.694 838.884 938.407 836.692 936.393C834.45 934.81 831.79 933.923 829.046 933.845C826.37 933.616 823.185 933.718 821.732 931.296L821.554 926.786C819.286 926.531 816.049 926.964 815.106 929.334C814.757 930.517 814.688 931.764 814.902 932.978C815.259 936.368 815.743 939.757 816.406 943.172C817.047 945.675 817.431 948.237 817.553 950.818C817.579 951.293 817.579 951.77 817.553 952.245C816.942 953.351 816.066 954.288 815.004 954.972C810.823 956.942 806.271 958.002 801.65 958.081C794.922 958.514 789.213 957.495 781.644 957.393C774.692 956.999 767.755 958.413 761.511 961.496C758.204 963.085 755.457 965.642 753.637 968.829C751.816 972.015 751.007 975.679 751.317 979.336C753.998 984.181 758.211 988 763.295 990.192C769.638 992.652 776.33 994.097 783.123 994.474C791.099 995.289 802.134 993.887 810.137 993.429C816.86 993.259 823.578 993.97 830.117 995.544C840.311 997.583 847.243 998.092 856.443 995.34C859.934 994.27 864.267 992.205 865.872 988.357C866.387 983.073 866.069 977.742 864.929 972.557C864.751 971.512 864.547 970.492 864.317 969.473C864.088 968.454 863.706 966.924 863.375 965.701C862.865 963.79 862.839 961.7 862.508 959.738C862.381 959.024 861.998 957.189 861.514 954.87C861.727 952.635 862.068 950.414 862.534 948.218C862.763 946.664 863.196 944.88 863.604 943.249Z" fill="#455A64"/>
<path d="M812.889 955.787C808.329 959.655 805.436 965.132 804.81 971.078C804.963 974.952 798.133 975.207 797.98 971.359C798.98 966.43 801.089 961.793 804.148 957.801C806.705 956.056 809.826 955.338 812.889 955.787Z" fill="#FAFAFA"/>
<path d="M798.031 958.056C794.224 961.495 791.609 966.055 790.564 971.078C790.437 973.933 784.499 973.627 784.626 970.773C784.626 970.773 785.544 961.623 792.119 957.826C793.954 956.527 797.42 956.858 798.031 958.056Z" fill="#FAFAFA"/>
<path d="M786.308 957.444C783.174 957.444 776.598 961.624 773.362 971.206C771.425 978.255 770.922 985.621 771.884 992.868C765.371 992.047 759.295 989.152 754.554 984.611C752.76 983.08 751.288 981.209 750.222 979.106C749.757 976.572 749.808 973.97 750.373 971.457C750.938 968.943 752.005 966.569 753.509 964.478C758.071 959.075 765.105 955.533 776.165 954.972C788.576 954.335 789.647 957.648 789.647 957.648L786.308 957.444Z" fill="#FAFAFA"/>
<path d="M921.531 880.123C927.673 876.529 945.41 884.633 945.41 884.633L946.455 888.787C946.455 888.787 947.194 891.744 947.577 893.196C948.494 896.484 952.674 897.554 955.732 897.987C963.725 898.7 971.766 897.303 979.051 893.935C982.287 892.151 982.491 890.189 982.491 890.189C982.491 889.017 982.491 885.831 982.491 885.831C984.479 885.831 986.747 886.749 986.416 890.928C985.83 898.421 985.167 911.494 986.416 918.299C986.976 921.663 987.919 925.613 988.404 928.952C988.76 931.22 988.658 937.897 985.677 940.573C984.844 941.594 983.834 942.458 982.695 943.121C976.222 947.148 964.856 946.485 959.555 941.235C952.827 934.711 948.086 928.773 938.657 920.847C933.076 916.209 927.699 913.992 923.162 908.283C920.679 905.012 918.774 901.341 917.53 897.427C914.14 888.048 915.211 883.818 921.531 880.123Z" fill="#455A64"/>
<path d="M939.371 904.41C940.924 900.005 943.821 896.198 947.653 893.528C947.271 891.973 946.838 890.393 946.455 888.788C943.611 890.111 941.062 891.993 938.96 894.322C936.858 896.652 935.247 899.38 934.223 902.346C933.331 905.2 937.383 906.805 939.371 904.41Z" fill="#FAFAFA"/>
<path d="M948.545 908.436C949.023 907.078 949.637 905.771 950.38 904.537C949.845 902.422 949.284 900.154 948.673 897.758C946.312 900.21 944.519 903.15 943.423 906.372C942.531 909.099 946.583 910.705 948.545 908.436Z" fill="#FAFAFA"/>
<path d="M923.111 908.64C923.111 907.901 922.041 890.393 945.41 884.659C945.41 884.532 945.003 883.002 944.824 882.365C941.829 879.645 938.096 877.872 934.095 877.268C925.558 876.096 919.339 879.052 915.721 885.194C912.102 891.336 918.371 905.608 923.111 908.64Z" fill="#FAFAFA"/>
<path d="M786.843 400.522C776.981 398.203 759.294 392.876 739.62 386.097C717.983 378.452 695.454 371.8 691.657 371.112C684.419 369.813 674.047 370.501 667.625 368.768C659.979 366.678 652.207 366.066 645.504 361.122C644.489 360.517 643.615 359.701 642.943 358.73C642.27 357.758 641.814 356.653 641.605 355.49C641.605 354.292 641.885 353.094 641.834 351.897C641.834 350.011 640.585 348.278 640.789 346.417C641.044 343.869 643.746 341.983 643.847 339.409C643.757 338.278 643.552 337.16 643.236 336.071C642.93 334.032 644.943 331.305 646.065 329.648C646.676 328.782 648.384 327.253 647.415 326.106C644.12 322.406 640.513 318.996 636.635 315.912C629.55 309.974 625.677 304.546 628.633 301.156C632.711 296.442 640.203 302.532 649.684 309.159C654.959 312.854 660.132 316.804 665.484 320.321C667.574 321.723 676.035 328.629 678.227 325.163C678.801 324.022 678.989 322.725 678.762 321.468C678.532 318.919 678.074 316.192 678.023 313.542C677.863 310.904 678.39 308.27 679.552 305.896C679.981 304.987 680.651 304.211 681.489 303.654C681.911 303.384 682.398 303.23 682.899 303.207C683.4 303.185 683.898 303.295 684.343 303.526C685.188 304.15 685.784 305.053 686.025 306.075C687.248 309.26 688.446 312.446 689.644 315.632C691.273 321.018 693.531 326.193 696.372 331.05C698.647 334.686 701.757 337.727 705.445 339.919C707.993 341.117 724.966 345.22 730.522 346.57C740.104 348.864 794.565 360.103 795.636 360.358L942.225 344.404L940.186 392.163C940.186 392.163 806.161 405.084 786.843 400.522Z" fill="#FFA8A7"/>
<path d="M935.14 339.689C945.105 338.364 960.141 338.466 968.678 349.654C977.216 360.842 977.114 369.711 977.012 383.982C976.91 398.254 969.927 423.688 969.927 423.688L935.14 339.689Z" fill="#407BFF"/>
<path d="M668.491 341.346C668.542 341.71 668.514 342.08 668.409 342.432C668.303 342.784 668.123 343.109 667.88 343.385C667.611 343.636 667.294 343.831 666.948 343.958C666.602 344.085 666.234 344.142 665.866 344.124C665.136 344.108 664.41 344.014 663.7 343.843C663.114 343.843 662.324 343.843 662.171 344.353C662.155 344.531 662.178 344.71 662.24 344.878C662.302 345.045 662.4 345.197 662.528 345.322C663.536 346.312 664.618 347.223 665.765 348.048C667.166 349.272 668.848 351.591 667.294 353.145C666.852 353.648 666.293 354.035 665.666 354.27C665.039 354.506 664.364 354.583 663.7 354.496C662.706 354.496 661.712 354.114 660.693 354.063C660.515 354.063 660.285 354.063 660.311 354.318C660.338 354.387 660.382 354.448 660.438 354.496C661.864 355.424 663.123 356.587 664.159 357.937C664.494 358.368 664.726 358.87 664.836 359.404C664.947 359.939 664.933 360.492 664.796 361.02C664.286 362.244 662.248 362.855 661.126 362.932H660.54C660.54 362.932 660.54 362.932 660.54 363.059H660.719C661.085 363.188 661.459 363.29 661.84 363.365C662.788 363.481 663.746 363.247 664.534 362.708C665.322 362.168 665.887 361.36 666.121 360.434C666.369 359.625 666.373 358.761 666.133 357.95C665.893 357.139 665.419 356.416 664.771 355.872C665.636 355.99 666.517 355.882 667.33 355.561C668.142 355.24 668.858 354.715 669.409 354.037C671.957 351.209 670.301 348.813 668.058 346.672C668.838 346.531 669.567 346.189 670.173 345.678C670.548 350.813 672.261 355.76 675.143 360.026C673.176 354.597 672.217 348.853 672.314 343.079C672.31 341.676 672.446 340.275 672.722 338.899C672.896 337.648 673.134 336.406 673.436 335.179C673.835 333.17 674.459 331.212 675.296 329.343C673.988 330.138 672.86 331.197 671.983 332.452C671.218 333.548 671.269 335.204 669.587 335.382C668.624 335.399 667.679 335.114 666.886 334.567C666.112 334.023 665.25 333.618 664.337 333.369C664.237 333.343 664.131 333.341 664.029 333.363C663.927 333.385 663.832 333.431 663.751 333.497C663.573 333.726 663.751 334.057 663.955 334.287C665.872 335.933 667.396 337.988 668.415 340.301C668.508 340.641 668.534 340.996 668.491 341.346Z" fill="#F28F8F"/>
<path d="M871.377 322.283L876.244 369.023L922.907 371.571L919.187 317.365L871.377 322.283Z" fill="#FFA8A7"/>
<path d="M844.108 266.344C844.108 266.344 832.283 282.374 833.43 284.183C834.577 285.993 842.579 287.777 842.579 287.777L844.108 266.344Z" fill="#F28F8F"/>
<path d="M876.958 222.026C854.557 225.517 847.625 234.768 843.675 269.988C839.521 306.661 842.681 318.409 847.243 323.634C850.326 327.151 868.421 328.731 877.697 326.667C889.318 324.118 915.644 316.345 928.667 298.48C944.085 277.481 949.412 248.173 934.783 235.278C914.319 217.107 886.082 220.598 876.958 222.026Z" fill="#FFA8A7"/>
<path d="M841.126 233.749C842.73 235.548 844.544 237.148 846.529 238.514C849.397 240.593 852.402 242.475 855.525 244.146C858.577 245.455 861.51 247.024 864.292 248.836C868.166 251.919 868.472 255.742 868.319 260.38C868.319 263.413 868.038 267.159 867.86 271.211C867.605 277.328 871.249 282.17 873.594 274.091C873.594 274.091 877.825 260.686 889.191 263.005C900.557 265.324 900.863 278.296 894.874 288.133C891.204 294.122 882.386 292.033 882.386 292.033C881.768 297.711 882.369 303.456 884.149 308.884C885.929 314.312 888.847 319.297 892.708 323.506C892.708 323.506 901.551 328.731 919.773 325.851C933.025 309.515 941.231 301.691 948.596 287.369C964.193 257.118 958.51 237.291 948.163 228.524C946.787 214.125 935.879 207.117 923.213 203.473C904.252 198.044 885.725 208.569 866.968 203.218C863.879 202.407 860.833 201.437 857.844 200.312C856.707 199.692 855.377 199.528 854.124 199.854C853.419 200.269 852.851 200.881 852.489 201.614C852.127 202.347 851.986 203.17 852.085 203.982C852.125 205.828 852.609 207.637 853.496 209.256C854.383 210.875 855.648 212.257 857.182 213.284C856.799 213.029 854.914 213.437 854.404 213.437C853.334 213.437 852.289 213.437 851.218 213.437C849.108 213.306 847.007 213.06 844.924 212.698C843.5 212.431 842.04 212.431 840.617 212.698C839.022 213.226 837.641 214.256 836.681 215.634C835.721 217.012 835.233 218.665 835.29 220.344C835.438 223.679 836.448 226.919 838.221 229.747C838.838 230.938 839.545 232.08 840.336 233.162C840.59 233.37 840.854 233.566 841.126 233.749Z" fill="#37474F"/>
<path d="M847.243 323.634C849.791 326.463 862.049 328.043 871.581 327.457H872.243L871.581 322.36C871.581 322.36 856.341 325.877 847.243 323.634Z" fill="#F28F8F"/>
<path d="M966.079 364.257C960.345 350.444 947.908 337.37 931.904 340.021C928.183 340.632 924.64 340.938 921.123 341.575C919.238 349.399 894.288 350.138 873.798 345.398L849.766 348.278C835.061 353.222 823.236 381.587 821.146 424.733C819.056 467.879 821.375 534.318 822.216 564.365C851.711 576.472 884.077 579.791 915.415 573.921C959.478 565.155 966.665 546.245 966.665 546.245L963.276 469.127C963.276 452.358 969.392 429.626 970.692 418.846C974.616 385.69 969.545 372.641 966.079 364.257Z" fill="#455A64"/>
<path d="M530.108 395.399C529.146 396.13 528.366 397.074 527.831 398.158C527.296 399.242 527.02 400.435 527.025 401.643C527.006 402.077 527.105 402.507 527.311 402.889C527.518 403.27 527.824 403.588 528.197 403.809L611.762 445.273L616.12 436.481L532.555 395.017C532.148 394.868 531.71 394.824 531.282 394.891C530.854 394.958 530.45 395.133 530.108 395.399Z" fill="#455A64"/>
<path d="M528.197 403.835C518.003 398.738 497.08 382.937 497.08 382.937C497.08 382.937 527.458 392.443 532.555 395.043L528.197 403.835Z" fill="#455A64"/>
<path opacity="0.2" d="M613.673 436.889L531.459 396.342L497.08 382.912L530.261 399.63L613.368 441.119L613.673 436.889Z" fill="white"/>
<path d="M613.673 436.965C612.705 437.685 611.921 438.624 611.385 439.704C610.849 440.785 610.577 441.977 610.59 443.184C610.743 445.401 612.348 446.191 614.183 444.968C615.155 444.245 615.941 443.303 616.477 442.217C617.013 441.132 617.284 439.934 617.267 438.724C617.114 436.456 615.559 435.64 613.673 436.965Z" fill="#37474F"/>
<path d="M610.717 439.106C622.364 417.673 679.705 389.181 727.158 412.653C774.611 436.124 862.534 527.055 885.699 574.584C830.04 584.141 716.276 575.399 670.479 552.769C624.683 530.138 600.829 489.006 610.717 439.106Z" fill="#407BFF"/>
<path opacity="0.7" d="M610.717 439.106C622.364 417.673 679.705 389.181 727.158 412.653C774.611 436.124 862.534 527.055 885.699 574.584C830.04 584.141 716.276 575.399 670.479 552.769C624.683 530.138 600.829 489.006 610.717 439.106Z" fill="white"/>
<path d="M651.238 514.159C648.893 477.945 668.211 434.417 694.384 416.985C705.444 409.594 715.944 408.065 724.584 411.506C677.64 390.226 622.109 418.055 610.666 439.106C600.778 489.005 624.734 530.087 670.505 552.718C659.954 547.34 652.563 533.808 651.238 514.159Z" fill="#407BFF"/>
<path opacity="0.15" d="M670.556 552.718C716.429 575.349 830.091 584.09 885.776 574.533C837.1 575.502 747.979 559.854 697.442 533.197C655.698 511.178 619 472.644 610.794 439.106C600.829 489.006 624.785 530.087 670.556 552.718Z" fill="black"/>
<path opacity="0.5" d="M610.717 439.106C655.494 421.063 702.131 430.722 733.707 447.644C765.283 464.566 861.514 539.186 885.699 574.584C885.699 574.584 816.61 478.888 741.582 434.417C666.555 389.946 610.717 439.106 610.717 439.106Z" fill="white"/>
<path d="M984.632 665.744C977.139 676.294 950.074 662.813 920.69 638.883L905.195 605.752L910.624 630.345C892.357 614.353 875.704 596.607 860.903 577.362C869.44 576.776 877.774 575.858 885.776 574.508L926.858 594.36C926.858 594.36 997.196 648.083 984.632 665.744Z" fill="#407BFF"/>
<path opacity="0.15" d="M984.632 665.744C977.139 676.294 950.074 662.813 920.69 638.883L905.195 605.752L910.624 630.345C892.357 614.353 875.704 596.607 860.903 577.362C869.44 576.776 877.774 575.858 885.776 574.508L926.858 594.36C926.858 594.36 997.196 648.083 984.632 665.744Z" fill="black"/>
<g opacity="0.15">
<path d="M860.903 577.387C868.069 586.829 875.725 595.888 883.839 604.529C878.039 597.781 873.264 590.216 869.669 582.077L885.98 579.248L926.756 594.386L885.699 574.584C877.774 575.884 869.44 576.801 860.903 577.387Z" fill="black"/>
</g>
<path d="M926.858 594.386L885.699 574.584C874.766 565.205 872.422 560.618 861.54 552.234C880.011 550.459 898.571 549.787 917.122 550.22L907.489 563.982L932.974 551.24C955.503 553.406 969.953 558.503 978.133 565.486C1002.7 586.383 971.762 603.79 926.858 594.386Z" fill="#407BFF"/>
<path opacity="0.5" d="M907.566 563.931L917.199 550.169C898.648 549.736 880.087 550.408 861.616 552.183C861.616 552.183 904.202 551.749 910.93 552.896L907.566 563.931Z" fill="white"/>
<path opacity="0.5" d="M949.412 596.985C981.064 597.419 998.292 582.637 978.159 565.384C969.978 558.401 955.528 553.304 932.999 551.138L920.257 557.535L934.452 553.61C934.452 553.61 963.454 556.541 976.426 570.863C984.403 579.681 975.381 596.756 949.412 596.985Z" fill="white"/>
<path d="M843.088 412.78C816.227 463.572 800.885 497.798 792.45 506.361C784.014 514.924 720.328 564.976 697.315 567.27C674.302 569.563 653.71 562.53 651.697 550.806C651.037 547.53 650.994 544.16 651.569 540.867C651.569 540.867 657.1 544.741 657.38 544.843C664.388 547.239 675.015 546.449 680.087 542.575C687.58 536.841 670.658 532.381 666.707 527.59C661.61 521.601 663.828 515.128 676.545 520.683C687.605 525.551 697.442 529.399 705.317 529.17C713.192 528.94 758.428 481.538 758.428 481.538C758.428 481.538 782.689 430.288 793.979 402.917C815.208 351.514 835.978 351.769 847.243 351.514L843.088 412.78Z" fill="#FFA8A7"/>
<path d="M849.766 348.278C838.731 349.374 830.499 349.858 821.274 354.726C810.086 360.613 806.135 371.138 801.064 382.759C791.405 404.778 782.231 424.758 782.231 424.758C785.875 434.697 806.39 458.551 824.969 451.619C824.969 451.619 840.617 424.605 848.772 407.173C856.392 390.838 857.895 361.683 849.766 348.278Z" fill="#407BFF"/>
</svg>
