<svg width="401" height="401" viewBox="0 0 401 401" fill="none" xmlns="http://www.w3.org/2000/svg">
<g opacity="0.3">
<path d="M381.514 51.4795H289.833V170.729H381.514V51.4795Z" stroke="black" stroke-miterlimit="10"/>
<path d="M364.691 73.3597H306.656V148.848H364.691V73.3597Z" stroke="black" stroke-miterlimit="10"/>
</g>
<path d="M268.355 38.1149H25.6228V252.106H268.355V38.1149Z" fill="#263238" stroke="#263238" stroke-miterlimit="10"/>
<path d="M263.753 32.9047H21.021V246.896H263.753V32.9047Z" fill="white" stroke="#263238" stroke-linecap="round" stroke-linejoin="round"/>
<path d="M216.488 119.263H228.558V107.309H216.488V119.263Z" fill="white" stroke="#263238" stroke-linecap="round" stroke-linejoin="round"/>
<path d="M232.288 119.263H244.358V107.309H232.288V119.263Z" fill="white" stroke="#263238" stroke-linecap="round" stroke-linejoin="round"/>
<path d="M211.664 114.009H150.344" stroke="#263238" stroke-linecap="round" stroke-linejoin="round"/>
<path d="M216.488 147.482H228.558V135.528H216.488V147.482Z" fill="white" stroke="#263238" stroke-linecap="round" stroke-linejoin="round"/>
<path d="M232.288 147.482H244.358V135.528H232.288V147.482Z" fill="white" stroke="#263238" stroke-linecap="round" stroke-linejoin="round"/>
<path d="M211.664 142.219H150.344" stroke="#263238" stroke-linecap="round" stroke-linejoin="round"/>
<path d="M216.488 175.701H228.558V163.747H216.488V175.701Z" fill="white" stroke="#263238" stroke-linecap="round" stroke-linejoin="round"/>
<path d="M232.288 175.701H244.358V163.747H232.288V175.701Z" fill="white" stroke="#263238" stroke-linecap="round" stroke-linejoin="round"/>
<path d="M211.664 170.438H150.344" stroke="#263238" stroke-linecap="round" stroke-linejoin="round"/>
<path d="M101.095 119.263H113.165V107.309H101.095V119.263Z" fill="white" stroke="#263238" stroke-linecap="round" stroke-linejoin="round"/>
<path d="M116.903 119.263H128.973V107.309H116.903V119.263Z" fill="white" stroke="#263238" stroke-linecap="round" stroke-linejoin="round"/>
<path d="M96.2706 114.009H34.9511" stroke="#263238" stroke-linecap="round" stroke-linejoin="round"/>
<path d="M101.095 147.482H113.165V135.528H101.095V147.482Z" fill="white" stroke="#263238" stroke-linecap="round" stroke-linejoin="round"/>
<path d="M116.903 147.482H128.973V135.528H116.903V147.482Z" fill="white" stroke="#263238" stroke-linecap="round" stroke-linejoin="round"/>
<path d="M96.2706 142.219H34.9511" stroke="#263238" stroke-linecap="round" stroke-linejoin="round"/>
<path d="M101.095 175.701H113.165V163.747H101.095V175.701Z" fill="white" stroke="#263238" stroke-linecap="round" stroke-linejoin="round"/>
<path d="M116.903 175.701H128.973V163.747H116.903V175.701Z" fill="white" stroke="#263238" stroke-linecap="round" stroke-linejoin="round"/>
<path d="M96.2706 170.438H34.9511" stroke="#263238" stroke-linecap="round" stroke-linejoin="round"/>
<path d="M52.0589 216.799H38.7607V229.97H52.0589V216.799Z" fill="white" stroke="#263238" stroke-linecap="round" stroke-linejoin="round"/>
<path d="M106.329 216.799H93.0306V229.97H106.329V216.799Z" fill="white" stroke="#263238" stroke-linecap="round" stroke-linejoin="round"/>
<path d="M162.753 216.799H149.454V229.97H162.753V216.799Z" fill="white" stroke="#263238" stroke-linecap="round" stroke-linejoin="round"/>
<path d="M120.864 111.311L122.92 115.402L132.881 105.872" stroke="#263238" stroke-width="2" stroke-linecap="round" stroke-linejoin="round"/>
<path d="M120.864 139.213L122.92 143.294L132.881 133.765" stroke="#263238" stroke-width="2" stroke-linecap="round" stroke-linejoin="round"/>
<path d="M103.685 168.472L105.75 172.554L115.71 163.024" stroke="#263238" stroke-width="2" stroke-linecap="round" stroke-linejoin="round"/>
<path d="M235.59 110.976L237.646 115.058L247.607 105.528" stroke="#263238" stroke-width="2" stroke-linecap="round" stroke-linejoin="round"/>
<path d="M218.963 139.548L221.019 143.629L230.979 134.109" stroke="#263238" stroke-width="2" stroke-linecap="round" stroke-linejoin="round"/>
<path d="M218.963 168.216L221.019 172.298L230.979 162.777" stroke="#263238" stroke-width="2" stroke-linecap="round" stroke-linejoin="round"/>
<path d="M263.753 32.9047H21.021V66.3337H263.753V32.9047Z" fill="#89B1FF" stroke="#263238" stroke-linecap="round" stroke-linejoin="round"/>
<path d="M263.753 32.9048H254.612V246.896H263.753V32.9048Z" fill="#DBDBDB" stroke="#263238" stroke-linecap="round" stroke-linejoin="round"/>
<path d="M263.753 65.0642H254.612V106.366H263.753V65.0642Z" fill="#949494" stroke="#263238" stroke-linecap="round" stroke-linejoin="round"/>
<path d="M263.753 32.9047H21.021V49.1607H263.753V32.9047Z" fill="#DBDBDB" stroke="#263238" stroke-linecap="round" stroke-linejoin="round"/>
<path d="M129.053 37.6388H33.3309V44.4092H129.053V37.6388Z" fill="white" stroke="#263238" stroke-linecap="round" stroke-linejoin="round"/>
<path d="M249.422 37.9563H257.825" stroke="#263238" stroke-linecap="round" stroke-linejoin="round"/>
<path d="M249.422 41.4735H257.825" stroke="#263238" stroke-linecap="round" stroke-linejoin="round"/>
<path d="M249.422 45.0001H257.825" stroke="#263238" stroke-linecap="round" stroke-linejoin="round"/>
<path d="M105.812 79.8571C105.812 77.7678 106.925 76.5776 108.955 76.5776C110.984 76.5776 112.088 77.7678 112.088 79.8571V86.6275C112.088 88.708 110.984 89.8981 108.955 89.8981C106.925 89.8981 105.812 88.708 105.812 86.6275V79.8571ZM107.886 86.7597C107.886 87.6854 108.296 88.038 108.955 88.038C109.613 88.038 110.023 87.6854 110.023 86.7597V79.7072C110.023 78.7727 109.613 78.4201 108.955 78.4201C108.296 78.4201 107.886 78.7727 107.886 79.7072V86.7597Z" fill="#263238"/>
<path d="M115.265 80.3242V89.7482H113.405V76.7274H115.995L118.123 84.5205V76.7274H119.965V89.7482H117.838L115.265 80.3242Z" fill="#263238"/>
<path d="M121.443 76.7274H123.517V87.888H126.944V89.7482H121.469L121.443 76.7274Z" fill="#263238"/>
<path d="M127.834 76.7274H129.899V89.7482H127.834V76.7274Z" fill="#263238"/>
<path d="M133.228 80.3242V89.7482H131.394V76.7274H133.984L136.112 84.5205V76.7274H137.945V89.7482H135.845L133.228 80.3242Z" fill="#263238"/>
<path d="M141.47 82.2196H144.31V84.0797H141.47V87.888H145.031V89.7482H139.405V76.7274H145.039V78.5875H141.479L141.47 82.2196Z" fill="#263238"/>
<path d="M148.635 76.7274H155.018V78.5875H152.855V89.7482H150.79V78.5875H148.635V76.7274Z" fill="#263238"/>
<path d="M157.991 82.2196H160.821V84.0797H157.991V87.888H161.551V89.7482H155.917V76.7274H161.551V78.5875H157.991V82.2196Z" fill="#263238"/>
<path d="M165.61 76.5776C167.621 76.5776 168.654 77.7678 168.654 79.8571V80.2626H166.705V79.7248C166.705 78.7904 166.331 78.4377 165.672 78.4377C165.013 78.4377 164.64 78.7904 164.64 79.7248C164.64 82.3695 168.672 82.9073 168.672 86.6275C168.672 88.708 167.621 89.8981 165.592 89.8981C163.563 89.8981 162.548 88.708 162.548 86.6275V85.8253H164.506V86.7597C164.506 87.6854 164.916 88.0204 165.574 88.0204C166.233 88.0204 166.642 87.6854 166.642 86.7597C166.642 84.115 162.61 83.5773 162.61 79.8571C162.548 77.7678 163.607 76.5776 165.61 76.5776Z" fill="#263238"/>
<path d="M169.259 76.7274H175.641V78.5875H173.487V89.7482H171.449V78.5875H169.286L169.259 76.7274Z" fill="#263238"/>
<path d="M49.1127 213.626H47.021L46.6649 211.263H44.1637L43.8077 213.626H41.8762L43.9768 200.605H47.0032L49.1127 213.626ZM44.3952 209.491H46.389L45.3921 202.906L44.3952 209.491Z" fill="#263238"/>
<path d="M102.51 203.576V204.034C102.51 205.374 102.101 206.229 101.175 206.679C102.288 207.102 102.715 208.09 102.715 209.465V210.532C102.715 212.542 101.647 213.617 99.5818 213.617H96.3329V200.605H99.4483C101.593 200.605 102.51 201.592 102.51 203.576ZM98.3979 202.439V205.877H99.2079C99.9734 205.877 100.445 205.542 100.445 204.502V203.779C100.445 202.844 100.125 202.439 99.3949 202.439H98.3979ZM98.3979 207.728V211.73H99.5818C100.276 211.73 100.65 211.413 100.65 210.443V209.315C100.65 208.098 100.258 207.728 99.3236 207.728H98.3979Z" fill="#263238"/>
<path d="M159.468 208.769V210.532C159.468 212.621 158.418 213.811 156.388 213.811C154.359 213.811 153.309 212.621 153.309 210.532V203.761C153.309 201.681 154.359 200.491 156.388 200.491C158.418 200.491 159.468 201.681 159.468 203.761V205.031H157.519V203.576C157.519 202.642 157.1 202.289 156.442 202.289C155.783 202.289 155.374 202.642 155.374 203.576V210.629C155.374 211.563 155.792 211.898 156.442 211.898C157.092 211.898 157.519 211.563 157.519 210.629V208.769H159.468Z" fill="#263238"/>
<path d="M35.8857 193.667H193.657" stroke="#263238" stroke-linecap="round" stroke-linejoin="round"/>
<path opacity="0.3" d="M295.022 33.9537H312.442V16.7015L295.022 16.7015V33.9537Z" stroke="black" stroke-linecap="round" stroke-linejoin="round"/>
<path opacity="0.3" d="M317.836 33.9537H335.255V16.7015L317.836 16.7015V33.9537Z" stroke="black" stroke-linecap="round" stroke-linejoin="round"/>
<path opacity="0.3" d="M298.77 23.5249L301.743 29.4138L310.484 19.884" stroke="black" stroke-width="2" stroke-linecap="round" stroke-linejoin="round"/>
<path opacity="0.3" d="M31.3285 287.069H48.7479V269.817H31.3285L31.3285 287.069Z" stroke="black" stroke-linecap="round" stroke-linejoin="round"/>
<path opacity="0.3" d="M54.1328 287.069H71.5522V269.817H54.1328V287.069Z" stroke="black" stroke-linecap="round" stroke-linejoin="round"/>
<path opacity="0.3" d="M35.0581 276.64L38.0311 282.529L46.7719 273" stroke="black" stroke-width="2" stroke-linecap="round" stroke-linejoin="round"/>
<path opacity="0.3" d="M113.85 287.069H131.27V269.817H113.85V287.069Z" stroke="black" stroke-linecap="round" stroke-linejoin="round"/>
<path opacity="0.3" d="M136.664 287.069H154.083V269.817H136.664V287.069Z" stroke="black" stroke-linecap="round" stroke-linejoin="round"/>
<path opacity="0.3" d="M117.589 276.64L120.562 282.529L129.302 273" stroke="black" stroke-width="2" stroke-linecap="round" stroke-linejoin="round"/>
<g opacity="0.3">
<path d="M140.866 25.3302C146.961 24.3546 151.104 18.6699 150.119 12.6331C149.134 6.59625 143.394 2.4933 137.299 3.46889C131.203 4.44448 127.06 10.1292 128.046 16.166C129.031 22.2028 134.77 26.3058 140.866 25.3302Z" stroke="black" stroke-linecap="round" stroke-linejoin="round"/>
<path d="M142.209 18.403L139.085 14.4007V8.09753" stroke="black" stroke-linecap="round" stroke-linejoin="round"/>
</g>
<g opacity="0.3">
<path d="M347.761 226.779H346.106L345.821 224.91H343.809L343.525 226.779H342.02L343.694 216.456H346.088L347.761 226.779ZM344.023 223.508H345.598L344.806 218.281L344.023 223.508Z" fill="black"/>
<path d="M371.073 218.827V219.197C371.136 219.609 371.069 220.03 370.881 220.403C370.693 220.775 370.393 221.081 370.023 221.278C370.441 221.466 370.786 221.784 371.006 222.183C371.225 222.582 371.309 223.041 371.242 223.491V224.372C371.283 224.705 371.247 225.043 371.136 225.359C371.025 225.676 370.842 225.963 370.601 226.199C370.36 226.435 370.069 226.613 369.748 226.719C369.427 226.826 369.086 226.858 368.75 226.814H366.178V216.456H368.652C370.343 216.456 371.073 217.232 371.073 218.827ZM367.815 217.946V220.679H368.456C369.062 220.679 369.435 220.414 369.435 219.585V219.012C369.435 218.272 369.186 217.946 368.599 217.946H367.815ZM367.815 222.151V225.324H368.75C369.302 225.324 369.64 225.078 369.64 224.311V223.429C369.64 222.477 369.32 222.177 368.581 222.177L367.815 222.151Z" fill="black"/>
<path d="M394.679 222.97V224.337C394.679 225.994 393.851 226.938 392.24 226.938C390.629 226.938 389.792 225.994 389.792 224.337V218.968C389.792 217.311 390.629 216.368 392.24 216.368C393.851 216.368 394.679 217.311 394.679 218.968V219.973H393.13V218.827C393.13 218.087 392.801 217.813 392.285 217.813C391.768 217.813 391.395 218.087 391.395 218.827V224.407C391.395 225.148 391.724 225.412 392.285 225.412C392.845 225.412 393.13 225.148 393.13 224.407V222.97H394.679Z" fill="black"/>
<path d="M351.019 232.412H338.353V244.957H351.019V232.412Z" stroke="black" stroke-miterlimit="10"/>
<path d="M374.58 232.412H361.914V244.957H374.58V232.412Z" stroke="black" stroke-miterlimit="10"/>
<path d="M398.141 232.412H385.475V244.957H398.141V232.412Z" stroke="black" stroke-miterlimit="10"/>
</g>
<path d="M50.7859 377.739H23.9847" stroke="#263238" stroke-miterlimit="10"/>
<path d="M400.5 377.739H59.518" stroke="#263238" stroke-miterlimit="10"/>
<path d="M297.524 377.439L303.256 291.222L307.475 250.229L295.904 237.437L290.1 233.259C290.1 233.259 281.929 240.311 276.134 241.871C270.34 243.432 264.768 245.01 264.768 245.01C264.768 245.01 244.998 281.824 243.405 298.53C241.812 315.235 239.186 377.121 239.186 377.121L241.385 377.439H297.524Z" fill="#9E9E9E" stroke="#263238" stroke-miterlimit="10"/>
<path d="M270.349 306.358C270.349 306.358 269.361 305.856 271.337 300.813" stroke="#263238" stroke-miterlimit="10"/>
<path d="M268.025 244.128C269.008 251.093 269.552 258.112 269.654 265.145C269.654 265.145 275.591 262.791 280.336 254.566C282.957 250.152 285.213 245.535 287.083 240.76L268.025 244.128Z" fill="#263238" stroke="#263238" stroke-miterlimit="10"/>
<path d="M297.523 377.439L302.677 299.923C297.621 302.479 287.643 306.702 276.633 306.887C263.441 307.107 247.108 296.96 247.108 296.96L243.432 298.389C243.432 298.433 243.432 298.486 243.432 298.53C241.847 315.279 239.213 377.121 239.213 377.121L241.411 377.439H297.523Z" fill="white" stroke="#263238" stroke-miterlimit="10"/>
<path d="M288.943 334.048C288.943 354.016 289.637 373.225 289.833 377.421H328.686C329.22 371.197 332.567 332.461 334.285 318.577C336.163 303.405 348.482 280.819 348.482 272.735C348.482 264.651 350.983 265.929 339.733 260.049C328.482 254.169 303.665 241.475 300.23 239.923C296.794 238.372 293.038 234.634 293.038 234.634C293.038 234.634 294.284 242.374 293.928 263.417C293.572 284.46 288.943 311.471 288.943 334.048Z" fill="#89B1FF"/>
<g opacity="0.2">
<path d="M293.037 234.713C293.501 238.376 293.768 242.06 293.839 245.75V235.462C293.34 235.013 293.037 234.713 293.037 234.713Z" fill="black"/>
<path d="M344.13 285.095V287.739C344.432 286.937 344.735 286.161 345.02 285.394V285.077H345.135C345.251 284.786 345.358 284.486 345.465 284.195H345.02V273.22H348.464C348.464 273.088 348.464 272.947 348.464 272.814C348.464 272.682 348.464 272.497 348.464 272.338H345.02V262.941C344.744 262.773 344.45 262.615 344.13 262.438V272.338H334.783V261.319H342.011L340.338 260.437H334.783V257.528L333.893 257.061V260.411H324.547V252.247L323.657 251.789V260.411H314.311V249.418H318.966L317.239 248.536H314.311V247.046L313.421 246.588V248.536H304.075V241.88C303.763 241.722 303.47 241.572 303.185 241.439V248.536H293.928C293.928 248.827 293.928 249.118 293.928 249.418H303.185V260.437H294.008C294.008 260.728 294.008 261.019 294.008 261.319H303.185V272.338H293.839V268.151C293.661 272.453 293.34 276.967 292.948 281.56V284.204H292.717L292.637 285.086H292.948V296.141H291.613L291.524 297.022H292.993V308.042H290.465L290.385 308.923H292.993V319.943H289.522L289.468 320.825H293.029V331.844H289.085C289.085 332.144 289.085 332.435 289.085 332.726H293.037V343.745H289.112C289.112 344.045 289.112 344.336 289.112 344.627H293.029V355.646H289.29C289.29 355.946 289.29 356.237 289.29 356.528H293.011V377.465H293.901V356.502H303.185V377.439H304.075V356.502H313.421V377.439H314.311V356.502H323.657V377.439H324.547V356.502H330.538C330.538 356.211 330.538 355.92 330.618 355.62H324.547V344.627H331.668C331.668 344.336 331.73 344.045 331.757 343.745H324.547V332.726H332.772C332.772 332.426 332.825 332.144 332.861 331.844H324.547V320.825H333.893V321.997L334.285 318.621C334.41 317.633 334.579 316.611 334.783 315.562V308.923H336.448L336.715 308.042H334.783V297.022H340.569C340.685 296.731 340.792 296.432 340.907 296.141H334.783V285.121L344.13 285.095ZM334.783 273.22H344.13V284.239H334.783V273.22ZM303.185 355.62H293.839V344.627H303.185V355.62ZM303.185 343.719H293.839V332.699H303.185V343.719ZM303.185 331.818H293.839V320.825H303.185V331.818ZM303.185 319.917H293.839V308.897H303.185V319.917ZM303.185 308.015H293.839V297.022H303.185V308.015ZM303.185 296.114H293.839V285.095H303.185V296.114ZM303.185 284.213H293.839V273.22H303.185V284.213ZM313.421 355.62H304.075V344.627H313.421V355.62ZM313.421 343.719H304.075V332.699H313.421V343.719ZM313.421 331.818H304.075V320.825H313.421V331.818ZM313.421 319.917H304.075V308.897H313.421V319.917ZM313.421 308.015H304.075V297.022H313.421V308.015ZM313.421 296.114H304.075V285.095H313.421V296.114ZM313.421 284.213H304.075V273.22H313.421V284.213ZM313.421 272.312H304.075V261.292H313.421V272.312ZM313.421 260.411H304.075V249.418H313.421V260.411ZM323.657 355.62H314.311V344.627H323.657V355.62ZM323.657 343.719H314.311V332.699H323.657V343.719ZM323.657 331.818H314.311V320.825H323.657V331.818ZM323.657 319.917H314.311V308.897H323.657V319.917ZM323.657 308.015H314.311V297.022H323.657V308.015ZM323.657 296.114H314.311V285.095H323.657V296.114ZM323.657 284.213H314.311V273.22H323.657V284.213ZM323.657 272.312H314.311V261.292H323.657V272.312ZM333.893 319.917H324.547V308.897H333.893V319.917ZM333.893 308.015H324.547V297.022H333.893V308.015ZM333.893 296.114H324.547V285.095H333.893V296.114ZM333.893 284.213H324.547V273.22H333.893V284.213ZM333.893 272.312H324.547V261.292H333.893V272.312Z" fill="black"/>
</g>
<path d="M288.943 334.048C288.943 354.016 289.637 373.225 289.833 377.421H328.686C329.22 371.197 332.567 332.461 334.285 318.577C336.163 303.405 348.482 280.819 348.482 272.735C348.482 264.651 350.983 265.929 339.733 260.049C328.482 254.169 303.665 241.475 300.23 239.923C296.794 238.372 293.038 234.634 293.038 234.634C293.038 234.634 294.284 242.374 293.928 263.417C293.572 284.46 288.943 311.471 288.943 334.048Z" stroke="#263238" stroke-miterlimit="10"/>
<path d="M293.037 234.713C293.037 234.713 294.284 242.453 293.928 263.496C293.856 268.786 293.491 274.498 293.037 280.387C294.106 278.933 297.55 274.287 298.378 274.022C299.313 273.714 304.315 278.359 308.374 278.977C312.433 279.594 313.999 279.594 309.629 274.948C305.259 270.302 303.398 256.691 301.814 246.473C301.512 244.286 301.027 242.127 300.363 240.02H300.256C296.785 238.433 293.037 234.713 293.037 234.713Z" fill="#263238" stroke="#263238" stroke-miterlimit="10"/>
<path d="M318.682 330.451C321.557 329.155 323.817 328.035 323.817 328.035L324.877 336.128C324.877 336.128 309.318 342.916 300.621 343.436C291.925 343.956 291.133 344.221 291.133 344.221L291.391 336.393" stroke="#263238" stroke-miterlimit="10"/>
<path d="M310.893 333.616C312.486 333.087 314.355 332.338 316.18 331.553" stroke="#263238" stroke-miterlimit="10"/>
<path d="M294.284 335.608C298.833 335.494 303.371 335.084 307.867 334.383" stroke="#263238" stroke-miterlimit="10"/>
<path d="M324.877 336.128L325.402 342.396" stroke="#263238" stroke-miterlimit="10"/>
<path d="M205.62 377.439H249.342C249.44 374.045 250.704 330.91 251.558 308.897C252.449 285.976 268.15 251.207 268.15 251.207C268.15 251.207 270.251 246.306 268.025 244.102C265.8 241.898 260.46 242.779 256.454 245.865C252.449 248.95 215.509 264.819 213.284 267.022C211.059 269.226 211.504 276.72 210.614 285.535C209.723 294.351 195.037 355.179 195.037 355.179C195.037 355.179 191.031 356.061 189.696 356.942C188.361 357.824 188.361 360.468 188.361 360.468C188.361 360.468 190.141 360.909 195.482 363.554C200.395 365.987 204.926 375.861 205.62 377.439Z" fill="#89B1FF"/>
<path opacity="0.2" d="M262.24 261.292V265.797C262.542 264.986 262.836 264.201 263.13 263.443V261.292H263.967L264.314 260.411H263.13V249.418H268.737C268.8 249.144 268.871 248.845 268.916 248.536H263.13V243C262.836 243.044 262.542 243.088 262.24 243.158V248.536H252.894V247.937L252.003 248.386V248.536H251.701L249.921 249.418H252.003V260.437H242.657V252.856L241.767 253.27V260.411H232.421V257.598L231.531 258.013V260.411H226.36L224.472 261.292H231.531V272.338H222.185V262.377L221.295 262.8V272.338H211.949V270.117C211.448 273.328 211.151 276.566 211.059 279.814V284.222H210.738L210.658 285.103H211.059V296.141H208.664L208.477 297.022H211.059V308.042H206.065C206.003 308.333 205.932 308.632 205.869 308.923H211.059V319.943H203.359C203.288 320.243 203.226 320.534 203.154 320.824H211.059V331.844H201.712V326.995L200.822 330.804V331.8H200.591L200.386 332.682H200.822V343.745H197.778L197.565 344.627H200.822V355.646H193.265C192.358 355.887 191.466 356.181 190.595 356.528V361.324C190.862 361.429 191.156 361.553 191.485 361.703V356.528H200.822V368.87C201.134 369.311 201.428 369.751 201.712 370.201V356.537H211.059V377.474H211.949V356.501H221.295V377.439H222.185V356.501H231.531V377.439H232.421V356.501H241.767V377.439H242.657V356.501H249.965V355.62H242.657V344.627H250.339V343.745H242.657V332.726H250.722V331.844H242.657V320.824H251.122C251.122 320.534 251.122 320.234 251.122 319.943H242.657V308.923H251.558C251.558 308.632 251.558 308.341 251.603 308.042H242.657V297.022H252.003V303.537C252.235 301.659 252.529 299.729 252.894 297.771V297.022H253.036C253.089 296.731 253.152 296.44 253.205 296.141H252.894V285.121H255.875C255.956 284.83 256.045 284.539 256.125 284.239H252.894V273.22H259.569C259.676 272.929 259.774 272.629 259.872 272.338H252.894V261.319L262.24 261.292ZM252.894 249.418H262.24V260.437H252.894V249.418ZM211.059 355.646H201.712V344.627H211.059V355.646ZM211.059 343.745H201.712V332.726H211.059V343.745ZM221.295 355.646H211.949V344.627H221.295V355.646ZM221.295 343.745H211.949V332.726H221.295V343.745ZM221.295 331.844H211.949V320.824H221.295V331.844ZM221.295 319.943H211.949V308.923H221.295V319.943ZM221.295 308.042H211.949V297.022H221.295V308.042ZM221.295 296.141H211.949V285.121H221.295V296.141ZM221.295 284.239H211.949V273.22H221.295V284.239ZM231.531 355.646H222.185V344.627H231.531V355.646ZM231.531 343.745H222.185V332.726H231.531V343.745ZM231.531 331.844H222.185V320.824H231.531V331.844ZM231.531 319.943H222.185V308.923H231.531V319.943ZM231.531 308.042H222.185V297.022H231.531V308.042ZM231.531 296.141H222.185V285.121H231.531V296.141ZM231.531 284.239H222.185V273.22H231.531V284.239ZM241.767 355.646H232.421V344.627H241.767V355.646ZM241.767 343.745H232.421V332.726H241.767V343.745ZM241.767 331.844H232.421V320.824H241.767V331.844ZM241.767 319.943H232.421V308.923H241.767V319.943ZM241.767 308.042H232.421V297.022H241.767V308.042ZM241.767 296.141H232.421V285.121H241.767V296.141ZM241.767 284.239H232.421V273.22H241.767V284.239ZM241.767 272.338H232.421V261.319H241.767V272.338ZM252.003 296.141H242.657V285.121H252.003V296.141ZM252.003 284.239H242.657V273.22H252.003V284.239ZM252.003 272.338H242.657V261.319H252.003V272.338Z" fill="black"/>
<path d="M205.62 377.439H249.342C249.44 374.045 250.704 330.91 251.558 308.897C252.449 285.976 268.15 251.207 268.15 251.207C268.15 251.207 270.251 246.306 268.025 244.102C265.8 241.898 260.46 242.779 256.454 245.865C252.449 248.95 215.509 264.819 213.284 267.022C211.059 269.226 211.504 276.72 210.614 285.535C209.723 294.351 195.037 355.179 195.037 355.179C195.037 355.179 191.031 356.061 189.696 356.942C188.361 357.824 188.361 360.468 188.361 360.468C188.361 360.468 190.141 360.909 195.482 363.554C200.395 365.987 204.926 375.861 205.62 377.439Z" stroke="#263238" stroke-miterlimit="10"/>
<path d="M188.361 360.495C188.361 360.495 190.141 360.936 195.482 363.58C200.822 366.225 205.718 377.685 205.718 377.685H214.343C214.886 376.081 216.212 370.245 210.168 363.14C203.048 354.765 195.037 355.205 195.037 355.205C195.037 355.205 191.031 356.087 189.696 356.969C188.361 357.85 188.361 360.495 188.361 360.495Z" fill="#263238" stroke="#263238" stroke-miterlimit="10"/>
<path d="M262.649 243.052C260.735 248.069 256.205 259.414 252.449 264.818C247.553 271.871 238.652 277.601 241.767 280.246C244.883 282.89 253.784 274.516 253.784 274.516C253.784 274.516 256.009 280.686 256.454 282.45C256.478 282.53 256.517 282.604 256.57 282.67C259.783 271.961 263.647 261.454 268.141 251.207C268.141 251.207 270.242 246.305 268.017 244.101C266.868 242.955 264.91 242.656 262.649 243.052Z" fill="#263238" stroke="#263238" stroke-miterlimit="10"/>
<path d="M230.143 285.606C230.398 283.976 230.564 282.334 230.641 280.687" stroke="#263238" stroke-miterlimit="10"/>
<path d="M223.075 378.541C223.075 378.541 224.41 350.331 224.41 334.022C224.41 322.27 227.641 302.506 229.457 290.402" stroke="#263238" stroke-miterlimit="10"/>
<path d="M225.3 327.877C225.3 327.877 232.421 330.081 235.982 330.522L246.663 331.844L245.853 341.832C245.853 341.832 245.328 341.541 237.317 338.897C229.306 336.252 224.41 334.048 224.41 334.048" stroke="#263238" stroke-miterlimit="10"/>
<path d="M245.853 341.806C245.853 341.806 245.328 361.376 245.328 364.021C245.328 366.666 237.317 364.903 237.317 364.903" stroke="#263238" stroke-miterlimit="10"/>
<path d="M252.244 233.743C252.244 233.743 260.638 245.697 268.15 251.207C275.663 256.717 282.071 249.003 287.083 240.734C292.094 232.465 295.432 226.4 297.933 219.233C300.434 212.066 297.933 200.217 287.919 190.846C277.906 181.475 254.514 167.688 248.675 174.855C242.835 182.022 237.263 197.775 241.153 211.237C243.477 219.33 247.232 226.95 252.244 233.743Z" fill="#9E9E9E" stroke="#263238" stroke-miterlimit="10"/>
<path d="M248.71 208.028C251.878 207.087 255.254 207.087 258.421 208.028" stroke="#263238" stroke-width="2" stroke-miterlimit="10" stroke-linecap="round"/>
<path d="M255.893 215.407C256.16 216.835 255.822 218.095 255.137 218.219C254.451 218.342 253.695 217.284 253.428 215.848C253.161 214.411 253.499 213.159 254.184 213.035C254.87 212.912 255.626 213.97 255.893 215.407Z" fill="#263238"/>
<path d="M280.656 215.786C280.914 217.214 280.576 218.431 279.899 218.598C279.223 218.766 278.457 217.664 278.19 216.227C277.923 214.79 278.262 213.538 278.947 213.414C279.632 213.291 280.389 214.349 280.656 215.786Z" fill="#263238"/>
<path d="M262.311 235.224C265.527 236.322 268.928 236.789 272.325 236.6C278.173 236.326 283.184 232.192 283.184 232.192" stroke="#263238" stroke-miterlimit="10"/>
<path d="M249.538 180.946C249.538 180.946 261.902 208.874 263.45 209.641C264.999 210.408 268.088 201.222 268.088 201.222C268.088 201.222 272.334 208.866 277.372 211.166C282.41 213.467 283.941 209.641 283.941 209.641C286.465 211.049 288.916 212.582 291.284 214.234L293.215 215.759L295.147 222.644C295.147 222.644 289.352 241.395 291.284 243.696C293.216 245.997 304.03 242.929 304.03 242.929C304.03 242.929 301.36 246.755 304.805 246.755C308.249 246.755 314.462 247.522 323.346 235.656C332.229 223.791 333.003 204.669 333.003 204.669C333.003 204.669 337.249 209.253 337.641 203.514C338.032 197.775 332.621 188.211 332.621 188.211C332.621 188.211 341.112 196.629 340.347 187.831C339.581 179.033 334.552 169.081 332.621 166.788C330.689 164.496 319.091 157.973 319.091 157.973C319.091 157.973 323.728 157.206 320.257 151.846C316.786 146.486 304.03 144.961 299.393 144.961C294.755 144.961 285.098 146.495 285.098 146.495C285.098 146.495 291.284 134.629 284.715 133.862C278.146 133.095 266.557 145.728 266.557 145.728C266.557 145.728 254.985 136.542 251.487 138.455C247.989 140.368 250.33 143.048 250.33 143.048C250.33 143.048 235.27 144.194 231.015 150.7C226.76 157.206 231.789 161.032 231.789 161.032C231.789 161.032 204.748 179.395 208.994 186.28C213.239 193.165 220.974 186.668 220.974 186.668C220.974 186.668 210.151 214.217 211.699 216.13C213.248 218.043 220.601 215.363 220.601 215.363C220.601 215.363 220.218 237.552 226.012 239.853C231.807 242.154 232.964 237.94 232.964 237.94C232.964 237.94 236.053 240.999 243.013 241.378C249.974 241.757 252.279 233.726 252.279 233.726C252.279 233.726 244.553 215.742 244.945 200.826C245.337 185.91 249.538 180.946 249.538 180.946Z" fill="#263238" stroke="#263238" stroke-miterlimit="10"/>
<path d="M265.097 213.167C265.097 213.167 262.311 227.502 264.536 230.534C266.761 233.567 274.559 230.534 275.111 228.886" fill="#9E9E9E"/>
<path d="M265.097 213.167C265.097 213.167 262.311 227.502 264.536 230.534C266.761 233.567 274.559 230.534 275.111 228.886" stroke="#263238" stroke-miterlimit="10"/>
<path d="M253.543 221.992C259.615 221.992 264.536 218.412 264.536 213.996C264.536 209.58 259.615 206 253.543 206C247.472 206 242.551 209.58 242.551 213.996C242.551 218.412 247.472 221.992 253.543 221.992Z" stroke="#263238" stroke-miterlimit="10"/>
<path d="M279.98 221.446C286.051 221.446 290.972 217.866 290.972 213.45C290.972 209.034 286.051 205.454 279.98 205.454C273.908 205.454 268.987 209.034 268.987 213.45C268.987 217.866 273.908 221.446 279.98 221.446Z" stroke="#263238" stroke-miterlimit="10"/>
<path d="M265.097 213.167C265.097 213.167 267.322 211.519 268.987 213.45" stroke="#263238" stroke-miterlimit="10"/>
<path d="M173.505 365.705C173.505 365.705 187.48 361.8 191.779 361.094C196.078 360.389 204.686 368.191 206.119 372.449C207.552 376.707 205.718 377.659 205.718 377.659L177.083 376.716L173.505 365.705Z" fill="#9E9E9E" stroke="#263238" stroke-miterlimit="10"/>
<path d="M178.57 364.33C178.57 364.33 189.117 368.244 191.752 369.813C194.387 371.382 193.595 374.512 192.019 376.072C190.119 377.646 187.852 378.724 185.423 379.211C182.966 379.349 180.502 379.349 178.045 379.211C174.885 378.946 171.983 379.475 169.348 379.475C166.713 379.475 158.8 378.69 158.8 378.69L156.424 377.121C156.424 377.121 151.973 378.426 148.52 379.766C145.066 381.106 146.143 378.197 148.778 376.107C151.413 374.018 158.008 368.799 159.067 368.279C160.127 367.759 173.567 363.871 173.567 363.871L178.57 364.33Z" fill="#9E9E9E" stroke="#263238" stroke-miterlimit="10"/>
<path d="M182.522 365.37C182.522 365.37 175.659 362.24 173.816 362.24C171.974 362.24 158.791 366.648 156.949 367.979C155.106 369.311 153.255 381.82 154.572 382.605C155.89 383.389 156.949 381.035 157.243 379.475C157.536 377.915 161.204 369.549 161.204 369.549L158.533 382.869C158.533 382.869 159.593 384.95 160.643 383.125C161.693 381.3 168.289 368.764 168.814 367.979C169.505 367.252 170.307 366.636 171.191 366.155C171.191 366.155 169.873 371.902 168.814 377.386C167.755 382.869 168.556 384.438 170.14 384.694C171.725 384.95 172.508 381.3 173.3 379.475C174.092 377.65 177.519 367.195 177.519 367.195" fill="#9E9E9E"/>
<path d="M182.522 365.37C182.522 365.37 175.659 362.24 173.816 362.24C171.974 362.24 158.791 366.648 156.949 367.979C155.106 369.311 153.255 381.82 154.572 382.605C155.89 383.389 156.949 381.035 157.243 379.475C157.536 377.915 161.204 369.549 161.204 369.549L158.533 382.869C158.533 382.869 159.593 384.95 160.643 383.125C161.693 381.3 168.289 368.764 168.814 367.979C169.505 367.252 170.307 366.636 171.191 366.155C171.191 366.155 169.873 371.902 168.814 377.386C167.755 382.869 168.556 384.438 170.14 384.694C171.725 384.95 172.508 381.3 173.3 379.475C174.092 377.65 177.519 367.195 177.519 367.195" stroke="#263238" stroke-miterlimit="10"/>
<path d="M190.141 370.598C190.141 370.598 182.237 378.691 181.178 380.515C180.119 382.34 180.127 382.605 183.029 382.605C185.931 382.605 194.894 376.857 195.678 376.072C196.461 375.288 196.212 372.943 194.36 371.374C193.771 370.92 193.08 370.613 192.346 370.478C191.612 370.343 190.856 370.384 190.141 370.598Z" fill="#9E9E9E" stroke="#263238" stroke-miterlimit="10"/>
<path d="M239.506 369.699C239.506 369.699 228.959 373.075 226.368 374.988C223.778 376.901 220.04 379.008 220.85 379.651C221.66 380.295 224.259 379.651 225.069 379.008C225.879 378.364 229.608 377.721 229.608 377.721C229.608 377.721 233.988 375.147 237.397 373.066C240.806 370.986 243.396 368.729 239.506 369.699Z" fill="#9E9E9E" stroke="#263238" stroke-miterlimit="10"/>
<path d="M297.728 352.014C297.728 352.014 268.355 357.304 257.727 360.997C247.099 364.691 242.871 367.265 237.557 370.985C232.243 374.706 221.473 381.732 223.075 382.966C224.677 384.2 230.258 379.872 231.202 378.946C232.145 378.02 239.008 375.235 239.008 375.235L243.601 372.907C243.601 372.907 236.685 381.344 234.193 383.486C231.7 385.628 233.383 386.968 235.261 386.351C237.139 385.734 240.681 382.04 240.681 382.04L252.101 374.6C252.101 374.6 247.411 381.106 245.221 382.957C243.031 384.808 247.722 386.369 248.666 384.817C249.609 383.266 254.291 379.246 254.291 379.246C254.291 379.246 262.097 375.226 263.976 373.674C265.854 372.123 270.536 367.794 270.536 367.794L305.535 370.58C305.535 370.58 307.724 369.346 306.478 362.223C305.232 355.1 297.728 352.014 297.728 352.014Z" fill="#9E9E9E" stroke="#263238" stroke-miterlimit="10"/>
<path d="M321.476 297.234L338.664 339.337L310.849 348.929L318.664 371.523C318.664 371.523 338.638 371.576 354.268 370.642C369.898 369.707 380.864 360.371 378.363 349.237C375.862 338.103 366.489 321.997 358.986 302.805C351.482 283.613 353.805 272.171 350.369 266.291C346.933 260.411 337.24 258.859 337.24 258.859L331.9 257.978" fill="#89B1FF"/>
<path opacity="0.2" d="M375.728 360.944V356.537H378.052C378.15 356.246 378.23 355.955 378.301 355.655H375.728V344.627H377.064C376.966 344.344 376.859 344.045 376.761 343.745H375.728V341.056C375.444 340.325 375.15 339.575 374.838 338.826V343.745H365.492V332.725H372.204C372.07 332.434 371.945 332.144 371.812 331.844H365.492V320.824H366.738C366.596 320.533 366.462 320.242 366.329 319.943H365.492V318.1C365.198 317.448 364.896 316.795 364.602 316.134V319.943H355.256V308.923H361.487C361.362 308.632 361.237 308.341 361.122 308.042H355.256V297.022H356.92C356.823 296.731 356.734 296.431 356.645 296.14H355.256V291.115C354.918 289.723 354.624 288.391 354.366 287.113V296.14H345.02V285.121H353.992L353.832 284.239H345.02V273.22H352.328L352.194 272.338H345.02V261.53C344.239 261.115 343.437 260.742 342.616 260.411H334.784V258.436L333.893 258.277V260.411H331.268L331.027 261.292H333.893V272.338H328.108L327.876 273.22H333.902V284.239H324.939L324.699 285.121H333.893V296.14H324.547V285.685L323.657 289.026V296.079H321.77L321.539 296.96H323.657V302.541L324.547 304.718V297.022H333.893V308.042H325.882L326.238 308.923H333.893V319.943H330.778L331.143 320.824H333.938V327.674L334.828 329.851V320.824H344.13V331.844H335.594L335.958 332.725H344.13V343.745H334.784V340.695L333.893 341.003V343.745H325.936L323.372 344.627H323.657V355.646H314.311V347.712L313.421 348.021V355.602H313.163L314.311 358.917V356.484H323.657V371.47H324.547V356.484H333.893V371.356H334.784V356.501H344.13V371.074H345.02V356.501H354.366V370.606L355.256 370.536V356.501H364.602V368.596L365.492 368.261V356.501H374.838V362.037C375.15 361.676 375.452 361.315 375.728 360.944ZM333.893 355.655H324.547V344.627H333.893V355.655ZM344.13 355.655H334.784V344.627H344.13V355.655ZM344.13 319.952H334.784V308.932H344.13V319.952ZM344.13 308.05H334.784V297.022H344.13V308.05ZM344.13 296.149H334.784V285.13H344.13V296.149ZM344.13 284.248H334.784V273.22H344.13V284.248ZM344.13 272.347H334.784V261.327H344.13V272.347ZM354.366 355.655H345.02V344.627H354.366V355.655ZM354.366 343.754H345.02V332.734H354.366V343.754ZM354.366 331.853H345.02V320.824H354.366V331.853ZM354.366 319.952H345.02V308.932H354.366V319.952ZM354.366 308.05H345.02V297.022H354.366V308.05ZM364.602 355.655H355.256V344.627H364.602V355.655ZM364.602 343.754H355.256V332.734H364.602V343.754ZM364.602 331.853H355.256V320.824H364.602V331.853ZM365.492 355.655V344.627H374.838V355.646L365.492 355.655Z" fill="#263238"/>
<path d="M321.476 297.234L338.664 339.337L310.849 348.929L318.664 371.523C318.664 371.523 338.638 371.576 354.268 370.642C369.898 369.707 380.864 360.371 378.363 349.237C375.862 338.103 366.489 321.997 358.986 302.805C351.482 283.613 353.805 272.171 350.369 266.291C346.933 260.411 337.24 258.859 337.24 258.859L331.9 257.978" stroke="#263238" stroke-miterlimit="10"/>
<path d="M355.398 335.053C349.727 336.093 344.136 337.522 338.664 339.329C338.664 339.329 350.538 331.589 357.099 330.971" stroke="#263238" stroke-miterlimit="10"/>
<path d="M363.356 334.684C362.124 334.507 360.876 334.466 359.635 334.559" stroke="#263238" stroke-miterlimit="10"/>
<path d="M318.975 345.508C318.975 345.508 325.295 351.494 327.164 356.131C329.033 360.768 328.348 373.366 327.102 374.6C325.856 375.834 302.597 375.684 298.77 370.95C297.773 369.716 304.6 366.868 301.164 360.054C297.728 353.239 296.162 352.631 296.162 352.631C296.162 352.631 293.349 351.08 298.663 347.677C303.977 344.274 316.162 341.805 318.975 345.508Z" fill="#263238" stroke="#263238" stroke-miterlimit="10"/>
<path d="M374.384 393.236H351.313L348.429 348.065H377.268L374.384 393.236Z" fill="#263238" stroke="#263238" stroke-linejoin="round"/>
<path d="M378.55 348.135H347.156V354.712H378.55V348.135Z" fill="white" stroke="#263238" stroke-linejoin="round"/>
<path d="M378.55 348.382H347.156L350.289 344.486H375.408L378.55 348.382Z" fill="white" stroke="#263238" stroke-linejoin="round"/>
<path d="M375.23 379.986L376.378 361.993H349.319L350.467 379.986H375.23Z" fill="white" stroke="#263238" stroke-linejoin="round"/>
<path d="M241.429 396.242L269.859 388.802V392.61L241.429 400.5V396.242Z" fill="#263238" stroke="#263238" stroke-linejoin="round"/>
<path d="M269.859 388.802H121.22L92.4875 396.242H241.429L269.859 388.802Z" fill="white" stroke="#263238" stroke-linejoin="round"/>
<path d="M241.429 311.171H92.4875V400.5H241.429V311.171Z" fill="white" stroke="#263238" stroke-linejoin="round"/>
<path d="M241.429 324.095C209.029 325.62 189.732 355.196 161.061 375.014C134.928 393.086 102.652 396.172 92.5231 396.656V400.5H241.429V324.095Z" fill="#263238" stroke="#263238" stroke-linejoin="round"/>
<path d="M241.429 396.242H92.4875V400.5H241.429V396.242Z" fill="white" stroke="#263238" stroke-miterlimit="10"/>
<path d="M48.3916 366.772C48.3916 366.772 35.9835 347.113 45.9438 336.049C55.9041 324.985 71.9972 330.31 75.3173 340.554C78.6374 350.798 71.5967 368.006 71.5967 368.006L48.3916 366.772Z" fill="#89B1FF" stroke="#263238" stroke-linecap="round" stroke-linejoin="round"/>
<path d="M48.801 344.239C46.7359 344.239 38.8763 341.374 36.3929 337.689C33.9095 334.004 33.4822 325.805 40.5319 325.805C47.5815 325.805 50.0471 338.094 50.0471 338.094L50.4566 342.599" fill="#89B1FF"/>
<path d="M48.801 344.239C46.7359 344.239 38.8763 341.374 36.3929 337.689C33.9095 334.004 33.4822 325.805 40.5319 325.805C47.5815 325.805 50.0471 338.094 50.0471 338.094L50.4566 342.599" stroke="#263238" stroke-linecap="round" stroke-linejoin="round"/>
<path d="M55.1654 336.587C53.3139 335.705 47.5727 329.64 47.012 325.241C46.4512 320.842 49.7802 313.331 56.0733 316.425C62.3663 319.52 59.0462 331.632 59.0462 331.632L57.3817 335.846" fill="#89B1FF"/>
<path d="M55.1654 336.587C53.3139 335.705 47.5727 329.64 47.012 325.241C46.4512 320.842 49.7802 313.331 56.0733 316.425C62.3663 319.52 59.0462 331.632 59.0462 331.632L57.3817 335.846" stroke="#263238" stroke-linecap="round" stroke-linejoin="round"/>
<path d="M62.6778 338.65C61.6453 336.886 60.2567 328.697 62.2506 324.73C64.2444 320.763 71.2228 316.337 74.7121 322.385C78.2013 328.432 68.6682 336.666 68.6682 336.666L64.9209 339.258" fill="#89B1FF"/>
<path d="M62.6778 338.65C61.6453 336.886 60.2567 328.697 62.2506 324.73C64.2444 320.763 71.2228 316.337 74.7121 322.385C78.2013 328.432 68.6682 336.666 68.6682 336.666L64.9209 339.258" stroke="#263238" stroke-linecap="round" stroke-linejoin="round"/>
<path d="M65.1433 353.336C64.805 351.309 66.3538 343.163 69.5938 340.113C72.8338 337.063 80.9427 335.308 82.1087 342.176C83.2747 349.043 71.4274 353.513 71.4274 353.513L66.9769 354.659" fill="#89B1FF"/>
<path d="M65.1433 353.336C64.805 351.309 66.3538 343.163 69.5938 340.113C72.8338 337.063 80.9427 335.308 82.1087 342.176C83.2747 349.043 71.4274 353.513 71.4274 353.513L66.9769 354.659" stroke="#263238" stroke-linecap="round" stroke-linejoin="round"/>
<path d="M37.3007 332.743L38.6982 334.921" stroke="white" stroke-linecap="round" stroke-linejoin="round"/>
<path d="M41.2973 338.085L43.487 339.857" stroke="white" stroke-linecap="round" stroke-linejoin="round"/>
<path d="M38.903 328.591L41.0927 331.755" stroke="white" stroke-linecap="round" stroke-linejoin="round"/>
<path d="M44.0925 334.33L46.4869 338.676" stroke="white" stroke-linecap="round" stroke-linejoin="round"/>
<path d="M49.6734 323.848L50.4745 326.219" stroke="white" stroke-linecap="round" stroke-linejoin="round"/>
<path d="M52.4682 330.565L53.8657 332.549" stroke="white" stroke-linecap="round" stroke-linejoin="round"/>
<path d="M51.8718 319.105L53.6698 323.055" stroke="white" stroke-linecap="round" stroke-linejoin="round"/>
<path d="M44.8844 346.98L45.4897 350.533" stroke="white" stroke-linecap="round" stroke-linejoin="round"/>
<path d="M46.6825 353.892L47.4836 356.863" stroke="white" stroke-linecap="round" stroke-linejoin="round"/>
<path d="M48.6764 347.174L49.4775 351.123" stroke="white" stroke-linecap="round" stroke-linejoin="round"/>
<path d="M51.2755 353.892L51.8719 356.863" stroke="white" stroke-linecap="round" stroke-linejoin="round"/>
<path d="M52.6729 342.035L53.8657 347.571" stroke="white" stroke-linecap="round" stroke-linejoin="round"/>
<path d="M55.468 352.904L55.6638 355.478" stroke="white" stroke-linecap="round" stroke-linejoin="round"/>
<path d="M57.6576 340.254L58.6545 345.393" stroke="white" stroke-linecap="round" stroke-linejoin="round"/>
<path d="M58.6544 350.736L59.055 356.069" stroke="white" stroke-linecap="round" stroke-linejoin="round"/>
<path d="M63.4523 342.229V346.583" stroke="white" stroke-linecap="round" stroke-linejoin="round"/>
<path d="M62.8468 352.12L63.0515 355.478" stroke="white" stroke-linecap="round" stroke-linejoin="round"/>
<path d="M68.4367 321.67L67.4398 324.05" stroke="white" stroke-linecap="round" stroke-linejoin="round"/>
<path d="M67.0392 326.81L66.0422 330.178" stroke="white" stroke-linecap="round" stroke-linejoin="round"/>
<path d="M72.8249 326.219L71.2316 329.384" stroke="white" stroke-linecap="round" stroke-linejoin="round"/>
<path d="M67.8402 332.946L66.0422 334.92" stroke="white" stroke-linecap="round" stroke-linejoin="round"/>
<path d="M64.0486 326.025L63.4523 328.591" stroke="white" stroke-linecap="round" stroke-linejoin="round"/>
<path d="M72.8249 340.254L70.6352 343.815" stroke="white" stroke-linecap="round" stroke-linejoin="round"/>
<path d="M69.2378 345.984L68.0362 349.149" stroke="white" stroke-linecap="round" stroke-linejoin="round"/>
<path d="M71.0357 350.735L74.6228 348.752" stroke="white" stroke-linecap="round" stroke-linejoin="round"/>
<path d="M76.8215 340.254L75.0234 343.225" stroke="white" stroke-linecap="round" stroke-linejoin="round"/>
<path d="M78.6195 343.613L76.2251 345.394" stroke="white" stroke-linecap="round" stroke-linejoin="round"/>
<path d="M76.0383 359.913H42.1074V393.518H76.0383V359.913Z" fill="#263238" stroke="#263238" stroke-linecap="round" stroke-linejoin="round"/>
</svg>
