<svg width="631" height="470" viewBox="0 0 631 470" fill="none" xmlns="http://www.w3.org/2000/svg">
<path d="M630.513 412.633H0.513184V412.948H630.513V412.633Z" fill="#EBEBEB"/>
<path d="M567.387 432.906H525.656V433.221H567.387V432.906Z" fill="#EBEBEB"/>
<path d="M417.85 436.333H406.901V436.648H417.85V436.333Z" fill="#EBEBEB"/>
<path d="M524.396 421.213H500.216V421.528H524.396V421.213Z" fill="#EBEBEB"/>
<path d="M121.032 423.33H66.6128V423.645H121.032V423.33Z" fill="#EBEBEB"/>
<path d="M140.235 423.33H132.259V423.645H140.235V423.33Z" fill="#EBEBEB"/>
<path d="M284.202 428.647H166.166V428.962H284.202V428.647Z" fill="#EBEBEB"/>
<path d="M299.133 356.437H55.8397C53.9338 356.434 52.107 355.674 50.7605 354.325C49.414 352.976 48.6577 351.148 48.6577 349.242V7.24049C48.6743 5.34548 49.4379 3.53354 50.7826 2.19824C52.1274 0.862944 53.9446 0.112133 55.8397 0.108887H299.133C301.041 0.108887 302.871 0.866887 304.22 2.21614C305.57 3.56539 306.328 5.39536 306.328 7.30349V349.242C306.328 351.15 305.57 352.98 304.22 354.33C302.871 355.679 301.041 356.437 299.133 356.437ZM55.8397 0.360888C54.0173 0.364225 52.2707 1.09051 50.9832 2.38032C49.6958 3.67014 48.9727 5.41808 48.9727 7.24049V349.242C48.9727 351.065 49.6958 352.813 50.9832 354.102C52.2707 355.392 54.0173 356.119 55.8397 356.122H299.133C300.957 356.119 302.705 355.393 303.994 354.103C305.284 352.814 306.009 351.066 306.013 349.242V7.24049C306.009 5.41693 305.284 3.66901 303.994 2.37955C302.705 1.0901 300.957 0.364218 299.133 0.360888H55.8397Z" fill="#EBEBEB"/>
<path d="M571.684 356.437H328.378C326.471 356.434 324.643 355.674 323.294 354.326C321.946 352.977 321.186 351.149 321.183 349.242V7.24049C321.203 5.34433 321.969 3.5324 323.316 2.19745C324.663 0.862504 326.481 0.112098 328.378 0.108887H571.684C573.577 0.115444 575.391 0.867721 576.733 2.20266C578.075 3.53761 578.837 5.34765 578.853 7.24049V349.242C578.853 351.146 578.099 352.972 576.755 354.321C575.411 355.669 573.587 356.43 571.684 356.437ZM328.378 0.360888C326.554 0.364218 324.806 1.0901 323.517 2.37955C322.227 3.66901 321.501 5.41693 321.498 7.24049V349.242C321.501 351.066 322.227 352.814 323.517 354.103C324.806 355.393 326.554 356.119 328.378 356.122H571.684C573.507 356.119 575.255 355.393 576.545 354.103C577.834 352.814 578.56 351.066 578.563 349.242V7.24049C578.56 5.41693 577.834 3.66901 576.545 2.37955C575.255 1.0901 573.507 0.364218 571.684 0.360888H328.378Z" fill="#EBEBEB"/>
<path d="M305.862 149.898H126.967V412.192H305.862V149.898Z" fill="#F0F0F0"/>
<path d="M299.536 158.151H133.279V206.598H299.536V158.151Z" fill="#E0E0E0"/>
<path d="M142.729 165.988H133.279V206.585H142.729V165.988Z" fill="#EBEBEB"/>
<path d="M188.404 165.988H178.954V206.585H188.404V165.988Z" fill="#EBEBEB"/>
<path d="M240.243 164.968L230.931 166.573L237.827 206.581L247.139 204.975L240.243 164.968Z" fill="#EBEBEB"/>
<path d="M154.435 171.343H144.985V206.598H154.435V171.343Z" fill="#EBEBEB"/>
<path d="M176.145 171.343H166.695V206.598H176.145V171.343Z" fill="#EBEBEB"/>
<path d="M230.942 171.343H221.492V206.598H230.942V171.343Z" fill="#EBEBEB"/>
<path d="M200.817 170.119L191.592 172.17L199.241 206.585L208.466 204.535L200.817 170.119Z" fill="#EBEBEB"/>
<path d="M162.6 163.972H157.875V206.585H162.6V163.972Z" fill="#EBEBEB"/>
<path d="M218.77 163.972H214.045V206.585H218.77V163.972Z" fill="#EBEBEB"/>
<path d="M133.292 262.718H299.549V214.271L133.292 214.271V262.718Z" fill="#E0E0E0"/>
<path d="M290.087 262.705H299.537V222.108H290.087V262.705Z" fill="#EBEBEB"/>
<path d="M244.424 262.705H253.874V222.108H244.424V262.705Z" fill="#EBEBEB"/>
<path d="M185.692 261.092L195.004 262.698L201.9 222.69L192.588 221.085L185.692 261.092Z" fill="#EBEBEB"/>
<path d="M278.381 262.718H287.831V227.463H278.381V262.718Z" fill="#EBEBEB"/>
<path d="M256.684 262.718H266.134V227.463H256.684V262.718Z" fill="#EBEBEB"/>
<path d="M201.886 262.718H211.336V227.463H201.886V262.718Z" fill="#EBEBEB"/>
<path d="M224.393 260.658L233.618 262.708L241.267 228.293L232.042 226.243L224.393 260.658Z" fill="#EBEBEB"/>
<path d="M270.216 262.705H274.941V220.092H270.216V262.705Z" fill="#EBEBEB"/>
<path d="M214.058 262.705H218.783V220.092H214.058V262.705Z" fill="#EBEBEB"/>
<path d="M142.729 222.108H133.279V262.705H142.729V222.108Z" fill="#EBEBEB"/>
<path d="M154.435 227.451H144.985V262.705H154.435V227.451Z" fill="#EBEBEB"/>
<path d="M176.145 227.451H166.695V262.705H176.145V227.451Z" fill="#EBEBEB"/>
<path d="M162.6 220.092H157.875V262.705H162.6V220.092Z" fill="#EBEBEB"/>
<path d="M299.536 270.379H133.279V318.826H299.536V270.379Z" fill="#E0E0E0"/>
<path d="M238.162 278.216H228.712V318.813H238.162V278.216Z" fill="#EBEBEB"/>
<path d="M290.008 277.193L280.695 278.799L287.591 318.806L296.904 317.201L290.008 277.193Z" fill="#EBEBEB"/>
<path d="M204.192 283.571H194.742V318.826H204.192V283.571Z" fill="#EBEBEB"/>
<path d="M225.902 283.571H216.452V318.826H225.902V283.571Z" fill="#EBEBEB"/>
<path d="M280.7 283.571H271.25V318.826H280.7V283.571Z" fill="#EBEBEB"/>
<path d="M250.578 282.349L241.354 284.399L249.002 318.815L258.227 316.764L250.578 282.349Z" fill="#EBEBEB"/>
<path d="M212.357 276.2H207.632V318.813H212.357V276.2Z" fill="#EBEBEB"/>
<path d="M268.528 276.2H263.803V318.813H268.528V276.2Z" fill="#EBEBEB"/>
<path d="M181.35 277.203L172.037 278.808L178.933 318.815L188.246 317.21L181.35 277.203Z" fill="#EBEBEB"/>
<path d="M172.037 283.571H162.587V318.826H172.037V283.571Z" fill="#EBEBEB"/>
<path d="M141.921 282.349L132.696 284.399L140.345 318.814L149.57 316.764L141.921 282.349Z" fill="#EBEBEB"/>
<path d="M159.878 276.2H155.153V318.813H159.878V276.2Z" fill="#EBEBEB"/>
<path d="M96.0968 412.872H126.967L126.967 149.898H96.0968L96.0968 412.872Z" fill="#E0E0E0"/>
<path d="M410.567 406.005H384.347L398.131 293.689C398.462 291.342 399.615 289.189 401.384 287.613C403.154 286.037 405.426 285.14 407.795 285.083H522.153L505.382 405.955L410.567 406.005Z" fill="#F5F5F5"/>
<path d="M493.728 406.005H519.948L533.745 293.689C533.913 292.609 533.843 291.506 533.537 290.456C533.232 289.407 532.7 288.438 531.979 287.617C531.258 286.796 530.365 286.143 529.364 285.706C528.363 285.268 527.278 285.055 526.185 285.083H517.176C514.811 285.155 512.548 286.057 510.781 287.63C509.014 289.204 507.857 291.348 507.512 293.689L493.728 406.005Z" fill="#F0F0F0"/>
<path d="M484.076 405.829L488.826 351.523C488.926 350.345 489.428 349.237 490.246 348.384C491.065 347.531 492.151 346.984 493.324 346.836L495.277 346.584C496.854 346.386 498.314 345.652 499.414 344.505C500.513 343.358 501.183 341.867 501.313 340.284L502.182 330.38C502.268 329.42 502.153 328.452 501.844 327.539C501.535 326.626 501.04 325.787 500.389 325.076C499.738 324.365 498.947 323.797 498.064 323.409C497.182 323.02 496.229 322.82 495.265 322.82H539.088C540.052 322.82 541.005 323.02 541.887 323.409C542.77 323.797 543.561 324.365 544.212 325.076C544.863 325.787 545.358 326.626 545.667 327.539C545.976 328.452 546.091 329.42 546.005 330.38L545.136 340.284C545.006 341.867 544.335 343.358 543.236 344.505C542.137 345.652 540.677 346.386 539.1 346.584L537.147 346.836C535.975 346.986 534.89 347.534 534.072 348.386C533.254 349.239 532.751 350.346 532.649 351.523L527.899 405.829C527.729 407.737 526.851 409.513 525.438 410.807C524.025 412.101 522.179 412.82 520.263 412.822H476.44C478.356 412.82 480.202 412.101 481.615 410.807C483.028 409.513 483.906 407.737 484.076 405.829Z" fill="#E6E6E6"/>
<path d="M363.469 337.978C363.121 333.856 361.239 330.014 358.194 327.214C355.148 324.414 351.163 322.859 347.026 322.858H385.179C389.305 322.875 393.275 324.436 396.307 327.235C399.339 330.034 401.212 333.866 401.559 337.978L405.339 381.02H367.236L363.469 337.978Z" fill="#E6E6E6"/>
<path d="M330.079 322.908H347.013C351.15 322.91 355.136 324.464 358.181 327.264C361.226 330.064 363.109 333.906 363.456 338.028L367.236 381.07H458.107L461.887 338.028C462.231 333.916 464.104 330.081 467.136 327.282C470.169 324.483 474.14 322.922 478.267 322.908H495.214C496.178 322.908 497.132 323.108 498.014 323.497C498.896 323.885 499.688 324.453 500.339 325.164C500.989 325.875 501.485 326.714 501.794 327.628C502.102 328.541 502.217 329.508 502.132 330.468L501.262 340.372C501.133 341.955 500.462 343.446 499.363 344.593C498.264 345.741 496.803 346.475 495.227 346.672L493.274 346.924C492.101 347.073 491.014 347.619 490.196 348.472C489.377 349.325 488.876 350.433 488.776 351.611L484.076 405.829C483.906 407.737 483.028 409.513 481.615 410.807C480.202 412.101 478.356 412.82 476.44 412.822H348.903C346.987 412.82 345.141 412.101 343.728 410.807C342.315 409.513 341.437 407.737 341.268 405.829L336.517 351.523C336.413 350.346 335.91 349.241 335.092 348.389C334.274 347.537 333.19 346.989 332.019 346.836L330.066 346.584C328.489 346.385 327.028 345.65 325.927 344.504C324.827 343.357 324.153 341.868 324.018 340.284L323.161 330.38C323.088 329.427 323.213 328.469 323.528 327.566C323.842 326.664 324.34 325.836 324.989 325.134C325.639 324.433 326.426 323.873 327.302 323.49C328.177 323.107 329.123 322.909 330.079 322.908Z" fill="#F0F0F0"/>
<path d="M129.235 136.794C129.235 136.794 127.836 127.583 134.552 121.674C141.268 115.764 140.675 112.261 138.748 111.808C136.82 111.354 135.068 117.251 132.12 118.876C132.12 118.876 132.019 110.46 135.018 107.373C138.017 104.286 139.592 96.2847 136.732 96.1461C133.871 96.0075 133.594 100.884 132.952 104.349C132.309 107.814 129.172 112.677 129.172 112.677C129.172 112.677 128.554 105.117 126.652 102.055C124.749 98.9937 129.877 91.8747 127.912 88.7877C125.946 85.7007 122.38 91.5849 122.67 98.2251C122.96 104.865 127.395 111.946 126.362 118.876C126.362 118.876 124.409 114 122.658 113.559C120.906 113.118 119.129 109.905 117.958 108.708C116.786 107.511 115.299 111.644 117.958 115.474C120.616 119.305 127.395 129.574 126.362 137.865L129.235 136.794Z" fill="#E6E6E6"/>
<path d="M133.241 132.598L135.446 146.395C135.605 147.397 135.544 148.421 135.269 149.397C134.994 150.373 134.51 151.278 133.851 152.049C133.193 152.82 132.375 153.439 131.454 153.864C130.533 154.289 129.531 154.509 128.516 154.509H126.173C125.159 154.509 124.157 154.289 123.236 153.864C122.315 153.439 121.497 152.82 120.838 152.049C120.18 151.278 119.696 150.373 119.42 149.397C119.145 148.421 119.084 147.397 119.243 146.395L121.473 132.598H133.241Z" fill="#E6E6E6"/>
<path d="M265.176 151.813H272.018V122.392H265.176V151.813Z" fill="#EBEBEB"/>
<path d="M232.089 151.813H238.931V122.392H232.089V151.813Z" fill="#EBEBEB"/>
<path d="M189.531 150.643L196.273 151.806L201.271 122.812L194.529 121.65L189.531 150.643Z" fill="#EBEBEB"/>
<path d="M256.696 151.8H263.538V126.26H256.696V151.8Z" fill="#EBEBEB"/>
<path d="M240.972 151.8H247.813V126.26H240.972V151.8Z" fill="#EBEBEB"/>
<path d="M201.256 151.8H208.098V126.26H201.256V151.8Z" fill="#EBEBEB"/>
<path d="M217.574 150.319L224.253 151.803L229.794 126.871L223.115 125.387L217.574 150.319Z" fill="#EBEBEB"/>
<path d="M250.774 151.813H254.202V120.93H250.774V151.813Z" fill="#EBEBEB"/>
<path d="M210.064 151.813H213.491V120.93H210.064V151.813Z" fill="#EBEBEB"/>
<path d="M185.67 128.453H152.318V151.473H185.67V128.453Z" fill="#EBEBEB"/>
<path d="M300.053 137.877H272.119V155.064H300.053V137.877Z" fill="#EBEBEB"/>
<path d="M293.526 122.77H279.553V139.956H293.526V122.77Z" fill="#EBEBEB"/>
<path d="M526.954 100.027H493.728V238.476H526.954V100.027Z" fill="#E0E0E0"/>
<path d="M399.127 238.854L523.388 238.854V100.039L399.127 100.039V238.854Z" fill="#E0E0E0"/>
<path d="M395.12 238.854L524.043 238.854V100.039L395.12 100.039V238.854Z" fill="#F0F0F0"/>
<path d="M400.639 232.465L518.751 232.465V104.449L400.639 104.449V232.465Z" fill="white"/>
<path d="M400.626 232.465H402.819V104.449H400.626V232.465Z" fill="#E0E0E0"/>
<path d="M402.466 196.518V199.97H519.066V196.518H402.466Z" fill="#E0E0E0"/>
<path d="M400.626 196.505L520.591 196.505V190.709L400.626 190.709V196.505Z" fill="#F0F0F0"/>
<path d="M315.513 469.534C450.437 469.534 559.815 463.149 559.815 455.271C559.815 447.394 450.437 441.008 315.513 441.008C180.589 441.008 71.2119 447.394 71.2119 455.271C71.2119 463.149 180.589 469.534 315.513 469.534Z" fill="#F5F5F5"/>
<path d="M406.17 123.362H180.744C175.65 123.362 171.521 127.492 171.521 132.585V398.017C171.521 403.111 175.65 407.24 180.744 407.24H406.17C411.264 407.24 415.393 403.111 415.393 398.017V132.585C415.393 127.492 411.264 123.362 406.17 123.362Z" fill="#407BFF"/>
<path opacity="0.6" d="M406.17 123.362H180.744C175.65 123.362 171.521 127.492 171.521 132.585V398.017C171.521 403.111 175.65 407.24 180.744 407.24H406.17C411.264 407.24 415.393 403.111 415.393 398.017V132.585C415.393 127.492 411.264 123.362 406.17 123.362Z" fill="white"/>
<path d="M375.892 253.558H211.034V281.782H375.892V253.558Z" fill="white"/>
<g opacity="0.4">
<path d="M225.776 270.417V271.16H220.056V263.071H225.6V263.802H220.912V266.687H225.096V267.405H220.912V270.417H225.776Z" fill="#263238"/>
<path d="M226.922 267.67H229.959V268.376H226.922V267.67Z" fill="#263238"/>
<path d="M241.816 267.632V271.16H240.997V267.708C240.997 266.448 240.354 265.767 239.258 265.767C238.974 265.754 238.69 265.803 238.427 265.911C238.164 266.019 237.927 266.183 237.734 266.392C237.541 266.601 237.395 266.849 237.308 267.12C237.221 267.391 237.194 267.677 237.229 267.96V271.16H236.398V267.708C236.398 266.448 235.755 265.767 234.646 265.767C234.362 265.754 234.078 265.803 233.815 265.911C233.552 266.019 233.315 266.183 233.122 266.392C232.929 266.601 232.784 266.849 232.697 267.12C232.609 267.391 232.583 267.677 232.618 267.96V271.16H231.786V265.074H232.58V266.183C232.818 265.812 233.149 265.509 233.54 265.306C233.932 265.102 234.369 265.005 234.81 265.024C235.255 264.986 235.701 265.087 236.087 265.313C236.473 265.538 236.779 265.877 236.965 266.284C237.217 265.878 237.573 265.547 237.996 265.325C238.419 265.104 238.894 265 239.371 265.024C239.713 264.998 240.057 265.049 240.376 265.173C240.696 265.298 240.984 265.492 241.218 265.742C241.453 265.993 241.628 266.292 241.732 266.619C241.835 266.946 241.864 267.293 241.816 267.632Z" fill="#263238"/>
<path d="M248.645 267.38V271.16H247.851V270.202C247.626 270.543 247.312 270.817 246.944 270.994C246.576 271.172 246.167 271.247 245.76 271.211C244.386 271.211 243.542 270.492 243.542 269.447C243.542 268.401 244.147 267.72 245.886 267.72H247.813V267.355C247.813 266.309 247.234 265.742 246.1 265.742C245.36 265.734 244.641 265.988 244.071 266.46L243.706 265.856C244.418 265.283 245.313 264.987 246.226 265.024C246.547 264.985 246.874 265.018 247.181 265.122C247.488 265.226 247.767 265.397 248 265.623C248.232 265.849 248.41 266.124 248.522 266.428C248.634 266.732 248.676 267.058 248.645 267.38ZM247.813 269.333V268.338H245.911C244.739 268.338 244.348 268.791 244.348 269.421C244.348 270.051 244.915 270.568 245.886 270.568C246.297 270.595 246.706 270.49 247.053 270.268C247.4 270.045 247.666 269.718 247.813 269.333Z" fill="#263238"/>
<path d="M250.686 263.159C250.688 263.081 250.705 263.005 250.736 262.933C250.767 262.862 250.812 262.798 250.868 262.744C250.925 262.69 250.991 262.648 251.063 262.62C251.136 262.591 251.213 262.578 251.291 262.579C251.367 262.578 251.443 262.591 251.514 262.619C251.585 262.646 251.649 262.688 251.704 262.74C251.759 262.793 251.803 262.856 251.834 262.926C251.865 262.995 251.881 263.07 251.883 263.147C251.885 263.225 251.871 263.304 251.842 263.377C251.813 263.45 251.769 263.517 251.714 263.573C251.659 263.63 251.593 263.674 251.52 263.705C251.448 263.736 251.37 263.751 251.291 263.751C251.212 263.753 251.134 263.739 251.06 263.71C250.987 263.681 250.92 263.638 250.864 263.582C250.808 263.527 250.763 263.461 250.732 263.389C250.702 263.316 250.686 263.238 250.686 263.159ZM250.875 265.074H251.694V271.16H250.875V265.074Z" fill="#263238"/>
<path d="M253.975 262.579H254.794V271.16H253.975V262.579Z" fill="#263238"/>
</g>
<path d="M375.892 292.114H211.034V320.338H375.892V292.114Z" fill="white"/>
<g opacity="0.4">
<path d="M226.381 304.437C226.381 306.163 225.121 307.209 223.08 307.209H220.912V309.729H220.056V301.64H223.08C225.133 301.665 226.381 302.711 226.381 304.437ZM225.524 304.437C225.524 303.177 224.68 302.408 223.004 302.408H220.862V306.453H223.004C224.68 306.453 225.524 305.709 225.524 304.437Z" fill="#263238"/>
<path d="M232.592 305.987V309.767H231.798V308.809C231.573 309.15 231.26 309.423 230.891 309.601C230.523 309.778 230.114 309.853 229.707 309.817C228.333 309.817 227.489 309.099 227.489 308.04C227.489 306.982 228.094 306.289 229.833 306.289H231.761V305.911C231.761 304.878 231.168 304.311 230.034 304.311C229.298 304.301 228.583 304.556 228.018 305.029L227.64 304.412C228.358 303.851 229.25 303.561 230.16 303.593C230.487 303.55 230.818 303.583 231.13 303.688C231.441 303.792 231.725 303.967 231.959 304.197C232.194 304.428 232.372 304.709 232.482 305.019C232.592 305.329 232.629 305.66 232.592 305.987ZM231.773 307.927V306.932H229.833C228.661 306.932 228.283 307.398 228.283 308.028C228.283 308.658 228.837 309.162 229.82 309.162C230.235 309.193 230.649 309.089 231.001 308.867C231.352 308.644 231.623 308.315 231.773 307.927Z" fill="#263238"/>
<path d="M233.979 309.061L234.344 308.418C234.979 308.862 235.736 309.099 236.511 309.099C237.658 309.099 238.137 308.708 238.137 308.103C238.137 306.516 234.193 307.763 234.193 305.369C234.193 304.374 235.05 303.63 236.599 303.63C237.355 303.624 238.099 303.819 238.754 304.197L238.389 304.852C237.858 304.502 237.234 304.322 236.599 304.336C235.503 304.336 235.012 304.764 235.012 305.344C235.012 306.982 238.956 305.747 238.956 308.078C238.956 309.136 238.036 309.817 236.436 309.817C235.556 309.84 234.693 309.574 233.979 309.061Z" fill="#263238"/>
<path d="M239.624 309.061L240.002 308.418C240.63 308.867 241.384 309.105 242.156 309.099C243.315 309.099 243.782 308.708 243.782 308.103C243.782 306.516 239.85 307.763 239.85 305.369C239.85 304.374 240.707 303.63 242.244 303.63C243.001 303.62 243.745 303.816 244.399 304.197L244.046 304.853C243.511 304.504 242.883 304.324 242.244 304.336C241.148 304.336 240.669 304.764 240.669 305.344C240.669 306.982 244.613 305.747 244.613 308.078C244.613 309.137 243.681 309.817 242.093 309.817C241.21 309.838 240.344 309.573 239.624 309.061Z" fill="#263238"/>
<path d="M254.92 303.681L252.627 309.754H251.858L249.993 304.777L248.078 309.754H247.309L244.953 303.681H245.734L247.65 308.847L249.603 303.681H250.308L252.249 308.847L254.176 303.681H254.92Z" fill="#263238"/>
<path d="M255.373 306.717C255.373 306.104 255.555 305.505 255.896 304.995C256.236 304.485 256.72 304.088 257.287 303.854C257.853 303.619 258.476 303.558 259.078 303.677C259.679 303.797 260.231 304.092 260.665 304.526C261.098 304.959 261.393 305.511 261.513 306.113C261.633 306.714 261.571 307.337 261.337 307.903C261.102 308.47 260.705 308.954 260.195 309.294C259.685 309.635 259.086 309.817 258.473 309.817C258.062 309.831 257.653 309.76 257.27 309.61C256.888 309.459 256.541 309.231 256.25 308.94C255.959 308.65 255.731 308.302 255.581 307.92C255.43 307.537 255.359 307.128 255.373 306.717ZM260.728 306.717C260.709 306.273 260.559 305.844 260.297 305.485C260.036 305.125 259.674 304.85 259.258 304.694C258.841 304.538 258.388 304.508 257.955 304.608C257.521 304.707 257.127 304.932 256.82 305.254C256.513 305.576 256.308 305.981 256.23 306.419C256.152 306.857 256.204 307.308 256.38 307.716C256.556 308.125 256.849 308.472 257.221 308.716C257.593 308.959 258.028 309.088 258.473 309.086C258.78 309.092 259.086 309.034 259.37 308.915C259.654 308.797 259.91 308.621 260.122 308.398C260.334 308.175 260.498 307.911 260.602 307.621C260.706 307.332 260.749 307.024 260.728 306.717Z" fill="#263238"/>
<path d="M266.297 303.63V304.424H266.096C265.807 304.41 265.52 304.46 265.253 304.57C264.986 304.68 264.747 304.848 264.552 305.06C264.357 305.273 264.211 305.527 264.125 305.802C264.039 306.077 264.015 306.368 264.054 306.654V309.754H263.235V303.681H264.017V304.865C264.229 304.454 264.56 304.117 264.967 303.897C265.374 303.677 265.837 303.584 266.297 303.63Z" fill="#263238"/>
<path d="M273.265 301.249V309.817H272.484V308.62C272.239 309.018 271.894 309.345 271.482 309.566C271.07 309.787 270.607 309.896 270.14 309.88C269.354 309.83 268.616 309.482 268.077 308.907C267.538 308.333 267.238 307.574 267.238 306.787C267.238 305.999 267.538 305.24 268.077 304.666C268.616 304.091 269.354 303.744 270.14 303.693C270.601 303.683 271.057 303.794 271.462 304.015C271.866 304.236 272.206 304.56 272.446 304.953V301.249H273.265ZM272.459 306.78C272.439 306.336 272.289 305.907 272.028 305.548C271.766 305.188 271.405 304.913 270.988 304.757C270.572 304.601 270.119 304.571 269.685 304.671C269.252 304.77 268.857 304.995 268.55 305.317C268.244 305.639 268.039 306.044 267.96 306.482C267.882 306.92 267.934 307.371 268.11 307.779C268.287 308.188 268.579 308.535 268.951 308.779C269.323 309.022 269.759 309.151 270.203 309.149C270.517 309.156 270.828 309.096 271.116 308.974C271.405 308.852 271.664 308.67 271.878 308.44C272.091 308.21 272.253 307.938 272.353 307.641C272.453 307.344 272.489 307.029 272.459 306.717V306.78Z" fill="#263238"/>
</g>
<path opacity="0.2" d="M375.892 349.129H211.034V377.353H375.892V349.129Z" fill="black"/>
<g opacity="0.5">
<path d="M251.127 336.163H248.431L247.851 337.423H247.322L249.527 332.598H250.031L252.236 337.423H251.707L251.127 336.163ZM250.938 335.748L249.779 333.152L248.62 335.748H250.938Z" fill="black"/>
<path d="M252.941 332.333H253.433V337.449H252.941V332.333Z" fill="black"/>
<path d="M256.633 333.795V334.274H256.507C256.331 334.258 256.154 334.283 255.989 334.346C255.824 334.409 255.676 334.509 255.555 334.637C255.433 334.765 255.343 334.92 255.29 335.088C255.236 335.256 255.222 335.434 255.247 335.609V337.461H254.756V333.833H255.235V334.538C255.361 334.284 255.564 334.075 255.815 333.942C256.065 333.809 256.352 333.757 256.633 333.795Z" fill="black"/>
<path d="M260.64 335.786H257.553C257.563 335.962 257.607 336.135 257.684 336.294C257.761 336.454 257.869 336.596 258.002 336.713C258.134 336.83 258.289 336.92 258.456 336.977C258.623 337.034 258.801 337.057 258.977 337.046C259.186 337.053 259.395 337.015 259.588 336.934C259.782 336.854 259.956 336.733 260.098 336.579L260.363 336.894C260.103 337.168 259.767 337.358 259.399 337.442C259.031 337.525 258.646 337.498 258.293 337.363C257.94 337.228 257.635 336.992 257.416 336.685C257.197 336.377 257.074 336.012 257.062 335.634C257.05 335.395 257.087 335.155 257.171 334.931C257.255 334.706 257.385 334.502 257.551 334.329C257.718 334.157 257.918 334.02 258.139 333.928C258.361 333.836 258.599 333.791 258.838 333.795C259.078 333.789 259.316 333.833 259.538 333.925C259.76 334.016 259.96 334.153 260.126 334.326C260.292 334.499 260.42 334.704 260.502 334.93C260.584 335.155 260.618 335.395 260.602 335.634C260.602 335.634 260.64 335.735 260.64 335.786ZM257.604 335.42H260.124C260.124 335.086 259.991 334.765 259.755 334.529C259.518 334.293 259.198 334.16 258.864 334.16C258.529 334.16 258.209 334.293 257.973 334.529C257.736 334.765 257.604 335.086 257.604 335.42Z" fill="black"/>
<path d="M264.282 335.269V337.512H263.853V336.945C263.72 337.152 263.531 337.318 263.309 337.425C263.087 337.532 262.839 337.575 262.593 337.55C261.774 337.55 261.333 337.121 261.333 336.491C261.333 335.861 261.686 335.458 262.732 335.458H263.853V335.244C263.853 334.626 263.501 334.286 262.82 334.286C262.362 334.269 261.913 334.422 261.56 334.715L261.346 334.349C261.764 334.016 262.286 333.842 262.82 333.858C263.015 333.824 263.215 333.837 263.404 333.895C263.594 333.954 263.766 334.056 263.909 334.193C264.051 334.331 264.159 334.5 264.224 334.686C264.289 334.873 264.308 335.073 264.282 335.269ZM263.803 336.428V335.823H262.656C261.951 335.823 261.724 336.101 261.724 336.479C261.724 336.857 262.064 337.159 262.644 337.159C262.905 337.179 263.165 337.112 263.384 336.968C263.603 336.825 263.768 336.613 263.853 336.365L263.803 336.428Z" fill="black"/>
<path d="M268.893 332.333V337.449H268.427V336.731C268.284 336.971 268.078 337.168 267.832 337.302C267.586 337.435 267.308 337.499 267.028 337.487C266.565 337.448 266.133 337.237 265.818 336.895C265.503 336.553 265.329 336.105 265.329 335.641C265.329 335.176 265.503 334.728 265.818 334.386C266.133 334.044 266.565 333.833 267.028 333.795C267.301 333.787 267.571 333.849 267.814 333.975C268.056 334.101 268.263 334.286 268.414 334.513V332.333H268.893ZM268.414 335.634C268.402 335.371 268.312 335.117 268.157 334.903C268.002 334.69 267.787 334.527 267.54 334.435C267.293 334.342 267.024 334.324 266.766 334.383C266.509 334.442 266.275 334.575 266.093 334.766C265.91 334.957 265.788 335.197 265.741 335.457C265.694 335.716 265.724 335.984 265.828 336.227C265.931 336.469 266.104 336.676 266.324 336.822C266.544 336.967 266.802 337.045 267.066 337.046C267.254 337.057 267.442 337.028 267.617 336.961C267.793 336.893 267.952 336.79 268.084 336.656C268.217 336.523 268.319 336.362 268.385 336.186C268.45 336.01 268.477 335.822 268.465 335.634H268.414Z" fill="black"/>
<path d="M273.366 333.82L271.552 337.89C271.249 338.595 270.859 338.822 270.292 338.822C269.966 338.831 269.65 338.714 269.41 338.495L269.636 338.129C269.814 338.306 270.054 338.406 270.304 338.406C270.632 338.406 270.846 338.255 271.06 337.789L271.211 337.449L269.586 333.82H270.153L271.526 336.907L272.887 333.82H273.366Z" fill="black"/>
<path d="M278.608 335.269V337.512H278.142V336.945C278.008 337.152 277.819 337.318 277.597 337.425C277.375 337.532 277.127 337.575 276.882 337.55C276.063 337.55 275.622 337.121 275.622 336.491C275.622 335.861 275.974 335.458 277.02 335.458H278.167V335.244C278.167 334.626 277.827 334.286 277.146 334.286C276.688 334.269 276.239 334.422 275.886 334.715L275.659 334.349C276.082 334.016 276.608 333.842 277.146 333.858C277.341 333.824 277.541 333.837 277.73 333.895C277.919 333.954 278.092 334.056 278.234 334.193C278.377 334.331 278.485 334.5 278.55 334.686C278.614 334.873 278.634 335.073 278.608 335.269ZM278.116 336.428V335.823H276.982C276.277 335.823 276.05 336.101 276.05 336.479C276.05 336.857 276.39 337.159 276.97 337.159C277.221 337.169 277.469 337.097 277.676 336.954C277.883 336.811 278.037 336.604 278.116 336.365V336.428Z" fill="black"/>
<path d="M287.793 335.345V337.449H287.314V335.395C287.314 334.626 286.924 334.236 286.268 334.236C286.099 334.222 285.93 334.246 285.771 334.305C285.612 334.363 285.468 334.456 285.348 334.575C285.228 334.695 285.136 334.839 285.077 334.998C285.019 335.157 284.995 335.327 285.008 335.496V337.398H284.53V335.395C284.53 334.626 284.139 334.236 283.471 334.236C283.302 334.222 283.133 334.246 282.974 334.305C282.815 334.363 282.671 334.456 282.551 334.575C282.431 334.695 282.339 334.839 282.28 334.998C282.221 335.157 282.198 335.327 282.211 335.496V337.398H281.72V333.77H282.186V334.437C282.325 334.212 282.522 334.028 282.758 333.906C282.993 333.784 283.257 333.728 283.522 333.744C283.786 333.724 284.05 333.787 284.276 333.925C284.502 334.063 284.679 334.269 284.782 334.513C284.928 334.266 285.139 334.064 285.393 333.929C285.646 333.793 285.931 333.729 286.218 333.744C286.436 333.705 286.659 333.72 286.87 333.787C287.081 333.854 287.272 333.972 287.427 334.129C287.582 334.287 287.697 334.48 287.76 334.692C287.824 334.903 287.835 335.128 287.793 335.345Z" fill="black"/>
<path d="M292.254 335.786H289.217C289.243 336.142 289.408 336.474 289.677 336.71C289.946 336.946 290.297 337.066 290.654 337.046C290.861 337.053 291.068 337.016 291.26 336.935C291.451 336.855 291.623 336.733 291.763 336.579L292.04 336.894C291.863 337.088 291.646 337.24 291.405 337.343C291.164 337.445 290.903 337.494 290.641 337.487C290.391 337.503 290.141 337.466 289.906 337.379C289.672 337.293 289.458 337.158 289.278 336.983C289.099 336.808 288.958 336.598 288.865 336.366C288.772 336.134 288.729 335.884 288.739 335.634C288.739 335.167 288.924 334.718 289.255 334.387C289.586 334.056 290.035 333.87 290.503 333.87C290.97 333.87 291.419 334.056 291.75 334.387C292.081 334.718 292.267 335.167 292.267 335.634C292.267 335.634 292.254 335.735 292.254 335.786ZM289.217 335.42H291.8C291.8 335.078 291.664 334.749 291.422 334.507C291.18 334.265 290.851 334.129 290.509 334.129C290.166 334.129 289.838 334.265 289.596 334.507C289.353 334.749 289.217 335.078 289.217 335.42Z" fill="black"/>
<path d="M299.259 335.345V337.449H298.768V335.395C298.768 334.626 298.39 334.236 297.735 334.236C297.565 334.22 297.395 334.242 297.235 334.3C297.075 334.358 296.93 334.45 296.809 334.57C296.689 334.691 296.597 334.836 296.539 334.996C296.481 335.156 296.459 335.326 296.475 335.496V337.398H295.983V335.395C295.983 334.626 295.605 334.236 294.937 334.236C294.768 334.22 294.597 334.242 294.438 334.3C294.278 334.358 294.132 334.45 294.012 334.57C293.892 334.691 293.8 334.836 293.742 334.996C293.684 335.156 293.662 335.326 293.677 335.496V337.398H293.186V333.77H293.652V334.437C293.79 334.211 293.988 334.026 294.223 333.904C294.459 333.782 294.723 333.727 294.988 333.744C295.252 333.724 295.516 333.787 295.742 333.925C295.968 334.063 296.145 334.269 296.248 334.513C296.394 334.266 296.606 334.064 296.859 333.929C297.112 333.793 297.398 333.729 297.684 333.744C297.902 333.705 298.126 333.72 298.336 333.787C298.547 333.854 298.738 333.972 298.893 334.129C299.049 334.287 299.163 334.48 299.227 334.692C299.29 334.903 299.302 335.128 299.259 335.345Z" fill="black"/>
<path d="M304.274 335.634C304.286 335.877 304.248 336.119 304.163 336.345C304.077 336.572 303.946 336.779 303.777 336.953C303.607 337.127 303.404 337.264 303.18 337.356C302.956 337.447 302.715 337.492 302.472 337.487C302.192 337.499 301.915 337.435 301.669 337.302C301.422 337.168 301.217 336.971 301.074 336.731V337.449H300.595V332.333H301.086V334.513C301.237 334.285 301.443 334.099 301.686 333.973C301.928 333.848 302.199 333.786 302.472 333.795C302.714 333.787 302.955 333.83 303.179 333.921C303.403 334.011 303.607 334.147 303.776 334.32C303.945 334.493 304.077 334.699 304.163 334.925C304.248 335.151 304.286 335.393 304.274 335.634ZM303.783 335.634C303.77 335.371 303.681 335.117 303.525 334.903C303.37 334.69 303.155 334.527 302.908 334.435C302.661 334.342 302.392 334.324 302.135 334.383C301.878 334.442 301.643 334.575 301.461 334.766C301.279 334.957 301.156 335.197 301.109 335.457C301.062 335.716 301.092 335.984 301.196 336.227C301.3 336.469 301.472 336.676 301.692 336.822C301.912 336.967 302.17 337.045 302.434 337.046C302.618 337.049 302.8 337.015 302.97 336.945C303.139 336.874 303.292 336.769 303.419 336.637C303.546 336.504 303.644 336.346 303.706 336.174C303.769 336.001 303.795 335.817 303.783 335.634Z" fill="black"/>
<path d="M308.444 335.785H305.433C305.443 335.962 305.487 336.135 305.564 336.294C305.641 336.454 305.749 336.596 305.881 336.713C306.014 336.83 306.168 336.92 306.336 336.977C306.503 337.034 306.68 337.057 306.857 337.045C307.066 337.045 307.273 336.999 307.463 336.91C307.652 336.82 307.82 336.69 307.953 336.529L308.23 336.844C307.97 337.117 307.634 337.308 307.266 337.391C306.898 337.474 306.513 337.447 306.16 337.312C305.808 337.178 305.502 336.942 305.283 336.634C305.064 336.327 304.941 335.961 304.929 335.584C304.917 335.344 304.954 335.105 305.038 334.881C305.122 334.656 305.252 334.451 305.418 334.279C305.585 334.106 305.785 333.97 306.006 333.878C306.228 333.786 306.466 333.741 306.706 333.744C306.945 333.738 307.183 333.783 307.404 333.874C307.625 333.966 307.824 334.102 307.989 334.276C308.154 334.449 308.281 334.655 308.362 334.88C308.442 335.106 308.475 335.345 308.457 335.584L308.444 335.785ZM305.408 335.42H307.928C307.928 335.086 307.795 334.765 307.559 334.529C307.322 334.293 307.002 334.16 306.668 334.16C306.334 334.16 306.013 334.293 305.777 334.529C305.541 334.765 305.408 335.086 305.408 335.42Z" fill="black"/>
<path d="M311.28 333.795V334.274H311.166C310.991 334.258 310.813 334.283 310.649 334.346C310.484 334.409 310.335 334.508 310.214 334.637C310.093 334.765 310.002 334.92 309.949 335.088C309.896 335.256 309.881 335.434 309.906 335.609V337.461H309.415V333.833H309.881V334.538C310.009 334.285 310.212 334.078 310.463 333.945C310.713 333.811 310.998 333.759 311.28 333.795Z" fill="black"/>
<path d="M314.455 333.858C314.455 333.354 314.052 333.013 313.346 333.013C313.098 332.999 312.85 333.042 312.621 333.138C312.391 333.234 312.187 333.381 312.023 333.568L311.658 333.291C311.872 333.048 312.139 332.858 312.438 332.733C312.737 332.609 313.061 332.554 313.384 332.572C314.354 332.572 314.972 333.039 314.972 333.832C314.972 335.004 313.712 335.093 313.712 336.05H313.195C313.195 334.866 314.455 334.752 314.455 333.858ZM313.094 337.121C313.11 337.037 313.154 336.962 313.22 336.907C313.286 336.853 313.368 336.823 313.453 336.823C313.538 336.823 313.621 336.853 313.686 336.907C313.752 336.962 313.797 337.037 313.812 337.121C313.822 337.174 313.82 337.228 313.807 337.28C313.794 337.332 313.769 337.381 313.734 337.422C313.7 337.463 313.657 337.497 313.609 337.519C313.56 337.542 313.507 337.554 313.453 337.554C313.4 337.554 313.346 337.542 313.298 337.519C313.249 337.497 313.206 337.463 313.172 337.422C313.138 337.381 313.113 337.332 313.099 337.28C313.086 337.228 313.084 337.174 313.094 337.121Z" fill="black"/>
<path d="M317.87 332.623H318.991V336.529H321.41V337.436H317.87V332.623Z" fill="black"/>
<path d="M321.662 335.597C321.637 335.188 321.735 334.782 321.943 334.43C322.152 334.078 322.461 333.797 322.831 333.623C323.201 333.449 323.615 333.39 324.019 333.454C324.422 333.518 324.798 333.702 325.096 333.982C325.394 334.262 325.602 334.625 325.691 335.024C325.781 335.423 325.748 335.839 325.598 336.22C325.448 336.6 325.187 336.927 324.849 337.157C324.511 337.387 324.112 337.511 323.703 337.512C323.441 337.529 323.179 337.492 322.932 337.404C322.685 337.315 322.458 337.177 322.267 336.997C322.075 336.818 321.923 336.601 321.819 336.36C321.715 336.119 321.662 335.859 321.662 335.597ZM324.648 335.597C324.634 335.414 324.566 335.239 324.454 335.094C324.341 334.949 324.189 334.839 324.016 334.779C323.842 334.719 323.655 334.711 323.477 334.755C323.299 334.8 323.138 334.895 323.013 335.03C322.888 335.165 322.805 335.333 322.775 335.514C322.744 335.695 322.767 335.881 322.84 336.049C322.913 336.217 323.034 336.361 323.187 336.462C323.34 336.562 323.52 336.617 323.703 336.617C323.835 336.619 323.965 336.594 324.086 336.543C324.206 336.491 324.315 336.415 324.404 336.318C324.493 336.222 324.561 336.108 324.603 335.984C324.645 335.859 324.661 335.727 324.648 335.597Z" fill="black"/>
<path d="M330.293 333.732V336.831C330.327 337.11 330.297 337.393 330.204 337.657C330.11 337.922 329.957 338.162 329.755 338.357C329.554 338.552 329.31 338.698 329.042 338.783C328.775 338.869 328.491 338.89 328.214 338.847C327.566 338.872 326.926 338.691 326.387 338.331L326.815 337.562C327.183 337.825 327.623 337.97 328.075 337.978C328.831 337.978 329.171 337.638 329.171 336.97V336.806C329.021 336.963 328.838 337.086 328.636 337.166C328.434 337.247 328.217 337.283 328 337.272C327.751 337.293 327.501 337.262 327.265 337.181C327.029 337.101 326.813 336.972 326.629 336.803C326.446 336.634 326.299 336.429 326.199 336.201C326.099 335.973 326.047 335.726 326.047 335.477C326.047 335.228 326.099 334.981 326.199 334.753C326.299 334.524 326.446 334.319 326.629 334.151C326.813 333.982 327.029 333.853 327.265 333.772C327.501 333.691 327.751 333.661 328 333.681C328.237 333.662 328.475 333.701 328.694 333.793C328.913 333.885 329.107 334.028 329.26 334.211V333.732H330.293ZM329.235 335.483C329.239 335.357 329.216 335.231 329.168 335.114C329.12 334.998 329.047 334.892 328.956 334.805C328.864 334.719 328.755 334.652 328.636 334.61C328.517 334.569 328.39 334.553 328.264 334.563C328.135 334.548 328.005 334.56 327.881 334.599C327.757 334.638 327.643 334.703 327.546 334.79C327.449 334.876 327.371 334.982 327.318 335.1C327.265 335.219 327.237 335.347 327.237 335.477C327.237 335.607 327.265 335.735 327.318 335.854C327.371 335.972 327.449 336.078 327.546 336.164C327.643 336.25 327.757 336.315 327.881 336.354C328.005 336.393 328.135 336.406 328.264 336.39C328.389 336.401 328.515 336.385 328.633 336.344C328.751 336.303 328.86 336.238 328.951 336.152C329.042 336.067 329.115 335.963 329.164 335.848C329.213 335.733 329.237 335.608 329.235 335.483Z" fill="black"/>
<path d="M333.153 332.623C333.155 332.538 333.173 332.455 333.208 332.378C333.243 332.301 333.294 332.232 333.356 332.176C333.419 332.119 333.492 332.076 333.572 332.049C333.652 332.022 333.737 332.011 333.821 332.018C333.904 332.009 333.987 332.018 334.066 332.043C334.145 332.068 334.218 332.108 334.281 332.163C334.344 332.217 334.394 332.284 334.43 332.359C334.466 332.433 334.486 332.515 334.489 332.598C334.489 332.775 334.419 332.945 334.293 333.07C334.168 333.195 333.998 333.265 333.821 333.265C333.644 333.265 333.474 333.195 333.349 333.07C333.224 332.945 333.153 332.775 333.153 332.598V332.623ZM333.279 333.732H334.35V337.512H333.279V333.732Z" fill="black"/>
<path d="M339.126 335.269V337.398H338.055V335.445C338.055 334.841 337.777 334.563 337.299 334.563C336.82 334.563 336.404 334.878 336.404 335.559V337.398H335.333V333.618H336.366V334.059C336.529 333.892 336.725 333.761 336.943 333.676C337.16 333.592 337.393 333.555 337.626 333.568C337.844 333.557 338.061 333.595 338.262 333.68C338.463 333.765 338.642 333.894 338.786 334.057C338.93 334.22 339.035 334.414 339.094 334.624C339.153 334.834 339.164 335.054 339.126 335.269Z" fill="black"/>
</g>
<path d="M375.892 347.403H211.034V375.627H375.892V347.403Z" fill="#407BFF"/>
<path d="M272.169 365.899L270.153 362.989H269.549H267.155V365.925H265.769V356.26H269.549C272.069 356.26 273.568 357.52 273.568 359.637C273.6 360.308 273.41 360.97 273.027 361.521C272.644 362.072 272.09 362.482 271.451 362.687L273.744 365.925L272.169 365.899ZM272.169 359.599C272.169 358.213 271.25 357.432 269.473 357.432H267.129V361.779H269.473C271.212 361.792 272.132 360.986 272.132 359.612L272.169 359.599Z" fill="white"/>
<path d="M282.148 362.687H276.214C276.307 363.31 276.631 363.875 277.12 364.272C277.61 364.668 278.231 364.867 278.86 364.828C279.255 364.843 279.649 364.771 280.015 364.619C280.38 364.467 280.708 364.237 280.976 363.947L281.707 364.803C281.168 365.351 280.482 365.731 279.732 365.898C278.983 366.066 278.2 366.013 277.479 365.747C276.759 365.481 276.13 365.013 275.668 364.398C275.207 363.784 274.933 363.05 274.878 362.283C274.852 361.789 274.928 361.294 275.103 360.83C275.277 360.366 275.545 359.943 275.891 359.588C276.236 359.233 276.652 358.954 277.111 358.767C277.569 358.58 278.062 358.49 278.557 358.503C279.05 358.49 279.54 358.579 279.996 358.767C280.452 358.954 280.863 359.235 281.204 359.591C281.545 359.947 281.807 360.371 281.974 360.834C282.141 361.298 282.209 361.792 282.173 362.283C282.173 362.397 282.161 362.561 282.148 362.687ZM276.214 361.729H280.901C280.841 361.149 280.568 360.612 280.135 360.222C279.702 359.832 279.14 359.616 278.557 359.616C277.975 359.616 277.412 359.832 276.98 360.222C276.547 360.612 276.274 361.149 276.214 361.729Z" fill="white"/>
<path d="M291.019 358.592V364.892C291.019 367.475 289.696 368.672 287.239 368.672C285.985 368.725 284.751 368.342 283.748 367.588L284.378 366.567C285.185 367.193 286.18 367.527 287.201 367.512C288.927 367.512 289.721 366.719 289.721 365.055V364.476C289.395 364.85 288.989 365.146 288.533 365.342C288.077 365.539 287.583 365.63 287.087 365.61C286.148 365.61 285.248 365.237 284.584 364.573C283.92 363.909 283.547 363.008 283.547 362.069C283.547 361.13 283.92 360.23 284.584 359.566C285.248 358.902 286.148 358.529 287.087 358.529C287.606 358.513 288.121 358.619 288.591 358.837C289.062 359.056 289.474 359.382 289.796 359.789V358.655L291.019 358.592ZM289.759 362.057C289.786 361.553 289.662 361.053 289.403 360.621C289.143 360.189 288.76 359.844 288.303 359.632C287.846 359.42 287.335 359.35 286.838 359.431C286.34 359.512 285.878 359.74 285.512 360.086C285.145 360.433 284.891 360.881 284.782 361.373C284.673 361.865 284.714 362.379 284.9 362.847C285.086 363.316 285.408 363.718 285.825 364.002C286.242 364.285 286.735 364.437 287.239 364.438C287.561 364.457 287.884 364.409 288.187 364.298C288.49 364.186 288.767 364.013 289 363.79C289.233 363.566 289.418 363.297 289.542 362.998C289.666 362.7 289.727 362.379 289.721 362.057H289.759Z" fill="white"/>
<path d="M293.312 356.324C293.314 356.208 293.338 356.093 293.384 355.987C293.43 355.881 293.496 355.784 293.579 355.704C293.662 355.623 293.76 355.559 293.868 355.516C293.976 355.474 294.091 355.453 294.207 355.454C294.329 355.439 294.453 355.451 294.57 355.487C294.687 355.524 294.796 355.585 294.888 355.667C294.98 355.748 295.053 355.848 295.104 355.961C295.154 356.073 295.18 356.194 295.18 356.317C295.18 356.44 295.154 356.562 295.104 356.674C295.053 356.786 294.98 356.886 294.888 356.968C294.796 357.049 294.687 357.111 294.57 357.147C294.453 357.184 294.329 357.195 294.207 357.18C294.091 357.184 293.977 357.164 293.869 357.123C293.761 357.081 293.663 357.019 293.58 356.939C293.497 356.86 293.43 356.764 293.384 356.658C293.338 356.553 293.314 356.439 293.312 356.324ZM293.551 358.592H294.874V365.9H293.551V358.592Z" fill="white"/>
<path d="M296.474 365.131L297.029 364.085C297.779 364.573 298.654 364.835 299.549 364.841C300.809 364.841 301.287 364.463 301.287 363.846C301.287 362.208 296.663 363.632 296.663 360.708C296.663 359.448 297.835 358.516 299.712 358.516C300.642 358.501 301.559 358.731 302.371 359.184L301.804 360.23C301.175 359.834 300.443 359.632 299.7 359.65C298.541 359.65 297.974 360.078 297.974 360.658C297.974 362.384 302.61 360.973 302.61 363.821C302.61 365.081 301.35 365.988 299.448 365.988C298.393 366.003 297.358 365.705 296.474 365.131Z" fill="white"/>
<path d="M308.432 365.509C307.973 365.859 307.408 366.042 306.831 366.025C306.52 366.061 306.206 366.026 305.91 365.924C305.614 365.822 305.345 365.655 305.123 365.434C304.9 365.214 304.73 364.947 304.624 364.653C304.519 364.358 304.481 364.044 304.513 363.732V359.713H303.253V358.629H304.513V357.029H305.773V358.629H307.953V359.713H305.849V363.682C305.819 363.844 305.827 364.011 305.872 364.169C305.918 364.328 305.999 364.474 306.11 364.596C306.221 364.718 306.358 364.812 306.512 364.872C306.666 364.932 306.831 364.956 306.995 364.942C307.368 364.946 307.731 364.826 308.028 364.602L308.432 365.509Z" fill="white"/>
<path d="M316.37 362.686H310.473C310.567 363.312 310.892 363.879 311.384 364.276C311.877 364.673 312.501 364.87 313.132 364.828C313.525 364.843 313.918 364.772 314.281 364.62C314.645 364.467 314.97 364.238 315.236 363.946L315.967 364.803C315.429 365.352 314.744 365.733 313.994 365.902C313.245 366.07 312.463 366.018 311.742 365.751C311.022 365.485 310.393 365.016 309.934 364.4C309.474 363.785 309.202 363.05 309.15 362.283C309.124 361.789 309.2 361.294 309.375 360.83C309.549 360.366 309.817 359.943 310.163 359.588C310.508 359.233 310.924 358.954 311.382 358.767C311.841 358.58 312.334 358.49 312.829 358.503C313.321 358.492 313.811 358.583 314.265 358.771C314.72 358.959 315.131 359.24 315.471 359.595C315.812 359.951 316.074 360.374 316.242 360.837C316.41 361.299 316.479 361.792 316.445 362.283C316.432 362.42 316.407 362.555 316.37 362.686ZM310.473 361.729H315.173C315.1 361.157 314.821 360.631 314.389 360.25C313.956 359.869 313.399 359.659 312.823 359.659C312.246 359.659 311.69 359.869 311.257 360.25C310.825 360.631 310.546 361.157 310.473 361.729Z" fill="white"/>
<path d="M322.179 358.516V359.776H321.876C321.549 359.753 321.22 359.804 320.915 359.926C320.61 360.047 320.336 360.236 320.115 360.479C319.893 360.721 319.729 361.01 319.635 361.325C319.54 361.64 319.518 361.972 319.571 362.296V365.937H318.248V358.629H319.508V359.889C319.774 359.428 320.167 359.053 320.641 358.809C321.115 358.566 321.649 358.464 322.179 358.516Z" fill="white"/>
<g opacity="0.6">
<path d="M264.596 154.598L265.163 153.413C266.141 154.233 267.378 154.679 268.653 154.673C270.48 154.673 271.262 153.968 271.262 153.048C271.262 150.528 264.861 152.09 264.861 148.172C264.861 146.534 266.121 145.148 268.905 145.148C270.105 145.128 271.285 145.452 272.307 146.08L271.803 147.34C270.938 146.786 269.933 146.489 268.905 146.483C267.104 146.483 266.385 147.239 266.385 148.159C266.385 150.679 272.799 149.117 272.799 153.01C272.799 154.623 271.539 156.009 268.704 156.009C267.211 156.04 265.755 155.54 264.596 154.598Z" fill="#263238"/>
<path d="M274.487 145.311C274.489 145.185 274.516 145.059 274.566 144.943C274.617 144.826 274.69 144.721 274.781 144.633C274.873 144.545 274.981 144.477 275.099 144.431C275.217 144.385 275.343 144.363 275.47 144.366C275.595 144.361 275.72 144.381 275.838 144.425C275.955 144.468 276.063 144.535 276.154 144.621C276.245 144.706 276.319 144.809 276.37 144.923C276.422 145.038 276.45 145.161 276.453 145.286C276.453 145.547 276.349 145.797 276.165 145.981C275.981 146.165 275.731 146.269 275.47 146.269C275.209 146.269 274.959 146.165 274.775 145.981C274.591 145.797 274.487 145.547 274.487 145.286V145.311ZM274.739 147.831H276.201V155.845H274.739V147.831Z" fill="#263238"/>
<path d="M286.621 147.794V154.711C286.621 157.546 285.185 158.831 282.476 158.831C281.116 158.874 279.783 158.452 278.696 157.634L279.389 156.513C280.266 157.207 281.357 157.576 282.476 157.559C284.366 157.559 285.223 156.677 285.223 154.862V154.232C284.866 154.644 284.422 154.971 283.923 155.189C283.423 155.407 282.882 155.51 282.337 155.492C281.81 155.522 281.282 155.444 280.786 155.263C280.289 155.082 279.835 154.802 279.451 154.439C279.067 154.076 278.761 153.639 278.552 153.154C278.343 152.669 278.235 152.146 278.235 151.618C278.235 151.089 278.343 150.567 278.552 150.082C278.761 149.596 279.067 149.159 279.451 148.796C279.835 148.434 280.289 148.153 280.786 147.972C281.282 147.791 281.81 147.713 282.337 147.743C282.894 147.714 283.45 147.813 283.963 148.031C284.476 148.249 284.933 148.582 285.298 149.003V147.743L286.621 147.794ZM285.21 151.574C285.238 151.023 285.1 150.476 284.814 150.005C284.528 149.533 284.107 149.158 283.606 148.928C283.105 148.697 282.546 148.622 282.002 148.713C281.458 148.803 280.954 149.054 280.554 149.434C280.154 149.814 279.877 150.305 279.759 150.844C279.641 151.382 279.687 151.944 279.891 152.456C280.095 152.969 280.448 153.408 280.904 153.718C281.36 154.028 281.899 154.194 282.451 154.194C282.811 154.226 283.174 154.182 283.517 154.065C283.859 153.948 284.173 153.761 284.439 153.515C284.705 153.269 284.916 152.971 285.06 152.639C285.204 152.307 285.276 151.948 285.273 151.586L285.21 151.574Z" fill="#263238"/>
<path d="M297.004 151.195V155.807H295.542V151.309C295.542 149.734 294.761 148.965 293.387 148.965C293.039 148.942 292.689 148.997 292.363 149.124C292.038 149.252 291.744 149.45 291.504 149.703C291.263 149.957 291.081 150.261 290.972 150.593C290.862 150.925 290.826 151.277 290.867 151.624V155.757H289.418V147.743H290.817V149.003C291.161 148.576 291.603 148.239 292.105 148.019C292.608 147.8 293.156 147.705 293.702 147.743C294.157 147.713 294.613 147.782 295.037 147.947C295.462 148.112 295.845 148.368 296.16 148.697C296.475 149.027 296.714 149.421 296.86 149.853C297.005 150.284 297.054 150.743 297.004 151.195Z" fill="#263238"/>
<path d="M311.229 147.794V155.807H309.856V154.547C309.536 154.959 309.122 155.289 308.648 155.508C308.175 155.728 307.656 155.83 307.134 155.807C306.666 155.855 306.192 155.798 305.749 155.639C305.306 155.48 304.903 155.224 304.572 154.889C304.241 154.554 303.989 154.149 303.835 153.704C303.681 153.259 303.629 152.785 303.682 152.317V147.705H305.131V152.153C305.131 153.716 305.925 154.509 307.298 154.509C307.648 154.534 307.998 154.482 308.325 154.355C308.652 154.228 308.946 154.03 309.187 153.776C309.428 153.522 309.61 153.217 309.719 152.884C309.828 152.551 309.862 152.198 309.818 151.851V147.705L311.229 147.794Z" fill="#263238"/>
<path d="M322.292 151.8C322.32 152.341 322.236 152.882 322.043 153.389C321.851 153.895 321.554 154.356 321.174 154.741C320.793 155.126 320.336 155.428 319.832 155.627C319.328 155.826 318.788 155.917 318.247 155.895C317.715 155.916 317.186 155.813 316.7 155.594C316.215 155.376 315.787 155.047 315.45 154.635V158.768H314.001V147.831H315.387V149.091C315.72 148.653 316.154 148.301 316.652 148.066C317.15 147.831 317.697 147.721 318.247 147.743C318.786 147.72 319.323 147.809 319.825 148.005C320.327 148.2 320.783 148.499 321.164 148.88C321.544 149.262 321.841 149.719 322.035 150.222C322.229 150.724 322.317 151.262 322.292 151.8ZM320.83 151.8C320.806 151.274 320.627 150.766 320.317 150.339C320.006 149.913 319.578 149.587 319.084 149.402C318.591 149.217 318.053 149.18 317.539 149.297C317.025 149.414 316.557 149.679 316.191 150.059C315.826 150.44 315.581 150.919 315.485 151.437C315.389 151.956 315.448 152.491 315.653 152.977C315.859 153.462 316.202 153.877 316.64 154.17C317.079 154.462 317.594 154.62 318.121 154.623C318.489 154.63 318.854 154.562 319.194 154.421C319.533 154.281 319.84 154.071 320.095 153.806C320.349 153.54 320.546 153.225 320.673 152.88C320.799 152.535 320.853 152.167 320.83 151.8Z" fill="#263238"/>
</g>
<path d="M375.892 214.989H211.034V243.213H375.892V214.989Z" fill="white"/>
<g opacity="0.4">
<path d="M220.056 224.502H220.912V231.848H225.436V232.592H220.056V224.502Z" fill="#263238"/>
<path d="M231.295 228.824V232.604H230.513V231.659C230.284 231.996 229.97 232.267 229.603 232.444C229.236 232.621 228.828 232.698 228.422 232.667C227.048 232.667 226.204 231.949 226.204 230.891C226.204 229.832 226.796 229.177 228.548 229.177H230.476V228.812C230.476 227.766 229.883 227.199 228.749 227.199C228.013 227.189 227.298 227.444 226.733 227.917L226.355 227.3C227.075 226.742 227.966 226.453 228.875 226.481C229.196 226.442 229.521 226.475 229.827 226.578C230.133 226.681 230.412 226.851 230.644 227.075C230.876 227.3 231.054 227.574 231.167 227.876C231.28 228.179 231.323 228.503 231.295 228.824ZM230.476 230.765V229.769H228.573C227.389 229.769 227.011 230.235 227.011 230.865C227.011 231.495 227.578 231.999 228.548 231.999C228.958 232.025 229.367 231.919 229.713 231.697C230.06 231.475 230.327 231.148 230.476 230.765Z" fill="#263238"/>
<path d="M232.681 231.949L233.046 231.306C233.682 231.75 234.438 231.987 235.213 231.987C236.372 231.987 236.839 231.596 236.839 230.991C236.839 229.404 232.907 230.651 232.907 228.257C232.907 227.262 233.752 226.518 235.301 226.518C236.058 226.508 236.803 226.704 237.456 227.085L237.091 227.741C236.561 227.39 235.937 227.21 235.301 227.224C234.205 227.224 233.726 227.652 233.726 228.232C233.726 229.87 237.658 228.635 237.658 230.966C237.658 232.024 236.738 232.705 235.138 232.705C234.259 232.724 233.397 232.459 232.681 231.949Z" fill="#263238"/>
<path d="M242.433 232.226C242.075 232.51 241.63 232.662 241.173 232.655C240.933 232.68 240.691 232.652 240.464 232.572C240.236 232.492 240.03 232.362 239.86 232.191C239.689 232.021 239.559 231.815 239.479 231.587C239.399 231.36 239.371 231.118 239.396 230.878V227.211H238.3V226.518H239.396V225.183H240.215V226.518H242.055V227.211H240.215V230.84C240.194 230.985 240.206 231.133 240.25 231.273C240.294 231.413 240.369 231.542 240.469 231.648C240.57 231.755 240.694 231.838 240.831 231.89C240.968 231.942 241.115 231.962 241.261 231.949C241.592 231.959 241.915 231.847 242.168 231.634L242.433 232.226Z" fill="#263238"/>
<path d="M253.773 224.502V232.592H253.068L247.876 226.027V232.592H247.02V224.502H247.725L252.929 231.067V224.502H253.773Z" fill="#263238"/>
<path d="M260.879 228.824V232.604H260.073V231.659C259.845 231.998 259.532 232.27 259.164 232.447C258.796 232.625 258.388 232.7 257.981 232.667C256.608 232.667 255.764 231.949 255.764 230.891C255.764 229.832 256.368 229.177 258.12 229.177H260.073V228.812C260.073 227.766 259.481 227.199 258.347 227.199C257.61 227.189 256.895 227.444 256.331 227.917L255.953 227.3C256.671 226.739 257.563 226.449 258.473 226.481C258.792 226.444 259.116 226.479 259.42 226.582C259.725 226.686 260.002 226.857 260.232 227.081C260.463 227.305 260.64 227.578 260.752 227.88C260.864 228.181 260.908 228.504 260.879 228.824ZM260.06 230.765V229.769H258.145C256.973 229.769 256.595 230.235 256.595 230.865C256.595 231.495 257.162 231.999 258.132 231.999C258.545 232.027 258.956 231.923 259.305 231.7C259.654 231.478 259.923 231.15 260.073 230.765H260.06Z" fill="#263238"/>
<path d="M273.139 229.064V232.592H272.32V229.152C272.32 227.892 271.665 227.211 270.569 227.211C270.284 227.198 270.001 227.247 269.737 227.355C269.474 227.463 269.238 227.627 269.044 227.836C268.851 228.045 268.706 228.293 268.619 228.564C268.532 228.835 268.505 229.121 268.54 229.404V232.592H267.721V229.152C267.721 227.892 267.066 227.211 265.957 227.211C265.673 227.198 265.389 227.247 265.126 227.355C264.863 227.463 264.626 227.627 264.433 227.836C264.24 228.045 264.094 228.293 264.007 228.564C263.92 228.835 263.893 229.121 263.928 229.404V232.592H263.109V226.518H263.853V227.627C264.091 227.256 264.422 226.953 264.813 226.75C265.204 226.546 265.642 226.449 266.083 226.468C266.53 226.431 266.977 226.532 267.364 226.758C267.752 226.983 268.061 227.322 268.25 227.728C268.499 227.322 268.853 226.991 269.274 226.769C269.695 226.547 270.169 226.443 270.644 226.468C270.989 226.434 271.337 226.479 271.662 226.599C271.987 226.719 272.281 226.911 272.521 227.161C272.761 227.411 272.941 227.712 273.048 228.041C273.155 228.371 273.186 228.72 273.139 229.064Z" fill="#263238"/>
<path d="M280.687 229.807H275.647C275.664 230.103 275.74 230.393 275.87 230.66C276 230.927 276.182 231.166 276.404 231.363C276.626 231.559 276.886 231.71 277.166 231.806C277.447 231.903 277.744 231.943 278.041 231.924C278.39 231.935 278.739 231.87 279.061 231.733C279.383 231.596 279.671 231.39 279.905 231.13L280.359 231.659C279.922 232.115 279.361 232.432 278.745 232.571C278.129 232.71 277.486 232.664 276.896 232.44C276.306 232.216 275.795 231.822 275.427 231.309C275.059 230.796 274.851 230.186 274.828 229.555C274.807 229.154 274.869 228.752 275.009 228.376C275.15 228 275.366 227.656 275.645 227.367C275.924 227.077 276.259 226.848 276.63 226.694C277.001 226.539 277.399 226.462 277.801 226.468C278.202 226.46 278.601 226.536 278.971 226.69C279.342 226.844 279.676 227.074 279.954 227.364C280.231 227.654 280.445 227.999 280.582 228.376C280.719 228.753 280.776 229.155 280.75 229.555C280.699 229.631 280.687 229.719 280.687 229.807ZM275.647 229.202H279.956C279.956 228.631 279.729 228.083 279.325 227.679C278.921 227.275 278.373 227.048 277.801 227.048C277.23 227.048 276.682 227.275 276.278 227.679C275.874 228.083 275.647 228.631 275.647 229.202Z" fill="#263238"/>
</g>
<path d="M375.892 176.433H211.034V204.657H375.892V176.433Z" fill="white"/>
<g opacity="0.4">
<path d="M220.912 186.69V189.865H225.096V190.608H220.912V194.035H220.056V185.946H225.6V186.69H220.912Z" fill="#263238"/>
<path d="M226.897 186.035C226.895 185.914 226.928 185.795 226.994 185.694C227.059 185.592 227.154 185.513 227.265 185.466C227.376 185.418 227.498 185.405 227.617 185.428C227.735 185.451 227.844 185.509 227.929 185.594C228.015 185.68 228.073 185.789 228.096 185.907C228.118 186.026 228.105 186.148 228.058 186.259C228.011 186.37 227.931 186.465 227.83 186.53C227.729 186.596 227.61 186.629 227.489 186.627C227.332 186.627 227.182 186.564 227.071 186.453C226.959 186.342 226.897 186.192 226.897 186.035ZM227.074 187.962H227.893V194.036H227.074V187.962Z" fill="#263238"/>
<path d="M233.247 187.912V188.706H233.046C232.756 188.692 232.467 188.742 232.199 188.852C231.932 188.963 231.692 189.132 231.496 189.346C231.301 189.56 231.156 189.815 231.071 190.092C230.986 190.369 230.963 190.662 231.005 190.949V194.048H230.186V187.975H230.967V189.109C231.185 188.705 231.518 188.376 231.924 188.162C232.331 187.949 232.791 187.862 233.247 187.912Z" fill="#263238"/>
<path d="M233.928 193.342L234.294 192.687C234.923 193.144 235.683 193.387 236.461 193.38C237.62 193.38 238.086 192.977 238.086 192.385C238.086 190.797 234.155 192.045 234.155 189.638C234.155 188.655 234.999 187.912 236.549 187.912C237.306 187.895 238.053 188.092 238.704 188.479L238.338 189.134C237.808 188.784 237.184 188.604 236.549 188.617C235.453 188.617 234.974 189.046 234.974 189.625C234.974 191.263 238.905 190.029 238.905 192.36C238.905 193.405 237.985 194.086 236.385 194.086C235.508 194.109 234.646 193.848 233.928 193.342Z" fill="#263238"/>
<path d="M243.693 193.67C243.331 193.945 242.887 194.091 242.433 194.086C242.194 194.114 241.952 194.088 241.724 194.009C241.497 193.93 241.29 193.802 241.119 193.632C240.949 193.463 240.818 193.257 240.738 193.03C240.658 192.803 240.63 192.561 240.656 192.322V188.655H239.56V187.962H240.656V186.589H241.475V187.924H243.315V188.617H241.475V192.234C241.454 192.379 241.466 192.528 241.51 192.668C241.554 192.809 241.629 192.938 241.729 193.045C241.829 193.153 241.953 193.237 242.09 193.29C242.227 193.344 242.374 193.366 242.521 193.355C242.851 193.359 243.172 193.248 243.428 193.04L243.693 193.67Z" fill="#263238"/>
<path d="M255.033 185.946V194.035H254.328L249.137 187.471V194.035H248.28V185.946H248.985L254.189 192.511V185.946H255.033Z" fill="#263238"/>
<path d="M262.127 190.268V194.048H261.333V193.103C261.107 193.44 260.795 193.71 260.429 193.885C260.064 194.06 259.658 194.134 259.254 194.098C257.868 194.098 257.024 193.393 257.024 192.334C257.024 191.276 257.629 190.621 259.38 190.621H261.333V190.243C261.333 189.21 260.741 188.643 259.607 188.643C258.871 188.633 258.155 188.888 257.591 189.361L257.213 188.743C257.931 188.184 258.823 187.894 259.733 187.924C260.052 187.887 260.375 187.922 260.679 188.026C260.983 188.13 261.26 188.3 261.489 188.525C261.719 188.75 261.895 189.023 262.005 189.324C262.116 189.626 262.157 189.948 262.127 190.268ZM261.308 192.208V191.213H259.393C258.221 191.213 257.843 191.679 257.843 192.297C257.843 192.914 258.41 193.443 259.38 193.443C259.795 193.472 260.208 193.368 260.559 193.146C260.91 192.924 261.181 192.595 261.333 192.208H261.308Z" fill="#263238"/>
<path d="M274.387 190.508V194.036H273.568V190.596C273.568 189.336 272.912 188.655 271.816 188.655C271.532 188.642 271.248 188.691 270.985 188.799C270.722 188.907 270.485 189.071 270.292 189.28C270.099 189.489 269.954 189.737 269.866 190.008C269.779 190.279 269.752 190.565 269.788 190.848V194.036H268.969V190.596C268.969 189.336 268.313 188.655 267.205 188.655C266.92 188.642 266.637 188.691 266.373 188.799C266.11 188.907 265.874 189.071 265.68 189.28C265.487 189.489 265.342 189.737 265.255 190.008C265.168 190.279 265.141 190.565 265.176 190.848V194.036H264.357V187.962H265.113V189.109C265.351 188.737 265.682 188.435 266.073 188.231C266.465 188.028 266.902 187.931 267.343 187.95C267.79 187.913 268.237 188.014 268.625 188.239C269.012 188.465 269.321 188.803 269.51 189.21C269.757 188.802 270.11 188.469 270.532 188.247C270.954 188.025 271.428 187.922 271.904 187.95C272.245 187.919 272.587 187.965 272.908 188.084C273.228 188.203 273.518 188.392 273.755 188.637C273.993 188.882 274.173 189.177 274.283 189.501C274.392 189.824 274.427 190.168 274.387 190.508Z" fill="#263238"/>
<path d="M281.934 191.251H276.894C276.912 191.547 276.988 191.837 277.118 192.104C277.248 192.371 277.429 192.61 277.652 192.806C277.874 193.003 278.133 193.154 278.414 193.25C278.695 193.347 278.992 193.387 279.288 193.368C279.639 193.379 279.989 193.313 280.311 193.173C280.633 193.034 280.921 192.825 281.153 192.561L281.607 193.103C281.17 193.559 280.609 193.876 279.993 194.015C279.377 194.154 278.734 194.108 278.144 193.884C277.554 193.659 277.043 193.266 276.675 192.753C276.307 192.24 276.098 191.63 276.075 190.999C276.054 190.598 276.116 190.196 276.257 189.82C276.398 189.444 276.614 189.1 276.893 188.811C277.171 188.521 277.507 188.292 277.878 188.138C278.248 187.983 278.647 187.906 279.049 187.912C279.45 187.904 279.849 187.98 280.219 188.134C280.59 188.288 280.924 188.518 281.201 188.808C281.478 189.098 281.692 189.443 281.829 189.82C281.966 190.197 282.023 190.598 281.997 190.999C281.947 191.062 281.934 191.15 281.934 191.251ZM276.894 190.634H281.203C281.203 190.062 280.976 189.514 280.572 189.11C280.168 188.706 279.62 188.479 279.049 188.479C278.477 188.479 277.929 188.706 277.525 189.11C277.121 189.514 276.894 190.062 276.894 190.634Z" fill="#263238"/>
</g>
<path d="M149.004 416.262H147.807C147.807 414.485 149.281 372.855 156.526 365.862C163.973 358.617 172.73 365.761 172.806 365.862L172.05 366.769C171.722 366.504 164.023 360.255 157.345 366.769C150.453 373.333 149.017 415.833 149.004 416.262Z" fill="#407BFF"/>
<path d="M148.399 424.615L147.215 424.502C147.215 423.998 151.902 373.951 133.771 353.136L134.665 352.354C153.137 373.56 148.45 424.111 148.399 424.615Z" fill="#407BFF"/>
<path d="M148.979 419.273C148.828 416.904 145.338 361.313 159.273 348.461L160.08 349.343C146.56 361.767 150.126 418.643 150.163 419.185L148.979 419.273Z" fill="#407BFF"/>
<path d="M147.215 419.235C147.215 418.857 146.787 381.435 136.87 375.803C136.027 375.247 135.063 374.902 134.059 374.797C133.054 374.691 132.039 374.829 131.1 375.198C125.291 377.605 122.204 388.693 122.166 388.806L121.02 388.491C121.146 388.012 124.296 376.735 130.646 374.102C131.752 373.658 132.949 373.486 134.136 373.603C135.322 373.719 136.464 374.119 137.463 374.77C147.958 380.78 148.399 417.61 148.412 419.223L147.215 419.235Z" fill="#407BFF"/>
<path d="M151.297 419.26C151.222 418 149.697 389.726 157.723 379.23C159.865 376.446 162.234 375.123 164.805 375.312C170.512 375.702 174.885 383.439 175.124 383.766L174.091 384.358C174.091 384.283 169.782 376.798 164.716 376.496C162.587 376.332 160.546 377.504 158.668 379.961C150.907 390.041 152.469 418.908 152.482 419.197L151.297 419.26Z" fill="#407BFF"/>
<path d="M149.697 423.179L148.513 423.091C148.513 422.411 153.553 354.9 145.237 343.635L146.194 342.93C154.788 354.547 149.911 420.382 149.697 423.179Z" fill="#407BFF"/>
<path d="M128.34 380.818C128.34 380.818 133.481 382.72 131.956 387.193C130.432 391.666 114.152 399.037 114.152 399.037C114.152 399.037 107.336 392.8 113.598 382.657C119.86 372.514 128.201 377.617 128.34 380.818Z" fill="#407BFF"/>
<path opacity="0.2" d="M128.34 380.818C128.34 380.818 133.481 382.72 131.956 387.193C130.432 391.666 114.152 399.037 114.152 399.037C114.152 399.037 107.336 392.8 113.598 382.657C119.86 372.514 128.201 377.617 128.34 380.818Z" fill="black"/>
<path d="M150.705 372.3C150.705 372.3 145.224 372.074 144.909 376.786C144.594 381.498 156.753 394.577 156.753 394.577C156.753 394.577 165.447 391.427 163.582 379.646C161.717 367.865 152.066 369.39 150.705 372.3Z" fill="#407BFF"/>
<path opacity="0.2" d="M150.705 372.3C150.705 372.3 145.224 372.074 144.909 376.786C144.594 381.498 156.753 394.577 156.753 394.577C156.753 394.577 165.447 391.427 163.582 379.646C161.717 367.865 152.066 369.39 150.705 372.3Z" fill="black"/>
<path d="M155.342 349.696C155.342 349.696 151.688 349.305 151.978 347.088C152.268 344.87 166.178 339.137 174.381 348.348C174.381 348.348 169.126 357.369 161.541 357.495C153.956 357.621 155.342 349.696 155.342 349.696Z" fill="#407BFF"/>
<path opacity="0.2" d="M155.342 349.696C155.342 349.696 151.688 349.305 151.978 347.088C152.268 344.87 166.178 339.137 174.381 348.348C174.381 348.348 169.126 357.369 161.541 357.495C153.956 357.621 155.342 349.696 155.342 349.696Z" fill="black"/>
<path d="M148.538 344.29C148.538 344.29 151.839 345.891 152.771 343.849C153.704 341.808 144.922 329.599 133.065 333.114C133.065 333.114 132.75 343.547 139.126 347.667C145.501 351.787 148.538 344.29 148.538 344.29Z" fill="#407BFF"/>
<path opacity="0.2" d="M148.538 344.29C148.538 344.29 151.839 345.891 152.771 343.849C153.704 341.808 144.922 329.599 133.065 333.114C133.065 333.114 132.75 343.547 139.126 347.667C145.501 351.787 148.538 344.29 148.538 344.29Z" fill="black"/>
<path d="M165.825 379.029C165.825 379.029 163.305 376.987 166.027 375.992C168.748 374.997 182.092 375.286 182.23 388.504C182.23 388.504 166.682 391.087 164.767 386.047C162.851 381.007 165.825 379.029 165.825 379.029Z" fill="#407BFF"/>
<path opacity="0.2" d="M165.825 379.029C165.825 379.029 163.305 376.987 166.027 375.992C168.748 374.997 182.092 375.286 182.23 388.504C182.23 388.504 166.682 391.087 164.767 386.047C162.851 381.007 165.825 379.029 165.825 379.029Z" fill="black"/>
<path d="M134.073 349.368C134.073 349.368 136.593 347.327 133.872 346.344C131.15 345.362 117.807 345.626 117.668 358.844C117.668 358.844 133.216 361.439 135.132 356.399C137.047 351.359 134.073 349.368 134.073 349.368Z" fill="#407BFF"/>
<path opacity="0.2" d="M134.073 349.368C134.073 349.368 136.593 347.327 133.872 346.344C131.15 345.362 117.807 345.626 117.668 358.844C117.668 358.844 133.216 361.439 135.132 356.399C137.047 351.359 134.073 349.368 134.073 349.368Z" fill="black"/>
<path d="M142.339 360.015C142.339 360.015 142.565 357.495 140.562 358.516C138.559 359.537 131.616 366.996 138.823 374.115C138.823 374.115 148.538 366.92 146.786 363.178C145.035 359.436 142.339 360.015 142.339 360.015Z" fill="#407BFF"/>
<path opacity="0.2" d="M142.339 360.015C142.339 360.015 142.565 357.495 140.562 358.516C138.559 359.537 131.616 366.996 138.823 374.115C138.823 374.115 148.538 366.92 146.786 363.178C145.035 359.436 142.339 360.015 142.339 360.015Z" fill="black"/>
<path d="M168.093 363.543C168.093 363.543 166.581 361.565 168.799 361.326C171.017 361.086 180.895 363.72 178.589 373.598C178.589 373.598 166.544 372.691 165.989 368.558C165.435 364.425 168.093 363.543 168.093 363.543Z" fill="#407BFF"/>
<path opacity="0.2" d="M168.093 363.543C168.093 363.543 166.581 361.565 168.799 361.326C171.017 361.086 180.895 363.72 178.589 373.598C178.589 373.598 166.544 372.691 165.989 368.558C165.435 364.425 168.093 363.543 168.093 363.543Z" fill="black"/>
<path d="M129.235 455.876H168.181L173.36 418H124.056L129.235 455.876Z" fill="#263238"/>
<path opacity="0.2" d="M129.235 455.876H168.181L173.36 418H124.056L129.235 455.876Z" fill="white"/>
<path d="M178.249 414.926V418.53C178.249 419.686 177.789 420.795 176.972 421.612C176.154 422.43 175.045 422.889 173.889 422.889H123.048C121.892 422.889 120.783 422.43 119.965 421.612C119.148 420.795 118.688 419.686 118.688 418.53V414.926H178.249Z" fill="#263238"/>
<path d="M502.774 55.9395H466.574C463.62 55.9395 460.787 57.113 458.698 59.2018C456.61 61.2907 455.436 64.1238 455.436 67.0779V98.5779C455.434 100.042 455.721 101.491 456.28 102.844C456.839 104.197 457.66 105.426 458.694 106.462C459.728 107.498 460.957 108.319 462.309 108.88C463.661 109.44 465.111 109.729 466.574 109.729H477.146L474.626 119.67L484.706 109.729H502.837C505.795 109.729 508.631 108.554 510.722 106.463C512.813 104.372 513.988 101.535 513.988 98.5779V67.0779C513.988 65.6088 513.698 64.1542 513.133 62.7979C512.569 61.4415 511.742 60.2103 510.699 59.175C509.657 58.1397 508.42 57.3208 507.06 56.7655C505.7 56.2102 504.243 55.9295 502.774 55.9395Z" fill="#407BFF"/>
<path opacity="0.7" d="M502.774 55.9395H466.574C463.62 55.9395 460.787 57.113 458.698 59.2018C456.61 61.2907 455.436 64.1238 455.436 67.0779V98.5779C455.434 100.042 455.721 101.491 456.28 102.844C456.839 104.197 457.66 105.426 458.694 106.462C459.728 107.498 460.957 108.319 462.309 108.88C463.661 109.44 465.111 109.729 466.574 109.729H477.146L474.626 119.67L484.706 109.729H502.837C505.795 109.729 508.631 108.554 510.722 106.463C512.813 104.372 513.988 101.535 513.988 98.5779V67.0779C513.988 65.6088 513.698 64.1542 513.133 62.7979C512.569 61.4415 511.742 60.2103 510.699 59.175C509.657 58.1397 508.42 57.3208 507.06 56.7655C505.7 56.2102 504.243 55.9295 502.774 55.9395Z" fill="white"/>
<path d="M484.68 96.7508C492.439 96.7508 498.729 90.4609 498.729 82.7018C498.729 74.9428 492.439 68.6528 484.68 68.6528C476.921 68.6528 470.631 74.9428 470.631 82.7018C470.631 90.4609 476.921 96.7508 484.68 96.7508Z" fill="white"/>
<path d="M484.681 64.7343C481.127 64.7343 477.653 65.788 474.698 67.7623C471.743 69.7366 469.441 72.5428 468.081 75.826C466.721 79.1091 466.365 82.7218 467.058 86.2072C467.751 89.6925 469.463 92.8941 471.976 95.4069C474.488 97.9197 477.69 99.6309 481.175 100.324C484.661 101.017 488.273 100.662 491.556 99.3017C494.84 97.9418 497.646 95.6389 499.62 92.6841C501.594 89.7294 502.648 86.2555 502.648 82.7019C502.65 80.3419 502.186 78.0047 501.284 75.824C500.381 73.6433 499.058 71.6619 497.389 69.9931C495.72 68.3244 493.739 67.001 491.558 66.0986C489.378 65.1962 487.041 64.7326 484.681 64.7343ZM494.874 77.3343L484.051 90.0855C483.897 90.2697 483.704 90.4173 483.486 90.5176C483.268 90.6179 483.03 90.6683 482.791 90.6651C482.551 90.6665 482.314 90.6153 482.096 90.5152C481.878 90.415 481.685 90.2684 481.531 90.0855L474.487 81.7821C474.338 81.6179 474.224 81.4254 474.151 81.2161C474.078 81.0069 474.048 80.7851 474.063 80.564C474.078 80.3429 474.137 80.127 474.237 79.9292C474.337 79.7314 474.475 79.5558 474.645 79.4127C474.814 79.2697 475.01 79.1623 475.222 79.0967C475.434 79.0312 475.656 79.009 475.877 79.0314C476.097 79.0537 476.311 79.1203 476.505 79.227C476.699 79.3338 476.87 79.4785 477.007 79.6527L482.791 86.4693L492.354 75.2049C492.641 74.8879 493.04 74.6948 493.467 74.6664C493.894 74.638 494.315 74.7765 494.642 75.0526C494.969 75.3288 495.176 75.721 495.219 76.1466C495.262 76.5723 495.139 76.9981 494.874 77.3343Z" fill="#407BFF"/>
<path d="M496.5 250.294C496.5 250.294 474.563 247.522 441.324 256.594C441.324 256.594 435.982 197.198 436.612 189.033C437.242 180.868 487.932 183.262 487.932 183.262C487.932 183.262 489.192 207.039 492.493 221.377C495.794 235.716 498.213 247.535 496.5 250.294Z" fill="#407BFF"/>
<path opacity="0.2" d="M496.5 250.294C496.5 250.294 474.563 247.522 441.324 256.594C441.324 256.594 435.982 197.198 436.612 189.033C437.242 180.868 487.932 183.262 487.932 183.262C487.932 183.262 489.192 207.039 492.493 221.377C495.794 235.716 498.213 247.535 496.5 250.294Z" fill="black"/>
<path d="M425.297 446.93L434.243 449.463L436.372 435.54L437.519 428.093L428.573 425.56L427.048 435.54L425.297 446.93Z" fill="#E4897B"/>
<path d="M476.73 447.661L485.954 448.883L486.042 435.54L486.105 427.249L476.869 426.039L476.806 435.54L476.73 447.661Z" fill="#E4897B"/>
<path opacity="0.2" d="M476.869 426.039L476.806 435.54H486.041L486.104 427.249L476.869 426.039Z" fill="black"/>
<path opacity="0.2" d="M427.048 435.54H436.372L437.519 428.093L428.573 425.56L427.048 435.54Z" fill="black"/>
<path d="M385.582 193.909L376.699 191.289L378.324 201.432C378.324 201.432 386.388 203.284 387.144 199.088L385.582 193.909Z" fill="#E4897B"/>
<path d="M367.829 193.645L372.188 201.885L378.324 201.432L376.699 191.289L367.829 193.645Z" fill="#E4897B"/>
<path d="M397.842 196.505L383.251 193.242L381.928 200.323L395.17 203.549L397.842 196.505Z" fill="#E4897B"/>
<path d="M441.979 190.104L441.123 191.125C439.283 193.279 434.823 198.483 430.173 202.969C426.393 206.623 422.613 209.811 420.093 210.453C412.949 212.293 386.98 204.645 386.98 204.645L389.664 194.111C389.664 194.111 413.856 197.324 415.734 197.324C417.157 197.324 431.874 176.005 435.44 174.253L441.979 190.104Z" fill="#407BFF"/>
<path opacity="0.2" d="M441.123 191.125C439.283 193.28 434.823 198.483 430.173 202.969C431.106 195.585 433.815 188.807 437.381 184.523C437.713 184.109 438.094 183.737 438.515 183.414L441.123 191.125Z" fill="black"/>
<path d="M425.411 445.531L435.566 445.267C435.749 445.261 435.929 445.318 436.076 445.428C436.222 445.538 436.327 445.694 436.373 445.872L438.515 454.049C438.566 454.245 438.572 454.45 438.534 454.648C438.495 454.847 438.412 455.034 438.291 455.196C438.17 455.358 438.014 455.491 437.834 455.585C437.655 455.679 437.457 455.731 437.255 455.737C433.588 455.737 428.283 455.737 423.684 455.826C418.292 455.977 414.864 455.712 408.564 455.826C404.784 455.926 403.524 452.121 405.137 451.731C412.357 449.941 417.082 450.294 423.231 446.262C423.88 445.83 424.632 445.577 425.411 445.531Z" fill="#263238"/>
<path d="M424.528 446.842C423.041 447.169 420.395 447.61 419.337 446.741C419.183 446.613 419.061 446.451 418.982 446.267C418.903 446.083 418.869 445.882 418.883 445.683C418.883 445.563 418.914 445.445 418.974 445.341C419.034 445.237 419.12 445.15 419.224 445.09C420.345 444.423 424.138 446.224 424.579 446.426C424.617 446.447 424.649 446.478 424.672 446.516C424.694 446.553 424.705 446.596 424.705 446.64C424.703 446.689 424.684 446.735 424.652 446.772C424.62 446.809 424.576 446.833 424.528 446.842ZM419.488 445.443H419.413C419.371 445.468 419.336 445.502 419.311 445.544C419.287 445.586 419.274 445.634 419.274 445.683C419.264 445.813 419.284 445.944 419.335 446.064C419.385 446.185 419.464 446.292 419.564 446.376C420.156 446.867 421.693 446.917 423.734 446.514C422.26 445.897 420.206 445.179 419.513 445.443H419.488Z" fill="#407BFF"/>
<path d="M424.529 446.842H424.377C423.231 446.363 420.938 444.423 421.064 443.377C421.064 443.125 421.265 442.81 421.87 442.734C422.092 442.705 422.318 442.72 422.534 442.779C422.75 442.837 422.953 442.938 423.13 443.075C424.39 444.02 424.68 446.502 424.705 446.602C424.709 446.641 424.702 446.679 424.687 446.715C424.672 446.75 424.647 446.781 424.617 446.804L424.529 446.842ZM421.706 443.226C421.517 443.289 421.505 443.39 421.505 443.427C421.429 444.057 422.991 445.594 424.163 446.25C424.028 445.191 423.56 444.203 422.828 443.427C422.703 443.323 422.558 443.246 422.401 443.203C422.245 443.159 422.081 443.15 421.92 443.175C421.847 443.182 421.775 443.199 421.706 443.226Z" fill="#407BFF"/>
<path d="M477.096 445.531L487.251 445.267C487.436 445.26 487.617 445.317 487.766 445.427C487.915 445.536 488.022 445.693 488.07 445.872L490.2 454.049C490.253 454.245 490.262 454.451 490.224 454.65C490.186 454.85 490.103 455.038 489.982 455.201C489.86 455.364 489.703 455.497 489.523 455.59C489.342 455.683 489.143 455.733 488.94 455.737C485.273 455.737 479.968 455.737 475.357 455.826C469.977 455.977 466.537 455.712 460.237 455.826C456.457 455.926 455.197 452.121 456.81 451.731C464.029 449.941 468.742 450.294 474.891 446.262C475.547 445.825 476.308 445.573 477.096 445.531Z" fill="#263238"/>
<path d="M476.226 446.842C474.74 447.169 472.081 447.61 471.035 446.741C470.881 446.613 470.759 446.451 470.68 446.267C470.602 446.083 470.568 445.882 470.582 445.683C470.581 445.563 470.612 445.445 470.672 445.341C470.732 445.237 470.818 445.15 470.922 445.09C472.031 444.423 475.836 446.224 476.264 446.426C476.306 446.443 476.341 446.473 476.364 446.511C476.387 446.55 476.396 446.596 476.39 446.64C476.387 446.687 476.369 446.731 476.34 446.767C476.311 446.803 476.271 446.829 476.226 446.842ZM471.186 445.443H471.111C471.069 445.467 471.035 445.502 471.013 445.545C470.991 445.587 470.981 445.635 470.985 445.683C470.972 445.813 470.992 445.945 471.043 446.066C471.093 446.187 471.173 446.293 471.275 446.376C471.867 446.867 473.391 446.917 475.445 446.514C473.946 445.897 471.892 445.179 471.199 445.443H471.186Z" fill="#407BFF"/>
<path d="M476.226 446.842H476.063C474.929 446.363 472.623 444.423 472.761 443.377C472.761 443.125 472.95 442.81 473.555 442.734C473.777 442.704 474.003 442.718 474.22 442.777C474.436 442.835 474.639 442.936 474.815 443.074C475.697 444.056 476.248 445.291 476.39 446.602C476.397 446.641 476.392 446.681 476.376 446.716C476.36 446.752 476.335 446.783 476.302 446.804L476.226 446.842ZM473.391 443.226C473.215 443.289 473.202 443.389 473.202 443.427C473.114 444.057 474.689 445.594 475.861 446.25C475.717 445.194 475.25 444.208 474.525 443.427C474.401 443.323 474.255 443.247 474.099 443.204C473.942 443.16 473.779 443.151 473.618 443.175L473.391 443.226Z" fill="#407BFF"/>
<path d="M495.756 244.876C500.645 266.057 492.253 432.692 492.253 432.692H476.05L469.12 293.827L443.605 432.692L426.28 431.432C437.62 323.853 447.612 259.631 447.612 259.631V251.517L495.756 244.876Z" fill="#263238"/>
<path opacity="0.4" d="M426.28 431.432L443.605 432.692L463.689 323.374L469.12 293.827L476.05 432.692H492.253C492.253 432.692 500.645 266.057 495.756 244.876L447.586 251.517V259.631C447.586 259.631 437.607 323.853 426.28 431.432Z" fill="white"/>
<path d="M487.024 166.429C486.528 176.556 486.785 186.706 487.793 196.795C488.473 203.851 489.406 210.516 490.401 216.526C492.732 230.626 495.378 241.197 495.756 244.889L447.586 251.529C430.022 202.389 436.637 173.838 436.637 173.838C440.239 172.351 443.929 171.088 447.687 170.058C448.481 169.843 449.287 169.642 450.119 169.453C456.884 168.122 463.721 167.179 470.594 166.63C471.854 166.517 473.227 166.429 474.513 166.366C481.09 166.038 487.024 166.429 487.024 166.429Z" fill="#263238"/>
<path d="M461.245 144.316C461.598 151.057 462.316 163.707 467.923 166.92C467.923 166.92 464.433 173.56 456.885 174.241C451.177 174.745 451.555 169.113 451.555 169.113C454.857 166.656 454.075 162.485 451.555 157.773L461.245 144.316Z" fill="#E4897B"/>
<path opacity="0.2" d="M457.288 149.809L451.593 157.773C452.193 158.862 452.699 160 453.105 161.175C455.751 160.116 458.788 156.135 458.347 153.249C458.209 152.047 457.85 150.881 457.288 149.809Z" fill="black"/>
<path d="M436.675 130.746C435.579 134.248 436.183 141.43 441.06 139.099C445.936 136.768 438.565 124.735 436.675 130.746Z" fill="#263238"/>
<path d="M461.875 135.483C462.417 144.467 463.135 149.696 459.216 154.786C453.257 162.435 441.715 159.587 438.489 150.918C435.591 143.106 435.201 129.725 443.529 125.189C445.376 124.185 447.446 123.665 449.548 123.679C451.65 123.692 453.713 124.239 455.546 125.268C457.379 126.296 458.921 127.773 460.028 129.559C461.135 131.346 461.77 133.384 461.875 135.483Z" fill="#E4897B"/>
<path d="M455.575 130.594V120.514C455.575 120.514 466.26 119.721 465.781 125.189C471.703 128.125 468.905 137.335 460.955 141.846C456.595 138.356 457.099 129.964 457.099 129.964C456.633 130.204 456.104 130.405 455.575 130.594Z" fill="#263238"/>
<path d="M466.222 142.489C466.016 143.588 465.592 144.635 464.975 145.567C464.359 146.5 463.561 147.3 462.631 147.919C460.111 149.57 457.931 147.541 457.843 144.706C457.767 142.186 458.964 138.205 461.862 137.701C462.496 137.602 463.145 137.662 463.75 137.875C464.355 138.088 464.897 138.448 465.329 138.923C465.761 139.397 466.069 139.971 466.225 140.593C466.38 141.216 466.379 141.867 466.222 142.489Z" fill="#E4897B"/>
<path d="M448.607 139.49C448.695 140.221 448.38 140.851 447.902 140.901C447.423 140.952 446.969 140.41 446.881 139.641C446.793 138.873 447.108 138.28 447.574 138.23C448.04 138.18 448.519 138.709 448.607 139.49Z" fill="#263238"/>
<path d="M440.366 140.41C440.455 141.141 440.14 141.771 439.661 141.821C439.182 141.871 438.728 141.33 438.64 140.561C438.552 139.792 438.867 139.2 439.346 139.15C439.825 139.099 440.253 139.679 440.366 140.41Z" fill="#263238"/>
<path d="M443.025 140.473C442.388 142.726 441.443 144.88 440.215 146.874C440.759 147.153 441.355 147.314 441.965 147.347C442.576 147.379 443.186 147.283 443.756 147.063L443.025 140.473Z" fill="#DE5753"/>
<path d="M448.002 149.406C447.691 149.485 447.375 149.544 447.057 149.583C447 149.583 446.946 149.56 446.905 149.52C446.865 149.48 446.843 149.425 446.843 149.368C446.843 149.312 446.865 149.257 446.905 149.217C446.946 149.177 447 149.154 447.057 149.154C447.962 149.072 448.835 148.778 449.605 148.297C450.375 147.815 451.022 147.16 451.492 146.382C451.503 146.357 451.519 146.334 451.539 146.315C451.559 146.296 451.583 146.281 451.609 146.272C451.635 146.262 451.663 146.258 451.69 146.26C451.718 146.261 451.745 146.269 451.769 146.281C451.795 146.294 451.818 146.311 451.838 146.332C451.857 146.353 451.871 146.378 451.881 146.405C451.89 146.432 451.894 146.461 451.892 146.489C451.89 146.518 451.883 146.546 451.87 146.571C451.458 147.287 450.901 147.909 450.235 148.397C449.569 148.885 448.808 149.229 448.002 149.406Z" fill="#263238"/>
<path d="M450.824 136.554C450.748 136.572 450.669 136.57 450.594 136.548C450.518 136.526 450.45 136.484 450.396 136.428C450.031 136.028 449.578 135.719 449.073 135.524C448.568 135.33 448.024 135.255 447.485 135.307C447.43 135.32 447.372 135.321 447.316 135.311C447.26 135.3 447.207 135.278 447.159 135.246C447.112 135.214 447.072 135.173 447.041 135.125C447.011 135.077 446.99 135.023 446.981 134.967C446.97 134.911 446.97 134.854 446.982 134.799C446.993 134.743 447.015 134.691 447.046 134.644C447.078 134.597 447.119 134.557 447.166 134.526C447.213 134.495 447.266 134.473 447.321 134.463C448.002 134.382 448.691 134.464 449.333 134.703C449.976 134.942 450.551 135.33 451.013 135.836C451.054 135.875 451.087 135.922 451.11 135.974C451.132 136.026 451.144 136.082 451.144 136.139C451.144 136.195 451.132 136.251 451.11 136.303C451.087 136.355 451.054 136.402 451.013 136.441C450.959 136.492 450.895 136.531 450.824 136.554Z" fill="#263238"/>
<path d="M436.473 137.978C436.392 138.009 436.302 138.009 436.221 137.978C436.115 137.941 436.027 137.863 435.978 137.762C435.928 137.66 435.92 137.543 435.957 137.436C436.165 136.788 436.527 136.199 437.012 135.721C437.497 135.243 438.09 134.889 438.741 134.689C438.852 134.661 438.969 134.678 439.067 134.736C439.165 134.793 439.236 134.888 439.264 134.998C439.293 135.108 439.276 135.226 439.218 135.324C439.16 135.422 439.066 135.493 438.955 135.521C438.44 135.68 437.972 135.963 437.592 136.345C437.212 136.727 436.931 137.197 436.776 137.713C436.752 137.78 436.711 137.838 436.659 137.885C436.606 137.931 436.542 137.963 436.473 137.978Z" fill="#263238"/>
<path d="M460.312 134.324C460.312 134.324 454.012 132.018 451.14 128.364C451.14 128.364 445.419 129.864 444.247 132.144C443.713 131.686 443.367 131.047 443.276 130.349C443.185 129.651 443.356 128.944 443.756 128.364C443.756 128.364 439.472 129.271 438.628 132.144C437.932 131.813 437.36 131.267 436.997 130.586C436.634 129.906 436.499 129.127 436.612 128.364C436.612 128.364 434.709 129.082 434.092 132.144C434.092 132.144 429.367 122.291 444.978 119.469C443.797 119.068 442.559 118.859 441.312 118.851C441.312 118.851 452.211 114.454 460.842 118.473C469.473 122.493 467.973 130.28 460.312 134.324Z" fill="#263238"/>
<path d="M499.473 253.369L484.353 255.385C484.353 255.385 478.116 211.801 475.37 197.727V167.689L483.27 165.61L489.393 167.689C491.073 173.732 492.365 179.877 493.262 186.085C494.005 190.797 494.673 195.837 495.265 200.94C496.084 207.895 496.764 214.977 497.344 221.604C498.251 232.302 498.856 241.764 499.184 247.548C499.373 251.176 499.473 253.369 499.473 253.369Z" fill="#407BFF"/>
<path d="M475.382 197.702C475.382 197.702 476.642 176.496 483.282 165.559C483.282 165.559 483.119 162.435 481.796 161.931C480.473 161.427 475.382 164.451 475.382 164.451C475.382 164.451 472.22 162.283 471.527 163.291C470.834 164.299 469.145 171.003 475.382 197.702Z" fill="#407BFF"/>
<path opacity="0.7" d="M475.382 197.702C475.382 197.702 476.642 176.496 483.282 165.559C483.282 165.559 483.119 162.435 481.796 161.931C480.473 161.427 475.382 164.451 475.382 164.451C475.382 164.451 472.22 162.283 471.527 163.291C470.834 164.299 469.145 171.003 475.382 197.702Z" fill="white"/>
<path d="M441.009 259.178L442.735 260.438C442.735 260.438 440.215 246.389 441.248 210.857C441.248 209.143 441.362 207.492 441.425 205.917C442.685 175.854 447.372 170.385 447.725 170.058L443.365 171.545L435.465 174.266C433.083 199.907 441.009 259.178 441.009 259.178Z" fill="#407BFF"/>
<path d="M441.69 200.739C441.69 200.739 437.33 180.125 438.628 173.019C439.926 165.912 444.575 169.075 444.575 169.075C444.575 169.075 448.847 165.622 450.119 169.428C450.119 169.428 444.248 173.56 441.69 200.739Z" fill="#407BFF"/>
<path opacity="0.7" d="M441.69 200.739C441.69 200.739 437.33 180.125 438.628 173.019C439.926 165.912 444.575 169.075 444.575 169.075C444.575 169.075 448.847 165.622 450.119 169.428C450.119 169.428 444.248 173.56 441.69 200.739Z" fill="white"/>
<path opacity="0.2" d="M495.24 200.89C488.788 197.274 487.932 187.836 487.932 187.836C488.322 187.685 490.716 186.866 493.236 186.034C493.98 190.747 494.647 195.787 495.24 200.89Z" fill="black"/>
<path opacity="0.2" d="M463.689 323.374L469.12 293.827L468.074 278.191C468.074 278.191 460.628 305.306 463.689 323.374Z" fill="black"/>
<path opacity="0.2" d="M499.158 247.497C495.101 247.22 491.598 246.955 491.598 246.955L490.83 230.462C492.094 229.671 493.613 229.391 495.076 229.681C496.073 227.046 496.828 224.326 497.331 221.554C498.213 232.251 498.831 241.726 499.158 247.497Z" fill="black"/>
<path d="M500.544 221.541L492.644 234.229L498.894 237.82L506.315 226.392L500.544 221.541Z" fill="#E4897B"/>
<path d="M489.053 167.487C494.37 168.067 516.975 199.088 517.97 208.437C518.965 217.787 504.69 233.927 504.69 233.927L495.164 228.32C495.164 228.32 504.841 213.44 505.345 209.42C505.849 205.401 487.642 189.159 487.642 189.159C486.265 185.418 485.507 181.477 485.399 177.492C485.147 170.663 489.053 167.487 489.053 167.487Z" fill="#407BFF"/>
<path d="M490.817 230.475C490.817 230.475 498.944 232.213 502.22 237.329C502.22 237.329 498.818 247.976 496.386 249.135C493.954 250.294 487.931 250.294 487.931 250.294C487.931 250.294 487.541 238.45 490.817 230.475Z" fill="#407BFF"/>
</svg>
