<svg width="715" height="534" viewBox="0 0 715 534" fill="none" xmlns="http://www.w3.org/2000/svg">
<path d="M714.83 468.59H0.0476074V468.948H714.83V468.59Z" fill="#EBEBEB"/>
<path d="M643.209 491.592H595.861V491.95H643.209V491.592Z" fill="#EBEBEB"/>
<path d="M473.548 495.481H461.125V495.838H473.548V495.481Z" fill="#EBEBEB"/>
<path d="M594.432 478.326H566.999V478.683H594.432V478.326Z" fill="#EBEBEB"/>
<path d="M136.785 480.728H75.0425V481.085H136.785V480.728Z" fill="#EBEBEB"/>
<path d="M158.572 480.728H149.523V481.085H158.572V480.728Z" fill="#EBEBEB"/>
<path d="M321.914 486.76H187.992V487.118H321.914V486.76Z" fill="#EBEBEB"/>
<path d="M338.854 404.832H62.8197C60.6572 404.828 58.5847 403.966 57.0569 402.436C55.5292 400.906 54.6711 398.832 54.6711 396.669V8.64242C54.69 6.49239 55.5563 4.43661 57.082 2.92162C58.6077 1.40662 60.6696 0.55477 62.8197 0.551086H338.854C341.019 0.551086 343.095 1.41109 344.626 2.94192C346.157 4.47274 347.017 6.54899 347.017 8.7139V396.669C347.017 398.834 346.157 400.91 344.626 402.441C343.095 403.972 341.019 404.832 338.854 404.832ZM62.8197 0.837C60.752 0.840787 58.7703 1.66481 57.3096 3.1282C55.8489 4.59159 55.0285 6.57477 55.0285 8.64242V396.669C55.0285 398.737 55.8489 400.72 57.3096 402.183C58.7703 403.647 60.752 404.471 62.8197 404.474H338.854C340.923 404.471 342.906 403.647 344.369 402.184C345.832 400.721 346.656 398.738 346.66 396.669V8.64242C346.656 6.57345 345.832 4.59031 344.369 3.12733C342.906 1.66435 340.923 0.840779 338.854 0.837H62.8197Z" fill="#EBEBEB"/>
<path d="M648.083 404.832H372.035C369.871 404.828 367.797 403.967 366.267 402.437C364.737 400.907 363.875 398.833 363.872 396.669V8.64242C363.894 6.49109 364.764 4.43532 366.292 2.92072C367.82 1.40612 369.883 0.554729 372.035 0.551086H648.083C650.231 0.558527 652.289 1.41204 653.812 2.92663C655.334 4.44123 656.199 6.49486 656.218 8.64242V396.669C656.218 398.829 655.362 400.901 653.837 402.431C652.312 403.961 650.243 404.824 648.083 404.832ZM372.035 0.837C369.966 0.840779 367.982 1.66435 366.519 3.12733C365.056 4.59031 364.233 6.57345 364.229 8.64242V396.669C364.233 398.738 365.056 400.721 366.519 402.184C367.982 403.647 369.966 404.471 372.035 404.474H648.083C650.152 404.471 652.135 403.647 653.598 402.184C655.061 400.721 655.885 398.738 655.889 396.669V8.64242C655.885 6.57345 655.061 4.59031 653.598 3.12733C652.135 1.66435 650.152 0.840779 648.083 0.837H372.035Z" fill="#EBEBEB"/>
<path d="M387.116 467.047H580.536V183.45H387.116V467.047Z" fill="#F0F0F0"/>
<path d="M393.95 244.764L573.703 244.764V192.384L393.95 192.384V244.764Z" fill="#E0E0E0"/>
<path d="M563.496 244.764H573.703V200.862H563.496V244.764Z" fill="#EBEBEB"/>
<path d="M514.119 244.764H524.326V200.862H514.119V244.764Z" fill="#EBEBEB"/>
<path d="M450.619 243.014L460.678 244.747L468.135 201.484L458.076 199.75L450.619 243.014Z" fill="#EBEBEB"/>
<path d="M550.844 244.764H561.052V206.651H550.844V244.764Z" fill="#EBEBEB"/>
<path d="M527.371 244.764H537.578V206.651H527.371V244.764Z" fill="#EBEBEB"/>
<path d="M468.13 244.764H478.337V206.651H468.13V244.764Z" fill="#EBEBEB"/>
<path d="M492.462 242.533L502.426 244.748L510.694 207.543L500.73 205.329L492.462 242.533Z" fill="#EBEBEB"/>
<path d="M542.01 244.764H547.113V198.689H542.01V244.764Z" fill="#EBEBEB"/>
<path d="M481.282 244.764H486.385V198.689H481.282V244.764Z" fill="#EBEBEB"/>
<path d="M573.703 253.055H393.95V305.434H573.703V253.055Z" fill="#E0E0E0"/>
<path d="M404.157 261.532H393.95V305.434H404.157V261.532Z" fill="#EBEBEB"/>
<path d="M453.534 261.532H443.327V305.434H453.534V261.532Z" fill="#EBEBEB"/>
<path d="M509.602 260.412L499.543 262.146L507 305.41L517.059 303.676L509.602 260.412Z" fill="#EBEBEB"/>
<path d="M416.809 267.322H406.601V305.434H416.809V267.322Z" fill="#EBEBEB"/>
<path d="M440.282 267.322H430.075V305.434H440.282V267.322Z" fill="#EBEBEB"/>
<path d="M499.523 267.322H489.316V305.434H499.523V267.322Z" fill="#EBEBEB"/>
<path d="M466.969 265.984L457.005 268.198L465.273 305.403L475.237 303.188L466.969 265.984Z" fill="#EBEBEB"/>
<path d="M425.643 259.359H420.54V305.434H425.643V259.359Z" fill="#EBEBEB"/>
<path d="M486.371 259.359H481.268V305.434H486.371V259.359Z" fill="#EBEBEB"/>
<path d="M563.496 305.434H573.703V261.532H563.496V305.434Z" fill="#EBEBEB"/>
<path d="M550.844 305.434H561.052V267.322H550.844V305.434Z" fill="#EBEBEB"/>
<path d="M527.371 305.434H537.578V267.322H527.371V305.434Z" fill="#EBEBEB"/>
<path d="M542.01 305.434H547.113V259.359H542.01V305.434Z" fill="#EBEBEB"/>
<path d="M393.95 366.105H573.703V313.726H393.95V366.105Z" fill="#E0E0E0"/>
<path d="M460.324 366.105H470.531V322.203H460.324V366.105Z" fill="#EBEBEB"/>
<path d="M396.826 364.349L406.885 366.083L414.342 322.819L404.284 321.085L396.826 364.349Z" fill="#EBEBEB"/>
<path d="M497.05 366.105H507.257V327.993H497.05V366.105Z" fill="#EBEBEB"/>
<path d="M473.576 366.105H483.784V327.993H473.576V366.105Z" fill="#EBEBEB"/>
<path d="M414.335 366.105H424.542V327.993H414.335V366.105Z" fill="#EBEBEB"/>
<path d="M438.666 363.868L448.63 366.083L456.898 328.878L446.934 326.664L438.666 363.868Z" fill="#EBEBEB"/>
<path d="M488.215 366.105H493.319V320.03H488.215V366.105Z" fill="#EBEBEB"/>
<path d="M427.487 366.105H432.591V320.03H427.487V366.105Z" fill="#EBEBEB"/>
<path d="M514.314 364.352L524.373 366.086L531.83 322.822L521.771 321.088L514.314 364.352Z" fill="#EBEBEB"/>
<path d="M531.817 366.105H542.024V327.993H531.817V366.105Z" fill="#EBEBEB"/>
<path d="M556.157 363.873L566.121 366.087L574.39 328.883L564.426 326.668L556.157 363.873Z" fill="#EBEBEB"/>
<path d="M544.955 366.105H550.058V320.03H544.955V366.105Z" fill="#EBEBEB"/>
<path d="M613.903 183.464H580.536V467.79H613.903V183.464Z" fill="#E0E0E0"/>
<path d="M149.323 122.407C149.323 122.407 147.65 111.371 155.699 104.28C163.747 97.1896 163.047 92.9867 160.745 92.4435C158.443 91.9002 156.328 98.9766 152.782 100.921C152.782 100.921 152.668 90.8281 156.27 87.1112C159.873 83.3943 161.746 73.8162 158.329 73.6447C154.912 73.4731 154.555 79.3629 153.84 83.4801C153.125 87.5972 149.323 93.487 149.323 93.487C149.323 93.487 148.579 84.4522 146.249 80.7353C143.919 77.0185 150.123 68.5126 147.679 64.7957C145.234 61.0788 141.046 68.1695 141.389 76.1321C141.732 84.0948 147.107 92.6007 145.82 100.921C145.82 100.921 143.476 95.0739 141.374 94.5449C139.273 94.016 137.086 90.1419 135.656 88.7123C134.227 87.2827 132.468 92.2433 135.656 96.8465C138.844 101.45 146.993 113.758 145.749 123.722L149.323 122.407Z" fill="#E6E6E6"/>
<path d="M154.14 117.389L156.771 133.944C156.963 135.145 156.892 136.374 156.564 137.546C156.235 138.717 155.655 139.803 154.865 140.729C154.076 141.655 153.094 142.398 151.989 142.907C150.884 143.417 149.682 143.68 148.465 143.679H145.606C144.388 143.682 143.184 143.42 142.077 142.912C140.97 142.403 139.987 141.66 139.196 140.734C138.404 139.809 137.824 138.722 137.494 137.549C137.164 136.377 137.093 135.146 137.286 133.944L139.916 117.389H154.14Z" fill="#E6E6E6"/>
<path d="M114.227 147.153L300.699 147.153V137.575L114.227 137.575V147.153Z" fill="#E0E0E0"/>
<path d="M283.902 137.575H292.122V102.265H283.902V137.575Z" fill="#EBEBEB"/>
<path d="M244.189 137.575H252.409V102.265H244.189V137.575Z" fill="#EBEBEB"/>
<path d="M193.082 136.179L201.182 137.575L207.18 102.778L199.08 101.382L193.082 136.179Z" fill="#EBEBEB"/>
<path d="M273.723 137.575H281.943V106.911H273.723V137.575Z" fill="#EBEBEB"/>
<path d="M254.839 137.575H263.059V106.911H254.839V137.575Z" fill="#EBEBEB"/>
<path d="M207.177 137.575H215.397V106.911H207.177V137.575Z" fill="#EBEBEB"/>
<path d="M226.749 135.776L234.773 137.559L241.426 107.625L233.402 105.842L226.749 135.776Z" fill="#EBEBEB"/>
<path d="M266.633 137.561H270.736V100.492H266.633V137.561Z" fill="#EBEBEB"/>
<path d="M217.77 137.561H221.873V100.492H217.77V137.561Z" fill="#EBEBEB"/>
<path d="M300.714 209.096H114.241V218.674H300.714V209.096Z" fill="#E0E0E0"/>
<path d="M131.039 173.786H122.819V209.096H131.039V173.786Z" fill="#EBEBEB"/>
<path d="M170.766 173.786H162.546V209.096H170.766V173.786Z" fill="#EBEBEB"/>
<path d="M215.868 172.896L207.767 174.292L213.765 209.089L221.866 207.693L215.868 172.896Z" fill="#EBEBEB"/>
<path d="M141.217 178.432H132.997V209.096H141.217V178.432Z" fill="#EBEBEB"/>
<path d="M160.102 178.432H151.882V209.096H160.102V178.432Z" fill="#EBEBEB"/>
<path d="M207.763 178.432H199.543V209.096H207.763V178.432Z" fill="#EBEBEB"/>
<path d="M181.568 177.36L173.544 179.144L180.197 209.077L188.221 207.294L181.568 177.36Z" fill="#EBEBEB"/>
<path d="M148.308 172.027H144.205V209.096H148.308V172.027Z" fill="#EBEBEB"/>
<path d="M197.17 172.027H193.067V209.096H197.17V172.027Z" fill="#EBEBEB"/>
<path d="M282.815 181.148H242.788V208.781H282.815V181.148Z" fill="#EBEBEB"/>
<path d="M494.205 122.15C509.625 122.15 522.125 109.65 522.125 94.2304C522.125 78.811 509.625 66.311 494.205 66.311C478.786 66.311 466.286 78.811 466.286 94.2304C466.286 109.65 478.786 122.15 494.205 122.15Z" fill="#E0E0E0"/>
<path d="M494.205 117.975C507.319 117.975 517.95 107.344 517.95 94.2304C517.95 81.1164 507.319 70.4854 494.205 70.4854C481.091 70.4854 470.46 81.1164 470.46 94.2304C470.46 107.344 481.091 117.975 494.205 117.975Z" fill="#F0F0F0"/>
<path d="M493.09 77.9477V94.5449L482.082 88.312" fill="#F0F0F0"/>
<path d="M493.09 95.9745C492.845 95.9707 492.604 95.9069 492.39 95.7887L481.382 89.5558C481.053 89.3696 480.81 89.0604 480.709 88.6959C480.607 88.3315 480.653 87.9415 480.839 87.6116C480.931 87.4465 481.055 87.3015 481.203 87.1847C481.352 87.0679 481.522 86.9818 481.705 86.9313C481.887 86.8807 482.077 86.8668 482.265 86.8904C482.452 86.9139 482.633 86.9744 482.797 87.0683L491.66 92.0861V77.9477C491.66 77.5685 491.811 77.2049 492.079 76.9368C492.347 76.6687 492.711 76.5181 493.09 76.5181C493.469 76.5181 493.833 76.6687 494.101 76.9368C494.369 77.2049 494.52 77.5685 494.52 77.9477V94.5449C494.52 94.9241 494.369 95.2877 494.101 95.5558C493.833 95.8239 493.469 95.9745 493.09 95.9745Z" fill="#E0E0E0"/>
<path d="M357.439 533.15C510.52 533.15 634.617 525.904 634.617 516.967C634.617 508.029 510.52 500.784 357.439 500.784C204.357 500.784 80.2605 508.029 80.2605 516.967C80.2605 525.904 204.357 533.15 357.439 533.15Z" fill="#F5F5F5"/>
<path d="M604.053 104.452H319.541V373.839H604.053V104.452Z" fill="#407BFF"/>
<path opacity="0.7" d="M604.053 104.452H319.541V373.839H604.053V104.452Z" fill="white"/>
<path d="M604.053 104.452H319.541V118.161H604.053V104.452Z" fill="#407BFF"/>
<path opacity="0.2" d="M604.053 118.176H594.646V374.096H604.053V118.176Z" fill="black"/>
<path opacity="0.6" d="M599.879 124.237H599.021C597.694 124.237 596.619 125.312 596.619 126.639V157.489C596.619 158.815 597.694 159.89 599.021 159.89H599.879C601.205 159.89 602.28 158.815 602.28 157.489V126.639C602.28 125.312 601.205 124.237 599.879 124.237Z" fill="white"/>
<path opacity="0.2" d="M588.428 295.041H325.388C325.199 295.038 325.02 294.961 324.886 294.828C324.753 294.695 324.677 294.515 324.673 294.327C324.673 294.137 324.748 293.955 324.882 293.821C325.016 293.687 325.198 293.612 325.388 293.612H588.428C588.617 293.612 588.799 293.687 588.933 293.821C589.067 293.955 589.142 294.137 589.142 294.327C589.142 294.516 589.067 294.698 588.933 294.832C588.799 294.966 588.617 295.041 588.428 295.041Z" fill="black"/>
<path opacity="0.2" d="M588.428 233.57H325.388C325.199 233.566 325.02 233.49 324.886 233.357C324.753 233.223 324.677 233.044 324.673 232.855C324.673 232.666 324.748 232.484 324.882 232.35C325.016 232.216 325.198 232.141 325.388 232.141H588.428C588.617 232.141 588.799 232.216 588.933 232.35C589.067 232.484 589.142 232.666 589.142 232.855C589.142 233.045 589.067 233.227 588.933 233.361C588.799 233.495 588.617 233.57 588.428 233.57Z" fill="black"/>
<path d="M588.442 124.223H325.459V164.436H588.442V124.223Z" fill="#407BFF"/>
<path opacity="0.6" d="M600.779 111.314C600.779 111.995 600.577 112.661 600.199 113.228C599.82 113.794 599.282 114.236 598.652 114.497C598.023 114.758 597.33 114.826 596.662 114.693C595.993 114.56 595.38 114.232 594.898 113.75C594.416 113.268 594.088 112.654 593.955 111.986C593.822 111.318 593.89 110.625 594.151 109.995C594.412 109.366 594.853 108.828 595.42 108.449C595.986 108.071 596.652 107.869 597.334 107.869C598.248 107.869 599.124 108.232 599.77 108.878C600.416 109.524 600.779 110.4 600.779 111.314Z" fill="white"/>
<path opacity="0.6" d="M588.628 111.314C588.628 111.995 588.426 112.661 588.047 113.228C587.669 113.794 587.131 114.236 586.501 114.497C585.872 114.758 585.179 114.826 584.511 114.693C583.842 114.56 583.228 114.232 582.746 113.75C582.265 113.268 581.937 112.654 581.804 111.986C581.671 111.318 581.739 110.625 582 109.995C582.26 109.366 582.702 108.828 583.269 108.449C583.835 108.071 584.501 107.869 585.183 107.869C586.096 107.869 586.973 108.232 587.619 108.878C588.265 109.524 588.628 110.4 588.628 111.314Z" fill="white"/>
<path opacity="0.6" d="M576.477 111.314C576.477 111.995 576.275 112.661 575.896 113.228C575.517 113.794 574.979 114.236 574.35 114.497C573.72 114.758 573.028 114.826 572.359 114.693C571.691 114.56 571.077 114.232 570.595 113.75C570.113 113.268 569.785 112.654 569.652 111.986C569.519 111.318 569.588 110.625 569.848 109.995C570.109 109.366 570.551 108.828 571.117 108.449C571.684 108.071 572.35 107.869 573.031 107.869C573.945 107.869 574.821 108.232 575.468 108.878C576.114 109.524 576.477 110.4 576.477 111.314Z" fill="white"/>
<path opacity="0.4" d="M336.724 191.369C335.059 191.369 333.431 190.875 332.046 189.95C330.662 189.025 329.582 187.71 328.945 186.171C328.308 184.633 328.141 182.94 328.466 181.307C328.791 179.673 329.593 178.173 330.77 176.995C331.948 175.818 333.448 175.016 335.082 174.691C336.715 174.366 338.408 174.533 339.947 175.17C341.485 175.807 342.8 176.887 343.725 178.271C344.651 179.656 345.144 181.284 345.144 182.949C345.141 185.181 344.252 187.321 342.674 188.899C341.096 190.477 338.956 191.366 336.724 191.369Z" fill="black"/>
<path d="M337.754 179.747V186.137H336.324V180.934H335.052V179.747H337.754Z" fill="white"/>
<path opacity="0.4" d="M577.063 174.786H353.064C352.164 174.786 351.435 175.516 351.435 176.416V177.431C351.435 178.331 352.164 179.061 353.064 179.061H577.063C577.963 179.061 578.692 178.331 578.692 177.431V176.416C578.692 175.516 577.963 174.786 577.063 174.786Z" fill="black"/>
<path opacity="0.4" d="M577.063 185.894H353.064C352.164 185.894 351.435 186.624 351.435 187.524V188.539C351.435 189.439 352.164 190.169 353.064 190.169H577.063C577.963 190.169 578.692 189.439 578.692 188.539V187.524C578.692 186.624 577.963 185.894 577.063 185.894Z" fill="black"/>
<path opacity="0.4" d="M499.58 196.988H353.064C352.164 196.988 351.435 197.717 351.435 198.617V199.632C351.435 200.532 352.164 201.262 353.064 201.262H499.58C500.48 201.262 501.21 200.532 501.21 199.632V198.617C501.21 197.717 500.48 196.988 499.58 196.988Z" fill="black"/>
<path opacity="0.2" d="M355.352 222.191C357.507 222.191 359.254 220.443 359.254 218.288C359.254 216.133 357.507 214.385 355.352 214.385C353.196 214.385 351.449 216.133 351.449 218.288C351.449 220.443 353.196 222.191 355.352 222.191Z" fill="black"/>
<path d="M358.039 218.288C358.042 218.824 357.886 219.348 357.59 219.794C357.294 220.241 356.872 220.589 356.378 220.796C355.884 221.002 355.339 221.057 354.814 220.953C354.288 220.849 353.806 220.592 353.427 220.213C353.048 219.834 352.791 219.351 352.687 218.826C352.583 218.3 352.638 217.756 352.844 217.262C353.05 216.767 353.399 216.346 353.845 216.05C354.292 215.754 354.816 215.598 355.352 215.6C356.064 215.6 356.748 215.884 357.252 216.388C357.756 216.892 358.039 217.575 358.039 218.288Z" fill="white"/>
<path opacity="0.4" d="M405.93 216.158H368.103C367.203 216.158 366.474 216.888 366.474 217.788V218.803C366.474 219.703 367.203 220.432 368.103 220.432H405.93C406.83 220.432 407.559 219.703 407.559 218.803V217.788C407.559 216.888 406.83 216.158 405.93 216.158Z" fill="black"/>
<path opacity="0.2" d="M438.552 218.202C438.552 218.974 438.323 219.729 437.895 220.37C437.466 221.012 436.856 221.513 436.143 221.808C435.43 222.103 434.645 222.181 433.888 222.03C433.131 221.879 432.436 221.508 431.89 220.962C431.344 220.416 430.972 219.721 430.822 218.964C430.671 218.207 430.749 217.422 431.044 216.709C431.339 215.996 431.839 215.386 432.481 214.957C433.123 214.528 433.878 214.3 434.65 214.3C435.685 214.3 436.677 214.711 437.409 215.443C438.141 216.175 438.552 217.167 438.552 218.202Z" fill="black"/>
<path d="M437.351 218.202C437.354 218.737 437.198 219.261 436.903 219.707C436.608 220.153 436.187 220.502 435.693 220.709C435.2 220.915 434.656 220.971 434.131 220.868C433.606 220.766 433.123 220.509 432.744 220.132C432.365 219.755 432.106 219.273 432.001 218.749C431.895 218.224 431.948 217.681 432.152 217.186C432.356 216.691 432.702 216.269 433.147 215.971C433.592 215.674 434.115 215.515 434.649 215.515C435.364 215.515 436.049 215.797 436.555 216.301C437.061 216.805 437.348 217.488 437.351 218.202Z" fill="#407BFF"/>
<path opacity="0.4" d="M485.256 216.072H447.415C446.515 216.072 445.786 216.802 445.786 217.702V218.717C445.786 219.617 446.515 220.347 447.415 220.347H485.256C486.156 220.347 486.886 219.617 486.886 218.717V217.702C486.886 216.802 486.156 216.072 485.256 216.072Z" fill="black"/>
<path opacity="0.2" d="M517.864 218.117C517.864 218.888 517.636 219.643 517.207 220.285C516.778 220.927 516.168 221.427 515.455 221.722C514.742 222.018 513.957 222.095 513.2 221.944C512.443 221.794 511.748 221.422 511.202 220.876C510.656 220.33 510.285 219.635 510.134 218.878C509.983 218.121 510.061 217.336 510.356 216.623C510.652 215.91 511.152 215.3 511.794 214.872C512.435 214.443 513.19 214.214 513.962 214.214C514.997 214.214 515.99 214.625 516.721 215.357C517.453 216.089 517.864 217.081 517.864 218.117Z" fill="black"/>
<path d="M516.664 218.116C516.664 218.651 516.505 219.173 516.208 219.618C515.911 220.062 515.489 220.408 514.996 220.613C514.502 220.817 513.959 220.871 513.435 220.766C512.911 220.662 512.429 220.405 512.051 220.027C511.673 219.649 511.416 219.168 511.312 218.644C511.208 218.119 511.261 217.576 511.466 217.083C511.67 216.589 512.016 216.167 512.461 215.87C512.905 215.573 513.427 215.415 513.962 215.415C514.678 215.415 515.366 215.699 515.872 216.206C516.379 216.713 516.664 217.4 516.664 218.116Z" fill="white"/>
<path opacity="0.4" d="M564.554 215.972H526.728C525.828 215.972 525.098 216.702 525.098 217.602V218.617C525.098 219.517 525.828 220.247 526.728 220.247H564.554C565.454 220.247 566.184 219.517 566.184 218.617V217.602C566.184 216.702 565.454 215.972 564.554 215.972Z" fill="black"/>
<path opacity="0.4" d="M336.724 262.59C341.375 262.59 345.144 258.82 345.144 254.17C345.144 249.52 341.375 245.75 336.724 245.75C332.074 245.75 328.304 249.52 328.304 254.17C328.304 258.82 332.074 262.59 336.724 262.59Z" fill="black"/>
<path d="M339.155 256.214V257.415H334.337V256.443L336.796 254.113C337.368 253.57 337.468 253.241 337.468 252.941C337.468 252.64 337.125 252.14 336.438 252.14C336.183 252.131 335.93 252.186 335.701 252.298C335.471 252.41 335.273 252.577 335.123 252.783L334.051 252.083C334.343 251.693 334.727 251.381 335.168 251.174C335.609 250.967 336.095 250.872 336.581 250.896C338.011 250.896 338.954 251.625 338.954 252.783C338.946 253.18 338.845 253.569 338.659 253.919C338.472 254.269 338.206 254.571 337.882 254.799L336.453 256.229L339.155 256.214Z" fill="white"/>
<path opacity="0.4" d="M577.063 246.05H353.064C352.164 246.05 351.435 246.78 351.435 247.68V248.695C351.435 249.595 352.164 250.325 353.064 250.325H577.063C577.963 250.325 578.692 249.595 578.692 248.695V247.68C578.692 246.78 577.963 246.05 577.063 246.05Z" fill="black"/>
<path opacity="0.4" d="M395.637 257.144H353.064C352.164 257.144 351.435 257.873 351.435 258.773V259.788C351.435 260.688 352.164 261.418 353.064 261.418H395.637C396.537 261.418 397.266 260.688 397.266 259.788V258.773C397.266 257.873 396.537 257.144 395.637 257.144Z" fill="black"/>
<path opacity="0.2" d="M355.352 282.175C357.507 282.175 359.254 280.428 359.254 278.273C359.254 276.117 357.507 274.37 355.352 274.37C353.196 274.37 351.449 276.117 351.449 278.273C351.449 280.428 353.196 282.175 355.352 282.175Z" fill="black"/>
<path d="M355.352 280.974C356.844 280.974 358.053 279.765 358.053 278.273C358.053 276.78 356.844 275.571 355.352 275.571C353.859 275.571 352.65 276.78 352.65 278.273C352.65 279.765 353.859 280.974 355.352 280.974Z" fill="white"/>
<path opacity="0.4" d="M405.93 276.143H368.103C367.203 276.143 366.474 276.872 366.474 277.772V278.787C366.474 279.687 367.203 280.417 368.103 280.417H405.93C406.83 280.417 407.559 279.687 407.559 278.787V277.772C407.559 276.872 406.83 276.143 405.93 276.143Z" fill="black"/>
<path opacity="0.2" d="M434.65 282.089C436.805 282.089 438.552 280.342 438.552 278.187C438.552 276.031 436.805 274.284 434.65 274.284C432.494 274.284 430.747 276.031 430.747 278.187C430.747 280.342 432.494 282.089 434.65 282.089Z" fill="black"/>
<path d="M434.65 280.889C436.142 280.889 437.351 279.679 437.351 278.187C437.351 276.695 436.142 275.485 434.65 275.485C433.157 275.485 431.948 276.695 431.948 278.187C431.948 279.679 433.157 280.889 434.65 280.889Z" fill="white"/>
<path opacity="0.4" d="M485.256 276.042H447.415C446.515 276.042 445.786 276.772 445.786 277.672V278.687C445.786 279.587 446.515 280.317 447.415 280.317H485.256C486.156 280.317 486.886 279.587 486.886 278.687V277.672C486.886 276.772 486.156 276.042 485.256 276.042Z" fill="black"/>
<path opacity="0.2" d="M517.864 278.101C517.864 278.873 517.636 279.627 517.207 280.269C516.778 280.911 516.168 281.411 515.455 281.707C514.742 282.002 513.957 282.079 513.2 281.929C512.443 281.778 511.748 281.406 511.202 280.861C510.656 280.315 510.285 279.619 510.134 278.862C509.983 278.105 510.061 277.321 510.356 276.608C510.652 275.894 511.152 275.285 511.794 274.856C512.435 274.427 513.19 274.198 513.962 274.198C514.997 274.198 515.99 274.609 516.721 275.341C517.453 276.073 517.864 277.066 517.864 278.101Z" fill="black"/>
<path d="M516.664 278.101C516.664 278.635 516.505 279.158 516.208 279.602C515.911 280.046 515.489 280.393 514.996 280.597C514.502 280.802 513.959 280.855 513.435 280.751C512.911 280.647 512.429 280.389 512.051 280.012C511.673 279.634 511.416 279.152 511.312 278.628C511.208 278.104 511.261 277.561 511.466 277.067C511.67 276.573 512.016 276.151 512.461 275.855C512.905 275.558 513.427 275.399 513.962 275.399C514.678 275.399 515.366 275.684 515.872 276.191C516.379 276.697 516.664 277.384 516.664 278.101Z" fill="#407BFF"/>
<path opacity="0.4" d="M564.554 275.957H526.728C525.828 275.957 525.098 276.686 525.098 277.586V278.601C525.098 279.501 525.828 280.231 526.728 280.231H564.554C565.454 280.231 566.184 279.501 566.184 278.601V277.586C566.184 276.686 565.454 275.957 564.554 275.957Z" fill="black"/>
<path opacity="0.4" d="M336.724 324.433C335.059 324.433 333.431 323.939 332.046 323.014C330.662 322.089 329.582 320.774 328.945 319.235C328.308 317.697 328.141 316.004 328.466 314.37C328.791 312.737 329.593 311.237 330.77 310.059C331.948 308.881 333.448 308.08 335.082 307.755C336.715 307.43 338.408 307.597 339.947 308.234C341.485 308.871 342.8 309.95 343.725 311.335C344.651 312.72 345.144 314.348 345.144 316.013C345.144 318.246 344.257 320.388 342.678 321.967C341.099 323.546 338.957 324.433 336.724 324.433Z" fill="black"/>
<path d="M339.097 317.2C339.097 318.272 338.268 319.258 336.453 319.258C335.592 319.279 334.745 319.039 334.022 318.572L334.594 317.443C335.126 317.816 335.76 318.016 336.41 318.015C337.153 318.015 337.611 317.714 337.611 317.2C337.611 316.685 337.253 316.413 336.41 316.413H335.738V315.441L337.053 314.012H334.337V312.825H338.854V313.783L337.425 315.427C337.875 315.459 338.297 315.659 338.606 315.987C338.916 316.316 339.091 316.748 339.097 317.2Z" fill="white"/>
<path opacity="0.4" d="M577.063 307.836H353.064C352.164 307.836 351.435 308.566 351.435 309.466V310.481C351.435 311.381 352.164 312.11 353.064 312.11H577.063C577.963 312.11 578.692 311.381 578.692 310.481V309.466C578.692 308.566 577.963 307.836 577.063 307.836Z" fill="black"/>
<path opacity="0.4" d="M577.063 318.929H353.064C352.164 318.929 351.435 319.659 351.435 320.559V321.574C351.435 322.474 352.164 323.204 353.064 323.204H577.063C577.963 323.204 578.692 322.474 578.692 321.574V320.559C578.692 319.659 577.963 318.929 577.063 318.929Z" fill="black"/>
<path opacity="0.4" d="M465.271 330.037H353.064C352.164 330.037 351.435 330.767 351.435 331.667V332.682C351.435 333.582 352.164 334.311 353.064 334.311H465.271C466.171 334.311 466.9 333.582 466.9 332.682V331.667C466.9 330.767 466.171 330.037 465.271 330.037Z" fill="black"/>
<path opacity="0.4" d="M437.98 347.707H431.319C431.003 347.707 430.747 347.963 430.747 348.278V354.94C430.747 355.256 431.003 355.512 431.319 355.512H437.98C438.296 355.512 438.552 355.256 438.552 354.94V348.278C438.552 347.963 438.296 347.707 437.98 347.707Z" fill="black"/>
<path d="M437.623 354.583V348.65H431.69V354.583H437.623Z" fill="white"/>
<path opacity="0.4" d="M485.256 349.479H447.415C446.515 349.479 445.786 350.209 445.786 351.109V352.124C445.786 353.024 446.515 353.754 447.415 353.754H485.256C486.156 353.754 486.886 353.024 486.886 352.124V351.109C486.886 350.209 486.156 349.479 485.256 349.479Z" fill="black"/>
<path d="M434.335 353.325C434.29 353.326 434.245 353.317 434.203 353.3C434.161 353.283 434.123 353.257 434.092 353.225L432.662 351.881C432.596 351.812 432.559 351.719 432.559 351.623C432.559 351.528 432.596 351.435 432.662 351.366C432.696 351.332 432.736 351.304 432.78 351.285C432.824 351.266 432.872 351.257 432.92 351.257C432.968 351.257 433.015 351.266 433.06 351.285C433.104 351.304 433.144 351.332 433.177 351.366L434.392 352.467L436.465 350.008C436.526 349.934 436.613 349.887 436.708 349.878C436.804 349.869 436.899 349.897 436.973 349.958C437.047 350.019 437.093 350.106 437.103 350.201C437.112 350.297 437.083 350.392 437.023 350.466L434.635 353.196C434.572 353.266 434.486 353.312 434.392 353.325H434.335Z" fill="#407BFF"/>
<path opacity="0.4" d="M517.293 347.621H510.631C510.315 347.621 510.059 347.877 510.059 348.193V354.854C510.059 355.17 510.315 355.426 510.631 355.426H517.293C517.608 355.426 517.864 355.17 517.864 354.854V348.193C517.864 347.877 517.608 347.621 517.293 347.621Z" fill="black"/>
<path d="M516.921 354.497V348.564H510.988V354.497H516.921Z" fill="white"/>
<path opacity="0.4" d="M564.554 349.379H526.728C525.828 349.379 525.098 350.109 525.098 351.009V352.024C525.098 352.924 525.828 353.654 526.728 353.654H564.554C565.454 353.654 566.184 352.924 566.184 352.024V351.009C566.184 350.109 565.454 349.379 564.554 349.379Z" fill="black"/>
<path d="M513.647 353.239C513.557 353.234 513.472 353.199 513.404 353.139L511.975 351.781C511.933 351.751 511.898 351.713 511.872 351.669C511.847 351.624 511.831 351.575 511.826 351.524C511.821 351.474 511.827 351.422 511.843 351.374C511.86 351.325 511.887 351.281 511.922 351.244C511.957 351.207 512 351.178 512.047 351.158C512.094 351.139 512.145 351.13 512.196 351.132C512.247 351.134 512.297 351.147 512.343 351.171C512.389 351.194 512.429 351.226 512.461 351.266L513.661 352.367L515.749 349.908C515.777 349.866 515.813 349.831 515.855 349.804C515.898 349.777 515.946 349.759 515.996 349.752C516.045 349.745 516.096 349.748 516.145 349.762C516.193 349.776 516.238 349.8 516.277 349.832C516.315 349.865 516.346 349.905 516.368 349.95C516.39 349.996 516.402 350.045 516.404 350.096C516.405 350.146 516.396 350.196 516.377 350.242C516.357 350.289 516.328 350.331 516.292 350.365L513.976 353.11C513.907 353.181 513.816 353.226 513.719 353.239H513.647Z" fill="#407BFF"/>
<path opacity="0.4" d="M358.668 347.792H352.006C351.691 347.792 351.435 348.048 351.435 348.364V355.026C351.435 355.342 351.691 355.598 352.006 355.598H358.668C358.984 355.598 359.24 355.342 359.24 355.026V348.364C359.24 348.048 358.984 347.792 358.668 347.792Z" fill="black"/>
<path d="M358.311 354.669V348.736H352.378V354.669H358.311Z" fill="white"/>
<path opacity="0.4" d="M405.93 349.565H368.103C367.203 349.565 366.474 350.295 366.474 351.195V352.21C366.474 353.11 367.203 353.839 368.103 353.839H405.93C406.83 353.839 407.559 353.11 407.559 352.21V351.195C407.559 350.295 406.83 349.565 405.93 349.565Z" fill="black"/>
<path d="M338.068 143.05C338.005 141.955 338.272 140.867 338.835 139.926C339.398 138.985 340.23 138.234 341.224 137.772C342.218 137.309 343.329 137.155 344.411 137.331C345.493 137.506 346.498 138.003 347.295 138.756C348.092 139.509 348.644 140.484 348.881 141.555C349.117 142.626 349.027 143.743 348.621 144.762C348.215 145.78 347.513 146.654 346.605 147.269C345.697 147.884 344.626 148.212 343.529 148.211C342.827 148.252 342.123 148.149 341.462 147.908C340.801 147.667 340.196 147.293 339.684 146.81C339.173 146.326 338.766 145.743 338.488 145.097C338.21 144.45 338.067 143.754 338.068 143.05ZM346.646 143.05C346.634 142.433 346.441 141.834 346.09 141.327C345.74 140.819 345.247 140.427 344.674 140.199C344.101 139.97 343.473 139.917 342.87 140.044C342.266 140.171 341.714 140.474 341.282 140.914C340.849 141.354 340.557 141.911 340.441 142.517C340.324 143.123 340.39 143.749 340.628 144.318C340.867 144.887 341.268 145.373 341.782 145.714C342.295 146.056 342.898 146.238 343.515 146.238C343.935 146.25 344.353 146.176 344.743 146.019C345.133 145.863 345.486 145.628 345.781 145.329C346.076 145.029 346.307 144.673 346.458 144.281C346.609 143.889 346.678 143.47 346.66 143.05H346.646Z" fill="white"/>
<path d="M358.411 143.651V148.039H356.195V143.994C356.195 142.75 355.623 142.178 354.637 142.178C353.65 142.178 352.793 142.836 352.793 144.251V148.039H350.577V140.363H352.693V141.263C353.022 140.925 353.419 140.661 353.857 140.486C354.296 140.311 354.766 140.23 355.237 140.248C355.682 140.219 356.127 140.288 356.541 140.452C356.955 140.616 357.328 140.87 357.632 141.196C357.936 141.522 358.163 141.911 358.298 142.335C358.433 142.76 358.471 143.209 358.411 143.651Z" fill="white"/>
<path d="M360.427 137.461H362.642V148.039H360.427V137.461Z" fill="white"/>
<path d="M364.444 138.061C364.446 137.882 364.487 137.706 364.562 137.544C364.637 137.382 364.746 137.237 364.881 137.12C365.016 137.002 365.174 136.915 365.345 136.863C365.516 136.811 365.696 136.795 365.873 136.817C366.048 136.791 366.226 136.802 366.396 136.85C366.566 136.897 366.724 136.981 366.859 137.095C366.995 137.208 367.104 137.349 367.181 137.509C367.257 137.668 367.299 137.841 367.303 138.018C367.22 138.321 367.041 138.588 366.791 138.779C366.542 138.969 366.237 139.073 365.923 139.073C365.609 139.073 365.304 138.969 365.055 138.779C364.806 138.588 364.626 138.321 364.544 138.018L364.444 138.061ZM364.715 140.362H366.945V148.039H364.715V140.362Z" fill="white"/>
<path d="M376.852 143.65V148.039H374.594V143.994C374.594 142.75 374.022 142.178 373.035 142.178C372.049 142.178 371.205 142.836 371.205 144.251V148.039H368.975V140.362H371.105V141.263C371.432 140.925 371.826 140.66 372.262 140.485C372.698 140.31 373.166 140.229 373.636 140.248C374.083 140.214 374.532 140.281 374.95 140.443C375.369 140.605 375.746 140.858 376.054 141.184C376.362 141.51 376.593 141.9 376.731 142.327C376.87 142.754 376.911 143.206 376.852 143.65Z" fill="white"/>
<path d="M386.416 144.837H380.612C380.73 145.313 381.017 145.731 381.419 146.012C381.821 146.293 382.311 146.419 382.799 146.367C383.153 146.38 383.506 146.322 383.838 146.197C384.169 146.072 384.472 145.882 384.729 145.638L385.916 146.91C385.51 147.336 385.015 147.669 384.467 147.884C383.918 148.099 383.33 148.191 382.742 148.154C382.19 148.207 381.634 148.145 381.107 147.972C380.581 147.798 380.096 147.517 379.685 147.146C379.273 146.774 378.943 146.321 378.717 145.816C378.49 145.31 378.371 144.762 378.368 144.208C378.361 143.674 378.464 143.144 378.67 142.652C378.875 142.159 379.18 141.713 379.564 141.342C379.948 140.971 380.404 140.683 380.904 140.495C381.404 140.307 381.937 140.223 382.47 140.248C383.001 140.221 383.532 140.306 384.028 140.497C384.524 140.688 384.974 140.981 385.35 141.357C385.726 141.733 386.019 142.183 386.21 142.679C386.401 143.175 386.486 143.706 386.459 144.237C386.459 144.408 386.43 144.651 386.416 144.837ZM380.583 143.536H384.357C384.28 143.092 384.048 142.689 383.703 142.399C383.358 142.109 382.921 141.95 382.47 141.95C382.02 141.95 381.583 142.109 381.238 142.399C380.893 142.689 380.661 143.092 380.583 143.536Z" fill="white"/>
<path d="M394.193 139.934H391.005V138.061H399.697V139.934H396.509V148.039H394.193V139.934Z" fill="white"/>
<path d="M407.474 144.837H401.67C401.788 145.313 402.074 145.731 402.476 146.012C402.878 146.293 403.369 146.419 403.857 146.367C404.211 146.38 404.564 146.322 404.895 146.197C405.227 146.072 405.53 145.882 405.787 145.638L406.973 146.91C406.567 147.336 406.073 147.669 405.524 147.884C404.976 148.099 404.387 148.191 403.8 148.154C403.248 148.207 402.691 148.145 402.165 147.972C401.638 147.798 401.154 147.517 400.742 147.146C400.331 146.774 400.001 146.321 399.774 145.816C399.547 145.31 399.428 144.762 399.425 144.208C399.419 143.675 399.521 143.147 399.726 142.655C399.931 142.163 400.234 141.718 400.617 141.348C400.999 140.977 401.454 140.688 401.952 140.499C402.45 140.31 402.981 140.225 403.514 140.248C404.046 140.219 404.578 140.303 405.075 140.493C405.573 140.683 406.025 140.976 406.403 141.352C406.78 141.728 407.074 142.179 407.266 142.676C407.458 143.173 407.543 143.705 407.516 144.237C407.474 144.408 407.474 144.651 407.474 144.837ZM401.641 143.536H405.415C405.337 143.092 405.106 142.689 404.76 142.399C404.415 142.109 403.979 141.95 403.528 141.95C403.077 141.95 402.641 142.109 402.295 142.399C401.95 142.689 401.719 143.092 401.641 143.536Z" fill="white"/>
<path d="M408.245 147.325L408.989 145.738C409.801 146.209 410.723 146.46 411.662 146.467C412.691 146.467 413.092 146.195 413.092 145.781C413.092 144.523 408.446 145.781 408.446 142.736C408.446 141.306 409.761 140.248 412.005 140.248C413.027 140.228 414.038 140.459 414.95 140.92L414.207 142.507C413.538 142.122 412.777 141.924 412.005 141.935C411.005 141.935 410.576 142.25 410.576 142.65C410.576 143.965 415.207 142.65 415.207 145.723C415.207 147.153 413.878 148.154 411.591 148.154C410.422 148.178 409.268 147.892 408.245 147.325Z" fill="white"/>
<path d="M421.512 147.668C420.969 148.008 420.337 148.178 419.696 148.154C419.318 148.208 418.933 148.175 418.569 148.058C418.206 147.941 417.873 147.742 417.598 147.478C417.322 147.213 417.111 146.89 416.979 146.531C416.847 146.173 416.799 145.789 416.837 145.409V142.25H415.651V140.534H416.837V138.676H419.053V140.534H420.969V142.25H419.053V145.38C419.035 145.512 419.048 145.646 419.089 145.773C419.13 145.899 419.199 146.015 419.291 146.111C419.383 146.207 419.496 146.281 419.62 146.328C419.745 146.375 419.878 146.393 420.011 146.381C420.334 146.385 420.65 146.285 420.911 146.095L421.512 147.668Z" fill="white"/>
<path d="M573.138 152.506C577.566 148.079 577.566 140.901 573.138 136.474C568.711 132.047 561.533 132.047 557.106 136.474C552.679 140.901 552.679 148.079 557.106 152.506C561.533 156.933 568.711 156.933 573.138 152.506Z" fill="white"/>
<path opacity="0.2" d="M575.161 139.219L565.154 144.508V133.172C567.214 133.175 569.235 133.74 570.998 134.806C572.761 135.871 574.2 137.397 575.161 139.219Z" fill="black"/>
<path d="M543.84 493.436C543.84 493.436 550.015 464.23 538.765 448.419C527.514 432.608 548.929 448.233 551.402 463.044C551.402 463.044 555.09 436.568 544.168 417.955C533.247 399.342 553.675 414.61 555.419 433.809C555.419 433.809 558.764 410.193 553.746 396.912C548.729 383.631 557.449 392.18 560.809 400.5C564.168 408.82 559.765 429.42 559.765 429.42C559.765 429.42 568.514 391.323 576.805 394.353C585.097 397.384 564.411 422.344 561.552 435.325C561.552 435.325 571.316 417.855 578.707 421.501C586.098 425.146 567.27 426.947 558.578 452.951L555.562 465.16C555.562 465.16 564.554 447.919 570.429 453.366C576.305 458.812 553.003 468.19 547.556 494.323L543.84 493.436Z" fill="#263238"/>
<path d="M545.055 495.18C545.055 495.18 546.341 458.369 564.54 442.787C582.738 427.205 552.417 439.542 545.055 456.539C545.055 456.539 548.514 423.731 567.127 404.675C585.74 385.619 556.734 397.856 548.943 420.314C548.943 420.314 551.974 391.037 561.938 376.641C571.902 362.245 558.907 369.85 552.417 378.814C545.927 387.777 545.055 413.695 545.055 413.695C545.055 413.695 545.912 365.462 535.048 366.634C524.183 367.806 541.538 403.803 541.109 420.243C541.109 420.243 534.605 396.412 524.655 398.556C514.705 400.7 536.778 408.563 539.379 442.272V457.812C539.379 457.812 533.747 434.481 525.084 439.227C516.421 443.973 541.538 462.186 540.237 495.095L545.055 495.18Z" fill="#263238"/>
<path opacity="0.2" d="M545.055 495.18C545.055 495.18 546.341 458.369 564.54 442.787C582.738 427.205 552.417 439.542 545.055 456.539C545.055 456.539 548.514 423.731 567.127 404.675C585.74 385.619 556.734 397.856 548.943 420.314C548.943 420.314 551.974 391.037 561.938 376.641C571.902 362.245 558.907 369.85 552.417 378.814C545.927 387.777 545.055 413.695 545.055 413.695C545.055 413.695 545.912 365.462 535.048 366.634C524.183 367.806 541.538 403.803 541.109 420.243C541.109 420.243 534.605 396.412 524.655 398.556C514.705 400.7 536.778 408.563 539.379 442.272V457.812C539.379 457.812 533.747 434.481 525.084 439.227C516.421 443.973 541.538 462.186 540.237 495.095L545.055 495.18Z" fill="white"/>
<path d="M554.032 521.041H531.988C527.818 521.041 523.818 519.384 520.869 516.435C517.92 513.486 516.263 509.487 516.263 505.316V502.357H569.743V505.316C569.743 509.484 568.088 513.482 565.143 516.43C562.197 519.379 558.2 521.037 554.032 521.041Z" fill="#407BFF"/>
<path d="M515.291 508.29H570.73C574.054 508.29 576.748 505.595 576.748 502.271V497.582C576.748 494.258 574.054 491.564 570.73 491.564H515.291C511.967 491.564 509.273 494.258 509.273 497.582V502.271C509.273 505.595 511.967 508.29 515.291 508.29Z" fill="#407BFF"/>
<path opacity="0.2" d="M515.291 508.29H570.73C574.054 508.29 576.748 505.595 576.748 502.271V497.582C576.748 494.258 574.054 491.564 570.73 491.564H515.291C511.967 491.564 509.273 494.258 509.273 497.582V502.271C509.273 505.595 511.967 508.29 515.291 508.29Z" fill="white"/>
<path d="M245.518 320.016C245.318 320.429 245.232 320.888 245.268 321.345C245.304 321.803 245.461 322.242 245.723 322.619C245.985 322.996 246.342 323.296 246.758 323.489C247.174 323.683 247.634 323.762 248.091 323.718H315.795C316.921 323.664 318.007 323.286 318.922 322.629C319.838 321.972 320.544 321.065 320.956 320.016L335.252 278.701C335.394 278.317 335.467 277.91 335.466 277.501C335.464 277.148 335.388 276.8 335.243 276.478C335.099 276.156 334.888 275.868 334.626 275.633C334.363 275.397 334.055 275.219 333.719 275.11C333.384 275.001 333.029 274.963 332.679 274.999H265.017C263.892 275.053 262.806 275.431 261.89 276.088C260.975 276.745 260.269 277.653 259.857 278.701L245.518 320.016Z" fill="#263238"/>
<path d="M316.31 321.646C316.862 321.62 317.395 321.435 317.844 321.113C318.293 320.79 318.639 320.345 318.84 319.83L333.136 278.516C333.196 278.351 333.225 278.176 333.222 278.001C333.222 277.429 332.807 277.072 332.15 277.072H264.517C263.965 277.097 263.432 277.283 262.983 277.605C262.534 277.927 262.188 278.372 261.987 278.887L247.691 320.202C247.618 320.369 247.586 320.551 247.599 320.732C247.611 320.914 247.667 321.09 247.762 321.245C247.869 321.383 248.009 321.492 248.169 321.562C248.329 321.632 248.504 321.661 248.677 321.646H316.31Z" fill="#407BFF"/>
<path opacity="0.8" d="M316.31 321.646C316.862 321.62 317.395 321.435 317.844 321.113C318.293 320.79 318.639 320.345 318.84 319.83L333.136 278.516C333.196 278.351 333.225 278.176 333.222 278.001C333.222 277.429 332.807 277.072 332.15 277.072H264.517C263.965 277.097 263.432 277.283 262.983 277.605C262.534 277.927 262.188 278.372 261.987 278.887L247.691 320.202C247.618 320.369 247.586 320.551 247.599 320.732C247.611 320.914 247.667 321.09 247.762 321.245C247.869 321.383 248.009 321.492 248.169 321.562C248.329 321.632 248.504 321.661 248.677 321.646H316.31Z" fill="white"/>
<path d="M216.541 320.659V322.56L229.95 326.006H315.481C316.114 326.006 316.721 325.754 317.169 325.306C317.617 324.859 317.868 324.252 317.868 323.618V320.659H216.541Z" fill="#263238"/>
<path opacity="0.2" d="M288.105 320.659V322.56L301.528 326.006H229.95L216.541 322.56V320.659H288.105Z" fill="white"/>
<g opacity="0.2">
<path d="M328.876 286.778H260.443L263.102 279.316H331.535L328.876 286.778Z" fill="#407BFF"/>
</g>
<g opacity="0.1">
<path d="M325.445 296.385H257.012C256.812 296.385 256.712 296.228 256.783 296.014C256.822 295.913 256.888 295.825 256.974 295.759C257.059 295.694 257.162 295.653 257.269 295.642H325.717C325.902 295.642 326.003 295.813 325.931 296.014C325.897 296.117 325.832 296.208 325.745 296.274C325.659 296.341 325.554 296.379 325.445 296.385Z" fill="black"/>
</g>
<g opacity="0.1">
<path d="M321.7 306.864H253.266C253.066 306.864 252.966 306.692 253.038 306.492C253.078 306.389 253.146 306.3 253.234 306.234C253.323 306.169 253.428 306.129 253.538 306.12H321.971C322.171 306.12 322.271 306.278 322.2 306.492C322.16 306.595 322.092 306.684 322.003 306.75C321.915 306.816 321.809 306.855 321.7 306.864Z" fill="black"/>
</g>
<g opacity="0.1">
<path d="M317.968 317.343H249.535C249.335 317.343 249.235 317.171 249.306 316.971C249.34 316.866 249.404 316.773 249.491 316.704C249.577 316.635 249.682 316.594 249.792 316.585H318.226C318.426 316.585 318.526 316.756 318.454 316.971C318.417 317.073 318.351 317.161 318.265 317.227C318.179 317.293 318.076 317.333 317.968 317.343Z" fill="black"/>
</g>
<path d="M295.21 520.87H302.658L316.053 334.397H306.16L295.21 520.87Z" fill="#263238"/>
<path opacity="0.2" d="M295.195 520.87H302.658L315.395 343.661L316.053 334.698H306.16L305.631 343.661L295.195 520.87Z" fill="white"/>
<path opacity="0.2" d="M305.631 343.218H315.395L316.053 334.698H306.16L305.631 343.218Z" fill="black"/>
<path d="M240.5 520.87H247.948L249.163 334.397H239.285L240.5 520.87Z" fill="#263238"/>
<path opacity="0.3" d="M239.271 334.698L239.471 364.776L240.486 520.87H247.948L248.978 364.776L249.163 334.698H239.271Z" fill="white"/>
<path opacity="0.2" d="M239.271 334.698L239.471 365.119H248.978L249.163 334.698H239.271Z" fill="black"/>
<path d="M161.36 520.87H168.808L182.203 334.397H172.31L161.36 520.87Z" fill="#263238"/>
<path opacity="0.3" d="M161.36 520.87H168.808L181.559 343.661L182.203 334.698H172.31L171.781 343.661L161.36 520.87Z" fill="white"/>
<path opacity="0.2" d="M171.781 343.218H181.559L182.203 334.698H172.31L171.781 343.218Z" fill="black"/>
<path d="M380.483 520.87H387.931L376.981 334.397H367.088L380.483 520.87Z" fill="#263238"/>
<path opacity="0.3" d="M367.088 334.698L367.746 343.661L380.483 520.87H387.931L377.51 343.661L376.981 334.698H367.088Z" fill="white"/>
<path opacity="0.2" d="M376.981 334.698H367.088L367.746 343.218H377.51L376.981 334.698Z" fill="black"/>
<path d="M381.727 339.072H167.55C167.144 339.072 166.743 338.992 166.368 338.837C165.993 338.682 165.653 338.454 165.366 338.168C165.079 337.881 164.852 337.54 164.697 337.166C164.542 336.791 164.462 336.39 164.462 335.984V329.737H384.843V335.984C384.843 336.392 384.763 336.796 384.606 337.172C384.449 337.549 384.219 337.891 383.929 338.178C383.639 338.465 383.295 338.692 382.917 338.845C382.539 338.999 382.135 339.076 381.727 339.072Z" fill="#407BFF"/>
<path opacity="0.2" d="M164.476 334.397H384.815V329.723H164.476V334.397Z" fill="black"/>
<path d="M159.859 330.938H389.432C390.13 330.938 390.799 330.661 391.292 330.167C391.786 329.674 392.063 329.005 392.063 328.307C392.063 327.61 391.786 326.941 391.292 326.447C390.799 325.954 390.13 325.677 389.432 325.677H159.859C159.161 325.677 158.492 325.954 157.999 326.447C157.505 326.941 157.228 327.61 157.228 328.307C157.228 329.005 157.505 329.674 157.999 330.167C158.492 330.661 159.161 330.938 159.859 330.938Z" fill="#407BFF"/>
<path d="M382.099 319.058C382.199 321.328 381.784 323.591 380.883 325.677H328.576V324.433H329.634V313.626H328.576V312.382H380.883C381.779 314.49 382.194 316.77 382.099 319.058Z" fill="#263238"/>
<path opacity="0.2" d="M382.099 319.058C382.199 321.328 381.784 323.591 380.883 325.677H328.576V324.433H329.634V313.626H328.576V312.382H380.883C381.779 314.49 382.194 316.77 382.099 319.058Z" fill="white"/>
<path opacity="0.2" d="M354.108 319.058C354.208 321.328 353.793 323.591 352.893 325.677H328.59V324.433H329.648V313.626H328.59V312.382H352.893C353.788 314.49 354.203 316.77 354.108 319.058Z" fill="black"/>
<path opacity="0.8" d="M351.535 319.058C351.617 320.901 351.28 322.739 350.548 324.433H329.634V313.626H350.548C351.274 315.341 351.611 317.197 351.535 319.058Z" fill="white"/>
<path opacity="0.6" d="M373.578 319.058C373.679 321.328 373.264 323.591 372.363 325.677H362.628C363.528 323.591 363.944 321.328 363.843 319.058C363.932 316.784 363.517 314.519 362.628 312.425H372.363C373.252 314.519 373.667 316.784 373.578 319.058Z" fill="white"/>
<path d="M386.759 305.806C386.86 308.076 386.444 310.339 385.544 312.425H333.236V311.181H334.294V300.417H333.236V299.173H385.544C386.43 301.268 386.845 303.533 386.759 305.806Z" fill="#407BFF"/>
<path opacity="0.2" d="M358.768 305.806C358.869 308.076 358.453 310.339 357.553 312.425H333.25V311.181H334.308V300.417H333.25V299.173H357.553C358.439 301.268 358.854 303.533 358.768 305.806Z" fill="black"/>
<path opacity="0.8" d="M356.195 305.806C356.277 307.649 355.94 309.487 355.208 311.181H334.294V300.417H355.208C355.928 302.119 356.265 303.959 356.195 305.806Z" fill="white"/>
<path opacity="0.2" d="M378.239 305.806C378.339 308.076 377.924 310.339 377.024 312.425H367.288C368.189 310.339 368.604 308.076 368.503 305.806C368.589 303.533 368.174 301.268 367.288 299.173H377.024C377.91 301.268 378.325 303.533 378.239 305.806Z" fill="black"/>
<path d="M211.266 488.99L206.663 510.291L195.755 510.105L200.315 488.99H211.266Z" fill="#EBB376"/>
<path opacity="0.2" d="M211.28 488.99L208.993 499.526L198.185 498.797L200.315 488.99H211.28Z" fill="black"/>
<path d="M208.307 509.748H208.535C208.535 509.748 208.778 509.833 208.807 509.862C208.82 509.868 208.835 509.872 208.85 509.872C208.865 509.872 208.879 509.868 208.893 509.862C209.821 510.16 210.78 510.352 211.752 510.434C212.47 510.566 213.212 510.417 213.825 510.019C214.026 509.848 214.172 509.62 214.243 509.366C214.314 509.111 214.308 508.841 214.225 508.59C214.205 508.426 214.145 508.27 214.05 508.136C213.955 508.001 213.829 507.892 213.682 507.818C212.637 507.645 211.566 507.842 210.651 508.375C211.298 507.704 211.679 506.82 211.723 505.888C211.683 505.668 211.572 505.468 211.406 505.318C211.241 505.168 211.031 505.077 210.808 505.059C210.597 505.021 210.38 505.027 210.171 505.076C209.962 505.125 209.765 505.217 209.593 505.345C208.45 506.331 208.264 509.419 208.264 509.633L208.307 509.748ZM209.479 509.119L209.264 509.247C209.196 508.067 209.517 506.896 210.179 505.917C210.253 505.846 210.341 505.792 210.437 505.757C210.533 505.723 210.635 505.709 210.737 505.716H210.865C211.223 505.716 211.309 505.959 211.309 506.117C211.075 507.303 210.426 508.367 209.479 509.119ZM209.636 509.662C210.951 508.933 212.824 508.147 213.524 508.461C213.595 508.497 213.656 508.549 213.701 508.614C213.746 508.679 213.773 508.754 213.782 508.833C213.821 508.991 213.82 509.157 213.777 509.315C213.735 509.472 213.653 509.616 213.539 509.733C213.053 510.191 211.623 510.162 209.636 509.662Z" fill="#407BFF"/>
<path d="M208.049 508.418L195.826 507.661C195.725 507.649 195.622 507.657 195.524 507.685C195.426 507.713 195.334 507.761 195.254 507.824C195.174 507.888 195.108 507.967 195.059 508.057C195.01 508.147 194.979 508.245 194.969 508.347L193.768 517.996C193.74 518.503 193.912 519 194.245 519.382C194.579 519.764 195.049 520 195.555 520.041C199.844 520.226 201.874 520.112 207.249 520.398C212.025 520.906 216.83 521.078 221.63 520.913C226.19 520.469 225.633 515.966 223.66 515.752C219 515.223 212.824 511.792 209.893 509.19C209.381 508.736 208.732 508.465 208.049 508.418Z" fill="#263238"/>
<path d="M275.124 488.99L270.521 510.291L259.599 510.105L264.174 488.99H275.124Z" fill="#EBB376"/>
<path opacity="0.2" d="M275.124 488.99L272.837 499.526L262.03 498.797L264.16 488.99H275.124Z" fill="black"/>
<path d="M272.151 509.748H272.38C272.38 509.748 272.623 509.833 272.666 509.862C272.679 509.868 272.694 509.872 272.708 509.872C272.723 509.872 272.738 509.868 272.751 509.862C273.68 510.159 274.639 510.351 275.61 510.434C276.334 510.569 277.081 510.421 277.698 510.019C277.896 509.846 278.039 509.618 278.108 509.363C278.177 509.109 278.168 508.839 278.084 508.59C278.067 508.425 278.009 508.267 277.914 508.132C277.818 507.997 277.69 507.889 277.54 507.818C276.496 507.645 275.424 507.842 274.51 508.375C275.155 507.701 275.54 506.819 275.596 505.888C275.551 505.668 275.436 505.469 275.269 505.319C275.101 505.17 274.89 505.079 274.667 505.059C274.456 505.022 274.239 505.028 274.03 505.077C273.821 505.126 273.624 505.217 273.452 505.345C272.308 506.331 272.122 509.419 272.122 509.633L272.151 509.748ZM273.323 509.119L273.109 509.247C273.047 508.067 273.368 506.899 274.024 505.916C274.098 505.847 274.186 505.793 274.282 505.758C274.378 505.724 274.479 505.71 274.581 505.716H274.71C275.067 505.716 275.153 505.959 275.167 506.117C274.92 507.301 274.268 508.363 273.323 509.119ZM273.48 509.662C274.796 508.933 276.668 508.147 277.369 508.461C277.439 508.496 277.5 508.549 277.545 508.614C277.59 508.679 277.618 508.754 277.626 508.833C277.668 508.99 277.668 509.155 277.628 509.313C277.588 509.47 277.509 509.615 277.397 509.733C276.84 510.191 275.41 510.162 273.48 509.662Z" fill="#407BFF"/>
<path d="M271.894 508.418L259.671 507.661C259.569 507.649 259.467 507.657 259.368 507.685C259.27 507.713 259.178 507.761 259.099 507.824C259.019 507.888 258.953 507.967 258.904 508.057C258.854 508.147 258.824 508.245 258.813 508.347L257.612 517.996C257.585 518.503 257.756 519 258.09 519.382C258.424 519.764 258.894 520 259.399 520.041C263.688 520.226 265.718 520.112 271.093 520.398C275.865 520.891 280.666 521.049 285.46 520.87C290.02 520.427 289.463 515.923 287.504 515.709C282.83 515.18 276.654 511.749 273.738 509.147C273.219 508.709 272.572 508.453 271.894 508.418Z" fill="#263238"/>
<path d="M230.837 448.448C226.682 464.471 221.369 480.17 214.94 495.423L195.012 493.908C195.012 493.908 203.189 461.972 206.148 432.723C207.978 414.667 207.821 399.728 202.531 398.57C199.2 397.827 191.423 397.856 181.445 398.084V360.916C209.436 366.634 237.284 377.499 239.4 386.19C242.359 398.442 237.184 424.345 230.837 448.448Z" fill="#407BFF"/>
<path opacity="0.4" d="M230.837 448.448C226.682 464.471 221.369 480.17 214.94 495.423L195.012 493.908C195.012 493.908 203.189 461.972 206.148 432.723C207.978 414.667 207.821 399.728 202.531 398.57C199.2 397.827 191.423 397.856 181.445 398.084V360.916C209.436 366.634 237.284 377.499 239.4 386.19C242.359 398.442 237.184 424.345 230.837 448.448Z" fill="white"/>
<path opacity="0.2" d="M230.837 448.448C223.403 443.73 214.697 438.198 206.148 432.723C207.978 414.667 207.821 399.728 202.531 398.57C199.2 397.827 191.423 397.856 181.445 398.084V360.916C209.436 366.634 237.284 377.499 239.4 386.19C242.359 398.442 237.184 424.345 230.837 448.448Z" fill="black"/>
<path d="M219.943 357.27L221.702 343.161L164.662 333.768C164.662 333.768 146.006 370.808 155.141 388.849C163.504 405.461 252.652 395.568 266.375 398.556C280.099 401.544 258.799 493.894 258.799 493.894L278.813 495.423C278.813 495.423 309.605 412.337 303.273 386.205C300.485 374.811 253.481 359.715 219.943 357.27Z" fill="#407BFF"/>
<path opacity="0.6" d="M219.943 357.27L221.702 343.161L164.662 333.768C164.662 333.768 146.006 370.808 155.141 388.849C163.504 405.461 252.652 395.568 266.375 398.556C280.099 401.544 258.799 493.894 258.799 493.894L278.813 495.423C278.813 495.423 309.605 412.337 303.273 386.205C300.485 374.811 253.481 359.715 219.943 357.27Z" fill="white"/>
<path d="M251.322 242.491C250.836 243.334 250.893 244.292 251.451 244.606C252.008 244.921 252.88 244.492 253.324 243.634C253.767 242.776 253.752 241.847 253.209 241.518C252.666 241.19 251.851 241.676 251.322 242.491Z" fill="#263238"/>
<path d="M250.421 237.93C250.304 237.873 250.205 237.784 250.136 237.673C250.081 237.532 250.082 237.376 250.137 237.235C250.193 237.095 250.3 236.981 250.436 236.915C251.267 236.536 252.177 236.361 253.09 236.406C254.003 236.451 254.892 236.714 255.682 237.173C255.807 237.252 255.896 237.377 255.931 237.521C255.966 237.665 255.943 237.817 255.868 237.945C255.781 238.07 255.649 238.156 255.5 238.185C255.35 238.215 255.195 238.185 255.068 238.102C254.441 237.75 253.739 237.552 253.021 237.525C252.302 237.497 251.588 237.641 250.936 237.945C250.855 237.983 250.766 238.001 250.677 237.999C250.588 237.996 250.5 237.973 250.421 237.93Z" fill="#263238"/>
<path d="M252.123 241.404C251.654 244.582 251.62 247.809 252.023 250.997C251.203 251.074 250.376 250.974 249.599 250.702C248.822 250.431 248.113 249.995 247.52 249.424L252.123 241.404Z" fill="#DE5753"/>
<path d="M247.005 253.355C246.662 253.77 246.319 254.17 245.947 254.542C243.863 256.729 241.159 258.226 238.199 258.83C237.45 258.987 236.69 259.087 235.926 259.131C233.919 259.265 231.907 258.949 230.038 258.207C228.168 257.465 226.487 256.316 225.118 254.842C223.89 253.499 222.942 251.924 222.331 250.21C219.672 243.062 222.331 237.344 226.205 227.466C227.059 225.131 228.497 223.054 230.382 221.432C232.267 219.81 234.535 218.697 236.971 218.2C239.407 217.703 241.93 217.837 244.299 218.591C246.669 219.345 248.806 220.692 250.507 222.505C258.256 230.597 253.081 245.593 247.005 253.355Z" fill="#E4897B"/>
<path opacity="0.2" d="M238.199 258.802C237.45 258.958 236.69 259.058 235.926 259.102C233.919 259.236 231.907 258.92 230.038 258.179C228.168 257.437 226.487 256.287 225.118 254.813C226.08 253.846 227.161 253.006 228.335 252.312C232.174 253.49 235.597 255.742 238.199 258.802Z" fill="black"/>
<path d="M205.991 259.174C206.963 266.178 222.259 268.795 222.259 268.795C222.259 268.795 229.807 272.226 230.122 269.238C226.991 265.621 226.648 262.462 227.734 259.703C228.451 258.03 229.496 256.518 230.808 255.257C231.513 254.531 232.258 253.843 233.038 253.198L228.363 234.042C225.004 241.318 213.51 258.144 205.991 259.174Z" fill="#E4897B"/>
<path d="M249.635 217.016C249.635 217.016 252.909 216.601 255.354 222.734C257.469 227.866 252.494 228.981 252.709 234.442C252.923 239.903 247.948 242.919 247.948 242.919C247.948 242.919 243.745 246.536 240.186 244.578C240.186 244.578 235.525 246.865 234.296 250.854C233.067 254.842 225.847 247.637 219.343 248.738C219.343 248.738 214.954 244.621 215.269 234.642C215.52 230.309 216.582 226.061 218.399 222.119C219.263 220.033 220.533 218.139 222.135 216.549C223.738 214.958 225.641 213.703 227.734 212.856C235.225 209.511 248.249 212.027 249.635 217.016Z" fill="#263238"/>
<path d="M239.342 241.604C239.121 242.593 239.122 243.619 239.344 244.608C239.567 245.596 240.006 246.523 240.629 247.322C242.216 249.052 244.76 246.851 245.804 243.82C246.69 241.118 247.005 236.887 244.675 236.415C242.345 235.943 239.843 238.688 239.342 241.604Z" fill="#E4897B"/>
<path d="M228.363 261.733C224.152 258.011 218.954 255.588 213.396 254.756C210.967 254.457 208.509 254.982 206.414 256.247C204.32 257.512 202.711 259.444 201.845 261.733L227.491 266.922L228.363 261.733Z" fill="#407BFF"/>
<path d="M224.003 315.856L234.453 317.414C236.831 316.673 239.271 316.151 241.744 315.856C244.432 315.628 247.134 315.628 249.821 315.856C249.821 315.856 254.51 317.628 254.51 322.203C254.51 322.203 243.474 325.162 239.242 323.39L224.003 322.203V315.856Z" fill="#E4897B"/>
<path opacity="0.2" d="M224.003 315.856L234.453 317.414C236.831 316.673 239.271 316.151 241.744 315.856C244.432 315.628 247.134 315.628 249.821 315.856C249.821 315.856 254.51 317.628 254.51 322.203C254.51 322.203 243.474 325.162 239.242 323.39L224.003 322.203V315.856Z" fill="black"/>
<path d="M240.986 265.021C238.861 270.968 236.955 276.686 235.268 282.175C234.182 285.578 233.195 288.909 232.295 292.182C231.523 294.884 230.865 297.5 230.165 300.045C229.85 301.26 229.536 302.475 229.235 303.676C227.591 310.252 226.262 316.27 225.218 321.56C223.48 329.885 222.192 338.299 221.358 346.763L162.746 339.429C164.776 329.351 166.363 320.559 168.579 311.067C169.794 305.863 171.195 300.459 172.982 294.527C174.24 290.238 175.698 285.735 177.442 280.817C183.318 263.934 188.75 259.259 188.75 259.259C211.251 255.557 240.986 265.021 240.986 265.021Z" fill="#407BFF"/>
<path d="M260.486 316.942L270.936 318.515C273.312 317.765 275.753 317.238 278.226 316.942C280.914 316.723 283.616 316.723 286.304 316.942C286.304 316.942 291.035 318.715 291.035 323.247C291.035 323.247 279.999 326.206 275.753 324.433L260.486 323.247V316.942Z" fill="#E4897B"/>
<path d="M192.896 494.837L216.627 496.41L220.115 486.16L193.968 484.93L192.896 494.837Z" fill="#407BFF"/>
<path opacity="0.2" d="M192.896 494.837L216.627 496.41L220.115 486.16L193.968 484.93L192.896 494.837Z" fill="white"/>
<path d="M256.74 494.837L280.471 496.41L283.959 486.16L257.812 484.93L256.74 494.837Z" fill="#407BFF"/>
<path opacity="0.2" d="M256.74 494.837L280.471 496.41L283.959 486.16L257.812 484.93L256.74 494.837Z" fill="white"/>
<path d="M162.561 340.187L188.993 343.661L189.851 339.758L163.375 335.913L162.561 340.187Z" fill="black"/>
<path d="M192.052 339.787L191.724 343.661L216.155 347.02V343.189L192.052 339.787Z" fill="black"/>
<path d="M217.67 343.404V347.02L221.216 347.492V343.99L217.67 343.404Z" fill="black"/>
<path opacity="0.2" d="M235.254 282.175C234.167 285.578 233.181 288.909 232.28 292.182C231.508 294.884 230.851 297.5 230.15 300.045C228.32 290.038 231.58 278.072 231.58 278.072L235.254 282.175Z" fill="black"/>
<path d="M239.214 268.394C243.989 269.352 246.462 302.518 247.52 306.907C248.449 310.738 270.936 318.515 270.936 318.515V323.904C270.936 323.904 246.061 322.203 240.214 319.801C234.368 317.4 230.837 284.648 230.837 284.648L239.214 268.394Z" fill="#E4897B"/>
<g opacity="0.2">
<path d="M240.986 265.021C238.861 270.968 236.955 276.686 235.268 282.175C234.182 285.578 233.195 288.909 232.295 292.182C231.523 294.884 230.865 297.5 230.165 300.045C229.85 301.26 229.536 302.475 229.235 303.676C227.591 310.252 226.262 316.27 225.218 321.56C223.48 329.885 222.192 338.299 221.358 346.763L162.746 339.429C164.776 329.351 166.363 320.559 168.579 311.067C169.794 305.863 171.195 300.459 172.982 294.527C174.24 290.238 175.698 285.735 177.442 280.817C183.318 263.934 188.75 259.259 188.75 259.259C211.251 255.557 240.986 265.021 240.986 265.021Z" fill="white"/>
</g>
<path d="M240.986 265.021C245.361 266.45 247.519 295.041 247.519 295.041L231.637 297.143L228.349 285.392C228.349 285.392 229.664 279.845 231.551 274.027C234.296 265.592 240.986 265.021 240.986 265.021Z" fill="#407BFF"/>
<path d="M138.529 515.995C138.529 514.999 138.234 514.026 137.68 513.198C137.127 512.37 136.34 511.725 135.42 511.345C134.499 510.964 133.487 510.865 132.51 511.061C131.534 511.256 130.637 511.737 129.934 512.442C129.231 513.147 128.753 514.045 128.56 515.022C128.368 515.999 128.469 517.011 128.852 517.931C129.236 518.85 129.883 519.635 130.712 520.186C131.542 520.737 132.516 521.03 133.512 521.027C134.172 521.027 134.826 520.897 135.435 520.644C136.045 520.391 136.599 520.02 137.065 519.552C137.531 519.085 137.9 518.53 138.152 517.92C138.403 517.309 138.531 516.655 138.529 515.995Z" fill="#263238"/>
<path opacity="0.2" d="M138.529 515.995C138.529 514.999 138.234 514.026 137.68 513.198C137.127 512.37 136.34 511.725 135.42 511.345C134.499 510.964 133.487 510.865 132.51 511.061C131.534 511.256 130.637 511.737 129.934 512.442C129.231 513.147 128.753 514.045 128.56 515.022C128.368 515.999 128.469 517.011 128.852 517.931C129.236 518.85 129.883 519.635 130.712 520.186C131.542 520.737 132.516 521.03 133.512 521.027C134.172 521.027 134.826 520.897 135.435 520.644C136.045 520.391 136.599 520.02 137.065 519.552C137.531 519.085 137.9 518.53 138.152 517.92C138.403 517.309 138.531 516.655 138.529 515.995Z" fill="white"/>
<path d="M259.485 515.995C259.485 515 259.19 514.027 258.637 513.199C258.084 512.372 257.298 511.727 256.379 511.346C255.459 510.965 254.447 510.865 253.471 511.059C252.495 511.254 251.598 511.733 250.895 512.437C250.191 513.14 249.712 514.037 249.517 515.013C249.323 515.989 249.423 517.001 249.804 517.921C250.185 518.84 250.83 519.626 251.657 520.179C252.485 520.732 253.458 521.027 254.453 521.027C255.114 521.029 255.769 520.9 256.381 520.648C256.992 520.396 257.548 520.025 258.015 519.557C258.483 519.09 258.853 518.534 259.106 517.923C259.358 517.311 259.487 516.656 259.485 515.995Z" fill="#263238"/>
<path opacity="0.2" d="M259.485 515.995C259.485 515 259.19 514.027 258.637 513.199C258.084 512.372 257.298 511.727 256.379 511.346C255.459 510.965 254.447 510.865 253.471 511.059C252.495 511.254 251.598 511.733 250.895 512.437C250.191 513.14 249.712 514.037 249.517 515.013C249.323 515.989 249.423 517.001 249.804 517.921C250.185 518.84 250.83 519.626 251.657 520.179C252.485 520.732 253.458 521.027 254.453 521.027C255.114 521.029 255.769 520.9 256.381 520.648C256.992 520.396 257.548 520.025 258.015 519.557C258.483 519.09 258.853 518.534 259.106 517.923C259.358 517.311 259.487 516.656 259.485 515.995Z" fill="white"/>
<path opacity="0.2" d="M136.014 515.995C136.014 515.497 135.866 515.01 135.588 514.596C135.311 514.182 134.918 513.859 134.457 513.669C133.996 513.479 133.49 513.43 133.001 513.528C132.513 513.627 132.065 513.868 131.713 514.221C131.362 514.574 131.124 515.024 131.028 515.513C130.933 516.002 130.984 516.508 131.177 516.968C131.37 517.427 131.694 517.819 132.11 518.094C132.526 518.369 133.014 518.514 133.512 518.511C133.842 518.511 134.168 518.446 134.472 518.319C134.777 518.193 135.053 518.007 135.286 517.773C135.518 517.539 135.702 517.262 135.827 516.957C135.952 516.651 136.015 516.325 136.014 515.995Z" fill="white"/>
<path opacity="0.2" d="M254.453 518.511C255.843 518.511 256.969 517.384 256.969 515.995C256.969 514.605 255.843 513.479 254.453 513.479C253.063 513.479 251.937 514.605 251.937 515.995C251.937 517.384 253.063 518.511 254.453 518.511Z" fill="white"/>
<path d="M198.142 493.951V439.899H189.822V493.951C157.457 494.78 137.786 506.102 133.841 508.575C133.616 508.72 133.431 508.919 133.304 509.154C133.176 509.389 133.11 509.652 133.111 509.919V514.408C133.111 514.829 133.279 515.232 133.576 515.53C133.874 515.828 134.277 515.995 134.698 515.995C134.987 516.004 135.272 515.934 135.524 515.793C135.776 515.652 135.985 515.445 136.128 515.194L138.043 511.82C154.813 506.474 172.268 503.585 189.865 503.243V512.135C189.869 512.678 190.088 513.198 190.473 513.581C190.859 513.964 191.38 514.179 191.924 514.179H196.127C196.67 514.179 197.192 513.964 197.577 513.581C197.963 513.198 198.181 512.678 198.185 512.135V503.243C215.783 503.585 233.238 506.474 250.007 511.82L251.923 515.194C252.065 515.445 252.274 515.652 252.526 515.793C252.778 515.934 253.064 516.004 253.352 515.995C253.773 515.995 254.177 515.828 254.474 515.53C254.772 515.232 254.939 514.829 254.939 514.408V509.919C254.94 509.652 254.874 509.389 254.747 509.154C254.619 508.919 254.435 508.72 254.21 508.575C250.221 506.102 230.508 494.78 198.142 493.951Z" fill="#263238"/>
<path opacity="0.2" d="M198.142 493.951V439.899H189.822V493.951C157.457 494.78 137.786 506.102 133.841 508.575C133.616 508.72 133.431 508.919 133.304 509.154C133.176 509.389 133.11 509.652 133.111 509.919V514.408C133.111 514.829 133.279 515.232 133.576 515.53C133.874 515.828 134.277 515.995 134.698 515.995C134.987 516.004 135.272 515.934 135.524 515.793C135.776 515.652 135.985 515.445 136.128 515.194L138.043 511.82C154.813 506.474 172.268 503.585 189.865 503.243V512.135C189.869 512.678 190.088 513.198 190.473 513.581C190.859 513.964 191.38 514.179 191.924 514.179H196.127C196.67 514.179 197.192 513.964 197.577 513.581C197.963 513.198 198.181 512.678 198.185 512.135V503.243C215.783 503.585 233.238 506.474 250.007 511.82L251.923 515.194C252.065 515.445 252.274 515.652 252.526 515.793C252.778 515.934 253.064 516.004 253.352 515.995C253.773 515.995 254.177 515.828 254.474 515.53C254.772 515.232 254.939 514.829 254.939 514.408V509.919C254.94 509.652 254.874 509.389 254.747 509.154C254.619 508.919 254.435 508.72 254.21 508.575C250.221 506.102 230.508 494.78 198.142 493.951Z" fill="black"/>
<path d="M195.612 510.977H192.353C191.745 510.977 191.252 511.47 191.252 512.078V519.926C191.252 520.534 191.745 521.027 192.353 521.027H195.612C196.22 521.027 196.713 520.534 196.713 519.926V512.078C196.713 511.47 196.22 510.977 195.612 510.977Z" fill="#263238"/>
<path opacity="0.2" d="M195.612 510.977H192.353C191.745 510.977 191.252 511.47 191.252 512.078V519.926C191.252 520.534 191.745 521.027 192.353 521.027H195.612C196.22 521.027 196.713 520.534 196.713 519.926V512.078C196.713 511.47 196.22 510.977 195.612 510.977Z" fill="white"/>
<path d="M139.502 386.691H248.477C251.476 386.691 254.353 387.882 256.473 390.003C258.594 392.123 259.785 395 259.785 397.999V404.832H128.179V397.97C128.187 394.973 129.384 392.102 131.507 389.988C133.629 387.873 136.505 386.687 139.502 386.691Z" fill="#407BFF"/>
<path d="M175.112 341.774H247.562C248.45 341.745 249.333 341.924 250.139 342.296C250.946 342.668 251.655 343.223 252.21 343.917C252.765 344.611 253.151 345.424 253.336 346.293C253.522 347.162 253.503 348.062 253.281 348.922L240.214 404.846H237.227L248.263 355.783C248.455 354.931 248.452 354.045 248.253 353.194C248.054 352.342 247.665 351.547 247.114 350.867C246.564 350.188 245.867 349.642 245.076 349.27C244.284 348.898 243.419 348.711 242.545 348.721H176.599L175.112 341.774Z" fill="#263238"/>
<path d="M202.531 406.805V454.095C202.527 454.822 202.237 455.517 201.723 456.031C201.209 456.545 200.513 456.836 199.786 456.839H188.193C187.832 456.841 187.474 456.772 187.14 456.634C186.806 456.497 186.503 456.295 186.247 456.04C185.992 455.785 185.79 455.481 185.653 455.147C185.516 454.813 185.446 454.456 185.448 454.095V406.805H202.531Z" fill="#263238"/>
<path opacity="0.2" d="M202.545 406.805H185.448V426.447H202.545V406.805Z" fill="black"/>
<path d="M263.373 401.93V407.648C263.373 408.406 263.072 409.134 262.536 409.67C262 410.206 261.272 410.507 260.514 410.507H127.565C126.806 410.507 126.079 410.206 125.543 409.67C125.007 409.134 124.706 408.406 124.706 407.648V401.93C124.706 401.172 125.007 400.444 125.543 399.908C126.079 399.372 126.806 399.071 127.565 399.071H260.514C261.272 399.071 262 399.372 262.536 399.908C263.072 400.444 263.373 401.172 263.373 401.93Z" fill="#263238"/>
<path d="M202.188 404.846H124.591C124.591 404.846 99.9456 363.846 99.9456 296.099V271.21C99.9456 266.282 101.904 261.555 105.389 258.069C108.874 254.584 113.601 252.626 118.53 252.626H151.41C156.245 252.602 160.898 254.472 164.372 257.836C167.845 261.2 169.863 265.791 169.994 270.624C170.838 305.592 175.984 381.187 202.188 404.846Z" fill="#263238"/>
<path opacity="0.2" d="M185.119 404.846H128.108C127.027 404.848 125.966 404.553 125.041 403.994C124.115 403.434 123.362 402.631 122.862 401.673C117.258 390.851 99.9885 352.853 99.9885 296.099V271.21C99.9885 266.282 101.947 261.555 105.432 258.069C108.917 254.584 113.644 252.626 118.573 252.626H147.007C151.836 252.624 156.476 254.501 159.945 257.861C163.414 261.22 165.439 265.798 165.591 270.624C166.449 301.803 170.638 365.462 190.208 395.554C190.837 396.458 191.2 397.519 191.259 398.617C191.317 399.716 191.068 400.81 190.54 401.775C190.011 402.74 189.224 403.539 188.266 404.082C187.309 404.624 186.219 404.889 185.119 404.846Z" fill="white"/>
<path opacity="0.2" d="M263.373 401.93V407.648C263.373 408.406 263.072 409.134 262.536 409.67C262 410.206 261.272 410.507 260.514 410.507H200.901C199.867 410.503 198.877 410.091 198.146 409.36C197.415 408.629 197.002 407.638 196.999 406.605V402.988C196.999 401.953 197.41 400.96 198.142 400.228C198.874 399.496 199.866 399.085 200.901 399.085H260.5C260.875 399.083 261.248 399.155 261.595 399.297C261.943 399.439 262.259 399.648 262.526 399.912C262.793 400.176 263.005 400.491 263.15 400.837C263.296 401.183 263.371 401.554 263.373 401.93Z" fill="black"/>
</svg>
