<svg width="350" height="350" viewBox="0 0 350 350" fill="none" xmlns="http://www.w3.org/2000/svg">
<path d="M175 350C271.65 350 350 303.971 350 247.19C350 190.41 271.65 144.381 175 144.381C78.3502 144.381 0 190.41 0 247.19C0 303.971 78.3502 350 175 350Z" fill="#F5F5F5"/>
<path d="M316.057 30.8644L311.363 28.1047C311.375 27.9091 311.375 27.7129 311.363 27.5172V26.1336C311.294 24.7931 310.914 23.4884 310.253 22.3262C309.593 21.164 308.672 20.1774 307.566 19.4471C307.235 19.2205 306.863 19.064 306.471 18.987C306.08 18.91 305.677 18.9139 305.287 18.9987C304.945 15.497 302.553 11.5392 299.652 9.8386C296.522 7.99111 293.978 9.48301 293.978 13.1703V15.2419C293.992 16.2475 294.153 17.2454 294.457 18.2025L290.56 15.8835C289.398 15.2033 288.456 15.7521 288.456 17.1203C288.495 17.8636 288.706 18.5871 289.072 19.2318C289.438 19.8765 289.947 20.4243 290.56 20.8307L315.996 35.7807C317.158 36.4609 318.1 35.9121 318.1 34.5439C318.063 33.8113 317.859 33.0976 317.505 32.459C317.15 31.8204 316.655 31.2745 316.057 30.8644Z" fill="#EBEBEB"/>
<path d="M253.314 15.6671L255.904 16.6798V10.8745C255.904 6.23646 259.511 5.16972 263.43 7.46554C267.349 9.78456 270.524 15.3657 270.524 19.9728V20.8154C271.075 20.6408 271.657 20.596 272.226 20.6844C272.796 20.7728 273.339 20.9921 273.813 21.3255C275.298 22.3126 276.533 23.6414 277.42 25.2045C278.307 26.7676 278.819 28.5212 278.917 30.3233V30.7098L282.525 32.8047C283.503 33.4535 284.317 34.3276 284.902 35.3563C285.486 36.385 285.825 37.5394 285.889 38.7259C285.889 40.9135 284.37 41.8179 282.525 40.7048L253.314 23.5441C252.336 22.8932 251.523 22.0174 250.94 20.9874C250.357 19.9574 250.02 18.8021 249.957 17.6151C249.957 15.4584 251.46 14.5772 253.314 15.6671Z" fill="#EBEBEB"/>
<path d="M262.382 316.97C291.485 316.97 315.077 303.109 315.077 286.011C315.077 268.913 291.485 255.052 262.382 255.052C233.28 255.052 209.687 268.913 209.687 286.011C209.687 303.109 233.28 316.97 262.382 316.97Z" fill="#E0E0E0"/>
<path d="M61.0574 289.335L146.807 238.95C147.012 238.88 147.191 238.746 147.318 238.568C147.444 238.389 147.513 238.174 147.513 237.953C147.513 237.732 147.444 237.517 147.318 237.339C147.191 237.16 147.012 237.026 146.807 236.956L140.647 233.338C140.12 233.07 139.539 232.931 138.95 232.931C138.36 232.931 137.779 233.07 137.252 233.338L102.443 253.792C101.92 254.067 101.339 254.21 100.75 254.21C100.16 254.21 99.5798 254.067 99.056 253.792L35.5909 216.502C35.0637 216.234 34.4826 216.094 33.8933 216.094C33.3041 216.094 32.7229 216.234 32.1958 216.502L29.2185 218.249C29.013 218.319 28.8342 218.453 28.7075 218.632C28.5809 218.811 28.5127 219.026 28.5127 219.246C28.5127 219.467 28.5809 219.682 28.7075 219.861C28.8342 220.04 29.013 220.174 29.2185 220.243L92.7444 257.572C92.95 257.642 93.1287 257.776 93.2554 257.955C93.3821 258.134 93.4502 258.349 93.4502 258.569C93.4502 258.79 93.3821 259.005 93.2554 259.184C93.1287 259.363 92.95 259.496 92.7444 259.566L51.5027 283.73C51.2998 283.802 51.1239 283.936 50.9994 284.114C50.8749 284.292 50.808 284.505 50.808 284.724C50.808 284.942 50.8749 285.155 50.9994 285.333C51.1239 285.511 51.2998 285.646 51.5027 285.717L57.6624 289.335C58.1877 289.609 58.7696 289.752 59.3599 289.752C59.9502 289.752 60.5321 289.609 61.0574 289.335Z" fill="#E0E0E0"/>
<path d="M67.5513 279.393L73.6274 275.876C73.6274 275.876 76.5288 259.604 74.3869 245.613C71.3489 225.948 58.1789 219.161 53.4015 221.116C48.6242 223.072 47.5001 228.901 56.1358 240.264C61.1638 246.997 67.7108 261.174 67.5513 279.393Z" fill="#89B1FF"/>
<g opacity="0.15">
<path d="M67.5513 279.393L73.6274 275.876C73.6274 275.876 76.5288 259.604 74.3869 245.613C71.3489 225.948 58.1789 219.161 53.4015 221.116C48.6242 223.072 47.5001 228.901 56.1358 240.264C61.1638 246.997 67.7108 261.174 67.5513 279.393Z" fill="black"/>
</g>
<path d="M69.7387 271.617H69.6855C69.5717 271.602 69.4686 271.541 69.3988 271.448C69.329 271.355 69.2982 271.238 69.3133 271.122C71.8122 252.709 64.536 232.534 56.4016 224.41C56.3213 224.326 56.2764 224.213 56.2764 224.097C56.2764 223.98 56.3213 223.867 56.4016 223.783C56.4826 223.702 56.5917 223.657 56.7054 223.657C56.8191 223.657 56.9282 223.702 57.0092 223.783C65.3639 232.055 72.754 252.562 70.2172 271.246C70.1985 271.358 70.1387 271.459 70.0498 271.528C69.961 271.596 69.8498 271.628 69.7387 271.617Z" fill="white"/>
<path d="M50.7659 289.296C49.809 289.852 47.8418 288.631 47.0823 288.113C45.7859 287.22 44.7392 286 44.0442 284.573C43.2614 282.954 42.9958 281.127 43.2847 279.347C43.4351 278.408 43.6508 277.48 43.9303 276.572C44.1885 275.668 44.4392 274.771 44.6898 273.874C44.9977 273.003 45.1295 272.078 45.0772 271.153C44.8417 269.306 43.2316 268.015 41.7733 266.902C40.1555 265.665 38.4694 264.042 38.477 261.823C38.5984 260.103 39.2769 258.471 40.4062 257.185C41.4467 255.84 42.6847 254.65 43.6265 253.235C44.3672 252.243 44.7555 251.025 44.7278 249.78C44.6224 249.018 44.3639 248.286 43.9683 247.631C43.2088 246.185 42.1834 244.856 41.6897 243.302C41.196 241.748 41.234 239.816 42.4492 238.71C43.429 237.798 44.8797 237.667 46.2013 237.76C47.4411 237.91 48.6336 238.335 49.695 239.004C53.1584 240.967 55.1332 245.142 58.8092 246.649C60.2679 247.115 61.7546 247.484 63.26 247.754C64.779 248.156 66.2449 248.922 66.9284 250.313C68.2804 253.057 65.774 256.435 66.7234 259.35C67.5664 261.924 70.0197 262.913 71.402 265.232C71.9669 266.259 72.1932 267.443 72.0476 268.61C71.9326 270.581 71.4587 272.513 70.6501 274.307C69.7648 276.093 68.7493 277.809 67.612 279.44C67.4905 279.486 50.9103 289.211 50.7659 289.296Z" fill="#89B1FF"/>
<path d="M60.5866 283.97C60.5297 283.968 60.4738 283.954 60.422 283.93C60.3702 283.906 60.3236 283.872 60.2848 283.83C60.246 283.788 60.2158 283.738 60.1959 283.684C60.176 283.629 60.1668 283.572 60.1688 283.514C60.8828 266.082 52.8167 246.842 46.9457 241.253C46.8659 241.171 46.8212 241.06 46.8212 240.944C46.8212 240.829 46.8659 240.718 46.9457 240.635C47.0279 240.553 47.1383 240.508 47.2533 240.508C47.3682 240.508 47.4786 240.553 47.5609 240.635C53.5459 246.34 61.779 265.897 61.0575 283.576C61.0441 283.69 60.9876 283.796 60.8999 283.869C60.8121 283.942 60.6999 283.979 60.5866 283.97Z" fill="white"/>
<path d="M58.0194 263.377C57.9767 263.384 57.933 263.384 57.8903 263.377C53.8338 262.238 49.6672 261.554 45.4646 261.336C45.3498 261.331 45.2416 261.28 45.164 261.194C45.0864 261.107 45.0456 260.993 45.0506 260.876C45.0557 260.759 45.1061 260.649 45.1909 260.57C45.2756 260.491 45.3877 260.45 45.5026 260.455C49.7791 260.683 54.019 261.38 58.1485 262.534C58.2027 262.551 58.2531 262.579 58.2967 262.615C58.3403 262.652 58.3763 262.698 58.4024 262.749C58.4286 262.8 58.4445 262.856 58.4491 262.913C58.4538 262.971 58.4471 263.028 58.4295 263.083C58.4016 263.171 58.3465 263.247 58.2726 263.3C58.1986 263.353 58.1098 263.38 58.0194 263.377Z" fill="white"/>
<path d="M118.09 222.74V220.467L78.3289 243.874L80.2201 245.01L118.09 222.74Z" fill="#37474F"/>
<path d="M68.5083 68.6567C68.606 68.7132 68.6836 68.7997 68.73 68.9039C68.7764 69.008 68.7892 69.1245 68.7665 69.2365L35.8187 218.079L34.8845 222.299C34.4289 222.332 33.9729 222.242 33.5629 222.037L31.3604 220.715C31.2626 220.657 31.1855 220.568 31.1405 220.463C31.0954 220.357 31.0846 220.24 31.1097 220.127L64.9309 67.3426C64.9497 67.2629 64.986 67.1886 65.037 67.1253C65.0881 67.0619 65.1527 67.0112 65.2258 66.977C65.299 66.9428 65.3788 66.9259 65.4593 66.9276C65.5398 66.9293 65.6188 66.9497 65.6905 66.987L68.5083 68.6567Z" fill="#37474F"/>
<path d="M72.64 66.6238L38.6593 220.135C38.6323 220.257 38.5805 220.371 38.5072 220.471C38.434 220.571 38.3409 220.654 38.234 220.715L36.0238 222.013C35.676 222.211 35.2826 222.31 34.8845 222.299L35.8187 218.079L68.8501 68.8887L72.64 66.6238Z" fill="#455A64"/>
<path d="M76.4376 273.503V277.94C76.0139 277.95 75.5942 277.854 75.2148 277.662L73.1641 276.456C73.0269 276.391 72.9089 276.291 72.8222 276.164C72.7355 276.038 72.6831 275.891 72.6704 275.737V142.417L76.468 144.643L76.4376 273.503Z" fill="#37474F"/>
<path d="M80.2276 142.425V275.76C80.2074 275.907 80.1507 276.045 80.063 276.163C79.9752 276.281 79.8593 276.374 79.7263 276.433L77.6908 277.639C77.3118 277.85 76.8845 277.954 76.4528 277.94V144.643L80.2276 142.425Z" fill="#455A64"/>
<path d="M125.593 249.061C125.177 249.045 124.77 248.925 124.409 248.713L122.297 247.469C122.16 247.387 122.043 247.275 121.953 247.141C121.864 247.008 121.805 246.855 121.781 246.696L99.1927 126.81L102.99 129.036L124.781 244.748L125.593 249.061Z" fill="#37474F"/>
<path d="M129.376 246.811C129.359 246.969 129.302 247.119 129.21 247.247C129.118 247.374 128.994 247.475 128.852 247.538L126.923 248.682L126.831 248.736C126.45 248.942 126.025 249.045 125.593 249.038L124.781 244.748L102.983 129.036L106.78 126.818L129.33 246.634L129.376 246.811Z" fill="#455A64"/>
<path d="M78.9212 250.213L121.872 224.974V220.521L78.9212 245.76V250.213Z" fill="#455A64"/>
<path d="M123.733 12.2968L123.657 12.2505L123.452 12.1345C122.35 11.5006 117.793 8.88789 107.958 3.14445C100.112 -1.4472 90.3747 -1.16892 79.8554 5.03059C53.8496 20.2975 32.7958 65.6574 32.8034 106.356C32.8034 130.513 40.2315 147.604 51.6926 154.283C58.589 158.31 65.6677 162.391 67.2779 163.327C67.3385 163.356 67.3969 163.389 67.4525 163.427L67.6196 163.52C75.4123 167.934 85.0429 167.594 95.4635 161.472C121.431 146.205 142.485 100.845 142.485 60.1459C142.493 36.09 135.125 19.0452 123.733 12.2968Z" fill="#89B1FF"/>
<path opacity="0.1" d="M123.733 12.2968L123.657 12.2505L123.452 12.1345C122.35 11.5006 117.793 8.88789 107.958 3.14445C100.112 -1.4472 90.3747 -1.16892 79.8554 5.03059C53.8496 20.2975 32.7958 65.6574 32.8034 106.356C32.8034 130.513 40.2315 147.604 51.6926 154.283C58.589 158.31 65.6677 162.391 67.2779 163.327C67.3385 163.356 67.3969 163.389 67.4525 163.427L67.6196 163.52C75.4123 167.934 85.0429 167.594 95.4635 161.472C121.431 146.205 142.485 100.845 142.485 60.1459C142.493 36.09 135.125 19.0452 123.733 12.2968Z" fill="black"/>
<path opacity="0.1" d="M132.452 111.574L41.6214 58.1979C36.0694 73.5575 32.8034 90.3163 32.8034 106.356C32.8034 130.513 40.2315 147.604 51.6926 154.283C58.589 158.31 65.6677 162.391 67.2779 163.327C67.3385 163.356 67.3969 163.389 67.4525 163.427L67.6196 163.52C75.4123 167.934 85.0429 167.594 95.4635 161.471C110.479 152.667 123.847 133.79 132.452 111.574Z" fill="black"/>
<path opacity="0.1" d="M32.8794 110.933C33.768 132.677 40.953 148.037 51.6774 154.298C58.5738 158.326 65.6525 162.407 67.2627 163.342C67.3234 163.371 67.3818 163.405 67.4374 163.443L67.6044 163.536C75.3971 167.95 85.0277 167.609 95.4483 161.487C99.1246 159.282 102.555 156.677 105.679 153.718L32.8794 110.933Z" fill="black"/>
<path d="M95.4634 14.1134C69.4956 29.3725 48.4494 74.7325 48.4494 115.431C48.4494 156.13 69.5032 176.746 95.4711 161.487C121.439 146.228 142.493 100.829 142.493 60.1613C142.493 19.4935 121.439 -1.15351 95.4634 14.1134Z" fill="#89B1FF"/>
<path d="M95.4635 28.7464C74.6528 40.9753 57.7839 77.3298 57.7839 109.912C57.7839 142.494 74.6604 159.052 95.4711 146.823C116.282 134.594 133.135 98.2628 133.135 65.6497C133.135 33.0366 116.282 16.5097 95.4635 28.7464Z" fill="#FAFAFA"/>
<path d="M95.4711 43.3793C79.8099 52.5781 67.1259 79.927 67.1259 104.447C67.1259 128.967 79.8175 141.412 95.4711 132.213C111.125 123.014 123.816 95.6654 123.816 71.1457C123.816 46.6259 111.11 34.1728 95.4711 43.3793Z" fill="#89B1FF"/>
<path d="M95.4711 58.0124C84.967 64.1965 76.4832 82.5167 76.4832 98.9818C76.4832 115.447 84.9974 123.772 95.4711 117.603C105.945 111.435 114.459 93.0914 114.459 76.6341C114.459 60.1768 105.968 51.8361 95.4711 58.0124Z" fill="#FAFAFA"/>
<path d="M95.4711 72.6378C90.1545 75.784 85.7948 85.1141 85.8024 93.509C85.81 101.904 90.1317 106.124 95.4711 102.986C100.81 99.8476 105.14 90.5174 105.14 82.1149C105.14 73.7123 100.81 69.4994 95.4711 72.6378Z" fill="#455A64"/>
<path d="M272.423 270.032C272.226 271.486 271.572 272.676 273.441 276.054C274.892 278.667 276.988 279.757 278.34 280.692C279.855 281.793 281.222 283.092 282.403 284.557C283.589 286.189 285.031 287.609 286.672 288.762C287.948 289.62 291.229 289.288 292.664 288.422C294.1 287.556 294.563 286.157 294.145 283.637C293.728 281.117 286.072 281.233 286.072 281.233L272.423 270.032Z" fill="#37474F"/>
<path d="M292.869 254.657L292.49 278.296C292.49 279.687 284.993 281.426 283.375 278.249C283.168 275.809 282.793 273.386 282.251 270.999C281.666 268.625 280.671 264.498 280.671 264.498C279.821 259.574 279.441 255.94 279.441 255.94L292.869 254.657Z" fill="#FFA8A7"/>
<path d="M258.349 265.541C258.349 265.541 254.818 287.417 254.711 288.623C254.605 289.829 251.271 290.61 248.802 290.533C246.334 290.455 244.875 289.288 244.898 288.747L244.291 265.402L258.349 265.541Z" fill="#FFA8A7"/>
<path d="M261.494 236.407C261.494 236.407 261.797 232.194 264.243 219.478C265.944 210.666 267.357 201.204 267.357 201.204C267.357 201.204 270.395 212.613 272.18 221.604C273.456 228.143 274.74 234.304 277.216 246.765C278.244 252.244 279.563 257.663 281.165 262.998C285.927 265.572 292.892 262.619 292.892 262.619C292.892 262.619 293.181 255.021 293.082 245.613C292.96 233.431 290.34 228.661 290.34 228.661C290.34 228.661 289.33 212.235 288.821 200.106C288.137 182.907 288.662 166.867 284.682 153.479C284.066 153.308 246.706 136.697 245.734 159.446C245.498 165.066 245.088 180.024 244.693 192.028C244.017 212.374 244.207 227.509 244.184 234.435C244.048 241.106 243.987 247.36 244.108 259.806C244.169 265.217 244.481 269.855 244.481 269.855C248.962 272.947 258.539 269.174 258.539 269.174C258.539 269.174 258.964 263.825 260.286 256.265C262.641 243.062 261.494 236.407 261.494 236.407Z" fill="#37474F"/>
<g opacity="0.2">
<path d="M261.395 185.945C259.291 185.326 255.061 182.799 254.278 181.191C253.374 179.343 253.177 169.642 253.169 169.232V168.854L268.55 167.74L268.595 168.081C269.087 171.622 269.389 175.188 269.499 178.764V179.266C269.56 180.812 263.506 185.558 262.891 185.937C262.739 186.028 262.566 186.077 262.39 186.076C262.054 186.081 261.719 186.037 261.395 185.945ZM253.899 169.565C253.967 172.556 254.263 179.506 254.931 180.866C255.6 182.227 259.489 184.631 261.6 185.241C262.36 185.458 262.527 185.35 262.534 185.35C263.856 184.522 268.831 180.201 268.8 179.32V178.81C268.701 175.375 268.417 171.948 267.95 168.544L253.899 169.565Z" fill="black"/>
</g>
<g opacity="0.2">
<path d="M288.305 181.755L288.449 180.982C285.844 179.707 282.054 177.581 281.765 176.862C281.408 175.981 280.74 169.789 280.474 167.091C281.233 166.89 283.611 166.318 287.173 165.545L287.029 164.826C282.578 165.785 280.018 166.473 279.995 166.48L279.699 166.558V166.867C279.79 167.795 280.595 175.965 281.066 177.156C281.537 178.346 287.218 181.222 288.305 181.755Z" fill="black"/>
</g>
<path d="M244.222 263.663L244.291 265.402C244.291 265.402 245.665 267.226 251.559 267.35C257.453 267.474 258.987 265.912 258.987 265.912L259.177 264.459C260.119 264.683 259.937 265.82 259.314 268.656C258.691 271.493 258.175 273.944 257.567 274.531C256.959 275.119 253.769 276.124 250.314 275.961C246.858 275.799 244.587 274.338 243.979 273.488C243.372 272.637 243.167 269.236 242.999 267.404C242.832 265.572 243.197 263.732 244.222 263.663Z" fill="#89B1FF"/>
<path d="M278.871 254.379L279.289 256.118C279.289 256.118 280.633 257.664 286.512 257.154C292.391 256.644 293.074 254.966 293.074 254.966V253.56C294.327 253.753 294.654 254.758 294.335 257.641C294.016 260.524 293.735 263.052 293.196 263.671C292.657 264.289 289.603 265.642 286.125 265.85C282.646 266.059 281.006 264.961 280.322 264.181C279.638 263.4 279.016 259.682 278.666 257.873C278.317 256.064 277.869 254.564 278.871 254.379Z" fill="#89B1FF"/>
<path opacity="0.2" d="M267.365 201.204L270.046 187.707C271.763 186.87 273.274 185.653 274.471 184.146C275.668 182.639 276.52 180.88 276.965 178.995C276.965 178.995 277.413 185.18 272.119 188.272L268.823 201.134L270.137 212.219L267.365 201.204Z" fill="black"/>
<path d="M223.7 296.74C223.168 296.686 223.229 298.286 223.412 299.012C223.594 299.739 225.789 302.05 229.693 302.877C233.597 303.705 238.982 302.962 241.298 302.877C243.615 302.792 247.602 303.929 249.903 304.269C252.205 304.609 256.359 303.82 257.734 302.499C257.958 302.234 258.123 301.925 258.22 301.59C258.317 301.256 258.343 300.904 258.296 300.558C258.251 299.012 258.114 298.68 257.932 298.695L223.7 296.74Z" fill="#37474F"/>
<path d="M257.187 286.088C257.424 285.246 257.587 284.385 257.673 283.514C257.736 282.789 257.635 282.059 257.377 281.38C257.227 281.115 257.026 280.884 256.786 280.701C256.546 280.518 256.271 280.386 255.98 280.313L255.645 282.486C255.197 282.926 253.936 283.127 253.42 283.467C252.258 284.24 252.03 285.84 251.726 287.216C251.679 287.541 251.559 287.85 251.377 288.121C250.329 289.443 250.025 287.131 249.972 286.513C249.896 285.616 249.82 284.619 249.167 284.008C248.499 283.528 247.706 283.259 246.888 283.235C246.091 283.166 245.141 283.197 244.708 282.462L244.655 281.094C243.979 281.017 243.015 281.148 242.734 281.867C242.63 282.226 242.609 282.604 242.673 282.973C242.779 284.001 242.923 285.029 243.121 286.065C243.312 286.824 243.427 287.601 243.463 288.384C243.471 288.528 243.471 288.672 243.463 288.817C243.281 289.152 243.02 289.436 242.703 289.644C241.457 290.241 240.101 290.563 238.723 290.587C236.718 290.718 235.017 290.409 232.761 290.378C230.689 290.258 228.622 290.687 226.761 291.623C225.775 292.105 224.957 292.88 224.414 293.847C223.872 294.813 223.63 295.925 223.723 297.034C224.522 298.503 225.777 299.662 227.293 300.327C229.183 301.073 231.177 301.511 233.202 301.625C235.579 301.873 238.868 301.447 241.253 301.308C243.256 301.257 245.258 301.473 247.207 301.95C250.245 302.568 252.311 302.723 255.053 301.888C256.093 301.563 257.385 300.937 257.863 299.77C258.017 298.167 257.922 296.55 257.582 294.977C257.529 294.66 257.468 294.351 257.4 294.042C257.331 293.733 257.218 293.269 257.119 292.898C256.967 292.318 256.959 291.684 256.861 291.089C256.823 290.873 256.709 290.316 256.564 289.613C256.628 288.935 256.729 288.261 256.868 287.595C256.937 287.124 257.066 286.583 257.187 286.088Z" fill="#455A64"/>
<path d="M242.073 289.891C240.714 291.064 239.852 292.725 239.665 294.529C239.711 295.704 237.675 295.781 237.63 294.614C237.928 293.119 238.556 291.713 239.468 290.502C240.23 289.972 241.16 289.754 242.073 289.891Z" fill="#FAFAFA"/>
<path d="M237.645 290.579C236.51 291.622 235.731 293.005 235.42 294.529C235.382 295.395 233.612 295.302 233.65 294.436C233.65 294.436 233.923 291.661 235.883 290.509C236.43 290.115 237.463 290.216 237.645 290.579Z" fill="#FAFAFA"/>
<path d="M234.151 290.393C233.217 290.393 231.257 291.661 230.293 294.568C229.716 296.706 229.566 298.94 229.852 301.138C227.911 300.889 226.1 300.011 224.688 298.634C224.153 298.169 223.714 297.602 223.396 296.964C223.258 296.195 223.273 295.406 223.442 294.644C223.61 293.881 223.928 293.161 224.376 292.527C225.736 290.888 227.832 289.814 231.128 289.644C234.827 289.45 235.146 290.455 235.146 290.455L234.151 290.393Z" fill="#FAFAFA"/>
<path d="M274.451 266.94C276.281 265.85 281.568 268.309 281.568 268.309L281.879 269.569C281.879 269.569 282.099 270.465 282.213 270.906C282.487 271.903 283.732 272.228 284.644 272.359C287.026 272.575 289.422 272.151 291.593 271.13C292.558 270.589 292.619 269.994 292.619 269.994C292.619 269.638 292.619 268.672 292.619 268.672C293.211 268.672 293.887 268.95 293.788 270.218C293.614 272.491 293.416 276.456 293.788 278.52C293.955 279.54 294.236 280.738 294.381 281.751C294.487 282.439 294.457 284.464 293.568 285.276C293.32 285.586 293.019 285.848 292.679 286.049C290.75 287.27 287.363 287.069 285.783 285.477C283.778 283.498 282.365 281.697 279.555 279.293C277.892 277.886 276.289 277.214 274.937 275.482C274.197 274.49 273.629 273.376 273.259 272.189C272.248 269.344 272.567 268.061 274.451 266.94Z" fill="#455A64"/>
<path d="M279.768 274.307C280.23 272.971 281.094 271.816 282.236 271.006C282.122 270.535 281.993 270.056 281.879 269.569C281.031 269.97 280.272 270.541 279.645 271.247C279.019 271.954 278.539 272.782 278.233 273.681C277.968 274.547 279.175 275.034 279.768 274.307Z" fill="#FAFAFA"/>
<path d="M282.502 275.529C282.644 275.116 282.827 274.72 283.049 274.346C282.889 273.704 282.722 273.016 282.54 272.29C281.836 273.033 281.302 273.925 280.975 274.902C280.709 275.73 281.917 276.217 282.502 275.529Z" fill="#FAFAFA"/>
<path d="M274.922 275.59C274.922 275.366 274.603 270.055 281.568 268.316C281.568 268.278 281.446 267.814 281.393 267.621C280.5 266.796 279.388 266.258 278.195 266.074C275.651 265.719 273.798 266.616 272.719 268.479C271.641 270.341 273.509 274.67 274.922 275.59Z" fill="#FAFAFA"/>
<path d="M234.311 121.468C231.371 120.765 226.1 119.149 220.237 117.093C213.788 114.774 207.074 112.757 205.943 112.548C203.786 112.154 200.694 112.362 198.78 111.837C196.502 111.203 194.185 111.017 192.188 109.518C191.885 109.334 191.625 109.087 191.424 108.792C191.224 108.497 191.088 108.162 191.026 107.809C191.026 107.446 191.109 107.083 191.094 106.719C191.094 106.147 190.722 105.622 190.783 105.057C190.859 104.284 191.664 103.712 191.694 102.932C191.667 102.589 191.606 102.249 191.512 101.919C191.421 101.301 192.021 100.474 192.355 99.9711C192.537 99.7083 193.046 99.2445 192.757 98.8966C191.775 97.7743 190.7 96.7399 189.545 95.8046C187.433 94.0035 186.279 92.357 187.16 91.3289C188.375 89.8988 190.608 91.7463 193.433 93.7561C195.006 94.877 196.547 96.0751 198.142 97.1419C198.765 97.567 201.287 99.6619 201.94 98.6106C202.111 98.2645 202.167 97.8711 202.099 97.4897C202.031 96.7167 201.894 95.8896 201.879 95.0857C201.832 94.2856 201.989 93.4866 202.335 92.7667C202.463 92.4907 202.663 92.2555 202.912 92.0864C203.038 92.0045 203.183 91.9578 203.332 91.951C203.482 91.9442 203.63 91.9776 203.763 92.0478C204.015 92.2369 204.192 92.5108 204.264 92.8208C204.629 93.787 204.986 94.7533 205.343 95.7196C205.828 97.3532 206.501 98.923 207.348 100.396C208.026 101.499 208.953 102.422 210.052 103.086C210.811 103.45 215.869 104.694 217.525 105.104C220.381 105.8 236.612 109.209 236.931 109.286L280.618 104.447L280.011 118.933C280.011 118.933 240.068 122.852 234.311 121.468Z" fill="#FFA8A7"/>
<path d="M278.507 103.017C281.477 102.615 285.958 102.646 288.502 106.039C291.046 109.433 291.016 112.123 290.986 116.452C290.955 120.78 288.874 128.495 288.874 128.495L278.507 103.017Z" fill="#89B1FF"/>
<path d="M199.039 103.519C199.054 103.63 199.045 103.742 199.014 103.849C198.983 103.956 198.929 104.054 198.856 104.138C198.776 104.214 198.682 104.273 198.579 104.312C198.476 104.35 198.366 104.367 198.256 104.362C198.039 104.357 197.822 104.329 197.611 104.277C197.436 104.277 197.201 104.277 197.155 104.431C197.15 104.485 197.157 104.54 197.176 104.591C197.194 104.641 197.223 104.687 197.261 104.725C197.562 105.025 197.884 105.302 198.226 105.552C198.644 105.923 199.145 106.627 198.682 107.098C198.55 107.251 198.383 107.368 198.197 107.439C198.01 107.511 197.809 107.534 197.611 107.508C197.315 107.508 197.018 107.392 196.715 107.377C196.661 107.377 196.593 107.377 196.601 107.454C196.609 107.475 196.622 107.493 196.639 107.508C197.064 107.789 197.439 108.142 197.747 108.552C197.847 108.682 197.916 108.835 197.949 108.997C197.982 109.159 197.978 109.327 197.937 109.487C197.785 109.858 197.178 110.043 196.844 110.067H196.669C196.669 110.067 196.669 110.067 196.669 110.105H196.722C196.831 110.144 196.943 110.175 197.056 110.198C197.339 110.233 197.624 110.162 197.859 109.999C198.094 109.835 198.262 109.59 198.332 109.309C198.406 109.064 198.407 108.802 198.336 108.556C198.264 108.309 198.123 108.09 197.93 107.925C198.188 107.961 198.45 107.928 198.692 107.831C198.934 107.734 199.148 107.574 199.312 107.369C200.072 106.511 199.578 105.784 198.91 105.135C199.142 105.092 199.359 104.988 199.54 104.833C199.652 106.391 200.162 107.891 201.021 109.185C200.435 107.538 200.149 105.796 200.178 104.045C200.177 103.619 200.217 103.195 200.299 102.777C200.351 102.398 200.422 102.021 200.512 101.649C200.631 101.039 200.817 100.445 201.067 99.8784C200.677 100.12 200.34 100.441 200.079 100.821C199.851 101.154 199.867 101.656 199.365 101.71C199.078 101.716 198.797 101.629 198.56 101.463C198.33 101.298 198.073 101.175 197.801 101.1C197.771 101.092 197.739 101.091 197.709 101.098C197.678 101.105 197.65 101.118 197.626 101.138C197.573 101.208 197.626 101.308 197.687 101.378C198.258 101.878 198.712 102.501 199.016 103.202C199.044 103.305 199.051 103.413 199.039 103.519Z" fill="#F28F8F"/>
<path d="M259.504 97.7373L260.954 111.914L274.861 112.687L273.752 96.2454L259.504 97.7373Z" fill="#FFA8A7"/>
<path d="M251.377 80.7697C251.377 80.7697 247.853 85.6319 248.194 86.1807C248.536 86.7295 250.921 87.2706 250.921 87.2706L251.377 80.7697Z" fill="#F28F8F"/>
<path d="M261.167 67.3272C254.491 68.3862 252.425 71.1922 251.248 81.8751C250.01 92.9987 250.952 96.5622 252.311 98.1469C253.23 99.2137 258.623 99.6929 261.387 99.0668C264.851 98.2938 272.697 95.9361 276.578 90.5173C281.173 84.1478 282.76 75.2582 278.4 71.3468C272.302 65.8353 263.886 66.8943 261.167 67.3272Z" fill="#FFA8A7"/>
<path d="M250.488 70.8828C250.966 71.4286 251.507 71.914 252.098 72.3283C252.953 72.9589 253.849 73.5297 254.779 74.0367C255.689 74.4335 256.563 74.9094 257.392 75.459C258.547 76.3943 258.638 77.5539 258.592 78.9607C258.592 79.8806 258.509 81.0169 258.456 82.246C258.38 84.1012 259.466 85.5699 260.164 83.1195C260.164 83.1195 261.425 79.0535 264.813 79.7569C268.2 80.4604 268.291 84.395 266.506 87.3788C265.413 89.1953 262.785 88.5615 262.785 88.5615C262.601 90.2839 262.78 92.0265 263.31 93.6728C263.841 95.3191 264.71 96.8312 265.861 98.1081C265.861 98.1081 268.496 99.6927 273.927 98.8192C277.876 93.8643 280.322 91.4912 282.517 87.1469C287.165 77.9713 285.472 71.9573 282.388 69.2981C281.978 64.9307 278.727 62.8049 274.952 61.6995C269.301 60.053 263.78 63.2455 258.19 61.6222C257.269 61.3764 256.361 61.0822 255.471 60.741C255.132 60.5529 254.735 60.5031 254.362 60.6018C254.152 60.7278 253.982 60.9134 253.875 61.1358C253.767 61.3582 253.725 61.6078 253.754 61.8541C253.766 62.414 253.91 62.9627 254.175 63.4538C254.439 63.945 254.816 64.364 255.273 64.6756C255.159 64.5983 254.597 64.722 254.445 64.722C254.126 64.722 253.815 64.722 253.496 64.722C252.867 64.6823 252.241 64.6075 251.62 64.4978C251.196 64.4167 250.76 64.4167 250.336 64.4978C249.861 64.6578 249.45 64.9703 249.163 65.3884C248.877 65.8064 248.732 66.3076 248.749 66.8168C248.793 67.8284 249.094 68.8112 249.622 69.6692C249.806 70.0304 250.017 70.3767 250.253 70.705C250.328 70.7681 250.407 70.8274 250.488 70.8828Z" fill="#37474F"/>
<path d="M252.311 98.1468C253.071 99.0048 256.724 99.4841 259.564 99.3063H259.762L259.564 97.7603C259.564 97.7603 255.023 98.827 252.311 98.1468Z" fill="#F28F8F"/>
<path d="M287.727 110.469C286.018 106.279 282.312 102.313 277.542 103.117C276.433 103.303 275.378 103.396 274.329 103.589C273.767 105.962 266.332 106.186 260.225 104.748L253.063 105.622C248.681 107.121 245.157 115.725 244.534 128.812C243.911 141.899 244.602 162.051 244.853 171.165C253.643 174.837 263.289 175.844 272.628 174.064C285.76 171.405 287.902 165.669 287.902 165.669L286.892 142.278C286.892 137.191 288.715 130.296 289.102 127.026C290.272 116.969 288.76 113.012 287.727 110.469Z" fill="#455A64"/>
<path d="M157.797 119.915C157.51 120.136 157.278 120.423 157.118 120.751C156.959 121.08 156.876 121.442 156.878 121.809C156.872 121.94 156.902 122.071 156.963 122.186C157.025 122.302 157.116 122.399 157.227 122.466L182.132 135.042L183.431 132.376L158.526 119.799C158.405 119.753 158.274 119.74 158.147 119.76C158.019 119.781 157.899 119.834 157.797 119.915Z" fill="#455A64"/>
<path d="M157.227 122.473C154.189 120.927 147.954 116.135 147.954 116.135C147.954 116.135 157.007 119.018 158.526 119.807L157.227 122.473Z" fill="#455A64"/>
<path opacity="0.2" d="M182.701 132.499L158.2 120.201L147.954 116.127L157.843 121.198L182.61 133.783L182.701 132.499Z" fill="white"/>
<path d="M182.702 132.522C182.413 132.741 182.179 133.025 182.02 133.353C181.86 133.681 181.779 134.043 181.782 134.409C181.828 135.081 182.307 135.321 182.853 134.95C183.143 134.731 183.377 134.445 183.537 134.115C183.697 133.786 183.778 133.423 183.772 133.056C183.727 132.368 183.264 132.12 182.702 132.522Z" fill="#37474F"/>
<path d="M181.82 133.172C185.291 126.671 202.38 118.029 216.523 125.148C230.665 132.267 256.868 159.848 263.772 174.265C247.184 177.164 213.28 174.512 199.631 167.648C185.983 160.784 178.873 148.307 181.82 133.172Z" fill="#89B1FF"/>
<path opacity="0.7" d="M181.82 133.172C185.291 126.671 202.38 118.029 216.523 125.148C230.665 132.267 256.868 159.848 263.772 174.265C247.184 177.164 213.28 174.512 199.631 167.648C185.983 160.784 178.873 148.307 181.82 133.172Z" fill="white"/>
<path d="M193.897 155.937C193.198 144.952 198.955 131.75 206.755 126.462C210.052 124.22 213.181 123.757 215.756 124.8C201.765 118.346 185.215 126.787 181.805 133.172C178.858 148.307 185.998 160.768 199.639 167.632C196.494 166.001 194.292 161.897 193.897 155.937Z" fill="#89B1FF"/>
<path opacity="0.15" d="M199.654 167.632C213.325 174.497 247.2 177.148 263.795 174.249C249.288 174.543 222.728 169.797 207.667 161.711C195.226 155.032 184.289 143.345 181.843 133.172C178.874 148.307 186.013 160.768 199.654 167.632Z" fill="black"/>
<path opacity="0.5" d="M181.82 133.172C195.165 127.699 209.064 130.629 218.475 135.761C227.885 140.894 256.564 163.528 263.772 174.265C263.772 174.265 243.182 145.238 220.822 131.749C198.461 118.26 181.82 133.172 181.82 133.172Z" fill="white"/>
<path d="M293.257 201.915C291.024 205.115 282.958 201.026 274.2 193.768L269.582 183.719L271.2 191.178C265.756 186.327 260.793 180.945 256.382 175.107C258.926 174.929 261.41 174.651 263.795 174.241L276.038 180.263C276.038 180.263 297.001 196.558 293.257 201.915Z" fill="#89B1FF"/>
<path opacity="0.15" d="M293.257 201.915C291.024 205.115 282.958 201.026 274.2 193.768L269.582 183.719L271.2 191.178C265.756 186.327 260.793 180.945 256.382 175.107C258.926 174.929 261.41 174.651 263.795 174.241L276.038 180.263C276.038 180.263 297.001 196.558 293.257 201.915Z" fill="black"/>
<g opacity="0.15">
<path d="M256.382 175.115C258.518 177.979 260.799 180.727 263.218 183.348C261.489 181.301 260.066 179.006 258.995 176.538L263.856 175.679L276.008 180.271L263.772 174.265C261.41 174.659 258.926 174.937 256.382 175.115Z" fill="black"/>
</g>
<path d="M276.038 180.271L263.772 174.265C260.514 171.42 259.815 170.029 256.572 167.486C262.077 166.947 267.608 166.744 273.137 166.875L270.266 171.049L277.861 167.184C284.575 167.841 288.882 169.387 291.32 171.505C298.641 177.844 289.421 183.123 276.038 180.271Z" fill="#89B1FF"/>
<path opacity="0.5" d="M270.289 171.034L273.16 166.859C267.631 166.728 262.1 166.932 256.595 167.47C256.595 167.47 269.286 167.339 271.291 167.687L270.289 171.034Z" fill="white"/>
<path opacity="0.5" d="M282.76 181.06C292.193 181.191 297.328 176.708 291.327 171.474C288.889 169.356 284.583 167.81 277.869 167.153L274.071 169.093L278.302 167.903C278.302 167.903 286.945 168.792 290.811 173.136C293.188 175.811 290.5 180.99 282.76 181.06Z" fill="white"/>
<path d="M251.073 125.187C243.068 140.593 238.495 150.974 235.981 153.571C233.467 156.169 214.487 171.351 207.629 172.046C200.77 172.742 194.633 170.609 194.033 167.053C193.837 166.059 193.824 165.037 193.995 164.038C193.995 164.038 195.644 165.213 195.727 165.244C197.816 165.971 200.983 165.731 202.494 164.556C204.727 162.817 199.684 161.464 198.507 160.011C196.988 158.194 197.649 156.231 201.439 157.916C204.735 159.392 207.667 160.559 210.014 160.49C212.361 160.42 225.842 146.042 225.842 146.042C225.842 146.042 233.073 130.497 236.437 122.195C242.764 106.604 248.954 106.681 252.311 106.604L251.073 125.187Z" fill="#FFA8A7"/>
<path d="M253.063 105.622C249.774 105.954 247.321 106.101 244.572 107.578C241.237 109.363 240.06 112.556 238.549 116.081C235.67 122.759 232.936 128.82 232.936 128.82C234.022 131.834 240.136 139.07 245.673 136.967C245.673 136.967 250.336 128.773 252.767 123.486C255.038 118.531 255.486 109.688 253.063 105.622Z" fill="#89B1FF"/>
</svg>
