<svg width="13" height="18" viewBox="0 0 13 18" fill="none" xmlns="http://www.w3.org/2000/svg">
<path d="M11.9762 15.9626L10.6713 13.1814C10.3905 12.5872 10.0274 12.1547 9.40063 12.4184L8.16421 12.8896C7.17439 13.3607 6.68119 12.8896 6.18457 12.1793L3.95833 6.97917C3.67748 6.38496 3.82476 5.82592 4.45153 5.56222L6.18115 4.85199C6.80792 4.58477 6.70859 4.02924 6.42775 3.43504L4.94473 0.601141C4.66388 0.00693694 4.08848 -0.137219 3.46171 0.126481C2.20816 0.657397 1.17039 1.49069 0.495669 2.72481C-0.326328 4.23317 0.0846704 6.33222 0.24907 7.21474C0.413469 8.09726 0.988866 9.6443 1.73209 11.23C2.47531 12.8192 3.12606 14.0674 3.71173 14.7741C4.29398 15.4809 5.69137 17.4147 7.42099 17.8471C8.83894 18.1987 10.3699 17.9034 11.6234 17.3725C12.2536 17.1193 12.2536 16.5603 11.9762 15.9626Z" fill="black"/>
</svg>
