<svg width="631" height="470" viewBox="0 0 631 470" fill="none" xmlns="http://www.w3.org/2000/svg">
<path d="M630.513 412.633H0.513184V412.948H630.513V412.633Z" fill="#E6E6E6"/>
<path d="M157.786 431.697H116.055V432.012H157.786V431.697Z" fill="#E6E6E6"/>
<path d="M102.85 431.697H78.6709V432.012H102.85V431.697Z" fill="#E6E6E6"/>
<path d="M265.806 436.333H241.626V436.648H265.806V436.333Z" fill="#E6E6E6"/>
<path d="M391.882 443.364H337.462V443.679H391.882V443.364Z" fill="#E6E6E6"/>
<path d="M326.249 443.364H318.273V443.679H326.249V443.364Z" fill="#E6E6E6"/>
<path d="M571.734 436.333H453.697V436.648H571.734V436.333Z" fill="#E6E6E6"/>
<path d="M299.133 356.437H55.8397C53.9338 356.433 52.107 355.674 50.7605 354.325C49.414 352.976 48.6577 351.148 48.6577 349.242V7.24048C48.6743 5.34548 49.4379 3.53354 50.7826 2.19824C52.1274 0.862944 53.9446 0.112133 55.8397 0.108887H299.133C301.041 0.108887 302.871 0.866887 304.22 2.21614C305.57 3.56538 306.328 5.39536 306.328 7.30348V349.242C306.328 351.15 305.57 352.98 304.22 354.33C302.871 355.679 301.041 356.437 299.133 356.437ZM55.8397 0.360888C54.0173 0.364225 52.2707 1.09051 50.9832 2.38032C49.6958 3.67014 48.9727 5.41808 48.9727 7.24048V349.242C48.9727 351.065 49.6958 352.813 50.9832 354.102C52.2707 355.392 54.0173 356.118 55.8397 356.122H299.133C300.957 356.118 302.705 355.393 303.994 354.103C305.284 352.814 306.009 351.066 306.013 349.242V7.24048C306.009 5.41692 305.284 3.66901 303.994 2.37955C302.705 1.0901 300.957 0.364218 299.133 0.360888H55.8397Z" fill="#E6E6E6"/>
<path d="M571.684 356.437H328.378C326.471 356.433 324.643 355.674 323.295 354.326C321.946 352.977 321.187 351.149 321.184 349.242V7.24048C321.203 5.34433 321.97 3.5324 323.317 2.19745C324.663 0.862503 326.482 0.112098 328.378 0.108887H571.684C573.577 0.115444 575.391 0.86772 576.733 2.20266C578.075 3.53761 578.837 5.34765 578.854 7.24048V349.242C578.854 351.146 578.099 352.972 576.755 354.321C575.411 355.669 573.588 356.43 571.684 356.437ZM328.378 0.360888C326.555 0.364218 324.807 1.0901 323.517 2.37955C322.228 3.66901 321.502 5.41692 321.499 7.24048V349.242C321.502 351.066 322.228 352.814 323.517 354.103C324.807 355.393 326.555 356.118 328.378 356.122H571.684C573.508 356.118 575.256 355.393 576.545 354.103C577.835 352.814 578.56 351.066 578.564 349.242V7.24048C578.56 5.41692 577.835 3.66901 576.545 2.37955C575.256 1.0901 573.508 0.364218 571.684 0.360888H328.378Z" fill="#E6E6E6"/>
<path d="M337.437 305.004H309.73V414.913H337.437V305.004Z" fill="#E0E0E0"/>
<path d="M332.17 414.913H337.437V399.945H326.651L332.17 414.913Z" fill="#FAFAFA"/>
<path d="M216.023 305.004H188.316V414.913H216.023V305.004Z" fill="#E0E0E0"/>
<path d="M337.438 305.004H211.438V405.728H337.438V305.004Z" fill="#FAFAFA"/>
<path d="M332.864 309.955V336.604H215.974V309.955H332.826M333.317 309.464H215.52V337.083H333.355V309.464H333.317Z" fill="#E0E0E0"/>
<path d="M216.692 414.913H211.438V399.945H222.211L216.692 414.913Z" fill="#FAFAFA"/>
<path d="M271.652 323.274C271.652 323.824 271.816 324.363 272.122 324.821C272.428 325.279 272.863 325.635 273.371 325.846C273.88 326.057 274.44 326.112 274.98 326.005C275.52 325.897 276.017 325.632 276.406 325.243C276.795 324.853 277.061 324.357 277.168 323.817C277.275 323.277 277.22 322.717 277.01 322.208C276.799 321.699 276.442 321.264 275.984 320.958C275.526 320.652 274.988 320.489 274.437 320.489C273.698 320.489 272.99 320.782 272.468 321.305C271.946 321.827 271.652 322.535 271.652 323.274Z" fill="#E6E6E6"/>
<path d="M332.864 342.035V368.684H215.974V342.035H332.826M333.317 341.556H215.52V369.175H333.355V341.569L333.317 341.556Z" fill="#E0E0E0"/>
<path d="M271.652 355.429C271.652 355.98 271.816 356.518 272.122 356.976C272.428 357.434 272.863 357.791 273.371 358.002C273.88 358.212 274.44 358.267 274.98 358.16C275.52 358.053 276.017 357.787 276.406 357.398C276.795 357.008 277.061 356.512 277.168 355.972C277.275 355.432 277.22 354.872 277.01 354.363C276.799 353.854 276.442 353.42 275.984 353.114C275.526 352.808 274.988 352.644 274.437 352.644C273.698 352.644 272.99 352.938 272.468 353.46C271.946 353.982 271.652 354.69 271.652 355.429Z" fill="#E6E6E6"/>
<path d="M332.864 374.127V400.789H215.974V374.127H332.826M333.317 373.636H215.52V401.268H333.355V373.636H333.317Z" fill="#E0E0E0"/>
<path d="M271.652 387.458C271.655 388.008 271.82 388.545 272.128 389.001C272.435 389.458 272.871 389.813 273.38 390.021C273.889 390.23 274.449 390.284 274.988 390.175C275.527 390.066 276.022 389.8 276.41 389.41C276.799 389.02 277.063 388.524 277.169 387.984C277.275 387.444 277.219 386.885 277.008 386.377C276.797 385.869 276.44 385.434 275.983 385.129C275.525 384.824 274.987 384.661 274.437 384.661C274.07 384.661 273.707 384.733 273.368 384.874C273.03 385.015 272.722 385.221 272.463 385.481C272.205 385.741 272 386.049 271.861 386.388C271.722 386.728 271.651 387.091 271.652 387.458Z" fill="#E6E6E6"/>
<path d="M199.101 241.172H171.394V414.926H199.101V241.172Z" fill="#E0E0E0"/>
<path d="M193.835 414.913H199.102V399.945H188.329L193.835 414.913Z" fill="#FAFAFA"/>
<path d="M95.5551 241.172H67.8477V414.926H95.5551V241.172Z" fill="#E0E0E0"/>
<path d="M199.102 241.172H90.9561V405.741H199.102V241.172Z" fill="#FAFAFA"/>
<path d="M194.44 245.809V283.067H95.618V245.809H194.44ZM195.019 245.242H95.0132V283.609H194.994V245.254L195.019 245.242Z" fill="#E0E0E0"/>
<path d="M194.44 287.616V386.437H147.366V287.616H194.44ZM195.02 287.036H146.799V387.017H195.02V287.036Z" fill="#E0E0E0"/>
<path d="M142.692 287.616V386.437H95.618V287.616H142.692ZM143.259 287.036H95.0132V387.017H143.233V287.036H143.259Z" fill="#E0E0E0"/>
<path d="M96.2229 414.913H90.9561V399.945H101.742L96.2229 414.913Z" fill="#FAFAFA"/>
<path d="M142.238 264.457C142.235 265.01 142.397 265.553 142.703 266.014C143.009 266.476 143.445 266.836 143.956 267.05C144.467 267.264 145.03 267.321 145.573 267.214C146.116 267.108 146.616 266.842 147.008 266.452C147.401 266.061 147.669 265.563 147.778 265.02C147.886 264.477 147.832 263.914 147.62 263.402C147.409 262.89 147.051 262.452 146.59 262.144C146.13 261.837 145.589 261.672 145.035 261.672C144.295 261.672 143.586 261.965 143.062 262.487C142.537 263.009 142.241 263.717 142.238 264.457Z" fill="#E6E6E6"/>
<path d="M152.217 334.677C152.217 335.23 152.382 335.772 152.69 336.232C152.998 336.692 153.435 337.051 153.947 337.262C154.459 337.473 155.022 337.528 155.565 337.419C156.108 337.31 156.606 337.043 156.997 336.65C157.388 336.258 157.653 335.758 157.759 335.215C157.866 334.671 157.809 334.108 157.595 333.597C157.382 333.087 157.021 332.651 156.559 332.345C156.098 332.039 155.556 331.877 155.002 331.879C154.635 331.879 154.272 331.952 153.933 332.093C153.595 332.233 153.287 332.44 153.028 332.699C152.77 332.959 152.565 333.268 152.426 333.607C152.286 333.946 152.216 334.31 152.217 334.677Z" fill="#E6E6E6"/>
<path d="M132.272 334.677C132.274 335.227 132.439 335.764 132.747 336.22C133.054 336.676 133.49 337.031 133.999 337.24C134.508 337.449 135.068 337.502 135.607 337.394C136.146 337.285 136.641 337.018 137.03 336.629C137.418 336.239 137.682 335.742 137.788 335.203C137.895 334.663 137.839 334.104 137.628 333.595C137.416 333.087 137.059 332.653 136.602 332.348C136.144 332.042 135.606 331.879 135.056 331.879C134.689 331.879 134.326 331.952 133.988 332.093C133.649 332.233 133.341 332.44 133.083 332.699C132.824 332.959 132.619 333.268 132.48 333.607C132.341 333.946 132.27 334.31 132.272 334.677Z" fill="#E6E6E6"/>
<path d="M129.121 192.725H117.441C118.517 198.391 119.195 204.126 119.469 209.886C119.469 216.186 110.574 241.172 123.249 241.172C135.925 241.172 127.029 216.249 127.029 209.886C127.325 204.124 128.024 198.39 129.121 192.725Z" fill="#E0E0E0"/>
<path d="M84.6812 218.278V225.838C84.6944 229.891 86.3103 233.774 89.176 236.639C92.0418 239.505 95.9248 241.121 99.9776 241.134H107.538C111.59 241.121 115.473 239.505 118.339 236.639C121.205 233.774 122.821 229.891 122.834 225.838V218.278H84.6812Z" fill="#F5F5F5"/>
<path d="M247.058 288.976C247.058 297.796 256.923 305.004 268.982 305.004H279.868C291.926 305.004 301.792 297.796 301.792 288.976H247.058Z" fill="#E0E0E0"/>
<path d="M535.522 276.049C528.919 281.442 519.797 291.307 511.456 305.193C505.886 314.441 502.535 324.093 501.061 336.919C501.061 322.429 501.149 306.868 501.199 292.177C502.875 288.397 506.705 279.678 509.452 272.798C518.612 249.828 522.052 244.171 530.28 224.364C541.28 197.904 552.544 166.58 549.319 169.087C542.741 174.19 517.541 221.377 514.82 228.131C507.401 246.154 502.815 265.217 501.224 284.642C501.224 270.782 501.325 258.182 501.376 248.404C501.552 216.514 502.094 206.22 502.358 203.044C503.379 201.432 504.576 199.554 505.282 198.546C511.204 189.978 513.484 182.695 519.053 169.919C526.966 151.838 533.77 119.721 531.779 121.333C523.489 128.087 516.962 142.577 508.369 161.061C499.775 179.545 502.232 190.167 500.531 205.942C500.179 209.042 499.901 220.735 499.7 236.926C497.482 219.664 493.299 208.299 485.676 197.967C476.302 185.253 467.23 176.673 460.577 172.187C453.924 167.701 472.068 198.924 480.737 212.507C488.461 224.653 495.58 235.351 499.637 245.897C499.423 267.859 499.322 295.654 499.322 321.497C497.331 309.729 494.08 297.04 489.746 287.225C484.529 275.431 476.516 257.338 470.128 251.202C468.603 249.727 476.806 284.919 482.072 294.268C487.339 303.618 491.207 312.45 494.521 317.755C495.29 319.015 497.86 323.765 499.322 326.512C499.322 358.1 499.498 385.971 499.775 395.459H501.136C501.048 393.015 501.023 376.937 501.061 355.668C504.349 344.127 511.859 330.947 518.058 318.927C524.812 305.911 542.124 270.694 535.522 276.049Z" fill="#E0E0E0"/>
<path d="M520.187 414.913H480.699L477.713 376.206H523.174L520.187 414.913Z" fill="#F0F0F0"/>
<path d="M526.11 380.717H474.765L473.303 367.651H527.584L526.11 380.717Z" fill="#F5F5F5"/>
<path d="M157.081 25.9388H86.458V103.492H157.081V25.9388Z" fill="#E0E0E0"/>
<path d="M164.729 25.9388H91.7749V103.492H164.729V25.9388Z" fill="#F5F5F5"/>
<path d="M158.618 97.3808V32.0498L97.8857 32.0498V97.3808H158.618Z" fill="white"/>
<path d="M143.889 81.5301V47.8755H112.603V81.5301H143.889Z" fill="#F5F5F5"/>
<path d="M517.177 34.973H451.568V107.02H517.177V34.973Z" fill="#E0E0E0"/>
<path d="M524.283 34.973H456.52V107.02H524.283V34.973Z" fill="#F5F5F5"/>
<path d="M518.613 101.337V40.6556H462.203V101.337H518.613Z" fill="white"/>
<path d="M490.401 88.5986C500.122 88.5986 508.003 80.7178 508.003 70.9964C508.003 61.2749 500.122 53.3942 490.401 53.3942C480.68 53.3942 472.799 61.2749 472.799 70.9964C472.799 80.7178 480.68 88.5986 490.401 88.5986Z" fill="#F5F5F5"/>
<path d="M230.45 72.1809H178.06V129.712H230.45V72.1809Z" fill="#E0E0E0"/>
<path d="M236.121 72.1809H182.004V129.712H236.121V72.1809Z" fill="#F5F5F5"/>
<path d="M231.584 125.177V76.7169H186.539V125.177H231.584Z" fill="white"/>
<path d="M209.068 88.6869L196.746 110.031H221.391L209.068 88.6869Z" fill="#F5F5F5"/>
<path d="M315.513 469.534C450.437 469.534 559.815 463.149 559.815 455.271C559.815 447.394 450.437 441.008 315.513 441.008C180.589 441.008 71.2119 447.394 71.2119 455.271C71.2119 463.149 180.589 469.534 315.513 469.534Z" fill="#F5F5F5"/>
<path d="M440.568 136.731L428.069 131.691C428.069 131.691 411.576 161.767 406.851 163.292C400.425 165.358 387.119 171.104 379.231 172.112C378.16 173.372 376.409 177.29 376.573 178.714C387.169 182.255 410.454 177.555 415.444 173.85C426.796 165.446 440.568 136.731 440.568 136.731Z" fill="#E58A7B"/>
<path d="M444.411 129.889C446.742 138.495 434.117 155.807 434.117 155.807L417.573 146.534C417.573 146.534 420.672 139.415 424.452 132.17C430.513 120.464 441.752 120.074 444.411 129.889Z" fill="#407BFF"/>
<path opacity="0.2" d="M444.411 129.889C446.742 138.495 434.117 155.807 434.117 155.807L417.573 146.534C417.573 146.534 420.672 139.415 424.452 132.17C430.513 120.464 441.752 120.074 444.411 129.889Z" fill="black"/>
<path opacity="0.2" d="M424.138 150.238L430.652 153.892L431.799 133.896C428.006 136.806 425.335 145.576 424.138 150.238Z" fill="black"/>
<path d="M433.524 123.413C433.524 123.413 420.647 152.065 428.157 205.413H478.897C479.703 197.627 477.032 159.625 486.696 122.934C481.13 121.846 475.498 121.126 469.838 120.779C462.657 120.363 455.459 120.363 448.279 120.779C443.302 121.285 438.369 122.165 433.524 123.413Z" fill="#407BFF"/>
<path opacity="0.2" d="M433.524 123.413C433.524 123.413 420.647 152.065 428.157 205.413H478.897C479.703 197.627 477.032 159.625 486.696 122.934C481.13 121.846 475.498 121.126 469.838 120.779C462.657 120.363 455.459 120.363 448.279 120.779C443.302 121.285 438.369 122.165 433.524 123.413Z" fill="black"/>
<g style="mix-blend-mode:multiply">
<path d="M421.757 456.405C421.681 457.766 440.921 458.862 464.723 458.862C488.524 458.862 507.903 457.766 507.978 456.405C508.054 455.045 488.826 453.961 465.012 453.961C441.198 453.961 421.845 455.057 421.757 456.405Z" fill="#E8ECF1"/>
</g>
<path d="M455.626 420.65L446.627 424.134L454.379 444.16L463.378 440.676L455.626 420.65Z" fill="#E58A7B"/>
<path d="M495.756 446.716H486.269L482.791 424.754H492.279L495.756 446.716Z" fill="#E58A7B"/>
<path d="M485.613 445.62H496.273C496.458 445.62 496.637 445.687 496.777 445.806C496.918 445.926 497.012 446.092 497.042 446.275L498.415 454.704C498.444 454.916 498.427 455.131 498.365 455.335C498.304 455.54 498.199 455.728 498.058 455.889C497.917 456.049 497.743 456.177 497.548 456.264C497.353 456.351 497.142 456.395 496.928 456.393C493.211 456.33 491.422 456.103 486.735 456.103C483.849 456.103 477.915 456.405 473.908 456.405C469.901 456.405 469.637 452.474 471.287 452.109C478.696 450.509 481.569 448.329 484.038 446.212C484.474 445.829 485.034 445.619 485.613 445.62Z" fill="#263238"/>
<path d="M454.113 442.369L464.193 439.421C464.373 439.37 464.565 439.382 464.737 439.456C464.909 439.529 465.05 439.659 465.138 439.824L468.918 447.384C469.006 447.576 469.051 447.784 469.05 447.995C469.048 448.206 469.001 448.414 468.911 448.605C468.821 448.796 468.691 448.965 468.529 449.1C468.367 449.235 468.177 449.333 467.973 449.387C464.307 450.395 461.85 451.013 457.263 452.348C454.101 453.268 450.875 454.767 447.75 455.763C445.583 456.456 440.493 456.481 437.859 456.481C433.966 456.481 433.096 452.373 434.772 452.184C438.993 451.718 439.56 451.932 441.891 450.761C445.705 449.093 449.162 446.706 452.072 443.73C452.621 443.104 453.325 442.635 454.113 442.369Z" fill="#263238"/>
<path d="M380.819 172.061L370.386 167.689L366.089 179.256C370.365 179.907 374.716 179.907 378.992 179.256L380.819 172.061Z" fill="#E58A7B"/>
<path d="M362.625 167.387L362.348 175.073L366.09 179.231L370.386 167.664L362.625 167.387Z" fill="#E58A7B"/>
<path d="M456.86 422.351L447.833 425.836L451.831 436.191L460.858 432.706L456.86 422.351Z" fill="#CF6F64"/>
<path d="M492.279 424.754H482.791L484.593 436.081H494.081L492.279 424.754Z" fill="#CF6F64"/>
<path opacity="0.2" d="M426.544 190.986C426.733 193.267 426.947 195.598 427.224 197.992L464.949 185.745C470.84 183.999 475.96 180.296 479.464 175.249C479.615 171.885 479.804 168.344 480.094 164.652C480.22 162.863 480.371 161.023 480.535 159.159C480.699 157.294 480.926 155.227 481.165 153.237L426.544 190.986Z" fill="black"/>
<path d="M438.867 149.658L437.607 149.507C438.35 143.207 443.05 138.243 448.002 138.369V139.629C443.668 139.541 439.535 144.014 438.867 149.658Z" fill="white"/>
<path d="M445.583 161.288H445.369V160.028C449.703 160.192 453.773 155.669 454.441 150.036L455.701 150.188C455.033 156.349 450.484 161.288 445.583 161.288Z" fill="white"/>
<path d="M469.133 96.499C467.356 103.442 465.265 116.155 469.839 120.779C469.839 120.779 466.638 127.823 453.748 127.823C441.967 127.823 448.28 120.779 448.28 120.779C456.117 118.94 456.256 113.219 455.223 107.801L469.133 96.499Z" fill="#E58A7B"/>
<path d="M463.462 101.11L455.234 107.801C455.489 109.046 455.637 110.311 455.675 111.581C458.082 113.975 462.908 107.914 463.399 104.815C463.649 103.595 463.67 102.339 463.462 101.11Z" fill="#CF6F64"/>
<path d="M441.084 96.4107C441.657 97.4031 442.428 98.2666 443.349 98.9473C444.271 99.6281 445.323 100.111 446.439 100.367C449.463 101.035 450.975 98.2504 450.144 95.4532C449.4 92.9332 446.918 89.5438 443.844 90.1234C443.185 90.259 442.569 90.5505 442.046 90.9734C441.523 91.3963 441.109 91.9383 440.839 92.554C440.569 93.1697 440.45 93.8411 440.493 94.5122C440.535 95.1832 440.738 95.8342 441.084 96.4107Z" fill="#CF6F64"/>
<path d="M446.088 74.1969C441.375 76.3515 439.712 95.0751 445.634 97.8471C451.556 100.619 455.008 70.1019 446.088 74.1969Z" fill="#263238"/>
<path d="M470.569 86.0536C469.435 95.4532 469.309 100.985 464.269 105.798C462.707 107.395 460.734 108.53 458.568 109.076C456.402 109.623 454.127 109.56 451.995 108.896C449.862 108.231 447.955 106.989 446.483 105.309C445.011 103.628 444.033 101.574 443.655 99.3718C442.131 90.9298 444.235 76.9816 453.66 73.2394C455.64 72.3659 457.818 72.0381 459.967 72.2897C462.117 72.5414 464.16 73.3634 465.885 74.6706C467.61 75.9778 468.954 77.7226 469.778 79.7241C470.601 81.7256 470.874 83.9109 470.569 86.0536Z" fill="#E58A7B"/>
<path d="M455.083 79.0606C462.063 77.284 467.191 76.0744 465.352 81.883C462.92 89.6446 459.997 97.1541 463.915 97.4943C466.309 97.7085 476.893 93.223 475.545 88.6744C474.373 84.718 479.325 83.6343 480.207 81.6309C483.471 74.3734 474.134 75.331 475.797 70.921C477.46 66.511 468.237 59.4046 463.197 62.9452C454.995 68.6656 440.92 68.5774 448.317 59.1652C453.621 52.4494 444.159 53.8228 444.159 53.8228C444.159 53.8228 449.879 57.2122 440.253 62.4538C430.072 68.0482 439.408 83.08 455.083 79.0606Z" fill="#263238"/>
<path d="M474.273 96.4107C472.895 98.4047 470.825 99.815 468.465 100.367C465.352 101.035 464.155 98.2504 465.327 95.4532C466.373 92.9332 469.246 89.5438 472.219 90.1234C475.193 90.703 475.873 93.9412 474.273 96.4107Z" fill="#E58A7B"/>
<path d="M428.157 205.413C428.157 205.413 419.639 281.643 418.972 310.573C418.291 340.662 447.838 434.544 447.838 434.544L462.958 428.244C462.958 428.244 445.318 342.464 447.838 312.917C450.509 280.698 461.547 205.464 461.547 205.464L428.157 205.413Z" fill="#407BFF"/>
<path opacity="0.2" d="M449.325 226.342C442.534 240.429 447.108 268.287 450.787 284.793C452.185 273.138 453.849 260.488 455.424 248.783C455.272 230.79 453.874 216.892 449.325 226.342Z" fill="black"/>
<path d="M462.29 423.255C462.366 423.255 464.079 428.068 464.079 428.068L446.641 435.401L443.894 430.286L462.29 423.255Z" fill="#407BFF"/>
<path d="M446.163 205.413C446.163 205.413 452.677 277.914 456.986 305.067C461.724 334.815 480.296 433.889 480.296 433.889H497.671C497.671 433.889 487.264 337.222 485.298 307.763C483.156 275.81 478.897 205.413 478.897 205.413H446.163Z" fill="#407BFF"/>
<path d="M497.936 429.366C498.012 429.366 498.516 434.217 498.516 434.217H479.414L478.053 428.647L497.936 429.366Z" fill="#407BFF"/>
<path opacity="0.2" d="M491.282 423.62C491.243 423.621 491.205 423.607 491.175 423.581C491.145 423.556 491.125 423.52 491.119 423.481C491.018 422.599 481.631 335.282 479.867 308.822C477.952 280.119 474.096 216.451 474.058 215.808C474.056 215.787 474.059 215.766 474.066 215.747C474.073 215.727 474.084 215.709 474.098 215.693C474.112 215.678 474.129 215.665 474.148 215.657C474.168 215.649 474.188 215.644 474.209 215.645C474.251 215.644 474.291 215.66 474.321 215.688C474.351 215.716 474.37 215.755 474.373 215.796C474.373 216.438 478.267 280.056 480.182 308.809C481.946 335.269 491.333 422.524 491.421 423.469C491.425 423.49 491.424 423.511 491.419 423.532C491.413 423.552 491.404 423.571 491.391 423.588C491.378 423.604 491.361 423.618 491.343 423.628C491.324 423.638 491.303 423.644 491.282 423.645V423.62Z" fill="black"/>
<path d="M456.154 88.6743C456.154 89.4429 455.675 90.0603 455.171 90.0603C454.667 90.0603 454.302 89.4429 454.352 88.6743C454.403 87.9057 454.831 87.2883 455.335 87.2883C455.839 87.2883 456.204 87.9183 456.154 88.6743Z" fill="#263238"/>
<path d="M447.511 88.6743C447.511 89.4429 447.02 90.0603 446.529 90.0603C446.037 90.0603 445.659 89.4429 445.697 88.6743C445.735 87.9057 446.188 87.2883 446.692 87.2883C447.196 87.2883 447.562 87.9183 447.511 88.6743Z" fill="#263238"/>
<path d="M450.232 89.0651C449.18 91.4121 447.825 93.6107 446.2 95.6045C447.46 96.8645 449.816 96.2849 449.816 96.2849L450.232 89.0651Z" fill="#DF5753"/>
<path d="M450.459 99.4978C450.43 99.4979 450.401 99.492 450.374 99.4804C450.347 99.4689 450.323 99.4519 450.303 99.4307C450.283 99.4095 450.267 99.3843 450.257 99.3569C450.247 99.3294 450.243 99.3002 450.245 99.271C450.248 99.2097 450.274 99.152 450.319 99.1098C450.364 99.0676 450.423 99.0442 450.484 99.0442C451.448 99.0509 452.401 98.8416 453.273 98.4317C454.145 98.0218 454.914 97.4216 455.524 96.6754C455.568 96.6373 455.623 96.6163 455.681 96.6163C455.739 96.6163 455.795 96.6373 455.839 96.6754C455.88 96.7177 455.903 96.7742 455.903 96.8329C455.903 96.8917 455.88 96.9482 455.839 96.9904C455.186 97.7835 454.364 98.4204 453.433 98.8542C452.502 99.2881 451.486 99.508 450.459 99.4978Z" fill="#263238"/>
<path d="M457.691 86.3559C457.631 86.3868 457.564 86.403 457.496 86.403C457.428 86.403 457.361 86.3868 457.301 86.3559C456.829 86.0512 456.293 85.8616 455.735 85.8025C455.177 85.7434 454.612 85.8164 454.088 86.0157C454.037 86.0413 453.981 86.0563 453.924 86.06C453.867 86.0637 453.809 86.0559 453.755 86.0371C453.701 86.0183 453.652 85.9889 453.609 85.9506C453.567 85.9123 453.532 85.8659 453.508 85.8141C453.461 85.702 453.46 85.576 453.505 85.463C453.55 85.3501 453.637 85.259 453.747 85.2093C454.406 84.9403 455.12 84.8341 455.829 84.8999C456.537 84.9657 457.219 85.2015 457.817 85.5873C457.866 85.6201 457.907 85.6622 457.939 85.7112C457.971 85.7601 457.993 85.8148 458.003 85.8723C458.014 85.9297 458.013 85.9887 458 86.0458C457.988 86.1028 457.964 86.1568 457.931 86.2047C457.867 86.2769 457.784 86.3294 457.691 86.3559Z" fill="#263238"/>
<path d="M444.172 83.836C444.104 83.8198 444.043 83.7848 443.995 83.7352C443.953 83.6942 443.92 83.6452 443.897 83.5911C443.874 83.537 443.863 83.4789 443.863 83.4202C443.863 83.3616 443.874 83.3035 443.897 83.2494C443.92 83.1953 443.953 83.1463 443.995 83.1052C444.478 82.5636 445.08 82.1408 445.753 81.8698C446.426 81.5988 447.152 81.4869 447.876 81.5428C447.934 81.5518 447.989 81.5725 448.039 81.6038C448.089 81.6351 448.131 81.6762 448.164 81.7246C448.197 81.7731 448.22 81.8278 448.231 81.8854C448.242 81.943 448.241 82.0022 448.229 82.0594C448.202 82.1761 448.133 82.2789 448.036 82.3485C447.938 82.4181 447.819 82.4497 447.7 82.4374C447.127 82.4014 446.554 82.4961 446.023 82.7144C445.493 82.9327 445.019 83.2689 444.638 83.6974C444.58 83.7612 444.506 83.8079 444.424 83.8324C444.342 83.8568 444.254 83.8581 444.172 83.836Z" fill="#263238"/>
<path d="M491.573 135.332L478.469 131.842C478.469 131.842 465.617 163.481 461.068 165.534C454.894 168.357 439.258 178.134 432.605 182.759C432.24 184.334 432.53 188.504 433.361 189.651C444.701 187.584 466.411 179.231 470.947 174.984C481.291 165.295 491.573 135.332 491.573 135.332Z" fill="#E58A7B"/>
<path d="M482.425 447.283C481.786 447.334 481.149 447.16 480.624 446.792C480.461 446.645 480.34 446.459 480.271 446.251C480.203 446.043 480.19 445.821 480.233 445.607C480.241 445.473 480.285 445.344 480.36 445.233C480.436 445.122 480.54 445.034 480.661 444.977C481.72 444.435 484.681 446.313 485.021 446.527C485.058 446.55 485.087 446.585 485.103 446.626C485.119 446.666 485.121 446.711 485.109 446.754C485.098 446.798 485.076 446.838 485.046 446.871C485.015 446.904 484.976 446.929 484.933 446.943C484.111 447.145 483.271 447.259 482.425 447.283ZM481.165 445.317C481.07 445.296 480.971 445.296 480.875 445.317C480.827 445.342 480.787 445.38 480.76 445.427C480.733 445.474 480.721 445.528 480.724 445.582C480.691 445.729 480.696 445.881 480.741 446.025C480.785 446.169 480.866 446.299 480.976 446.401C481.468 446.842 482.703 446.892 484.328 446.577C483.36 445.94 482.27 445.511 481.128 445.317H481.165Z" fill="#407BFF"/>
<path d="M484.87 446.943C484.837 446.953 484.802 446.953 484.769 446.943C483.824 446.413 482.048 444.334 482.312 443.276C482.352 443.108 482.447 442.959 482.581 442.851C482.716 442.744 482.883 442.685 483.056 442.684C483.225 442.661 483.397 442.675 483.56 442.725C483.723 442.775 483.873 442.86 484.001 442.974C485.046 443.868 485.109 446.615 485.109 446.754C485.116 446.795 485.108 446.837 485.087 446.874C485.067 446.91 485.035 446.939 484.996 446.955C484.954 446.964 484.91 446.959 484.87 446.943ZM483.182 443.1H483.093C482.804 443.1 482.766 443.263 482.753 443.326C482.602 443.944 483.723 445.519 484.656 446.262C484.652 445.198 484.322 444.16 483.711 443.289C483.565 443.161 483.376 443.094 483.182 443.1Z" fill="#407BFF"/>
<path d="M448.973 445.708C448.202 445.977 447.362 445.977 446.591 445.708C446.416 445.613 446.268 445.476 446.16 445.308C446.052 445.141 445.988 444.949 445.974 444.75C445.958 444.626 445.974 444.499 446.02 444.382C446.066 444.266 446.141 444.162 446.238 444.083C447.246 443.175 451.367 444.083 451.833 444.259C451.877 444.27 451.916 444.297 451.944 444.333C451.971 444.37 451.985 444.415 451.984 444.461C451.986 444.508 451.974 444.555 451.949 444.595C451.924 444.635 451.888 444.667 451.845 444.687C450.918 445.106 449.957 445.448 448.973 445.708ZM446.919 444.209C446.775 444.237 446.64 444.303 446.528 444.398C446.488 444.428 446.457 444.468 446.439 444.515C446.422 444.562 446.417 444.613 446.427 444.662C446.436 444.794 446.477 444.922 446.547 445.035C446.618 445.147 446.715 445.24 446.831 445.305C447.498 445.658 449.048 445.38 451.052 444.536C449.702 444.196 448.305 444.085 446.919 444.209Z" fill="#407BFF"/>
<path d="M451.807 444.687H451.706C450.446 444.461 447.926 443.012 447.851 441.928C447.851 441.676 447.964 441.323 448.569 441.122C448.773 441.049 448.99 441.018 449.206 441.031C449.423 441.044 449.635 441.1 449.829 441.197C451.19 441.865 451.908 444.284 451.946 444.398C451.954 444.436 451.953 444.475 451.942 444.513C451.931 444.55 451.911 444.585 451.883 444.612C451.864 444.643 451.838 444.669 451.807 444.687ZM448.821 441.5H448.695C448.304 441.638 448.304 441.802 448.304 441.852C448.304 442.508 450.131 443.705 451.404 444.108C451.111 443.096 450.49 442.21 449.64 441.588C449.387 441.459 449.095 441.428 448.821 441.5Z" fill="#407BFF"/>
<path d="M433.676 182.015L420.534 188.063L419.009 191.843L423.86 195.107C423.86 195.107 432.932 194.124 435.515 188.29L433.676 182.015Z" fill="#E58A7B"/>
<path d="M434.23 189.865C433.936 187.34 433.103 184.908 431.786 182.733L433.865 181.171C435.429 183.676 436.426 186.493 436.788 189.424L434.23 189.865Z" fill="#263238"/>
<path d="M436.473 183.804C436.751 184.241 436.888 184.753 436.864 185.271C436.841 185.788 436.658 186.285 436.342 186.695C436.026 187.105 435.591 187.408 435.097 187.562C434.602 187.716 434.073 187.714 433.579 187.557C433.086 187.399 432.653 187.093 432.34 186.681C432.027 186.269 431.848 185.77 431.828 185.252C431.809 184.735 431.949 184.224 432.23 183.789C432.511 183.354 432.919 183.016 433.399 182.821C433.937 182.547 434.562 182.496 435.138 182.68C435.714 182.864 436.194 183.268 436.473 183.804Z" fill="#263238"/>
<path d="M411.651 192.952L413.402 194.716L425.196 189.676L420.534 188.063L411.651 192.952Z" fill="#E58A7B"/>
<path opacity="0.2" d="M462.29 423.255C462.366 423.255 464.079 428.068 464.079 428.068L446.641 435.401L443.894 430.286L462.29 423.255Z" fill="black"/>
<path opacity="0.2" d="M497.936 429.366C498.012 429.366 498.516 434.217 498.516 434.217H479.414L478.053 428.647L497.936 429.366Z" fill="black"/>
<path d="M494.987 131.703C498.452 142.88 484.907 158.163 484.907 158.163L466.196 150.528C468.414 144.068 470.971 137.73 473.857 131.54C479.603 119.154 491.484 120.426 494.987 131.703Z" fill="#407BFF"/>
<path opacity="0.2" d="M494.987 131.703C498.452 142.88 484.907 158.163 484.907 158.163L466.196 150.528C468.414 144.068 470.971 137.73 473.857 131.54C479.603 119.154 491.484 120.426 494.987 131.703Z" fill="black"/>
<path d="M309.062 19.7272H301.011V21.025H309.062V19.7272Z" fill="#407BFF"/>
<path d="M413.286 71.0931L412.312 92.7179L413.608 92.7763L414.583 71.1515L413.286 71.0931Z" fill="#407BFF"/>
<path d="M410.782 25.5483H262.102L248.267 335.155H396.947L410.782 25.5483Z" fill="#407BFF"/>
<path opacity="0.56" d="M406.346 29.8073H257.666L243.832 339.414H392.512L406.346 29.8073Z" fill="#FAFAFA"/>
<path opacity="0.07" d="M401.911 34.0533H253.231L239.384 343.66H388.064L401.911 34.0533Z" fill="#407BFF"/>
<path d="M384.989 169.088H258.082L257.023 192.776H383.931L384.989 169.088Z" fill="white"/>
<path d="M327.873 151.8H258.85L258.384 162.397H327.407L327.873 151.8Z" fill="#407BFF"/>
<path d="M382.129 233.02H255.222L254.164 256.708H381.071L382.129 233.02Z" fill="white"/>
<path opacity="0.47" d="M358.857 288.699H273.518L272.245 317.087H357.585L358.857 288.699Z" fill="#407BFF"/>
<path d="M353.15 321.497H267.81C267.773 321.507 267.734 321.507 267.696 321.497C267.684 321.46 267.684 321.42 267.696 321.384L268.956 292.983C268.956 292.964 268.96 292.945 268.968 292.927C268.976 292.909 268.987 292.894 269.001 292.881C269.016 292.868 269.032 292.858 269.051 292.851C269.069 292.845 269.088 292.843 269.108 292.845H354.447C354.463 292.837 354.48 292.833 354.498 292.833C354.515 292.833 354.533 292.837 354.548 292.845C354.557 292.86 354.562 292.877 354.562 292.895C354.562 292.913 354.557 292.93 354.548 292.946L353.313 321.409C353.298 321.438 353.274 321.463 353.245 321.478C353.216 321.494 353.183 321.501 353.15 321.497ZM267.961 321.195H352.998L354.258 293.097H269.221L267.961 321.195Z" fill="white"/>
<path d="M312.968 215.733H255.991L255.524 226.342H312.489L312.968 215.733Z" fill="#407BFF"/>
<path d="M357.231 92.5677C356.905 99.4616 354.454 106.086 350.213 111.531C347.074 115.643 343.034 118.982 338.403 121.291C333.773 123.6 328.675 124.817 323.501 124.849C319.32 124.881 315.176 124.056 311.326 122.426C307.476 120.796 304 118.395 301.112 115.371C298.225 112.347 295.988 108.763 294.538 104.842C293.088 100.92 292.456 96.7428 292.681 92.5677C293.124 83.9039 296.861 75.7367 303.126 69.7363C309.391 63.7358 317.711 60.3555 326.386 60.2865C330.571 60.2475 334.718 61.0669 338.573 62.6941C342.428 64.3213 345.909 66.7218 348.8 69.7472C351.69 72.7726 353.93 76.3586 355.38 80.2837C356.83 84.2088 357.46 88.3895 357.231 92.5677Z" fill="white"/>
<path d="M360.268 67.0401C360.186 68.8732 359.534 70.635 358.404 72.0801C357.567 73.1725 356.492 74.0593 355.26 74.6729C354.029 75.2865 352.673 75.6107 351.297 75.6207C349.964 75.6288 348.649 75.3104 347.468 74.6932C346.286 74.076 345.273 73.1789 344.518 72.0801C343.519 70.5954 343.024 68.8281 343.107 67.0401C343.229 64.7399 344.224 62.5727 345.888 60.9806C347.553 59.3885 349.762 58.4914 352.066 58.4721C353.177 58.462 354.279 58.6795 355.303 59.1113C356.326 59.543 357.251 60.1799 358.02 60.9826C358.788 61.7853 359.384 62.7369 359.771 63.7787C360.158 64.8205 360.327 65.9304 360.268 67.0401Z" fill="#407BFF"/>
<path d="M271.753 180.931C271.693 181.947 271.249 182.901 270.513 183.603C269.776 184.304 268.801 184.701 267.784 184.711C267.293 184.717 266.806 184.622 266.353 184.433C265.9 184.243 265.491 183.962 265.151 183.608C264.811 183.253 264.547 182.833 264.376 182.373C264.204 181.912 264.129 181.422 264.155 180.931C264.21 179.914 264.651 178.956 265.389 178.253C266.127 177.551 267.105 177.156 268.124 177.151C268.615 177.147 269.101 177.244 269.553 177.434C270.005 177.625 270.414 177.905 270.754 178.259C271.093 178.613 271.357 179.033 271.529 179.492C271.701 179.952 271.777 180.441 271.753 180.931Z" fill="#263238"/>
<path d="M288.738 180.932C288.68 181.948 288.238 182.904 287.501 183.606C286.763 184.309 285.787 184.704 284.769 184.712C284.279 184.716 283.793 184.62 283.341 184.429C282.89 184.238 282.482 183.957 282.144 183.603C281.805 183.249 281.542 182.829 281.372 182.37C281.201 181.91 281.127 181.421 281.152 180.932C281.207 179.916 281.647 178.96 282.382 178.258C283.117 177.555 284.092 177.16 285.109 177.152C285.6 177.146 286.087 177.241 286.54 177.431C286.993 177.62 287.402 177.901 287.742 178.255C288.082 178.61 288.346 179.03 288.517 179.49C288.689 179.951 288.764 180.441 288.738 180.932Z" fill="#263238"/>
<path d="M305.735 180.932C305.678 181.948 305.236 182.904 304.498 183.606C303.761 184.309 302.784 184.704 301.766 184.712C301.276 184.716 300.79 184.619 300.338 184.429C299.885 184.238 299.477 183.958 299.137 183.604C298.798 183.25 298.534 182.83 298.362 182.371C298.19 181.911 298.114 181.422 298.138 180.932C298.195 179.915 298.638 178.959 299.375 178.257C300.112 177.555 301.089 177.16 302.107 177.152C302.598 177.146 303.085 177.241 303.538 177.431C303.991 177.62 304.4 177.901 304.74 178.255C305.08 178.61 305.344 179.03 305.515 179.49C305.686 179.951 305.761 180.441 305.735 180.932Z" fill="#263238"/>
<path d="M268.893 244.864C268.833 245.879 268.389 246.834 267.653 247.535C266.916 248.237 265.941 248.633 264.924 248.644C264.434 248.648 263.947 248.552 263.495 248.361C263.043 248.171 262.635 247.89 262.295 247.536C261.955 247.182 261.691 246.763 261.519 246.303C261.348 245.844 261.271 245.354 261.295 244.864C261.353 243.848 261.795 242.891 262.532 242.189C263.27 241.487 264.246 241.092 265.264 241.084C265.755 241.08 266.241 241.176 266.693 241.367C267.145 241.557 267.554 241.838 267.893 242.192C268.233 242.546 268.497 242.965 268.669 243.425C268.841 243.884 268.917 244.374 268.893 244.864Z" fill="#263238"/>
<path d="M285.878 244.864C285.82 245.878 285.38 246.833 284.645 247.535C283.911 248.236 282.937 248.633 281.921 248.644C281.43 248.65 280.943 248.555 280.49 248.365C280.037 248.175 279.628 247.894 279.288 247.54C278.948 247.186 278.684 246.766 278.513 246.305C278.342 245.845 278.267 245.354 278.293 244.864C278.35 243.848 278.792 242.891 279.53 242.189C280.267 241.487 281.244 241.092 282.262 241.084C282.752 241.08 283.237 241.176 283.689 241.367C284.14 241.557 284.548 241.838 284.887 242.192C285.225 242.547 285.488 242.966 285.659 243.426C285.829 243.885 285.904 244.375 285.878 244.864Z" fill="#263238"/>
<path d="M302.913 244.864C302.855 245.88 302.413 246.837 301.675 247.539C300.938 248.241 299.962 248.636 298.944 248.644C298.454 248.646 297.968 248.549 297.517 248.358C297.066 248.167 296.658 247.886 296.319 247.532C295.979 247.179 295.715 246.76 295.543 246.301C295.37 245.842 295.293 245.354 295.315 244.864C295.375 243.849 295.818 242.894 296.555 242.193C297.292 241.491 298.267 241.095 299.284 241.084C299.775 241.078 300.262 241.173 300.715 241.363C301.168 241.553 301.577 241.834 301.917 242.188C302.257 242.542 302.521 242.962 302.692 243.423C302.863 243.883 302.938 244.374 302.913 244.864Z" fill="#263238"/>
<path d="M319.873 244.864C319.812 245.879 319.369 246.834 318.632 247.535C317.896 248.237 316.921 248.633 315.904 248.644C315.413 248.646 314.928 248.549 314.477 248.358C314.026 248.167 313.618 247.886 313.279 247.532C312.939 247.179 312.675 246.76 312.503 246.301C312.33 245.842 312.253 245.354 312.275 244.864C312.335 243.849 312.778 242.894 313.515 242.193C314.252 241.491 315.227 241.095 316.244 241.084C316.734 241.08 317.221 241.176 317.673 241.367C318.125 241.557 318.533 241.838 318.873 242.192C319.213 242.546 319.476 242.965 319.648 243.425C319.82 243.884 319.897 244.374 319.873 244.864Z" fill="#263238"/>
<path d="M336.933 244.864C336.872 245.879 336.429 246.834 335.693 247.535C334.956 248.237 333.981 248.633 332.964 248.644C332.473 248.65 331.986 248.555 331.533 248.365C331.08 248.175 330.671 247.894 330.331 247.54C329.99 247.186 329.727 246.766 329.555 246.305C329.384 245.845 329.309 245.354 329.335 244.864C329.393 243.848 329.835 242.891 330.572 242.189C331.309 241.487 332.286 241.092 333.304 241.084C333.795 241.08 334.281 241.176 334.733 241.367C335.185 241.557 335.593 241.838 335.933 242.192C336.273 242.546 336.537 242.965 336.709 243.425C336.881 243.884 336.957 244.374 336.933 244.864Z" fill="#263238"/>
<path d="M334.355 90.8865C339.628 85.7292 339.908 77.4627 334.98 72.4228C330.051 67.3829 321.78 67.478 316.507 72.6352C311.233 77.7925 310.953 86.0589 315.882 91.0989C320.81 96.1388 329.081 96.0437 334.355 90.8865Z" fill="#407BFF"/>
<path d="M350.213 111.531C347.074 115.643 343.034 118.982 338.404 121.291C333.773 123.6 328.675 124.817 323.501 124.849C318.484 124.891 313.534 123.699 309.086 121.376C304.639 119.054 300.831 115.672 297.999 111.531C304.123 105.432 313.812 101.451 324.547 101.451C335.282 101.451 344.632 105.432 350.213 111.531Z" fill="#407BFF"/>
<path opacity="0.1" d="M334.355 90.8865C339.628 85.7292 339.908 77.4627 334.98 72.4228C330.051 67.3829 321.78 67.478 316.507 72.6352C311.233 77.7925 310.953 86.0589 315.882 91.0989C320.81 96.1388 329.081 96.0437 334.355 90.8865Z" fill="white"/>
<path opacity="0.1" d="M350.213 111.531C347.074 115.643 343.034 118.982 338.404 121.291C333.773 123.6 328.675 124.817 323.501 124.849C318.484 124.891 313.534 123.699 309.086 121.376C304.639 119.054 300.831 115.672 297.999 111.531C304.123 105.432 313.812 101.451 324.547 101.451C335.282 101.451 344.632 105.432 350.213 111.531Z" fill="white"/>
<path d="M164.83 198.483C163.633 201.104 162.373 203.989 161.276 206.787C160.18 209.584 159.059 212.469 158.089 215.342C156.108 221.004 154.599 226.819 153.578 232.73L153.301 234.582C153.274 234.9 153.304 235.22 153.389 235.527C153.686 236.571 154.155 237.559 154.775 238.45C156.393 240.757 158.27 242.871 160.369 244.75C162.583 246.809 164.904 248.748 167.324 250.559C169.744 252.424 172.289 254.238 174.796 255.952L172.44 260.374C166.453 257.766 160.77 254.508 155.493 250.66C152.678 248.607 150.137 246.202 147.933 243.503C146.627 241.897 145.608 240.076 144.922 238.123C144.523 236.902 144.319 235.627 144.317 234.343C144.317 234.04 144.317 233.599 144.317 233.385V232.768L144.443 231.508C145.165 224.943 146.546 218.468 148.563 212.179C149.546 209.08 150.592 205.993 151.789 202.981C152.986 199.97 154.22 197.022 155.745 193.96L164.83 198.483Z" fill="#E58A7B"/>
<path d="M173.02 255.171L181.928 250.66L179.622 260.437C179.622 260.437 173.511 262.151 170.676 259.177L173.02 255.171Z" fill="#E58A7B"/>
<path d="M190.08 252.26L187.711 260.349L179.622 260.437L181.928 250.66L190.08 252.26Z" fill="#E58A7B"/>
<path d="M202.655 151.309C203.131 153.055 203.794 154.745 204.633 156.349C204.388 156.627 204.072 156.833 203.72 156.946C203.367 157.059 202.99 157.075 202.629 156.991L202.655 151.309Z" fill="#DF5753"/>
<path d="M202.39 151.384C202.912 151.384 203.335 150.736 203.335 149.935C203.335 149.135 202.912 148.486 202.39 148.486C201.868 148.486 201.445 149.135 201.445 149.935C201.445 150.736 201.868 151.384 202.39 151.384Z" fill="#263238"/>
<path d="M202.114 148.537L204.029 147.995C204.029 147.995 203.097 149.482 202.114 148.537Z" fill="#263238"/>
<path d="M178.047 160.557C179.193 166.416 180.34 177.164 176.232 181.083C176.232 181.083 177.845 187.03 188.744 187.03C200.727 187.03 194.465 181.083 194.465 181.083C187.925 179.52 188.089 174.669 189.236 170.108L178.047 160.557Z" fill="#E58A7B"/>
<path d="M174.859 147.201C175.464 156.991 175.515 161.149 180.454 166.177C187.9 173.737 199.795 170.864 202.126 161.137C204.23 152.317 202.894 137.802 193.306 133.908C191.201 133.041 188.91 132.725 186.649 132.991C184.388 133.256 182.232 134.094 180.386 135.425C178.539 136.756 177.062 138.535 176.095 140.596C175.128 142.657 174.703 144.93 174.859 147.201Z" fill="#E58A7B"/>
<path d="M175.829 136.189C170.915 137.978 164.363 136.643 166.933 151.8C169.655 167.853 165.472 173.132 165.472 173.132C165.472 173.132 184.107 177.101 203.133 172.893C203.133 172.893 197.324 162.737 198.95 155.253C201.029 145.803 199.391 142.313 199.391 142.313C199.391 142.313 182.734 133.669 175.829 136.189Z" fill="#263238"/>
<path d="M196.619 152.304C196.624 154.166 197.157 155.988 198.156 157.559C199.492 159.6 201.067 158.819 201.458 156.651C201.81 154.749 201.546 151.385 199.845 150.074C198.144 148.764 196.644 150.049 196.619 152.304Z" fill="#E58A7B"/>
<path d="M171.558 137.839C170.147 133.87 176.875 127.759 191.113 130.279C205.351 132.799 205.969 144.656 205.969 144.656L203.096 141.229L203.222 144.832L188.593 147.642L171.558 137.839Z" fill="#263238"/>
<path d="M172.768 181.751C172.684 181.175 172.827 180.59 173.169 180.119C173.51 179.648 174.022 179.33 174.595 179.231C179.03 178.5 189.11 177.013 194.175 177.719C197.955 178.248 198.938 180.44 199.102 182.242C199.127 182.558 199.085 182.875 198.978 183.173C198.871 183.471 198.701 183.742 198.48 183.969C198.259 184.196 197.992 184.372 197.698 184.488C197.403 184.603 197.087 184.653 196.771 184.636L174.872 183.653C174.355 183.627 173.864 183.424 173.481 183.077C173.097 182.73 172.845 182.262 172.768 181.751Z" fill="#407BFF"/>
<path opacity="0.6" d="M172.768 181.751C172.684 181.175 172.827 180.59 173.169 180.119C173.51 179.648 174.022 179.33 174.595 179.231C179.03 178.5 189.11 177.013 194.175 177.719C197.955 178.248 198.938 180.44 199.102 182.242C199.127 182.558 199.085 182.875 198.978 183.173C198.871 183.471 198.701 183.742 198.48 183.969C198.259 184.196 197.992 184.372 197.698 184.488C197.403 184.603 197.087 184.653 196.771 184.636L174.872 183.653C174.355 183.627 173.864 183.424 173.481 183.077C173.097 182.73 172.845 182.262 172.768 181.751Z" fill="black"/>
<path d="M185.431 401.872L193.558 407.517L207.153 389.083L199.026 383.451L185.431 401.872Z" fill="#E58A7B"/>
<path d="M166.48 401.507L175.061 406.396L187.094 386.904L178.513 382.015L166.48 401.507Z" fill="#E58A7B"/>
<path d="M207.14 389.083L200.135 398.584L192.008 392.952L199.013 383.451L207.14 389.083Z" fill="#CF6F64"/>
<path d="M178.5 382.015L187.094 386.916L180.894 396.958L172.301 392.057L178.5 382.015Z" fill="#CF6F64"/>
<path d="M192.284 243.289C192.284 243.289 224.011 283.269 218.051 321.51C213.251 352.392 185.405 394.212 185.405 394.212L172.314 387.71C181.541 369.22 189.416 350.085 195.875 330.456C197.868 324.362 198.449 317.894 197.576 311.543C196.703 305.191 194.398 299.12 190.835 293.79C174.758 270.316 149.004 284.289 166.329 243.289H192.284Z" fill="#407BFF"/>
<path opacity="0.6" d="M192.284 243.289C192.284 243.289 224.011 283.269 218.051 321.51C213.251 352.392 185.405 394.212 185.405 394.212L172.314 387.71C181.541 369.22 189.416 350.085 195.875 330.456C197.868 324.362 198.449 317.894 197.576 311.543C196.703 305.191 194.398 299.12 190.835 293.79C174.758 270.316 149.004 284.289 166.329 243.289H192.284Z" fill="black"/>
<path opacity="0.4" d="M207.846 268.968L203.234 264.381C203.234 264.747 212.168 319.897 214.675 335.395C216.155 330.867 217.288 326.234 218.065 321.535C221.013 302.773 214.852 283.609 207.846 268.968Z" fill="black"/>
<path d="M206.447 243.289C206.447 243.289 244.651 293.538 245.734 323.664C246.629 348.864 204.154 397.689 204.154 397.689L191.806 389.701C191.806 389.701 216.666 355.026 222.928 326.701C220.509 298.628 169.353 243.289 169.353 243.289H206.447Z" fill="#407BFF"/>
<path opacity="0.6" d="M206.447 243.289C206.447 243.289 244.651 293.538 245.734 323.664C246.629 348.864 204.154 397.689 204.154 397.689L191.806 389.701C191.806 389.701 216.666 355.026 222.928 326.701C220.509 298.628 169.353 243.289 169.353 243.289H206.447Z" fill="black"/>
<path d="M159.185 183.325C155.102 184.296 151.184 199.138 151.184 199.138L167.148 209.798C167.148 209.798 172.465 198.055 170.6 192.914C168.672 187.559 164.313 182.103 159.185 183.325Z" fill="#407BFF"/>
<path opacity="0.2" d="M162.309 192.889L161.201 205.829L167.135 209.811C168.774 206.122 169.987 202.258 170.751 198.294L162.309 192.889Z" fill="black"/>
<path d="M211.173 183.615C211.173 183.615 215.885 185.266 206.448 243.276H166.304C166.984 226.896 166.997 216.816 159.185 183.326C164.806 182.167 170.504 181.418 176.233 181.083C182.302 180.648 188.395 180.648 194.465 181.083C202.302 181.801 211.173 183.615 211.173 183.615Z" fill="#407BFF"/>
<path d="M215.255 192.889C216.162 195.409 217.12 198.118 218.128 200.726C219.136 203.334 220.093 206.018 221.114 208.664L224.201 216.577L224.982 218.555L225.385 219.538L225.574 220.029C225.574 220.117 225.574 220.117 225.574 220.105C225.344 219.78 225.042 219.513 224.692 219.324C224.194 219.03 223.632 218.862 223.054 218.832C222.574 218.817 222.097 218.908 221.656 219.097C221.076 219.361 221.076 219.475 221.089 219.462C221.193 219.378 221.287 219.281 221.366 219.172C222.063 218.257 222.667 217.273 223.168 216.237C223.76 215.077 224.327 213.843 224.894 212.595C226.003 210.075 227.023 207.467 228.044 204.834C229.064 202.2 230.035 199.542 230.98 196.858L233.852 188.819L238.703 190.079C237.746 195.825 236.511 201.419 235.024 207.114C234.306 209.949 233.462 212.759 232.504 215.594C232.025 217.018 231.496 218.429 230.891 219.878C230.261 221.451 229.485 222.961 228.573 224.389C228.238 224.87 227.867 225.324 227.464 225.75C226.821 226.445 226.04 226.998 225.171 227.375C224.4 227.706 223.565 227.861 222.727 227.829C221.788 227.794 220.873 227.521 220.068 227.035C219.119 226.443 218.331 225.624 217.775 224.653C217.586 224.326 217.422 223.998 217.309 223.759L217.069 223.28L216.59 222.297L215.633 220.344C214.373 217.723 213.113 215.077 212.017 212.419C210.92 209.76 209.761 207.064 208.678 204.355C207.594 201.646 206.624 198.937 205.704 196.014L215.255 192.889Z" fill="#E58A7B"/>
<path d="M211.172 183.615C215.998 184.762 221.429 199.025 221.429 199.025L207.077 211.235C207.077 211.235 197.791 195.686 199.669 190.558C201.622 185.216 204.872 182.116 211.172 183.615Z" fill="#407BFF"/>
<path d="M236.133 184.308L241.173 180.1L244.676 185.556L242.093 190.104C242.093 190.104 237.985 193.884 234.356 191.956C233.78 190.662 233.642 189.215 233.963 187.835C234.283 186.454 235.045 185.216 236.133 184.308Z" fill="#E58A7B"/>
<path d="M250.27 180.112L249.892 181.486L241.916 182.821L241.135 180.1L250.27 180.112Z" fill="#E58A7B"/>
<path d="M205.137 398.332L190.748 389.033L193.331 384.547L209.496 394.489L205.137 398.332Z" fill="#407BFF"/>
<path d="M180.693 405.741C179.43 405.586 178.217 405.156 177.14 404.481C177.095 404.465 177.057 404.436 177.029 404.398C177.002 404.36 176.987 404.314 176.987 404.266C176.987 404.219 177.002 404.173 177.029 404.135C177.057 404.097 177.095 404.068 177.14 404.052C177.53 403.926 180.92 402.88 181.902 403.687C182.013 403.779 182.097 403.898 182.146 404.033C182.194 404.169 182.206 404.314 182.18 404.455C182.162 404.682 182.087 404.901 181.961 405.091C181.836 405.28 181.663 405.435 181.461 405.539C181.225 405.668 180.962 405.737 180.693 405.741ZM177.858 404.355C179.433 405.161 180.693 405.451 181.298 405.148C181.429 405.076 181.54 404.97 181.619 404.842C181.699 404.714 181.744 404.568 181.751 404.418C181.751 404.216 181.751 404.128 181.638 404.077C181.109 403.649 179.219 403.977 177.833 404.355H177.858Z" fill="#263238"/>
<path d="M177.228 404.569C177.161 404.568 177.098 404.541 177.052 404.493C177.033 404.459 177.023 404.42 177.023 404.38C177.023 404.34 177.033 404.301 177.052 404.267C177.052 404.153 177.871 401.419 179.156 400.802C179.32 400.727 179.498 400.688 179.679 400.688C179.859 400.688 180.037 400.727 180.202 400.802C180.378 400.857 180.532 400.971 180.637 401.124C180.742 401.277 180.793 401.461 180.781 401.646C180.693 402.78 178.387 404.342 177.329 404.607L177.228 404.569ZM179.672 401.129C179.55 401.133 179.429 401.163 179.32 401.217C178.538 401.595 177.896 403.07 177.581 403.964C178.69 403.498 180.214 402.263 180.265 401.57C180.265 401.457 180.265 401.318 179.975 401.192C179.88 401.142 179.778 401.107 179.672 401.091V401.129Z" fill="#263238"/>
<path d="M198.673 411.184C197.249 411.184 195.271 409.357 194.188 408.235C194.16 408.197 194.145 408.151 194.145 408.103C194.145 408.056 194.16 408.009 194.188 407.971C194.212 407.93 194.248 407.897 194.29 407.875C194.332 407.853 194.379 407.842 194.427 407.845C194.931 407.845 199.303 408.5 199.921 409.735C199.986 409.846 200.02 409.972 200.02 410.1C200.02 410.229 199.986 410.355 199.921 410.466C199.828 410.658 199.688 410.824 199.514 410.947C199.34 411.07 199.137 411.148 198.925 411.171L198.673 411.184ZM195.019 408.412C196.607 409.949 198.005 410.806 198.799 410.705C198.938 410.687 199.071 410.635 199.185 410.554C199.299 410.472 199.392 410.364 199.454 410.239C199.483 410.196 199.498 410.145 199.498 410.094C199.498 410.042 199.483 409.992 199.454 409.949C199.127 409.269 196.796 408.689 195.019 408.412Z" fill="#263238"/>
<path d="M195.158 408.349C194.875 408.357 194.592 408.336 194.313 408.286C194.275 408.28 194.238 408.264 194.207 408.24C194.176 408.216 194.152 408.184 194.137 408.147C194.118 408.11 194.108 408.069 194.108 408.028C194.108 407.986 194.118 407.945 194.137 407.908C194.213 407.82 195.914 405.766 197.526 405.627C197.983 405.592 198.435 405.737 198.786 406.031C199.278 406.459 199.253 406.837 199.127 407.076C198.812 407.933 196.632 408.349 195.158 408.349ZM194.83 407.883C196.241 407.958 198.497 407.492 198.786 406.875C198.786 406.875 198.887 406.673 198.56 406.396C198.429 406.283 198.277 406.197 198.112 406.145C197.948 406.093 197.774 406.076 197.602 406.094C196.516 406.397 195.548 407.026 194.83 407.895V407.883Z" fill="#263238"/>
<path d="M177.568 403.208L166.883 400.184C166.699 400.128 166.501 400.142 166.327 400.224C166.152 400.305 166.014 400.448 165.938 400.625L162.335 408.727C162.25 408.934 162.21 409.157 162.218 409.381C162.226 409.605 162.281 409.825 162.38 410.026C162.479 410.227 162.619 410.405 162.791 410.548C162.964 410.691 163.165 410.796 163.381 410.856C167.161 411.839 168.975 412.116 173.675 413.464C176.573 414.271 180.706 415.77 184.7 416.904C188.694 418.038 190.03 414.145 188.48 413.313C181.474 409.609 180.92 407.013 179.005 404.241C178.662 403.739 178.153 403.374 177.568 403.208Z" fill="#407BFF"/>
<path d="M194.478 406.761L185.355 400.461C185.201 400.349 185.01 400.297 184.82 400.315C184.629 400.334 184.452 400.422 184.322 400.562L178.274 407.064C178.127 407.232 178.017 407.429 177.952 407.643C177.887 407.857 177.868 408.082 177.896 408.304C177.925 408.525 178 408.738 178.118 408.929C178.235 409.119 178.391 409.282 178.577 409.407C181.79 411.562 183.453 412.431 187.472 415.216C189.992 416.929 194.868 420.735 198.27 423.103C201.672 425.472 204.205 422.221 202.995 420.936C197.577 415.153 196.393 411.524 195.498 408.235C195.343 407.639 194.982 407.117 194.478 406.761Z" fill="#407BFF"/>
<path d="M187.081 395.043L170.638 386.866L172.339 382.406L189.903 391.024L187.081 395.043Z" fill="#407BFF"/>
<path d="M165.699 240.92L164.313 244.549C164.174 244.826 164.502 245.116 164.968 245.116H206.649C207.014 245.116 207.317 244.939 207.342 244.713L207.695 241.109C207.695 240.87 207.405 240.655 207.014 240.655H166.354C166.232 240.644 166.108 240.662 165.994 240.708C165.88 240.754 165.779 240.827 165.699 240.92Z" fill="#407BFF"/>
<path opacity="0.4" d="M165.699 240.92L164.313 244.549C164.174 244.826 164.502 245.116 164.968 245.116H206.649C207.014 245.116 207.317 244.939 207.342 244.713L207.695 241.109C207.695 240.87 207.405 240.655 207.014 240.655H166.354C166.232 240.644 166.108 240.662 165.994 240.708C165.88 240.754 165.779 240.827 165.699 240.92Z" fill="white"/>
<path d="M172.263 245.469H171.167C170.953 245.469 170.789 245.355 170.801 245.217L171.318 240.542C171.318 240.416 171.52 240.303 171.734 240.303H172.83C173.044 240.303 173.208 240.416 173.195 240.542L172.679 245.217C172.666 245.355 172.477 245.469 172.263 245.469Z" fill="#407BFF"/>
<path d="M197.968 245.469H196.884C196.67 245.469 196.506 245.355 196.519 245.217L197.023 240.542C197.023 240.416 197.237 240.303 197.451 240.303H198.535C198.749 240.303 198.925 240.416 198.9 240.542L198.396 245.217C198.333 245.355 198.195 245.469 197.968 245.469Z" fill="#407BFF"/>
<g style="mix-blend-mode:multiply">
<path d="M171.306 458.85C189.949 458.85 205.062 457.755 205.062 456.405C205.062 455.055 189.949 453.961 171.306 453.961C152.664 453.961 137.551 455.055 137.551 456.405C137.551 457.755 152.664 458.85 171.306 458.85Z" fill="#F5F5F5"/>
</g>
<path d="M191.869 452.953C185.897 451.214 179.269 448.984 175.262 446.653C175.149 446.577 175.023 446.539 174.91 446.476V419.437H186.993C187.91 419.382 188.772 418.98 189.402 418.311C190.033 417.643 190.384 416.758 190.384 415.84C190.384 414.921 190.033 414.036 189.402 413.368C188.772 412.699 187.91 412.297 186.993 412.242H174.973V288.989H167.715V412.242H155.707C155.217 412.213 154.726 412.285 154.264 412.452C153.802 412.62 153.38 412.88 153.023 413.217C152.665 413.554 152.38 413.96 152.186 414.411C151.991 414.862 151.891 415.348 151.891 415.84C151.891 416.331 151.991 416.817 152.186 417.268C152.38 417.719 152.665 418.125 153.023 418.462C153.38 418.799 153.802 419.059 154.264 419.227C154.726 419.394 155.217 419.466 155.707 419.437H167.715V446.439C167.602 446.439 167.488 446.539 167.375 446.615C163.305 448.984 156.728 451.214 150.755 452.915C150.352 453.037 150.006 453.299 149.779 453.655C149.552 454.01 149.46 454.435 149.52 454.852C149.579 455.269 149.786 455.652 150.103 455.93C150.419 456.207 150.825 456.363 151.247 456.367H191.378C191.781 456.34 192.162 456.175 192.458 455.901C192.754 455.626 192.946 455.258 193.004 454.859C193.061 454.459 192.98 454.052 192.774 453.705C192.567 453.358 192.248 453.093 191.869 452.953Z" fill="#E0E0E0"/>
<path d="M193.721 276.439H148.915C145.311 276.439 142.389 279.362 142.389 282.966V296.284C142.389 299.889 145.311 302.811 148.915 302.811H193.721C197.326 302.811 200.248 299.889 200.248 296.284V282.966C200.248 279.362 197.326 276.439 193.721 276.439Z" fill="#407BFF"/>
<path d="M148.5 302.824V305.117C148.5 307.007 150.554 308.544 153.074 308.544H189.614C192.134 308.544 194.188 307.007 194.188 305.117V302.824H148.5Z" fill="#407BFF"/>
<path opacity="0.3" d="M148.5 302.824V305.117C148.5 307.007 150.554 308.544 153.074 308.544H189.614C192.134 308.544 194.188 307.007 194.188 305.117V302.824H148.5Z" fill="white"/>
</svg>
