<svg width="33" height="33" viewBox="0 0 33 33" fill="none" xmlns="http://www.w3.org/2000/svg">
<g filter="url(#filter0_d_656_410)">
<path d="M26.2222 0H6.77778C5.25 0 4 1.25 4 2.77778V22.2222C4 23.75 5.25 25 6.77778 25H26.2222C27.75 25 29 23.75 29 22.2222V2.77778C29 1.25 27.75 0 26.2222 0ZM10.9444 19.4444C10.1806 19.4444 9.55556 18.8194 9.55556 18.0556V11.1111C9.55556 10.3472 10.1806 9.72222 10.9444 9.72222C11.7083 9.72222 12.3333 10.3472 12.3333 11.1111V18.0556C12.3333 18.8194 11.7083 19.4444 10.9444 19.4444ZM16.5 19.4444C15.7361 19.4444 15.1111 18.8194 15.1111 18.0556V6.94444C15.1111 6.18056 15.7361 5.55556 16.5 5.55556C17.2639 5.55556 17.8889 6.18056 17.8889 6.94444V18.0556C17.8889 18.8194 17.2639 19.4444 16.5 19.4444ZM22.0556 19.4444C21.2917 19.4444 20.6667 18.8194 20.6667 18.0556V15.2778C20.6667 14.5139 21.2917 13.8889 22.0556 13.8889C22.8194 13.8889 23.4444 14.5139 23.4444 15.2778V18.0556C23.4444 18.8194 22.8194 19.4444 22.0556 19.4444Z" fill="black"/>
</g>
<defs>
<filter id="filter0_d_656_410" x="2.38419e-07" y="0" width="33" height="33" filterUnits="userSpaceOnUse" color-interpolation-filters="sRGB">
<feFlood flood-opacity="0" result="BackgroundImageFix"/>
<feColorMatrix in="SourceAlpha" type="matrix" values="0 0 0 0 0 0 0 0 0 0 0 0 0 0 0 0 0 0 127 0" result="hardAlpha"/>
<feOffset dy="4"/>
<feGaussianBlur stdDeviation="2"/>
<feComposite in2="hardAlpha" operator="out"/>
<feColorMatrix type="matrix" values="0 0 0 0 0 0 0 0 0 0 0 0 0 0 0 0 0 0 0.25 0"/>
<feBlend mode="normal" in2="BackgroundImageFix" result="effect1_dropShadow_656_410"/>
<feBlend mode="normal" in="SourceGraphic" in2="effect1_dropShadow_656_410" result="shape"/>
</filter>
</defs>
</svg>
