<svg width="299" height="246" viewBox="0 0 299 246" fill="none" xmlns="http://www.w3.org/2000/svg">
<path d="M143.013 245.75C217.776 245.75 278.382 242.145 278.382 237.699C278.382 233.253 217.776 229.649 143.013 229.649C68.2514 229.649 7.64473 233.253 7.64473 237.699C7.64473 242.145 68.2514 245.75 143.013 245.75Z" fill="#407BFF"/>
<path opacity="0.6" d="M143.013 245.75C217.776 245.75 278.382 242.145 278.382 237.699C278.382 233.253 217.776 229.649 143.013 229.649C68.2514 229.649 7.64473 233.253 7.64473 237.699C7.64473 242.145 68.2514 245.75 143.013 245.75Z" fill="white"/>
<path d="M32.4545 67.1266H257.876C259.883 67.1266 261.807 67.9237 263.226 69.3426C264.645 70.7615 265.442 72.6859 265.442 74.6925V223.262H24.8958V74.6925C24.8958 72.6871 25.692 70.7638 27.1093 69.3451C28.5266 67.9265 30.4492 67.1285 32.4545 67.1266Z" fill="#407BFF" stroke="#263238" stroke-width="0.537702" stroke-miterlimit="10"/>
<path d="M255.685 79.3289H34.6534V204.239H255.685V79.3289Z" fill="white"/>
<mask id="mask0_1_581" style="mask-type:luminance" maskUnits="userSpaceOnUse" x="34" y="79" width="222" height="126">
<path d="M255.685 79.3289H34.6534V204.239H255.685V79.3289Z" fill="white"/>
</mask>
<g mask="url(#mask0_1_581)">
<g style="mix-blend-mode:multiply" opacity="0.4">
<path d="M255.685 204.239V97.6144L72.8517 204.239H255.685Z" fill="#407BFF"/>
</g>
</g>
<path d="M255.685 79.3289H34.6534V204.239H255.685V79.3289Z" stroke="#263238" stroke-width="0.403276" stroke-miterlimit="10"/>
<path d="M228.372 215.747H63.058V223.891H228.372V215.747Z" fill="#407BFF" stroke="#263238" stroke-width="0.403998" stroke-miterlimit="10"/>
<path d="M228.372 219.674H63.058V223.898H228.372V219.674Z" fill="#407BFF" stroke="#263238" stroke-width="0.403998" stroke-miterlimit="10"/>
<path d="M5.43861 228.723C5.43861 228.723 8.15829 232.043 16.2884 234.755H275.135C275.135 234.755 281.167 233.244 283.887 229.019L5.43861 228.723Z" fill="#407BFF" stroke="#263238" stroke-width="0.537702" stroke-miterlimit="10"/>
<path d="M282.52 222.777H6.84184C5.76325 222.777 4.88889 223.652 4.88889 224.73V227.168C4.88889 228.246 5.76325 229.121 6.84184 229.121H282.52C283.598 229.121 284.473 228.246 284.473 227.168V224.73C284.473 223.652 283.598 222.777 282.52 222.777Z" fill="#407BFF" stroke="#263238" stroke-width="0.537702" stroke-miterlimit="10"/>
<path d="M145.118 73.9619C146.285 73.9619 147.23 73.0163 147.23 71.8498C147.23 70.6834 146.285 69.7378 145.118 69.7378C143.952 69.7378 143.006 70.6834 143.006 71.8498C143.006 73.0163 143.952 73.9619 145.118 73.9619Z" fill="#263238"/>
<path d="M117.213 69.7378H64.4106C64.2719 69.7378 64.1346 69.7105 64.0065 69.6574C63.8784 69.6043 63.762 69.5265 63.6639 69.4285C63.5658 69.3304 63.488 69.214 63.435 69.0859C63.3819 68.9577 63.3546 68.8204 63.3546 68.6817C63.3546 68.5431 63.3819 68.4057 63.435 68.2776C63.488 68.1495 63.5658 68.0331 63.6639 67.935C63.762 67.8369 63.8784 67.7592 64.0065 67.7061C64.1346 67.653 64.2719 67.6257 64.4106 67.6257H117.213C117.492 67.6276 117.76 67.7395 117.957 67.9371C118.155 68.1347 118.267 68.4022 118.269 68.6817C118.269 68.9618 118.158 69.2304 117.959 69.4285C117.761 69.6265 117.493 69.7378 117.213 69.7378Z" fill="#407BFF" stroke="#263238" stroke-width="0.403998" stroke-miterlimit="10"/>
<path d="M224.907 69.7378H172.105C171.825 69.7378 171.557 69.6265 171.359 69.4285C171.161 69.2304 171.049 68.9618 171.049 68.6817C171.051 68.4022 171.163 68.1347 171.361 67.9371C171.558 67.7395 171.826 67.6276 172.105 67.6257H224.907C225.188 67.6257 225.456 67.737 225.654 67.935C225.852 68.133 225.963 68.4017 225.963 68.6817C225.963 68.9618 225.852 69.2304 225.654 69.4285C225.456 69.6265 225.188 69.7378 224.907 69.7378Z" fill="#407BFF" stroke="#263238" stroke-width="0.403998" stroke-miterlimit="10"/>
<path d="M263.373 111.068C263.214 111.068 263.06 111.005 262.946 110.893C262.833 110.78 262.768 110.628 262.766 110.468V92.9707C262.768 92.8102 262.832 92.6567 262.946 92.5432C263.059 92.4296 263.213 92.365 263.373 92.3631C263.533 92.365 263.686 92.4299 263.798 92.5436C263.911 92.6574 263.974 92.8108 263.974 92.9707V110.468C263.974 110.627 263.911 110.78 263.798 110.892C263.685 111.005 263.533 111.068 263.373 111.068Z" fill="#407BFF" stroke="#263238" stroke-width="0.403998" stroke-miterlimit="10"/>
<path d="M27.1598 111.068C27.081 111.068 27.0029 111.053 26.9301 111.022C26.8572 110.992 26.791 110.948 26.7353 110.892C26.6796 110.837 26.6353 110.77 26.6052 110.697C26.575 110.625 26.5595 110.547 26.5595 110.468V92.9707C26.5595 92.8108 26.6225 92.6574 26.7349 92.5436C26.8472 92.4299 26.9999 92.365 27.1598 92.3631C27.3204 92.365 27.4738 92.4296 27.5874 92.5432C27.7009 92.6567 27.7655 92.8102 27.7674 92.9707V110.468C27.7655 110.628 27.7006 110.78 27.5869 110.893C27.4732 111.005 27.3197 111.068 27.1598 111.068Z" fill="#407BFF" stroke="#263238" stroke-width="0.403998" stroke-miterlimit="10"/>
<path d="M192.488 115.654C193.516 114.931 194.622 113.643 194.658 112.283C194.672 111.965 194.619 111.647 194.502 111.35C194.385 111.053 194.208 110.784 193.981 110.56C193.754 110.336 193.483 110.162 193.185 110.049C192.887 109.935 192.568 109.886 192.25 109.904C190.333 110.077 188.633 113.086 188.228 114.757C188.228 114.902 187.939 117.224 187.975 117.216C188.011 117.209 191.273 116.515 192.488 115.654Z" fill="#263238"/>
<path d="M175.932 151.921C175.886 151.663 175.786 151.418 175.638 151.201C175.49 150.985 175.298 150.802 175.075 150.665C174.851 150.529 174.601 150.441 174.341 150.408C174.081 150.375 173.817 150.398 173.566 150.474C172.12 150.973 171.302 153.686 171.324 155.089C171.324 155.176 171.462 156.232 171.541 156.767C171.375 156.355 171.216 155.935 171.049 155.501C170.811 154.872 170.579 154.207 170.326 153.556L170 152.521C169.885 152.174 169.812 151.798 169.718 151.48C169.588 150.959 169.48 150.417 169.371 149.874C170.547 149.548 171.665 149.04 172.684 148.37C173.472 147.646 174.275 146.583 174.196 145.476C174.186 145.216 174.122 144.961 174.007 144.727C173.893 144.494 173.73 144.287 173.53 144.121C173.33 143.954 173.097 143.832 172.847 143.761C172.596 143.691 172.334 143.674 172.076 143.711C170.536 143.986 169.349 146.547 169.183 147.936C169.183 147.979 169.183 148.276 169.183 148.659C169.096 148.124 169.002 147.596 168.93 147.053C168.713 145.52 168.547 143.95 168.373 142.38C168.337 142.048 168.293 141.722 168.257 141.397C169.466 141.058 170.617 140.538 171.671 139.856C172.46 139.133 173.263 138.07 173.183 136.963C173.173 136.703 173.108 136.449 172.993 136.216C172.878 135.983 172.715 135.776 172.515 135.61C172.316 135.444 172.083 135.321 171.833 135.25C171.583 135.179 171.321 135.161 171.064 135.198C169.523 135.473 168.337 138.033 168.17 139.422C168.17 139.473 168.17 139.827 168.17 140.218C168.062 139.371 167.946 138.518 167.802 137.679C167.565 136.239 167.234 134.815 166.811 133.419C167.006 133.361 169.444 132.623 170.333 131.849C171.114 131.126 171.925 130.062 171.838 128.956C171.828 128.696 171.764 128.441 171.649 128.207C171.535 127.973 171.372 127.767 171.172 127.6C170.972 127.433 170.739 127.311 170.489 127.24C170.238 127.17 169.976 127.153 169.718 127.191C168.178 127.466 166.991 130.026 166.825 131.415C166.825 131.509 166.782 132.797 166.789 133.252C166.786 133.235 166.786 133.218 166.789 133.202C166.334 131.842 165.761 130.525 165.075 129.267C164.47 128.138 163.798 127.046 163.064 125.997C162.391 125.014 161.719 124.16 161.111 123.408C160.785 123.003 160.474 122.634 160.185 122.301C160.185 122.301 159.664 120.486 159.614 120.37C159.057 119.09 157.227 116.941 155.664 117.101C155.407 117.133 155.159 117.219 154.937 117.354C154.715 117.489 154.524 117.669 154.377 117.883C154.229 118.097 154.128 118.339 154.081 118.594C154.034 118.85 154.041 119.112 154.102 119.365C154.319 120.45 155.389 121.281 156.337 121.737C157.542 122.116 158.799 122.304 160.062 122.294C160.359 122.656 160.67 123.017 161.002 123.466C161.588 124.232 162.247 125.1 162.89 126.091C163.064 126.359 163.237 126.648 163.411 126.923C163.02 126.518 162.478 125.961 162.413 125.918C161.328 125.035 158.717 123.972 157.408 124.826C157.194 124.974 157.013 125.166 156.878 125.389C156.743 125.612 156.656 125.86 156.624 126.119C156.591 126.377 156.613 126.64 156.688 126.889C156.763 127.139 156.89 127.37 157.06 127.567C157.455 127.956 157.928 128.257 158.448 128.447C158.969 128.638 159.524 128.715 160.077 128.674C161.162 128.674 163.216 127.661 163.693 127.444C164.077 128.066 164.416 128.717 164.8 129.419C165.45 130.675 165.988 131.987 166.406 133.339C166.406 133.419 166.406 133.505 166.463 133.585C166.304 133.346 165.342 132.138 165.263 132.044C164.279 131.046 161.798 129.701 160.402 130.41C160.173 130.533 159.972 130.704 159.813 130.91C159.655 131.117 159.541 131.354 159.48 131.607C159.42 131.861 159.413 132.124 159.461 132.38C159.509 132.636 159.61 132.879 159.758 133.093C160.351 134.019 161.653 134.417 162.695 134.496C163.896 134.59 166.384 133.672 166.478 133.636C166.856 134.997 167.146 136.381 167.346 137.78C167.498 138.815 167.614 139.863 167.715 140.927C167.505 140.623 166.601 139.48 166.529 139.408C165.545 138.409 163.064 137.071 161.668 137.773C161.439 137.897 161.238 138.067 161.079 138.274C160.92 138.48 160.807 138.718 160.746 138.971C160.685 139.224 160.679 139.487 160.727 139.743C160.775 139.999 160.876 140.242 161.024 140.456C161.617 141.39 162.919 141.78 163.961 141.86C165.133 141.954 167.52 141.086 167.722 141.013C167.773 141.491 167.816 141.975 167.859 142.46C168.004 144.037 168.134 145.614 168.315 147.169C168.38 147.704 168.46 148.232 168.539 148.76C168.207 148.319 167.577 147.531 167.52 147.465C166.536 146.474 164.055 145.129 162.659 145.838C162.429 145.96 162.228 146.13 162.069 146.335C161.909 146.541 161.795 146.777 161.733 147.03C161.672 147.283 161.665 147.546 161.712 147.802C161.759 148.057 161.86 148.3 162.008 148.514C162.608 149.447 163.91 149.838 164.952 149.917C166.191 149.838 167.411 149.567 168.568 149.115C168.706 149.997 168.858 150.865 169.053 151.711C169.147 152.08 169.219 152.435 169.328 152.796C169.436 153.158 169.523 153.52 169.624 153.838C169.856 154.561 170.066 155.19 170.297 155.841C170.413 156.167 170.528 156.471 170.644 156.789C170.377 156.29 169.921 155.509 169.878 155.444C169.06 154.315 166.811 152.608 165.321 153.093C165.076 153.18 164.852 153.319 164.664 153.499C164.476 153.678 164.328 153.896 164.23 154.137C164.131 154.378 164.085 154.637 164.094 154.897C164.102 155.157 164.165 155.412 164.279 155.646C164.728 156.659 165.957 157.245 166.97 157.483C167.982 157.722 170.507 157.274 170.796 157.216C171.085 157.99 171.375 158.742 171.65 159.444C172.539 161.657 173.357 163.465 173.95 164.724C174.543 165.982 174.912 166.691 174.912 166.691C174.981 166.814 175.094 166.906 175.23 166.946C175.365 166.987 175.51 166.973 175.635 166.908C175.757 166.838 175.847 166.724 175.887 166.59C175.928 166.455 175.915 166.31 175.852 166.185C175.852 166.185 175.483 165.505 174.868 164.268C174.254 163.031 173.422 161.266 172.481 159.096C172.214 158.467 171.939 157.802 171.664 157.114C171.946 156.977 174.152 155.914 174.89 155.031C175.628 154.149 176.178 152.999 175.932 151.921Z" fill="#263238"/>
<path d="M163.693 127.14C163.693 127.14 166.029 125.694 166.702 124.674C167.281 123.798 167.765 122.504 167.425 121.491C167.347 121.243 167.217 121.015 167.045 120.821C166.872 120.627 166.66 120.471 166.424 120.364C166.187 120.257 165.93 120.201 165.671 120.199C165.411 120.198 165.153 120.251 164.916 120.355C163.469 121.021 163.035 123.806 163.216 125.194C163.216 125.31 163.693 127.155 163.693 127.14Z" fill="#263238"/>
<path d="M199.295 115.654C200.503 116.551 203.816 117.216 203.816 117.216C203.816 117.216 203.599 114.902 203.562 114.757C203.179 113.086 201.465 110.077 199.548 109.904C199.229 109.885 198.91 109.934 198.612 110.046C198.313 110.159 198.041 110.333 197.814 110.557C197.587 110.782 197.409 111.051 197.293 111.349C197.177 111.646 197.125 111.964 197.139 112.283C197.154 113.607 198.26 114.858 199.295 115.654Z" fill="#263238"/>
<path d="M213.038 147.733C211.121 147.813 209.248 150.728 208.785 152.384C208.785 152.478 208.582 153.57 208.481 154.265C208.481 153.845 208.481 153.447 208.481 153.02C208.481 152.174 208.438 151.328 208.401 150.424C208.401 149.99 208.343 149.549 208.307 149.1C208.271 148.652 208.206 148.189 208.155 147.733C208.018 146.67 207.83 145.607 207.613 144.529C208.336 144.529 210.984 144.449 212.148 143.914C213.313 143.379 214.644 142.366 214.933 141.021C215.014 140.711 215.028 140.388 214.975 140.073C214.921 139.758 214.802 139.457 214.624 139.192C214.447 138.926 214.215 138.701 213.944 138.531C213.673 138.361 213.369 138.251 213.052 138.207C211.143 137.983 208.85 140.587 208.141 142.156C208.098 142.25 207.714 143.429 207.519 144.08C207.381 143.437 207.251 142.793 207.099 142.149C206.644 140.283 206.123 138.409 205.617 136.536C205.457 135.965 205.313 135.386 205.161 134.815C205.573 134.815 208.582 134.815 209.855 134.193C211.128 133.571 212.351 132.645 212.64 131.299C212.719 130.99 212.733 130.667 212.679 130.353C212.625 130.038 212.506 129.738 212.328 129.472C212.151 129.207 211.92 128.982 211.649 128.812C211.379 128.642 211.076 128.53 210.759 128.486C208.85 128.269 206.564 130.873 205.855 132.435C205.797 132.551 205.248 134.25 205.132 134.692C204.799 133.426 204.481 132.167 204.221 130.909C203.86 129.217 203.611 127.504 203.476 125.78C203.7 125.78 206.882 125.78 208.199 125.158C209.363 124.623 210.694 123.61 210.991 122.265C211.069 121.955 211.081 121.632 211.027 121.318C210.972 121.003 210.852 120.703 210.674 120.438C210.496 120.172 210.264 119.947 209.993 119.777C209.723 119.607 209.419 119.496 209.103 119.451C207.193 119.234 204.908 121.838 204.199 123.401C204.141 123.524 203.555 125.354 203.476 125.686C203.476 125.592 203.476 125.484 203.476 125.383C203.379 123.647 203.437 121.907 203.649 120.182C203.758 119.227 203.91 118.316 204.083 117.441C204.705 117.506 207.468 117.752 208.734 117.325C210 116.898 211.389 116.066 211.823 114.779C211.934 114.48 211.982 114.161 211.962 113.843C211.943 113.524 211.856 113.213 211.709 112.93C211.562 112.647 211.357 112.399 211.107 112.2C210.858 112.001 210.569 111.857 210.26 111.777C208.38 111.35 205.819 113.687 204.944 115.162C204.901 115.242 204.503 116.11 204.221 116.753C204.3 116.356 204.38 115.943 204.467 115.567C204.792 114.121 205.19 112.869 205.523 111.741C205.725 111.104 205.92 110.526 206.108 109.99C206.738 109.737 209.255 108.703 210.166 107.755C211.078 106.808 211.938 105.412 211.729 104.074C211.691 103.756 211.587 103.451 211.423 103.176C211.26 102.902 211.04 102.665 210.778 102.481C210.517 102.298 210.22 102.171 209.906 102.11C209.592 102.05 209.27 102.056 208.958 102.128C207.099 102.613 205.906 105.867 205.805 107.582C205.805 107.726 205.935 110.063 205.964 110.048H206C205.812 110.562 205.609 111.112 205.4 111.719C205.031 112.84 204.618 114.113 204.264 115.531C203.863 117.052 203.552 118.595 203.331 120.153C203.079 121.896 202.982 123.658 203.042 125.419V125.484C202.854 124.956 202.275 123.487 202.217 123.386C201.407 121.867 198.948 119.422 197.06 119.77C196.637 119.845 196.248 120.05 195.946 120.356C195.645 120.048 195.255 119.844 194.832 119.77C192.944 119.43 190.492 121.874 189.682 123.386C189.624 123.487 189.038 124.956 188.85 125.484C188.85 125.484 188.85 125.44 188.85 125.419C188.908 123.658 188.808 121.896 188.554 120.153C188.332 118.596 188.022 117.053 187.628 115.531C187.273 114.084 186.861 112.84 186.485 111.719C186.275 111.112 186.08 110.562 185.885 110.048H185.921C185.921 110.048 186.087 107.726 186.08 107.582C185.986 105.867 184.785 102.613 182.926 102.128C182.615 102.056 182.292 102.05 181.978 102.11C181.665 102.171 181.367 102.298 181.106 102.481C180.845 102.665 180.625 102.902 180.461 103.176C180.297 103.451 180.193 103.756 180.156 104.074C179.946 105.412 180.829 106.837 181.718 107.755C182.608 108.674 185.147 109.737 185.776 109.99C185.964 110.526 186.159 111.104 186.369 111.741C186.716 112.869 187.092 114.149 187.418 115.567C187.505 115.943 187.584 116.356 187.671 116.753C187.389 116.11 186.998 115.242 186.948 115.162C186.073 113.715 183.512 111.35 181.639 111.777C181.329 111.856 181.04 112 180.79 112.198C180.54 112.396 180.334 112.645 180.187 112.929C180.039 113.212 179.953 113.523 179.934 113.842C179.915 114.161 179.964 114.48 180.076 114.779C180.51 116.066 181.942 116.949 183.158 117.325C184.373 117.701 187.186 117.506 187.816 117.441C187.982 118.316 188.134 119.227 188.243 120.182C188.457 121.907 188.518 123.647 188.423 125.383C188.423 125.484 188.423 125.592 188.387 125.686C188.308 125.354 187.715 123.516 187.664 123.401C186.941 121.838 184.662 119.234 182.753 119.451C182.436 119.496 182.133 119.607 181.863 119.777C181.592 119.947 181.361 120.172 181.183 120.438C181.006 120.703 180.887 121.003 180.833 121.318C180.779 121.633 180.792 121.956 180.872 122.265C181.161 123.589 182.492 124.601 183.657 125.158C184.973 125.766 188.156 125.78 188.38 125.78C188.237 127.509 187.983 129.227 187.62 130.923C187.353 132.182 187.035 133.44 186.702 134.706C186.586 134.265 186.036 132.536 185.979 132.449C185.255 130.887 182.977 128.283 181.067 128.5C180.751 128.545 180.448 128.656 180.177 128.826C179.907 128.996 179.676 129.221 179.498 129.487C179.321 129.752 179.201 130.052 179.148 130.367C179.094 130.682 179.107 131.004 179.187 131.314C179.476 132.637 180.807 133.65 181.971 134.207C183.244 134.793 186.261 134.829 186.666 134.829C186.514 135.4 186.369 135.979 186.21 136.551C185.704 138.424 185.183 140.297 184.763 142.164C184.604 142.807 184.474 143.451 184.337 144.095C184.141 143.444 183.758 142.265 183.715 142.171C182.991 140.601 180.713 137.997 178.803 138.221C178.487 138.266 178.184 138.377 177.913 138.547C177.643 138.717 177.412 138.943 177.234 139.208C177.057 139.474 176.937 139.774 176.884 140.088C176.83 140.403 176.843 140.726 176.923 141.035C177.212 142.359 178.543 143.364 179.707 143.928C180.872 144.493 183.49 144.536 184.243 144.543C184.026 145.621 183.838 146.713 183.7 147.748C183.649 148.203 183.57 148.673 183.548 149.115C183.527 149.556 183.483 150.004 183.454 150.438C183.418 151.342 183.389 152.189 183.382 153.035C183.382 153.462 183.382 153.86 183.382 154.279C183.281 153.556 183.1 152.492 183.071 152.398C182.608 150.742 180.742 147.827 178.818 147.748C178.499 147.745 178.183 147.81 177.89 147.937C177.598 148.064 177.335 148.252 177.12 148.487C176.904 148.722 176.741 149 176.64 149.303C176.538 149.605 176.502 149.925 176.532 150.243C176.619 151.603 177.783 152.796 178.854 153.505C179.924 154.214 182.904 154.756 183.375 154.829C183.375 155.849 183.375 156.832 183.375 157.758C183.454 160.688 183.628 163.118 183.772 164.825C183.917 166.532 184.04 167.501 184.04 167.501C184.081 167.665 184.182 167.807 184.323 167.901C184.464 167.994 184.634 168.032 184.801 168.007C184.968 167.982 185.12 167.895 185.226 167.764C185.333 167.633 185.387 167.467 185.378 167.299C185.378 167.299 185.241 166.358 185.06 164.673C184.879 162.988 184.655 160.586 184.51 157.693C184.474 156.861 184.438 155.972 184.416 155.06C184.894 155.017 187.823 154.72 189.016 154.04C190.21 153.36 191.374 152.283 191.548 150.937C191.599 150.622 191.584 150.3 191.502 149.991C191.421 149.683 191.276 149.395 191.076 149.146C190.876 148.897 190.626 148.693 190.342 148.546C190.059 148.4 189.747 148.315 189.429 148.297C187.505 148.247 185.451 151.039 184.879 152.637C184.843 152.738 184.546 154.011 184.416 154.662C184.416 154.113 184.416 153.57 184.416 152.992C184.416 152.174 184.416 151.299 184.416 150.453C184.416 150.019 184.467 149.578 184.489 149.129C184.51 148.681 184.568 148.247 184.604 147.805C184.677 147.147 184.778 146.482 184.886 145.809C185.747 145.852 188.199 145.925 189.349 145.484C190.499 145.042 191.946 144.102 192.315 142.8C192.414 142.497 192.448 142.176 192.415 141.858C192.382 141.541 192.283 141.234 192.123 140.957C191.963 140.681 191.747 140.441 191.488 140.254C191.23 140.067 190.935 139.936 190.622 139.871C188.734 139.523 186.282 141.975 185.465 143.487L185.147 144.276C185.262 143.625 185.385 142.974 185.53 142.323C185.935 140.464 186.413 138.583 186.883 136.695L187.165 135.516C187.888 135.552 190.55 135.661 191.758 135.198C192.966 134.735 194.355 133.816 194.731 132.514C194.829 132.211 194.862 131.889 194.828 131.572C194.794 131.254 194.693 130.947 194.533 130.671C194.373 130.395 194.156 130.156 193.897 129.968C193.639 129.781 193.343 129.651 193.031 129.585C191.143 129.238 188.691 131.69 187.874 133.202C187.874 133.259 187.686 133.657 187.505 134.113C187.743 133.086 187.968 132.059 188.163 131.032C188.506 129.272 188.728 127.491 188.828 125.701C189.233 125.701 192.25 125.889 193.559 125.383C194.477 125.046 195.298 124.487 195.946 123.755C196.594 124.487 197.414 125.046 198.333 125.383C199.642 125.889 202.673 125.723 203.063 125.701C203.167 127.49 203.39 129.271 203.729 131.032C203.924 132.059 204.148 133.086 204.387 134.113C204.206 133.657 204.047 133.259 204.018 133.202C203.208 131.69 200.756 129.238 198.861 129.585C198.548 129.651 198.253 129.781 197.995 129.968C197.736 130.156 197.52 130.395 197.36 130.672C197.201 130.948 197.101 131.255 197.068 131.573C197.035 131.89 197.069 132.211 197.168 132.514C197.544 133.816 198.94 134.735 200.134 135.198C201.327 135.661 204.018 135.552 204.727 135.516C204.821 135.914 204.915 136.305 205.016 136.695C205.479 138.583 205.957 140.464 206.369 142.323C206.514 142.974 206.629 143.625 206.752 144.276C206.593 143.878 206.456 143.552 206.427 143.487C205.617 141.975 203.165 139.523 201.269 139.871C200.957 139.936 200.662 140.067 200.403 140.254C200.145 140.441 199.929 140.681 199.769 140.957C199.609 141.234 199.51 141.541 199.476 141.858C199.443 142.176 199.478 142.497 199.577 142.8C199.953 144.102 201.349 145.021 202.542 145.484C203.736 145.946 206.159 145.852 207.013 145.809C207.114 146.482 207.222 147.147 207.287 147.805C207.331 148.247 207.396 148.673 207.41 149.129C207.425 149.585 207.454 150.019 207.476 150.453C207.476 151.299 207.476 152.174 207.476 152.992C207.476 153.57 207.476 154.113 207.476 154.662C207.338 154.011 207.042 152.738 207.005 152.637C206.434 151.017 204.38 148.225 202.456 148.297C202.137 148.315 201.826 148.4 201.542 148.546C201.258 148.693 201.008 148.897 200.809 149.146C200.609 149.395 200.463 149.683 200.382 149.991C200.301 150.3 200.285 150.622 200.336 150.937C200.51 152.283 201.783 153.404 202.868 154.04C203.953 154.677 206.991 155.017 207.468 155.06C207.468 155.972 207.418 156.861 207.374 157.693C207.237 160.586 207.013 162.995 206.832 164.673C206.651 166.351 206.506 167.299 206.506 167.299C206.497 167.467 206.552 167.633 206.658 167.764C206.765 167.895 206.917 167.982 207.084 168.007C207.25 168.032 207.421 167.994 207.562 167.901C207.702 167.807 207.803 167.665 207.844 167.501C207.844 167.501 207.967 166.525 208.119 164.825C208.271 163.125 208.438 160.688 208.51 157.758C208.51 156.832 208.546 155.849 208.546 154.829C209.016 154.756 211.917 154.272 213.074 153.505C214.231 152.738 215.309 151.603 215.389 150.243C215.422 149.919 215.385 149.591 215.281 149.282C215.177 148.973 215.008 148.69 214.785 148.452C214.562 148.215 214.291 148.027 213.99 147.903C213.688 147.779 213.364 147.721 213.038 147.733Z" fill="#263238"/>
<path d="M40.1434 184.535C40.1434 184.535 40.2663 189.447 41.0981 192.08C41.7028 193.881 42.4277 195.641 43.2681 197.345C43.2681 197.345 40.1578 199.023 38.7184 199.146C37.279 199.269 35.3695 192.796 35.3695 188.369C35.3695 183.942 37.0331 182.619 40.1434 184.535Z" fill="white" stroke="#263238" stroke-width="0.283329" stroke-linecap="round" stroke-linejoin="round"/>
<path d="M31.4708 171.668C31.4708 171.668 36.534 171.48 38.4653 172.919C40.3965 174.358 41.0981 180.702 41.6985 183.219L42.2988 185.736C40.8902 186.292 39.4388 186.732 37.9589 187.053C37.3948 187.094 36.8342 187.174 36.2808 187.291C36.2808 187.291 34.7546 178.582 32.9608 176.036C32.0537 174.726 31.0529 173.484 29.9663 172.319C29.9663 172.319 29.1562 171.349 31.4708 171.668Z" fill="white" stroke="#263238" stroke-width="0.283329" stroke-linecap="round" stroke-linejoin="round"/>
<path d="M27.3334 163.935C26.9151 165.538 26.2697 167.072 25.4166 168.492C23.97 170.886 23.3769 172.557 18.9502 172.68C14.5235 172.803 12.245 176.413 10.3499 187.168C8.45484 197.924 7.3554 209.801 10.5886 217.345C13.8219 224.889 23.3696 224.151 29.6046 221.895C35.8396 219.638 37.2718 212.557 37.3875 204.897C37.5032 197.237 37.5105 185.136 36.3098 179.024C35.1091 172.912 31.6444 171.602 30.082 171.125C28.5197 170.648 30.5666 167.769 30.5666 167.769L27.3334 163.935Z" fill="white"/>
<mask id="mask1_1_581" style="mask-type:luminance" maskUnits="userSpaceOnUse" x="8" y="163" width="30" height="61">
<path d="M27.3334 163.935C26.9151 165.538 26.2697 167.072 25.4166 168.492C23.97 170.886 23.3769 172.557 18.9502 172.68C14.5235 172.803 12.245 176.413 10.3499 187.168C8.45484 197.924 7.3554 209.801 10.5886 217.345C13.8219 224.889 23.3696 224.151 29.6046 221.895C35.8396 219.638 37.2718 212.557 37.3875 204.897C37.5032 197.237 37.5105 185.136 36.3098 179.024C35.1091 172.912 31.6444 171.602 30.082 171.125C28.5197 170.648 30.5666 167.769 30.5666 167.769L27.3334 163.935Z" fill="white"/>
</mask>
<g mask="url(#mask1_1_581)">
<g style="mix-blend-mode:multiply" opacity="0.4">
<path d="M14.6899 187.436C14.6899 187.436 13.6338 190.329 15.5072 192.579C17.3806 194.828 22.0171 193.75 21.1201 194.799C20.2232 195.848 16.2088 197.143 15.5072 198.192C15.3016 198.456 15.1806 198.776 15.1599 199.11C15.1393 199.445 15.22 199.777 15.3915 200.065C15.3915 200.065 11.7026 200.723 11.4422 200.101C11.1818 199.479 13.6121 190.763 13.6121 190.763L14.6899 187.436Z" fill="#407BFF"/>
</g>
<g style="mix-blend-mode:multiply" opacity="0.4">
<path d="M15.8182 203.342C15.8182 203.342 13.2505 206.148 13.3662 206.958C13.4819 207.768 15.8182 205.909 15.3553 207.074C14.8924 208.239 12.896 210.119 12.3101 211.052C11.7243 211.985 9.41688 213.642 9.41688 213.642L8.5923 207.313L8.43317 206.206L15.8182 203.342Z" fill="#407BFF"/>
</g>
</g>
<path d="M27.3334 163.935C26.9151 165.538 26.2697 167.072 25.4166 168.492C23.97 170.886 23.3769 172.557 18.9502 172.68C14.5235 172.803 12.245 176.413 10.3499 187.168C8.45484 197.924 7.3554 209.801 10.5886 217.345C13.8219 224.889 23.3696 224.151 29.6046 221.895C35.8396 219.638 37.2718 212.557 37.3875 204.897C37.5032 197.237 37.5105 185.136 36.3098 179.024C35.1091 172.912 31.6444 171.602 30.082 171.125C28.5197 170.648 30.5666 167.769 30.5666 167.769L27.3334 163.935Z" stroke="#263238" stroke-width="0.283329" stroke-linecap="round" stroke-linejoin="round"/>
<path d="M31.4708 171.668C31.0232 171.45 30.5588 171.268 30.082 171.125C28.5269 170.648 30.5666 167.769 30.5666 167.769L27.3334 163.935C26.9151 165.538 26.2697 167.072 25.4166 168.492C24.1942 170.525 23.5722 172.036 20.6934 172.521C21.6064 173.837 22.273 175.307 22.6608 176.861C23.3841 179.978 24.932 185.006 27.8108 183.812C30.5449 182.676 32.6208 176.116 31.4708 171.668Z" fill="white"/>
<mask id="mask2_1_581" style="mask-type:luminance" maskUnits="userSpaceOnUse" x="20" y="163" width="12" height="21">
<path d="M31.4708 171.668C31.0232 171.45 30.5588 171.268 30.082 171.125C28.5269 170.648 30.5666 167.769 30.5666 167.769L27.3334 163.935C26.9151 165.538 26.2697 167.072 25.4166 168.492C24.1942 170.525 23.5722 172.036 20.6934 172.521C21.6064 173.837 22.273 175.307 22.6608 176.861C23.3841 179.978 24.932 185.006 27.8108 183.812C30.5449 182.676 32.6208 176.116 31.4708 171.668Z" fill="white"/>
</mask>
<g mask="url(#mask2_1_581)">
<g style="mix-blend-mode:multiply" opacity="0.4">
<path d="M24.0061 172.463C23.2477 173.002 22.4006 173.403 21.5035 173.649L20.7801 172.413C20.7801 172.413 23.7674 172.781 26.7547 165.903C27.4044 167.177 28.3224 168.294 29.4455 169.179L25.8795 169.635" fill="#407BFF"/>
</g>
</g>
<path d="M31.4708 171.668C31.0232 171.45 30.5588 171.268 30.082 171.125C28.5269 170.648 30.5666 167.769 30.5666 167.769L27.3334 163.935C26.9151 165.538 26.2697 167.072 25.4166 168.492C24.1942 170.525 23.5722 172.036 20.6934 172.521C21.6064 173.837 22.273 175.307 22.6608 176.861C23.3841 179.978 24.932 185.006 27.8108 183.812C30.5449 182.676 32.6208 176.116 31.4708 171.668Z" stroke="#263238" stroke-width="0.283329" stroke-linecap="round" stroke-linejoin="round"/>
<path d="M14.9864 186.322L18.4294 183.262" stroke="#263238" stroke-width="0.283329" stroke-linecap="round" stroke-linejoin="round"/>
<path d="M18.9502 172.68C18.9502 172.68 19.9628 174.069 20.7295 178.091C21.4962 182.112 23.7892 185.751 26.0893 186.51C28.3895 187.27 29.5323 186.51 29.5323 186.51" stroke="#263238" stroke-width="0.283329" stroke-linecap="round" stroke-linejoin="round"/>
<path d="M7.57239 185.975C7.57239 185.975 5.77856 201.888 5.6556 204.651C5.53263 207.414 6.61038 206.691 8.41144 206.213C10.2125 205.736 20.5053 201.15 22.8778 200.34C25.2503 199.53 25.6336 199.262 27.5504 199.501C29.2283 199.752 30.9185 199.914 32.6136 199.985C33.8143 199.985 32.4907 197.23 30.6968 196.752C28.903 196.275 29.0187 196.391 26.9862 196.868C24.9537 197.345 21.7132 198.785 18.2413 199.501C14.7694 200.217 11.7749 200.463 11.4204 200.101C11.066 199.74 13.5904 189.324 13.5904 189.324L7.57239 185.975Z" fill="white" stroke="#263238" stroke-width="0.283329" stroke-linecap="round" stroke-linejoin="round"/>
<path d="M20.6934 172.521C19.3582 172.681 18.0095 172.693 16.6717 172.557C15.448 172.47 14.2196 172.639 13.065 173.054C11.9105 173.469 10.8551 174.12 9.96657 174.966C8.04978 176.875 6.34999 183.103 5.62667 184.666C4.90335 186.228 4.67189 186.937 4.67189 186.937L13.5325 190.77L17.2431 180.232" fill="white"/>
<mask id="mask3_1_581" style="mask-type:luminance" maskUnits="userSpaceOnUse" x="4" y="172" width="17" height="19">
<path d="M20.6934 172.521C19.3582 172.681 18.0095 172.693 16.6717 172.557C15.448 172.47 14.2196 172.639 13.065 173.054C11.9105 173.469 10.8551 174.12 9.96657 174.966C8.04978 176.875 6.34999 183.103 5.62667 184.666C4.90335 186.228 4.67189 186.937 4.67189 186.937L13.5325 190.77L17.2431 180.232" fill="white"/>
</mask>
<g mask="url(#mask3_1_581)">
<g style="mix-blend-mode:multiply" opacity="0.4">
<path d="M20.5993 172.442C18.8578 172.629 17.1068 172.713 15.3553 172.695C14.2973 172.71 13.2558 172.959 12.3054 173.425C11.355 173.89 10.5193 174.559 9.85807 175.385C8.21614 177.259 4.85272 186.864 4.85272 186.864L6.91417 187.747C6.91417 187.747 9.15646 177.259 11.7242 175.624C13.9817 174.278 16.5853 173.627 19.2106 173.751C19.9339 173.751 20.744 173.7 21.2575 173.649L20.5993 172.442Z" fill="#407BFF"/>
</g>
</g>
<path d="M20.6934 172.521C19.3582 172.681 18.0095 172.693 16.6717 172.557C15.448 172.47 14.2196 172.639 13.065 173.054C11.9105 173.469 10.8551 174.12 9.96657 174.966C8.04978 176.875 6.34999 183.103 5.62667 184.666C4.90335 186.228 4.67189 186.937 4.67189 186.937L13.5325 190.77L17.2431 180.232" stroke="#263238" stroke-width="0.283329" stroke-linecap="round" stroke-linejoin="round"/>
<path d="M9.43132 212.578C9.43132 212.578 13.0479 209.323 15.5578 209.135" stroke="#263238" stroke-width="0.283329" stroke-linecap="round" stroke-linejoin="round"/>
<path d="M15.9412 207.573C14.1632 208.356 12.4359 209.25 10.7695 210.249" stroke="#263238" stroke-width="0.283329" stroke-linecap="round" stroke-linejoin="round"/>
<path d="M38.3656 160.6C39.7787 154.987 38.3114 149.779 35.0883 148.967C31.8652 148.156 28.1068 152.049 26.6938 157.662C25.2807 163.275 26.7479 168.483 29.971 169.295C33.1941 170.106 36.9525 166.213 38.3656 160.6Z" fill="white"/>
<mask id="mask4_1_581" style="mask-type:luminance" maskUnits="userSpaceOnUse" x="26" y="148" width="13" height="22">
<path d="M38.3656 160.6C39.7786 154.987 38.3113 149.779 35.0883 148.967C31.8652 148.156 28.1068 152.049 26.6937 157.662C25.2806 163.275 26.7479 168.483 29.971 169.295C33.1941 170.106 36.9525 166.213 38.3656 160.6Z" fill="white"/>
</mask>
<g mask="url(#mask4_1_581)">
<g style="mix-blend-mode:multiply" opacity="0.4">
<path d="M29.3587 169.078C28.9536 168.268 28.4184 166.322 28.8017 165.093C29.3876 163.227 32.5413 161.129 32.5413 161.129C32.5413 161.129 31.0946 161.476 29.648 161.7C28.2014 161.925 26.1978 162.25 26.1978 162.25L26.6969 165.751C27.3696 167.328 28.1869 168.615 29.3587 169.078Z" fill="#407BFF"/>
</g>
</g>
<path d="M38.3656 160.6C39.7787 154.987 38.3114 149.779 35.0883 148.967C31.8652 148.156 28.1068 152.049 26.6938 157.662C25.2807 163.275 26.7479 168.483 29.971 169.295C33.1941 170.106 36.9525 166.213 38.3656 160.6Z" stroke="#263238" stroke-width="0.283329" stroke-linecap="round" stroke-linejoin="round"/>
<g style="mix-blend-mode:multiply" opacity="0.4">
<path d="M26.7403 166.062C26.1906 167.147 24.4835 170.532 22.7186 171.646C22.2205 171.967 21.6767 172.211 21.1057 172.369" fill="#407BFF"/>
</g>
<g style="mix-blend-mode:multiply" opacity="0.4">
<path d="M29.6191 183.812C29.6191 183.812 30.0892 190.474 29.6191 192.116C29.1489 193.758 27.2828 193.635 28.2159 194.568C29.2323 195.414 30.3298 196.158 31.4925 196.788L33.1272 198.43L33.4961 195.942C33.4961 195.942 32.3243 196.297 31.1525 192.203C30.4047 189.454 29.8917 186.647 29.6191 183.812Z" fill="#407BFF"/>
</g>
<path d="M35.1886 162.047C34.8085 162.598 34.561 163.23 34.4653 163.892C34.4653 164.109 34.4653 164.304 34.4653 164.463C34.4718 164.539 34.4617 164.616 34.4357 164.688C34.4098 164.759 34.3686 164.825 34.3149 164.879C34.2613 164.933 34.1965 164.975 34.1251 165.002C34.0537 165.029 33.9772 165.04 33.9011 165.035L33.0404 164.97" stroke="#263238" stroke-width="0.283329" stroke-linecap="round" stroke-linejoin="round"/>
<path d="M31.5069 166.706C31.1071 166.75 30.7053 166.64 30.384 166.398C30.0626 166.156 29.8459 165.8 29.7782 165.404" stroke="#263238" stroke-width="0.283329" stroke-linecap="round" stroke-linejoin="round"/>
<path d="M32.8089 161.83L32.3749 162.698C32.1213 162.819 31.8348 162.853 31.56 162.794C31.2853 162.735 31.0377 162.587 30.856 162.373" stroke="#263238" stroke-width="0.283329" stroke-linecap="round" stroke-linejoin="round"/>
<path d="M36.2664 163.132L35.6226 164C35.6226 164 34.7546 164 34.7546 163.349" stroke="#263238" stroke-width="0.283329" stroke-linecap="round" stroke-linejoin="round"/>
<path d="M39.6949 155.436C41.1415 151.176 37.619 146.757 32.3605 146.851C27.102 146.945 23.4203 152.087 21.6771 155.61C20.047 157.244 18.6455 159.09 17.5108 161.1C15.3408 164.811 15.3408 166.966 13.6772 169.36C12.0136 171.754 7.09501 171.877 4.21621 174.995C1.33741 178.112 1.32294 181.7 2.66108 184.094C3.99922 186.488 4.83103 189.599 3.13847 191.754C1.44591 193.91 -0.210487 196.817 1.10595 201.7C1.35355 202.79 1.92809 203.779 2.75276 204.533C3.57742 205.288 4.6129 205.773 5.72071 205.924C5.64847 205.516 5.62661 205.1 5.65561 204.687C5.74964 202.517 6.84909 192.528 7.33371 188.109L4.70083 186.966C4.70083 186.966 4.93953 186.242 5.65561 184.695C6.37169 183.147 8.04979 176.904 9.99551 174.995C10.8847 174.15 11.9403 173.501 13.0948 173.087C14.2494 172.674 15.4775 172.505 16.7007 172.593C18.0385 172.729 19.3871 172.717 20.7223 172.557C21.5287 172.459 22.2992 172.166 22.9671 171.704C23.635 171.241 24.1803 170.623 24.5559 169.903L24.7439 169.592V169.556C24.9465 169.223 25.149 168.868 25.3732 168.499C25.8925 167.624 26.3377 166.707 26.7041 165.758C26.339 164.626 26.144 163.446 26.1255 162.257C28.4835 162.178 35.0078 161.599 38.3061 157.722C38.5014 157.483 38.6823 157.245 38.8414 156.999C38.7943 158.219 38.6197 159.431 38.3206 160.615C37.712 163.335 36.3393 165.824 34.3641 167.791L34.0169 168.087L33.7999 168.261C33.6914 168.34 33.5901 168.42 33.4816 168.485C33.4054 168.541 33.3257 168.592 33.2429 168.637C33.1449 168.702 33.0435 168.763 32.9391 168.818L32.686 168.948L32.3822 169.078L32.129 169.172L31.8252 169.266L31.5721 169.331C31.0317 169.454 30.4705 169.454 29.9301 169.331L29.7204 169.259C29.4902 169.691 29.4161 170.189 29.5106 170.669C29.5479 170.79 29.6162 170.9 29.7089 170.986C29.8016 171.072 29.9153 171.133 30.0386 171.161C30.5029 171.301 30.9552 171.477 31.3912 171.689C31.1157 174.613 30.6323 177.514 29.9446 180.369C28.7439 185.396 30.0603 190.185 31.4997 193.656C32.9391 197.128 37.3658 199.284 38.921 197.273C40.4761 195.262 39.9987 193.085 39.0439 188.289C38.0891 183.494 35.572 176.557 35.572 171.284C35.572 166.011 38.6823 164.34 40.2446 161.23C41.3658 158.981 40.3676 156.608 39.6949 155.436Z" fill="#263238"/>
<path d="M38.2338 153.823C38.2338 153.823 32.7077 158.662 27.384 159.183C22.0604 159.704 21.5107 159.697 21.5107 159.697" stroke="white" stroke-width="0.202081" stroke-linecap="round" stroke-linejoin="round"/>
<path d="M37.0259 150.192C37.0259 150.192 32.0133 155.899 27.8687 157.281C23.7241 158.662 21.9953 158.662 21.9953 158.662" stroke="white" stroke-width="0.202081" stroke-linecap="round" stroke-linejoin="round"/>
<path d="M34.0892 148.124C34.0892 148.124 32.7077 152.464 29.4238 154.518" stroke="white" stroke-width="0.202081" stroke-linecap="round" stroke-linejoin="round"/>
<path d="M24.5848 164.362C24.5848 164.362 24.4112 169.895 21.301 170.756C18.1907 171.617 14.7405 169.895 10.7622 171.964C9.20955 172.799 7.94806 174.088 7.14565 175.658C6.34324 177.228 6.03796 179.005 6.27043 180.752" stroke="white" stroke-width="0.202081" stroke-linecap="round" stroke-linejoin="round"/>
<path d="M5.06248 204.101C4.23844 202.905 3.68752 201.543 3.44877 200.11C3.21002 198.678 3.28928 197.21 3.68094 195.812C5.06248 191.147 6.09682 189.418 6.09682 189.418" stroke="white" stroke-width="0.202081" stroke-linecap="round" stroke-linejoin="round"/>
<path d="M35.666 173.346C35.666 173.346 36.5268 179.913 33.5901 184.058C30.6534 188.203 32.5557 193.91 32.5557 193.91" stroke="white" stroke-width="0.202081" stroke-linecap="round" stroke-linejoin="round"/>
<path d="M35.8179 167.299C35.8179 167.299 35.9915 169.201 33.5684 174.04C31.1453 178.879 30.4581 180.434 30.2845 183.892" stroke="white" stroke-width="0.202081" stroke-linecap="round" stroke-linejoin="round"/>
<path d="M52.4036 222.314C52.4036 222.314 56.2878 221.938 58.5373 222.936C60.7868 223.934 61.2931 225.562 61.7922 224.065C62.2913 222.567 62.2913 221.685 60.4179 220.687C58.5445 219.689 57.785 220.311 57.04 219.558C56.6743 219.166 56.2526 218.83 55.7887 218.56C55.7887 218.56 53.7851 218.307 53.6549 219.435C53.5247 220.564 51.6585 220.933 51.6585 220.933L52.4036 222.314Z" fill="white" stroke="#263238" stroke-width="0.283329" stroke-miterlimit="10"/>
<path d="M68.642 192.919C67.3256 189.924 61.8356 191.978 55.4704 197.107C47.2319 203.747 40.8305 205.295 37.3875 205.562V205.454C35.5937 204.615 33.0476 204.578 30.0169 205.07C29.9229 204.933 29.8289 204.795 29.7421 204.651C23.9555 195.674 22.4366 194.119 20.5198 195.674C18.603 197.23 16.4475 199.624 17.1636 207.052C17.2275 207.637 17.3388 208.215 17.4963 208.781C14.6477 210.135 11.9391 211.765 9.40962 213.649C9.68788 214.914 10.0801 216.151 10.5814 217.345C13.8002 224.868 23.3335 224.18 29.5612 221.916C31.4445 222.935 33.4907 223.618 35.6082 223.934C40.5412 224.549 43.8757 224.368 45.8286 223.623L49.1414 226.329C54.3561 222.372 58.7739 217.463 62.1611 211.862C63.8125 209.069 65.2768 206.169 66.5444 203.182C68.6059 198.517 69.3075 194.423 68.642 192.919Z" fill="#263238"/>
<path d="M29.7276 204.622C30.4172 205.7 31.1708 206.737 31.9843 207.725L54.4723 203.689L47.391 198.018L27.3334 200.955C28.0206 202.011 28.8235 203.24 29.7276 204.622Z" fill="#407BFF" stroke="#263238" stroke-width="0.283329" stroke-linecap="round" stroke-linejoin="round"/>
<path opacity="0.5" d="M29.7276 204.622C30.4172 205.7 31.1708 206.737 31.9843 207.725L54.4723 203.689L47.391 198.018L27.3334 200.955C28.0206 202.011 28.8235 203.24 29.7276 204.622Z" fill="white" stroke="#263238" stroke-width="0.308538" stroke-linecap="round" stroke-linejoin="round"/>
<path d="M34.7329 191.335L31.2321 206.792C31.478 207.117 31.7312 207.436 31.9554 207.747L54.4723 203.689L58.9207 187.501L34.7329 191.335Z" fill="#407BFF" stroke="#263238" stroke-width="0.283329" stroke-linecap="round" stroke-linejoin="round"/>
<path d="M46.1903 200.325C45.7549 200.449 45.2927 200.441 44.8617 200.303C44.4306 200.165 44.0498 199.903 43.767 199.55C43.4842 199.197 43.3118 198.768 43.2716 198.317C43.2314 197.866 43.3251 197.414 43.5409 197.016C43.7567 196.618 44.0851 196.293 44.4849 196.081C44.8847 195.868 45.3382 195.779 45.7886 195.824C46.239 195.868 46.6663 196.044 47.0169 196.33C47.3676 196.617 47.626 197 47.7599 197.432C47.931 198.024 47.8623 198.659 47.5685 199.201C47.2748 199.742 46.7797 200.146 46.1903 200.325Z" fill="white"/>
<path opacity="0.5" d="M34.7329 191.335L31.2321 206.792C31.478 207.117 31.7312 207.436 31.9554 207.747L54.4723 203.689L58.9207 187.501L34.7329 191.335Z" fill="white" stroke="#263238" stroke-width="0.308538" stroke-linecap="round" stroke-linejoin="round"/>
<path d="M46.1903 200.325C45.7549 200.449 45.2927 200.441 44.8617 200.303C44.4306 200.165 44.0498 199.903 43.767 199.55C43.4842 199.197 43.3118 198.768 43.2716 198.317C43.2314 197.866 43.3251 197.414 43.5409 197.016C43.7567 196.618 44.0851 196.293 44.4849 196.081C44.8847 195.868 45.3382 195.779 45.7886 195.824C46.239 195.868 46.6663 196.044 47.0169 196.33C47.3676 196.617 47.626 197 47.7599 197.432C47.931 198.024 47.8623 198.659 47.5685 199.201C47.2748 199.742 46.7797 200.146 46.1903 200.325Z" fill="white" stroke="#263238" stroke-width="0.308538" stroke-linecap="round" stroke-linejoin="round"/>
<path d="M45.0691 222.365C45.0691 222.365 41.9733 224.665 40.2301 225.62C38.487 226.575 37.93 226.249 36.2591 227.84C34.5883 229.432 33.1706 230.538 32.7728 231.175C32.3749 231.811 31.8975 232.441 31.6588 231.016C31.5613 230.285 31.6568 229.541 31.936 228.858C32.2152 228.175 32.6682 227.578 33.2501 227.124C34.3568 226.329 35.8685 226.01 35.8685 224.954C35.8321 224.493 35.9774 224.036 36.2734 223.681C36.5693 223.325 36.9925 223.1 37.4526 223.052C38.3278 223.052 38.8992 223.92 40.5484 223.052C41.6819 222.352 42.6122 221.367 43.2464 220.195L45.0691 222.365Z" fill="white" stroke="#263238" stroke-width="0.283329" stroke-miterlimit="10"/>
<path d="M17.6844 209.577C17.6844 209.577 21.1056 217.757 28.9898 221.475" stroke="white" stroke-width="0.202081" stroke-miterlimit="10"/>
<path d="M44.2807 216.275C44.2807 216.275 49.1776 213.822 56.3529 201.425" stroke="white" stroke-width="0.202081" stroke-miterlimit="10"/>
<path d="M31.1525 207.045C31.1525 207.045 36.3387 214.647 42.3856 217.237" stroke="white" stroke-width="0.202081" stroke-miterlimit="10"/>
<path d="M124.229 129.65H79.8173C76.7533 129.65 74.2694 132.134 74.2694 135.198V228.954C74.2694 232.018 76.7533 234.502 79.8173 234.502H124.229C127.293 234.502 129.777 232.018 129.777 228.954V135.198C129.777 132.134 127.293 129.65 124.229 129.65Z" fill="#263238"/>
<path d="M127.31 141.165H76.736V222.994H127.31V141.165Z" fill="white"/>
<mask id="mask5_1_581" style="mask-type:luminance" maskUnits="userSpaceOnUse" x="76" y="141" width="52" height="82">
<path d="M127.31 141.165H76.736V222.994H127.31V141.165Z" fill="white"/>
</mask>
<g mask="url(#mask5_1_581)">
<g style="mix-blend-mode:multiply" opacity="0.4">
<path d="M127.31 195.494L80.1645 222.987H127.31V195.494Z" fill="#407BFF"/>
</g>
</g>
<path d="M127.31 141.165H76.736V222.994H127.31V141.165Z" stroke="#263238" stroke-width="0.308538" stroke-miterlimit="10"/>
<path d="M107.52 135.437H96.5259C96.3341 135.437 96.1501 135.36 96.0144 135.225C95.8788 135.089 95.8026 134.905 95.8026 134.713C95.8026 134.522 95.8788 134.338 96.0144 134.202C96.1501 134.066 96.3341 133.99 96.5259 133.99H107.52C107.712 133.99 107.896 134.066 108.032 134.202C108.167 134.338 108.244 134.522 108.244 134.713C108.244 134.905 108.167 135.089 108.032 135.225C107.896 135.36 107.712 135.437 107.52 135.437Z" fill="#407BFF"/>
<path opacity="0.4" d="M107.52 135.437H96.5259C96.3341 135.437 96.1501 135.36 96.0144 135.225C95.8788 135.089 95.8026 134.905 95.8026 134.713C95.8026 134.522 95.8788 134.338 96.0144 134.202C96.1501 134.066 96.3341 133.99 96.5259 133.99H107.52C107.712 133.99 107.896 134.066 108.032 134.202C108.167 134.338 108.244 134.522 108.244 134.713C108.244 134.905 108.167 135.089 108.032 135.225C107.896 135.36 107.712 135.437 107.52 135.437Z" fill="white"/>
<path d="M105.025 227.609C105.025 227.015 104.849 226.435 104.519 225.941C104.189 225.448 103.72 225.063 103.172 224.836C102.623 224.608 102.02 224.549 101.438 224.665C100.855 224.781 100.32 225.067 99.9006 225.486C99.4808 225.906 99.1949 226.441 99.079 227.023C98.9632 227.606 99.0227 228.209 99.2499 228.758C99.4771 229.306 99.8618 229.775 100.355 230.105C100.849 230.435 101.429 230.611 102.023 230.611C102.819 230.611 103.583 230.294 104.146 229.731C104.709 229.169 105.025 228.405 105.025 227.609Z" fill="#407BFF" stroke="#263238" stroke-width="0.411384" stroke-miterlimit="10"/>
<path d="M103.542 226.09H100.504V229.128H103.542V226.09Z" fill="#407BFF" stroke="#263238" stroke-width="0.308538" stroke-linecap="round" stroke-linejoin="round"/>
<path opacity="0.6" d="M103.542 226.09H100.504V229.128H103.542V226.09Z" fill="white" stroke="#263238" stroke-width="0.308538" stroke-linecap="round" stroke-linejoin="round"/>
<path d="M103.542 226.09H100.504V229.128H103.542V226.09Z" stroke="#263238" stroke-width="0.308538" stroke-linecap="round" stroke-linejoin="round"/>
<path d="M274.491 226.676V161.961C274.491 157.495 270.87 153.874 266.404 153.874H129.791C125.325 153.874 121.705 157.495 121.705 161.961V226.676C121.705 231.142 125.325 234.763 129.791 234.763H266.404C270.87 234.763 274.491 231.142 274.491 226.676Z" fill="#407BFF" stroke="#263238" stroke-width="0.507371" stroke-miterlimit="10"/>
<path d="M266.346 231.168V157.469H129.849V231.168H266.346Z" fill="white"/>
<mask id="mask6_1_581" style="mask-type:luminance" maskUnits="userSpaceOnUse" x="129" y="157" width="138" height="75">
<path d="M266.346 231.168V157.469H129.849V231.168H266.346Z" fill="white"/>
</mask>
<g mask="url(#mask6_1_581)">
<g style="mix-blend-mode:multiply" opacity="0.4">
<path d="M266.346 172.261L165.35 231.16H266.346V172.261Z" fill="#407BFF"/>
</g>
</g>
<path d="M266.346 231.168V157.469H129.849V231.168H266.346Z" stroke="#263238" stroke-width="0.380528" stroke-miterlimit="10"/>
<path d="M270.021 195.421C269.8 195.421 269.584 195.356 269.401 195.233C269.218 195.11 269.075 194.936 268.991 194.732C268.907 194.528 268.885 194.304 268.929 194.087C268.972 193.871 269.079 193.673 269.236 193.517C269.392 193.362 269.591 193.256 269.808 193.214C270.024 193.172 270.249 193.195 270.452 193.28C270.655 193.366 270.829 193.51 270.95 193.694C271.072 193.878 271.136 194.094 271.135 194.315C271.133 194.609 271.014 194.89 270.806 195.098C270.597 195.305 270.315 195.421 270.021 195.421Z" fill="#263238"/>
<path d="M250.245 154.612H255.128C255.275 154.612 255.395 154.492 255.395 154.344V154.142C255.395 153.994 255.275 153.874 255.128 153.874H250.245C250.097 153.874 249.978 153.994 249.978 154.142V154.344C249.978 154.492 250.097 154.612 250.245 154.612Z" fill="#407BFF" stroke="#263238" stroke-width="0.381209" stroke-miterlimit="10"/>
<path d="M233.001 154.605H242.354C242.403 154.606 242.452 154.597 242.497 154.579C242.543 154.56 242.584 154.533 242.619 154.499C242.654 154.465 242.682 154.424 242.701 154.379C242.72 154.333 242.73 154.285 242.73 154.236C242.73 154.187 242.72 154.138 242.701 154.093C242.682 154.048 242.654 154.007 242.619 153.972C242.584 153.938 242.543 153.911 242.497 153.893C242.452 153.875 242.403 153.866 242.354 153.867H233.001C232.904 153.867 232.81 153.906 232.74 153.975C232.671 154.044 232.632 154.138 232.632 154.236C232.632 154.334 232.671 154.427 232.74 154.497C232.81 154.566 232.904 154.605 233.001 154.605Z" fill="#407BFF" stroke="#263238" stroke-width="0.381209" stroke-miterlimit="10"/>
<path d="M258.701 236.81C258.701 237.887 252.249 238.762 244.292 238.762C236.336 238.762 229.877 237.894 229.877 236.81C229.877 235.725 236.329 234.849 244.292 234.849C252.256 234.849 258.701 235.725 258.701 236.81Z" fill="#407BFF"/>
<path d="M231.887 207.819C231.887 224.282 244.907 237.62 244.907 237.62C244.907 237.62 257.927 224.282 257.927 207.819C257.927 191.356 244.907 178.018 244.907 178.018C244.907 178.018 231.887 191.356 231.887 207.819Z" fill="#263238"/>
<path d="M244.929 237.62V178.018" stroke="white" stroke-width="0.431048" stroke-miterlimit="10"/>
<path d="M244.929 199.204L237.623 192.832" stroke="white" stroke-width="0.431048" stroke-miterlimit="10"/>
<path d="M245.045 209.056L254.079 195.957" stroke="white" stroke-width="0.431048" stroke-miterlimit="10"/>
<path d="M244.929 214.734L234.151 205.114" stroke="white" stroke-width="0.431048" stroke-miterlimit="10"/>
<path d="M245.045 222.379L255.706 212.875" stroke="white" stroke-width="0.431048" stroke-miterlimit="10"/>
<path d="M245.045 228.983L236.698 222.379" stroke="white" stroke-width="0.431048" stroke-miterlimit="10"/>
<path d="M222.853 229.215C229.189 236.361 239.974 237.128 239.974 237.128C239.974 237.128 240.502 226.329 234.188 219.182C227.873 212.036 217.067 211.269 217.067 211.269C217.067 211.269 216.495 222.104 222.853 229.215Z" fill="#263238"/>
<path d="M239.974 237.157L217.045 211.298" stroke="white" stroke-width="0.431048" stroke-miterlimit="10"/>
<path d="M225.197 220.491L219.577 220.535" stroke="white" stroke-width="0.431048" stroke-miterlimit="10"/>
<path d="M229.038 224.723L227.916 215.566" stroke="white" stroke-width="0.431048" stroke-miterlimit="10"/>
<path d="M231.171 227.226L222.795 227.204" stroke="white" stroke-width="0.431048" stroke-miterlimit="10"/>
<path d="M234.166 230.502L235.135 222.278" stroke="white" stroke-width="0.431048" stroke-miterlimit="10"/>
<path d="M236.705 233.367L230.542 233.714" stroke="white" stroke-width="0.431048" stroke-miterlimit="10"/>
<path d="M256.082 218.965C249.428 225.808 249.464 236.629 249.464 236.629C249.464 236.629 260.278 236.347 266.925 229.497C273.572 222.647 273.543 211.855 273.543 211.855C273.543 211.855 262.73 212.115 256.082 218.965Z" fill="#263238"/>
<path d="M249.464 236.629L273.543 211.833" stroke="white" stroke-width="0.431048" stroke-miterlimit="10"/>
<path d="M264.986 220.643L264.523 215.045" stroke="white" stroke-width="0.431048" stroke-miterlimit="10"/>
<path d="M261.052 224.788L270.1 222.994" stroke="white" stroke-width="0.431048" stroke-miterlimit="10"/>
<path d="M258.708 227.103L258.115 218.748" stroke="white" stroke-width="0.431048" stroke-miterlimit="10"/>
<path d="M255.67 230.336L263.945 230.683" stroke="white" stroke-width="0.431048" stroke-miterlimit="10"/>
<path d="M253.001 233.084L252.198 226.965" stroke="white" stroke-width="0.431048" stroke-miterlimit="10"/>
</svg>
