<svg width="25" height="28" viewBox="0 0 25 28" fill="none" xmlns="http://www.w3.org/2000/svg">
<rect width="25" height="25" rx="12.5" fill="url(#paint0_radial_656_414)"/>
<g filter="url(#filter0_d_656_414)">
<path d="M10.3125 19.6875H7.1875C6.32812 19.6875 5.625 18.9844 5.625 18.125V7.1875C5.625 6.32812 6.32812 5.625 7.1875 5.625H10.3125C11.1719 5.625 11.875 6.32812 11.875 7.1875V18.125C11.875 18.9844 11.1719 19.6875 10.3125 19.6875ZM15 19.6875H18.125C18.9844 19.6875 19.6875 18.9844 19.6875 18.125V14.2187C19.6875 13.3594 18.9844 12.6562 18.125 12.6562H15C14.1406 12.6562 13.4375 13.3594 13.4375 14.2187V18.125C13.4375 18.9844 14.1406 19.6875 15 19.6875ZM19.6875 9.53125V7.1875C19.6875 6.32812 18.9844 5.625 18.125 5.625H15C14.1406 5.625 13.4375 6.32812 13.4375 7.1875V9.53125C13.4375 10.3906 14.1406 11.0937 15 11.0937H18.125C18.9844 11.0937 19.6875 10.3906 19.6875 9.53125Z" fill="black"/>
</g>
<defs>
<filter id="filter0_d_656_414" x="1.625" y="5.625" width="22.0625" height="22.0625" filterUnits="userSpaceOnUse" color-interpolation-filters="sRGB">
<feFlood flood-opacity="0" result="BackgroundImageFix"/>
<feColorMatrix in="SourceAlpha" type="matrix" values="0 0 0 0 0 0 0 0 0 0 0 0 0 0 0 0 0 0 127 0" result="hardAlpha"/>
<feOffset dy="4"/>
<feGaussianBlur stdDeviation="2"/>
<feComposite in2="hardAlpha" operator="out"/>
<feColorMatrix type="matrix" values="0 0 0 0 0 0 0 0 0 0 0 0 0 0 0 0 0 0 0.25 0"/>
<feBlend mode="normal" in2="BackgroundImageFix" result="effect1_dropShadow_656_414"/>
<feBlend mode="normal" in="SourceGraphic" in2="effect1_dropShadow_656_414" result="shape"/>
</filter>
<radialGradient id="paint0_radial_656_414" cx="0" cy="0" r="1" gradientUnits="userSpaceOnUse" gradientTransform="translate(12.5 12.5) rotate(90) scale(12.5)">
<stop stop-color="#73A2FF"/>
<stop offset="1" stop-color="white"/>
</radialGradient>
</defs>
</svg>
