<svg width="33" height="33" viewBox="0 0 33 33" fill="none" xmlns="http://www.w3.org/2000/svg">
<g filter="url(#filter0_d_656_411)">
<path d="M26.0588 22.5C26.0588 23.163 25.8006 23.7989 25.3409 24.2678C24.8813 24.7366 24.2579 25 23.6078 25H6.45098C5.80094 25 5.17752 24.7366 4.71788 24.2678C4.25823 23.7989 4 23.163 4 22.5V5C4 4.33696 4.25823 3.70107 4.71788 3.23223C5.17752 2.76339 5.80094 2.5 6.45098 2.5H13.1912C12.8235 3.5 12.5784 4.5 12.5784 5.625C12.5784 10.125 16.1324 13.75 20.5441 13.75C21.5245 13.75 22.3824 13.625 23.1176 13.25L26.0588 16.25V22.5ZM25.201 8.625C25.6912 7.75 26.0588 6.75 26.0588 5.625C26.0588 2.5 23.6078 0 20.5441 0C17.4804 0 15.0294 2.5 15.0294 5.625C15.0294 8.75 17.4804 11.25 20.5441 11.25C21.6471 11.25 22.6275 10.875 23.4853 10.375L27.2843 14.25L29 12.5L25.201 8.625ZM20.5441 8.75C18.8284 8.75 17.4804 7.375 17.4804 5.625C17.4804 3.875 18.8284 2.5 20.5441 2.5C22.2598 2.5 23.6078 3.875 23.6078 5.625C23.6078 7.375 22.2598 8.75 20.5441 8.75Z" fill="black"/>
</g>
<defs>
<filter id="filter0_d_656_411" x="2.38419e-07" y="0" width="33" height="33" filterUnits="userSpaceOnUse" color-interpolation-filters="sRGB">
<feFlood flood-opacity="0" result="BackgroundImageFix"/>
<feColorMatrix in="SourceAlpha" type="matrix" values="0 0 0 0 0 0 0 0 0 0 0 0 0 0 0 0 0 0 127 0" result="hardAlpha"/>
<feOffset dy="4"/>
<feGaussianBlur stdDeviation="2"/>
<feComposite in2="hardAlpha" operator="out"/>
<feColorMatrix type="matrix" values="0 0 0 0 0 0 0 0 0 0 0 0 0 0 0 0 0 0 0.25 0"/>
<feBlend mode="normal" in2="BackgroundImageFix" result="effect1_dropShadow_656_411"/>
<feBlend mode="normal" in="SourceGraphic" in2="effect1_dropShadow_656_411" result="shape"/>
</filter>
</defs>
</svg>
