<svg width="33" height="34" viewBox="0 0 33 34" fill="none" xmlns="http://www.w3.org/2000/svg">
<g filter="url(#filter0_d_718_55)">
<path d="M16.5001 24.9401C13.5765 24.9401 11.0288 23.9706 8.85687 22.0318C6.68496 20.0929 5.44054 17.6727 5.12361 14.7712H7.72939C8.02598 16.9744 9.00601 18.7964 10.6695 20.2369C12.3329 21.6775 14.2765 22.3978 16.5001 22.3978C18.9787 22.3978 21.0816 21.5343 22.8086 19.8073C24.5356 18.0803 25.3987 15.9779 25.3978 13.5001C25.3978 11.0214 24.5343 8.91855 22.8073 7.19153C21.0803 5.46452 18.9779 4.60143 16.5001 4.60228C15.0383 4.60228 13.6718 4.94124 12.4007 5.61917C11.1296 6.2971 10.0598 7.22924 9.19117 8.41561H12.6867V10.9578H5.06006V3.33117H7.60228V6.31828C8.68272 4.96243 10.0017 3.91376 11.5592 3.17228C13.1168 2.4308 14.7637 2.06006 16.5001 2.06006C18.0889 2.06006 19.5774 2.36216 20.9655 2.96636C22.3535 3.57056 23.5611 4.38577 24.5881 5.41198C25.6152 6.43988 26.4308 7.64744 27.035 9.03464C27.6392 10.4219 27.9409 11.9103 27.9401 13.5001C27.9401 15.0889 27.638 16.5774 27.0338 17.9655C26.4296 19.3535 25.6143 20.5611 24.5881 21.5881C23.5602 22.6152 22.3527 23.4308 20.9655 24.035C19.5783 24.6392 18.0898 24.9409 16.5001 24.9401ZM20.0592 18.8387L15.2289 14.0085V7.1445H17.7712V12.9916L21.8387 17.0592L20.0592 18.8387Z" fill="black"/>
</g>
<defs>
<filter id="filter0_d_718_55" x="-0.66" y="0.5" width="34.32" height="34.32" filterUnits="userSpaceOnUse" color-interpolation-filters="sRGB">
<feFlood flood-opacity="0" result="BackgroundImageFix"/>
<feColorMatrix in="SourceAlpha" type="matrix" values="0 0 0 0 0 0 0 0 0 0 0 0 0 0 0 0 0 0 127 0" result="hardAlpha"/>
<feOffset dy="4.16"/>
<feGaussianBlur stdDeviation="2.08"/>
<feComposite in2="hardAlpha" operator="out"/>
<feColorMatrix type="matrix" values="0 0 0 0 0 0 0 0 0 0 0 0 0 0 0 0 0 0 0.25 0"/>
<feBlend mode="normal" in2="BackgroundImageFix" result="effect1_dropShadow_718_55"/>
<feBlend mode="normal" in="SourceGraphic" in2="effect1_dropShadow_718_55" result="shape"/>
</filter>
</defs>
</svg>
