<svg width="140" height="140" viewBox="0 0 140 140" fill="none" xmlns="http://www.w3.org/2000/svg">
<path d="M93.3332 58.3333C93.3332 64.5217 90.8748 70.4566 86.499 74.8325C82.1231 79.2083 76.1882 81.6667 69.9998 81.6667C63.8115 81.6667 57.8765 79.2083 53.5007 74.8325C49.1248 70.4566 46.6665 64.5217 46.6665 58.3333C46.6665 52.1449 49.1248 46.21 53.5007 41.8342C57.8765 37.4583 63.8115 35 69.9998 35C76.1882 35 82.1231 37.4583 86.499 41.8342C90.8748 46.21 93.3332 52.1449 93.3332 58.3333Z" fill="black"/>
<path fill-rule="evenodd" clip-rule="evenodd" d="M67.6198 128.287C36.5078 127.038 11.6665 101.418 11.6665 70.0001C11.6665 37.7826 37.7823 11.6667 69.9998 11.6667C102.217 11.6667 128.333 37.7826 128.333 70.0001C128.333 102.218 102.217 128.333 69.9998 128.333C69.7335 128.335 69.4671 128.335 69.2007 128.333C68.6728 128.333 68.1448 128.316 67.6198 128.287ZM32.5673 106.808C32.1312 105.556 31.9827 104.221 32.133 102.904C32.2832 101.586 32.7284 100.319 33.4353 99.1967C34.1422 98.0745 35.0928 97.126 36.2164 96.4215C37.3401 95.717 38.608 95.2746 39.9261 95.1272C62.6644 92.6101 77.4753 92.8376 100.103 95.1797C101.423 95.3171 102.694 95.7539 103.819 96.4568C104.945 97.1597 105.895 98.1102 106.597 99.2359C107.3 100.362 107.737 101.633 107.874 102.953C108.011 104.272 107.845 105.606 107.389 106.852C117.086 97.0402 122.517 83.7957 122.5 70.0001C122.5 41.0055 98.9944 17.5001 69.9998 17.5001C41.0053 17.5001 17.4998 41.0055 17.4998 70.0001C17.4998 84.3384 23.2486 97.3351 32.5673 106.808Z" fill="black"/>
</svg>
