<svg width="582" height="421" viewBox="0 0 582 421" fill="none" xmlns="http://www.w3.org/2000/svg">
<path d="M581.5 387.944H0.666504V388.24H581.5V387.944Z" fill="#EBEBEB"/>
<path d="M523.301 406.986H484.826V407.281H523.301V406.986Z" fill="#EBEBEB"/>
<path d="M385.434 410.204H375.339V410.5H385.434V410.204Z" fill="#EBEBEB"/>
<path d="M483.664 396.004H461.372V396.299H483.664V396.004Z" fill="#EBEBEB"/>
<path d="M111.78 397.991H61.6079V398.287H111.78V397.991Z" fill="#EBEBEB"/>
<path d="M129.484 397.991H122.131V398.287H129.484V397.991Z" fill="#EBEBEB"/>
<path d="M262.216 402.986H153.391V403.281H262.216V402.986Z" fill="#EBEBEB"/>
<path d="M275.982 335.165H51.6757C49.9185 335.162 48.2343 334.449 46.9929 333.182C45.7514 331.915 45.0542 330.198 45.0542 328.408V7.19803C45.0695 5.41823 45.7735 3.71645 47.0133 2.46233C48.2531 1.20821 49.9285 0.503049 51.6757 0.5H275.982C277.741 0.5 279.428 1.21192 280.672 2.47914C281.916 3.74636 282.615 5.46508 282.615 7.2572V328.408C282.615 330.2 281.916 331.919 280.672 333.186C279.428 334.453 277.741 335.165 275.982 335.165ZM51.6757 0.736681C49.9955 0.739815 48.3852 1.42194 47.1982 2.63334C46.0113 3.84474 45.3446 5.48642 45.3446 7.19803V328.408C45.3446 330.119 46.0113 331.761 47.1982 332.972C48.3852 334.184 49.9955 334.866 51.6757 334.869H275.982C277.663 334.866 279.275 334.184 280.463 332.973C281.652 331.762 282.322 330.12 282.325 328.408V7.19803C282.322 5.48534 281.652 3.84368 280.463 2.63262C279.275 1.42156 277.663 0.739809 275.982 0.736681H51.6757Z" fill="#EBEBEB"/>
<path d="M527.261 335.165H302.944C301.185 335.162 299.5 334.449 298.257 333.182C297.013 331.916 296.314 330.199 296.311 328.408V7.19803C296.329 5.41715 297.035 3.71538 298.277 2.46159C299.519 1.2078 301.195 0.503016 302.944 0.5H527.261C529.007 0.506159 530.679 1.2127 531.916 2.46649C533.154 3.72027 533.856 5.42028 533.871 7.19803V328.408C533.871 330.196 533.176 331.911 531.937 333.177C530.698 334.444 529.017 335.159 527.261 335.165ZM302.944 0.736681C301.262 0.739809 299.651 1.42156 298.462 2.63262C297.273 3.84368 296.604 5.48534 296.601 7.19803V328.408C296.604 330.12 297.273 331.762 298.462 332.973C299.651 334.184 301.262 334.866 302.944 334.869H527.261C528.943 334.866 530.554 334.184 531.743 332.973C532.932 331.762 533.601 330.12 533.604 328.408V7.19803C533.601 5.48534 532.932 3.84368 531.743 2.63262C530.554 1.42156 528.943 0.739809 527.261 0.736681H302.944Z" fill="#EBEBEB"/>
<path d="M315.2 386.666H472.373V151.904L315.2 151.904V386.666Z" fill="#F0F0F0"/>
<path d="M320.752 202.66L466.82 202.66V159.3L320.752 159.3V202.66Z" fill="#E0E0E0"/>
<path d="M458.526 202.66H466.82V166.318H458.526V202.66Z" fill="#EBEBEB"/>
<path d="M418.402 202.66H426.696V166.318H418.402V202.66Z" fill="#EBEBEB"/>
<path d="M366.802 201.211L374.976 202.647L381.035 166.833L372.862 165.397L366.802 201.211Z" fill="#EBEBEB"/>
<path d="M448.245 202.66H456.54V171.111H448.245V202.66Z" fill="#EBEBEB"/>
<path d="M429.171 202.66H437.465V171.111H429.171V202.66Z" fill="#EBEBEB"/>
<path d="M381.032 202.66H389.326V171.111H381.032V202.66Z" fill="#EBEBEB"/>
<path d="M400.804 200.814L408.901 202.647L415.62 171.849L407.523 170.016L400.804 200.814Z" fill="#EBEBEB"/>
<path d="M441.066 202.66H445.213V164.519H441.066V202.66Z" fill="#EBEBEB"/>
<path d="M391.718 202.66H395.865V164.519H391.718V202.66Z" fill="#EBEBEB"/>
<path d="M466.82 209.524H320.752V252.884H466.82V209.524Z" fill="#E0E0E0"/>
<path d="M329.046 216.541H320.752V252.883H329.046V216.541Z" fill="#EBEBEB"/>
<path d="M369.171 216.541H360.876V252.883H369.171V216.541Z" fill="#EBEBEB"/>
<path d="M414.731 215.614L406.557 217.049L412.617 252.863L420.791 251.428L414.731 215.614Z" fill="#EBEBEB"/>
<path d="M339.327 221.334H331.033V252.883H339.327V221.334Z" fill="#EBEBEB"/>
<path d="M358.402 221.334H350.108V252.883H358.402V221.334Z" fill="#EBEBEB"/>
<path d="M406.541 221.334H398.247V252.883H406.541V221.334Z" fill="#EBEBEB"/>
<path d="M380.088 220.226L371.992 222.059L378.711 252.857L386.807 251.024L380.088 220.226Z" fill="#EBEBEB"/>
<path d="M346.507 214.742H342.36V252.883H346.507V214.742Z" fill="#EBEBEB"/>
<path d="M395.854 214.742H391.707V252.883H395.854V214.742Z" fill="#EBEBEB"/>
<path d="M458.526 252.883H466.82V216.541H458.526V252.883Z" fill="#EBEBEB"/>
<path d="M448.245 252.883H456.54V221.334H448.245V252.883Z" fill="#EBEBEB"/>
<path d="M429.171 252.883H437.465V221.334H429.171V252.883Z" fill="#EBEBEB"/>
<path d="M441.066 252.883H445.213V214.742H441.066V252.883Z" fill="#EBEBEB"/>
<path d="M320.752 303.107H466.82V259.747H320.752V303.107Z" fill="#E0E0E0"/>
<path d="M374.689 303.107H382.983V266.765H374.689V303.107Z" fill="#EBEBEB"/>
<path d="M323.089 301.653L331.263 303.088L337.323 267.274L329.149 265.839L323.089 301.653Z" fill="#EBEBEB"/>
<path d="M404.531 303.107H412.826V271.557H404.531V303.107Z" fill="#EBEBEB"/>
<path d="M385.457 303.107H393.751V271.557H385.457V303.107Z" fill="#EBEBEB"/>
<path d="M337.318 303.107H345.612V271.557H337.318V303.107Z" fill="#EBEBEB"/>
<path d="M357.089 301.255L365.186 303.088L371.905 272.29L363.808 270.457L357.089 301.255Z" fill="#EBEBEB"/>
<path d="M397.352 303.107H401.499V264.966H397.352V303.107Z" fill="#EBEBEB"/>
<path d="M348.005 303.107H352.152V264.966H348.005V303.107Z" fill="#EBEBEB"/>
<path d="M418.561 301.656L426.734 303.091L432.794 267.277L424.621 265.842L418.561 301.656Z" fill="#EBEBEB"/>
<path d="M432.784 303.107H441.078V271.557H432.784V303.107Z" fill="#EBEBEB"/>
<path d="M452.562 301.259L460.659 303.092L467.378 272.294L459.281 270.461L452.562 301.259Z" fill="#EBEBEB"/>
<path d="M443.46 303.107H447.607V264.966H443.46V303.107Z" fill="#EBEBEB"/>
<path d="M499.486 151.916H472.373V387.282H499.486V151.916Z" fill="#E0E0E0"/>
<path d="M121.968 101.373C121.968 101.373 120.609 92.2371 127.149 86.3674C133.689 80.4977 133.12 77.0186 131.25 76.5689C129.38 76.1192 127.66 81.977 124.779 83.5864C124.779 83.5864 124.686 75.2316 127.614 72.1548C130.541 69.078 132.063 61.1492 129.287 61.0072C126.51 60.8652 126.22 65.7408 125.639 69.149C125.058 72.5572 121.968 77.4328 121.968 77.4328C121.968 77.4328 121.364 69.9537 119.471 66.8768C117.577 63.8 122.619 56.7588 120.632 53.6819C118.646 50.6051 115.242 56.4748 115.521 63.0663C115.8 69.6578 120.168 76.699 119.122 83.5864C119.122 83.5864 117.217 78.7463 115.509 78.3085C113.802 77.8706 112.024 74.6636 110.863 73.4802C109.701 72.2968 108.272 76.4032 110.863 80.2137C113.453 84.0243 120.075 94.2133 119.064 102.462L121.968 101.373Z" fill="#E6E6E6"/>
<path d="M125.883 97.2192L128.02 110.923C128.176 111.918 128.119 112.935 127.852 113.905C127.584 114.874 127.114 115.774 126.472 116.54C125.83 117.306 125.033 117.921 124.135 118.343C123.237 118.765 122.26 118.983 121.271 118.982H118.947C117.958 118.984 116.979 118.768 116.08 118.347C115.18 117.926 114.382 117.311 113.739 116.544C113.096 115.778 112.624 114.878 112.356 113.908C112.088 112.937 112.03 111.919 112.187 110.923L114.324 97.2192H125.883Z" fill="#E6E6E6"/>
<path d="M93.4492 121.858L244.977 121.858V113.929L93.4492 113.929V121.858Z" fill="#E0E0E0"/>
<path d="M231.327 113.929H238.006V84.6989H231.327V113.929Z" fill="#EBEBEB"/>
<path d="M199.056 113.929H205.736V84.6988H199.056V113.929Z" fill="#EBEBEB"/>
<path d="M157.527 112.773L164.109 113.929L168.983 85.1237L162.401 83.9678L157.527 112.773Z" fill="#EBEBEB"/>
<path d="M223.056 113.929H229.736V88.5448H223.056V113.929Z" fill="#EBEBEB"/>
<path d="M207.711 113.929H214.39V88.5448H207.711V113.929Z" fill="#EBEBEB"/>
<path d="M168.98 113.929H175.66V88.5448H168.98V113.929Z" fill="#EBEBEB"/>
<path d="M184.884 112.439L191.405 113.915L196.811 89.1361L190.29 87.6598L184.884 112.439Z" fill="#EBEBEB"/>
<path d="M217.294 113.917H220.628V83.2315H217.294V113.917Z" fill="#EBEBEB"/>
<path d="M177.588 113.917H180.922V83.2315H177.588V113.917Z" fill="#EBEBEB"/>
<path d="M244.989 173.134H93.4609V181.063H244.989V173.134Z" fill="#E0E0E0"/>
<path d="M107.11 143.904H100.43V173.134H107.11V143.904Z" fill="#EBEBEB"/>
<path d="M139.393 143.904H132.713V173.134H139.393V143.904Z" fill="#EBEBEB"/>
<path d="M176.042 143.168L169.46 144.324L174.334 173.129L180.916 171.973L176.042 143.168Z" fill="#EBEBEB"/>
<path d="M115.381 147.75H108.702V173.134H115.381V147.75Z" fill="#EBEBEB"/>
<path d="M130.727 147.75H124.047V173.134H130.727V147.75Z" fill="#EBEBEB"/>
<path d="M169.457 147.75H162.777V173.134H169.457V147.75Z" fill="#EBEBEB"/>
<path d="M148.17 146.863L141.65 148.34L147.056 173.119L153.576 171.643L148.17 146.863Z" fill="#EBEBEB"/>
<path d="M121.143 142.449H117.809V173.134H121.143V142.449Z" fill="#EBEBEB"/>
<path d="M160.849 142.449H157.515V173.134H160.849V142.449Z" fill="#EBEBEB"/>
<path d="M230.444 149.999H197.917V172.874H230.444V149.999Z" fill="#EBEBEB"/>
<path d="M402.221 101.16C414.75 101.16 424.908 90.8126 424.908 78.0483C424.908 65.284 414.75 54.9365 402.221 54.9365C389.691 54.9365 379.533 65.284 379.533 78.0483C379.533 90.8126 389.691 101.16 402.221 101.16Z" fill="#E0E0E0"/>
<path d="M402.22 97.7043C412.877 97.7043 421.515 88.9039 421.515 78.0481C421.515 67.1922 412.877 58.3918 402.22 58.3918C391.564 58.3918 382.925 67.1922 382.925 78.0481C382.925 88.9039 391.564 97.7043 402.22 97.7043Z" fill="#F0F0F0"/>
<path d="M401.314 64.5693V78.3086L392.369 73.149" fill="#F0F0F0"/>
<path d="M401.314 79.4919C401.114 79.4888 400.919 79.436 400.744 79.3381L391.8 74.1785C391.532 74.0243 391.335 73.7684 391.252 73.4667C391.17 73.165 391.208 72.8422 391.358 72.569C391.433 72.4324 391.534 72.3123 391.655 72.2157C391.775 72.119 391.914 72.0477 392.062 72.0059C392.21 71.9641 392.364 71.9526 392.517 71.972C392.669 71.9915 392.816 72.0416 392.95 72.1193L400.152 76.2731V64.5693C400.152 64.2554 400.274 63.9544 400.492 63.7325C400.71 63.5105 401.006 63.3859 401.314 63.3859C401.622 63.3859 401.917 63.5105 402.135 63.7325C402.353 63.9544 402.475 64.2554 402.475 64.5693V78.3085C402.475 78.6224 402.353 78.9234 402.135 79.1453C401.917 79.3672 401.622 79.4919 401.314 79.4919Z" fill="#E0E0E0"/>
<path d="M291.083 420.083C415.477 420.083 516.319 414.375 516.319 407.334C516.319 400.293 415.477 394.586 291.083 394.586C166.689 394.586 65.8477 400.293 65.8477 407.334C65.8477 414.375 166.689 420.083 291.083 420.083Z" fill="#F5F5F5"/>
<path d="M491.482 82.3535H260.287V294.578H491.482V82.3535Z" fill="#7894A2"/>
<path opacity="0.7" d="M491.482 82.3535H260.287V294.578H491.482V82.3535Z" fill="white"/>
<path d="M491.482 82.3535H260.287V93.1539H491.482V82.3535Z" fill="#7894A2"/>
<path opacity="0.2" d="M491.482 93.1654H483.838V294.781H491.482V93.1654Z" fill="black"/>
<path opacity="0.6" d="M488.091 97.9403H487.394C486.316 97.9403 485.442 98.7874 485.442 99.8323V124.136C485.442 125.181 486.316 126.028 487.394 126.028H488.091C489.169 126.028 490.043 125.181 490.043 124.136V99.8323C490.043 98.7874 489.169 97.9403 488.091 97.9403Z" fill="white"/>
<path opacity="0.2" d="M478.785 232.501H265.039C264.886 232.498 264.74 232.438 264.631 232.333C264.523 232.228 264.461 232.086 264.458 231.938C264.458 231.788 264.519 231.645 264.628 231.539C264.737 231.434 264.885 231.375 265.039 231.375H478.785C478.94 231.375 479.087 231.434 479.196 231.539C479.305 231.645 479.366 231.788 479.366 231.938C479.366 232.087 479.305 232.23 479.196 232.336C479.087 232.441 478.94 232.501 478.785 232.501Z" fill="black"/>
<path opacity="0.2" d="M478.785 184.073H265.039C264.886 184.071 264.74 184.01 264.631 183.905C264.523 183.8 264.461 183.659 264.458 183.51C264.458 183.361 264.519 183.218 264.628 183.112C264.737 183.007 264.885 182.947 265.039 182.947H478.785C478.94 182.947 479.087 183.007 479.196 183.112C479.305 183.218 479.366 183.361 479.366 183.51C479.366 183.66 479.305 183.803 479.196 183.909C479.087 184.014 478.94 184.073 478.785 184.073Z" fill="black"/>
<path d="M478.797 97.9293H265.097V129.61H478.797V97.9293Z" fill="#7894A2"/>
<path opacity="0.6" d="M488.822 87.7595C488.822 88.2963 488.658 88.821 488.35 89.2674C488.042 89.7137 487.605 90.0616 487.094 90.267C486.582 90.4725 486.019 90.5262 485.476 90.4215C484.933 90.3168 484.434 90.0583 484.043 89.6787C483.651 89.2991 483.384 88.8155 483.276 88.289C483.168 87.7625 483.224 87.2167 483.436 86.7208C483.648 86.2248 484.006 85.8009 484.467 85.5027C484.927 85.2045 485.469 85.0453 486.022 85.0453C486.765 85.0453 487.477 85.3312 488.002 85.8403C488.527 86.3493 488.822 87.0396 488.822 87.7595Z" fill="white"/>
<path opacity="0.6" d="M478.948 87.7595C478.948 88.2963 478.784 88.821 478.476 89.2674C478.168 89.7137 477.731 90.0616 477.22 90.267C476.708 90.4725 476.145 90.5262 475.602 90.4215C475.059 90.3168 474.56 90.0583 474.169 89.6787C473.777 89.2991 473.51 88.8155 473.402 88.289C473.294 87.7625 473.35 87.2167 473.562 86.7208C473.774 86.2248 474.132 85.8009 474.593 85.5027C475.053 85.2045 475.595 85.0453 476.148 85.0453C476.891 85.0453 477.603 85.3312 478.128 85.8403C478.653 86.3493 478.948 87.0396 478.948 87.7595Z" fill="white"/>
<path opacity="0.6" d="M469.074 87.7595C469.074 88.2963 468.91 88.821 468.602 89.2674C468.295 89.7137 467.858 90.0616 467.346 90.267C466.835 90.4725 466.272 90.5262 465.729 90.4215C465.185 90.3168 464.687 90.0583 464.295 89.6787C463.904 89.2991 463.637 88.8155 463.529 88.289C463.421 87.7625 463.476 87.2167 463.688 86.7208C463.9 86.2248 464.259 85.8009 464.719 85.5027C465.18 85.2045 465.721 85.0453 466.275 85.0453C467.017 85.0453 467.729 85.3312 468.254 85.8403C468.779 86.3493 469.074 87.0396 469.074 87.7595Z" fill="white"/>
<path opacity="0.4" d="M274.251 150.828C272.898 150.828 271.575 150.439 270.45 149.71C269.324 148.981 268.447 147.945 267.93 146.733C267.412 145.521 267.276 144.187 267.54 142.9C267.804 141.613 268.456 140.431 269.413 139.504C270.37 138.576 271.589 137.944 272.916 137.688C274.243 137.432 275.619 137.564 276.869 138.066C278.12 138.568 279.188 139.418 279.94 140.509C280.692 141.6 281.093 142.882 281.093 144.194C281.09 145.953 280.368 147.638 279.086 148.881C277.803 150.125 276.065 150.825 274.251 150.828Z" fill="black"/>
<path d="M275.087 141.672V146.706H273.925V142.606H272.892V141.672H275.087Z" fill="white"/>
<path opacity="0.4" d="M469.55 137.763H287.529C286.797 137.763 286.205 138.338 286.205 139.047V139.847C286.205 140.556 286.797 141.131 287.529 141.131H469.55C470.282 141.131 470.875 140.556 470.875 139.847V139.047C470.875 138.338 470.282 137.763 469.55 137.763Z" fill="black"/>
<path opacity="0.4" d="M469.55 146.514H287.529C286.797 146.514 286.205 147.089 286.205 147.798V148.598C286.205 149.307 286.797 149.882 287.529 149.882H469.55C470.282 149.882 470.875 149.307 470.875 148.598V147.798C470.875 147.089 470.282 146.514 469.55 146.514Z" fill="black"/>
<path opacity="0.4" d="M406.588 155.254H287.529C286.797 155.254 286.205 155.828 286.205 156.538V157.337C286.205 158.046 286.797 158.621 287.529 158.621H406.588C407.32 158.621 407.912 158.046 407.912 157.337V156.538C407.912 155.828 407.32 155.254 406.588 155.254Z" fill="black"/>
<path opacity="0.2" d="M289.387 175.109C291.139 175.109 292.559 173.732 292.559 172.034C292.559 170.336 291.139 168.96 289.387 168.96C287.636 168.96 286.216 170.336 286.216 172.034C286.216 173.732 287.636 175.109 289.387 175.109Z" fill="black"/>
<path d="M291.571 172.034C291.574 172.456 291.446 172.869 291.206 173.221C290.966 173.573 290.623 173.847 290.221 174.01C289.82 174.172 289.377 174.215 288.95 174.134C288.523 174.052 288.131 173.849 287.823 173.551C287.515 173.252 287.306 172.872 287.222 172.458C287.137 172.044 287.182 171.615 287.35 171.226C287.517 170.836 287.8 170.504 288.163 170.271C288.526 170.038 288.952 169.915 289.387 169.917C289.967 169.917 290.522 170.14 290.932 170.537C291.341 170.934 291.571 171.473 291.571 172.034Z" fill="white"/>
<path opacity="0.4" d="M330.487 170.356H299.749C299.018 170.356 298.425 170.931 298.425 171.64V172.44C298.425 173.149 299.018 173.724 299.749 173.724H330.487C331.218 173.724 331.811 173.149 331.811 172.44V171.64C331.811 170.931 331.218 170.356 330.487 170.356Z" fill="black"/>
<path opacity="0.2" d="M356.996 171.967C356.996 172.575 356.811 173.169 356.462 173.675C356.114 174.18 355.618 174.574 355.039 174.807C354.459 175.04 353.822 175.101 353.206 174.982C352.591 174.864 352.026 174.571 351.583 174.141C351.139 173.711 350.837 173.163 350.715 172.566C350.592 171.97 350.655 171.352 350.895 170.79C351.135 170.228 351.542 169.748 352.063 169.41C352.585 169.072 353.198 168.892 353.825 168.892C354.666 168.892 355.473 169.216 356.068 169.793C356.662 170.369 356.996 171.151 356.996 171.967Z" fill="black"/>
<path d="M356.02 171.967C356.022 172.388 355.895 172.801 355.656 173.153C355.416 173.504 355.074 173.779 354.673 173.941C354.272 174.104 353.83 174.148 353.403 174.067C352.977 173.986 352.584 173.784 352.276 173.487C351.968 173.19 351.758 172.811 351.672 172.398C351.586 171.984 351.629 171.556 351.795 171.166C351.961 170.777 352.242 170.444 352.603 170.209C352.965 169.975 353.39 169.85 353.824 169.85C354.405 169.85 354.961 170.072 355.373 170.469C355.784 170.866 356.017 171.404 356.02 171.967Z" fill="#7894A2"/>
<path opacity="0.4" d="M394.948 170.289H364.199C363.467 170.289 362.875 170.864 362.875 171.573V172.372C362.875 173.081 363.467 173.656 364.199 173.656H394.948C395.68 173.656 396.272 173.081 396.272 172.372V171.573C396.272 170.864 395.68 170.289 394.948 170.289Z" fill="black"/>
<path opacity="0.2" d="M421.446 171.899C421.446 172.507 421.26 173.102 420.912 173.607C420.563 174.113 420.068 174.507 419.488 174.74C418.909 174.972 418.271 175.033 417.656 174.915C417.041 174.796 416.476 174.503 416.032 174.073C415.589 173.643 415.287 173.095 415.164 172.499C415.042 171.902 415.105 171.284 415.345 170.722C415.585 170.161 415.991 169.68 416.513 169.343C417.034 169.005 417.648 168.824 418.275 168.824C419.116 168.824 419.923 169.148 420.517 169.725C421.112 170.302 421.446 171.084 421.446 171.899Z" fill="black"/>
<path d="M420.469 171.899C420.469 172.32 420.34 172.732 420.099 173.082C419.858 173.432 419.515 173.705 419.114 173.866C418.713 174.027 418.271 174.069 417.845 173.987C417.419 173.905 417.028 173.702 416.721 173.404C416.414 173.107 416.205 172.727 416.12 172.314C416.036 171.902 416.079 171.474 416.245 171.085C416.411 170.696 416.693 170.363 417.054 170.129C417.415 169.895 417.839 169.771 418.274 169.771C418.856 169.771 419.414 169.995 419.826 170.394C420.238 170.793 420.469 171.335 420.469 171.899Z" fill="white"/>
<path opacity="0.4" d="M459.386 170.21H428.648C427.917 170.21 427.324 170.785 427.324 171.494V172.293C427.324 173.002 427.917 173.577 428.648 173.577H459.386C460.117 173.577 460.71 173.002 460.71 172.293V171.494C460.71 170.785 460.117 170.21 459.386 170.21Z" fill="black"/>
<path opacity="0.4" d="M274.251 206.936C278.03 206.936 281.093 203.966 281.093 200.302C281.093 196.639 278.03 193.669 274.251 193.669C270.472 193.669 267.409 196.639 267.409 200.302C267.409 203.966 270.472 206.936 274.251 206.936Z" fill="black"/>
<path d="M276.225 201.913V202.859H272.31V202.093L274.309 200.257C274.773 199.829 274.855 199.57 274.855 199.334C274.855 199.097 274.576 198.703 274.018 198.703C273.811 198.696 273.605 198.739 273.419 198.827C273.232 198.916 273.071 199.047 272.949 199.21L272.078 198.658C272.316 198.351 272.627 198.105 272.986 197.942C273.344 197.779 273.739 197.704 274.134 197.723C275.296 197.723 276.063 198.298 276.063 199.21C276.056 199.522 275.974 199.829 275.822 200.104C275.671 200.38 275.455 200.618 275.191 200.798L274.03 201.924L276.225 201.913Z" fill="white"/>
<path opacity="0.4" d="M469.55 193.906H287.529C286.797 193.906 286.205 194.48 286.205 195.189V195.989C286.205 196.698 286.797 197.273 287.529 197.273H469.55C470.282 197.273 470.875 196.698 470.875 195.989V195.189C470.875 194.48 470.282 193.906 469.55 193.906Z" fill="black"/>
<path opacity="0.4" d="M322.123 202.645H287.529C286.797 202.645 286.205 203.22 286.205 203.929V204.728C286.205 205.437 286.797 206.012 287.529 206.012H322.123C322.855 206.012 323.448 205.437 323.448 204.728V203.929C323.448 203.22 322.855 202.645 322.123 202.645Z" fill="black"/>
<path opacity="0.2" d="M289.387 222.365C291.139 222.365 292.559 220.988 292.559 219.29C292.559 217.592 291.139 216.216 289.387 216.216C287.636 216.216 286.216 217.592 286.216 219.29C286.216 220.988 287.636 222.365 289.387 222.365Z" fill="black"/>
<path d="M289.387 221.419C290.6 221.419 291.583 220.466 291.583 219.29C291.583 218.115 290.6 217.162 289.387 217.162C288.175 217.162 287.192 218.115 287.192 219.29C287.192 220.466 288.175 221.419 289.387 221.419Z" fill="white"/>
<path opacity="0.4" d="M330.487 217.612H299.749C299.018 217.612 298.425 218.187 298.425 218.896V219.696C298.425 220.405 299.018 220.98 299.749 220.98H330.487C331.218 220.98 331.811 220.405 331.811 219.696V218.896C331.811 218.187 331.218 217.612 330.487 217.612Z" fill="black"/>
<path opacity="0.2" d="M353.825 222.297C355.577 222.297 356.996 220.921 356.996 219.223C356.996 217.524 355.577 216.148 353.825 216.148C352.074 216.148 350.654 217.524 350.654 219.223C350.654 220.921 352.074 222.297 353.825 222.297Z" fill="black"/>
<path d="M353.824 221.351C355.037 221.351 356.02 220.398 356.02 219.223C356.02 218.047 355.037 217.094 353.824 217.094C352.612 217.094 351.629 218.047 351.629 219.223C351.629 220.398 352.612 221.351 353.824 221.351Z" fill="white"/>
<path opacity="0.4" d="M394.948 217.533H364.199C363.467 217.533 362.875 218.108 362.875 218.817V219.617C362.875 220.326 363.467 220.901 364.199 220.901H394.948C395.68 220.901 396.272 220.326 396.272 219.617V218.817C396.272 218.108 395.68 217.533 394.948 217.533Z" fill="black"/>
<path opacity="0.2" d="M421.446 219.155C421.446 219.763 421.26 220.358 420.912 220.863C420.563 221.369 420.068 221.763 419.488 221.996C418.909 222.229 418.271 222.289 417.656 222.171C417.041 222.052 416.476 221.759 416.032 221.329C415.589 220.899 415.287 220.351 415.164 219.755C415.042 219.159 415.105 218.54 415.345 217.979C415.585 217.417 415.991 216.937 416.513 216.599C417.034 216.261 417.648 216.081 418.275 216.081C419.116 216.081 419.923 216.405 420.517 216.981C421.112 217.558 421.446 218.34 421.446 219.155Z" fill="black"/>
<path d="M420.469 219.155C420.469 219.576 420.34 219.988 420.099 220.338C419.858 220.688 419.515 220.96 419.114 221.122C418.713 221.283 418.271 221.325 417.845 221.243C417.419 221.161 417.028 220.958 416.721 220.66C416.414 220.362 416.205 219.983 416.12 219.57C416.036 219.157 416.079 218.729 416.245 218.34C416.411 217.952 416.693 217.619 417.054 217.385C417.415 217.151 417.839 217.026 418.274 217.026C418.856 217.026 419.414 217.251 419.826 217.65C420.238 218.049 420.469 218.591 420.469 219.155Z" fill="#7894A2"/>
<path opacity="0.4" d="M459.386 217.466H428.648C427.917 217.466 427.324 218.041 427.324 218.75V219.549C427.324 220.258 427.917 220.833 428.648 220.833H459.386C460.117 220.833 460.71 220.258 460.71 219.549V218.75C460.71 218.041 460.117 217.466 459.386 217.466Z" fill="black"/>
<path opacity="0.4" d="M274.251 255.656C272.898 255.656 271.575 255.267 270.45 254.538C269.324 253.809 268.447 252.773 267.93 251.561C267.412 250.349 267.276 249.015 267.54 247.728C267.804 246.442 268.456 245.26 269.413 244.332C270.37 243.404 271.589 242.773 272.916 242.517C274.243 242.261 275.619 242.392 276.869 242.894C278.12 243.396 279.188 244.246 279.94 245.337C280.692 246.428 281.093 247.711 281.093 249.023C281.093 250.782 280.372 252.469 279.089 253.713C277.806 254.957 276.066 255.656 274.251 255.656Z" fill="black"/>
<path d="M276.179 249.957C276.179 250.802 275.505 251.579 274.03 251.579C273.331 251.595 272.643 251.407 272.055 251.038L272.52 250.149C272.952 250.443 273.467 250.6 273.995 250.599C274.599 250.599 274.971 250.363 274.971 249.957C274.971 249.552 274.681 249.338 273.995 249.338H273.449V248.572L274.518 247.446H272.311V246.511H275.982V247.266L274.82 248.561C275.186 248.586 275.528 248.744 275.78 249.002C276.032 249.261 276.174 249.602 276.179 249.957Z" fill="white"/>
<path opacity="0.4" d="M469.55 242.58H287.529C286.797 242.58 286.205 243.155 286.205 243.864V244.664C286.205 245.373 286.797 245.948 287.529 245.948H469.55C470.282 245.948 470.875 245.373 470.875 244.664V243.864C470.875 243.155 470.282 242.58 469.55 242.58Z" fill="black"/>
<path opacity="0.4" d="M469.55 251.32H287.529C286.797 251.32 286.205 251.895 286.205 252.604V253.403C286.205 254.112 286.797 254.687 287.529 254.687H469.55C470.282 254.687 470.875 254.112 470.875 253.403V252.604C470.875 251.895 470.282 251.32 469.55 251.32Z" fill="black"/>
<path opacity="0.4" d="M378.708 260.071H287.529C286.797 260.071 286.205 260.645 286.205 261.354V262.154C286.205 262.863 286.797 263.438 287.529 263.438H378.708C379.439 263.438 380.032 262.863 380.032 262.154V261.354C380.032 260.645 379.439 260.071 378.708 260.071Z" fill="black"/>
<path opacity="0.4" d="M356.532 273.991H351.118C350.862 273.991 350.654 274.192 350.654 274.441V279.689C350.654 279.938 350.862 280.14 351.118 280.14H356.532C356.788 280.14 356.996 279.938 356.996 279.689V274.441C356.996 274.192 356.788 273.991 356.532 273.991Z" fill="black"/>
<path d="M356.241 279.408V274.734H351.42V279.408H356.241Z" fill="white"/>
<path opacity="0.4" d="M394.948 275.387H364.199C363.467 275.387 362.875 275.962 362.875 276.671V277.471C362.875 278.18 363.467 278.755 364.199 278.755H394.948C395.68 278.755 396.272 278.18 396.272 277.471V276.671C396.272 275.962 395.68 275.387 394.948 275.387Z" fill="black"/>
<path d="M353.569 278.417C353.532 278.417 353.496 278.411 353.462 278.397C353.428 278.384 353.397 278.363 353.372 278.338L352.21 277.279C352.156 277.225 352.126 277.152 352.126 277.076C352.126 277.001 352.156 276.928 352.21 276.874C352.237 276.846 352.27 276.825 352.306 276.81C352.341 276.795 352.38 276.788 352.419 276.788C352.458 276.788 352.497 276.795 352.533 276.81C352.569 276.825 352.601 276.846 352.628 276.874L353.616 277.741L355.3 275.804C355.349 275.746 355.421 275.709 355.498 275.701C355.575 275.694 355.652 275.717 355.713 275.764C355.773 275.812 355.811 275.881 355.818 275.956C355.826 276.031 355.802 276.106 355.753 276.164L353.813 278.315C353.762 278.371 353.692 278.407 353.616 278.417H353.569Z" fill="#7894A2"/>
<path opacity="0.4" d="M420.982 273.923H415.568C415.312 273.923 415.104 274.125 415.104 274.373V279.622C415.104 279.87 415.312 280.072 415.568 280.072H420.982C421.238 280.072 421.446 279.87 421.446 279.622V274.373C421.446 274.125 421.238 273.923 420.982 273.923Z" fill="black"/>
<path d="M420.679 279.34V274.666H415.858V279.34H420.679Z" fill="white"/>
<path opacity="0.4" d="M459.386 275.308H428.648C427.917 275.308 427.324 275.883 427.324 276.592V277.392C427.324 278.101 427.917 278.676 428.648 278.676H459.386C460.117 278.676 460.71 278.101 460.71 277.392V276.592C460.71 275.883 460.117 275.308 459.386 275.308Z" fill="black"/>
<path d="M418.019 278.349C417.946 278.345 417.876 278.317 417.821 278.27L416.66 277.2C416.626 277.177 416.598 277.147 416.577 277.112C416.556 277.077 416.543 277.038 416.539 276.998C416.535 276.958 416.54 276.918 416.553 276.88C416.567 276.842 416.588 276.807 416.617 276.777C416.645 276.748 416.68 276.725 416.719 276.71C416.757 276.695 416.798 276.688 416.84 276.689C416.881 276.691 416.922 276.701 416.959 276.72C416.996 276.738 417.029 276.763 417.055 276.795L418.031 277.662L419.727 275.725C419.749 275.692 419.779 275.664 419.813 275.643C419.848 275.622 419.887 275.608 419.927 275.602C419.968 275.596 420.009 275.599 420.048 275.61C420.088 275.621 420.124 275.64 420.156 275.665C420.187 275.691 420.212 275.723 420.23 275.758C420.248 275.794 420.258 275.833 420.259 275.873C420.26 275.912 420.252 275.952 420.237 275.988C420.221 276.025 420.198 276.058 420.168 276.085L418.286 278.248C418.23 278.303 418.156 278.339 418.077 278.349H418.019Z" fill="#7894A2"/>
<path opacity="0.4" d="M292.083 274.058H286.669C286.413 274.058 286.205 274.26 286.205 274.509V279.757C286.205 280.006 286.413 280.207 286.669 280.207H292.083C292.339 280.207 292.547 280.006 292.547 279.757V274.509C292.547 274.26 292.339 274.058 292.083 274.058Z" fill="black"/>
<path d="M291.792 279.476V274.802H286.971V279.476H291.792Z" fill="white"/>
<path opacity="0.4" d="M330.487 275.455H299.749C299.018 275.455 298.425 276.03 298.425 276.739V277.538C298.425 278.247 299.018 278.822 299.749 278.822H330.487C331.218 278.822 331.811 278.247 331.811 277.538V276.739C331.811 276.03 331.218 275.455 330.487 275.455Z" fill="black"/>
<path d="M275.343 112.761C275.292 111.899 275.509 111.042 275.966 110.3C276.423 109.559 277.1 108.967 277.907 108.603C278.715 108.238 279.617 108.118 280.497 108.256C281.376 108.394 282.193 108.785 282.841 109.379C283.488 109.972 283.937 110.74 284.129 111.584C284.321 112.427 284.248 113.307 283.918 114.11C283.588 114.912 283.018 115.6 282.28 116.085C281.542 116.569 280.671 116.828 279.78 116.827C279.209 116.859 278.638 116.778 278.101 116.588C277.563 116.398 277.072 116.104 276.656 115.723C276.24 115.342 275.91 114.883 275.684 114.374C275.458 113.865 275.342 113.316 275.343 112.761ZM282.313 112.761C282.304 112.276 282.147 111.803 281.862 111.404C281.577 111.004 281.176 110.695 280.711 110.515C280.245 110.335 279.735 110.293 279.245 110.393C278.754 110.493 278.305 110.732 277.954 111.078C277.603 111.425 277.365 111.864 277.271 112.342C277.176 112.819 277.229 113.312 277.423 113.76C277.617 114.208 277.943 114.591 278.36 114.86C278.778 115.129 279.268 115.273 279.769 115.273C280.11 115.282 280.45 115.224 280.767 115.1C281.083 114.977 281.371 114.792 281.61 114.556C281.85 114.321 282.037 114.04 282.16 113.731C282.283 113.422 282.339 113.092 282.324 112.761H282.313Z" fill="white"/>
<path d="M291.874 113.234V116.692H290.073V113.505C290.073 112.525 289.608 112.074 288.807 112.074C288.005 112.074 287.308 112.592 287.308 113.707V116.692H285.508V110.644H287.227V111.354C287.495 111.088 287.817 110.879 288.173 110.741C288.53 110.603 288.912 110.54 289.295 110.554C289.656 110.531 290.018 110.586 290.355 110.715C290.691 110.844 290.994 111.044 291.241 111.301C291.488 111.557 291.672 111.864 291.782 112.198C291.891 112.533 291.923 112.887 291.874 113.234Z" fill="white"/>
<path d="M293.511 108.358H295.312V116.692H293.511V108.358Z" fill="white"/>
<path d="M296.775 108.831C296.778 108.69 296.81 108.551 296.871 108.424C296.933 108.296 297.021 108.182 297.131 108.09C297.24 107.997 297.369 107.928 297.508 107.887C297.647 107.846 297.793 107.834 297.937 107.851C298.079 107.83 298.224 107.839 298.362 107.877C298.5 107.914 298.628 107.98 298.738 108.07C298.848 108.159 298.937 108.27 298.999 108.396C299.062 108.521 299.095 108.658 299.099 108.797C299.032 109.036 298.886 109.246 298.683 109.397C298.481 109.547 298.233 109.628 297.978 109.628C297.723 109.628 297.475 109.547 297.272 109.397C297.07 109.246 296.924 109.036 296.857 108.797L296.775 108.831ZM296.996 110.644H298.808V116.692H296.996V110.644Z" fill="white"/>
<path d="M306.858 113.235V116.692H305.022V113.505C305.022 112.525 304.558 112.075 303.756 112.075C302.955 112.075 302.269 112.593 302.269 113.708V116.692H300.457V110.644H302.188V111.354C302.453 111.087 302.773 110.879 303.128 110.741C303.482 110.603 303.863 110.539 304.244 110.554C304.607 110.528 304.972 110.58 305.312 110.708C305.652 110.835 305.959 111.035 306.209 111.291C306.459 111.548 306.647 111.856 306.76 112.192C306.872 112.528 306.905 112.884 306.858 113.235Z" fill="white"/>
<path d="M314.63 114.169H309.914C310.01 114.544 310.243 114.873 310.57 115.095C310.896 115.316 311.295 115.416 311.691 115.374C311.979 115.385 312.266 115.339 312.535 115.241C312.804 115.142 313.051 114.992 313.259 114.8L314.224 115.802C313.894 116.138 313.492 116.4 313.046 116.569C312.601 116.739 312.122 116.811 311.645 116.782C311.196 116.824 310.744 116.776 310.316 116.639C309.888 116.502 309.495 116.28 309.16 115.988C308.826 115.695 308.558 115.339 308.374 114.94C308.189 114.542 308.093 114.11 308.09 113.674C308.085 113.253 308.168 112.836 308.336 112.447C308.503 112.059 308.75 111.708 309.062 111.416C309.375 111.124 309.745 110.897 310.151 110.748C310.557 110.6 310.991 110.534 311.424 110.554C311.855 110.533 312.286 110.6 312.689 110.75C313.093 110.901 313.459 111.132 313.764 111.428C314.069 111.724 314.307 112.079 314.463 112.469C314.618 112.86 314.687 113.278 314.665 113.696C314.665 113.831 314.642 114.023 314.63 114.169ZM309.891 113.144H312.957C312.894 112.794 312.706 112.477 312.426 112.249C312.145 112.02 311.79 111.895 311.424 111.895C311.058 111.895 310.703 112.02 310.423 112.249C310.142 112.477 309.954 112.794 309.891 113.144Z" fill="white"/>
<path d="M320.949 110.306H318.359V108.831H325.422V110.306H322.831V116.692H320.949V110.306Z" fill="white"/>
<path d="M331.743 114.169H327.026C327.122 114.544 327.355 114.873 327.682 115.095C328.009 115.316 328.407 115.416 328.804 115.374C329.091 115.385 329.378 115.339 329.647 115.241C329.917 115.142 330.163 114.992 330.372 114.8L331.336 115.802C331.006 116.138 330.604 116.4 330.159 116.569C329.713 116.739 329.235 116.811 328.757 116.782C328.309 116.824 327.856 116.775 327.429 116.639C327.001 116.502 326.607 116.28 326.273 115.988C325.938 115.695 325.67 115.339 325.486 114.94C325.302 114.542 325.205 114.11 325.202 113.674C325.197 113.254 325.28 112.838 325.447 112.45C325.613 112.063 325.86 111.712 326.171 111.42C326.482 111.128 326.851 110.901 327.256 110.752C327.66 110.603 328.092 110.536 328.525 110.554C328.957 110.531 329.389 110.597 329.794 110.747C330.198 110.897 330.566 111.127 330.872 111.423C331.179 111.72 331.418 112.075 331.574 112.467C331.73 112.858 331.799 113.277 331.777 113.696C331.743 113.831 331.743 114.023 331.743 114.169ZM327.003 113.144H330.07C330.007 112.794 329.818 112.477 329.538 112.249C329.257 112.02 328.903 111.895 328.536 111.895C328.17 111.895 327.815 112.02 327.535 112.249C327.254 112.477 327.066 112.794 327.003 113.144Z" fill="white"/>
<path d="M332.37 116.129L332.974 114.879C333.634 115.25 334.383 115.448 335.146 115.453C335.982 115.453 336.308 115.239 336.308 114.913C336.308 113.922 332.532 114.913 332.532 112.514C332.532 111.388 333.601 110.554 335.425 110.554C336.255 110.539 337.077 110.72 337.818 111.083L337.214 112.334C336.67 112.03 336.052 111.874 335.425 111.883C334.612 111.883 334.263 112.131 334.263 112.446C334.263 113.482 338.027 112.446 338.027 114.868C338.027 115.994 336.947 116.782 335.088 116.782C334.138 116.801 333.2 116.576 332.37 116.129Z" fill="white"/>
<path d="M343.149 116.399C342.708 116.667 342.194 116.801 341.674 116.782C341.366 116.824 341.053 116.799 340.758 116.706C340.462 116.614 340.192 116.458 339.969 116.25C339.745 116.041 339.573 115.786 339.466 115.504C339.358 115.221 339.319 114.919 339.35 114.62V112.131H338.386V110.779H339.35V109.315H341.151V110.779H342.708V112.131H341.151V114.597C341.137 114.701 341.147 114.807 341.18 114.906C341.214 115.006 341.27 115.097 341.345 115.173C341.419 115.248 341.511 115.307 341.612 115.344C341.713 115.381 341.822 115.395 341.929 115.385C342.192 115.389 342.449 115.31 342.661 115.16L343.149 116.399Z" fill="white"/>
<path d="M466.361 120.211C469.959 116.723 469.959 111.068 466.361 107.581C462.764 104.093 456.931 104.093 453.334 107.581C449.736 111.068 449.736 116.723 453.334 120.211C456.931 123.699 462.764 123.699 466.361 120.211Z" fill="white"/>
<path opacity="0.2" d="M468.005 109.743L459.874 113.91V104.979C461.548 104.982 463.189 105.427 464.622 106.267C466.054 107.106 467.224 108.308 468.005 109.743Z" fill="black"/>
<path d="M442.552 388.797C442.552 388.797 447.571 365.789 438.428 353.333C429.286 340.877 446.688 353.186 448.697 364.854C448.697 364.854 451.695 343.996 442.819 329.333C433.944 314.67 450.544 326.698 451.962 341.823C451.962 341.823 454.68 323.218 450.603 312.755C446.525 302.293 453.611 309.027 456.341 315.582C459.071 322.137 455.493 338.365 455.493 338.365C455.493 338.365 462.603 308.352 469.34 310.739C476.078 313.127 459.269 332.791 456.945 343.017C456.945 343.017 464.879 329.254 470.885 332.126C476.891 334.998 461.592 336.417 454.529 356.903L452.078 366.521C452.078 366.521 459.385 352.939 464.159 357.229C468.934 361.52 449.998 368.908 445.573 389.496L442.552 388.797Z" fill="#263238"/>
<path d="M443.541 390.171C443.541 390.171 444.586 361.171 459.374 348.895C474.162 336.62 449.523 346.339 443.541 359.73C443.541 359.73 446.352 333.883 461.477 318.87C476.602 303.858 453.032 313.498 446.701 331.191C446.701 331.191 449.163 308.126 457.26 296.785C465.357 285.444 454.797 291.436 449.523 298.497C444.249 305.559 443.541 325.977 443.541 325.977C443.541 325.977 444.238 287.978 435.409 288.902C426.58 289.825 440.683 318.183 440.335 331.135C440.335 331.135 435.049 312.361 426.964 314.05C418.879 315.74 436.815 321.934 438.929 348.49V360.732C438.929 360.732 434.352 342.352 427.312 346.091C420.273 349.83 440.683 364.178 439.626 390.104L443.541 390.171Z" fill="#263238"/>
<path opacity="0.2" d="M443.541 390.171C443.541 390.171 444.586 361.171 459.374 348.895C474.162 336.62 449.523 346.339 443.541 359.73C443.541 359.73 446.352 333.883 461.477 318.87C476.602 303.858 453.032 313.498 446.701 331.191C446.701 331.191 449.163 308.126 457.26 296.785C465.357 285.444 454.797 291.436 449.523 298.497C444.249 305.559 443.541 325.977 443.541 325.977C443.541 325.977 444.238 287.978 435.409 288.902C426.58 289.825 440.683 318.183 440.335 331.135C440.335 331.135 435.049 312.361 426.964 314.05C418.879 315.74 436.815 321.934 438.929 348.49V360.732C438.929 360.732 434.352 342.352 427.312 346.091C420.273 349.83 440.683 364.178 439.626 390.104L443.541 390.171Z" fill="white"/>
<path d="M450.836 410.544H432.923C429.534 410.544 426.284 409.239 423.888 406.916C421.491 404.593 420.145 401.442 420.145 398.156V395.825H463.603V398.156C463.603 401.44 462.258 404.589 459.864 406.912C457.471 409.235 454.223 410.541 450.836 410.544Z" fill="#7894A2"/>
<path d="M419.354 400.499H464.404C467.105 400.499 469.294 398.376 469.294 395.757V392.063C469.294 389.445 467.105 387.322 464.404 387.322H419.354C416.653 387.322 414.464 389.445 414.464 392.063V395.757C414.464 398.376 416.653 400.499 419.354 400.499Z" fill="#7894A2"/>
<path opacity="0.2" d="M419.354 400.499H464.404C467.105 400.499 469.294 398.376 469.294 395.757V392.063C469.294 389.445 467.105 387.322 464.404 387.322H419.354C416.653 387.322 414.464 389.445 414.464 392.063V395.757C414.464 398.376 416.653 400.499 419.354 400.499Z" fill="white"/>
<path d="M200.137 252.176C199.975 252.501 199.904 252.862 199.934 253.223C199.963 253.583 200.09 253.93 200.303 254.226C200.516 254.523 200.806 254.76 201.145 254.912C201.483 255.064 201.857 255.127 202.228 255.093H257.245C258.159 255.05 259.042 254.752 259.785 254.234C260.529 253.717 261.103 253.002 261.438 252.176L273.055 219.628C273.17 219.325 273.229 219.005 273.229 218.682C273.227 218.404 273.166 218.13 273.048 217.876C272.93 217.623 272.76 217.396 272.546 217.211C272.333 217.025 272.082 216.885 271.81 216.799C271.537 216.713 271.249 216.683 270.964 216.711H215.982C215.068 216.754 214.185 217.052 213.441 217.569C212.697 218.087 212.123 218.802 211.789 219.628L200.137 252.176Z" fill="#263238"/>
<path d="M257.662 253.46C258.111 253.439 258.544 253.294 258.909 253.04C259.274 252.786 259.555 252.435 259.719 252.029L271.335 219.482C271.384 219.352 271.408 219.214 271.405 219.076C271.405 218.626 271.068 218.344 270.534 218.344H215.575C215.127 218.364 214.694 218.51 214.329 218.764C213.964 219.018 213.683 219.369 213.519 219.774L201.902 252.322C201.843 252.454 201.817 252.597 201.827 252.74C201.837 252.883 201.883 253.022 201.96 253.144C202.047 253.253 202.161 253.339 202.291 253.394C202.421 253.449 202.563 253.471 202.704 253.46H257.662Z" fill="#7894A2"/>
<path opacity="0.8" d="M257.662 253.46C258.111 253.439 258.544 253.294 258.909 253.04C259.274 252.786 259.555 252.435 259.719 252.029L271.335 219.482C271.384 219.352 271.408 219.214 271.405 219.076C271.405 218.626 271.068 218.344 270.534 218.344H215.575C215.127 218.364 214.694 218.51 214.329 218.764C213.964 219.018 213.683 219.369 213.519 219.774L201.902 252.322C201.843 252.454 201.817 252.597 201.827 252.74C201.837 252.883 201.883 253.022 201.96 253.144C202.047 253.253 202.161 253.339 202.291 253.394C202.421 253.449 202.563 253.471 202.704 253.46H257.662Z" fill="white"/>
<path d="M176.59 252.682V254.18L187.487 256.895H256.989C257.504 256.895 257.997 256.696 258.361 256.344C258.725 255.991 258.929 255.513 258.929 255.014V252.682H176.59Z" fill="#263238"/>
<path opacity="0.2" d="M234.743 252.682V254.18L245.651 256.895H187.487L176.59 254.18V252.682H234.743Z" fill="white"/>
<g opacity="0.2">
<path d="M267.873 225.991H212.264L214.424 220.112H270.033L267.873 225.991Z" fill="#7894A2"/>
</g>
<g opacity="0.1">
<path d="M265.085 233.559H209.476C209.313 233.559 209.232 233.435 209.29 233.267C209.322 233.187 209.375 233.118 209.445 233.066C209.515 233.015 209.598 232.983 209.685 232.974H265.306C265.457 232.974 265.538 233.109 265.48 233.267C265.452 233.348 265.4 233.42 265.329 233.472C265.259 233.524 265.174 233.555 265.085 233.559Z" fill="black"/>
</g>
<g opacity="0.1">
<path d="M262.042 241.815H206.433C206.27 241.815 206.189 241.679 206.247 241.522C206.279 241.441 206.335 241.37 206.407 241.319C206.478 241.267 206.564 241.236 206.653 241.229H262.262C262.425 241.229 262.506 241.353 262.448 241.522C262.416 241.603 262.36 241.673 262.288 241.725C262.216 241.777 262.131 241.808 262.042 241.815Z" fill="black"/>
</g>
<g opacity="0.1">
<path d="M259.01 250.07H203.401C203.238 250.07 203.157 249.935 203.215 249.777C203.242 249.694 203.294 249.621 203.365 249.567C203.435 249.512 203.52 249.48 203.61 249.473H259.219C259.382 249.473 259.463 249.608 259.405 249.777C259.374 249.857 259.321 249.927 259.251 249.979C259.181 250.031 259.098 250.062 259.01 250.07Z" fill="black"/>
</g>
<path d="M240.516 410.409H246.568L257.453 263.505H249.414L240.516 410.409Z" fill="#263238"/>
<path opacity="0.2" d="M240.504 410.409H246.568L256.919 270.803L257.453 263.742H249.414L248.985 270.803L240.504 410.409Z" fill="white"/>
<path opacity="0.2" d="M248.985 270.454H256.919L257.453 263.742H249.415L248.985 270.454Z" fill="black"/>
<path d="M196.059 410.409H202.111L203.099 263.505H195.072L196.059 410.409Z" fill="#263238"/>
<path opacity="0.3" d="M195.06 263.742L195.222 287.438L196.047 410.409H202.111L202.947 287.438L203.098 263.742H195.06Z" fill="white"/>
<path opacity="0.2" d="M195.06 263.742L195.222 287.708H202.947L203.098 263.742H195.06Z" fill="black"/>
<path d="M131.749 410.409H137.801L148.686 263.505H140.647L131.749 410.409Z" fill="#263238"/>
<path opacity="0.3" d="M131.749 410.409H137.801L148.163 270.803L148.686 263.742H140.647L140.218 270.803L131.749 410.409Z" fill="white"/>
<path opacity="0.2" d="M140.218 270.454H148.164L148.686 263.742H140.648L140.218 270.454Z" fill="black"/>
<path d="M309.809 410.41H315.861L306.963 263.506H298.924L309.809 410.41Z" fill="#263238"/>
<path opacity="0.3" d="M298.924 263.742L299.459 270.803L309.809 410.409H315.861L307.393 270.803L306.963 263.742H298.924Z" fill="white"/>
<path opacity="0.2" d="M306.963 263.742H298.924L299.459 270.454H307.393L306.963 263.742Z" fill="black"/>
<path d="M310.82 267.188H136.779C136.449 267.188 136.123 267.125 135.818 267.003C135.514 266.881 135.237 266.702 135.004 266.476C134.771 266.25 134.587 265.982 134.461 265.687C134.334 265.391 134.27 265.075 134.27 264.756V259.834H313.352V264.756C313.352 265.077 313.286 265.395 313.159 265.692C313.031 265.988 312.844 266.258 312.609 266.484C312.373 266.71 312.094 266.889 311.787 267.01C311.48 267.131 311.151 267.191 310.82 267.188Z" fill="#7894A2"/>
<path opacity="0.2" d="M134.281 263.506H313.329V259.823H134.281V263.506Z" fill="black"/>
<path d="M130.53 260.78H317.082C317.649 260.78 318.193 260.562 318.594 260.173C318.994 259.785 319.22 259.257 319.22 258.708C319.22 258.158 318.994 257.631 318.594 257.243C318.193 256.854 317.649 256.636 317.082 256.636H130.53C129.963 256.636 129.419 256.854 129.019 257.243C128.618 257.631 128.393 258.158 128.393 258.708C128.393 259.257 128.618 259.785 129.019 260.173C129.419 260.562 129.963 260.78 130.53 260.78Z" fill="#7894A2"/>
<path d="M311.122 251.421C311.203 253.209 310.866 254.992 310.134 256.636H267.629V255.656H268.489V247.142H267.629V246.162H310.134C310.862 247.822 311.199 249.619 311.122 251.421Z" fill="#263238"/>
<path opacity="0.2" d="M311.122 251.421C311.203 253.209 310.866 254.992 310.134 256.636H267.629V255.656H268.489V247.142H267.629V246.162H310.134C310.862 247.822 311.199 249.619 311.122 251.421Z" fill="white"/>
<path opacity="0.2" d="M288.376 251.421C288.458 253.209 288.12 254.992 287.388 256.636H267.64V255.656H268.5V247.142H267.64V246.162H287.388C288.116 247.822 288.453 249.619 288.376 251.421Z" fill="black"/>
<path opacity="0.8" d="M286.285 251.421C286.352 252.873 286.078 254.321 285.483 255.656H268.488V247.142H285.483C286.073 248.493 286.347 249.955 286.285 251.421Z" fill="white"/>
<path opacity="0.6" d="M304.198 251.421C304.28 253.209 303.942 254.992 303.211 256.636H295.3C296.031 254.992 296.369 253.209 296.287 251.421C296.359 249.63 296.022 247.846 295.3 246.196H303.211C303.933 247.846 304.27 249.63 304.198 251.421Z" fill="white"/>
<path d="M314.908 240.981C314.99 242.769 314.652 244.552 313.921 246.196H271.416V245.216H272.275V236.735H271.416V235.756H313.921C314.641 237.406 314.978 239.19 314.908 240.981Z" fill="#7894A2"/>
<path opacity="0.2" d="M292.163 240.981C292.244 242.769 291.907 244.552 291.175 246.196H271.427V245.216H272.286V236.735H271.427V235.756H291.175C291.895 237.406 292.232 239.19 292.163 240.981Z" fill="black"/>
<path opacity="0.8" d="M290.072 240.981C290.139 242.433 289.865 243.881 289.27 245.216H272.275V236.735H289.27C289.855 238.076 290.129 239.526 290.072 240.981Z" fill="white"/>
<path opacity="0.2" d="M307.985 240.981C308.067 242.769 307.729 244.552 306.997 246.196H299.086C299.818 244.552 300.156 242.769 300.074 240.981C300.144 239.19 299.807 237.406 299.086 235.756H306.997C307.717 237.406 308.055 239.19 307.985 240.981Z" fill="black"/>
<path d="M172.302 385.294L168.562 402.075L159.698 401.929L163.404 385.294H172.302Z" fill="#EBB376"/>
<path opacity="0.2" d="M172.314 385.295L170.455 393.595L161.673 393.02L163.404 385.295H172.314Z" fill="black"/>
<path d="M169.897 401.647H170.083C170.083 401.647 170.281 401.715 170.304 401.738C170.315 401.743 170.327 401.745 170.339 401.745C170.351 401.745 170.363 401.743 170.373 401.738C171.128 401.973 171.907 402.124 172.697 402.188C173.281 402.292 173.883 402.175 174.381 401.861C174.545 401.726 174.663 401.547 174.721 401.346C174.779 401.146 174.774 400.933 174.706 400.735C174.69 400.606 174.641 400.484 174.564 400.377C174.487 400.271 174.385 400.185 174.265 400.127C173.416 399.991 172.545 400.146 171.802 400.566C172.328 400.037 172.638 399.341 172.674 398.607C172.641 398.434 172.55 398.276 172.416 398.158C172.282 398.04 172.111 397.968 171.93 397.953C171.758 397.924 171.582 397.928 171.412 397.967C171.243 398.006 171.083 398.078 170.943 398.179C170.013 398.956 169.862 401.388 169.862 401.557L169.897 401.647ZM170.85 401.152L170.675 401.253C170.62 400.323 170.881 399.401 171.419 398.629C171.479 398.574 171.55 398.531 171.628 398.504C171.706 398.477 171.789 398.466 171.872 398.471H171.977C172.267 398.471 172.337 398.663 172.337 398.787C172.147 399.721 171.619 400.56 170.85 401.152ZM170.978 401.58C172.046 401.005 173.568 400.386 174.137 400.634C174.195 400.662 174.244 400.703 174.28 400.754C174.317 400.806 174.34 400.865 174.346 400.927C174.379 401.051 174.377 401.182 174.343 401.306C174.308 401.43 174.241 401.544 174.149 401.636C173.754 401.997 172.592 401.974 170.978 401.58Z" fill="#7894A2"/>
<path d="M169.689 400.6L159.757 400.003C159.674 399.994 159.591 400 159.511 400.022C159.431 400.044 159.357 400.082 159.292 400.132C159.227 400.182 159.173 400.245 159.133 400.315C159.093 400.386 159.068 400.463 159.06 400.543L158.084 408.145C158.061 408.544 158.201 408.936 158.472 409.237C158.743 409.538 159.125 409.724 159.536 409.756C163.021 409.902 164.671 409.812 169.038 410.038C172.919 410.438 176.824 410.573 180.725 410.443C184.431 410.094 183.977 406.546 182.374 406.377C178.587 405.961 173.569 403.258 171.188 401.208C170.771 400.85 170.244 400.637 169.689 400.6Z" fill="#263238"/>
<path d="M224.194 385.295L220.454 402.075L211.579 401.929L215.296 385.295H224.194Z" fill="#EBB376"/>
<path opacity="0.2" d="M224.194 385.295L222.335 393.595L213.553 393.02L215.284 385.295H224.194Z" fill="black"/>
<path d="M221.778 401.647H221.963C221.963 401.647 222.161 401.715 222.196 401.737C222.207 401.742 222.219 401.745 222.231 401.745C222.243 401.745 222.255 401.742 222.266 401.737C223.02 401.971 223.799 402.122 224.589 402.188C225.176 402.295 225.784 402.178 226.285 401.861C226.446 401.725 226.563 401.545 226.618 401.344C226.674 401.144 226.667 400.932 226.599 400.735C226.585 400.605 226.538 400.481 226.46 400.375C226.383 400.268 226.279 400.183 226.157 400.127C225.308 399.991 224.438 400.146 223.694 400.566C224.218 400.035 224.531 399.34 224.577 398.606C224.541 398.433 224.447 398.276 224.311 398.159C224.175 398.041 224.004 397.969 223.822 397.953C223.65 397.924 223.474 397.929 223.305 397.968C223.135 398.007 222.975 398.078 222.835 398.178C221.905 398.956 221.754 401.388 221.754 401.557L221.778 401.647ZM222.73 401.152L222.556 401.253C222.506 400.324 222.767 399.403 223.299 398.629C223.36 398.574 223.431 398.532 223.509 398.505C223.587 398.477 223.67 398.466 223.752 398.471H223.857C224.147 398.471 224.217 398.663 224.229 398.787C224.028 399.72 223.498 400.556 222.73 401.152ZM222.858 401.58C223.927 401.005 225.448 400.386 226.018 400.634C226.075 400.662 226.124 400.703 226.161 400.754C226.197 400.805 226.22 400.865 226.227 400.926C226.26 401.05 226.261 401.18 226.229 401.305C226.196 401.429 226.131 401.543 226.041 401.636C225.588 401.996 224.426 401.974 222.858 401.58Z" fill="#7894A2"/>
<path d="M221.569 400.6L211.637 400.003C211.555 399.994 211.471 400 211.391 400.022C211.311 400.044 211.237 400.082 211.172 400.132C211.107 400.182 211.053 400.245 211.014 400.315C210.974 400.386 210.949 400.463 210.94 400.543L209.964 408.145C209.942 408.544 210.081 408.936 210.352 409.237C210.624 409.538 211.005 409.724 211.416 409.756C214.901 409.902 216.551 409.812 220.919 410.038C224.797 410.426 228.698 410.55 232.594 410.409C236.299 410.06 235.846 406.512 234.255 406.344C230.456 405.927 225.438 403.224 223.068 401.174C222.647 400.829 222.12 400.627 221.569 400.6Z" fill="#263238"/>
<path d="M188.206 353.355C184.83 365.978 180.513 378.346 175.288 390.363L159.095 389.169C159.095 389.169 165.739 364.009 168.144 340.967C169.631 326.743 169.503 314.974 165.205 314.061C162.498 313.476 156.179 313.498 148.07 313.678V284.397C170.816 288.902 193.445 297.461 195.164 304.308C197.569 313.96 193.364 334.367 188.206 353.355Z" fill="#7894A2"/>
<path opacity="0.4" d="M188.206 353.355C184.83 365.978 180.513 378.346 175.288 390.363L159.095 389.169C159.095 389.169 165.739 364.009 168.144 340.967C169.631 326.743 169.503 314.974 165.205 314.061C162.498 313.476 156.179 313.498 148.07 313.678V284.397C170.816 288.902 193.445 297.461 195.164 304.308C197.569 313.96 193.364 334.367 188.206 353.355Z" fill="white"/>
<path opacity="0.2" d="M188.206 353.355C182.165 349.639 175.091 345.28 168.144 340.967C169.631 326.743 169.503 314.974 165.205 314.061C162.498 313.476 156.179 313.498 148.07 313.678V284.397C170.816 288.902 193.445 297.461 195.164 304.308C197.569 313.96 193.364 334.367 188.206 353.355Z" fill="black"/>
<path d="M179.354 281.525L180.783 270.409L134.432 263.01C134.432 263.01 119.273 292.19 126.696 306.403C133.491 319.49 205.933 311.696 217.085 314.05C228.237 316.404 210.928 389.157 210.928 389.157L227.192 390.362C227.192 390.362 252.214 324.907 247.068 304.32C244.802 295.344 206.607 283.451 179.354 281.525Z" fill="#7894A2"/>
<path opacity="0.6" d="M179.354 281.525L180.783 270.409L134.432 263.01C134.432 263.01 119.273 292.19 126.696 306.403C133.491 319.49 205.933 311.696 217.085 314.05C228.237 316.404 210.928 389.157 210.928 389.157L227.192 390.362C227.192 390.362 252.214 324.907 247.068 304.32C244.802 295.344 206.607 283.451 179.354 281.525Z" fill="white"/>
<path d="M204.853 191.101C204.458 191.766 204.504 192.52 204.957 192.768C205.41 193.016 206.119 192.678 206.479 192.002C206.839 191.326 206.828 190.594 206.386 190.335C205.945 190.076 205.283 190.459 204.853 191.101Z" fill="#263238"/>
<path d="M204.121 187.508C204.026 187.463 203.945 187.393 203.889 187.306C203.845 187.195 203.845 187.072 203.89 186.961C203.935 186.85 204.022 186.76 204.133 186.709C204.808 186.41 205.548 186.272 206.29 186.307C207.032 186.343 207.754 186.55 208.396 186.911C208.498 186.974 208.57 187.073 208.598 187.186C208.626 187.299 208.608 187.419 208.547 187.52C208.476 187.618 208.369 187.686 208.248 187.709C208.126 187.732 208 187.709 207.896 187.643C207.387 187.366 206.817 187.21 206.233 187.189C205.65 187.167 205.069 187.281 204.539 187.52C204.474 187.55 204.401 187.564 204.329 187.562C204.256 187.56 204.185 187.542 204.121 187.508Z" fill="#263238"/>
<path d="M205.503 190.245C205.122 192.749 205.094 195.291 205.421 197.802C204.755 197.863 204.084 197.784 203.452 197.57C202.821 197.356 202.244 197.013 201.762 196.563L205.503 190.245Z" fill="#DE5753"/>
<path d="M201.344 199.66C201.065 199.987 200.786 200.302 200.484 200.595C198.791 202.318 196.593 203.497 194.188 203.973C193.579 204.096 192.962 204.175 192.341 204.21C190.71 204.315 189.076 204.067 187.556 203.482C186.037 202.898 184.671 201.992 183.559 200.831C182.561 199.773 181.791 198.533 181.294 197.182C179.133 191.551 181.294 187.046 184.442 179.264C185.136 177.425 186.305 175.788 187.836 174.511C189.368 173.233 191.211 172.356 193.19 171.965C195.17 171.573 197.22 171.679 199.146 172.273C201.071 172.866 202.808 173.928 204.19 175.356C210.486 181.731 206.281 193.545 201.344 199.66Z" fill="#E4897B"/>
<path opacity="0.2" d="M194.188 203.951C193.579 204.074 192.962 204.153 192.341 204.188C190.71 204.293 189.075 204.044 187.556 203.46C186.037 202.875 184.671 201.97 183.559 200.809C184.34 200.047 185.218 199.385 186.172 198.838C189.292 199.766 192.074 201.54 194.188 203.951Z" fill="black"/>
<path d="M168.016 204.244C168.806 209.763 181.235 211.824 181.235 211.824C181.235 211.824 187.369 214.526 187.625 212.173C185.081 209.323 184.802 206.834 185.685 204.661C186.267 203.343 187.116 202.152 188.182 201.158C188.755 200.586 189.36 200.045 189.994 199.536L186.196 184.445C183.466 190.178 174.126 203.433 168.016 204.244Z" fill="#E4897B"/>
<path d="M203.482 171.032C203.482 171.032 206.142 170.705 208.128 175.537C209.847 179.58 205.805 180.458 205.979 184.76C206.153 189.063 202.111 191.439 202.111 191.439C202.111 191.439 198.695 194.288 195.803 192.745C195.803 192.745 192.016 194.547 191.017 197.689C190.018 200.832 184.151 195.155 178.866 196.023C178.866 196.023 175.3 192.779 175.555 184.918C175.759 181.504 176.622 178.158 178.099 175.052C178.801 173.409 179.833 171.917 181.135 170.664C182.438 169.411 183.984 168.422 185.685 167.755C191.772 165.119 202.355 167.101 203.482 171.032Z" fill="#263238"/>
<path d="M195.118 190.403C194.939 191.182 194.939 191.99 195.12 192.769C195.301 193.548 195.657 194.278 196.164 194.907C197.453 196.27 199.521 194.536 200.369 192.148C201.089 190.02 201.345 186.686 199.451 186.314C197.558 185.943 195.525 188.105 195.118 190.403Z" fill="#E4897B"/>
<path d="M186.196 206.26C182.774 203.328 178.55 201.419 174.033 200.764C172.06 200.528 170.062 200.942 168.36 201.938C166.658 202.935 165.35 204.457 164.647 206.26L185.487 210.348L186.196 206.26Z" fill="#7894A2"/>
<path d="M182.653 248.898L191.145 250.126C193.077 249.542 195.06 249.131 197.07 248.898C199.254 248.719 201.449 248.719 203.633 248.898C203.633 248.898 207.443 250.295 207.443 253.899C207.443 253.899 198.475 256.23 195.037 254.834L182.653 253.899V248.898Z" fill="#E4897B"/>
<path opacity="0.2" d="M182.653 248.898L191.145 250.126C193.077 249.542 195.06 249.131 197.07 248.898C199.254 248.719 201.449 248.719 203.633 248.898C203.633 248.898 207.443 250.295 207.443 253.899C207.443 253.899 198.475 256.23 195.037 254.834L182.653 253.899V248.898Z" fill="black"/>
<path d="M196.453 208.85C194.726 213.535 193.178 218.04 191.807 222.365C190.924 225.045 190.122 227.669 189.391 230.248C188.763 232.377 188.229 234.438 187.66 236.442C187.404 237.4 187.149 238.357 186.905 239.303C185.569 244.484 184.488 249.225 183.64 253.392C182.228 259.951 181.181 266.579 180.504 273.247L132.875 267.47C134.525 259.53 135.815 252.604 137.615 245.126C138.603 241.026 139.741 236.769 141.193 232.095C142.215 228.717 143.4 225.169 144.817 221.295C149.592 207.994 154.006 204.311 154.006 204.311C172.291 201.395 196.453 208.85 196.453 208.85Z" fill="#7894A2"/>
<path d="M212.299 249.754L220.791 250.993C222.722 250.402 224.705 249.988 226.716 249.754C228.9 249.582 231.095 249.582 233.279 249.754C233.279 249.754 237.124 251.151 237.124 254.721C237.124 254.721 228.156 257.052 224.706 255.656L212.299 254.721V249.754Z" fill="#E4897B"/>
<path d="M157.375 389.901L176.658 391.139L179.493 383.065L158.246 382.096L157.375 389.901Z" fill="#7894A2"/>
<path opacity="0.2" d="M157.375 389.901L176.658 391.139L179.493 383.065L158.246 382.096L157.375 389.901Z" fill="white"/>
<path d="M209.255 389.901L228.539 391.139L231.373 383.065L210.126 382.096L209.255 389.901Z" fill="#7894A2"/>
<path opacity="0.2" d="M209.255 389.901L228.539 391.139L231.373 383.065L210.126 382.096L209.255 389.901Z" fill="white"/>
<path d="M132.725 268.067L154.204 270.803L154.901 267.729L133.387 264.699L132.725 268.067Z" fill="black"/>
<path d="M156.69 267.751L156.422 270.803L176.275 273.45V270.432L156.69 267.751Z" fill="black"/>
<path d="M177.506 270.601V273.45L180.387 273.822V271.062L177.506 270.601Z" fill="black"/>
<path opacity="0.2" d="M191.795 222.365C190.912 225.045 190.111 227.669 189.379 230.248C188.752 232.377 188.217 234.438 187.648 236.443C186.161 228.559 188.81 219.133 188.81 219.133L191.795 222.365Z" fill="black"/>
<path d="M195.013 211.508C198.893 212.262 200.903 238.391 201.762 241.848C202.517 244.866 220.79 250.993 220.79 250.993V255.239C220.79 255.239 200.577 253.899 195.826 252.007C191.075 250.115 188.206 224.313 188.206 224.313L195.013 211.508Z" fill="#E4897B"/>
<g opacity="0.2">
<path d="M196.453 208.85C194.726 213.535 193.178 218.04 191.807 222.365C190.924 225.045 190.122 227.669 189.391 230.248C188.763 232.377 188.229 234.438 187.66 236.442C187.404 237.4 187.149 238.357 186.905 239.303C185.569 244.484 184.488 249.225 183.64 253.392C182.228 259.951 181.181 266.579 180.504 273.247L132.875 267.47C134.525 259.53 135.815 252.604 137.615 245.126C138.603 241.026 139.741 236.769 141.193 232.095C142.215 228.717 143.4 225.169 144.817 221.295C149.592 207.994 154.006 204.311 154.006 204.311C172.291 201.395 196.453 208.85 196.453 208.85Z" fill="white"/>
</g>
<path d="M196.454 208.85C200.008 209.976 201.763 232.501 201.763 232.501L188.856 234.156L186.185 224.899C186.185 224.899 187.253 220.529 188.787 215.945C191.017 209.3 196.454 208.85 196.454 208.85Z" fill="#7894A2"/>
<path d="M113.197 406.569C113.197 405.784 112.957 405.017 112.507 404.365C112.057 403.713 111.418 403.205 110.67 402.905C109.922 402.605 109.1 402.527 108.306 402.681C107.513 402.835 106.784 403.214 106.213 403.769C105.641 404.325 105.253 405.032 105.096 405.802C104.94 406.572 105.022 407.369 105.334 408.094C105.645 408.818 106.171 409.436 106.845 409.87C107.519 410.305 108.31 410.535 109.12 410.533C109.656 410.533 110.187 410.43 110.683 410.231C111.178 410.032 111.628 409.739 112.007 409.371C112.386 409.003 112.686 408.566 112.89 408.085C113.094 407.604 113.199 407.089 113.197 406.569Z" fill="#263238"/>
<path opacity="0.2" d="M113.197 406.569C113.197 405.784 112.957 405.017 112.507 404.365C112.057 403.713 111.418 403.205 110.67 402.905C109.922 402.605 109.1 402.527 108.306 402.681C107.513 402.835 106.784 403.214 106.213 403.769C105.641 404.325 105.253 405.032 105.096 405.802C104.94 406.572 105.022 407.369 105.334 408.094C105.645 408.818 106.171 409.436 106.845 409.87C107.519 410.305 108.31 410.535 109.12 410.533C109.656 410.533 110.187 410.43 110.683 410.231C111.178 410.032 111.628 409.739 112.007 409.371C112.386 409.003 112.686 408.566 112.89 408.085C113.094 407.604 113.199 407.089 113.197 406.569Z" fill="white"/>
<path d="M211.486 406.569C211.486 405.785 211.246 405.018 210.797 404.366C210.348 403.714 209.709 403.206 208.962 402.906C208.215 402.606 207.393 402.528 206.599 402.681C205.806 402.834 205.078 403.211 204.506 403.765C203.934 404.32 203.544 405.026 203.387 405.795C203.229 406.564 203.31 407.361 203.619 408.086C203.929 408.81 204.453 409.429 205.125 409.865C205.798 410.3 206.588 410.533 207.397 410.533C207.935 410.534 208.467 410.433 208.964 410.234C209.461 410.036 209.912 409.744 210.292 409.375C210.672 409.007 210.973 408.569 211.178 408.087C211.383 407.606 211.488 407.09 211.486 406.569Z" fill="#263238"/>
<path opacity="0.2" d="M211.486 406.569C211.486 405.785 211.246 405.018 210.797 404.366C210.348 403.714 209.709 403.206 208.962 402.906C208.215 402.606 207.393 402.528 206.599 402.681C205.806 402.834 205.078 403.211 204.506 403.765C203.934 404.32 203.544 405.026 203.387 405.795C203.229 406.564 203.31 407.361 203.619 408.086C203.929 408.81 204.453 409.429 205.125 409.865C205.798 410.3 206.588 410.533 207.397 410.533C207.935 410.534 208.467 410.433 208.964 410.234C209.461 410.036 209.912 409.744 210.292 409.375C210.672 409.007 210.973 408.569 211.178 408.087C211.383 407.606 211.488 407.09 211.486 406.569Z" fill="white"/>
<path opacity="0.2" d="M111.153 406.569C111.153 406.176 111.033 405.793 110.808 405.466C110.582 405.14 110.262 404.886 109.888 404.736C109.514 404.587 109.102 404.548 108.705 404.626C108.308 404.703 107.944 404.893 107.659 405.171C107.373 405.45 107.179 405.804 107.102 406.189C107.024 406.574 107.066 406.973 107.223 407.335C107.379 407.697 107.643 408.006 107.981 408.222C108.319 408.439 108.715 408.553 109.12 408.551C109.388 408.551 109.653 408.5 109.901 408.4C110.148 408.3 110.373 408.154 110.562 407.97C110.751 407.785 110.9 407.567 111.002 407.326C111.103 407.086 111.155 406.829 111.153 406.569Z" fill="white"/>
<path opacity="0.2" d="M207.397 408.551C208.526 408.551 209.441 407.663 209.441 406.569C209.441 405.474 208.526 404.586 207.397 404.586C206.267 404.586 205.352 405.474 205.352 406.569C205.352 407.663 206.267 408.551 207.397 408.551Z" fill="white"/>
<path d="M161.639 389.202V346.62H154.878V389.202C128.578 389.856 112.593 398.775 109.387 400.724C109.204 400.837 109.054 400.994 108.951 401.179C108.847 401.364 108.793 401.572 108.794 401.782V405.319C108.794 405.65 108.93 405.968 109.172 406.203C109.414 406.437 109.742 406.569 110.084 406.569C110.318 406.576 110.55 406.521 110.755 406.41C110.96 406.299 111.129 406.136 111.246 405.938L112.802 403.28C126.429 399.069 140.613 396.792 154.913 396.523V403.528C154.916 403.956 155.093 404.366 155.407 404.667C155.72 404.969 156.144 405.138 156.585 405.138H160.001C160.442 405.138 160.866 404.969 161.179 404.667C161.493 404.366 161.67 403.956 161.674 403.528V396.523C175.973 396.792 190.157 399.069 203.784 403.28L205.341 405.938C205.457 406.136 205.626 406.299 205.831 406.41C206.036 406.521 206.268 406.576 206.502 406.569C206.844 406.569 207.172 406.437 207.414 406.203C207.656 405.968 207.792 405.65 207.792 405.319V401.782C207.793 401.572 207.739 401.364 207.636 401.179C207.532 400.994 207.382 400.837 207.199 400.724C203.958 398.775 187.939 389.856 161.639 389.202Z" fill="#263238"/>
<path opacity="0.2" d="M161.639 389.202V346.62H154.878V389.202C128.578 389.856 112.593 398.775 109.387 400.724C109.204 400.837 109.054 400.994 108.951 401.179C108.847 401.364 108.793 401.572 108.794 401.782V405.319C108.794 405.65 108.93 405.968 109.172 406.203C109.414 406.437 109.742 406.569 110.084 406.569C110.318 406.576 110.55 406.521 110.755 406.41C110.96 406.299 111.129 406.136 111.246 405.938L112.802 403.28C126.429 399.069 140.613 396.792 154.913 396.523V403.528C154.916 403.956 155.093 404.366 155.407 404.667C155.72 404.969 156.144 405.138 156.585 405.138H160.001C160.442 405.138 160.866 404.969 161.179 404.667C161.493 404.366 161.67 403.956 161.674 403.528V396.523C175.973 396.792 190.157 399.069 203.784 403.28L205.341 405.938C205.457 406.136 205.626 406.299 205.831 406.41C206.036 406.521 206.268 406.576 206.502 406.569C206.844 406.569 207.172 406.437 207.414 406.203C207.656 405.968 207.792 405.65 207.792 405.319V401.782C207.793 401.572 207.739 401.364 207.636 401.179C207.532 400.994 207.382 400.837 207.199 400.724C203.958 398.775 187.939 389.856 161.639 389.202Z" fill="black"/>
<path d="M159.583 402.616H156.935C156.441 402.616 156.04 403.004 156.04 403.483V409.666C156.04 410.145 156.441 410.533 156.935 410.533H159.583C160.077 410.533 160.478 410.145 160.478 409.666V403.483C160.478 403.004 160.077 402.616 159.583 402.616Z" fill="#263238"/>
<path opacity="0.2" d="M159.583 402.616H156.935C156.441 402.616 156.04 403.004 156.04 403.483V409.666C156.04 410.145 156.441 410.533 156.935 410.533H159.583C160.077 410.533 160.478 410.145 160.478 409.666V403.483C160.478 403.004 160.077 402.616 159.583 402.616Z" fill="white"/>
<path d="M113.987 304.702H202.541C204.978 304.702 207.315 305.641 209.038 307.312C210.762 308.982 211.73 311.248 211.73 313.611V318.994H104.787V313.588C104.793 311.228 105.765 308.966 107.49 307.3C109.215 305.634 111.552 304.699 113.987 304.702Z" fill="#7894A2"/>
<path d="M142.925 269.317H201.798C202.52 269.294 203.237 269.435 203.892 269.728C204.548 270.021 205.124 270.458 205.575 271.005C206.026 271.551 206.339 272.192 206.49 272.877C206.641 273.561 206.626 274.27 206.445 274.948L195.827 319.005H193.399L202.367 280.353C202.523 279.681 202.521 278.984 202.359 278.313C202.197 277.642 201.881 277.016 201.434 276.48C200.987 275.945 200.421 275.515 199.777 275.222C199.134 274.929 198.431 274.782 197.721 274.79H144.133L142.925 269.317Z" fill="#263238"/>
<path d="M165.206 320.548V357.804C165.203 358.376 164.967 358.925 164.549 359.329C164.131 359.734 163.566 359.963 162.975 359.966H153.554C153.261 359.968 152.97 359.913 152.699 359.805C152.428 359.696 152.181 359.537 151.974 359.336C151.766 359.135 151.602 358.896 151.49 358.633C151.379 358.37 151.322 358.088 151.324 357.804V320.548H165.206Z" fill="#263238"/>
<path opacity="0.2" d="M165.217 320.548H151.324V336.023H165.217V320.548Z" fill="black"/>
<path d="M214.646 316.708V321.213C214.646 321.81 214.401 322.383 213.966 322.806C213.53 323.228 212.939 323.465 212.323 323.465H104.288C103.672 323.465 103.081 323.228 102.645 322.806C102.209 322.383 101.964 321.81 101.964 321.213V316.708C101.964 316.111 102.209 315.538 102.645 315.115C103.081 314.693 103.672 314.456 104.288 314.456H212.323C212.939 314.456 213.53 314.693 213.966 315.115C214.401 315.538 214.646 316.111 214.646 316.708Z" fill="#263238"/>
<path d="M164.927 319.005H101.871C101.871 319.005 81.8442 286.705 81.8442 233.334V213.727C81.8442 209.844 83.4353 206.12 86.2674 203.374C89.0995 200.628 92.9407 199.086 96.9459 199.086H123.664C127.594 199.067 131.374 200.54 134.197 203.19C137.02 205.84 138.66 209.457 138.766 213.265C139.451 240.812 143.633 300.366 164.927 319.005Z" fill="#263238"/>
<path opacity="0.2" d="M151.057 319.005H104.729C103.851 319.007 102.988 318.775 102.237 318.334C101.485 317.893 100.872 317.26 100.466 316.505C95.9123 307.98 81.8794 278.045 81.8794 233.334V213.727C81.8794 209.844 83.4705 206.12 86.3026 203.374C89.1347 200.628 92.9759 199.086 96.9811 199.086H120.087C124.011 199.084 127.781 200.563 130.6 203.209C133.419 205.856 135.065 209.462 135.188 213.265C135.885 237.828 139.289 287.978 155.192 311.685C155.703 312.397 155.998 313.233 156.046 314.098C156.093 314.964 155.891 315.826 155.461 316.586C155.032 317.347 154.392 317.976 153.614 318.403C152.836 318.83 151.95 319.039 151.057 319.005Z" fill="white"/>
<path opacity="0.2" d="M214.646 316.708V321.213C214.646 321.81 214.401 322.383 213.966 322.805C213.53 323.228 212.939 323.465 212.323 323.465H163.881C163.041 323.462 162.236 323.137 161.642 322.561C161.048 321.985 160.713 321.205 160.71 320.391V317.541C160.71 316.726 161.044 315.944 161.639 315.367C162.234 314.791 163.04 314.467 163.881 314.467H212.311C212.616 314.465 212.919 314.522 213.201 314.634C213.484 314.746 213.741 314.91 213.957 315.118C214.174 315.327 214.347 315.574 214.465 315.847C214.583 316.119 214.645 316.412 214.646 316.708Z" fill="black"/>
</svg>
