<svg width="34" height="30" viewBox="0 0 34 30" fill="none" xmlns="http://www.w3.org/2000/svg">
<g filter="url(#filter0_d_718_70)">
<path d="M13.3167 8.6362L14.579 11.1595H12.0545L13.3167 8.6362ZM28.838 2.0294V20.2897C28.8381 20.4454 28.7984 20.5986 28.7226 20.7346C28.6469 20.8706 28.5376 20.985 28.4051 21.0669C28.2727 21.1488 28.1215 21.1955 27.966 21.2024C27.8104 21.2094 27.6557 21.1765 27.5164 21.1068L24.2729 19.484L21.0294 21.1068C20.9026 21.1703 20.7627 21.2034 20.6209 21.2034C20.479 21.2034 20.3391 21.1703 20.2123 21.1068L16.9688 19.484L13.7253 21.1068C13.5985 21.1703 13.4586 21.2034 13.3167 21.2034C13.1749 21.2034 13.035 21.1703 12.9082 21.1068L9.66468 19.484L6.4212 21.1068C6.28195 21.1765 6.12719 21.2094 5.97164 21.2024C5.81609 21.1955 5.66491 21.1488 5.53247 21.0669C5.40003 20.985 5.29074 20.8706 5.21497 20.7346C5.13921 20.5986 5.0995 20.4454 5.09961 20.2897V2.0294C5.09961 1.54511 5.29199 1.08065 5.63444 0.738201C5.97689 0.395754 6.44135 0.203369 6.92564 0.203369H27.012C27.4963 0.203369 27.9607 0.395754 28.3032 0.738201C28.6456 1.08065 28.838 1.54511 28.838 2.0294ZM17.7859 13.49L14.1339 6.1859C14.0582 6.03397 13.9416 5.90615 13.7972 5.81682C13.6529 5.72748 13.4865 5.68015 13.3167 5.68015C13.147 5.68015 12.9806 5.72748 12.8362 5.81682C12.6919 5.90615 12.5753 6.03397 12.4996 6.1859L8.84754 13.49C8.79388 13.5973 8.76189 13.7142 8.75338 13.8338C8.74488 13.9535 8.76003 14.0737 8.79797 14.1875C8.83591 14.3013 8.89589 14.4065 8.9745 14.4972C9.05311 14.5878 9.1488 14.6621 9.25611 14.7157C9.36342 14.7694 9.48025 14.8014 9.59992 14.8099C9.71959 14.8184 9.83977 14.8033 9.95359 14.7653C10.0674 14.7274 10.1726 14.6674 10.2633 14.5888C10.3539 14.5102 10.4282 14.4145 10.4818 14.3072L11.1415 12.9856H15.492L16.1517 14.3072C16.2053 14.4145 16.2796 14.5102 16.3702 14.5888C16.4608 14.6674 16.5661 14.7274 16.6799 14.7653C16.7937 14.8033 16.9139 14.8184 17.0336 14.8099C17.1532 14.8014 17.2701 14.7694 17.3774 14.7157C17.4847 14.6621 17.5804 14.5878 17.659 14.4972C17.7376 14.4065 17.7976 14.3013 17.8355 14.1875C17.8735 14.0737 17.8886 13.9535 17.8801 13.8338C17.8716 13.7142 17.8396 13.5973 17.7859 13.49ZM26.0989 10.2465C26.0989 10.0044 26.0028 9.77216 25.8315 9.60094C25.6603 9.42971 25.4281 9.33352 25.1859 9.33352H23.3599V7.50749C23.3599 7.26534 23.2637 7.03311 23.0925 6.86189C22.9213 6.69067 22.689 6.59447 22.4469 6.59447C22.2047 6.59447 21.9725 6.69067 21.8013 6.86189C21.6301 7.03311 21.5339 7.26534 21.5339 7.50749V9.33352H19.7078C19.4657 9.33352 19.2335 9.42971 19.0622 9.60094C18.891 9.77216 18.7948 10.0044 18.7948 10.2465C18.7948 10.4887 18.891 10.7209 19.0622 10.8921C19.2335 11.0634 19.4657 11.1595 19.7078 11.1595H21.5339V12.9856C21.5339 13.2277 21.6301 13.46 21.8013 13.6312C21.9725 13.8024 22.2047 13.8986 22.4469 13.8986C22.689 13.8986 22.9213 13.8024 23.0925 13.6312C23.2637 13.46 23.3599 13.2277 23.3599 12.9856V11.1595H25.1859C25.4281 11.1595 25.6603 11.0634 25.8315 10.8921C26.0028 10.7209 26.0989 10.4887 26.0989 10.2465Z" fill="black"/>
</g>
<defs>
<filter id="filter0_d_718_70" x="0.771243" y="0.203369" width="32.395" height="29.6567" filterUnits="userSpaceOnUse" color-interpolation-filters="sRGB">
<feFlood flood-opacity="0" result="BackgroundImageFix"/>
<feColorMatrix in="SourceAlpha" type="matrix" values="0 0 0 0 0 0 0 0 0 0 0 0 0 0 0 0 0 0 127 0" result="hardAlpha"/>
<feOffset dy="4.32837"/>
<feGaussianBlur stdDeviation="2.16418"/>
<feComposite in2="hardAlpha" operator="out"/>
<feColorMatrix type="matrix" values="0 0 0 0 0 0 0 0 0 0 0 0 0 0 0 0 0 0 0.25 0"/>
<feBlend mode="normal" in2="BackgroundImageFix" result="effect1_dropShadow_718_70"/>
<feBlend mode="normal" in="SourceGraphic" in2="effect1_dropShadow_718_70" result="shape"/>
</filter>
</defs>
</svg>
