<svg width="31" height="33" viewBox="0 0 31 33" fill="none" xmlns="http://www.w3.org/2000/svg">
<g filter="url(#filter0_d_718_69)">
<path d="M12.125 12.0118L13.2915 14.3438H10.9585L12.125 12.0118ZM26.4688 5.90625V22.7813C26.4689 22.9251 26.4322 23.0667 26.3621 23.1924C26.2921 23.3181 26.1911 23.4238 26.0687 23.4995C25.9463 23.5752 25.8066 23.6183 25.6629 23.6248C25.5191 23.6312 25.3761 23.6008 25.2474 23.5364L22.25 22.0366L19.2526 23.5364C19.1354 23.5951 19.0061 23.6256 18.875 23.6256C18.7439 23.6256 18.6146 23.5951 18.4974 23.5364L15.5 22.0366L12.5026 23.5364C12.3854 23.5951 12.2561 23.6256 12.125 23.6256C11.9939 23.6256 11.8646 23.5951 11.7474 23.5364L8.75 22.0366L5.75258 23.5364C5.62389 23.6008 5.48088 23.6312 5.33713 23.6248C5.19337 23.6183 5.05366 23.5752 4.93127 23.4995C4.80888 23.4238 4.70788 23.3181 4.63786 23.1924C4.56785 23.0667 4.53115 22.9251 4.53125 22.7813V5.90625C4.53125 5.4587 4.70904 5.02947 5.02551 4.71301C5.34198 4.39654 5.7712 4.21875 6.21875 4.21875H24.7812C25.2288 4.21875 25.658 4.39654 25.9745 4.71301C26.291 5.02947 26.4688 5.4587 26.4688 5.90625ZM16.2552 16.4974L12.8802 9.74742C12.8102 9.60702 12.7024 9.4889 12.569 9.40634C12.4357 9.32378 12.2819 9.28004 12.125 9.28004C11.9681 9.28004 11.8143 9.32378 11.681 9.40634C11.5476 9.4889 11.4398 9.60702 11.3698 9.74742L7.99484 16.4974C7.94526 16.5966 7.91569 16.7046 7.90783 16.8152C7.89997 16.9257 7.91397 17.0368 7.94904 17.142C7.9841 17.2472 8.03953 17.3444 8.11218 17.4282C8.18482 17.5119 8.27325 17.5806 8.37242 17.6302C8.47159 17.6797 8.57955 17.7093 8.69015 17.7172C8.80074 17.725 8.9118 17.711 9.01699 17.676C9.12217 17.6409 9.21942 17.5855 9.30318 17.5128C9.38694 17.4402 9.45557 17.3517 9.50516 17.2526L10.1148 16.0313H14.1352L14.7448 17.2526C14.7944 17.3517 14.8631 17.4402 14.9468 17.5128C15.0306 17.5855 15.1278 17.6409 15.233 17.676C15.3382 17.711 15.4493 17.725 15.5599 17.7172C15.6704 17.7093 15.7784 17.6797 15.8776 17.6302C15.9767 17.5806 16.0652 17.5119 16.1378 17.4282C16.2105 17.3444 16.2659 17.2472 16.301 17.142C16.336 17.0368 16.35 16.9257 16.3422 16.8152C16.3343 16.7046 16.3047 16.5966 16.2552 16.4974ZM23.9375 13.5C23.9375 13.2762 23.8486 13.0616 23.6904 12.9034C23.5321 12.7451 23.3175 12.6563 23.0938 12.6563H21.4062V10.9688C21.4062 10.745 21.3174 10.5304 21.1591 10.3721C21.0009 10.2139 20.7863 10.125 20.5625 10.125C20.3387 10.125 20.1241 10.2139 19.9659 10.3721C19.8076 10.5304 19.7188 10.745 19.7188 10.9688V12.6563H18.0312C17.8075 12.6563 17.5929 12.7451 17.4346 12.9034C17.2764 13.0616 17.1875 13.2762 17.1875 13.5C17.1875 13.7238 17.2764 13.9384 17.4346 14.0966C17.5929 14.2549 17.8075 14.3438 18.0312 14.3438H19.7188V16.0313C19.7188 16.255 19.8076 16.4696 19.9659 16.6279C20.1241 16.7861 20.3387 16.875 20.5625 16.875C20.7863 16.875 21.0009 16.7861 21.1591 16.6279C21.3174 16.4696 21.4062 16.255 21.4062 16.0313V14.3438H23.0938C23.3175 14.3438 23.5321 14.2549 23.6904 14.0966C23.8486 13.9384 23.9375 13.7238 23.9375 13.5Z" fill="black"/>
</g>
<defs>
<filter id="filter0_d_718_69" x="-2.32" y="0" width="35.64" height="35.64" filterUnits="userSpaceOnUse" color-interpolation-filters="sRGB">
<feFlood flood-opacity="0" result="BackgroundImageFix"/>
<feColorMatrix in="SourceAlpha" type="matrix" values="0 0 0 0 0 0 0 0 0 0 0 0 0 0 0 0 0 0 127 0" result="hardAlpha"/>
<feOffset dy="4.32"/>
<feGaussianBlur stdDeviation="2.16"/>
<feComposite in2="hardAlpha" operator="out"/>
<feColorMatrix type="matrix" values="0 0 0 0 0 0 0 0 0 0 0 0 0 0 0 0 0 0 0.25 0"/>
<feBlend mode="normal" in2="BackgroundImageFix" result="effect1_dropShadow_718_69"/>
<feBlend mode="normal" in="SourceGraphic" in2="effect1_dropShadow_718_69" result="shape"/>
</filter>
</defs>
</svg>
