<svg width="33" height="33" viewBox="0 0 33 33" fill="none" xmlns="http://www.w3.org/2000/svg">
<g filter="url(#filter0_d_656_412)">
<path d="M26.0569 13.724C26.1104 13.3333 26.1372 12.9297 26.1372 12.5C26.1372 12.0833 26.1104 11.6667 26.0435 11.276L28.7608 9.21875C28.8779 9.12487 28.9579 8.9944 28.9872 8.84957C29.0165 8.70474 28.9932 8.55451 28.9214 8.42448L26.3514 4.10157C26.2757 3.97079 26.1549 3.87028 26.0103 3.81785C25.8658 3.76542 25.7068 3.76445 25.5616 3.81511L22.3624 5.06511C21.6931 4.57031 20.9837 4.15365 20.194 3.84115L19.7121 0.533858C19.6884 0.384808 19.6105 0.248971 19.4926 0.151014C19.3747 0.0530574 19.2246 -0.000522792 19.0696 3.84557e-06H13.9295C13.6082 3.84557e-06 13.3539 0.221358 13.3003 0.533858L12.8185 3.84115C12.0287 4.15365 11.3059 4.58334 10.65 5.06511L7.4508 3.81511C7.15631 3.71094 6.82167 3.81511 6.66104 4.10157L4.10438 8.42448C3.94375 8.69792 3.99729 9.03646 4.26501 9.21875L6.9823 11.276C6.91537 11.6667 6.86183 12.0964 6.86183 12.5C6.86183 12.9036 6.8886 13.3333 6.95553 13.724L4.23824 15.7813C4.12114 15.8751 4.04114 16.0056 4.01185 16.1504C3.98256 16.2953 4.0058 16.4455 4.07761 16.5755L6.64766 20.8984C6.80828 21.1849 7.14293 21.276 7.43741 21.1849L10.6366 19.9349C11.3059 20.4297 12.0153 20.8464 12.8051 21.1589L13.287 24.4661C13.3539 24.7786 13.6082 25 13.9295 25H19.0696C19.3908 25 19.6585 24.7786 19.6987 24.4661L20.1806 21.1589C20.9703 20.8464 21.6932 20.4297 22.349 19.9349L25.5482 21.1849C25.8427 21.2891 26.1774 21.1849 26.338 20.8984L28.908 16.5755C29.0687 16.2891 29.0017 15.9635 28.7474 15.7813L26.0569 13.724ZM16.4995 17.1875C13.8491 17.1875 11.6807 15.0781 11.6807 12.5C11.6807 9.92188 13.8491 7.8125 16.4995 7.8125C19.1499 7.8125 21.3184 9.92188 21.3184 12.5C21.3184 15.0781 19.1499 17.1875 16.4995 17.1875Z" fill="black"/>
</g>
<defs>
<filter id="filter0_d_656_412" x="-0.000488043" y="0" width="33" height="33" filterUnits="userSpaceOnUse" color-interpolation-filters="sRGB">
<feFlood flood-opacity="0" result="BackgroundImageFix"/>
<feColorMatrix in="SourceAlpha" type="matrix" values="0 0 0 0 0 0 0 0 0 0 0 0 0 0 0 0 0 0 127 0" result="hardAlpha"/>
<feOffset dy="4"/>
<feGaussianBlur stdDeviation="2"/>
<feComposite in2="hardAlpha" operator="out"/>
<feColorMatrix type="matrix" values="0 0 0 0 0 0 0 0 0 0 0 0 0 0 0 0 0 0 0.25 0"/>
<feBlend mode="normal" in2="BackgroundImageFix" result="effect1_dropShadow_656_412"/>
<feBlend mode="normal" in="SourceGraphic" in2="effect1_dropShadow_656_412" result="shape"/>
</filter>
</defs>
</svg>
