<svg width="690" height="180" viewBox="0 0 690 180" fill="none" xmlns="http://www.w3.org/2000/svg">
<path d="M0 20C0 8.9543 8.95431 0 20 0H670C681.046 0 690 8.95431 690 20V160C690 171.046 681.046 180 670 180H20C8.9543 180 0 171.046 0 160V20Z" fill="#7076F3" fill-opacity="0.85"/>
<path d="M578.848 42.4968C578.151 43.5626 577.661 44.7502 577.404 45.9975L575.447 46.1815V49.9692L577.404 50.1533C577.661 51.4016 578.151 52.5902 578.848 53.6571L577.6 55.164L580.277 57.841L581.787 56.593C582.852 57.292 584.04 57.7822 585.288 58.0375L585.472 59.9938H589.26L589.444 58.0375C590.691 57.7816 591.879 57.2915 592.944 56.593L594.454 57.841L597.131 55.164L595.883 53.6571C596.581 52.5902 597.071 51.4016 597.328 50.1533L599.284 49.9692V46.1815L597.328 45.9975C597.071 44.7502 596.58 43.5626 595.883 42.4968L597.131 40.9867L594.448 38.3098L592.938 39.5578C591.878 38.8627 590.697 38.3727 589.456 38.1132L589.272 36.157H585.469L585.285 38.1132C584.037 38.37 582.849 38.8601 581.784 39.5578L580.274 38.3098L577.6 40.9867L578.848 42.4968ZM591.715 43.7448C592.575 44.605 593.16 45.7007 593.397 46.8935C593.634 48.0863 593.512 49.3227 593.047 50.4462C592.581 51.5697 591.793 52.53 590.782 53.2056C589.771 53.8812 588.582 54.2418 587.366 54.2418C586.15 54.2418 584.961 53.8812 583.949 53.2056C582.938 52.53 582.15 51.5697 581.684 50.4462C581.219 49.3227 581.097 48.0863 581.334 46.8935C581.571 45.7007 582.157 44.605 583.016 43.7448C584.168 42.5907 585.73 41.9407 587.361 41.9378C588.991 41.9349 590.556 42.5792 591.712 43.7292L591.715 43.7448Z" fill="#F0F0F0"/>
<path d="M568.203 21H541.464C540.613 21 539.923 21.6901 539.923 22.5413V43.0022C539.923 43.8535 540.613 44.5435 541.464 44.5435H568.203C569.054 44.5435 569.744 43.8535 569.744 43.0022V22.5413C569.744 21.6901 569.054 21 568.203 21Z" fill="#E6E6E6"/>
<path d="M541.364 21H568.324C568.701 21 569.062 21.1496 569.328 21.4158C569.594 21.682 569.744 22.0431 569.744 22.4196V25.1059H539.923V22.4446C539.923 22.062 540.075 21.695 540.345 21.4242C540.615 21.1534 540.982 21.0008 541.364 21Z" fill="#E0E0E0"/>
<path opacity="0.5" d="M568.162 23.3522C568.163 23.5302 568.11 23.7044 568.012 23.8526C567.913 24.0009 567.773 24.1165 567.609 24.1849C567.445 24.2533 567.264 24.2714 567.089 24.2368C566.914 24.2022 566.754 24.1166 566.628 23.9907C566.502 23.8649 566.417 23.7045 566.382 23.5299C566.348 23.3553 566.366 23.1744 566.434 23.01C566.502 22.8457 566.618 22.7054 566.766 22.6069C566.915 22.5084 567.089 22.4562 567.267 22.4568C567.504 22.4568 567.732 22.5511 567.9 22.7191C568.068 22.887 568.162 23.1147 568.162 23.3522Z" fill="#FAFAFA"/>
<path opacity="0.5" d="M565.616 23.3522C565.617 23.5301 565.565 23.7041 565.466 23.8523C565.368 24.0005 565.228 24.1161 565.064 24.1846C564.9 24.2531 564.719 24.2713 564.544 24.237C564.37 24.2027 564.209 24.1174 564.083 23.9918C563.957 23.8663 563.872 23.7062 563.837 23.5318C563.802 23.3574 563.819 23.1766 563.887 23.0122C563.955 22.8478 564.07 22.7073 564.218 22.6084C564.366 22.5096 564.54 22.4568 564.718 22.4568C564.835 22.4564 564.952 22.4792 565.061 22.5241C565.17 22.5689 565.269 22.6348 565.353 22.718C565.436 22.8011 565.503 22.9 565.548 23.0088C565.593 23.1177 565.616 23.2344 565.616 23.3522Z" fill="#FAFAFA"/>
<path opacity="0.5" d="M562.172 24.2477C562.666 24.2477 563.067 23.8468 563.067 23.3522C563.067 22.8577 562.666 22.4568 562.172 22.4568C561.677 22.4568 561.276 22.8577 561.276 23.3522C561.276 23.8468 561.677 24.2477 562.172 24.2477Z" fill="#FAFAFA"/>
<path opacity="0.6" d="M562.724 28.5378H546.768V29.374H562.724V28.5378Z" fill="white"/>
<path d="M558.431 30.3445H547.015V31.1806H558.431V30.3445Z" fill="#E0E0E0"/>
<path d="M567.051 28.5378H564.134V29.374H567.051V28.5378Z" fill="#F0F0F0"/>
<path d="M545.661 28.5378H542.522V29.374H545.661V28.5378Z" fill="#F0F0F0"/>
<path d="M562.724 32.3535H546.768V33.1897H562.724V32.3535Z" fill="#F0F0F0"/>
<path opacity="0.6" d="M567.051 32.3535H564.134V33.1897H567.051V32.3535Z" fill="white"/>
<path d="M545.661 32.3535H542.522V33.1897H545.661V32.3535Z" fill="#F0F0F0"/>
<path opacity="0.6" d="M562.724 40.3098H546.768V41.146H562.724V40.3098Z" fill="white"/>
<path opacity="0.6" d="M567.051 40.3098H564.134V41.146H567.051V40.3098Z" fill="white"/>
<path d="M562.724 34.366H546.768V35.2021H562.724V34.366Z" fill="#F0F0F0"/>
<path d="M567.051 34.366H564.134V35.2021H567.051V34.366Z" fill="#E0E0E0"/>
<path d="M545.661 34.366H542.522V35.2021H545.661V34.366Z" fill="#E0E0E0"/>
<path d="M567.267 30.3787H559.682V31.2148H567.267V30.3787Z" fill="#F0F0F0"/>
<path opacity="0.6" d="M558.184 36.1194H546.768V36.9555H558.184V36.1194Z" fill="white"/>
<path d="M567.017 36.1538H559.432V36.99H567.017V36.1538Z" fill="#F0F0F0"/>
<path d="M552.478 37.9382H546.768V38.7744H552.478V37.9382Z" fill="#E0E0E0"/>
<path d="M608.894 37.5453L605.515 39.124L608.894 40.7027V41.9757L604.379 39.7917V38.4626L608.894 36.2786V37.5453Z" fill="#E0E0E0"/>
<path d="M619.18 38.4625V39.7854L614.663 41.9694V40.7027L618.042 39.1239L614.663 37.5452V36.2754L619.18 38.4625Z" fill="#E0E0E0"/>
<path d="M612.569 35.3865L610.366 42.9993H611.468L613.67 35.3865H612.569Z" fill="#E0E0E0"/>
<path d="M495.656 78.2864C495.247 78.909 494.96 79.6035 494.811 80.3331L493.669 80.4392V82.6512L494.811 82.7604C494.96 83.489 495.247 84.1825 495.656 84.804L494.92 85.687L496.48 87.247L497.36 86.5169C497.983 86.9244 498.677 87.2112 499.406 87.3624L499.512 88.5044H501.725L501.834 87.3624C502.562 87.2118 503.255 86.9249 503.877 86.5169L504.76 87.247L506.32 85.687L505.59 84.804C506.009 84.1847 506.305 83.491 506.464 82.7604L507.606 82.6512V80.4392L506.464 80.3331C506.314 79.6035 506.027 78.909 505.618 78.2864L506.333 77.4003L504.773 75.8403L503.89 76.5672C503.268 76.1602 502.574 75.8744 501.846 75.7248L501.734 74.5923H499.522L499.416 75.7342C498.687 75.884 497.992 76.1698 497.369 76.5766L496.48 75.8403L494.92 77.4003L495.656 78.2864ZM503.169 79.0071C503.671 79.5094 504.013 80.1492 504.152 80.8458C504.29 81.5424 504.219 82.2644 503.947 82.9205C503.675 83.5767 503.215 84.1374 502.624 84.532C502.034 84.9265 501.34 85.1371 500.629 85.1371C499.919 85.1371 499.225 84.9265 498.634 84.532C498.044 84.1374 497.584 83.5767 497.312 82.9205C497.04 82.2644 496.969 81.5424 497.107 80.8458C497.246 80.1492 497.588 79.5094 498.09 79.0071C498.764 78.3342 499.677 77.9562 500.629 77.9562C501.582 77.9562 502.495 78.3342 503.169 79.0071Z" fill="#E0E0E0"/>
<path d="M621.002 52.54C620.663 53.0563 620.425 53.6322 620.3 54.2372L619.364 54.3277V56.1623L620.3 56.2528C620.425 56.8578 620.663 57.4337 621.002 57.95L620.397 58.6801L621.695 59.978L622.428 59.3728C622.945 59.711 623.521 59.9482 624.125 60.0717L624.213 61.0077H626.05L626.141 60.0717C626.745 59.947 627.321 59.7099 627.838 59.3728L628.568 59.978L629.869 58.6801L629.264 57.9469C629.601 57.4298 629.838 56.8541 629.963 56.2497L630.899 56.1592V54.3246L629.963 54.2341C629.838 53.6291 629.6 53.0532 629.261 52.5368L629.869 51.8036L628.568 50.5057L627.832 51.1141C627.315 50.777 626.739 50.5399 626.135 50.4152L626.044 49.4792H624.213L624.125 50.4152C623.521 50.5387 622.945 50.7759 622.428 51.1141L621.695 50.5088L620.397 51.8161L621.002 52.54ZM627.242 53.1359C627.659 53.553 627.943 54.0845 628.059 54.6631C628.174 55.2417 628.115 55.8414 627.889 56.3864C627.663 56.9314 627.281 57.3973 626.79 57.725C626.3 58.0528 625.723 58.2277 625.133 58.2277C624.543 58.2277 623.967 58.0528 623.476 57.725C622.986 57.3973 622.603 56.9314 622.377 56.3864C622.152 55.8414 622.093 55.2417 622.208 54.6631C622.323 54.0845 622.607 53.553 623.024 53.1359C623.584 52.5773 624.342 52.2635 625.133 52.2635C625.924 52.2635 626.682 52.5773 627.242 53.1359Z" fill="#E0E0E0"/>
<path d="M630.83 143.379H619.957V143.46H630.83V143.379Z" fill="#EBEBEB"/>
<path d="M591.874 144.271H589.019V144.352H591.874V144.271Z" fill="#EBEBEB"/>
<path d="M619.626 140.331H613.327V140.412H619.626V140.331Z" fill="#EBEBEB"/>
<path d="M514.545 140.883H500.367V140.964H514.545V140.883Z" fill="#EBEBEB"/>
<path d="M519.546 140.883H517.468V140.964H519.546V140.883Z" fill="#EBEBEB"/>
<path d="M557.055 142.268H526.304V142.349H557.055V142.268Z" fill="#EBEBEB"/>
<path d="M622.503 119.252H566.109C565.624 119.251 565.16 119.058 564.817 118.715C564.474 118.373 564.282 117.908 564.281 117.424V35.2802C564.282 34.7956 564.474 34.331 564.817 33.9883C565.16 33.6456 565.624 33.4527 566.109 33.4519H622.503C622.988 33.4527 623.452 33.6456 623.795 33.9883C624.138 34.331 624.331 34.7956 624.331 35.2802V117.424C624.331 117.908 624.138 118.373 623.795 118.715C623.452 119.058 622.988 119.251 622.503 119.252ZM566.109 33.533C565.645 33.533 565.201 33.717 564.873 34.0446C564.544 34.3722 564.36 34.8166 564.359 35.2802V117.424C564.359 117.888 564.543 118.333 564.871 118.661C565.2 118.989 565.645 119.174 566.109 119.174H622.503C622.967 119.174 623.412 118.989 623.741 118.661C624.069 118.333 624.253 117.888 624.253 117.424V35.2802C624.253 34.816 624.069 34.3708 623.741 34.0426C623.412 33.7143 622.967 33.5299 622.503 33.5299L566.109 33.533Z" fill="#E0E0E0"/>
<path d="M557.473 119.252H501.082C500.597 119.252 500.131 119.059 499.788 118.717C499.445 118.374 499.251 117.909 499.25 117.424V35.2802C499.251 34.795 499.445 34.33 499.788 33.9872C500.131 33.6444 500.597 33.4519 501.082 33.4519H557.473C557.958 33.4519 558.423 33.6445 558.766 33.9874C559.108 34.3303 559.301 34.7953 559.301 35.2802V117.424C559.301 117.908 559.108 118.374 558.766 118.716C558.423 119.059 557.958 119.252 557.473 119.252ZM501.082 33.533C500.618 33.533 500.173 33.7169 499.844 34.0444C499.516 34.3719 499.33 34.8163 499.328 35.2802V117.424C499.329 117.888 499.514 118.333 499.843 118.661C500.172 118.99 500.617 119.174 501.082 119.174H557.473C557.703 119.174 557.93 119.129 558.143 119.041C558.355 118.953 558.548 118.824 558.71 118.661C558.873 118.499 559.002 118.306 559.09 118.093C559.178 117.881 559.223 117.653 559.223 117.424V35.2802C559.223 35.0504 559.178 34.8228 559.09 34.6104C559.002 34.398 558.873 34.2051 558.71 34.0426C558.548 33.88 558.355 33.7511 558.143 33.6631C557.93 33.5752 557.703 33.5299 557.473 33.5299L501.082 33.533Z" fill="#E0E0E0"/>
<path d="M640 138.306H484V138.384H640V138.306Z" fill="#E0E0E0"/>
<path d="M625.979 149.937C625.979 150.992 596.801 151.85 560.808 151.85C524.816 151.85 495.641 150.992 495.641 149.937C495.641 148.883 524.816 148.021 560.808 148.021C596.801 148.021 625.979 148.879 625.979 149.937Z" fill="#F5F5F5"/>
<path d="M546.453 135.804H544.069V138.188H546.453V135.804Z" fill="#263238"/>
<path opacity="0.5" d="M513.487 48.0725H520.86V120.625H512.929C512.323 120.625 511.742 120.384 511.314 119.956C510.885 119.528 510.645 118.947 510.645 118.341V50.9179C510.644 50.5444 510.718 50.1745 510.86 49.8293C511.003 49.4841 511.212 49.1704 511.476 48.9061C511.74 48.6418 512.054 48.4322 512.399 48.2892C512.744 48.1461 513.114 48.0725 513.487 48.0725Z" fill="white"/>
<path opacity="0.5" d="M551.273 119.374L548.029 136.001H552.737L556.493 119.511L551.273 119.374Z" fill="white"/>
<path opacity="0.5" d="M546.453 135.804H544.069V138.188H546.453V135.804Z" fill="white"/>
<path d="M580.838 138.188H550.599L554.896 112.991H575.02L580.838 138.188Z" fill="#263238"/>
<path opacity="0.7" d="M580.838 138.188H550.599L554.896 112.991H575.02L580.838 138.188Z" fill="white"/>
<path opacity="0.1" d="M576.773 120.625H553.582L552.737 125.589L577.447 123.549L576.773 120.625Z" fill="black"/>
<path d="M584.982 135.804H545.785V138.188H584.982V135.804Z" fill="#263238"/>
<g opacity="0.7">
<path d="M584.982 135.804H545.785V138.188H584.982V135.804Z" fill="white"/>
</g>
<path d="M515.584 48.0728H613.627C614.295 48.0818 614.933 48.3549 615.4 48.8325C615.868 49.3101 616.128 49.9534 616.123 50.6218V118.076C616.128 118.745 615.868 119.388 615.4 119.865C614.933 120.343 614.295 120.616 613.627 120.625H515.584C514.915 120.616 514.278 120.343 513.81 119.865C513.342 119.388 513.083 118.745 513.088 118.076V50.6249C513.082 49.956 513.341 49.3119 513.809 48.8336C514.277 48.3554 514.915 48.0818 515.584 48.0728Z" fill="#263238"/>
<g opacity="0.7">
<path d="M515.584 48.0728H613.627C614.295 48.0818 614.933 48.3549 615.4 48.8325C615.868 49.3101 616.128 49.9534 616.123 50.6218V118.076C616.128 118.745 615.868 119.388 615.4 119.865C614.933 120.343 614.295 120.616 613.627 120.625H515.584C514.915 120.616 514.278 120.343 513.81 119.865C513.342 119.388 513.083 118.745 513.088 118.076V50.6249C513.082 49.956 513.341 49.3119 513.809 48.8336C514.277 48.3554 514.915 48.0818 515.584 48.0728Z" fill="white"/>
</g>
<path d="M613.396 50.5718H515.372V115.611H613.396V50.5718Z" fill="#407BFF"/>
<path opacity="0.9" d="M613.396 50.5718H515.372V115.611H613.396V50.5718Z" fill="white"/>
<path d="M613.396 50.5718H515.372V55.7915H613.396V50.5718Z" fill="#407BFF"/>
<path opacity="0.5" d="M612.092 53.1835C612.092 53.4033 612.028 53.6184 611.906 53.8015C611.784 53.9845 611.611 54.1274 611.408 54.2119C611.205 54.2965 610.982 54.3189 610.766 54.2764C610.55 54.2339 610.352 54.1284 610.197 53.9732C610.041 53.8179 609.935 53.62 609.892 53.4045C609.849 53.1889 609.87 52.9655 609.954 52.7623C610.038 52.5592 610.181 52.3855 610.363 52.2633C610.546 52.1411 610.761 52.0759 610.981 52.0759C611.275 52.0759 611.557 52.1925 611.765 52.4001C611.973 52.6078 612.091 52.8895 612.092 53.1835Z" fill="white"/>
<path opacity="0.5" d="M608.937 53.1835C608.938 53.4035 608.873 53.6187 608.751 53.8018C608.63 53.9849 608.456 54.1278 608.253 54.2122C608.05 54.2967 607.826 54.3189 607.611 54.2762C607.395 54.2334 607.197 54.1276 607.041 53.972C606.886 53.8165 606.78 53.6183 606.737 53.4026C606.694 53.1868 606.717 52.9632 606.801 52.7602C606.885 52.5571 607.028 52.3836 607.211 52.2618C607.395 52.14 607.61 52.0753 607.83 52.0759C608.123 52.0768 608.404 52.1937 608.612 52.4012C608.819 52.6088 608.936 52.89 608.937 53.1835Z" fill="white"/>
<path opacity="0.5" d="M605.786 53.1835C605.787 53.4033 605.722 53.6184 605.6 53.8015C605.479 53.9845 605.306 54.1274 605.103 54.2119C604.9 54.2965 604.676 54.3189 604.461 54.2764C604.245 54.2339 604.047 54.1284 603.891 53.9732C603.735 53.8179 603.629 53.62 603.586 53.4045C603.543 53.1889 603.565 52.9655 603.649 52.7623C603.733 52.5592 603.875 52.3855 604.058 52.2633C604.241 52.1411 604.456 52.0759 604.675 52.0759C604.969 52.0759 605.251 52.1925 605.46 52.4001C605.668 52.6078 605.785 52.8895 605.786 53.1835Z" fill="white"/>
<path d="M533.545 93.8805C533.233 94.3607 533.013 94.8951 532.896 95.4561L532.017 95.5373V97.2408L532.896 97.325C533.015 97.8806 533.235 98.4095 533.545 98.885L532.984 99.5652L534.188 100.77L534.868 100.208C535.344 100.519 535.873 100.739 536.428 100.857L536.513 101.737H538.216L538.297 100.857C538.858 100.741 539.393 100.521 539.873 100.208L540.55 100.77L541.754 99.5652L541.193 98.885C541.506 98.4106 541.727 97.8814 541.845 97.325L542.721 97.2408V95.5373L541.845 95.4561C541.729 94.8945 541.507 94.3599 541.193 93.8805L541.754 93.2035L540.55 91.9992L539.873 92.5608C539.393 92.2459 538.859 92.0247 538.297 91.9087L538.216 91.032H536.513L536.428 91.9087C535.872 92.0262 535.343 92.2474 534.868 92.5608L534.188 91.9992L532.984 93.2035L533.545 93.8805ZM538.943 94.8165C539.255 95.1256 539.467 95.5203 539.554 95.9505C539.641 96.3807 539.598 96.827 539.431 97.2328C539.264 97.6387 538.98 97.9857 538.616 98.2299C538.251 98.4741 537.822 98.6045 537.383 98.6045C536.944 98.6045 536.515 98.4741 536.15 98.2299C535.786 97.9857 535.502 97.6387 535.335 97.2328C535.168 96.827 535.125 96.3807 535.212 95.9505C535.299 95.5203 535.511 95.1256 535.823 94.8165C536.239 94.4058 536.8 94.176 537.384 94.1772C537.969 94.1784 538.529 94.4104 538.943 94.8228V94.8165Z" fill="#407BFF"/>
<path opacity="0.4" d="M533.545 93.8805C533.233 94.3607 533.013 94.8951 532.896 95.4561L532.017 95.5373V97.2408L532.896 97.325C533.015 97.8806 533.235 98.4095 533.545 98.885L532.984 99.5652L534.188 100.77L534.868 100.208C535.344 100.519 535.873 100.739 536.428 100.857L536.513 101.737H538.216L538.297 100.857C538.858 100.741 539.393 100.521 539.873 100.208L540.55 100.77L541.754 99.5652L541.193 98.885C541.506 98.4106 541.727 97.8814 541.845 97.325L542.721 97.2408V95.5373L541.845 95.4561C541.729 94.8945 541.507 94.3599 541.193 93.8805L541.754 93.2035L540.55 91.9992L539.873 92.5608C539.393 92.2459 538.859 92.0247 538.297 91.9087L538.216 91.032H536.513L536.428 91.9087C535.872 92.0262 535.343 92.2474 534.868 92.5608L534.188 91.9992L532.984 93.2035L533.545 93.8805ZM538.943 94.8165C539.255 95.1256 539.467 95.5203 539.554 95.9505C539.641 96.3807 539.598 96.827 539.431 97.2328C539.264 97.6387 538.98 97.9857 538.616 98.2299C538.251 98.4741 537.822 98.6045 537.383 98.6045C536.944 98.6045 536.515 98.4741 536.15 98.2299C535.786 97.9857 535.502 97.6387 535.335 97.2328C535.168 96.827 535.125 96.3807 535.212 95.9505C535.299 95.5203 535.511 95.1256 535.823 94.8165C536.239 94.4058 536.8 94.176 537.384 94.1772C537.969 94.1784 538.529 94.4104 538.943 94.8228V94.8165Z" fill="white"/>
<path d="M583.815 73.0326C583.524 73.4771 583.32 73.9725 583.213 74.4927L582.398 74.5676V76.1526L583.213 76.2275C583.32 76.7477 583.524 77.2431 583.815 77.6876L583.294 78.3116L584.411 79.4286L585.035 78.9075C585.479 79.1983 585.975 79.4026 586.495 79.5097L586.57 80.324H588.149L588.223 79.5097C588.744 79.4026 589.239 79.1983 589.684 78.9075L590.308 79.4286L591.425 78.3116L590.904 77.6876C591.194 77.2431 591.399 76.7477 591.506 76.2275L592.32 76.1526V74.5926L591.506 74.5177C591.399 73.9975 591.194 73.5021 590.904 73.0575L591.425 72.4335L590.308 71.3166L589.684 71.8376C589.239 71.5469 588.744 71.3426 588.223 71.2355L588.149 70.4211H586.57L586.495 71.2355C585.975 71.3426 585.479 71.5469 585.035 71.8376L584.411 71.3166L583.294 72.4086L583.815 73.0326ZM588.807 73.9062C589.094 74.1932 589.29 74.559 589.369 74.9573C589.449 75.3556 589.408 75.7685 589.253 76.1438C589.098 76.519 588.835 76.8398 588.497 77.0655C588.159 77.2912 587.762 77.4117 587.356 77.4117C586.95 77.4117 586.553 77.2912 586.215 77.0655C585.878 76.8398 585.615 76.519 585.459 76.1438C585.304 75.7685 585.263 75.3556 585.343 74.9573C585.422 74.559 585.618 74.1932 585.905 73.9062C586.096 73.7151 586.323 73.5637 586.573 73.4607C586.823 73.3577 587.091 73.3051 587.361 73.306C587.631 73.3069 587.899 73.3612 588.148 73.4658C588.397 73.5704 588.623 73.7232 588.813 73.9155L588.807 73.9062Z" fill="#407BFF"/>
<path opacity="0.4" d="M583.815 73.0326C583.524 73.4771 583.32 73.9725 583.213 74.4927L582.398 74.5676V76.1526L583.213 76.2275C583.32 76.7477 583.524 77.2431 583.815 77.6876L583.294 78.3116L584.411 79.4286L585.035 78.9075C585.479 79.1983 585.975 79.4026 586.495 79.5097L586.57 80.324H588.149L588.223 79.5097C588.744 79.4026 589.239 79.1983 589.684 78.9075L590.308 79.4286L591.425 78.3116L590.904 77.6876C591.194 77.2431 591.399 76.7477 591.506 76.2275L592.32 76.1526V74.5926L591.506 74.5177C591.399 73.9975 591.194 73.5021 590.904 73.0575L591.425 72.4335L590.308 71.3166L589.684 71.8376C589.239 71.5469 588.744 71.3426 588.223 71.2355L588.149 70.4211H586.57L586.495 71.2355C585.975 71.3426 585.479 71.5469 585.035 71.8376L584.411 71.3166L583.294 72.4086L583.815 73.0326ZM588.807 73.9062C589.094 74.1932 589.29 74.559 589.369 74.9573C589.449 75.3556 589.408 75.7685 589.253 76.1438C589.098 76.519 588.835 76.8398 588.497 77.0655C588.159 77.2912 587.762 77.4117 587.356 77.4117C586.95 77.4117 586.553 77.2912 586.215 77.0655C585.878 76.8398 585.615 76.519 585.459 76.1438C585.304 75.7685 585.263 75.3556 585.343 74.9573C585.422 74.559 585.618 74.1932 585.905 73.9062C586.096 73.7151 586.323 73.5637 586.573 73.4607C586.823 73.3577 587.091 73.3051 587.361 73.306C587.631 73.3069 587.899 73.3612 588.148 73.4658C588.397 73.5704 588.623 73.7232 588.813 73.9155L588.807 73.9062Z" fill="white"/>
<path d="M581.862 64.3124C581.676 64.5979 581.545 64.9152 581.475 65.2484L580.948 65.2952V66.3154L581.475 66.3653C581.544 66.6987 581.676 67.0162 581.862 67.3013L581.525 67.7069L582.246 68.4276L582.654 68.0907C582.939 68.2792 583.256 68.4116 583.59 68.4807L583.64 69.008H584.657L584.707 68.4807C585.041 68.4116 585.359 68.2792 585.643 68.0907L586.049 68.4276L586.77 67.7069L586.436 67.3013C586.622 67.0162 586.753 66.6987 586.823 66.3653L587.35 66.3154V65.2952L586.823 65.2452C586.752 64.9122 586.621 64.5949 586.436 64.3092L586.77 63.9036L586.049 63.1829L585.643 63.5199C585.358 63.3326 585.041 63.2003 584.707 63.1299L584.657 62.6057H583.64L583.59 63.1299C583.257 63.2003 582.939 63.3326 582.654 63.5199L582.246 63.1829L581.525 63.9036L581.862 64.3124ZM585.088 64.8771C585.274 65.0623 585.401 65.2986 585.452 65.5559C585.504 65.8133 585.478 66.0801 585.377 66.3227C585.277 66.5653 585.107 66.7726 584.889 66.9185C584.671 67.0644 584.414 67.1423 584.152 67.1423C583.89 67.1423 583.633 67.0644 583.415 66.9185C583.197 66.7726 583.027 66.5653 582.926 66.3227C582.826 66.0801 582.8 65.8133 582.852 65.5559C582.903 65.2986 583.03 65.0623 583.216 64.8771C583.465 64.6294 583.801 64.4903 584.152 64.4903C584.503 64.4903 584.839 64.6294 585.088 64.8771Z" fill="#407BFF"/>
<path opacity="0.7" d="M581.862 64.3124C581.676 64.5979 581.545 64.9152 581.475 65.2484L580.948 65.2952V66.3154L581.475 66.3653C581.544 66.6987 581.676 67.0162 581.862 67.3013L581.525 67.7069L582.246 68.4276L582.654 68.0907C582.939 68.2792 583.256 68.4116 583.59 68.4807L583.64 69.008H584.657L584.707 68.4807C585.041 68.4116 585.359 68.2792 585.643 68.0907L586.049 68.4276L586.77 67.7069L586.436 67.3013C586.622 67.0162 586.753 66.6987 586.823 66.3653L587.35 66.3154V65.2952L586.823 65.2452C586.752 64.9122 586.621 64.5949 586.436 64.3092L586.77 63.9036L586.049 63.1829L585.643 63.5199C585.358 63.3326 585.041 63.2003 584.707 63.1299L584.657 62.6057H583.64L583.59 63.1299C583.257 63.2003 582.939 63.3326 582.654 63.5199L582.246 63.1829L581.525 63.9036L581.862 64.3124ZM585.088 64.8771C585.274 65.0623 585.401 65.2986 585.452 65.5559C585.504 65.8133 585.478 66.0801 585.377 66.3227C585.277 66.5653 585.107 66.7726 584.889 66.9185C584.671 67.0644 584.414 67.1423 584.152 67.1423C583.89 67.1423 583.633 67.0644 583.415 66.9185C583.197 66.7726 583.027 66.5653 582.926 66.3227C582.826 66.0801 582.8 65.8133 582.852 65.5559C582.903 65.2986 583.03 65.0623 583.216 64.8771C583.465 64.6294 583.801 64.4903 584.152 64.4903C584.503 64.4903 584.839 64.6294 585.088 64.8771Z" fill="white"/>
<path d="M539.224 104.098C539.039 104.384 538.908 104.701 538.837 105.034L538.31 105.084V106.104L538.837 106.154C538.907 106.488 539.038 106.805 539.224 107.09L538.89 107.496L539.611 108.217L540.016 107.88C540.301 108.068 540.618 108.201 540.952 108.27L541.002 108.797H542.032L542.082 108.27C542.416 108.201 542.734 108.068 543.018 107.88L543.427 108.217L544.147 107.496L543.81 107.09C543.997 106.806 544.129 106.488 544.197 106.154L544.725 106.104V105.084L544.197 105.034C544.128 104.701 543.997 104.383 543.81 104.098L544.147 103.693L543.427 102.984L543.018 103.296C542.733 103.109 542.415 102.977 542.082 102.906L542.032 102.382H541.015L540.965 102.906C540.631 102.977 540.314 103.109 540.029 103.296L539.623 102.96L538.903 103.68L539.224 104.098ZM542.456 104.663C542.642 104.848 542.769 105.085 542.82 105.342C542.872 105.599 542.846 105.866 542.746 106.109C542.646 106.351 542.476 106.559 542.257 106.704C542.039 106.85 541.783 106.928 541.52 106.928C541.258 106.928 541.001 106.85 540.783 106.704C540.565 106.559 540.395 106.351 540.295 106.109C540.195 105.866 540.169 105.599 540.22 105.342C540.272 105.085 540.398 104.848 540.584 104.663C540.833 104.415 541.169 104.276 541.52 104.276C541.871 104.276 542.208 104.415 542.456 104.663Z" fill="#407BFF"/>
<path opacity="0.7" d="M539.224 104.098C539.039 104.384 538.908 104.701 538.837 105.034L538.31 105.084V106.104L538.837 106.154C538.907 106.488 539.038 106.805 539.224 107.09L538.89 107.496L539.611 108.217L540.016 107.88C540.301 108.068 540.618 108.201 540.952 108.27L541.002 108.797H542.032L542.082 108.27C542.416 108.201 542.734 108.068 543.018 107.88L543.427 108.217L544.147 107.496L543.81 107.09C543.997 106.806 544.129 106.488 544.197 106.154L544.725 106.104V105.084L544.197 105.034C544.128 104.701 543.997 104.383 543.81 104.098L544.147 103.693L543.427 102.984L543.018 103.296C542.733 103.109 542.415 102.977 542.082 102.906L542.032 102.382H541.015L540.965 102.906C540.631 102.977 540.314 103.109 540.029 103.296L539.623 102.96L538.903 103.68L539.224 104.098ZM542.456 104.663C542.642 104.848 542.769 105.085 542.82 105.342C542.872 105.599 542.846 105.866 542.746 106.109C542.646 106.351 542.476 106.559 542.257 106.704C542.039 106.85 541.783 106.928 541.52 106.928C541.258 106.928 541.001 106.85 540.783 106.704C540.565 106.559 540.395 106.351 540.295 106.109C540.195 105.866 540.169 105.599 540.22 105.342C540.272 105.085 540.398 104.848 540.584 104.663C540.833 104.415 541.169 104.276 541.52 104.276C541.871 104.276 542.208 104.415 542.456 104.663Z" fill="white"/>
<path d="M546.244 74.6832C544.888 76.7535 543.936 79.0611 543.436 81.4848L539.636 81.8436V89.2006L543.436 89.5688C543.936 91.9933 544.889 94.3018 546.244 96.3735L543.817 99.3032L549.021 104.507L551.951 102.08C554.022 103.435 556.331 104.388 558.755 104.888L559.114 108.688H566.471L566.83 104.888C569.254 104.388 571.561 103.436 573.632 102.08L576.564 104.507L581.768 99.3032L579.341 96.3735C580.697 94.3021 581.65 91.9935 582.149 89.5688L585.946 89.21V81.8436L582.149 81.4848C581.649 79.0613 580.696 76.7538 579.341 74.6832L581.768 71.7504L576.564 66.5494L573.632 68.9736C571.561 67.6184 569.253 66.6658 566.83 66.1656L566.471 62.3655H559.114L558.755 66.1688C556.331 66.6689 554.022 67.6215 551.951 68.9768L549.021 66.5494L543.817 71.7536L546.244 74.6832ZM571.242 77.0888C572.913 78.7599 574.051 80.8891 574.512 83.2071C574.974 85.5252 574.737 87.9279 573.833 90.1116C572.928 92.2952 571.397 94.1616 569.432 95.4747C567.467 96.7878 565.156 97.4887 562.793 97.4887C560.429 97.4887 558.119 96.7878 556.154 95.4747C554.188 94.1616 552.657 92.2952 551.752 90.1116C550.848 87.9279 550.612 85.5252 551.073 83.2071C551.534 80.8891 552.672 78.7599 554.344 77.0888C556.585 74.849 559.624 73.5908 562.793 73.5908C565.961 73.5908 569 74.849 571.242 77.0888Z" fill="#407BFF"/>
<path d="M559.273 86.5736H556.621L556.113 87.7998H554.759L557.32 82.0808H558.624L561.18 87.7967H559.791L559.273 86.5736ZM558.858 85.569L557.95 83.385L557.046 85.569H558.858Z" fill="#407BFF"/>
<path d="M565.557 82.3366C565.816 82.4603 566.045 82.6371 566.231 82.8553C566.417 83.0736 566.556 83.3285 566.637 83.6035C566.718 83.8786 566.74 84.1676 566.703 84.4519C566.665 84.7362 566.568 85.0094 566.418 85.2538C566.208 85.5734 565.908 85.8241 565.557 85.9745C565.139 86.1478 564.689 86.2317 564.237 86.221H563.086V87.7997H561.763V82.0808H564.237C564.69 82.0714 565.14 82.1586 565.557 82.3366ZM565.07 84.8888C565.169 84.7936 565.248 84.6795 565.301 84.5532C565.355 84.427 565.383 84.2912 565.383 84.154C565.383 84.0168 565.355 83.881 565.301 83.7548C565.248 83.6285 565.169 83.5144 565.07 83.4192C564.808 83.23 564.488 83.1384 564.165 83.1603H563.086V85.1446H564.165C564.488 85.1674 564.808 85.0769 565.07 84.8888Z" fill="#407BFF"/>
<path d="M567.66 82.0808H568.983V87.7967H567.66V82.0808Z" fill="#407BFF"/>
<path d="M551.95 87.0353C551.912 87.0355 551.874 87.0212 551.845 86.9953C551.816 86.9693 551.798 86.9335 551.794 86.8949C551.617 85.325 551.763 83.7355 552.223 82.2241C552.683 80.7127 553.447 79.3112 554.468 78.1059C554.482 78.0903 554.498 78.0775 554.516 78.0682C554.534 78.0589 554.554 78.0533 554.575 78.0517C554.595 78.0501 554.616 78.0526 554.635 78.0589C554.655 78.0653 554.673 78.0754 554.688 78.0887C554.704 78.102 554.717 78.1183 554.726 78.1365C554.735 78.1548 554.741 78.1747 554.742 78.1951C554.744 78.2156 554.741 78.2361 554.735 78.2556C554.729 78.2751 554.719 78.2931 554.705 78.3087C553.711 79.4818 552.968 80.846 552.521 82.3173C552.074 83.7886 551.933 85.3359 552.106 86.8637C552.11 86.905 552.097 86.946 552.071 86.978C552.045 87.01 552.007 87.0306 551.966 87.0353H551.95Z" fill="#407BFF"/>
<path d="M552.478 89.5C552.444 89.5005 552.411 89.4897 552.384 89.4694C552.357 89.4491 552.337 89.4203 552.328 89.3876C552.199 88.9529 552.095 88.5112 552.016 88.0648C552.012 88.0443 552.013 88.0233 552.017 88.0029C552.021 87.9826 552.03 87.9633 552.042 87.9462C552.054 87.9291 552.069 87.9146 552.086 87.9033C552.104 87.8921 552.123 87.8844 552.144 87.8807C552.164 87.877 552.185 87.8774 552.206 87.8818C552.226 87.8862 552.245 87.8946 552.262 87.9065C552.279 87.9184 552.294 87.9335 552.305 87.951C552.317 87.9686 552.324 87.9881 552.328 88.0086C552.409 88.4445 552.513 88.8756 552.64 89.3003C552.652 89.34 552.647 89.3827 552.627 89.419C552.607 89.4552 552.574 89.4821 552.534 89.4937C552.516 89.5006 552.497 89.5027 552.478 89.5Z" fill="#407BFF"/>
<path d="M537.377 85.001H524.039C523.997 85.001 523.958 84.9846 523.929 84.9553C523.899 84.9261 523.883 84.8864 523.883 84.845V69.2263C523.883 69.1849 523.899 69.1453 523.929 69.116C523.958 69.0867 523.997 69.0703 524.039 69.0703C524.08 69.0703 524.12 69.0867 524.149 69.116C524.178 69.1453 524.195 69.1849 524.195 69.2263V84.689H537.377C537.418 84.689 537.458 84.7055 537.487 84.7347C537.516 84.764 537.533 84.8037 537.533 84.845C537.532 84.8862 537.515 84.9254 537.486 84.9545C537.457 84.9835 537.418 85.0002 537.377 85.001Z" fill="#407BFF"/>
<path d="M524.039 70.0249C524.48 70.0249 524.838 69.6673 524.838 69.2262C524.838 68.7851 524.48 68.4275 524.039 68.4275C523.598 68.4275 523.24 68.7851 523.24 69.2262C523.24 69.6673 523.598 70.0249 524.039 70.0249Z" fill="#407BFF"/>
<path d="M605.43 97.9864C605.871 97.9864 606.229 97.6288 606.229 97.1876C606.229 96.7465 605.871 96.3889 605.43 96.3889C604.989 96.3889 604.632 96.7465 604.632 97.1876C604.632 97.6288 604.989 97.9864 605.43 97.9864Z" fill="#407BFF"/>
<path d="M605.586 103.422H585.737V94.8696H582.966V94.5576H586.049V103.11H605.274V97.0723H605.586V103.422Z" fill="#407BFF"/>
<path d="M630.291 105.602H596.317V138.187H630.291V105.602Z" fill="#407BFF"/>
<path opacity="0.4" d="M630.291 105.602H596.317V138.187H630.291V105.602Z" fill="white"/>
<path opacity="0.4" d="M630.287 105.602H607.131V138.187H630.287V105.602Z" fill="white"/>
<path d="M629.13 107.268H608.288V111.302H629.13V107.268Z" fill="#407BFF"/>
<path d="M629.13 112.313H608.288V116.347H629.13V112.313Z" fill="#407BFF"/>
<path d="M629.13 117.355H608.288V121.389H629.13V117.355Z" fill="#407BFF"/>
<path d="M629.13 122.4H608.288V126.434H629.13V122.4Z" fill="#407BFF"/>
<path d="M629.13 127.445H608.288V131.479H629.13V127.445Z" fill="#407BFF"/>
<path d="M629.13 132.49H608.288V136.524H629.13V132.49Z" fill="#407BFF"/>
<path d="M605.92 107.268H597.531V111.302H605.92V107.268Z" fill="#407BFF"/>
<path d="M605.92 112.313H597.531V116.347H605.92V112.313Z" fill="#407BFF"/>
<path d="M605.92 117.355H597.531V121.389H605.92V117.355Z" fill="#407BFF"/>
<path d="M605.92 122.4H597.531V126.434H605.92V122.4Z" fill="#407BFF"/>
<path d="M605.92 127.445H597.531V131.479H605.92V127.445Z" fill="#407BFF"/>
<path d="M605.92 132.49H597.531V136.524H605.92V132.49Z" fill="#407BFF"/>
<path opacity="0.3" d="M628.11 107.792H627.623V110.778H628.11V107.792Z" fill="white"/>
<path opacity="0.3" d="M627.174 107.792H626.687V110.778H627.174V107.792Z" fill="white"/>
<path opacity="0.3" d="M626.238 107.792H625.751V110.778H626.238V107.792Z" fill="white"/>
<path opacity="0.3" d="M625.302 107.792H624.815V110.778H625.302V107.792Z" fill="white"/>
<path opacity="0.3" d="M624.366 107.792H623.879V110.778H624.366V107.792Z" fill="white"/>
<path opacity="0.3" d="M628.11 112.837H627.623V115.819H628.11V112.837Z" fill="white"/>
<path opacity="0.3" d="M627.174 112.837H626.687V115.819H627.174V112.837Z" fill="white"/>
<path opacity="0.3" d="M626.238 112.837H625.751V115.819H626.238V112.837Z" fill="white"/>
<path opacity="0.3" d="M625.302 112.837H624.815V115.819H625.302V112.837Z" fill="white"/>
<path opacity="0.3" d="M624.366 112.837H623.879V115.819H624.366V112.837Z" fill="white"/>
<path opacity="0.3" d="M628.11 117.882H627.623V120.865H628.11V117.882Z" fill="white"/>
<path opacity="0.3" d="M627.174 117.882H626.687V120.865H627.174V117.882Z" fill="white"/>
<path opacity="0.3" d="M626.238 117.882H625.751V120.865H626.238V117.882Z" fill="white"/>
<path opacity="0.3" d="M625.302 117.882H624.815V120.865H625.302V117.882Z" fill="white"/>
<path opacity="0.3" d="M624.366 117.882H623.879V120.865H624.366V117.882Z" fill="white"/>
<path opacity="0.3" d="M628.11 122.927H627.623V125.913H628.11V122.927Z" fill="white"/>
<path opacity="0.3" d="M627.174 122.927H626.687V125.913H627.174V122.927Z" fill="white"/>
<path opacity="0.3" d="M626.238 122.927H625.751V125.913H626.238V122.927Z" fill="white"/>
<path opacity="0.3" d="M625.302 122.927H624.815V125.913H625.302V122.927Z" fill="white"/>
<path opacity="0.3" d="M624.366 122.927H623.879V125.913H624.366V122.927Z" fill="white"/>
<path opacity="0.3" d="M628.11 127.972H627.623V130.955H628.11V127.972Z" fill="white"/>
<path opacity="0.3" d="M627.174 127.972H626.687V130.955H627.174V127.972Z" fill="white"/>
<path opacity="0.3" d="M626.238 127.972H625.751V130.955H626.238V127.972Z" fill="white"/>
<path opacity="0.3" d="M625.302 127.972H624.815V130.955H625.302V127.972Z" fill="white"/>
<path opacity="0.3" d="M624.366 127.972H623.879V130.955H624.366V127.972Z" fill="white"/>
<path opacity="0.3" d="M628.11 133.014H627.623V136H628.11V133.014Z" fill="white"/>
<path opacity="0.3" d="M627.174 133.014H626.687V136H627.174V133.014Z" fill="white"/>
<path opacity="0.3" d="M626.238 133.014H625.751V136H626.238V133.014Z" fill="white"/>
<path opacity="0.3" d="M625.302 133.014H624.815V136H625.302V133.014Z" fill="white"/>
<path opacity="0.3" d="M624.366 133.014H623.879V136H624.366V133.014Z" fill="white"/>
<path opacity="0.2" d="M610.713 109.283C610.713 109.381 610.684 109.477 610.629 109.559C610.574 109.64 610.497 109.704 610.406 109.742C610.316 109.779 610.216 109.789 610.12 109.77C610.024 109.751 609.935 109.703 609.866 109.634C609.796 109.565 609.749 109.476 609.73 109.38C609.711 109.284 609.721 109.184 609.758 109.093C609.796 109.003 609.859 108.925 609.941 108.871C610.023 108.816 610.118 108.787 610.217 108.787C610.348 108.787 610.474 108.839 610.567 108.932C610.66 109.025 610.713 109.152 610.713 109.283Z" fill="white"/>
<path opacity="0.2" d="M613.832 109.283C613.832 109.381 613.803 109.477 613.749 109.559C613.694 109.64 613.617 109.704 613.526 109.742C613.436 109.779 613.336 109.789 613.24 109.77C613.143 109.751 613.055 109.703 612.986 109.634C612.916 109.565 612.869 109.476 612.85 109.38C612.831 109.284 612.841 109.184 612.878 109.093C612.916 109.003 612.979 108.925 613.061 108.871C613.142 108.816 613.238 108.787 613.336 108.787C613.468 108.787 613.594 108.839 613.687 108.932C613.78 109.025 613.832 109.152 613.832 109.283Z" fill="white"/>
<path opacity="0.4" d="M616.952 109.283C616.952 109.381 616.923 109.477 616.869 109.559C616.814 109.64 616.737 109.704 616.646 109.742C616.555 109.779 616.456 109.789 616.359 109.77C616.263 109.751 616.175 109.703 616.106 109.634C616.036 109.565 615.989 109.476 615.97 109.38C615.951 109.284 615.96 109.184 615.998 109.093C616.036 109.003 616.099 108.925 616.181 108.871C616.262 108.816 616.358 108.787 616.456 108.787C616.588 108.787 616.714 108.839 616.807 108.932C616.9 109.025 616.952 109.152 616.952 109.283Z" fill="white"/>
<path opacity="0.4" d="M610.713 114.328C610.713 114.426 610.684 114.522 610.629 114.604C610.574 114.686 610.497 114.749 610.406 114.787C610.316 114.824 610.216 114.834 610.12 114.815C610.024 114.796 609.935 114.749 609.866 114.679C609.796 114.61 609.749 114.521 609.73 114.425C609.711 114.329 609.721 114.229 609.758 114.139C609.796 114.048 609.859 113.97 609.941 113.916C610.023 113.861 610.118 113.832 610.217 113.832C610.348 113.832 610.474 113.885 610.567 113.978C610.66 114.071 610.713 114.197 610.713 114.328Z" fill="white"/>
<path opacity="0.2" d="M613.832 114.328C613.832 114.426 613.803 114.522 613.749 114.604C613.694 114.686 613.617 114.749 613.526 114.787C613.436 114.824 613.336 114.834 613.24 114.815C613.143 114.796 613.055 114.749 612.986 114.679C612.916 114.61 612.869 114.521 612.85 114.425C612.831 114.329 612.841 114.229 612.878 114.139C612.916 114.048 612.979 113.97 613.061 113.916C613.142 113.861 613.238 113.832 613.336 113.832C613.468 113.832 613.594 113.885 613.687 113.978C613.78 114.071 613.832 114.197 613.832 114.328Z" fill="white"/>
<path opacity="0.4" d="M616.952 114.328C616.952 114.426 616.923 114.522 616.869 114.604C616.814 114.686 616.737 114.749 616.646 114.787C616.555 114.824 616.456 114.834 616.359 114.815C616.263 114.796 616.175 114.749 616.106 114.679C616.036 114.61 615.989 114.521 615.97 114.425C615.951 114.329 615.96 114.229 615.998 114.139C616.036 114.048 616.099 113.97 616.181 113.916C616.262 113.861 616.358 113.832 616.456 113.832C616.588 113.832 616.714 113.885 616.807 113.978C616.9 114.071 616.952 114.197 616.952 114.328Z" fill="white"/>
<path opacity="0.2" d="M610.713 119.374C610.713 119.472 610.684 119.568 610.629 119.649C610.574 119.731 610.497 119.794 610.406 119.832C610.316 119.869 610.216 119.879 610.12 119.86C610.024 119.841 609.935 119.794 609.866 119.724C609.796 119.655 609.749 119.567 609.73 119.47C609.711 119.374 609.721 119.274 609.758 119.184C609.796 119.093 609.859 119.016 609.941 118.961C610.023 118.907 610.118 118.877 610.217 118.877C610.348 118.877 610.474 118.93 610.567 119.023C610.66 119.116 610.713 119.242 610.713 119.374Z" fill="white"/>
<path opacity="0.4" d="M613.832 119.374C613.832 119.472 613.803 119.568 613.749 119.649C613.694 119.731 613.617 119.794 613.526 119.832C613.436 119.869 613.336 119.879 613.24 119.86C613.143 119.841 613.055 119.794 612.986 119.724C612.916 119.655 612.869 119.567 612.85 119.47C612.831 119.374 612.841 119.274 612.878 119.184C612.916 119.093 612.979 119.016 613.061 118.961C613.142 118.907 613.238 118.877 613.336 118.877C613.468 118.877 613.594 118.93 613.687 119.023C613.78 119.116 613.832 119.242 613.832 119.374Z" fill="white"/>
<path opacity="0.2" d="M616.952 119.374C616.952 119.472 616.923 119.568 616.869 119.649C616.814 119.731 616.737 119.794 616.646 119.832C616.555 119.869 616.456 119.879 616.359 119.86C616.263 119.841 616.175 119.794 616.106 119.724C616.036 119.655 615.989 119.567 615.97 119.47C615.951 119.374 615.96 119.274 615.998 119.184C616.036 119.093 616.099 119.016 616.181 118.961C616.262 118.907 616.358 118.877 616.456 118.877C616.588 118.877 616.714 118.93 616.807 119.023C616.9 119.116 616.952 119.242 616.952 119.374Z" fill="white"/>
<path opacity="0.4" d="M610.713 124.418C610.713 124.517 610.684 124.612 610.629 124.694C610.574 124.776 610.497 124.839 610.406 124.877C610.316 124.914 610.216 124.924 610.12 124.905C610.024 124.886 609.935 124.839 609.866 124.769C609.796 124.7 609.749 124.611 609.73 124.515C609.711 124.419 609.721 124.319 609.758 124.229C609.796 124.138 609.859 124.06 609.941 124.006C610.023 123.951 610.118 123.922 610.217 123.922C610.348 123.922 610.474 123.975 610.567 124.068C610.66 124.161 610.713 124.287 610.713 124.418Z" fill="white"/>
<path opacity="0.2" d="M613.832 124.418C613.832 124.517 613.803 124.612 613.749 124.694C613.694 124.776 613.617 124.839 613.526 124.877C613.436 124.914 613.336 124.924 613.24 124.905C613.143 124.886 613.055 124.839 612.986 124.769C612.916 124.7 612.869 124.611 612.85 124.515C612.831 124.419 612.841 124.319 612.878 124.229C612.916 124.138 612.979 124.06 613.061 124.006C613.142 123.951 613.238 123.922 613.336 123.922C613.468 123.922 613.594 123.975 613.687 124.068C613.78 124.161 613.832 124.287 613.832 124.418Z" fill="white"/>
<path opacity="0.2" d="M616.952 124.418C616.952 124.517 616.923 124.612 616.869 124.694C616.814 124.776 616.737 124.839 616.646 124.877C616.555 124.914 616.456 124.924 616.359 124.905C616.263 124.886 616.175 124.839 616.106 124.769C616.036 124.7 615.989 124.611 615.97 124.515C615.951 124.419 615.96 124.319 615.998 124.229C616.036 124.138 616.099 124.06 616.181 124.006C616.262 123.951 616.358 123.922 616.456 123.922C616.588 123.922 616.714 123.975 616.807 124.068C616.9 124.161 616.952 124.287 616.952 124.418Z" fill="white"/>
<path opacity="0.2" d="M610.713 129.464C610.713 129.562 610.684 129.658 610.629 129.739C610.574 129.821 610.497 129.884 610.406 129.922C610.316 129.959 610.216 129.969 610.12 129.95C610.024 129.931 609.935 129.884 609.866 129.814C609.796 129.745 609.749 129.657 609.73 129.56C609.711 129.464 609.721 129.364 609.758 129.274C609.796 129.183 609.859 129.106 609.941 129.051C610.023 128.997 610.118 128.968 610.217 128.968C610.348 128.968 610.474 129.02 610.567 129.113C610.66 129.206 610.713 129.332 610.713 129.464Z" fill="white"/>
<path opacity="0.4" d="M613.832 129.464C613.832 129.562 613.803 129.658 613.749 129.739C613.694 129.821 613.617 129.884 613.526 129.922C613.436 129.959 613.336 129.969 613.24 129.95C613.143 129.931 613.055 129.884 612.986 129.814C612.916 129.745 612.869 129.657 612.85 129.56C612.831 129.464 612.841 129.364 612.878 129.274C612.916 129.183 612.979 129.106 613.061 129.051C613.142 128.997 613.238 128.968 613.336 128.968C613.468 128.968 613.594 129.02 613.687 129.113C613.78 129.206 613.832 129.332 613.832 129.464Z" fill="white"/>
<path opacity="0.4" d="M616.952 129.464C616.952 129.562 616.923 129.658 616.869 129.739C616.814 129.821 616.737 129.884 616.646 129.922C616.555 129.959 616.456 129.969 616.359 129.95C616.263 129.931 616.175 129.884 616.106 129.814C616.036 129.745 615.989 129.657 615.97 129.56C615.951 129.464 615.96 129.364 615.998 129.274C616.036 129.183 616.099 129.106 616.181 129.051C616.262 128.997 616.358 128.968 616.456 128.968C616.588 128.968 616.714 129.02 616.807 129.113C616.9 129.206 616.952 129.332 616.952 129.464Z" fill="white"/>
<path opacity="0.4" d="M610.713 134.496C610.713 134.594 610.684 134.69 610.629 134.771C610.574 134.853 610.497 134.917 610.406 134.954C610.316 134.992 610.216 135.002 610.12 134.982C610.024 134.963 609.935 134.916 609.866 134.847C609.796 134.777 609.749 134.689 609.73 134.593C609.711 134.496 609.721 134.397 609.758 134.306C609.796 134.215 609.859 134.138 609.941 134.083C610.023 134.029 610.118 134 610.217 134C610.348 134 610.474 134.052 610.567 134.145C610.66 134.238 610.713 134.364 610.713 134.496Z" fill="white"/>
<path opacity="0.2" d="M613.832 134.496C613.832 134.594 613.803 134.69 613.749 134.771C613.694 134.853 613.617 134.917 613.526 134.954C613.436 134.992 613.336 135.002 613.24 134.982C613.143 134.963 613.055 134.916 612.986 134.847C612.916 134.777 612.869 134.689 612.85 134.593C612.831 134.496 612.841 134.397 612.878 134.306C612.916 134.215 612.979 134.138 613.061 134.083C613.142 134.029 613.238 134 613.336 134C613.468 134 613.594 134.052 613.687 134.145C613.78 134.238 613.832 134.364 613.832 134.496Z" fill="white"/>
<path opacity="0.4" d="M616.952 134.496C616.952 134.594 616.923 134.69 616.869 134.771C616.814 134.853 616.737 134.917 616.646 134.954C616.555 134.992 616.456 135.002 616.359 134.982C616.263 134.963 616.175 134.916 616.106 134.847C616.036 134.777 615.989 134.689 615.97 134.593C615.951 134.496 615.96 134.397 615.998 134.306C616.036 134.215 616.099 134.138 616.181 134.083C616.262 134.029 616.358 134 616.456 134C616.588 134 616.714 134.052 616.807 134.145C616.9 134.238 616.952 134.364 616.952 134.496Z" fill="white"/>
<path opacity="0.3" d="M607.131 105.602H596.317V138.187H607.131V105.602Z" fill="black"/>
<path d="M627.567 65.0017H595.992C595.141 65.0017 594.451 65.6918 594.451 66.543V92.6012C594.451 93.4525 595.141 94.1425 595.992 94.1425H627.567C628.418 94.1425 629.108 93.4525 629.108 92.6012V66.543C629.108 65.6918 628.418 65.0017 627.567 65.0017Z" fill="#407BFF"/>
<path opacity="0.5" d="M627.567 65.0017H595.992C595.141 65.0017 594.451 65.6918 594.451 66.543V92.6012C594.451 93.4525 595.141 94.1425 595.992 94.1425H627.567C628.418 94.1425 629.108 93.4525 629.108 92.6012V66.543C629.108 65.6918 628.418 65.0017 627.567 65.0017Z" fill="white"/>
<path d="M595.896 65.0017H627.688C628.065 65.0017 628.426 65.1513 628.692 65.4175C628.959 65.6837 629.108 66.0448 629.108 66.4213V70.0842H594.448V66.4463C594.448 66.2563 594.485 66.0682 594.558 65.8927C594.631 65.7173 594.738 65.5579 594.872 65.4237C595.007 65.2895 595.166 65.1832 595.342 65.1108C595.518 65.0384 595.706 65.0013 595.896 65.0017Z" fill="#407BFF"/>
<path opacity="0.5" d="M627.149 67.9128C627.149 68.1327 627.085 68.3479 626.963 68.531C626.841 68.7142 626.668 68.857 626.464 68.9415C626.261 69.0259 626.038 69.0482 625.822 69.0054C625.606 68.9627 625.408 68.8568 625.253 68.7013C625.097 68.5458 624.991 68.3476 624.948 68.1318C624.906 67.9161 624.928 67.6925 625.012 67.4894C625.097 67.2863 625.24 67.1129 625.423 66.9911C625.606 66.8693 625.821 66.8046 626.041 66.8052C626.187 66.8052 626.331 66.8338 626.465 66.8895C626.599 66.9452 626.721 67.0267 626.824 67.1296C626.927 67.2324 627.009 67.3545 627.064 67.4889C627.12 67.6233 627.149 67.7673 627.149 67.9128Z" fill="white"/>
<path opacity="0.5" d="M623.997 67.9128C623.998 68.1326 623.933 68.3476 623.812 68.5307C623.69 68.7138 623.517 68.8566 623.314 68.9412C623.111 69.0257 622.887 69.0482 622.672 69.0057C622.456 68.9631 622.258 68.8576 622.102 68.7024C621.947 68.5472 621.841 68.3493 621.797 68.1337C621.754 67.9182 621.776 67.6947 621.86 67.4916C621.944 67.2884 622.086 67.1148 622.269 66.9926C622.452 66.8704 622.667 66.8052 622.887 66.8052C623.181 66.8052 623.463 66.9218 623.671 67.1294C623.879 67.337 623.996 67.6187 623.997 67.9128Z" fill="white"/>
<path opacity="0.5" d="M620.843 67.9128C620.844 68.1327 620.779 68.3479 620.657 68.531C620.535 68.7142 620.362 68.857 620.159 68.9415C619.956 69.0259 619.732 69.0482 619.516 69.0054C619.301 68.9627 619.102 68.8568 618.947 68.7013C618.791 68.5458 618.686 68.3476 618.643 68.1318C618.6 67.9161 618.622 67.6925 618.707 67.4894C618.791 67.2863 618.934 67.1129 619.117 66.9911C619.3 66.8693 619.515 66.8046 619.735 66.8052C619.881 66.8052 620.025 66.8338 620.159 66.8895C620.294 66.9452 620.416 67.0267 620.519 67.1296C620.621 67.2324 620.703 67.3545 620.759 67.4889C620.814 67.6233 620.843 67.7673 620.843 67.9128Z" fill="white"/>
<path opacity="0.6" d="M620.026 74.3306H602.251V75.3664H620.026V74.3306Z" fill="white"/>
<path opacity="0.6" d="M615.246 76.5706H602.526V77.6064H615.246V76.5706Z" fill="#263238"/>
<path d="M624.831 74.3306H621.333V75.3664H624.831V74.3306Z" fill="#407BFF"/>
<path d="M601.016 74.3306H597.518V75.3664H601.016V74.3306Z" fill="#407BFF"/>
<path d="M620.026 79.0574H602.251V80.0932H620.026V79.0574Z" fill="#407BFF"/>
<path opacity="0.6" d="M624.831 79.0574H621.333V80.0932H624.831V79.0574Z" fill="white"/>
<path d="M601.016 79.0574H597.518V80.0932H601.016V79.0574Z" fill="#407BFF"/>
<path d="M620.026 88.9041H602.251V89.9399H620.026V88.9041Z" fill="#407BFF"/>
<path opacity="0.6" d="M624.831 88.9041H621.333V89.9399H624.831V88.9041Z" fill="white"/>
<path d="M620.026 81.5471H602.251V82.583H620.026V81.5471Z" fill="#407BFF"/>
<path opacity="0.6" d="M624.831 81.5471H621.333V82.583H624.831V81.5471Z" fill="#263238"/>
<path opacity="0.6" d="M601.016 81.5471H597.518V82.583H601.016V81.5471Z" fill="#263238"/>
<path d="M625.086 76.6113H616.637V77.6472H625.086V76.6113Z" fill="#407BFF"/>
<path opacity="0.6" d="M614.971 83.7188H602.251V84.7546H614.971V83.7188Z" fill="white"/>
<path d="M624.812 83.7593H616.363V84.7951H624.812V83.7593Z" fill="#407BFF"/>
<path opacity="0.6" d="M608.61 85.968H602.251V87.0039H608.61V85.968Z" fill="#263238"/>
<path d="M533.558 35.1711H501.984C501.132 35.1711 500.442 35.8612 500.442 36.7124V62.7707C500.442 63.6219 501.132 64.3119 501.984 64.3119H533.558C534.409 64.3119 535.099 63.6219 535.099 62.7707V36.7124C535.099 35.8612 534.409 35.1711 533.558 35.1711Z" fill="#407BFF"/>
<path opacity="0.5" d="M533.558 35.1711H501.984C501.132 35.1711 500.442 35.8612 500.442 36.7124V62.7707C500.442 63.6219 501.132 64.3119 501.984 64.3119H533.558C534.409 64.3119 535.099 63.6219 535.099 62.7707V36.7124C535.099 35.8612 534.409 35.1711 533.558 35.1711Z" fill="white"/>
<path d="M501.884 35.1711H533.68C534.056 35.1711 534.417 35.3207 534.684 35.5869C534.95 35.8532 535.099 36.2142 535.099 36.5907V40.2536H500.442V36.6157C500.442 36.2331 500.594 35.8662 500.864 35.5953C501.135 35.3245 501.501 35.172 501.884 35.1711Z" fill="#407BFF"/>
<path opacity="0.5" d="M533.14 38.0886C533.139 38.3089 533.073 38.5241 532.95 38.7067C532.827 38.8894 532.652 39.0312 532.448 39.1142C532.244 39.1972 532.02 39.2177 531.804 39.1729C531.588 39.1282 531.391 39.0202 531.236 38.8629C531.082 38.7056 530.978 38.5059 530.938 38.2893C530.897 38.0727 530.922 37.849 531.009 37.6466C531.096 37.4442 531.241 37.2722 531.426 37.1526C531.611 37.0329 531.828 36.9711 532.048 36.9748C532.34 36.9789 532.619 37.0982 532.823 37.3069C533.028 37.5155 533.142 37.7965 533.14 38.0886Z" fill="white"/>
<path opacity="0.5" d="M529.989 38.0885C529.989 38.3082 529.924 38.5229 529.802 38.7056C529.68 38.8882 529.506 39.0306 529.303 39.1147C529.1 39.1987 528.877 39.2207 528.661 39.1779C528.446 39.135 528.248 39.0292 528.093 38.8739C527.937 38.7186 527.832 38.5207 527.789 38.3052C527.746 38.0897 527.768 37.8664 527.852 37.6635C527.936 37.4605 528.078 37.287 528.261 37.165C528.444 37.0429 528.658 36.9778 528.878 36.9778C529.024 36.9774 529.169 37.0058 529.304 37.0615C529.439 37.1172 529.561 37.199 529.664 37.3022C529.768 37.4054 529.849 37.528 529.905 37.663C529.961 37.7979 529.989 37.9425 529.989 38.0885Z" fill="white"/>
<path opacity="0.5" d="M526.834 38.0885C526.834 38.3083 526.769 38.5232 526.647 38.7059C526.525 38.8886 526.351 39.031 526.148 39.115C525.945 39.1989 525.721 39.2208 525.506 39.1777C525.29 39.1345 525.092 39.0284 524.937 38.8728C524.782 38.7171 524.676 38.5189 524.634 38.3033C524.591 38.0876 524.614 37.8642 524.698 37.6613C524.783 37.4584 524.926 37.2851 525.109 37.1635C525.292 37.0418 525.507 36.9772 525.727 36.9778C525.872 36.9778 526.017 37.0065 526.151 37.0624C526.286 37.1183 526.408 37.2001 526.511 37.3033C526.614 37.4065 526.695 37.5289 526.751 37.6637C526.806 37.7984 526.835 37.9428 526.834 38.0885Z" fill="white"/>
<path d="M528.691 51.4173C527.543 49.876 525.187 49.1241 523.618 50.238C523.377 48.5147 522.462 46.9576 521.074 45.9091C519.685 44.8606 517.937 44.4065 516.214 44.6469C514.491 44.8873 512.934 45.8024 511.885 47.1909C510.837 48.5793 510.383 50.3275 510.623 52.0507C509.107 51.7044 507.441 52.0694 506.458 53.6356C505.179 55.6636 506.835 57.676 506.835 57.676L515.727 57.7291V54.4687H514.592C514.547 54.4692 514.502 54.4563 514.465 54.4317C514.427 54.4071 514.397 54.3719 514.38 54.3305C514.362 54.2891 514.357 54.2433 514.365 54.1991C514.374 54.1548 514.395 54.114 514.426 54.0818L515.733 52.7152L517.25 51.1334C517.271 51.1113 517.297 51.0938 517.325 51.0818C517.354 51.0698 517.384 51.0636 517.415 51.0636C517.446 51.0636 517.477 51.0698 517.505 51.0818C517.533 51.0938 517.559 51.1113 517.581 51.1334L519.094 52.7152L520.404 54.0818C520.434 54.1145 520.454 54.1552 520.462 54.199C520.469 54.2428 520.464 54.2878 520.446 54.3286C520.429 54.3694 520.4 54.4044 520.363 54.4292C520.326 54.4541 520.283 54.4678 520.239 54.4687H519.1V57.7447L528.566 57.7977C529.914 56.2502 529.842 52.9586 528.691 51.4173Z" fill="white"/>
<path d="M515.362 139.055C515.362 139.055 542.544 132.687 543.835 138.346C545.682 146.43 526.07 151.865 515.624 151.535C505.179 151.204 515.362 139.055 515.362 139.055Z" fill="#263238"/>
<path opacity="0.2" d="M515.362 139.055C515.362 139.055 542.544 132.687 543.835 138.346C545.682 146.43 526.07 151.865 515.624 151.535C505.179 151.204 515.362 139.055 515.362 139.055Z" fill="black"/>
<path opacity="0.7" d="M534.918 140.093L522.151 148.205L523.855 150.627C523.855 150.627 522.96 151.959 521.25 147.872L529.146 142.652C529.146 142.652 526.675 142.405 526.738 142.028C526.844 141.404 532.273 140.184 534.75 139.641C534.81 139.624 534.874 139.631 534.929 139.659C534.984 139.687 535.027 139.735 535.048 139.794C535.069 139.852 535.068 139.916 535.044 139.974C535.02 140.031 534.975 140.077 534.918 140.103V140.093Z" fill="black"/>
<path opacity="0.7" d="M521.69 147.288L523.905 150.876C521.171 151.35 518.399 151.569 515.624 151.528C514.714 151.522 513.812 151.358 512.957 151.045L512.18 149.622L513.852 146.252L521.69 147.288Z" fill="black"/>
<path d="M525.914 145.865L520.239 149.466L521.256 152.221L527.92 149.226L525.914 145.865Z" fill="#B97964"/>
<path d="M517.113 150.389L517.671 152.37C517.797 152.403 517.914 152.466 518.009 152.554C518.105 152.642 518.178 152.753 518.22 152.876C518.237 153.173 518.204 153.47 518.12 153.756L519.612 159.219C519.793 159.171 519.968 159.102 520.133 159.013C520.292 158.9 520.438 158.768 520.566 158.62C520.972 158.155 521.016 157.478 521.031 156.979C521.056 156.143 521.537 153.693 521.537 153.693C521.707 153.223 522.004 152.808 522.395 152.495C522.547 152.385 522.672 152.242 522.761 152.077C522.85 151.911 522.901 151.728 522.91 151.541C522.899 151.437 522.867 151.337 522.814 151.247C522.762 151.157 522.69 151.08 522.605 151.021C522.519 150.961 522.422 150.921 522.319 150.903C522.217 150.885 522.112 150.89 522.011 150.917L521.468 150.982C521.275 150.845 521.141 150.64 521.093 150.409C521.045 150.177 521.087 149.936 521.209 149.734C521.209 149.734 521.521 148.545 521.031 148.745C520.744 148.857 519.493 149.419 518.488 149.831L517.84 150.096L517.113 150.389Z" fill="#263238"/>
<path d="M521.328 154.998C521.335 154.982 521.337 154.966 521.333 154.949C521.33 154.933 521.321 154.918 521.309 154.907C521.191 154.796 521.044 154.719 520.885 154.686C520.797 154.686 520.76 154.807 520.844 154.826C520.985 154.855 521.115 154.92 521.222 155.016C521.228 155.025 521.236 155.031 521.245 155.036C521.254 155.041 521.264 155.043 521.275 155.043C521.285 155.043 521.295 155.041 521.305 155.036C521.314 155.031 521.322 155.025 521.328 155.016V154.998Z" fill="#407BFF"/>
<path d="M521.44 154.514C521.447 154.499 521.449 154.482 521.445 154.465C521.442 154.449 521.434 154.434 521.421 154.423C521.303 154.312 521.156 154.237 520.997 154.205C520.91 154.186 520.869 154.323 520.956 154.342C521.097 154.371 521.227 154.437 521.334 154.532C521.341 154.54 521.35 154.546 521.36 154.549C521.37 154.553 521.381 154.554 521.391 154.552C521.401 154.551 521.411 154.547 521.42 154.541C521.428 154.534 521.435 154.526 521.44 154.517V154.514Z" fill="#407BFF"/>
<path d="M521.534 154.024C521.54 154.008 521.542 153.991 521.538 153.974C521.535 153.958 521.527 153.942 521.515 153.93C521.394 153.821 521.247 153.746 521.088 153.712C521.003 153.693 520.963 153.831 521.05 153.849C521.19 153.879 521.319 153.946 521.424 154.043C521.432 154.05 521.441 154.056 521.451 154.059C521.461 154.062 521.472 154.063 521.482 154.061C521.493 154.059 521.503 154.055 521.511 154.048C521.519 154.042 521.526 154.034 521.531 154.024H521.534Z" fill="#407BFF"/>
<path opacity="0.2" d="M517.84 150.096L517.113 150.408L517.671 152.389C517.797 152.422 517.914 152.485 518.009 152.573C518.105 152.661 518.178 152.772 518.22 152.895C518.237 153.192 518.204 153.489 518.12 153.775L519.612 159.238C519.793 159.19 519.968 159.121 520.133 159.032C520.214 158.973 520.286 158.913 520.354 158.854L517.949 150.065L517.84 150.096Z" fill="white"/>
<path d="M522.292 154.424C522.238 154.423 522.185 154.418 522.133 154.408C521.881 154.316 521.645 154.185 521.434 154.021L521.371 153.981L521.44 153.952C521.626 153.879 521.818 153.821 522.014 153.781C522.214 153.738 522.422 153.75 522.616 153.815C522.672 153.821 522.724 153.846 522.764 153.884C522.805 153.923 522.831 153.974 522.84 154.029C522.849 154.084 522.839 154.141 522.813 154.19C522.787 154.239 522.745 154.279 522.694 154.302C522.576 154.384 522.435 154.426 522.292 154.424ZM521.537 154.002C521.726 154.144 521.936 154.255 522.161 154.33C522.246 154.349 522.334 154.351 522.42 154.336C522.505 154.32 522.587 154.288 522.66 154.24C522.695 154.219 522.724 154.189 522.744 154.153C522.764 154.118 522.773 154.077 522.772 154.037C522.753 153.956 522.66 153.909 522.604 153.887C522.422 153.827 522.227 153.816 522.039 153.856C521.868 153.89 521.699 153.939 521.537 154.002Z" fill="#407BFF"/>
<path d="M521.415 154.043V153.971C521.387 153.703 521.399 153.433 521.449 153.169C521.482 153.076 521.533 152.991 521.599 152.918C521.664 152.845 521.744 152.786 521.833 152.745C521.879 152.716 521.933 152.702 521.987 152.705C522.041 152.709 522.093 152.729 522.134 152.764C522.176 152.799 522.205 152.846 522.219 152.899C522.232 152.951 522.228 153.007 522.208 153.057C522.163 153.257 522.065 153.441 521.924 153.59C521.788 153.735 521.64 153.868 521.481 153.987L521.415 154.043ZM521.98 152.795C521.938 152.795 521.897 152.803 521.858 152.82C521.779 152.857 521.708 152.91 521.649 152.976C521.591 153.041 521.546 153.117 521.518 153.2C521.47 153.428 521.458 153.662 521.484 153.893C521.619 153.789 521.745 153.675 521.861 153.55C521.991 153.41 522.082 153.239 522.126 153.054C522.138 153.016 522.141 152.976 522.134 152.938C522.127 152.899 522.11 152.863 522.086 152.832C522.072 152.819 522.055 152.808 522.037 152.801C522.019 152.794 521.999 152.791 521.98 152.792V152.795Z" fill="#407BFF"/>
<path d="M526.591 121.76C526.591 121.76 527.583 130.596 527.839 131.07C528.738 132.674 534.681 135.438 534.681 135.438L537.711 134.814L539.895 136.627L538.463 137.747L536.784 137.123C535.868 137.287 534.938 137.368 534.007 137.367C532.447 137.367 524.894 135.454 523.633 133.348C522.373 131.242 521.796 121.492 521.796 121.492L526.591 121.76Z" fill="#B97964"/>
<path d="M521.662 125.233C521.662 125.233 519.334 117.473 522.236 115.317C525.137 113.161 527.443 123.835 527.443 123.835L521.662 125.233Z" fill="#407BFF"/>
<path opacity="0.3" d="M521.662 125.233C521.662 125.233 519.334 117.473 522.236 115.317C525.137 113.161 527.443 123.835 527.443 123.835L521.662 125.233Z" fill="white"/>
<path d="M523.499 139.429L523.477 129.133L523.19 114.968L517.178 113.72L511.874 113.486L505.871 116.26L505.731 119.716C505.731 119.716 506.417 135.585 506.38 136.065C506.333 136.652 504.623 140.33 504.623 140.33C512.23 142.065 523.624 139.953 523.499 139.429Z" fill="#407BFF"/>
<path opacity="0.3" d="M523.499 139.429L523.477 129.133L523.19 114.968L517.178 113.72L511.874 113.486L505.871 116.26L505.731 119.716C505.731 119.716 506.417 135.585 506.38 136.065C506.333 136.652 504.623 140.33 504.623 140.33C512.23 142.065 523.624 139.953 523.499 139.429Z" fill="white"/>
<path d="M514.888 115.776C514.888 115.776 516.364 117.09 517.119 115.392L517.512 115.704C517.512 115.704 517.475 116.968 516.757 117.389C516.932 118.091 519.927 128.294 520.464 133.435L519.646 135.523L517.462 133.803C517.462 133.803 516.408 124.983 516.046 117.486C515.622 117.344 515.235 117.111 514.912 116.803C514.588 116.495 514.336 116.12 514.174 115.704L514.888 115.776Z" fill="#407BFF"/>
<path opacity="0.2" d="M516.791 115.957L518.07 116.952L518.28 113.967L517.874 113.879L517.534 115.892L516.929 115.539L516.791 115.957Z" fill="black"/>
<path opacity="0.2" d="M510.629 114.082C510.607 114.082 513.64 117.792 513.64 117.792L514.67 117.005L515.378 116.406L515.562 116.182L511.547 113.392C511.362 113.589 511.164 113.773 510.954 113.941C510.841 113.978 510.733 114.025 510.629 114.082Z" fill="black"/>
<path d="M510.844 114.019L512.311 112.709L516.326 116.469L515.278 116.097L513.746 117.274L510.844 114.019Z" fill="#407BFF"/>
<path d="M516.326 116.469C516.239 116.297 516.638 112.884 516.638 112.884L518.061 113.857C517.986 113.842 517.936 116.665 517.889 116.665C517.843 116.665 516.953 115.698 516.953 115.698L516.326 116.469Z" fill="#407BFF"/>
<path opacity="0.2" d="M523.393 124.815L523.081 118.182L524.566 124.531L523.393 124.815Z" fill="black"/>
<path opacity="0.2" d="M510.52 125.782C510.707 125.745 511.652 125.433 511.652 125.433L509.553 119.573L512.445 126.072L510.707 126.765L510.52 125.782Z" fill="black"/>
<path opacity="0.3" d="M510.844 114.019L512.311 112.709L516.326 116.469L515.278 116.097L513.746 117.274L510.844 114.019Z" fill="white"/>
<path opacity="0.3" d="M516.326 116.469C516.239 116.297 516.638 112.884 516.638 112.884L518.061 113.857C517.986 113.842 517.936 116.665 517.889 116.665C517.843 116.665 516.953 115.698 516.953 115.698L516.326 116.469Z" fill="white"/>
<path opacity="0.3" d="M518.604 121.953L519.278 125.264L521.24 125.975L522.566 124.818L522.323 121.691L518.604 121.953Z" fill="white"/>
<path d="M516.567 116.182L515.943 116.331C515.943 116.331 515.921 116.372 515.943 116.347C515.964 116.322 515.603 117.523 515.603 117.523C515.702 117.614 516.036 118.191 516.074 118.182C516.111 118.172 516.938 118.094 516.938 118.094L517.25 117.221L516.567 116.182Z" fill="#407BFF"/>
<path opacity="0.2" d="M516.567 116.182L515.943 116.331C515.943 116.331 515.921 116.372 515.943 116.347C515.964 116.322 515.603 117.523 515.603 117.523C515.702 117.614 516.036 118.191 516.074 118.182C516.111 118.172 516.938 118.094 516.938 118.094L517.25 117.221L516.567 116.182Z" fill="black"/>
<path d="M509.712 120.921C509.712 120.921 511.185 130.73 512.036 131.647C513.475 133.207 520.604 137.31 520.604 137.31L524.164 136.062C524.286 136.022 524.415 136.011 524.542 136.032C524.669 136.053 524.788 136.104 524.891 136.181L527.324 138.053L527.094 138.249C527.043 138.291 526.982 138.318 526.917 138.325C526.853 138.333 526.787 138.322 526.728 138.293L526.351 138.106L526.772 138.518L526.641 138.633C526.574 138.689 526.494 138.728 526.409 138.746C526.324 138.765 526.235 138.762 526.151 138.739L525.062 138.446L526.067 139.117C525.954 139.21 525.82 139.274 525.676 139.304C525.533 139.334 525.384 139.328 525.243 139.288L523.652 138.836C522.566 139.083 521.461 139.241 520.348 139.307C518.476 139.423 509.625 136.331 507.974 134.069C506.324 131.807 504.623 122.387 504.623 122.387L509.712 120.921Z" fill="#B97964"/>
<path d="M505.001 127.448C505.001 127.448 502.795 118.556 505.696 116.4C508.598 114.244 511.472 125.495 511.472 125.495L505.001 127.448Z" fill="#407BFF"/>
<path opacity="0.3" d="M505.001 127.448C505.001 127.448 502.795 118.556 505.696 116.4C508.598 114.244 511.472 125.495 511.472 125.495L505.001 127.448Z" fill="white"/>
<path d="M523.992 104.447C524.177 104.428 524.349 104.342 524.476 104.206C524.603 104.071 524.678 103.894 524.686 103.708C524.694 103.522 524.635 103.34 524.519 103.194C524.404 103.048 524.24 102.948 524.058 102.912L522.339 102.741C522.42 103.845 522.502 104.949 522.585 106.051C522.916 106.151 523.268 106.151 523.599 106.051C523.764 105.999 523.914 105.909 524.038 105.788C524.161 105.667 524.255 105.519 524.31 105.355C524.362 105.19 524.359 105.012 524.302 104.849C524.245 104.685 524.136 104.544 523.992 104.447Z" fill="#263238"/>
<path d="M517.419 110.815L513.721 106.163C513.721 106.163 513.721 106.163 513.721 106.179C513.721 106.619 513.721 107.115 513.671 107.658C513.671 107.658 513.272 107.467 513.272 107.474C513.113 109.889 512.158 114.026 512.202 114.369L516.086 116.3L516.795 115.592L516.932 114.032C516.536 113.034 516.904 111.885 517.419 110.815Z" fill="#B97964"/>
<path opacity="0.2" d="M516.863 112.384L514.526 110.537C514.467 111.473 514.96 112.955 516.835 113.723C516.733 113.281 516.743 112.821 516.863 112.384Z" fill="black"/>
<path d="M514.511 103.857C513.746 106.977 513.456 108.491 514.511 110.537C516.117 113.614 520.045 113.639 521.737 110.79C523.256 108.229 524.254 103.542 521.612 101.411C521.026 100.944 520.332 100.631 519.594 100.504C518.855 100.376 518.097 100.437 517.388 100.681C516.68 100.925 516.045 101.344 515.541 101.9C515.038 102.455 514.684 103.128 514.511 103.857Z" fill="#B97964"/>
<path d="M515.169 99.6081C516.105 98.0481 518.601 97.7954 519.515 99.0278C519.649 99.2119 518.17 99.2555 518.339 99.2462L517.472 101.714C517.3 101.617 516.876 101.714 516.517 102.226C516.517 102.226 515.958 105.62 514.199 106.569C512.473 104.185 512.67 99.6143 515.169 99.6081Z" fill="#263238"/>
<path d="M512.501 106.041C512.505 106.442 512.588 106.837 512.745 107.205C512.903 107.573 513.132 107.906 513.419 108.185C514.195 108.924 515.094 108.35 515.309 107.358C515.5 106.463 515.328 104.996 514.345 104.634C513.362 104.272 512.501 105.049 512.501 106.041Z" fill="#B97964"/>
<path d="M518.747 106.482C518.651 106.794 518.747 107.106 518.944 107.162C519.14 107.218 519.396 107.018 519.496 106.706C519.596 106.394 519.496 106.082 519.3 106.023C519.103 105.964 518.847 106.166 518.747 106.482Z" fill="#263238"/>
<path d="M521.83 107.483C521.733 107.795 521.83 108.107 522.027 108.163C522.223 108.219 522.482 108.02 522.579 107.708C522.676 107.396 522.579 107.084 522.382 107.024C522.186 106.965 521.93 107.168 521.83 107.483Z" fill="#263238"/>
<path d="M520.744 106.644C520.744 106.644 521.137 108.076 521.315 108.925C521.326 108.972 521.326 109.022 521.315 109.07C521.304 109.117 521.284 109.162 521.254 109.201C521.224 109.24 521.186 109.272 521.143 109.295C521.1 109.318 521.052 109.331 521.003 109.333C520.696 109.326 520.395 109.244 520.126 109.093L520.744 106.644Z" fill="#A24E3F"/>
<path d="M518.42 104.594C518.441 104.611 518.466 104.623 518.493 104.628C518.52 104.633 518.547 104.631 518.573 104.622C518.752 104.549 518.946 104.518 519.14 104.533C519.333 104.547 519.52 104.607 519.687 104.706C519.72 104.73 519.761 104.741 519.802 104.735C519.843 104.729 519.88 104.708 519.905 104.675C519.929 104.642 519.938 104.601 519.932 104.56C519.925 104.52 519.903 104.484 519.871 104.46C519.663 104.328 519.427 104.248 519.182 104.227C518.938 104.205 518.691 104.242 518.464 104.335C518.426 104.35 518.396 104.378 518.379 104.415C518.362 104.452 518.36 104.493 518.373 104.532C518.383 104.556 518.399 104.577 518.42 104.594Z" fill="#263238"/>
<path d="M523.468 106.054C523.498 106.048 523.526 106.034 523.549 106.013C523.578 105.985 523.594 105.946 523.594 105.906C523.594 105.865 523.578 105.827 523.549 105.798C523.392 105.613 523.192 105.468 522.966 105.375C522.741 105.283 522.497 105.246 522.254 105.268C522.214 105.275 522.178 105.297 522.153 105.33C522.129 105.363 522.118 105.405 522.123 105.446C522.127 105.465 522.133 105.485 522.144 105.502C522.154 105.519 522.168 105.534 522.184 105.546C522.2 105.558 522.219 105.566 522.238 105.571C522.258 105.576 522.278 105.577 522.298 105.573C522.49 105.556 522.684 105.586 522.862 105.662C523.04 105.737 523.197 105.854 523.318 106.004C523.337 106.024 523.361 106.04 523.387 106.048C523.413 106.057 523.441 106.059 523.468 106.054Z" fill="#263238"/>
<path d="M518.489 109.733C518.596 109.82 518.711 109.898 518.832 109.967C518.851 109.976 518.873 109.979 518.894 109.975C518.915 109.97 518.934 109.958 518.947 109.942C518.956 109.921 518.958 109.898 518.951 109.877C518.944 109.855 518.929 109.837 518.91 109.826C518.6 109.66 518.334 109.423 518.134 109.134C517.933 108.846 517.803 108.514 517.755 108.166C517.753 108.145 517.743 108.125 517.726 108.112C517.71 108.098 517.689 108.09 517.668 108.091C517.649 108.091 517.63 108.097 517.615 108.11C517.601 108.123 517.592 108.141 517.59 108.16C517.589 108.166 517.589 108.173 517.59 108.179C517.626 108.485 517.725 108.781 517.879 109.048C518.034 109.315 518.241 109.548 518.489 109.733Z" fill="#263238"/>
<path d="M525.543 102.111C525.331 101.487 524.588 101.225 523.93 101.175C524.135 101.151 524.324 101.052 524.461 100.897C524.597 100.742 524.671 100.542 524.669 100.335C524.657 100.128 524.598 99.927 524.497 99.7457C524.397 99.5643 524.258 99.4076 524.089 99.287C523.796 99.0596 523.45 98.9115 523.083 98.8569C522.716 98.8022 522.342 98.8429 521.995 98.975C522.057 98.9381 522.104 98.8809 522.129 98.8133C522.153 98.7456 522.153 98.6716 522.13 98.6037C522.079 98.4682 521.987 98.3516 521.868 98.2699C521.51 98.0131 521.077 97.8853 520.637 97.9074C520.198 97.9295 519.779 98.1002 519.45 98.3916C519.324 98.0145 519.063 97.6975 518.717 97.5025C518.371 97.3075 517.965 97.2485 517.578 97.337C516.832 97.5304 515.428 97.6802 515.213 99.5865C515.052 99.4335 514.861 99.3164 514.651 99.2432C514.442 99.1699 514.219 99.1422 513.998 99.1618C513.777 99.1815 513.563 99.248 513.37 99.357C513.177 99.466 513.009 99.6149 512.878 99.7939C512.747 99.9729 512.655 100.178 512.61 100.395C512.564 100.612 512.565 100.836 512.613 101.053C512.661 101.269 512.755 101.473 512.888 101.651C513.021 101.828 513.19 101.976 513.384 102.083C513.208 102.025 513.017 102.036 512.849 102.114C512.681 102.193 512.549 102.332 512.479 102.504C512.419 102.679 512.406 102.868 512.442 103.05C512.478 103.232 512.562 103.401 512.685 103.54C512.937 103.811 513.262 104.004 513.621 104.095C513.955 104.203 514.312 104.214 514.651 104.126C514.819 104.078 514.971 103.988 515.093 103.863C515.215 103.738 515.303 103.584 515.347 103.415C515.384 103.593 515.486 103.75 515.632 103.859C515.778 103.967 515.958 104.017 516.139 104.001C516.319 103.974 516.487 103.891 516.617 103.763C516.747 103.635 516.833 103.47 516.863 103.29C516.887 103.11 516.862 102.926 516.792 102.759C516.722 102.591 516.609 102.445 516.464 102.335C516.571 102.425 516.697 102.491 516.832 102.526C516.968 102.561 517.11 102.565 517.247 102.538C517.384 102.511 517.514 102.454 517.626 102.37C517.739 102.286 517.831 102.178 517.896 102.054C518.172 102.658 518.645 103.15 519.237 103.449C519.536 103.591 519.874 103.63 520.197 103.561C520.521 103.492 520.813 103.319 521.028 103.068C521.214 103.306 521.432 103.517 521.677 103.692C521.802 103.779 521.943 103.837 522.092 103.864C522.241 103.891 522.395 103.886 522.541 103.848C522.686 103.805 522.811 103.711 522.894 103.585C522.977 103.458 523.012 103.306 522.994 103.156C523.225 103.363 523.504 103.508 523.807 103.578C524.109 103.649 524.424 103.642 524.722 103.558C525.013 103.46 525.258 103.258 525.409 102.991C525.56 102.724 525.608 102.411 525.543 102.111Z" fill="#263238"/>
<path d="M528.75 138.749H517.468C517.468 139.179 517.952 139.526 518.545 139.522H536.918C537.505 139.522 537.976 139.17 537.973 138.742L528.75 138.749Z" fill="#263238"/>
<path d="M537.087 139.488H526.791C526.715 139.493 526.641 139.469 526.583 139.421C526.525 139.373 526.487 139.304 526.479 139.229C526.479 139.201 526.485 139.174 526.494 139.148L531.081 128.64C531.157 128.481 531.279 128.348 531.43 128.257C531.582 128.167 531.756 128.123 531.933 128.131H542.229C542.304 128.125 542.378 128.148 542.436 128.196C542.494 128.244 542.532 128.312 542.541 128.387C542.54 128.416 542.534 128.445 542.522 128.471L537.939 138.982C537.861 139.14 537.739 139.272 537.588 139.362C537.437 139.452 537.263 139.496 537.087 139.488Z" fill="#263238"/>
<path opacity="0.7" d="M542.229 128.128H531.933C531.756 128.12 531.582 128.164 531.43 128.254C531.279 128.345 531.157 128.478 531.081 128.637L526.669 138.749H517.468C517.468 139.179 517.952 139.526 518.545 139.523H536.918C537.093 139.522 537.266 139.487 537.427 139.42C537.54 139.387 537.644 139.33 537.733 139.253C537.822 139.176 537.893 139.081 537.942 138.973L542.525 128.462C542.537 128.436 542.543 128.407 542.544 128.378C542.534 128.304 542.495 128.236 542.436 128.19C542.378 128.143 542.303 128.121 542.229 128.128Z" fill="white"/>
<path d="M536.035 133.725C535.811 134.227 535.362 134.574 535.025 134.505C534.688 134.437 534.597 133.975 534.816 133.469C535.034 132.964 535.486 132.624 535.823 132.696C536.16 132.767 536.26 133.207 536.035 133.725Z" fill="white"/>
<g opacity="0.3">
<path d="M531.065 128.637L526.653 138.748H527.131L531.917 128.14C531.742 128.131 531.568 128.173 531.417 128.261C531.265 128.349 531.143 128.48 531.065 128.637Z" fill="black"/>
</g>
<path d="M531.595 150.408L538.235 151.475L539.299 148.739L532.322 146.561L531.595 150.408Z" fill="#B97964"/>
<path d="M541.186 152.857L542.082 151.004C542.008 150.896 541.962 150.772 541.949 150.642C541.936 150.512 541.956 150.381 542.007 150.261C542.107 150.037 542.665 149.669 542.665 149.669L545.161 144.589C544.994 144.504 544.817 144.44 544.634 144.399C544.439 144.377 544.242 144.377 544.047 144.399C543.439 144.483 542.959 144.957 542.615 145.335C542.041 145.959 540.057 147.46 540.057 147.46C539.617 147.699 539.119 147.813 538.619 147.787C538.432 147.768 538.243 147.791 538.067 147.856C537.89 147.921 537.731 148.026 537.602 148.162C537.539 148.245 537.495 148.342 537.474 148.444C537.453 148.547 537.454 148.652 537.478 148.754C537.503 148.856 537.549 148.951 537.614 149.033C537.679 149.115 537.761 149.182 537.854 149.229L538.307 149.541C538.361 149.77 538.327 150.011 538.212 150.217C538.096 150.422 537.907 150.576 537.683 150.648C537.683 150.648 536.653 151.328 537.162 151.506C537.449 151.612 538.759 152.024 539.782 152.38L540.447 152.611L541.186 152.857Z" fill="#263238"/>
<path d="M541.096 146.611C541.08 146.617 541.066 146.628 541.057 146.643C541.048 146.658 541.044 146.675 541.046 146.692C541.065 146.853 541.125 147.007 541.221 147.138C541.274 147.21 541.396 147.138 541.342 147.06C541.255 146.946 541.201 146.81 541.186 146.667C541.187 146.656 541.184 146.646 541.179 146.637C541.174 146.627 541.166 146.619 541.157 146.614C541.148 146.608 541.138 146.605 541.127 146.604C541.116 146.604 541.106 146.606 541.096 146.611Z" fill="#407BFF"/>
<path d="M540.681 146.898C540.665 146.905 540.652 146.916 540.644 146.931C540.636 146.945 540.632 146.962 540.634 146.979C540.649 147.141 540.709 147.295 540.806 147.425C540.859 147.497 540.98 147.425 540.927 147.347C540.841 147.233 540.788 147.097 540.775 146.954C540.773 146.944 540.77 146.934 540.764 146.926C540.759 146.917 540.751 146.91 540.743 146.905C540.734 146.899 540.724 146.896 540.714 146.895C540.704 146.894 540.694 146.895 540.684 146.898H540.681Z" fill="#407BFF"/>
<path d="M540.285 147.207C540.269 147.214 540.256 147.225 540.248 147.24C540.239 147.254 540.236 147.271 540.238 147.288C540.254 147.45 540.315 147.604 540.413 147.734C540.463 147.803 540.584 147.734 540.531 147.656C540.447 147.541 540.394 147.405 540.378 147.263C540.378 147.253 540.374 147.243 540.369 147.234C540.364 147.225 540.356 147.217 540.347 147.212C540.339 147.206 540.329 147.203 540.318 147.202C540.308 147.201 540.297 147.203 540.288 147.207H540.285Z" fill="#407BFF"/>
<path opacity="0.2" d="M542.007 150.261C542.107 150.037 542.665 149.668 542.665 149.668L545.161 144.589C544.994 144.504 544.817 144.44 544.634 144.399C544.534 144.399 544.44 144.399 544.35 144.399L540.325 152.573L540.438 152.611L541.18 152.869L542.076 151.016C542.001 150.907 541.955 150.78 541.943 150.648C541.931 150.515 541.953 150.382 542.007 150.261Z" fill="white"/>
<path d="M540.375 147.344L540.307 147.319L540.322 147.282L540.307 147.316C540.119 147.25 539.937 147.168 539.764 147.069C539.585 146.969 539.437 146.821 539.336 146.642C539.305 146.597 539.285 146.544 539.28 146.49C539.275 146.435 539.285 146.38 539.308 146.33C539.341 146.284 539.386 146.249 539.438 146.229C539.49 146.208 539.547 146.203 539.602 146.214C539.699 146.228 539.792 146.261 539.876 146.311C539.961 146.361 540.034 146.428 540.091 146.508C540.218 146.744 540.308 146.997 540.36 147.26L540.375 147.344ZM539.558 146.302C539.523 146.299 539.488 146.305 539.456 146.319C539.423 146.333 539.395 146.355 539.374 146.383C539.361 146.42 539.357 146.459 539.362 146.498C539.367 146.536 539.382 146.573 539.405 146.604C539.5 146.771 539.638 146.909 539.804 147.004C539.952 147.089 540.106 147.161 540.266 147.219C540.221 146.991 540.141 146.771 540.029 146.567C539.978 146.496 539.913 146.436 539.838 146.391C539.762 146.346 539.679 146.317 539.592 146.305L539.558 146.302Z" fill="#407BFF"/>
<path d="M539.417 147.999C539.35 147.998 539.282 147.988 539.218 147.968C539.164 147.953 539.116 147.924 539.078 147.884C539.039 147.844 539.012 147.794 538.999 147.741C539 147.688 539.014 147.636 539.04 147.59C539.067 147.544 539.104 147.506 539.149 147.478C539.315 147.359 539.51 147.286 539.714 147.266C539.913 147.249 540.113 147.249 540.313 147.266H540.388L540.341 147.322C540.188 147.547 540 147.746 539.786 147.912C539.672 147.97 539.545 148 539.417 147.999ZM539.982 147.332C539.896 147.327 539.809 147.327 539.723 147.332C539.533 147.35 539.351 147.417 539.196 147.528C539.163 147.549 539.135 147.577 539.114 147.61C539.094 147.643 539.081 147.68 539.077 147.719C539.087 147.758 539.108 147.794 539.137 147.823C539.167 147.851 539.203 147.871 539.243 147.881C539.413 147.929 539.596 147.908 539.751 147.822C539.937 147.683 540.101 147.515 540.235 147.326L539.982 147.332Z" fill="#407BFF"/>
<path d="M506.654 147.382C505.222 145.101 501.974 138.92 508.551 137.71C515.128 136.499 537.056 146.929 537.056 146.929L535.667 151.126L515.247 147.912C515.247 147.912 518.055 151.64 514.651 151.472C509.721 150.979 508.539 149.8 506.654 147.382Z" fill="#263238"/>
<path opacity="0.7" d="M515.731 148.021L510.115 146.258C510.115 146.258 514.813 149.132 516.539 149.475L515.731 148.021Z" fill="black"/>
<path d="M494.92 94.8223H506.339C506.836 94.8223 507.312 95.0195 507.663 95.3706C508.014 95.7216 508.211 96.1978 508.211 96.6943V102.859C508.211 103.356 508.014 103.832 507.663 104.183C507.312 104.534 506.836 104.731 506.339 104.731H503.606L503.587 106.603L501.531 104.731H494.92C494.424 104.731 493.947 104.534 493.596 104.183C493.245 103.832 493.048 103.356 493.048 102.859V96.6911C493.049 96.1952 493.247 95.7198 493.597 95.3695C493.948 95.0191 494.424 94.8223 494.92 94.8223Z" fill="#407BFF"/>
<path d="M499.223 98.8001L497.416 99.6394L499.216 100.482V101.159L496.811 99.9919V99.2899L499.216 98.123L499.223 98.8001Z" fill="white"/>
<path d="M504.701 99.29V99.992L502.296 101.159V100.488L504.096 99.6457L502.296 98.8064V98.1294L504.701 99.29Z" fill="white"/>
<path d="M501.182 97.6489L500.009 101.705H500.595L501.768 97.6489H501.182Z" fill="white"/>
<path d="M503.703 94.4011H497.84C497.82 94.4011 497.8 94.3929 497.785 94.3783C497.77 94.3636 497.762 94.3438 497.762 94.3231C497.762 94.3024 497.77 94.2826 497.785 94.268C497.8 94.2533 497.82 94.2451 497.84 94.2451H503.703C503.723 94.2451 503.743 94.2533 503.758 94.268C503.772 94.2826 503.781 94.3024 503.781 94.3231C503.781 94.3438 503.772 94.3636 503.758 94.3783C503.743 94.3929 503.723 94.4011 503.703 94.4011Z" fill="#407BFF"/>
<path d="M505.322 94.4043H504.386C504.365 94.4043 504.346 94.3961 504.331 94.3814C504.316 94.3668 504.308 94.347 504.308 94.3263C504.308 94.3056 504.316 94.2858 504.331 94.2711C504.346 94.2565 504.365 94.2483 504.386 94.2483H505.322C505.343 94.2483 505.363 94.2565 505.377 94.2711C505.392 94.2858 505.4 94.3056 505.4 94.3263C505.4 94.347 505.392 94.3668 505.377 94.3814C505.363 94.3961 505.343 94.4043 505.322 94.4043Z" fill="#407BFF"/>
</svg>
