<svg width="26" height="29" viewBox="0 0 26 29" fill="none" xmlns="http://www.w3.org/2000/svg">
<g filter="url(#filter0_d_656_382)">
<path d="M10 2V0H16V2H10ZM12 13H14V7H12V13ZM13 21C11.7667 21 10.604 20.7623 9.512 20.287C8.42 19.8117 7.466 19.166 6.65 18.35C5.83333 17.5333 5.18733 16.579 4.712 15.487C4.23667 14.395 3.99933 13.2327 4 12C4 10.7667 4.23767 9.604 4.713 8.512C5.18833 7.42 5.834 6.466 6.65 5.65C7.46667 4.83333 8.421 4.18733 9.513 3.712C10.605 3.23667 11.7673 2.99933 13 3C14.0333 3 15.025 3.16667 15.975 3.5C16.925 3.83333 17.8167 4.31667 18.65 4.95L20.05 3.55L21.45 4.95L20.05 6.35C20.6833 7.18333 21.1667 8.075 21.5 9.025C21.8333 9.975 22 10.9667 22 12C22 13.2333 21.7623 14.396 21.287 15.488C20.8117 16.58 20.166 17.534 19.35 18.35C18.5333 19.1667 17.579 19.8127 16.487 20.288C15.395 20.7633 14.2327 21.0007 13 21Z" fill="black"/>
</g>
<defs>
<filter id="filter0_d_656_382" x="2.38419e-07" y="0" width="26" height="29" filterUnits="userSpaceOnUse" color-interpolation-filters="sRGB">
<feFlood flood-opacity="0" result="BackgroundImageFix"/>
<feColorMatrix in="SourceAlpha" type="matrix" values="0 0 0 0 0 0 0 0 0 0 0 0 0 0 0 0 0 0 127 0" result="hardAlpha"/>
<feOffset dy="4"/>
<feGaussianBlur stdDeviation="2"/>
<feComposite in2="hardAlpha" operator="out"/>
<feColorMatrix type="matrix" values="0 0 0 0 0 0 0 0 0 0 0 0 0 0 0 0 0 0 0.25 0"/>
<feBlend mode="normal" in2="BackgroundImageFix" result="effect1_dropShadow_656_382"/>
<feBlend mode="normal" in="SourceGraphic" in2="effect1_dropShadow_656_382" result="shape"/>
</filter>
</defs>
</svg>
